%TF.GenerationSoftware,KiCad,Pcbnew,8.0.2*%
%TF.CreationDate,2024-07-30T14:50:55+02:00*%
%TF.ProjectId,lc29h_mikrobus_PCB,6c633239-685f-46d6-996b-726f6275735f,rev?*%
%TF.SameCoordinates,Original*%
%TF.FileFunction,Copper,L1,Top*%
%TF.FilePolarity,Positive*%
%FSLAX46Y46*%
G04 Gerber Fmt 4.6, Leading zero omitted, Abs format (unit mm)*
G04 Created by KiCad (PCBNEW 8.0.2) date 2024-07-30 14:50:55*
%MOMM*%
%LPD*%
G01*
G04 APERTURE LIST*
G04 Aperture macros list*
%AMRoundRect*
0 Rectangle with rounded corners*
0 $1 Rounding radius*
0 $2 $3 $4 $5 $6 $7 $8 $9 X,Y pos of 4 corners*
0 Add a 4 corners polygon primitive as box body*
4,1,4,$2,$3,$4,$5,$6,$7,$8,$9,$2,$3,0*
0 Add four circle primitives for the rounded corners*
1,1,$1+$1,$2,$3*
1,1,$1+$1,$4,$5*
1,1,$1+$1,$6,$7*
1,1,$1+$1,$8,$9*
0 Add four rect primitives between the rounded corners*
20,1,$1+$1,$2,$3,$4,$5,0*
20,1,$1+$1,$4,$5,$6,$7,0*
20,1,$1+$1,$6,$7,$8,$9,0*
20,1,$1+$1,$8,$9,$2,$3,0*%
%AMFreePoly0*
4,1,17,1.395000,0.765000,0.855000,0.765000,0.855000,0.535000,1.395000,0.535000,1.395000,0.115000,0.855000,0.115000,0.855000,-0.115000,1.395000,-0.115000,1.395000,-0.535000,0.855000,-0.535000,0.855000,-0.765000,1.395000,-0.765000,1.395000,-1.185000,-0.855000,-1.185000,-0.855000,1.185000,1.395000,1.185000,1.395000,0.765000,1.395000,0.765000,$1*%
G04 Aperture macros list end*
%TA.AperFunction,ComponentPad*%
%ADD10C,1.445000*%
%TD*%
%TA.AperFunction,ComponentPad*%
%ADD11R,1.445000X1.445000*%
%TD*%
%TA.AperFunction,SMDPad,CuDef*%
%ADD12RoundRect,0.147500X-0.172500X0.147500X-0.172500X-0.147500X0.172500X-0.147500X0.172500X0.147500X0*%
%TD*%
%TA.AperFunction,SMDPad,CuDef*%
%ADD13RoundRect,0.100000X-0.130000X-0.100000X0.130000X-0.100000X0.130000X0.100000X-0.130000X0.100000X0*%
%TD*%
%TA.AperFunction,SMDPad,CuDef*%
%ADD14RoundRect,0.100000X0.130000X0.100000X-0.130000X0.100000X-0.130000X-0.100000X0.130000X-0.100000X0*%
%TD*%
%TA.AperFunction,SMDPad,CuDef*%
%ADD15R,2.400000X1.600000*%
%TD*%
%TA.AperFunction,SMDPad,CuDef*%
%ADD16R,0.450000X0.750000*%
%TD*%
%TA.AperFunction,SMDPad,CuDef*%
%ADD17R,1.200000X1.200000*%
%TD*%
%TA.AperFunction,ComponentPad*%
%ADD18O,1.000000X1.000000*%
%TD*%
%TA.AperFunction,ComponentPad*%
%ADD19R,1.000000X1.000000*%
%TD*%
%TA.AperFunction,SMDPad,CuDef*%
%ADD20R,0.800000X0.300000*%
%TD*%
%TA.AperFunction,SMDPad,CuDef*%
%ADD21RoundRect,0.100000X-0.100000X0.130000X-0.100000X-0.130000X0.100000X-0.130000X0.100000X0.130000X0*%
%TD*%
%TA.AperFunction,SMDPad,CuDef*%
%ADD22FreePoly0,0.000000*%
%TD*%
%TA.AperFunction,SMDPad,CuDef*%
%ADD23RoundRect,0.105000X-0.245000X-0.105000X0.245000X-0.105000X0.245000X0.105000X-0.245000X0.105000X0*%
%TD*%
%TA.AperFunction,SMDPad,CuDef*%
%ADD24RoundRect,0.100000X0.100000X-0.130000X0.100000X0.130000X-0.100000X0.130000X-0.100000X-0.130000X0*%
%TD*%
%TA.AperFunction,SMDPad,CuDef*%
%ADD25RoundRect,0.250000X0.550000X-0.250000X0.550000X0.250000X-0.550000X0.250000X-0.550000X-0.250000X0*%
%TD*%
%TA.AperFunction,SMDPad,CuDef*%
%ADD26R,0.244000X0.300000*%
%TD*%
%TA.AperFunction,SMDPad,CuDef*%
%ADD27RoundRect,0.237500X0.237500X-0.250000X0.237500X0.250000X-0.237500X0.250000X-0.237500X-0.250000X0*%
%TD*%
%TA.AperFunction,ComponentPad*%
%ADD28C,2.250000*%
%TD*%
%TA.AperFunction,ComponentPad*%
%ADD29C,2.050000*%
%TD*%
%TA.AperFunction,SMDPad,CuDef*%
%ADD30R,1.125000X0.600000*%
%TD*%
%TA.AperFunction,SMDPad,CuDef*%
%ADD31RoundRect,0.200000X-0.200000X1.050000X-0.200000X-1.050000X0.200000X-1.050000X0.200000X1.050000X0*%
%TD*%
%TA.AperFunction,ComponentPad*%
%ADD32O,1.050000X1.500000*%
%TD*%
%TA.AperFunction,ComponentPad*%
%ADD33R,1.050000X1.500000*%
%TD*%
%TA.AperFunction,SMDPad,CuDef*%
%ADD34R,0.600000X1.250000*%
%TD*%
%TA.AperFunction,SMDPad,CuDef*%
%ADD35R,0.650000X1.100000*%
%TD*%
%TA.AperFunction,ViaPad*%
%ADD36C,0.800000*%
%TD*%
%TA.AperFunction,ViaPad*%
%ADD37C,1.000000*%
%TD*%
%TA.AperFunction,Conductor*%
%ADD38C,0.400000*%
%TD*%
%TA.AperFunction,Conductor*%
%ADD39C,0.300000*%
%TD*%
%TA.AperFunction,Conductor*%
%ADD40C,0.800000*%
%TD*%
%TA.AperFunction,Conductor*%
%ADD41C,0.200000*%
%TD*%
%TA.AperFunction,Conductor*%
%ADD42C,0.250000*%
%TD*%
G04 APERTURE END LIST*
D10*
%TO.P,IC1,16,GND_2*%
%TO.N,GND*%
X148953000Y-93001000D03*
%TO.P,IC1,15,+5V*%
%TO.N,unconnected-(IC1-+5V-Pad15)*%
X148953000Y-90461000D03*
%TO.P,IC1,14,SDA*%
%TO.N,SDA*%
X148953000Y-87921000D03*
%TO.P,IC1,13,SCL*%
%TO.N,SCL*%
X148953000Y-85381000D03*
%TO.P,IC1,12,TX*%
%TO.N,RX1*%
X148953000Y-82841000D03*
%TO.P,IC1,11,RX*%
%TO.N,TX1*%
X148953000Y-80301000D03*
%TO.P,IC1,10,INT*%
%TO.N,1PPS*%
X148953000Y-77761000D03*
%TO.P,IC1,9,PWM*%
%TO.N,WUP*%
X148953000Y-75221000D03*
%TO.P,IC1,8,GND_1*%
%TO.N,GND*%
X126093000Y-93001000D03*
%TO.P,IC1,7,+3.3V*%
%TO.N,VCC*%
X126093000Y-90461000D03*
%TO.P,IC1,6,MOSI*%
%TO.N,unconnected-(IC1-MOSI-Pad6)*%
X126093000Y-87921000D03*
%TO.P,IC1,5,MISO*%
%TO.N,unconnected-(IC1-MISO-Pad5)*%
X126093000Y-85381000D03*
%TO.P,IC1,4,SCK*%
%TO.N,unconnected-(IC1-SCK-Pad4)*%
X126093000Y-82841000D03*
%TO.P,IC1,3,CS*%
%TO.N,CE_HOST*%
X126093000Y-80301000D03*
%TO.P,IC1,2,RST*%
%TO.N,RST*%
X126093000Y-77761000D03*
D11*
%TO.P,IC1,1,AN*%
%TO.N,unconnected-(IC1-AN-Pad1)*%
X126093000Y-75221000D03*
%TD*%
D12*
%TO.P,D1,2,A*%
%TO.N,Net-(D1-A)*%
X130393000Y-81593500D03*
%TO.P,D1,1,K*%
%TO.N,GND*%
X130393000Y-80623500D03*
%TD*%
D13*
%TO.P,R13,2*%
%TO.N,Net-(Q3-B)*%
X132093000Y-77771000D03*
%TO.P,R13,1*%
%TO.N,RST*%
X131453000Y-77771000D03*
%TD*%
D14*
%TO.P,R18,2*%
%TO.N,Net-(J2-Pin_3)*%
X128928000Y-71521000D03*
%TO.P,R18,1*%
%TO.N,Net-(U2-RXD2)*%
X129568000Y-71521000D03*
%TD*%
D15*
%TO.P,IC2,7,EP*%
%TO.N,GND*%
X131129500Y-91747000D03*
D16*
%TO.P,IC2,6,CEXT*%
%TO.N,VCC*%
X132079500Y-93247000D03*
%TO.P,IC2,5,PIOA*%
%TO.N,unconnected-(IC2-PIOA-Pad5)*%
X131129500Y-93247000D03*
%TO.P,IC2,4,PIOB*%
%TO.N,unconnected-(IC2-PIOB-Pad4)*%
X130179500Y-93247000D03*
%TO.P,IC2,3,GND*%
%TO.N,GND*%
X130179500Y-90247000D03*
%TO.P,IC2,2,IO*%
%TO.N,Net-(IC2-IO)*%
X131129500Y-90247000D03*
%TO.P,IC2,1,N.C.*%
%TO.N,unconnected-(IC2-N.C.-Pad1)*%
X132079500Y-90247000D03*
%TD*%
D17*
%TO.P,D2,2,A*%
%TO.N,VCC*%
X128525500Y-61731000D03*
%TO.P,D2,1,K*%
%TO.N,Net-(D2-K)*%
X125725500Y-61731000D03*
%TD*%
D18*
%TO.P,J2,3,Pin_3*%
%TO.N,Net-(J2-Pin_3)*%
X148003000Y-46261000D03*
%TO.P,J2,2,Pin_2*%
%TO.N,Net-(J2-Pin_2)*%
X148003000Y-44991000D03*
D19*
%TO.P,J2,1,Pin_1*%
%TO.N,GND*%
X148003000Y-43721000D03*
%TD*%
D14*
%TO.P,C4,2*%
%TO.N,GND*%
X126363000Y-53431000D03*
%TO.P,C4,1*%
%TO.N,VBCK*%
X127003000Y-53431000D03*
%TD*%
D13*
%TO.P,R4,2*%
%TO.N,Net-(Q1-B)*%
X126478000Y-49971000D03*
%TO.P,R4,1*%
%TO.N,ANT_ON*%
X125838000Y-49971000D03*
%TD*%
D14*
%TO.P,C2,2*%
%TO.N,GND*%
X126408000Y-56931000D03*
%TO.P,C2,1*%
%TO.N,VBCK*%
X127048000Y-56931000D03*
%TD*%
D20*
%TO.P,U1,8,B1*%
%TO.N,SCL*%
X142293000Y-83321000D03*
%TO.P,U1,7,VCCB*%
%TO.N,VCC*%
X142293000Y-82821000D03*
%TO.P,U1,6,OE*%
%TO.N,VDD_EXT*%
X142293000Y-82321000D03*
%TO.P,U1,5,A1*%
%TO.N,mSCL*%
X142293000Y-81821000D03*
%TO.P,U1,4,A2*%
%TO.N,mSDA*%
X145393000Y-81821000D03*
%TO.P,U1,3,VCCA*%
%TO.N,VDD_EXT*%
X145393000Y-82321000D03*
%TO.P,U1,2,GND*%
%TO.N,GND*%
X145393000Y-82821000D03*
%TO.P,U1,1,B2*%
%TO.N,SDA*%
X145393000Y-83321000D03*
%TD*%
D21*
%TO.P,R5,2*%
%TO.N,Net-(Q1-C)*%
X139343000Y-48991000D03*
%TO.P,R5,1*%
%TO.N,VDD_RF*%
X139343000Y-48351000D03*
%TD*%
D14*
%TO.P,R12,2*%
%TO.N,Net-(D2-K)*%
X126408000Y-58231000D03*
%TO.P,R12,1*%
%TO.N,VBCK*%
X127048000Y-58231000D03*
%TD*%
D22*
%TO.P,Q2,5,D*%
%TO.N,Net-(Q2-D)*%
X142558000Y-49096000D03*
D23*
%TO.P,Q2,4,G*%
%TO.N,Net-(Q1-C)*%
X140603000Y-50071000D03*
%TO.P,Q2,3,S*%
%TO.N,VDD_RF*%
X140603000Y-49421000D03*
%TO.P,Q2,2,S*%
X140603000Y-48771000D03*
%TO.P,Q2,1,S*%
X140603000Y-48121000D03*
%TD*%
D14*
%TO.P,R15,2*%
%TO.N,VCC*%
X133873000Y-93221000D03*
%TO.P,R15,1*%
%TO.N,Net-(IC3-Y0)*%
X134513000Y-93221000D03*
%TD*%
D24*
%TO.P,C6,2*%
%TO.N,GND*%
X135713000Y-48721000D03*
%TO.P,C6,1*%
%TO.N,Net-(C5-Pad1)*%
X135713000Y-49361000D03*
%TD*%
D21*
%TO.P,C7,2*%
%TO.N,RF_IN*%
X131833000Y-51346000D03*
%TO.P,C7,1*%
%TO.N,Net-(J1-In)*%
X131833000Y-50706000D03*
%TD*%
D14*
%TO.P,C3,2*%
%TO.N,GND*%
X126408000Y-55231000D03*
%TO.P,C3,1*%
%TO.N,VBCK*%
X127048000Y-55231000D03*
%TD*%
D24*
%TO.P,R14,2*%
%TO.N,Net-(SW1-C)*%
X148493000Y-58501000D03*
%TO.P,R14,1*%
%TO.N,VDD_EXT*%
X148493000Y-59141000D03*
%TD*%
D21*
%TO.P,C9,2*%
%TO.N,GND*%
X128593000Y-90496000D03*
%TO.P,C9,1*%
%TO.N,VCC*%
X128593000Y-89856000D03*
%TD*%
D25*
%TO.P,SW1,3,A*%
%TO.N,unconnected-(SW1-A-Pad3)*%
X149443000Y-50871000D03*
%TO.P,SW1,2,B*%
%TO.N,Net-(SW1-B)*%
X147143000Y-52621000D03*
%TO.P,SW1,1,C*%
%TO.N,Net-(SW1-C)*%
X149443000Y-54371000D03*
%TD*%
D21*
%TO.P,R16,2*%
%TO.N,Net-(IC2-IO)*%
X132993000Y-89221000D03*
%TO.P,R16,1*%
%TO.N,VCC*%
X132993000Y-88581000D03*
%TD*%
D13*
%TO.P,R3,2*%
%TO.N,GND*%
X147213000Y-80421000D03*
%TO.P,R3,1*%
%TO.N,VDD_EXT*%
X146573000Y-80421000D03*
%TD*%
D26*
%TO.P,D3,2,2*%
%TO.N,Net-(J1-In)*%
X131833000Y-48721000D03*
%TO.P,D3,1,1*%
%TO.N,GND*%
X131421000Y-48721000D03*
%TD*%
D24*
%TO.P,R10,2*%
%TO.N,SCL*%
X142293000Y-85081000D03*
%TO.P,R10,1*%
%TO.N,VCC*%
X142293000Y-85721000D03*
%TD*%
D14*
%TO.P,L1,2,2*%
%TO.N,Net-(J1-In)*%
X131833000Y-49831000D03*
%TO.P,L1,1,1*%
%TO.N,Net-(C5-Pad1)*%
X132473000Y-49831000D03*
%TD*%
%TO.P,R19,2*%
%TO.N,Net-(J2-Pin_2)*%
X128928000Y-70521000D03*
%TO.P,R19,1*%
%TO.N,Net-(U2-TXD2)*%
X129568000Y-70521000D03*
%TD*%
D24*
%TO.P,R2,2*%
%TO.N,Net-(D1-A)*%
X130393000Y-82638500D03*
%TO.P,R2,1*%
%TO.N,Net-(R1-Pad2)*%
X130393000Y-83278500D03*
%TD*%
D27*
%TO.P,R1,2*%
%TO.N,Net-(R1-Pad2)*%
X130393000Y-84808500D03*
%TO.P,R1,1*%
%TO.N,VCC*%
X130393000Y-86633500D03*
%TD*%
D24*
%TO.P,R17,2*%
%TO.N,RST*%
X128493000Y-79301000D03*
%TO.P,R17,1*%
%TO.N,VCC*%
X128493000Y-79941000D03*
%TD*%
D13*
%TO.P,R6,2*%
%TO.N,GND*%
X126518000Y-51121000D03*
%TO.P,R6,1*%
%TO.N,Net-(Q1-B)*%
X125878000Y-51121000D03*
%TD*%
D28*
%TO.P,J1,2,Ext*%
%TO.N,GND*%
X134373000Y-45901000D03*
X134373000Y-40821000D03*
X129293000Y-45901000D03*
X129293000Y-40821000D03*
D29*
%TO.P,J1,1,In*%
%TO.N,Net-(J1-In)*%
X131833000Y-43361000D03*
%TD*%
D24*
%TO.P,R11,2*%
%TO.N,SDA*%
X145393000Y-85081000D03*
%TO.P,R11,1*%
%TO.N,VCC*%
X145393000Y-85721000D03*
%TD*%
D13*
%TO.P,R8,2*%
%TO.N,mSDA*%
X141713000Y-77821000D03*
%TO.P,R8,1*%
%TO.N,VDD_EXT*%
X141073000Y-77821000D03*
%TD*%
D24*
%TO.P,C5,2*%
%TO.N,GND*%
X133603000Y-48726000D03*
%TO.P,C5,1*%
%TO.N,Net-(C5-Pad1)*%
X133603000Y-49366000D03*
%TD*%
D13*
%TO.P,C1,2*%
%TO.N,GND*%
X147213000Y-79421000D03*
%TO.P,C1,1*%
%TO.N,VDD_EXT*%
X146573000Y-79421000D03*
%TD*%
D30*
%TO.P,IC3,6,S*%
%TO.N,RST*%
X141995000Y-89771000D03*
%TO.P,IC3,5,VCC*%
%TO.N,VCC*%
X141995000Y-90721000D03*
%TO.P,IC3,4,Z*%
%TO.N,CE_HOST*%
X141995000Y-91671000D03*
%TO.P,IC3,3,Y0*%
%TO.N,Net-(IC3-Y0)*%
X139371000Y-91671000D03*
%TO.P,IC3,2,GND*%
%TO.N,GND*%
X139371000Y-90721000D03*
%TO.P,IC3,1,Y1*%
%TO.N,CE*%
X139371000Y-89771000D03*
%TD*%
D13*
%TO.P,R7,2*%
%TO.N,mSCL*%
X141913000Y-79521000D03*
%TO.P,R7,1*%
%TO.N,VDD_EXT*%
X141273000Y-79521000D03*
%TD*%
D14*
%TO.P,R9,2*%
%TO.N,Net-(C5-Pad1)*%
X136933000Y-50831000D03*
%TO.P,R9,1*%
%TO.N,Net-(Q2-D)*%
X137573000Y-50831000D03*
%TD*%
D31*
%TO.P,U2,24,GND*%
%TO.N,GND*%
X144733000Y-65491000D03*
%TO.P,U2,23,VCC*%
%TO.N,Net-(Q5-S)*%
X143633000Y-65491000D03*
%TO.P,U2,22,V_BCKP*%
%TO.N,VBCK*%
X142533000Y-65491000D03*
%TO.P,U2,21,RXD1/SPI_MOSI*%
%TO.N,RX1*%
X141433000Y-65491000D03*
%TO.P,U2,20,TXD1/SPI_MISO*%
%TO.N,TX1*%
X140333000Y-65491000D03*
%TO.P,U2,19,I2C_SCL/SPI_CLK*%
%TO.N,mSCL*%
X139233000Y-65491000D03*
%TO.P,U2,18,I2C_SDA/SPI_CS*%
%TO.N,mSDA*%
X138133000Y-65491000D03*
%TO.P,U2,17,WI*%
%TO.N,unconnected-(U2-WI-Pad17)*%
X135133000Y-65491000D03*
%TO.P,U2,16,RXD2*%
%TO.N,Net-(U2-RXD2)*%
X134033000Y-65491000D03*
%TO.P,U2,15,TXD2*%
%TO.N,Net-(U2-TXD2)*%
X132933000Y-65491000D03*
%TO.P,U2,14,ANT_ON*%
%TO.N,ANT_ON*%
X131833000Y-65491000D03*
%TO.P,U2,13,GND*%
%TO.N,GND*%
X130733000Y-65491000D03*
%TO.P,U2,12,GND*%
X130733000Y-53291000D03*
%TO.P,U2,11,RF_IN*%
%TO.N,RF_IN*%
X131833000Y-53291000D03*
%TO.P,U2,10,GND*%
%TO.N,GND*%
X132933000Y-53291000D03*
%TO.P,U2,9,VDD_RF*%
%TO.N,VDD_RF*%
X134033000Y-53291000D03*
%TO.P,U2,8,RESET_N*%
%TO.N,Net-(Q3-C)*%
X135133000Y-53291000D03*
%TO.P,U2,7,VDD_EXT*%
%TO.N,VDD_EXT*%
X138133000Y-53291000D03*
%TO.P,U2,6,D_SEL2*%
%TO.N,Net-(SW1-B)*%
X139233000Y-53291000D03*
%TO.P,U2,5,D_SEL1*%
X140333000Y-53291000D03*
%TO.P,U2,4,WHEELTICK*%
%TO.N,unconnected-(U2-WHEELTICK-Pad4)*%
X141433000Y-53291000D03*
%TO.P,U2,3,1PPS*%
%TO.N,1PPS*%
X142533000Y-53291000D03*
%TO.P,U2,2,FWD*%
%TO.N,unconnected-(U2-FWD-Pad2)*%
X143633000Y-53291000D03*
%TO.P,U2,1,WAKE_UP*%
%TO.N,WUP*%
X144733000Y-53291000D03*
%TD*%
D32*
%TO.P,Q1,3,C*%
%TO.N,Net-(Q1-C)*%
X141223000Y-42701000D03*
%TO.P,Q1,2,B*%
%TO.N,Net-(Q1-B)*%
X142493000Y-42701000D03*
D33*
%TO.P,Q1,1,E*%
%TO.N,GND*%
X143763000Y-42701000D03*
%TD*%
D34*
%TO.P,Q4,3,D*%
%TO.N,VCC*%
X135893000Y-89571000D03*
%TO.P,Q4,2,S*%
%TO.N,Net-(IC3-Y0)*%
X136848000Y-91671000D03*
%TO.P,Q4,1,G*%
%TO.N,Net-(IC2-IO)*%
X134938000Y-91671000D03*
%TD*%
%TO.P,Q5,3,D*%
%TO.N,VCC*%
X134093000Y-82521000D03*
%TO.P,Q5,2,S*%
%TO.N,Net-(Q5-S)*%
X135048000Y-84621000D03*
%TO.P,Q5,1,G*%
%TO.N,CE*%
X133138000Y-84621000D03*
%TD*%
D35*
%TO.P,Q3,3,C*%
%TO.N,Net-(Q3-C)*%
X133893000Y-72921000D03*
%TO.P,Q3,2,E*%
%TO.N,GND*%
X134853000Y-75021000D03*
%TO.P,Q3,1,B*%
%TO.N,Net-(Q3-B)*%
X132933000Y-75021000D03*
%TD*%
D13*
%TO.P,C8,2*%
%TO.N,GND*%
X144013000Y-89921000D03*
%TO.P,C8,1*%
%TO.N,VCC*%
X143373000Y-89921000D03*
%TD*%
D36*
%TO.N,GND*%
X130893000Y-75771000D03*
X146093000Y-70721000D03*
X144043000Y-73771000D03*
X129333000Y-49746000D03*
X134093000Y-77971000D03*
X139443000Y-80271000D03*
D37*
%TO.N,VCC*%
X128513000Y-65801000D03*
X133363000Y-91661000D03*
X137513000Y-78601000D03*
X134263000Y-89601000D03*
D36*
X143214488Y-86799511D03*
X144643000Y-86171000D03*
%TO.N,1PPS*%
X142500107Y-60028107D03*
%TO.N,TX1*%
X140193000Y-70021000D03*
%TO.N,CE_HOST*%
X143313000Y-91321000D03*
%TO.N,RX1*%
X141293000Y-70726000D03*
%TO.N,RST*%
X132247056Y-78666944D03*
X138693000Y-85121000D03*
%TO.N,WUP*%
X146393000Y-55821000D03*
%TO.N,CE*%
X136083000Y-86191000D03*
X139393000Y-88921000D03*
%TO.N,VDD_EXT*%
X137193000Y-73621000D03*
X140493000Y-77121000D03*
%TO.N,mSDA*%
X141593000Y-75921000D03*
X138093000Y-71621000D03*
%TO.N,mSCL*%
X142293000Y-78621000D03*
X139193000Y-70221000D03*
%TO.N,VDD_RF*%
X138453000Y-48261000D03*
X134793000Y-51341000D03*
D37*
%TO.N,VBCK*%
X129423000Y-58421000D03*
X138063000Y-63041000D03*
D36*
%TO.N,ANT_ON*%
X131177101Y-63696885D03*
X124943000Y-51171000D03*
%TO.N,Net-(J2-Pin_3)*%
X134113000Y-70551000D03*
D37*
X140893000Y-62361000D03*
%TD*%
D38*
%TO.N,GND*%
X147213000Y-80421000D02*
X147213000Y-79421000D01*
X140693000Y-91421000D02*
X140693000Y-92171000D01*
D39*
X146443000Y-82821000D02*
X145393000Y-82821000D01*
D38*
X126408000Y-56931000D02*
X125778000Y-56931000D01*
D39*
X147213000Y-80421000D02*
X147213000Y-82051000D01*
D38*
X144013000Y-89921000D02*
X144693000Y-89921000D01*
X130179500Y-90797000D02*
X131129500Y-91747000D01*
X130179500Y-90247000D02*
X130179500Y-90797000D01*
D40*
X132933000Y-53291000D02*
X132933000Y-55181000D01*
X132933000Y-55181000D02*
X132383000Y-55731000D01*
D38*
X147213000Y-79421000D02*
X147213000Y-78641000D01*
X147213000Y-78641000D02*
X147193000Y-78621000D01*
D41*
X130423000Y-48661000D02*
X130473000Y-48711000D01*
D39*
X147213000Y-82051000D02*
X146443000Y-82821000D01*
D41*
X130473000Y-48711000D02*
X131360000Y-48711000D01*
D38*
X139983000Y-90721000D02*
X140683000Y-91421000D01*
X139381000Y-90721000D02*
X139993000Y-90721000D01*
X126408000Y-55231000D02*
X125728000Y-55231000D01*
D40*
%TO.N,VCC*%
X137513000Y-85301000D02*
X137493000Y-85321000D01*
D38*
X135893000Y-89571000D02*
X134293000Y-89571000D01*
D42*
X131903000Y-85123500D02*
X130393000Y-86633500D01*
D40*
X126093000Y-90461000D02*
X128343000Y-88211000D01*
D39*
X142293000Y-85721000D02*
X142092116Y-85721000D01*
D38*
X133193000Y-93247000D02*
X132079500Y-93247000D01*
D40*
X128343000Y-88211000D02*
X130393000Y-88211000D01*
D39*
X141293000Y-83111000D02*
X141583000Y-82821000D01*
D38*
X143214488Y-86799511D02*
X143293000Y-86878023D01*
X143214488Y-86799511D02*
X142293000Y-85878023D01*
D40*
X137493000Y-85321000D02*
X137493000Y-86206000D01*
D38*
X143214488Y-86799511D02*
X143214488Y-89762488D01*
D40*
X130393000Y-86633500D02*
X130393000Y-88211000D01*
D38*
X144643000Y-86171000D02*
X145093000Y-85721000D01*
D42*
X128593000Y-88461000D02*
X129093000Y-87961000D01*
D38*
X142589913Y-90721000D02*
X141292500Y-90721000D01*
X145093000Y-85721000D02*
X145393000Y-85721000D01*
X133873000Y-93221000D02*
X133847000Y-93247000D01*
D40*
X137513000Y-78601000D02*
X137513000Y-85301000D01*
X128513000Y-61743500D02*
X128525500Y-61731000D01*
D38*
X133363000Y-91661000D02*
X133873000Y-92171000D01*
X141292500Y-90721000D02*
X140693000Y-90121500D01*
D40*
X134293000Y-89571000D02*
X134263000Y-89601000D01*
D39*
X141293000Y-84921884D02*
X141293000Y-83111000D01*
D38*
X140693000Y-89117913D02*
X137781087Y-86206000D01*
X143293000Y-90017913D02*
X142589913Y-90721000D01*
D40*
X128513000Y-65801000D02*
X128513000Y-61743500D01*
D42*
X131903000Y-83551000D02*
X131903000Y-85123500D01*
D38*
X133873000Y-92171000D02*
X133873000Y-93221000D01*
X135893000Y-89571000D02*
X135893000Y-88616000D01*
D42*
X128593000Y-88461000D02*
X128343000Y-88211000D01*
X132933000Y-82521000D02*
X134093000Y-82521000D01*
X128593000Y-88621000D02*
X128593000Y-88461000D01*
D38*
X137781087Y-86206000D02*
X137493000Y-86206000D01*
X143214488Y-89762488D02*
X143373000Y-89921000D01*
D40*
X137493000Y-86206000D02*
X135488000Y-88211000D01*
D38*
X128493000Y-87961000D02*
X128493000Y-79941000D01*
D40*
X130393000Y-88211000D02*
X135488000Y-88211000D01*
D38*
X129093000Y-87961000D02*
X128493000Y-87961000D01*
D42*
X131903000Y-83551000D02*
X132933000Y-82521000D01*
D38*
X135893000Y-88616000D02*
X135488000Y-88211000D01*
D39*
X141583000Y-82821000D02*
X142293000Y-82821000D01*
X142092116Y-85721000D02*
X141293000Y-84921884D01*
D38*
X128593000Y-89771000D02*
X128593000Y-88621000D01*
X133847000Y-93247000D02*
X133193000Y-93247000D01*
X142293000Y-85878023D02*
X142293000Y-85721000D01*
X140693000Y-90121500D02*
X140693000Y-89117913D01*
D42*
%TO.N,1PPS*%
X142533000Y-55181000D02*
X142533000Y-53291000D01*
X142500107Y-60028107D02*
X142493000Y-60021000D01*
X142493000Y-60021000D02*
X142493000Y-55221000D01*
X142493000Y-55221000D02*
X142533000Y-55181000D01*
%TO.N,TX1*%
X140193000Y-65826000D02*
X140333000Y-65826000D01*
X140193000Y-70021000D02*
X140193000Y-65826000D01*
%TO.N,CE_HOST*%
X142963000Y-91671000D02*
X142005000Y-91671000D01*
X143313000Y-91321000D02*
X142963000Y-91671000D01*
%TO.N,RX1*%
X141293000Y-70726000D02*
X141293000Y-65831108D01*
%TO.N,SCL*%
X142492999Y-85081000D02*
X146532999Y-89121000D01*
X149393000Y-89121000D02*
X149993000Y-88521000D01*
X142293000Y-83321000D02*
X142293000Y-85081000D01*
X142293000Y-85081000D02*
X142492999Y-85081000D01*
X146532999Y-89121000D02*
X149393000Y-89121000D01*
X149993000Y-86421000D02*
X148953000Y-85381000D01*
X149993000Y-88521000D02*
X149993000Y-86421000D01*
%TO.N,SDA*%
X145393000Y-85081000D02*
X146113000Y-85081000D01*
X145393000Y-83321000D02*
X145393000Y-85081000D01*
X146113000Y-85081000D02*
X148953000Y-87921000D01*
%TO.N,RST*%
X132183416Y-78666944D02*
X131453000Y-77936528D01*
X132247056Y-78666944D02*
X132183416Y-78666944D01*
X131453000Y-77771000D02*
X129093000Y-77771000D01*
X138693000Y-85121000D02*
X142005000Y-88433000D01*
X131453000Y-77936528D02*
X131453000Y-77771000D01*
X142005000Y-88433000D02*
X142005000Y-89771000D01*
X128493000Y-79301000D02*
X128493000Y-77771000D01*
X128493000Y-77771000D02*
X129093000Y-77771000D01*
X129093000Y-77771000D02*
X126103000Y-77771000D01*
%TO.N,WUP*%
X146393000Y-55821000D02*
X146393000Y-54951000D01*
X146393000Y-54951000D02*
X144733000Y-53291000D01*
%TO.N,CE*%
X136083000Y-86191000D02*
X134708000Y-86191000D01*
X134708000Y-86191000D02*
X133138000Y-84621000D01*
X139381000Y-88933000D02*
X139393000Y-88921000D01*
X139381000Y-89771000D02*
X139381000Y-88933000D01*
D38*
%TO.N,VDD_EXT*%
X139893000Y-58821000D02*
X142193000Y-61121000D01*
D42*
X141273000Y-79521000D02*
X140993000Y-79521000D01*
X145393000Y-82321000D02*
X146053000Y-82321000D01*
X146053000Y-82321000D02*
X146573000Y-81801000D01*
D38*
X137193000Y-73621000D02*
X137183458Y-73611458D01*
D39*
X141493000Y-82321000D02*
X140993000Y-81821000D01*
X140993000Y-81821000D02*
X140993000Y-79521000D01*
D38*
X146513000Y-61121000D02*
X148493000Y-59141000D01*
X138093000Y-55121000D02*
X138133000Y-55081000D01*
X138133000Y-55081000D02*
X138133000Y-53291000D01*
X138093000Y-55121000D02*
X138093000Y-57021000D01*
D42*
X142293000Y-82321000D02*
X145393000Y-82321000D01*
D38*
X137183458Y-73611458D02*
X137183458Y-61530542D01*
D39*
X140493000Y-77121000D02*
X140993000Y-77621000D01*
D42*
X146573000Y-81801000D02*
X146573000Y-79421000D01*
D38*
X138093000Y-57021000D02*
X139893000Y-58821000D01*
D39*
X142293000Y-82321000D02*
X141493000Y-82321000D01*
D38*
X142193000Y-61121000D02*
X146513000Y-61121000D01*
X137183458Y-61530542D02*
X139893000Y-58821000D01*
D39*
X140993000Y-77621000D02*
X140993000Y-79521000D01*
D42*
%TO.N,mSDA*%
X138093000Y-67321000D02*
X138133000Y-67281000D01*
X142693000Y-77021000D02*
X142793000Y-77121000D01*
X141713000Y-77821000D02*
X141893000Y-77821000D01*
X138093000Y-71621000D02*
X138093000Y-67321000D01*
X141893000Y-77821000D02*
X142693000Y-77021000D01*
X145393000Y-79721000D02*
X145393000Y-81821000D01*
X138133000Y-67281000D02*
X138133000Y-65491000D01*
X141593000Y-75921000D02*
X142793000Y-77121000D01*
X142793000Y-77121000D02*
X145393000Y-79721000D01*
%TO.N,mSCL*%
X141913000Y-79521000D02*
X142293000Y-79521000D01*
X142293000Y-78621000D02*
X142293000Y-79521000D01*
X139233000Y-67281000D02*
X139233000Y-65491000D01*
X142293000Y-81821000D02*
X142293000Y-79521000D01*
X139193000Y-70221000D02*
X139193000Y-67321000D01*
X139193000Y-67321000D02*
X139233000Y-67281000D01*
%TO.N,Net-(J1-In)*%
X131833000Y-43361000D02*
X131833000Y-44461000D01*
X131833000Y-44461000D02*
X131843000Y-44471000D01*
X131746000Y-43628000D02*
X131793000Y-43581000D01*
X131843000Y-48714000D02*
X131836000Y-48721000D01*
X131746000Y-44074000D02*
X131733000Y-44061000D01*
X131836000Y-49828000D02*
X131836000Y-48721000D01*
X131843000Y-44471000D02*
X131843000Y-48714000D01*
X131833000Y-50706000D02*
X131833000Y-49831000D01*
X131833000Y-49831000D02*
X131836000Y-49828000D01*
X131843000Y-43841000D02*
X131843000Y-44471000D01*
%TO.N,VDD_RF*%
X140603000Y-49421000D02*
X140603000Y-48771000D01*
X140603000Y-48121000D02*
X139573000Y-48121000D01*
X139573000Y-48121000D02*
X139343000Y-48351000D01*
X138543000Y-48351000D02*
X138453000Y-48261000D01*
X134793000Y-51341000D02*
X134033000Y-52101000D01*
X139343000Y-48351000D02*
X138543000Y-48351000D01*
X134033000Y-52101000D02*
X134033000Y-53291000D01*
X140603000Y-48771000D02*
X140603000Y-48121000D01*
D39*
%TO.N,VBCK*%
X127028000Y-56831000D02*
X127028000Y-53431000D01*
D40*
X141961628Y-63661000D02*
X138683000Y-63661000D01*
X142533000Y-65491000D02*
X142533000Y-64232372D01*
X142533000Y-64232372D02*
X141961628Y-63661000D01*
D38*
X129348000Y-58461000D02*
X127918000Y-58461000D01*
D39*
X127003000Y-56856000D02*
X127028000Y-56831000D01*
D40*
X138683000Y-63661000D02*
X138063000Y-63041000D01*
D38*
X127918000Y-58461000D02*
X127688000Y-58231000D01*
D42*
X127048000Y-58211000D02*
X127048000Y-56976000D01*
D38*
X127688000Y-58231000D02*
X127048000Y-58231000D01*
D42*
%TO.N,RF_IN*%
X131833000Y-51346000D02*
X131833000Y-53291000D01*
%TO.N,ANT_ON*%
X131793000Y-65691000D02*
X131673000Y-65571000D01*
X131177101Y-63696885D02*
X131833000Y-64352784D01*
X124943000Y-50866000D02*
X125838000Y-49971000D01*
X131833000Y-64352784D02*
X131833000Y-65491000D01*
X124943000Y-51171000D02*
X124943000Y-50866000D01*
%TO.N,Net-(J2-Pin_3)*%
X150548000Y-57891528D02*
X145703528Y-62736000D01*
X128928000Y-71686528D02*
X128928000Y-71521000D01*
X141268000Y-62736000D02*
X140893000Y-62361000D01*
X134113000Y-70551000D02*
X132638000Y-72026000D01*
X145703528Y-62736000D02*
X141268000Y-62736000D01*
X150548000Y-48806000D02*
X150548000Y-57891528D01*
X132638000Y-72026000D02*
X129267472Y-72026000D01*
X148003000Y-46261000D02*
X150548000Y-48806000D01*
X129267472Y-72026000D02*
X128928000Y-71686528D01*
%TO.N,Net-(J2-Pin_2)*%
X144843000Y-48151000D02*
X144843000Y-50631000D01*
X136423000Y-52911000D02*
X136423000Y-71876000D01*
X128243000Y-71641528D02*
X128243000Y-71206000D01*
X144193000Y-51281000D02*
X138053000Y-51281000D01*
X138053000Y-51281000D02*
X136423000Y-52911000D01*
X134523000Y-73776000D02*
X130377472Y-73776000D01*
X128243000Y-71206000D02*
X128928000Y-70521000D01*
X144843000Y-50631000D02*
X144193000Y-51281000D01*
X136423000Y-71876000D02*
X134523000Y-73776000D01*
X130377472Y-73776000D02*
X128243000Y-71641528D01*
X148003000Y-44991000D02*
X144843000Y-48151000D01*
%TO.N,Net-(C5-Pad1)*%
X133603000Y-49366000D02*
X135708000Y-49366000D01*
X133138000Y-49831000D02*
X133603000Y-49366000D01*
X132473000Y-49831000D02*
X133138000Y-49831000D01*
X135713000Y-49611000D02*
X136933000Y-50831000D01*
X135708000Y-49366000D02*
X135713000Y-49361000D01*
X135713000Y-49361000D02*
X135713000Y-49611000D01*
%TO.N,Net-(D1-A)*%
X130393000Y-82638500D02*
X130393000Y-81593500D01*
D38*
%TO.N,Net-(D2-K)*%
X126408000Y-58231000D02*
X125725500Y-58913500D01*
X125725500Y-58913500D02*
X125725500Y-61731000D01*
D42*
%TO.N,Net-(IC2-IO)*%
X132993000Y-89221000D02*
X132993000Y-89726000D01*
X131129500Y-90247000D02*
X131129500Y-90097000D01*
X132993000Y-89726000D02*
X134938000Y-91671000D01*
X132005500Y-89221000D02*
X132993000Y-89221000D01*
X131129500Y-90097000D02*
X132005500Y-89221000D01*
%TO.N,Net-(IC3-Y0)*%
X136848000Y-91671000D02*
X135298000Y-93221000D01*
X136848000Y-91671000D02*
X139371000Y-91671000D01*
X135298000Y-93221000D02*
X134513000Y-93221000D01*
%TO.N,Net-(Q1-B)*%
X142493000Y-42701000D02*
X142493000Y-41071000D01*
X125878000Y-50736528D02*
X125878000Y-51121000D01*
X126518000Y-50011000D02*
X126478000Y-49971000D01*
X140303000Y-38881000D02*
X127463000Y-38881000D01*
X126478000Y-50136528D02*
X125878000Y-50736528D01*
X126478000Y-49971000D02*
X126478000Y-50136528D01*
X127463000Y-38881000D02*
X126478000Y-39866000D01*
X142493000Y-41071000D02*
X140303000Y-38881000D01*
X126478000Y-39866000D02*
X126478000Y-49971000D01*
%TO.N,Net-(Q1-C)*%
X139343000Y-48991000D02*
X137913000Y-48991000D01*
X137393000Y-48471000D02*
X137393000Y-46531000D01*
X140603000Y-50071000D02*
X140253000Y-50071000D01*
X140253000Y-50071000D02*
X139343000Y-49161000D01*
X139343000Y-49161000D02*
X139343000Y-48991000D01*
X137393000Y-46531000D02*
X141223000Y-42701000D01*
X137913000Y-48991000D02*
X137393000Y-48471000D01*
%TO.N,Net-(Q2-D)*%
X140823000Y-50831000D02*
X137573000Y-50831000D01*
X142558000Y-49096000D02*
X140823000Y-50831000D01*
%TO.N,Net-(Q3-C)*%
X133893000Y-72921000D02*
X135993000Y-70821000D01*
X135093000Y-55121000D02*
X135093000Y-53379112D01*
X135993000Y-56021000D02*
X135093000Y-55121000D01*
X135093000Y-53379112D02*
X135157056Y-53315056D01*
X135993000Y-70821000D02*
X135993000Y-56021000D01*
%TO.N,Net-(Q3-B)*%
X132093000Y-77771000D02*
X132933000Y-76931000D01*
X132933000Y-76931000D02*
X132933000Y-75021000D01*
%TO.N,Net-(Q5-S)*%
X135373000Y-84621000D02*
X135048000Y-84621000D01*
X143633000Y-67281000D02*
X143633000Y-65491000D01*
X143593000Y-67321000D02*
X143593000Y-69423021D01*
X143593000Y-69423021D02*
X136673000Y-76343021D01*
X143593000Y-67321000D02*
X143633000Y-67281000D01*
X136673000Y-83321000D02*
X135373000Y-84621000D01*
X136673000Y-76343021D02*
X136673000Y-83321000D01*
%TO.N,Net-(R1-Pad2)*%
X130393000Y-84808500D02*
X130393000Y-83278500D01*
%TO.N,Net-(SW1-C)*%
X148493000Y-58501000D02*
X148493000Y-55321000D01*
X148493000Y-55321000D02*
X149443000Y-54371000D01*
%TO.N,Net-(U2-RXD2)*%
X131593000Y-71521000D02*
X133993000Y-69121000D01*
X133993000Y-67321000D02*
X134033000Y-67281000D01*
X134033000Y-67281000D02*
X134033000Y-65491000D01*
X129568000Y-71521000D02*
X131593000Y-71521000D01*
X133993000Y-69121000D02*
X133993000Y-67321000D01*
%TO.N,Net-(U2-TXD2)*%
X132893000Y-68821000D02*
X132893000Y-67321000D01*
X132893000Y-67321000D02*
X132933000Y-67281000D01*
X131193000Y-70521000D02*
X132893000Y-68821000D01*
X129568000Y-70521000D02*
X131193000Y-70521000D01*
X132933000Y-67281000D02*
X132933000Y-65491000D01*
%TO.N,Net-(SW1-B)*%
X141088000Y-51736000D02*
X140638000Y-51736000D01*
X140638000Y-51736000D02*
X140333000Y-52041000D01*
X147143000Y-52621000D02*
X146258000Y-51736000D01*
X141098000Y-51736000D02*
X141093000Y-51731000D01*
X146258000Y-51736000D02*
X141098000Y-51736000D01*
X141093000Y-51731000D02*
X141088000Y-51736000D01*
X139233000Y-53291000D02*
X140333000Y-53291000D01*
X140333000Y-52041000D02*
X140333000Y-53291000D01*
%TD*%
%TA.AperFunction,Conductor*%
%TO.N,GND*%
G36*
X151117006Y-38378789D02*
G01*
X151162828Y-38431534D01*
X151174100Y-38483107D01*
X151199884Y-76820382D01*
X151197125Y-84917739D01*
X151193042Y-96897042D01*
X151173335Y-96964075D01*
X151120515Y-97009812D01*
X151069042Y-97021000D01*
X123967042Y-97021000D01*
X123900003Y-97001315D01*
X123854248Y-96948511D01*
X123843042Y-96896958D01*
X123843953Y-94228170D01*
X123844372Y-93000997D01*
X124865830Y-93000997D01*
X124865830Y-93001002D01*
X124884473Y-93214094D01*
X124884473Y-93214098D01*
X124939834Y-93420709D01*
X124939838Y-93420718D01*
X125030238Y-93614582D01*
X125069620Y-93670825D01*
X125069621Y-93670826D01*
X125655352Y-93085094D01*
X125678792Y-93172571D01*
X125737311Y-93273930D01*
X125820070Y-93356689D01*
X125921429Y-93415208D01*
X126008905Y-93438647D01*
X125423172Y-94024378D01*
X125479417Y-94063761D01*
X125673281Y-94154161D01*
X125673290Y-94154165D01*
X125879903Y-94209526D01*
X126092998Y-94228170D01*
X126093002Y-94228170D01*
X126306094Y-94209526D01*
X126306098Y-94209526D01*
X126512709Y-94154165D01*
X126512718Y-94154161D01*
X126706584Y-94063760D01*
X126706588Y-94063758D01*
X126762826Y-94024379D01*
X126177095Y-93438647D01*
X126264571Y-93415208D01*
X126365930Y-93356689D01*
X126448689Y-93273930D01*
X126507208Y-93172571D01*
X126530647Y-93085094D01*
X127116379Y-93670826D01*
X127155758Y-93614588D01*
X127155760Y-93614584D01*
X127246161Y-93420718D01*
X127246165Y-93420709D01*
X127301526Y-93214098D01*
X127301526Y-93214094D01*
X127320170Y-93001002D01*
X127320170Y-93000997D01*
X127301526Y-92787905D01*
X127301526Y-92787901D01*
X127246165Y-92581290D01*
X127246161Y-92581281D01*
X127155761Y-92387417D01*
X127116377Y-92331172D01*
X126530647Y-92916904D01*
X126507208Y-92829429D01*
X126448689Y-92728070D01*
X126365930Y-92645311D01*
X126264571Y-92586792D01*
X126177095Y-92563352D01*
X126762826Y-91977621D01*
X126762825Y-91977620D01*
X126706582Y-91938238D01*
X126512718Y-91847838D01*
X126512709Y-91847834D01*
X126306096Y-91792473D01*
X126093002Y-91773830D01*
X126092998Y-91773830D01*
X125879905Y-91792473D01*
X125879901Y-91792473D01*
X125673290Y-91847834D01*
X125673281Y-91847837D01*
X125479412Y-91938241D01*
X125423172Y-91977619D01*
X126008905Y-92563352D01*
X125921429Y-92586792D01*
X125820070Y-92645311D01*
X125737311Y-92728070D01*
X125678792Y-92829429D01*
X125655352Y-92916905D01*
X125069619Y-92331172D01*
X125030241Y-92387412D01*
X124939837Y-92581281D01*
X124939834Y-92581290D01*
X124884473Y-92787901D01*
X124884473Y-92787905D01*
X124865830Y-93000997D01*
X123844372Y-93000997D01*
X123846973Y-85381000D01*
X125115292Y-85381000D01*
X125134078Y-85571743D01*
X125189716Y-85755154D01*
X125280061Y-85924179D01*
X125280066Y-85924185D01*
X125401655Y-86072344D01*
X125523245Y-86172128D01*
X125545551Y-86190435D01*
X125549814Y-86193933D01*
X125549820Y-86193938D01*
X125708400Y-86278700D01*
X125718847Y-86284284D01*
X125902259Y-86339922D01*
X126093000Y-86358708D01*
X126283741Y-86339922D01*
X126467153Y-86284284D01*
X126538072Y-86246377D01*
X126636179Y-86193938D01*
X126636181Y-86193935D01*
X126636185Y-86193934D01*
X126784344Y-86072344D01*
X126905934Y-85924185D01*
X126905935Y-85924181D01*
X126905938Y-85924179D01*
X126968975Y-85806244D01*
X126996284Y-85755153D01*
X127051922Y-85571741D01*
X127070708Y-85381000D01*
X127051922Y-85190259D01*
X126996284Y-85006847D01*
X126983880Y-84983640D01*
X126905938Y-84837820D01*
X126905933Y-84837814D01*
X126784344Y-84689655D01*
X126636185Y-84568066D01*
X126636179Y-84568061D01*
X126467154Y-84477716D01*
X126283743Y-84422078D01*
X126093000Y-84403292D01*
X125902256Y-84422078D01*
X125718845Y-84477716D01*
X125549820Y-84568061D01*
X125549814Y-84568066D01*
X125401655Y-84689655D01*
X125280066Y-84837814D01*
X125280061Y-84837820D01*
X125189716Y-85006845D01*
X125134078Y-85190256D01*
X125115292Y-85381000D01*
X123846973Y-85381000D01*
X123847840Y-82841000D01*
X125115292Y-82841000D01*
X125134078Y-83031743D01*
X125189716Y-83215154D01*
X125280061Y-83384179D01*
X125280066Y-83384185D01*
X125401655Y-83532344D01*
X125549814Y-83653933D01*
X125549820Y-83653938D01*
X125676221Y-83721500D01*
X125718847Y-83744284D01*
X125902259Y-83799922D01*
X126093000Y-83818708D01*
X126283741Y-83799922D01*
X126467153Y-83744284D01*
X126567102Y-83690860D01*
X126636179Y-83653938D01*
X126636181Y-83653935D01*
X126636185Y-83653934D01*
X126784344Y-83532344D01*
X126905934Y-83384185D01*
X126905935Y-83384181D01*
X126905938Y-83384179D01*
X126981004Y-83243739D01*
X126996284Y-83215153D01*
X127051922Y-83031741D01*
X127070708Y-82841000D01*
X127051922Y-82650259D01*
X126996284Y-82466847D01*
X126964353Y-82407108D01*
X126905938Y-82297820D01*
X126905933Y-82297814D01*
X126784344Y-82149655D01*
X126636185Y-82028066D01*
X126636179Y-82028061D01*
X126467154Y-81937716D01*
X126283743Y-81882078D01*
X126093000Y-81863292D01*
X125902256Y-81882078D01*
X125718845Y-81937716D01*
X125549820Y-82028061D01*
X125549814Y-82028066D01*
X125401655Y-82149655D01*
X125280066Y-82297814D01*
X125280061Y-82297820D01*
X125189716Y-82466845D01*
X125134078Y-82650256D01*
X125115292Y-82841000D01*
X123847840Y-82841000D01*
X123848707Y-80301000D01*
X125115292Y-80301000D01*
X125134078Y-80491743D01*
X125189716Y-80675154D01*
X125280061Y-80844179D01*
X125280066Y-80844185D01*
X125401655Y-80992344D01*
X125549814Y-81113933D01*
X125549820Y-81113938D01*
X125718845Y-81204283D01*
X125718847Y-81204284D01*
X125902259Y-81259922D01*
X126093000Y-81278708D01*
X126283741Y-81259922D01*
X126467153Y-81204284D01*
X126545007Y-81162670D01*
X126636179Y-81113938D01*
X126636181Y-81113935D01*
X126636185Y-81113934D01*
X126784344Y-80992344D01*
X126905934Y-80844185D01*
X126905935Y-80844181D01*
X126905938Y-80844179D01*
X126996283Y-80675154D01*
X126996284Y-80675153D01*
X127051922Y-80491741D01*
X127070708Y-80301000D01*
X127051922Y-80110259D01*
X126996284Y-79926847D01*
X126996283Y-79926845D01*
X126905938Y-79757820D01*
X126905933Y-79757814D01*
X126784344Y-79609655D01*
X126636185Y-79488066D01*
X126636179Y-79488061D01*
X126467154Y-79397716D01*
X126283743Y-79342078D01*
X126093000Y-79323292D01*
X125902256Y-79342078D01*
X125718845Y-79397716D01*
X125549820Y-79488061D01*
X125549814Y-79488066D01*
X125401655Y-79609655D01*
X125280066Y-79757814D01*
X125280061Y-79757820D01*
X125189716Y-79926845D01*
X125134078Y-80110256D01*
X125115292Y-80301000D01*
X123848707Y-80301000D01*
X123850696Y-74473821D01*
X125120000Y-74473821D01*
X125120000Y-75968178D01*
X125134532Y-76041235D01*
X125134533Y-76041239D01*
X125150140Y-76064596D01*
X125189899Y-76124101D01*
X125272760Y-76179466D01*
X125272764Y-76179467D01*
X125345821Y-76193999D01*
X125345824Y-76194000D01*
X125345826Y-76194000D01*
X126840176Y-76194000D01*
X126840177Y-76193999D01*
X126913240Y-76179466D01*
X126996101Y-76124101D01*
X127051466Y-76041240D01*
X127066000Y-75968174D01*
X127066000Y-74473826D01*
X127066000Y-74473823D01*
X127065999Y-74473821D01*
X127051467Y-74400764D01*
X127051466Y-74400760D01*
X127026650Y-74363620D01*
X126996101Y-74317899D01*
X126913240Y-74262534D01*
X126913239Y-74262533D01*
X126913235Y-74262532D01*
X126840177Y-74248000D01*
X126840174Y-74248000D01*
X125345826Y-74248000D01*
X125345823Y-74248000D01*
X125272764Y-74262532D01*
X125272760Y-74262533D01*
X125189899Y-74317899D01*
X125134533Y-74400760D01*
X125134532Y-74400764D01*
X125120000Y-74473821D01*
X123850696Y-74473821D01*
X123855259Y-61106321D01*
X124875000Y-61106321D01*
X124875000Y-62355678D01*
X124889532Y-62428735D01*
X124889533Y-62428739D01*
X124889534Y-62428740D01*
X124944899Y-62511601D01*
X125027760Y-62566966D01*
X125027764Y-62566967D01*
X125100821Y-62581499D01*
X125100824Y-62581500D01*
X125100826Y-62581500D01*
X126350176Y-62581500D01*
X126350177Y-62581499D01*
X126423240Y-62566966D01*
X126506101Y-62511601D01*
X126561466Y-62428740D01*
X126576000Y-62355674D01*
X126576000Y-61106326D01*
X126576000Y-61106323D01*
X126575999Y-61106321D01*
X127675000Y-61106321D01*
X127675000Y-62355678D01*
X127689532Y-62428735D01*
X127689533Y-62428739D01*
X127689534Y-62428740D01*
X127744899Y-62511601D01*
X127807390Y-62553355D01*
X127852196Y-62606967D01*
X127862500Y-62656458D01*
X127862500Y-65389911D01*
X127843495Y-65455882D01*
X127832544Y-65473310D01*
X127776685Y-65632943D01*
X127757751Y-65800997D01*
X127757751Y-65801002D01*
X127776685Y-65969056D01*
X127832545Y-66128694D01*
X127832547Y-66128697D01*
X127922518Y-66271884D01*
X127922523Y-66271890D01*
X128042109Y-66391476D01*
X128042115Y-66391481D01*
X128185302Y-66481452D01*
X128185305Y-66481454D01*
X128185309Y-66481455D01*
X128185310Y-66481456D01*
X128257913Y-66506860D01*
X128344943Y-66537314D01*
X128512997Y-66556249D01*
X128513000Y-66556249D01*
X128513003Y-66556249D01*
X128681056Y-66537314D01*
X128681059Y-66537313D01*
X128840690Y-66481456D01*
X128840692Y-66481454D01*
X128840694Y-66481454D01*
X128840697Y-66481452D01*
X128983884Y-66391481D01*
X128983885Y-66391480D01*
X128983890Y-66391477D01*
X129103477Y-66271890D01*
X129193452Y-66128697D01*
X129193454Y-66128694D01*
X129193454Y-66128692D01*
X129193456Y-66128690D01*
X129225383Y-66037446D01*
X129833000Y-66037446D01*
X130379447Y-65491000D01*
X130379447Y-65490999D01*
X129833000Y-64944552D01*
X129833000Y-66037446D01*
X129225383Y-66037446D01*
X129249313Y-65969059D01*
X129249313Y-65969058D01*
X129249314Y-65969056D01*
X129268249Y-65801002D01*
X129268249Y-65800997D01*
X129249314Y-65632943D01*
X129230326Y-65578680D01*
X129193456Y-65473310D01*
X129182504Y-65455881D01*
X129163500Y-65389911D01*
X129163500Y-62673162D01*
X129183185Y-62606123D01*
X129218610Y-62570059D01*
X129223238Y-62566966D01*
X129223240Y-62566966D01*
X129306101Y-62511601D01*
X129361466Y-62428740D01*
X129376000Y-62355674D01*
X129376000Y-61106326D01*
X129376000Y-61106323D01*
X129375999Y-61106321D01*
X129361467Y-61033264D01*
X129361466Y-61033260D01*
X129331145Y-60987881D01*
X129306101Y-60950399D01*
X129223240Y-60895034D01*
X129223239Y-60895033D01*
X129223235Y-60895032D01*
X129150177Y-60880500D01*
X129150174Y-60880500D01*
X127900826Y-60880500D01*
X127900823Y-60880500D01*
X127827764Y-60895032D01*
X127827760Y-60895033D01*
X127744899Y-60950399D01*
X127689533Y-61033260D01*
X127689532Y-61033264D01*
X127675000Y-61106321D01*
X126575999Y-61106321D01*
X126561467Y-61033264D01*
X126561466Y-61033260D01*
X126531145Y-60987881D01*
X126506101Y-60950399D01*
X126423240Y-60895034D01*
X126423239Y-60895033D01*
X126423235Y-60895032D01*
X126350177Y-60880500D01*
X126350174Y-60880500D01*
X126300000Y-60880500D01*
X126232961Y-60860815D01*
X126187206Y-60808011D01*
X126176000Y-60756500D01*
X126176000Y-59151465D01*
X126195685Y-59084426D01*
X126212319Y-59063784D01*
X126388819Y-58887284D01*
X126569494Y-58706608D01*
X126630815Y-58673125D01*
X126639289Y-58671588D01*
X126639393Y-58671573D01*
X126673539Y-58654879D01*
X126742410Y-58643119D01*
X126782459Y-58654878D01*
X126816607Y-58671573D01*
X126884740Y-58681500D01*
X126988691Y-58681500D01*
X127450035Y-58681500D01*
X127517074Y-58701185D01*
X127537716Y-58717819D01*
X127641386Y-58821489D01*
X127744113Y-58880799D01*
X127768321Y-58887284D01*
X127768324Y-58887286D01*
X127768325Y-58887286D01*
X127798447Y-58895357D01*
X127858691Y-58911500D01*
X128800771Y-58911500D01*
X128867810Y-58931185D01*
X128888452Y-58947819D01*
X128952109Y-59011476D01*
X128952115Y-59011481D01*
X129095302Y-59101452D01*
X129095305Y-59101454D01*
X129095309Y-59101455D01*
X129095310Y-59101456D01*
X129167913Y-59126860D01*
X129254943Y-59157314D01*
X129422997Y-59176249D01*
X129423000Y-59176249D01*
X129423003Y-59176249D01*
X129591056Y-59157314D01*
X129591059Y-59157313D01*
X129750690Y-59101456D01*
X129750692Y-59101454D01*
X129750694Y-59101454D01*
X129750697Y-59101452D01*
X129893884Y-59011481D01*
X129893885Y-59011480D01*
X129893890Y-59011477D01*
X130013477Y-58891890D01*
X130020447Y-58880798D01*
X130103452Y-58748697D01*
X130103454Y-58748694D01*
X130103454Y-58748692D01*
X130103456Y-58748690D01*
X130159313Y-58589059D01*
X130159313Y-58589058D01*
X130159314Y-58589056D01*
X130178249Y-58421002D01*
X130178249Y-58420997D01*
X130159314Y-58252943D01*
X130113527Y-58122091D01*
X130103456Y-58093310D01*
X130103455Y-58093309D01*
X130103454Y-58093305D01*
X130103452Y-58093302D01*
X130013481Y-57950115D01*
X130013476Y-57950109D01*
X129893890Y-57830523D01*
X129893884Y-57830518D01*
X129750697Y-57740547D01*
X129750694Y-57740545D01*
X129591056Y-57684685D01*
X129423003Y-57665751D01*
X129422997Y-57665751D01*
X129254943Y-57684685D01*
X129095305Y-57740545D01*
X129095302Y-57740547D01*
X128952115Y-57830518D01*
X128952109Y-57830523D01*
X128832524Y-57950108D01*
X128832523Y-57950110D01*
X128831040Y-57952469D01*
X128829684Y-57953669D01*
X128828176Y-57955560D01*
X128827845Y-57955296D01*
X128778709Y-57998761D01*
X128726045Y-58010500D01*
X128155965Y-58010500D01*
X128088926Y-57990815D01*
X128068284Y-57974181D01*
X127964616Y-57870513D01*
X127964614Y-57870511D01*
X127913250Y-57840856D01*
X127861888Y-57811201D01*
X127849780Y-57807957D01*
X127837673Y-57804713D01*
X127837670Y-57804712D01*
X127784357Y-57790427D01*
X127747309Y-57780500D01*
X127747308Y-57780500D01*
X127547500Y-57780500D01*
X127480461Y-57760815D01*
X127434706Y-57708011D01*
X127423500Y-57656500D01*
X127423500Y-57332543D01*
X127443185Y-57265504D01*
X127459822Y-57244859D01*
X127467198Y-57237483D01*
X127518573Y-57132393D01*
X127528500Y-57064260D01*
X127528500Y-56797740D01*
X127526357Y-56783035D01*
X127518776Y-56731000D01*
X127518573Y-56729607D01*
X127467198Y-56624517D01*
X127467196Y-56624515D01*
X127467196Y-56624514D01*
X127464819Y-56622137D01*
X127462606Y-56618085D01*
X127461227Y-56616153D01*
X127461460Y-56615986D01*
X127431334Y-56560814D01*
X127428500Y-56534456D01*
X127428500Y-55627543D01*
X127448185Y-55560504D01*
X127464818Y-55539862D01*
X127467198Y-55537483D01*
X127518573Y-55432393D01*
X127528500Y-55364260D01*
X127528500Y-55097740D01*
X127518573Y-55029607D01*
X127467198Y-54924517D01*
X127467196Y-54924515D01*
X127467196Y-54924514D01*
X127464819Y-54922137D01*
X127462606Y-54918085D01*
X127461227Y-54916153D01*
X127461460Y-54915986D01*
X127431334Y-54860814D01*
X127428500Y-54834456D01*
X127428500Y-53837446D01*
X129833000Y-53837446D01*
X130379447Y-53291000D01*
X130379447Y-53290999D01*
X129833000Y-52744552D01*
X129833000Y-53837446D01*
X127428500Y-53837446D01*
X127428500Y-53753278D01*
X127441100Y-53698817D01*
X127473573Y-53632393D01*
X127483500Y-53564260D01*
X127483500Y-53297740D01*
X127473573Y-53229607D01*
X127422198Y-53124517D01*
X127422196Y-53124515D01*
X127422196Y-53124514D01*
X127339485Y-53041803D01*
X127234391Y-52990426D01*
X127166261Y-52980500D01*
X127166260Y-52980500D01*
X127041485Y-52980500D01*
X126974446Y-52960815D01*
X126943109Y-52931987D01*
X126920924Y-52903075D01*
X126795586Y-52806899D01*
X126649631Y-52746444D01*
X126563000Y-52735038D01*
X126563000Y-53138380D01*
X126550401Y-53192838D01*
X126532429Y-53229601D01*
X126532425Y-53229611D01*
X126522500Y-53297739D01*
X126522500Y-53564260D01*
X126532426Y-53632390D01*
X126532426Y-53632391D01*
X126532427Y-53632393D01*
X126550401Y-53669159D01*
X126563000Y-53723617D01*
X126563000Y-54126959D01*
X126585259Y-54146480D01*
X126622683Y-54205482D01*
X126627500Y-54239708D01*
X126627500Y-54461753D01*
X126608000Y-54528161D01*
X126608000Y-54938380D01*
X126595401Y-54992838D01*
X126577429Y-55029601D01*
X126577425Y-55029611D01*
X126567500Y-55097739D01*
X126567500Y-55364260D01*
X126577426Y-55432390D01*
X126577426Y-55432391D01*
X126577427Y-55432393D01*
X126595401Y-55469159D01*
X126608000Y-55523617D01*
X126608000Y-55942869D01*
X126622683Y-55966018D01*
X126627500Y-56000244D01*
X126627500Y-56161753D01*
X126608000Y-56228161D01*
X126608000Y-56638380D01*
X126595401Y-56692838D01*
X126577429Y-56729601D01*
X126577425Y-56729611D01*
X126567500Y-56797739D01*
X126567500Y-57007000D01*
X126547815Y-57074039D01*
X126495011Y-57119794D01*
X126443500Y-57131000D01*
X125685990Y-57131000D01*
X125685988Y-57131001D01*
X125693442Y-57187627D01*
X125693444Y-57187633D01*
X125753899Y-57333585D01*
X125850075Y-57458924D01*
X125975412Y-57555099D01*
X126090902Y-57602935D01*
X126145306Y-57646776D01*
X126167372Y-57713070D01*
X126150094Y-57780769D01*
X126098957Y-57828380D01*
X126097914Y-57828896D01*
X126071516Y-57841801D01*
X125988803Y-57924514D01*
X125937427Y-58029607D01*
X125937424Y-58029613D01*
X125937411Y-58029710D01*
X125937363Y-58029814D01*
X125934584Y-58038808D01*
X125933402Y-58038442D01*
X125908263Y-58093209D01*
X125902389Y-58099505D01*
X125365013Y-58636883D01*
X125365009Y-58636889D01*
X125305701Y-58739612D01*
X125305700Y-58739617D01*
X125275000Y-58854191D01*
X125275000Y-60756500D01*
X125255315Y-60823539D01*
X125202511Y-60869294D01*
X125151000Y-60880500D01*
X125100823Y-60880500D01*
X125027764Y-60895032D01*
X125027760Y-60895033D01*
X124944899Y-60950399D01*
X124889533Y-61033260D01*
X124889532Y-61033264D01*
X124875000Y-61106321D01*
X123855259Y-61106321D01*
X123856752Y-56731000D01*
X125685987Y-56731000D01*
X126208000Y-56731000D01*
X126208000Y-56235038D01*
X126121369Y-56246444D01*
X126121365Y-56246445D01*
X125975413Y-56306899D01*
X125850075Y-56403075D01*
X125753899Y-56528413D01*
X125693444Y-56674368D01*
X125685987Y-56731000D01*
X123856752Y-56731000D01*
X123857196Y-55431001D01*
X125685988Y-55431001D01*
X125693442Y-55487627D01*
X125693444Y-55487633D01*
X125753899Y-55633585D01*
X125850075Y-55758924D01*
X125975413Y-55855100D01*
X126121365Y-55915554D01*
X126121369Y-55915555D01*
X126208000Y-55926961D01*
X126208000Y-55431000D01*
X125685990Y-55431000D01*
X125685988Y-55431001D01*
X123857196Y-55431001D01*
X123857332Y-55031000D01*
X125685987Y-55031000D01*
X126208000Y-55031000D01*
X126208000Y-54535038D01*
X126121369Y-54546444D01*
X126121365Y-54546445D01*
X125975413Y-54606899D01*
X125850075Y-54703075D01*
X125753899Y-54828413D01*
X125693444Y-54974368D01*
X125685987Y-55031000D01*
X123857332Y-55031000D01*
X123857810Y-53631001D01*
X125640988Y-53631001D01*
X125648442Y-53687627D01*
X125648444Y-53687633D01*
X125708899Y-53833585D01*
X125805075Y-53958924D01*
X125930413Y-54055100D01*
X126076365Y-54115554D01*
X126076369Y-54115555D01*
X126163000Y-54126961D01*
X126163000Y-53631000D01*
X125640990Y-53631000D01*
X125640988Y-53631001D01*
X123857810Y-53631001D01*
X123857947Y-53231000D01*
X125640987Y-53231000D01*
X126163000Y-53231000D01*
X126163000Y-52735038D01*
X126076369Y-52746444D01*
X126076365Y-52746445D01*
X125930413Y-52806899D01*
X125805075Y-52903075D01*
X125708899Y-53028413D01*
X125648444Y-53174368D01*
X125640987Y-53231000D01*
X123857947Y-53231000D01*
X123862957Y-38554547D01*
X123882664Y-38487517D01*
X123935484Y-38441780D01*
X123986546Y-38430593D01*
X127092824Y-38420371D01*
X127159926Y-38439835D01*
X127205854Y-38492488D01*
X127216025Y-38561613D01*
X127187210Y-38625264D01*
X127180911Y-38632051D01*
X126247438Y-39565525D01*
X126177526Y-39635436D01*
X126128091Y-39721059D01*
X126128091Y-39721060D01*
X126128090Y-39721062D01*
X126102500Y-39816565D01*
X126102500Y-39816567D01*
X126102500Y-49396500D01*
X126082815Y-49463539D01*
X126030011Y-49509294D01*
X125978500Y-49520500D01*
X125674739Y-49520500D01*
X125606608Y-49530426D01*
X125501514Y-49581803D01*
X125418803Y-49664514D01*
X125367426Y-49769608D01*
X125357500Y-49837739D01*
X125357500Y-49869100D01*
X125337815Y-49936139D01*
X125321181Y-49956781D01*
X124742971Y-50534990D01*
X124712917Y-50557105D01*
X124570761Y-50631716D01*
X124452516Y-50736471D01*
X124362781Y-50866475D01*
X124362780Y-50866476D01*
X124306762Y-51014181D01*
X124287722Y-51170999D01*
X124287722Y-51171000D01*
X124306762Y-51327818D01*
X124362780Y-51475523D01*
X124452517Y-51605530D01*
X124570760Y-51710283D01*
X124570762Y-51710284D01*
X124710634Y-51783696D01*
X124864014Y-51821500D01*
X124864015Y-51821500D01*
X125021985Y-51821500D01*
X125175365Y-51783696D01*
X125213654Y-51763600D01*
X125315240Y-51710283D01*
X125433483Y-51605530D01*
X125449312Y-51582597D01*
X125503593Y-51538606D01*
X125573041Y-51530945D01*
X125605818Y-51541632D01*
X125646607Y-51561573D01*
X125668728Y-51564796D01*
X125714739Y-51571500D01*
X125839515Y-51571500D01*
X125906554Y-51591185D01*
X125937891Y-51620013D01*
X125960075Y-51648924D01*
X126085413Y-51745100D01*
X126231365Y-51805554D01*
X126231369Y-51805555D01*
X126318000Y-51816961D01*
X126318000Y-51816959D01*
X126718000Y-51816959D01*
X126718001Y-51816960D01*
X126804627Y-51805557D01*
X126804633Y-51805555D01*
X126950585Y-51745100D01*
X127075924Y-51648924D01*
X127172100Y-51523586D01*
X127232555Y-51377631D01*
X127240012Y-51321000D01*
X126718000Y-51321000D01*
X126718000Y-51816959D01*
X126318000Y-51816959D01*
X126318000Y-51413617D01*
X126330598Y-51359159D01*
X126348573Y-51322393D01*
X126358500Y-51254260D01*
X126358500Y-51045000D01*
X126378185Y-50977961D01*
X126430989Y-50932206D01*
X126482500Y-50921000D01*
X127240010Y-50921000D01*
X127240011Y-50920998D01*
X127232557Y-50864372D01*
X127232555Y-50864366D01*
X127172100Y-50718414D01*
X127075924Y-50593075D01*
X126950587Y-50496900D01*
X126929136Y-50488015D01*
X126874733Y-50444174D01*
X126852668Y-50377880D01*
X126869947Y-50310181D01*
X126888911Y-50285770D01*
X126897198Y-50277483D01*
X126948573Y-50172393D01*
X126958500Y-50104260D01*
X126958500Y-49837740D01*
X126948573Y-49769607D01*
X126897198Y-49664517D01*
X126897196Y-49664515D01*
X126897196Y-49664514D01*
X126889819Y-49657137D01*
X126856334Y-49595814D01*
X126853500Y-49569456D01*
X126853500Y-45901000D01*
X127662975Y-45901000D01*
X127683042Y-46155989D01*
X127742752Y-46404702D01*
X127840634Y-46641012D01*
X127840636Y-46641015D01*
X127974277Y-46859098D01*
X127974284Y-46859107D01*
X127977533Y-46862912D01*
X128538884Y-46301560D01*
X128539740Y-46303626D01*
X128632762Y-46442844D01*
X128751156Y-46561238D01*
X128890374Y-46654260D01*
X128892437Y-46655114D01*
X128331087Y-47216465D01*
X128334897Y-47219719D01*
X128552984Y-47353363D01*
X128552987Y-47353365D01*
X128789297Y-47451247D01*
X129038011Y-47510957D01*
X129038010Y-47510957D01*
X129293000Y-47531024D01*
X129547989Y-47510957D01*
X129796702Y-47451247D01*
X130033012Y-47353365D01*
X130033015Y-47353363D01*
X130251095Y-47219724D01*
X130251110Y-47219713D01*
X130254911Y-47216466D01*
X130254911Y-47216464D01*
X129693562Y-46655114D01*
X129695626Y-46654260D01*
X129834844Y-46561238D01*
X129953238Y-46442844D01*
X130046260Y-46303626D01*
X130047114Y-46301561D01*
X130608464Y-46862911D01*
X130608466Y-46862911D01*
X130611713Y-46859110D01*
X130611724Y-46859095D01*
X130745363Y-46641015D01*
X130745365Y-46641012D01*
X130843247Y-46404702D01*
X130902957Y-46155989D01*
X130923024Y-45901000D01*
X130902957Y-45646010D01*
X130843247Y-45397297D01*
X130745365Y-45160987D01*
X130745363Y-45160984D01*
X130611719Y-44942897D01*
X130608465Y-44939087D01*
X130047114Y-45500437D01*
X130046260Y-45498374D01*
X129953238Y-45359156D01*
X129834844Y-45240762D01*
X129695626Y-45147740D01*
X129693561Y-45146884D01*
X130254912Y-44585533D01*
X130251107Y-44582284D01*
X130251098Y-44582277D01*
X130033015Y-44448636D01*
X130033012Y-44448634D01*
X129796702Y-44350752D01*
X129547988Y-44291042D01*
X129547989Y-44291042D01*
X129293000Y-44270975D01*
X129038010Y-44291042D01*
X128789297Y-44350752D01*
X128552987Y-44448634D01*
X128552984Y-44448636D01*
X128334893Y-44582282D01*
X128331086Y-44585532D01*
X128892438Y-45146884D01*
X128890374Y-45147740D01*
X128751156Y-45240762D01*
X128632762Y-45359156D01*
X128539740Y-45498374D01*
X128538884Y-45500438D01*
X127977532Y-44939086D01*
X127974282Y-44942893D01*
X127840636Y-45160984D01*
X127840634Y-45160987D01*
X127742752Y-45397297D01*
X127683042Y-45646010D01*
X127662975Y-45901000D01*
X126853500Y-45901000D01*
X126853500Y-40072899D01*
X126873185Y-40005860D01*
X126889819Y-39985218D01*
X127582218Y-39292819D01*
X127643541Y-39259334D01*
X127669899Y-39256500D01*
X128296304Y-39256500D01*
X128363343Y-39276185D01*
X128409098Y-39328989D01*
X128419042Y-39398147D01*
X128390017Y-39461703D01*
X128361095Y-39486227D01*
X128334891Y-39502284D01*
X128331086Y-39505532D01*
X128892438Y-40066884D01*
X128890374Y-40067740D01*
X128751156Y-40160762D01*
X128632762Y-40279156D01*
X128539740Y-40418374D01*
X128538884Y-40420438D01*
X127977532Y-39859086D01*
X127974282Y-39862893D01*
X127840636Y-40080984D01*
X127840634Y-40080987D01*
X127742752Y-40317297D01*
X127683042Y-40566010D01*
X127662975Y-40821000D01*
X127683042Y-41075989D01*
X127742752Y-41324702D01*
X127840634Y-41561012D01*
X127840636Y-41561015D01*
X127974277Y-41779098D01*
X127974284Y-41779107D01*
X127977533Y-41782912D01*
X128538884Y-41221560D01*
X128539740Y-41223626D01*
X128632762Y-41362844D01*
X128751156Y-41481238D01*
X128890374Y-41574260D01*
X128892437Y-41575114D01*
X128331087Y-42136465D01*
X128334897Y-42139719D01*
X128552984Y-42273363D01*
X128552987Y-42273365D01*
X128789297Y-42371247D01*
X129038011Y-42430957D01*
X129038010Y-42430957D01*
X129293000Y-42451024D01*
X129547989Y-42430957D01*
X129796702Y-42371247D01*
X130033012Y-42273365D01*
X130033015Y-42273363D01*
X130251095Y-42139724D01*
X130251110Y-42139713D01*
X130254911Y-42136466D01*
X130254911Y-42136464D01*
X129693562Y-41575114D01*
X129695626Y-41574260D01*
X129834844Y-41481238D01*
X129953238Y-41362844D01*
X130046260Y-41223626D01*
X130047114Y-41221561D01*
X130608464Y-41782911D01*
X130608466Y-41782911D01*
X130611713Y-41779110D01*
X130611724Y-41779095D01*
X130745363Y-41561015D01*
X130745365Y-41561012D01*
X130843247Y-41324702D01*
X130902957Y-41075989D01*
X130923024Y-40821000D01*
X130902957Y-40566010D01*
X130843247Y-40317297D01*
X130745365Y-40080987D01*
X130745363Y-40080984D01*
X130611719Y-39862897D01*
X130608465Y-39859087D01*
X130047114Y-40420437D01*
X130046260Y-40418374D01*
X129953238Y-40279156D01*
X129834844Y-40160762D01*
X129695626Y-40067740D01*
X129693561Y-40066884D01*
X130254912Y-39505533D01*
X130251107Y-39502284D01*
X130224906Y-39486228D01*
X130178031Y-39434416D01*
X130166608Y-39365486D01*
X130194265Y-39301323D01*
X130252221Y-39262299D01*
X130289696Y-39256500D01*
X133376304Y-39256500D01*
X133443343Y-39276185D01*
X133489098Y-39328989D01*
X133499042Y-39398147D01*
X133470017Y-39461703D01*
X133441095Y-39486227D01*
X133414891Y-39502284D01*
X133411086Y-39505532D01*
X133972438Y-40066884D01*
X133970374Y-40067740D01*
X133831156Y-40160762D01*
X133712762Y-40279156D01*
X133619740Y-40418374D01*
X133618884Y-40420438D01*
X133057532Y-39859086D01*
X133054282Y-39862893D01*
X132920636Y-40080984D01*
X132920634Y-40080987D01*
X132822752Y-40317297D01*
X132763042Y-40566010D01*
X132742975Y-40821000D01*
X132763042Y-41075989D01*
X132822752Y-41324702D01*
X132920634Y-41561012D01*
X132920636Y-41561015D01*
X133054277Y-41779098D01*
X133054284Y-41779107D01*
X133057533Y-41782912D01*
X133618884Y-41221560D01*
X133619740Y-41223626D01*
X133712762Y-41362844D01*
X133831156Y-41481238D01*
X133970374Y-41574260D01*
X133972437Y-41575114D01*
X133411087Y-42136465D01*
X133414897Y-42139719D01*
X133632984Y-42273363D01*
X133632987Y-42273365D01*
X133869297Y-42371247D01*
X134118011Y-42430957D01*
X134118010Y-42430957D01*
X134373000Y-42451024D01*
X134627989Y-42430957D01*
X134876702Y-42371247D01*
X135113012Y-42273365D01*
X135113015Y-42273363D01*
X135331095Y-42139724D01*
X135331110Y-42139713D01*
X135334911Y-42136466D01*
X135334911Y-42136464D01*
X134773562Y-41575114D01*
X134775626Y-41574260D01*
X134914844Y-41481238D01*
X135033238Y-41362844D01*
X135126260Y-41223626D01*
X135127114Y-41221561D01*
X135688464Y-41782911D01*
X135688466Y-41782911D01*
X135691713Y-41779110D01*
X135691724Y-41779095D01*
X135825363Y-41561015D01*
X135825365Y-41561012D01*
X135923247Y-41324702D01*
X135982957Y-41075989D01*
X136003024Y-40821000D01*
X135982957Y-40566010D01*
X135923247Y-40317297D01*
X135825365Y-40080987D01*
X135825363Y-40080984D01*
X135691719Y-39862897D01*
X135688465Y-39859087D01*
X135127114Y-40420437D01*
X135126260Y-40418374D01*
X135033238Y-40279156D01*
X134914844Y-40160762D01*
X134775626Y-40067740D01*
X134773561Y-40066884D01*
X135334912Y-39505533D01*
X135331107Y-39502284D01*
X135304906Y-39486228D01*
X135258031Y-39434416D01*
X135246608Y-39365486D01*
X135274265Y-39301323D01*
X135332221Y-39262299D01*
X135369696Y-39256500D01*
X140096101Y-39256500D01*
X140163140Y-39276185D01*
X140183782Y-39292819D01*
X142081181Y-41190218D01*
X142114666Y-41251541D01*
X142117500Y-41277899D01*
X142117500Y-41727935D01*
X142097815Y-41794974D01*
X142062392Y-41831037D01*
X141998644Y-41873632D01*
X141945681Y-41926596D01*
X141884358Y-41960081D01*
X141814666Y-41955097D01*
X141770319Y-41926596D01*
X141717355Y-41873632D01*
X141717351Y-41873629D01*
X141590343Y-41788764D01*
X141590334Y-41788759D01*
X141449205Y-41730302D01*
X141449197Y-41730300D01*
X141299384Y-41700500D01*
X141299380Y-41700500D01*
X141146620Y-41700500D01*
X141146615Y-41700500D01*
X140996802Y-41730300D01*
X140996794Y-41730302D01*
X140855665Y-41788759D01*
X140855656Y-41788764D01*
X140728648Y-41873629D01*
X140728644Y-41873632D01*
X140620632Y-41981644D01*
X140620629Y-41981648D01*
X140535764Y-42108656D01*
X140535759Y-42108665D01*
X140477302Y-42249794D01*
X140477300Y-42249802D01*
X140447500Y-42399615D01*
X140447500Y-42894101D01*
X140427815Y-42961140D01*
X140411181Y-42981782D01*
X137092526Y-46300436D01*
X137043091Y-46386059D01*
X137043091Y-46386060D01*
X137043090Y-46386062D01*
X137017500Y-46481565D01*
X137017500Y-46481567D01*
X137017500Y-48520437D01*
X137028368Y-48560999D01*
X137043088Y-48615934D01*
X137043089Y-48615937D01*
X137043090Y-48615938D01*
X137092148Y-48700908D01*
X137092148Y-48700910D01*
X137092523Y-48701559D01*
X137092525Y-48701562D01*
X137092526Y-48701563D01*
X137612525Y-49221562D01*
X137682438Y-49291475D01*
X137765675Y-49339532D01*
X137768062Y-49340910D01*
X137815811Y-49353705D01*
X137815812Y-49353705D01*
X137825903Y-49356408D01*
X137863564Y-49366500D01*
X137863565Y-49366500D01*
X138941456Y-49366500D01*
X139008495Y-49386185D01*
X139029137Y-49402819D01*
X139036515Y-49410197D01*
X139066141Y-49424680D01*
X139099363Y-49448400D01*
X139894782Y-50243819D01*
X139928267Y-50305142D01*
X139923283Y-50374834D01*
X139881411Y-50430767D01*
X139815947Y-50455184D01*
X139807101Y-50455500D01*
X137966191Y-50455500D01*
X137911731Y-50442901D01*
X137804391Y-50390426D01*
X137736261Y-50380500D01*
X137736260Y-50380500D01*
X137409740Y-50380500D01*
X137409739Y-50380500D01*
X137341607Y-50390426D01*
X137341606Y-50390426D01*
X137307459Y-50407120D01*
X137238586Y-50418878D01*
X137198541Y-50407120D01*
X137164393Y-50390426D01*
X137096261Y-50380500D01*
X137096260Y-50380500D01*
X137064899Y-50380500D01*
X136997860Y-50360815D01*
X136977218Y-50344181D01*
X136199819Y-49566782D01*
X136166334Y-49505459D01*
X136163500Y-49479101D01*
X136163500Y-49399484D01*
X136183185Y-49332445D01*
X136212015Y-49301107D01*
X136240923Y-49278925D01*
X136337100Y-49153586D01*
X136397554Y-49007634D01*
X136397555Y-49007630D01*
X136408961Y-48921000D01*
X136005619Y-48921000D01*
X135951160Y-48908401D01*
X135942335Y-48904087D01*
X135914393Y-48890427D01*
X135914391Y-48890426D01*
X135914388Y-48890425D01*
X135846261Y-48880500D01*
X135846260Y-48880500D01*
X135579740Y-48880500D01*
X135579739Y-48880500D01*
X135511611Y-48890425D01*
X135511605Y-48890428D01*
X135474840Y-48908401D01*
X135420381Y-48921000D01*
X135017040Y-48921000D01*
X134993133Y-48948260D01*
X134934131Y-48985683D01*
X134899906Y-48990500D01*
X134411710Y-48990500D01*
X134344671Y-48970815D01*
X134318483Y-48948260D01*
X134298961Y-48926000D01*
X133895619Y-48926000D01*
X133841160Y-48913401D01*
X133830932Y-48908401D01*
X133804393Y-48895427D01*
X133804391Y-48895426D01*
X133804388Y-48895425D01*
X133736261Y-48885500D01*
X133736260Y-48885500D01*
X133469740Y-48885500D01*
X133469739Y-48885500D01*
X133401611Y-48895425D01*
X133401605Y-48895428D01*
X133364840Y-48913401D01*
X133310381Y-48926000D01*
X132907041Y-48926000D01*
X132907039Y-48926001D01*
X132918442Y-49012627D01*
X132918444Y-49012633D01*
X132978899Y-49158587D01*
X132978901Y-49158589D01*
X133043158Y-49242331D01*
X133068352Y-49307500D01*
X133054313Y-49375945D01*
X133032466Y-49405495D01*
X133018784Y-49419178D01*
X132957463Y-49452665D01*
X132931100Y-49455500D01*
X132866191Y-49455500D01*
X132811731Y-49442901D01*
X132704391Y-49390426D01*
X132636261Y-49380500D01*
X132636260Y-49380500D01*
X132335500Y-49380500D01*
X132268461Y-49360815D01*
X132222706Y-49308011D01*
X132211500Y-49256500D01*
X132211500Y-48805883D01*
X132215725Y-48773790D01*
X132218500Y-48763436D01*
X132218500Y-48664564D01*
X132218500Y-48526000D01*
X132907038Y-48526000D01*
X133403000Y-48526000D01*
X133803000Y-48526000D01*
X134298959Y-48526000D01*
X134298960Y-48525998D01*
X134298302Y-48521000D01*
X135017038Y-48521000D01*
X135513000Y-48521000D01*
X135913000Y-48521000D01*
X136408959Y-48521000D01*
X136408960Y-48520998D01*
X136397557Y-48434372D01*
X136397555Y-48434366D01*
X136337100Y-48288414D01*
X136240924Y-48163075D01*
X136115586Y-48066899D01*
X135969631Y-48006444D01*
X135913000Y-47998987D01*
X135913000Y-48521000D01*
X135513000Y-48521000D01*
X135513000Y-47998987D01*
X135456368Y-48006444D01*
X135310413Y-48066899D01*
X135185075Y-48163075D01*
X135088899Y-48288413D01*
X135028445Y-48434365D01*
X135028444Y-48434369D01*
X135017038Y-48521000D01*
X134298302Y-48521000D01*
X134287557Y-48439372D01*
X134287555Y-48439366D01*
X134227100Y-48293414D01*
X134130924Y-48168075D01*
X134005586Y-48071899D01*
X133859631Y-48011444D01*
X133803000Y-48003987D01*
X133803000Y-48526000D01*
X133403000Y-48526000D01*
X133403000Y-48003987D01*
X133346368Y-48011444D01*
X133200413Y-48071899D01*
X133075075Y-48168075D01*
X132978899Y-48293413D01*
X132918445Y-48439365D01*
X132918444Y-48439369D01*
X132907038Y-48526000D01*
X132218500Y-48526000D01*
X132218500Y-45901000D01*
X132742975Y-45901000D01*
X132763042Y-46155989D01*
X132822752Y-46404702D01*
X132920634Y-46641012D01*
X132920636Y-46641015D01*
X133054277Y-46859098D01*
X133054284Y-46859107D01*
X133057533Y-46862912D01*
X133618884Y-46301560D01*
X133619740Y-46303626D01*
X133712762Y-46442844D01*
X133831156Y-46561238D01*
X133970374Y-46654260D01*
X133972437Y-46655114D01*
X133411087Y-47216465D01*
X133414897Y-47219719D01*
X133632984Y-47353363D01*
X133632987Y-47353365D01*
X133869297Y-47451247D01*
X134118011Y-47510957D01*
X134118010Y-47510957D01*
X134373000Y-47531024D01*
X134627989Y-47510957D01*
X134876702Y-47451247D01*
X135113012Y-47353365D01*
X135113015Y-47353363D01*
X135331095Y-47219724D01*
X135331110Y-47219713D01*
X135334911Y-47216466D01*
X135334911Y-47216464D01*
X134773562Y-46655114D01*
X134775626Y-46654260D01*
X134914844Y-46561238D01*
X135033238Y-46442844D01*
X135126260Y-46303626D01*
X135127114Y-46301561D01*
X135688464Y-46862911D01*
X135688466Y-46862911D01*
X135691713Y-46859110D01*
X135691724Y-46859095D01*
X135825363Y-46641015D01*
X135825365Y-46641012D01*
X135923247Y-46404702D01*
X135982957Y-46155989D01*
X136003024Y-45901000D01*
X135982957Y-45646010D01*
X135923247Y-45397297D01*
X135825365Y-45160987D01*
X135825363Y-45160984D01*
X135691719Y-44942897D01*
X135688465Y-44939087D01*
X135127114Y-45500437D01*
X135126260Y-45498374D01*
X135033238Y-45359156D01*
X134914844Y-45240762D01*
X134775626Y-45147740D01*
X134773561Y-45146884D01*
X135334912Y-44585533D01*
X135331107Y-44582284D01*
X135331098Y-44582277D01*
X135113015Y-44448636D01*
X135113012Y-44448634D01*
X134876702Y-44350752D01*
X134627988Y-44291042D01*
X134627989Y-44291042D01*
X134373000Y-44270975D01*
X134118010Y-44291042D01*
X133869297Y-44350752D01*
X133632987Y-44448634D01*
X133632984Y-44448636D01*
X133414893Y-44582282D01*
X133411086Y-44585532D01*
X133972438Y-45146884D01*
X133970374Y-45147740D01*
X133831156Y-45240762D01*
X133712762Y-45359156D01*
X133619740Y-45498374D01*
X133618884Y-45500438D01*
X133057532Y-44939086D01*
X133054282Y-44942893D01*
X132920636Y-45160984D01*
X132920634Y-45160987D01*
X132822752Y-45397297D01*
X132763042Y-45646010D01*
X132742975Y-45901000D01*
X132218500Y-45901000D01*
X132218500Y-44667593D01*
X132238185Y-44600554D01*
X132290096Y-44555211D01*
X132365370Y-44520110D01*
X132473186Y-44469835D01*
X132656007Y-44341822D01*
X132813822Y-44184007D01*
X132941835Y-44001186D01*
X133036156Y-43798913D01*
X133093920Y-43583334D01*
X133113372Y-43361000D01*
X133093920Y-43138666D01*
X133036156Y-42923087D01*
X132941835Y-42720814D01*
X132813822Y-42537993D01*
X132656007Y-42380178D01*
X132473186Y-42252165D01*
X132270913Y-42157844D01*
X132270909Y-42157843D01*
X132270905Y-42157841D01*
X132055339Y-42100081D01*
X132055329Y-42100079D01*
X131833001Y-42080628D01*
X131832999Y-42080628D01*
X131610670Y-42100079D01*
X131610660Y-42100081D01*
X131395094Y-42157841D01*
X131395087Y-42157843D01*
X131395087Y-42157844D01*
X131192814Y-42252165D01*
X131009993Y-42380178D01*
X131009991Y-42380179D01*
X131009988Y-42380182D01*
X130852182Y-42537988D01*
X130724165Y-42720814D01*
X130629845Y-42923085D01*
X130629841Y-42923094D01*
X130572081Y-43138660D01*
X130572079Y-43138670D01*
X130552628Y-43360999D01*
X130552628Y-43361000D01*
X130572079Y-43583329D01*
X130572081Y-43583339D01*
X130629841Y-43798905D01*
X130629843Y-43798909D01*
X130629844Y-43798913D01*
X130724165Y-44001186D01*
X130852178Y-44184007D01*
X131009993Y-44341822D01*
X131192814Y-44469835D01*
X131395087Y-44564156D01*
X131395091Y-44564157D01*
X131395904Y-44564536D01*
X131448344Y-44610708D01*
X131467500Y-44676918D01*
X131467500Y-47947000D01*
X131447815Y-48014039D01*
X131395011Y-48059794D01*
X131343500Y-48071000D01*
X131251155Y-48071000D01*
X131191627Y-48077401D01*
X131191620Y-48077403D01*
X131056913Y-48127645D01*
X131056906Y-48127649D01*
X130941812Y-48213809D01*
X130941809Y-48213812D01*
X130855649Y-48328906D01*
X130855645Y-48328913D01*
X130805403Y-48463620D01*
X130805401Y-48463627D01*
X130799000Y-48523155D01*
X130799000Y-48918844D01*
X130805401Y-48978372D01*
X130805403Y-48978379D01*
X130855645Y-49113086D01*
X130855649Y-49113093D01*
X130941809Y-49228187D01*
X130941812Y-49228190D01*
X131056906Y-49314350D01*
X131056913Y-49314354D01*
X131191620Y-49364596D01*
X131191627Y-49364598D01*
X131251155Y-49370999D01*
X131251172Y-49371000D01*
X131290207Y-49371000D01*
X131357246Y-49390685D01*
X131403001Y-49443489D01*
X131412945Y-49512647D01*
X131401608Y-49549460D01*
X131362426Y-49629608D01*
X131352500Y-49697739D01*
X131352500Y-49964260D01*
X131362426Y-50032391D01*
X131362427Y-50032393D01*
X131413802Y-50137483D01*
X131413803Y-50137484D01*
X131421178Y-50144859D01*
X131454665Y-50206181D01*
X131457500Y-50232543D01*
X131457500Y-50312809D01*
X131444901Y-50367269D01*
X131392426Y-50474608D01*
X131382500Y-50542739D01*
X131382500Y-50869260D01*
X131392426Y-50937392D01*
X131392426Y-50937393D01*
X131409120Y-50971541D01*
X131420878Y-51040414D01*
X131409120Y-51080459D01*
X131392426Y-51114606D01*
X131392426Y-51114607D01*
X131382500Y-51182739D01*
X131382500Y-51479350D01*
X131362815Y-51546389D01*
X131310011Y-51592144D01*
X131240853Y-51602088D01*
X131221610Y-51597736D01*
X131060101Y-51547408D01*
X130989572Y-51541000D01*
X130476417Y-51541000D01*
X130405897Y-51547408D01*
X130405892Y-51547409D01*
X130243603Y-51597981D01*
X130098122Y-51685927D01*
X129977927Y-51806122D01*
X129889981Y-51951603D01*
X129889980Y-51951605D01*
X129856048Y-52060493D01*
X129856048Y-52060495D01*
X130998871Y-53203318D01*
X131032356Y-53264641D01*
X131027372Y-53334333D01*
X130998871Y-53378680D01*
X129856048Y-54521503D01*
X129856048Y-54521505D01*
X129889980Y-54630394D01*
X129889981Y-54630396D01*
X129977927Y-54775877D01*
X130098122Y-54896072D01*
X130243604Y-54984019D01*
X130243603Y-54984019D01*
X130405894Y-55034590D01*
X130405893Y-55034590D01*
X130476427Y-55040999D01*
X130989581Y-55040999D01*
X131060102Y-55034591D01*
X131060107Y-55034590D01*
X131222396Y-54984018D01*
X131367875Y-54896073D01*
X131440462Y-54823486D01*
X131501785Y-54790001D01*
X131540593Y-54790016D01*
X131540788Y-54787942D01*
X131578730Y-54791500D01*
X131578734Y-54791500D01*
X132087270Y-54791500D01*
X132125212Y-54787942D01*
X132125502Y-54791041D01*
X132180969Y-54794903D01*
X132225537Y-54823485D01*
X132298124Y-54896073D01*
X132443604Y-54984019D01*
X132443603Y-54984019D01*
X132605894Y-55034590D01*
X132605893Y-55034590D01*
X132676427Y-55040999D01*
X133189581Y-55040999D01*
X133260102Y-55034591D01*
X133260107Y-55034590D01*
X133422396Y-54984018D01*
X133567875Y-54896073D01*
X133640462Y-54823486D01*
X133701785Y-54790001D01*
X133740593Y-54790016D01*
X133740788Y-54787942D01*
X133778730Y-54791500D01*
X133778734Y-54791500D01*
X134287270Y-54791500D01*
X134317699Y-54788646D01*
X134317701Y-54788646D01*
X134408501Y-54756873D01*
X134445882Y-54743793D01*
X134509368Y-54696938D01*
X134574995Y-54672968D01*
X134643165Y-54688283D01*
X134656620Y-54696929D01*
X134667134Y-54704689D01*
X134709383Y-54760333D01*
X134717500Y-54804458D01*
X134717500Y-55071564D01*
X134717500Y-55170436D01*
X134717803Y-55171565D01*
X134722151Y-55187791D01*
X134743090Y-55265939D01*
X134743091Y-55265940D01*
X134781682Y-55332782D01*
X134792526Y-55351563D01*
X135581181Y-56140218D01*
X135614666Y-56201541D01*
X135617500Y-56227899D01*
X135617500Y-63888505D01*
X135597815Y-63955544D01*
X135545011Y-64001299D01*
X135475853Y-64011243D01*
X135452546Y-64005547D01*
X135417697Y-63993353D01*
X135417699Y-63993353D01*
X135387270Y-63990500D01*
X135387266Y-63990500D01*
X134878734Y-63990500D01*
X134878730Y-63990500D01*
X134848300Y-63993353D01*
X134848298Y-63993353D01*
X134720119Y-64038206D01*
X134720118Y-64038207D01*
X134656633Y-64085061D01*
X134591004Y-64109031D01*
X134522834Y-64093715D01*
X134509367Y-64085061D01*
X134500377Y-64078426D01*
X134445882Y-64038207D01*
X134445880Y-64038206D01*
X134317700Y-63993353D01*
X134287270Y-63990500D01*
X134287266Y-63990500D01*
X133778734Y-63990500D01*
X133778730Y-63990500D01*
X133748300Y-63993353D01*
X133748298Y-63993353D01*
X133620119Y-64038206D01*
X133620118Y-64038207D01*
X133556633Y-64085061D01*
X133491004Y-64109031D01*
X133422834Y-64093715D01*
X133409367Y-64085061D01*
X133400377Y-64078426D01*
X133345882Y-64038207D01*
X133345880Y-64038206D01*
X133217700Y-63993353D01*
X133187270Y-63990500D01*
X133187266Y-63990500D01*
X132678734Y-63990500D01*
X132678730Y-63990500D01*
X132648300Y-63993353D01*
X132648298Y-63993353D01*
X132520119Y-64038206D01*
X132520118Y-64038207D01*
X132456633Y-64085061D01*
X132391004Y-64109031D01*
X132322834Y-64093715D01*
X132309367Y-64085061D01*
X132300377Y-64078426D01*
X132245882Y-64038207D01*
X132245880Y-64038206D01*
X132117700Y-63993353D01*
X132087270Y-63990500D01*
X132087266Y-63990500D01*
X132053115Y-63990500D01*
X131986076Y-63970815D01*
X131965434Y-63954181D01*
X131861618Y-63850365D01*
X131828133Y-63789042D01*
X131826203Y-63747742D01*
X131832379Y-63696885D01*
X131813338Y-63540067D01*
X131757321Y-63392362D01*
X131667584Y-63262355D01*
X131549341Y-63157602D01*
X131549339Y-63157601D01*
X131549338Y-63157600D01*
X131409466Y-63084188D01*
X131256087Y-63046385D01*
X131256086Y-63046385D01*
X131098116Y-63046385D01*
X131098115Y-63046385D01*
X130944735Y-63084188D01*
X130804863Y-63157600D01*
X130686617Y-63262356D01*
X130596882Y-63392360D01*
X130596881Y-63392361D01*
X130540864Y-63540065D01*
X130528991Y-63637844D01*
X130501369Y-63702022D01*
X130443434Y-63741078D01*
X130417121Y-63746388D01*
X130405895Y-63747408D01*
X130405892Y-63747409D01*
X130243603Y-63797981D01*
X130098122Y-63885927D01*
X129977927Y-64006122D01*
X129889981Y-64151603D01*
X129889980Y-64151605D01*
X129856048Y-64260493D01*
X129856048Y-64260495D01*
X130998871Y-65403318D01*
X131032356Y-65464641D01*
X131027372Y-65534333D01*
X130998871Y-65578680D01*
X129856048Y-66721503D01*
X129856048Y-66721505D01*
X129889980Y-66830394D01*
X129889981Y-66830396D01*
X129977927Y-66975877D01*
X130098122Y-67096072D01*
X130243604Y-67184019D01*
X130243603Y-67184019D01*
X130405894Y-67234590D01*
X130405893Y-67234590D01*
X130476427Y-67240999D01*
X130989581Y-67240999D01*
X131060102Y-67234591D01*
X131060107Y-67234590D01*
X131222396Y-67184018D01*
X131367875Y-67096073D01*
X131440462Y-67023486D01*
X131501785Y-66990001D01*
X131540593Y-66990016D01*
X131540788Y-66987942D01*
X131578730Y-66991500D01*
X131578734Y-66991500D01*
X132087270Y-66991500D01*
X132117699Y-66988646D01*
X132117701Y-66988646D01*
X132208501Y-66956873D01*
X132245882Y-66943793D01*
X132309367Y-66896938D01*
X132374993Y-66872968D01*
X132443163Y-66888283D01*
X132456627Y-66896934D01*
X132507134Y-66934210D01*
X132549384Y-66989857D01*
X132557500Y-67033980D01*
X132557500Y-67117877D01*
X132544151Y-67167703D01*
X132546201Y-67168552D01*
X132543090Y-67176060D01*
X132543090Y-67176062D01*
X132517500Y-67271565D01*
X132517500Y-67271567D01*
X132517500Y-68614101D01*
X132497815Y-68681140D01*
X132481181Y-68701782D01*
X131073782Y-70109181D01*
X131012459Y-70142666D01*
X130986101Y-70145500D01*
X129961191Y-70145500D01*
X129906731Y-70132901D01*
X129799391Y-70080426D01*
X129731261Y-70070500D01*
X129731260Y-70070500D01*
X129404740Y-70070500D01*
X129404739Y-70070500D01*
X129336607Y-70080426D01*
X129336606Y-70080426D01*
X129302459Y-70097120D01*
X129233586Y-70108878D01*
X129193541Y-70097120D01*
X129159393Y-70080426D01*
X129091261Y-70070500D01*
X129091260Y-70070500D01*
X128764740Y-70070500D01*
X128764739Y-70070500D01*
X128696608Y-70080426D01*
X128591514Y-70131803D01*
X128508803Y-70214514D01*
X128457426Y-70319608D01*
X128447500Y-70387739D01*
X128447500Y-70419101D01*
X128427815Y-70486140D01*
X128411181Y-70506782D01*
X127942527Y-70975435D01*
X127893090Y-71061060D01*
X127890561Y-71070500D01*
X127885260Y-71090283D01*
X127885259Y-71090284D01*
X127873968Y-71132426D01*
X127871938Y-71140004D01*
X127867500Y-71156565D01*
X127867500Y-71690963D01*
X127879605Y-71736139D01*
X127893091Y-71786469D01*
X127939620Y-71867059D01*
X127942526Y-71872092D01*
X129070535Y-73000100D01*
X130076997Y-74006562D01*
X130146910Y-74076475D01*
X130211580Y-74113812D01*
X130232534Y-74125910D01*
X130280283Y-74138705D01*
X130280284Y-74138705D01*
X130290375Y-74141408D01*
X130328036Y-74151500D01*
X130328037Y-74151500D01*
X130328038Y-74151500D01*
X132288221Y-74151500D01*
X132355260Y-74171185D01*
X132401015Y-74223989D01*
X132410959Y-74293147D01*
X132391324Y-74344389D01*
X132372035Y-74373257D01*
X132372032Y-74373264D01*
X132357500Y-74446321D01*
X132357500Y-75595678D01*
X132372032Y-75668735D01*
X132372033Y-75668739D01*
X132372034Y-75668740D01*
X132427399Y-75751601D01*
X132502390Y-75801708D01*
X132547196Y-75855319D01*
X132557500Y-75904810D01*
X132557500Y-76724101D01*
X132537815Y-76791140D01*
X132521181Y-76811782D01*
X132048782Y-77284181D01*
X131987459Y-77317666D01*
X131961101Y-77320500D01*
X131929739Y-77320500D01*
X131861607Y-77330426D01*
X131861606Y-77330426D01*
X131827459Y-77347120D01*
X131758586Y-77358878D01*
X131718541Y-77347120D01*
X131684393Y-77330426D01*
X131616261Y-77320500D01*
X131616260Y-77320500D01*
X131289740Y-77320500D01*
X131289739Y-77320500D01*
X131221608Y-77330426D01*
X131114269Y-77382901D01*
X131059809Y-77395500D01*
X127075232Y-77395500D01*
X127008193Y-77375815D01*
X126965874Y-77329953D01*
X126905937Y-77217820D01*
X126905933Y-77217814D01*
X126784344Y-77069655D01*
X126636185Y-76948066D01*
X126636179Y-76948061D01*
X126467154Y-76857716D01*
X126283743Y-76802078D01*
X126093000Y-76783292D01*
X125902256Y-76802078D01*
X125718845Y-76857716D01*
X125549820Y-76948061D01*
X125549814Y-76948066D01*
X125401655Y-77069655D01*
X125280066Y-77217814D01*
X125280061Y-77217820D01*
X125189716Y-77386845D01*
X125134078Y-77570256D01*
X125115292Y-77761000D01*
X125134078Y-77951743D01*
X125189716Y-78135154D01*
X125280061Y-78304179D01*
X125280066Y-78304185D01*
X125401655Y-78452344D01*
X125549814Y-78573933D01*
X125549820Y-78573938D01*
X125709792Y-78659444D01*
X125718847Y-78664284D01*
X125902259Y-78719922D01*
X126093000Y-78738708D01*
X126283741Y-78719922D01*
X126467153Y-78664284D01*
X126529676Y-78630864D01*
X126636179Y-78573938D01*
X126636181Y-78573935D01*
X126636185Y-78573934D01*
X126784344Y-78452344D01*
X126905934Y-78304185D01*
X126905935Y-78304181D01*
X126905938Y-78304179D01*
X126955184Y-78212047D01*
X127004146Y-78162202D01*
X127064542Y-78146500D01*
X127993500Y-78146500D01*
X128060539Y-78166185D01*
X128106294Y-78218989D01*
X128117500Y-78270500D01*
X128117500Y-78907809D01*
X128104901Y-78962269D01*
X128052426Y-79069608D01*
X128042500Y-79137739D01*
X128042500Y-79464260D01*
X128052426Y-79532392D01*
X128052426Y-79532393D01*
X128069120Y-79566541D01*
X128080878Y-79635414D01*
X128069120Y-79675459D01*
X128052426Y-79709606D01*
X128052426Y-79709607D01*
X128042500Y-79777739D01*
X128042500Y-87563159D01*
X128022815Y-87630198D01*
X127987390Y-87666261D01*
X127928332Y-87705721D01*
X127928325Y-87705727D01*
X127193963Y-88440089D01*
X127132640Y-88473574D01*
X127062948Y-88468590D01*
X127007015Y-88426718D01*
X126982598Y-88361254D01*
X126995351Y-88301364D01*
X126993952Y-88300785D01*
X126996283Y-88295156D01*
X127051921Y-88111743D01*
X127051922Y-88111741D01*
X127070708Y-87921000D01*
X127051922Y-87730259D01*
X126996284Y-87546847D01*
X126976856Y-87510500D01*
X126905938Y-87377820D01*
X126905933Y-87377814D01*
X126784344Y-87229655D01*
X126636185Y-87108066D01*
X126636179Y-87108061D01*
X126467154Y-87017716D01*
X126283743Y-86962078D01*
X126093000Y-86943292D01*
X125902256Y-86962078D01*
X125718845Y-87017716D01*
X125549820Y-87108061D01*
X125549814Y-87108066D01*
X125401655Y-87229655D01*
X125280066Y-87377814D01*
X125280061Y-87377820D01*
X125189716Y-87546845D01*
X125134078Y-87730256D01*
X125115292Y-87921000D01*
X125134078Y-88111743D01*
X125189716Y-88295154D01*
X125280061Y-88464179D01*
X125280066Y-88464185D01*
X125401655Y-88612344D01*
X125549814Y-88733933D01*
X125549820Y-88733938D01*
X125714484Y-88821952D01*
X125718847Y-88824284D01*
X125902259Y-88879922D01*
X126093000Y-88898708D01*
X126283741Y-88879922D01*
X126467153Y-88824284D01*
X126467153Y-88824283D01*
X126467156Y-88824283D01*
X126472785Y-88821952D01*
X126473377Y-88823383D01*
X126534336Y-88810680D01*
X126599584Y-88835669D01*
X126640964Y-88891966D01*
X126645339Y-88961699D01*
X126612089Y-89021963D01*
X126187052Y-89447000D01*
X126125729Y-89480485D01*
X126099090Y-89482064D01*
X126099090Y-89483292D01*
X126093000Y-89483292D01*
X125902256Y-89502078D01*
X125718845Y-89557716D01*
X125549820Y-89648061D01*
X125549814Y-89648066D01*
X125401655Y-89769655D01*
X125280066Y-89917814D01*
X125280061Y-89917820D01*
X125189716Y-90086845D01*
X125134078Y-90270256D01*
X125115292Y-90461000D01*
X125134078Y-90651743D01*
X125189716Y-90835154D01*
X125280061Y-91004179D01*
X125280066Y-91004185D01*
X125401655Y-91152344D01*
X125522952Y-91251888D01*
X125537521Y-91263845D01*
X125549814Y-91273933D01*
X125549820Y-91273938D01*
X125685250Y-91346326D01*
X125718847Y-91364284D01*
X125902259Y-91419922D01*
X126093000Y-91438708D01*
X126283741Y-91419922D01*
X126467153Y-91364284D01*
X126548133Y-91320999D01*
X126636179Y-91273938D01*
X126636181Y-91273935D01*
X126636185Y-91273934D01*
X126784344Y-91152344D01*
X126905934Y-91004185D01*
X126905935Y-91004181D01*
X126905938Y-91004179D01*
X126984090Y-90857966D01*
X126996284Y-90835153D01*
X127038496Y-90696001D01*
X127897039Y-90696001D01*
X127908442Y-90782627D01*
X127908444Y-90782633D01*
X127968899Y-90928585D01*
X128065075Y-91053924D01*
X128190414Y-91150100D01*
X128336366Y-91210555D01*
X128336372Y-91210557D01*
X128392998Y-91218011D01*
X128393000Y-91218010D01*
X128393000Y-90696000D01*
X127897041Y-90696000D01*
X127897039Y-90696001D01*
X127038496Y-90696001D01*
X127051922Y-90651741D01*
X127070708Y-90461000D01*
X127070708Y-90460999D01*
X127070708Y-90454908D01*
X127073547Y-90454908D01*
X127084251Y-90398221D01*
X127106996Y-90366948D01*
X127930820Y-89543125D01*
X127992142Y-89509641D01*
X128061834Y-89514625D01*
X128117767Y-89556497D01*
X128142184Y-89621961D01*
X128142500Y-89630807D01*
X128142500Y-89817514D01*
X128122815Y-89884553D01*
X128093987Y-89915889D01*
X128065078Y-89938071D01*
X127968899Y-90063413D01*
X127908445Y-90209365D01*
X127908444Y-90209369D01*
X127897038Y-90296000D01*
X128300381Y-90296000D01*
X128354840Y-90308599D01*
X128391607Y-90326573D01*
X128391609Y-90326573D01*
X128391611Y-90326574D01*
X128459739Y-90336500D01*
X128669000Y-90336500D01*
X128736039Y-90356185D01*
X128781794Y-90408989D01*
X128793000Y-90460500D01*
X128793000Y-91218010D01*
X128793001Y-91218011D01*
X128849627Y-91210557D01*
X128849633Y-91210555D01*
X128995585Y-91150100D01*
X129120926Y-91053923D01*
X129207124Y-90941588D01*
X129231560Y-90923744D01*
X129231767Y-90894790D01*
X129235931Y-90883121D01*
X129277555Y-90782631D01*
X129277556Y-90782628D01*
X129281696Y-90751181D01*
X129309961Y-90687284D01*
X129368285Y-90648812D01*
X129438150Y-90647979D01*
X129452087Y-90652803D01*
X129454500Y-90653802D01*
X129861302Y-90247000D01*
X129861302Y-90246999D01*
X129454500Y-89840197D01*
X129454500Y-90013157D01*
X129434815Y-90080196D01*
X129382011Y-90125951D01*
X129312853Y-90135895D01*
X129249297Y-90106870D01*
X129222483Y-90069687D01*
X129221163Y-90070450D01*
X129217101Y-90063414D01*
X129120921Y-89938071D01*
X129092013Y-89915889D01*
X129050811Y-89859461D01*
X129043500Y-89817514D01*
X129043500Y-88985500D01*
X129063185Y-88918461D01*
X129115989Y-88872706D01*
X129167500Y-88861500D01*
X130328931Y-88861500D01*
X131534601Y-88861500D01*
X131601640Y-88881185D01*
X131647395Y-88933989D01*
X131657339Y-89003147D01*
X131628314Y-89066703D01*
X131622282Y-89073181D01*
X131110282Y-89585181D01*
X131048959Y-89618666D01*
X131022601Y-89621500D01*
X130879823Y-89621500D01*
X130794781Y-89638416D01*
X130794274Y-89635867D01*
X130742199Y-89641460D01*
X130679723Y-89610179D01*
X130644077Y-89550086D01*
X130646579Y-89480261D01*
X130665936Y-89448928D01*
X130665498Y-89442803D01*
X130646589Y-89428647D01*
X130511876Y-89378402D01*
X130511872Y-89378401D01*
X130452344Y-89372000D01*
X129906655Y-89372000D01*
X129847127Y-89378401D01*
X129847120Y-89378403D01*
X129712413Y-89428645D01*
X129712410Y-89428647D01*
X129693501Y-89442803D01*
X129693500Y-89442803D01*
X130179499Y-89928801D01*
X130464251Y-89644049D01*
X130525575Y-89610564D01*
X130595266Y-89615548D01*
X130651200Y-89657419D01*
X130675617Y-89722884D01*
X130669286Y-89761956D01*
X130670916Y-89762281D01*
X130654000Y-89847321D01*
X130654000Y-90039336D01*
X130634315Y-90106375D01*
X130617681Y-90127017D01*
X130179500Y-90565198D01*
X129662508Y-91082189D01*
X129601185Y-91115674D01*
X129531493Y-91110690D01*
X129492295Y-91087052D01*
X129429500Y-91031050D01*
X129429500Y-92594844D01*
X129435901Y-92654372D01*
X129435903Y-92654379D01*
X129486145Y-92789086D01*
X129486149Y-92789093D01*
X129572309Y-92904187D01*
X129572312Y-92904190D01*
X129654311Y-92965575D01*
X129696182Y-93021509D01*
X129704000Y-93064841D01*
X129704000Y-93646678D01*
X129718532Y-93719735D01*
X129718533Y-93719739D01*
X129718534Y-93719740D01*
X129773899Y-93802601D01*
X129856757Y-93857964D01*
X129856760Y-93857966D01*
X129856764Y-93857967D01*
X129929821Y-93872499D01*
X129929824Y-93872500D01*
X129929826Y-93872500D01*
X130429176Y-93872500D01*
X130429177Y-93872499D01*
X130502240Y-93857966D01*
X130585101Y-93802601D01*
X130585100Y-93802601D01*
X130585610Y-93802261D01*
X130652287Y-93781383D01*
X130719667Y-93799868D01*
X130723390Y-93802261D01*
X130806756Y-93857964D01*
X130806758Y-93857964D01*
X130806760Y-93857966D01*
X130806762Y-93857966D01*
X130806764Y-93857967D01*
X130879821Y-93872499D01*
X130879824Y-93872500D01*
X130879826Y-93872500D01*
X131379176Y-93872500D01*
X131379177Y-93872499D01*
X131452240Y-93857966D01*
X131535101Y-93802601D01*
X131535100Y-93802601D01*
X131535610Y-93802261D01*
X131602287Y-93781383D01*
X131669667Y-93799868D01*
X131673390Y-93802261D01*
X131756756Y-93857964D01*
X131756758Y-93857964D01*
X131756760Y-93857966D01*
X131756762Y-93857966D01*
X131756764Y-93857967D01*
X131829821Y-93872499D01*
X131829824Y-93872500D01*
X131829826Y-93872500D01*
X132329176Y-93872500D01*
X132329177Y-93872499D01*
X132402240Y-93857966D01*
X132485101Y-93802601D01*
X132499278Y-93781383D01*
X132518504Y-93752610D01*
X132572116Y-93707804D01*
X132621606Y-93697500D01*
X133906307Y-93697500D01*
X133906309Y-93697500D01*
X133975046Y-93679081D01*
X133987575Y-93675725D01*
X134019668Y-93671500D01*
X134036255Y-93671500D01*
X134036260Y-93671500D01*
X134104393Y-93661573D01*
X134138539Y-93644879D01*
X134207410Y-93633119D01*
X134247459Y-93644878D01*
X134281607Y-93661573D01*
X134349740Y-93671500D01*
X134349745Y-93671500D01*
X134676261Y-93671500D01*
X134698971Y-93668191D01*
X134744393Y-93661573D01*
X134849483Y-93610198D01*
X134849483Y-93610197D01*
X134851731Y-93609099D01*
X134906191Y-93596500D01*
X135347434Y-93596500D01*
X135347436Y-93596500D01*
X135393684Y-93584107D01*
X135403458Y-93581489D01*
X135416617Y-93577962D01*
X135442938Y-93570910D01*
X135528562Y-93521475D01*
X135598475Y-93451562D01*
X136049039Y-93000997D01*
X147725830Y-93000997D01*
X147725830Y-93001002D01*
X147744473Y-93214094D01*
X147744473Y-93214098D01*
X147799834Y-93420709D01*
X147799838Y-93420718D01*
X147890238Y-93614582D01*
X147929620Y-93670825D01*
X147929621Y-93670826D01*
X148515352Y-93085094D01*
X148538792Y-93172571D01*
X148597311Y-93273930D01*
X148680070Y-93356689D01*
X148781429Y-93415208D01*
X148868905Y-93438647D01*
X148283172Y-94024378D01*
X148339417Y-94063761D01*
X148533281Y-94154161D01*
X148533290Y-94154165D01*
X148739903Y-94209526D01*
X148952998Y-94228170D01*
X148953002Y-94228170D01*
X149166094Y-94209526D01*
X149166098Y-94209526D01*
X149372709Y-94154165D01*
X149372718Y-94154161D01*
X149566584Y-94063760D01*
X149566588Y-94063758D01*
X149622826Y-94024379D01*
X149037095Y-93438647D01*
X149124571Y-93415208D01*
X149225930Y-93356689D01*
X149308689Y-93273930D01*
X149367208Y-93172571D01*
X149390647Y-93085094D01*
X149976379Y-93670826D01*
X150015758Y-93614588D01*
X150015760Y-93614584D01*
X150106161Y-93420718D01*
X150106165Y-93420709D01*
X150161526Y-93214098D01*
X150161526Y-93214094D01*
X150180170Y-93001002D01*
X150180170Y-93000997D01*
X150161526Y-92787905D01*
X150161526Y-92787901D01*
X150106165Y-92581290D01*
X150106161Y-92581281D01*
X150015761Y-92387417D01*
X149976377Y-92331172D01*
X149390647Y-92916904D01*
X149367208Y-92829429D01*
X149308689Y-92728070D01*
X149225930Y-92645311D01*
X149124571Y-92586792D01*
X149037095Y-92563352D01*
X149622826Y-91977621D01*
X149622825Y-91977620D01*
X149566582Y-91938238D01*
X149372718Y-91847838D01*
X149372709Y-91847834D01*
X149166096Y-91792473D01*
X148953002Y-91773830D01*
X148952998Y-91773830D01*
X148739905Y-91792473D01*
X148739901Y-91792473D01*
X148533290Y-91847834D01*
X148533281Y-91847837D01*
X148339412Y-91938241D01*
X148283172Y-91977619D01*
X148868905Y-92563352D01*
X148781429Y-92586792D01*
X148680070Y-92645311D01*
X148597311Y-92728070D01*
X148538792Y-92829429D01*
X148515352Y-92916905D01*
X147929619Y-92331172D01*
X147890241Y-92387412D01*
X147799837Y-92581281D01*
X147799834Y-92581290D01*
X147744473Y-92787901D01*
X147744473Y-92787905D01*
X147725830Y-93000997D01*
X136049039Y-93000997D01*
X136467217Y-92582818D01*
X136528540Y-92549334D01*
X136554898Y-92546500D01*
X137172676Y-92546500D01*
X137172677Y-92546499D01*
X137245740Y-92531966D01*
X137328601Y-92476601D01*
X137383966Y-92393740D01*
X137398500Y-92320674D01*
X137398500Y-92170500D01*
X137418185Y-92103461D01*
X137470989Y-92057706D01*
X137522500Y-92046500D01*
X138491394Y-92046500D01*
X138558433Y-92066185D01*
X138594496Y-92101610D01*
X138627897Y-92151599D01*
X138627898Y-92151599D01*
X138627899Y-92151601D01*
X138656184Y-92170500D01*
X138710760Y-92206966D01*
X138710764Y-92206967D01*
X138783821Y-92221499D01*
X138783824Y-92221500D01*
X138783826Y-92221500D01*
X139958176Y-92221500D01*
X139958177Y-92221499D01*
X140031240Y-92206966D01*
X140114101Y-92151601D01*
X140169466Y-92068740D01*
X140184000Y-91995674D01*
X140184000Y-91451983D01*
X140203685Y-91384944D01*
X140256489Y-91339189D01*
X140299156Y-91328299D01*
X140329670Y-91326117D01*
X140376851Y-91263091D01*
X140427097Y-91128376D01*
X140427098Y-91128372D01*
X140433499Y-91068844D01*
X140433500Y-91068827D01*
X140433500Y-90798465D01*
X140453185Y-90731426D01*
X140505989Y-90685671D01*
X140575147Y-90675727D01*
X140638703Y-90704752D01*
X140645181Y-90710784D01*
X141015886Y-91081489D01*
X141118613Y-91140799D01*
X141118619Y-91140800D01*
X141120923Y-91141755D01*
X141122576Y-91143087D01*
X141125652Y-91144863D01*
X141125375Y-91145342D01*
X141175328Y-91185594D01*
X141197395Y-91251888D01*
X141195091Y-91280509D01*
X141182000Y-91346321D01*
X141182000Y-91995678D01*
X141196532Y-92068735D01*
X141196533Y-92068739D01*
X141196534Y-92068740D01*
X141251899Y-92151601D01*
X141324486Y-92200101D01*
X141334760Y-92206966D01*
X141334764Y-92206967D01*
X141407821Y-92221499D01*
X141407824Y-92221500D01*
X141407826Y-92221500D01*
X142582176Y-92221500D01*
X142582177Y-92221499D01*
X142655240Y-92206966D01*
X142738101Y-92151601D01*
X142770267Y-92103461D01*
X142771504Y-92101610D01*
X142825116Y-92056804D01*
X142874606Y-92046500D01*
X143012435Y-92046500D01*
X143012436Y-92046500D01*
X143060186Y-92033705D01*
X143107938Y-92020910D01*
X143164744Y-91988112D01*
X143226744Y-91971500D01*
X143391985Y-91971500D01*
X143545365Y-91933696D01*
X143685240Y-91860283D01*
X143803483Y-91755530D01*
X143893220Y-91625523D01*
X143949237Y-91477818D01*
X143968278Y-91321000D01*
X143949237Y-91164182D01*
X143944747Y-91152344D01*
X143923291Y-91095767D01*
X143893220Y-91016477D01*
X143803483Y-90886470D01*
X143787714Y-90872500D01*
X143747731Y-90837078D01*
X143710605Y-90777888D01*
X143711373Y-90708023D01*
X143749791Y-90649663D01*
X143802225Y-90626410D01*
X143813000Y-90616961D01*
X143813000Y-90616959D01*
X144213000Y-90616959D01*
X144213001Y-90616960D01*
X144299627Y-90605557D01*
X144299633Y-90605555D01*
X144445585Y-90545100D01*
X144570924Y-90448924D01*
X144667100Y-90323586D01*
X144727555Y-90177631D01*
X144735012Y-90121000D01*
X144213000Y-90121000D01*
X144213000Y-90616959D01*
X143813000Y-90616959D01*
X143813000Y-90213617D01*
X143825598Y-90159159D01*
X143843573Y-90122393D01*
X143853500Y-90054260D01*
X143853500Y-89787740D01*
X143849791Y-89762281D01*
X143843776Y-89721000D01*
X144213000Y-89721000D01*
X144735010Y-89721000D01*
X144735011Y-89720998D01*
X144727557Y-89664372D01*
X144727555Y-89664366D01*
X144667100Y-89518414D01*
X144570924Y-89393075D01*
X144445586Y-89296899D01*
X144299631Y-89236444D01*
X144213000Y-89225038D01*
X144213000Y-89721000D01*
X143843776Y-89721000D01*
X143843574Y-89719611D01*
X143843573Y-89719609D01*
X143843573Y-89719607D01*
X143841983Y-89716354D01*
X143825599Y-89682838D01*
X143813000Y-89628380D01*
X143813000Y-89225038D01*
X143805173Y-89226069D01*
X143736138Y-89215304D01*
X143683882Y-89168924D01*
X143664988Y-89103130D01*
X143664988Y-87325270D01*
X143684673Y-87258231D01*
X143700334Y-87239955D01*
X143699997Y-87239656D01*
X143704965Y-87234046D01*
X143704971Y-87234041D01*
X143787895Y-87113903D01*
X143842176Y-87069915D01*
X143911625Y-87062255D01*
X143974190Y-87093358D01*
X143977625Y-87096664D01*
X146302436Y-89421475D01*
X146388062Y-89470911D01*
X146483563Y-89496500D01*
X146483564Y-89496500D01*
X148247941Y-89496500D01*
X148314980Y-89516185D01*
X148360735Y-89568989D01*
X148370679Y-89638147D01*
X148341654Y-89701703D01*
X148326605Y-89716354D01*
X148261655Y-89769655D01*
X148140066Y-89917814D01*
X148140061Y-89917820D01*
X148049716Y-90086845D01*
X147994078Y-90270256D01*
X147975292Y-90461000D01*
X147994078Y-90651743D01*
X148049716Y-90835154D01*
X148140061Y-91004179D01*
X148140066Y-91004185D01*
X148261655Y-91152344D01*
X148382952Y-91251888D01*
X148397521Y-91263845D01*
X148409814Y-91273933D01*
X148409820Y-91273938D01*
X148545250Y-91346326D01*
X148578847Y-91364284D01*
X148762259Y-91419922D01*
X148953000Y-91438708D01*
X149143741Y-91419922D01*
X149327153Y-91364284D01*
X149408133Y-91320999D01*
X149496179Y-91273938D01*
X149496181Y-91273935D01*
X149496185Y-91273934D01*
X149644344Y-91152344D01*
X149765934Y-91004185D01*
X149765935Y-91004181D01*
X149765938Y-91004179D01*
X149844090Y-90857966D01*
X149856284Y-90835153D01*
X149911922Y-90651741D01*
X149930708Y-90461000D01*
X149911922Y-90270259D01*
X149856284Y-90086847D01*
X149847112Y-90069687D01*
X149765938Y-89917820D01*
X149765933Y-89917814D01*
X149644344Y-89769655D01*
X149525204Y-89671881D01*
X149485869Y-89614135D01*
X149483998Y-89544291D01*
X149520185Y-89484522D01*
X149541861Y-89468644D01*
X149623562Y-89421475D01*
X149693475Y-89351562D01*
X150293474Y-88751563D01*
X150294130Y-88750427D01*
X150342910Y-88665938D01*
X150349887Y-88639899D01*
X150356292Y-88615999D01*
X150360760Y-88599321D01*
X150368500Y-88570436D01*
X150368500Y-88471564D01*
X150368500Y-86371565D01*
X150358953Y-86335937D01*
X150349117Y-86299226D01*
X150342910Y-86276062D01*
X150293475Y-86190438D01*
X150223562Y-86120525D01*
X149909281Y-85806244D01*
X149875796Y-85744921D01*
X149878301Y-85682568D01*
X149911922Y-85571741D01*
X149930708Y-85381000D01*
X149911922Y-85190259D01*
X149856284Y-85006847D01*
X149843880Y-84983640D01*
X149765938Y-84837820D01*
X149765933Y-84837814D01*
X149644344Y-84689655D01*
X149496185Y-84568066D01*
X149496179Y-84568061D01*
X149327154Y-84477716D01*
X149143743Y-84422078D01*
X148953000Y-84403292D01*
X148762256Y-84422078D01*
X148578845Y-84477716D01*
X148409820Y-84568061D01*
X148409814Y-84568066D01*
X148261655Y-84689655D01*
X148140066Y-84837814D01*
X148140061Y-84837820D01*
X148049716Y-85006845D01*
X147994078Y-85190256D01*
X147975292Y-85381000D01*
X147994078Y-85571743D01*
X148049716Y-85755154D01*
X148140061Y-85924179D01*
X148140066Y-85924185D01*
X148261655Y-86072344D01*
X148383245Y-86172128D01*
X148405551Y-86190435D01*
X148409814Y-86193933D01*
X148409820Y-86193938D01*
X148568400Y-86278700D01*
X148578847Y-86284284D01*
X148762259Y-86339922D01*
X148953000Y-86358708D01*
X149143741Y-86339922D01*
X149254568Y-86306301D01*
X149324433Y-86305677D01*
X149378244Y-86337281D01*
X149581181Y-86540218D01*
X149614666Y-86601541D01*
X149617500Y-86627899D01*
X149617500Y-86966028D01*
X149597815Y-87033067D01*
X149545011Y-87078822D01*
X149475853Y-87088766D01*
X149435047Y-87075386D01*
X149327154Y-87017716D01*
X149143743Y-86962078D01*
X148953000Y-86943292D01*
X148762260Y-86962077D01*
X148651430Y-86995697D01*
X148581563Y-86996320D01*
X148527754Y-86964717D01*
X146343563Y-84780526D01*
X146343562Y-84780525D01*
X146257938Y-84731090D01*
X146189336Y-84712708D01*
X146189335Y-84712707D01*
X146162436Y-84705500D01*
X146162435Y-84705500D01*
X145892500Y-84705500D01*
X145825461Y-84685815D01*
X145779706Y-84633011D01*
X145768500Y-84581500D01*
X145768500Y-83833045D01*
X145788185Y-83766006D01*
X145840989Y-83720251D01*
X145868307Y-83711428D01*
X145890740Y-83706966D01*
X145973601Y-83651601D01*
X146028966Y-83568740D01*
X146043500Y-83495674D01*
X146043500Y-83470125D01*
X146063185Y-83403086D01*
X146093189Y-83370858D01*
X146150189Y-83328187D01*
X146150190Y-83328186D01*
X146236352Y-83213088D01*
X146236354Y-83213086D01*
X146286596Y-83078379D01*
X146286598Y-83078372D01*
X146292999Y-83018844D01*
X146293000Y-83018827D01*
X146293000Y-82971000D01*
X145982183Y-82971000D01*
X145915144Y-82951315D01*
X145913294Y-82950103D01*
X145880586Y-82928249D01*
X145881409Y-82927016D01*
X145837610Y-82891722D01*
X145820727Y-82841000D01*
X147975292Y-82841000D01*
X147994078Y-83031743D01*
X148049716Y-83215154D01*
X148140061Y-83384179D01*
X148140066Y-83384185D01*
X148261655Y-83532344D01*
X148409814Y-83653933D01*
X148409820Y-83653938D01*
X148536221Y-83721500D01*
X148578847Y-83744284D01*
X148762259Y-83799922D01*
X148953000Y-83818708D01*
X149143741Y-83799922D01*
X149327153Y-83744284D01*
X149427102Y-83690860D01*
X149496179Y-83653938D01*
X149496181Y-83653935D01*
X149496185Y-83653934D01*
X149644344Y-83532344D01*
X149765934Y-83384185D01*
X149765935Y-83384181D01*
X149765938Y-83384179D01*
X149841004Y-83243739D01*
X149856284Y-83215153D01*
X149911922Y-83031741D01*
X149930708Y-82841000D01*
X149911922Y-82650259D01*
X149856284Y-82466847D01*
X149824353Y-82407108D01*
X149765938Y-82297820D01*
X149765933Y-82297814D01*
X149644344Y-82149655D01*
X149496185Y-82028066D01*
X149496179Y-82028061D01*
X149327154Y-81937716D01*
X149143743Y-81882078D01*
X148953000Y-81863292D01*
X148762256Y-81882078D01*
X148578845Y-81937716D01*
X148409820Y-82028061D01*
X148409814Y-82028066D01*
X148261655Y-82149655D01*
X148140066Y-82297814D01*
X148140061Y-82297820D01*
X148049716Y-82466845D01*
X147994078Y-82650256D01*
X147975292Y-82841000D01*
X145820727Y-82841000D01*
X145815544Y-82825429D01*
X145832822Y-82757729D01*
X145883958Y-82710117D01*
X145892042Y-82706427D01*
X145893250Y-82705927D01*
X145940673Y-82696500D01*
X146102435Y-82696500D01*
X146102436Y-82696500D01*
X146150186Y-82683705D01*
X146181839Y-82675223D01*
X146213927Y-82671000D01*
X146293000Y-82671000D01*
X146293000Y-82663399D01*
X146312685Y-82596360D01*
X146329321Y-82575716D01*
X146353477Y-82551561D01*
X146733948Y-82171089D01*
X146873474Y-82031563D01*
X146891397Y-82000520D01*
X146922910Y-81945938D01*
X146943141Y-81870435D01*
X146948500Y-81850436D01*
X146948500Y-81751564D01*
X146948500Y-81229709D01*
X146968185Y-81162670D01*
X146990742Y-81136480D01*
X147013000Y-81116960D01*
X147013000Y-80713617D01*
X147025598Y-80659159D01*
X147043573Y-80622393D01*
X147053500Y-80554260D01*
X147053500Y-80287740D01*
X147043573Y-80219607D01*
X147042203Y-80216804D01*
X147025599Y-80182838D01*
X147013000Y-80128380D01*
X147013000Y-79713617D01*
X147025598Y-79659159D01*
X147043573Y-79622393D01*
X147043776Y-79621000D01*
X147413000Y-79621000D01*
X147413000Y-81116959D01*
X147413001Y-81116960D01*
X147499627Y-81105557D01*
X147499633Y-81105555D01*
X147645585Y-81045100D01*
X147770924Y-80948924D01*
X147867098Y-80823588D01*
X147881138Y-80789693D01*
X147924978Y-80735289D01*
X147991272Y-80713223D01*
X148058971Y-80730501D01*
X148105058Y-80778691D01*
X148140062Y-80844179D01*
X148140066Y-80844185D01*
X148261655Y-80992344D01*
X148409814Y-81113933D01*
X148409820Y-81113938D01*
X148578845Y-81204283D01*
X148578847Y-81204284D01*
X148762259Y-81259922D01*
X148953000Y-81278708D01*
X149143741Y-81259922D01*
X149327153Y-81204284D01*
X149405007Y-81162670D01*
X149496179Y-81113938D01*
X149496181Y-81113935D01*
X149496185Y-81113934D01*
X149644344Y-80992344D01*
X149765934Y-80844185D01*
X149765935Y-80844181D01*
X149765938Y-80844179D01*
X149856283Y-80675154D01*
X149856284Y-80675153D01*
X149911922Y-80491741D01*
X149930708Y-80301000D01*
X149911922Y-80110259D01*
X149856284Y-79926847D01*
X149856283Y-79926845D01*
X149765938Y-79757820D01*
X149765933Y-79757814D01*
X149644344Y-79609655D01*
X149496185Y-79488066D01*
X149496179Y-79488061D01*
X149327154Y-79397716D01*
X149143743Y-79342078D01*
X148953000Y-79323292D01*
X148762256Y-79342078D01*
X148578845Y-79397716D01*
X148409820Y-79488061D01*
X148409814Y-79488066D01*
X148261655Y-79609656D01*
X148149848Y-79745894D01*
X148092103Y-79785228D01*
X148022258Y-79787099D01*
X147962490Y-79750912D01*
X147931774Y-79688156D01*
X147931056Y-79651042D01*
X147935012Y-79621000D01*
X147413000Y-79621000D01*
X147043776Y-79621000D01*
X147053500Y-79554260D01*
X147053500Y-79287740D01*
X147043776Y-79221000D01*
X147413000Y-79221000D01*
X147935010Y-79221000D01*
X147935011Y-79220998D01*
X147927557Y-79164372D01*
X147927555Y-79164366D01*
X147867100Y-79018414D01*
X147770924Y-78893075D01*
X147645586Y-78796899D01*
X147499631Y-78736444D01*
X147413000Y-78725038D01*
X147413000Y-79221000D01*
X147043776Y-79221000D01*
X147043573Y-79219607D01*
X147040442Y-79213202D01*
X147025599Y-79182838D01*
X147013000Y-79128380D01*
X147013000Y-78725038D01*
X146926369Y-78736444D01*
X146926365Y-78736445D01*
X146780413Y-78796899D01*
X146655075Y-78893075D01*
X146632891Y-78921987D01*
X146576463Y-78963189D01*
X146534515Y-78970500D01*
X146409739Y-78970500D01*
X146341608Y-78980426D01*
X146236514Y-79031803D01*
X146153803Y-79114514D01*
X146102426Y-79219608D01*
X146092500Y-79287739D01*
X146092500Y-79554260D01*
X146102426Y-79622391D01*
X146102427Y-79622393D01*
X146153802Y-79727483D01*
X146153803Y-79727484D01*
X146161178Y-79734859D01*
X146194665Y-79796181D01*
X146197500Y-79822543D01*
X146197500Y-80019456D01*
X146177815Y-80086495D01*
X146161181Y-80107137D01*
X146153803Y-80114514D01*
X146102426Y-80219608D01*
X146092500Y-80287739D01*
X146092500Y-80554260D01*
X146102426Y-80622391D01*
X146102427Y-80622393D01*
X146153802Y-80727483D01*
X146153803Y-80727484D01*
X146161178Y-80734859D01*
X146194665Y-80796181D01*
X146197500Y-80822543D01*
X146197500Y-81416714D01*
X146177815Y-81483753D01*
X146125011Y-81529508D01*
X146055853Y-81539452D01*
X145992297Y-81510427D01*
X145982241Y-81499030D01*
X145982237Y-81499035D01*
X145973603Y-81490401D01*
X145973601Y-81490400D01*
X145973601Y-81490399D01*
X145890740Y-81435034D01*
X145890739Y-81435033D01*
X145890737Y-81435032D01*
X145868307Y-81430571D01*
X145806397Y-81398185D01*
X145771823Y-81337469D01*
X145768500Y-81308954D01*
X145768500Y-79671565D01*
X145762965Y-79650911D01*
X145762964Y-79650906D01*
X145755324Y-79622392D01*
X145742911Y-79576064D01*
X145742910Y-79576063D01*
X145742910Y-79576062D01*
X145693475Y-79490438D01*
X145623562Y-79420525D01*
X143964037Y-77761000D01*
X147975292Y-77761000D01*
X147994078Y-77951743D01*
X148049716Y-78135154D01*
X148140061Y-78304179D01*
X148140066Y-78304185D01*
X148261655Y-78452344D01*
X148409814Y-78573933D01*
X148409820Y-78573938D01*
X148569792Y-78659444D01*
X148578847Y-78664284D01*
X148762259Y-78719922D01*
X148953000Y-78738708D01*
X149143741Y-78719922D01*
X149327153Y-78664284D01*
X149389676Y-78630864D01*
X149496179Y-78573938D01*
X149496181Y-78573935D01*
X149496185Y-78573934D01*
X149644344Y-78452344D01*
X149765934Y-78304185D01*
X149765935Y-78304181D01*
X149765938Y-78304179D01*
X149842897Y-78160198D01*
X149856284Y-78135153D01*
X149911922Y-77951741D01*
X149930708Y-77761000D01*
X149911922Y-77570259D01*
X149856284Y-77386847D01*
X149853587Y-77381802D01*
X149765938Y-77217820D01*
X149765933Y-77217814D01*
X149644344Y-77069655D01*
X149496185Y-76948066D01*
X149496179Y-76948061D01*
X149327154Y-76857716D01*
X149143743Y-76802078D01*
X148953000Y-76783292D01*
X148762256Y-76802078D01*
X148578845Y-76857716D01*
X148409820Y-76948061D01*
X148409814Y-76948066D01*
X148261655Y-77069655D01*
X148140066Y-77217814D01*
X148140061Y-77217820D01*
X148049716Y-77386845D01*
X147994078Y-77570256D01*
X147975292Y-77761000D01*
X143964037Y-77761000D01*
X143023563Y-76820526D01*
X143000545Y-76797508D01*
X143000542Y-76797504D01*
X143000542Y-76797505D01*
X142993475Y-76790438D01*
X142993475Y-76790437D01*
X142923563Y-76720525D01*
X142923562Y-76720524D01*
X142919232Y-76716194D01*
X142919221Y-76716184D01*
X142277517Y-76074480D01*
X142244032Y-76013157D01*
X142242102Y-75971857D01*
X142248278Y-75921000D01*
X142229237Y-75764182D01*
X142173220Y-75616477D01*
X142083483Y-75486470D01*
X141965240Y-75381717D01*
X141965238Y-75381716D01*
X141965237Y-75381715D01*
X141825365Y-75308303D01*
X141671986Y-75270500D01*
X141671985Y-75270500D01*
X141514015Y-75270500D01*
X141514014Y-75270500D01*
X141360634Y-75308303D01*
X141220762Y-75381715D01*
X141102516Y-75486471D01*
X141012781Y-75616475D01*
X141012780Y-75616476D01*
X140956762Y-75764181D01*
X140937722Y-75920999D01*
X140937722Y-75921000D01*
X140956762Y-76077818D01*
X141002373Y-76198083D01*
X141012780Y-76225523D01*
X141102517Y-76355530D01*
X141220760Y-76460283D01*
X141220762Y-76460284D01*
X141360634Y-76533696D01*
X141514014Y-76571500D01*
X141661101Y-76571500D01*
X141728140Y-76591185D01*
X141748782Y-76607819D01*
X142074281Y-76933318D01*
X142107766Y-76994641D01*
X142102782Y-77064333D01*
X142074282Y-77108678D01*
X141848780Y-77334182D01*
X141787460Y-77367666D01*
X141761101Y-77370500D01*
X141549739Y-77370500D01*
X141481608Y-77380426D01*
X141451806Y-77394995D01*
X141382933Y-77406752D01*
X141318636Y-77379408D01*
X141309676Y-77371283D01*
X141238913Y-77300520D01*
X141238912Y-77300519D01*
X141234582Y-77296189D01*
X141234571Y-77296179D01*
X141181346Y-77242954D01*
X141147861Y-77181631D01*
X141145931Y-77140325D01*
X141148278Y-77121000D01*
X141129237Y-76964182D01*
X141073220Y-76816477D01*
X140983483Y-76686470D01*
X140865240Y-76581717D01*
X140865238Y-76581716D01*
X140865237Y-76581715D01*
X140725365Y-76508303D01*
X140571986Y-76470500D01*
X140571985Y-76470500D01*
X140414015Y-76470500D01*
X140414014Y-76470500D01*
X140260634Y-76508303D01*
X140120762Y-76581715D01*
X140002516Y-76686471D01*
X139912781Y-76816475D01*
X139912780Y-76816476D01*
X139856762Y-76964181D01*
X139837722Y-77120999D01*
X139837722Y-77121000D01*
X139856762Y-77277818D01*
X139898111Y-77386845D01*
X139912780Y-77425523D01*
X140002517Y-77555530D01*
X140120760Y-77660283D01*
X140120762Y-77660284D01*
X140260634Y-77733696D01*
X140414014Y-77771500D01*
X140468500Y-77771500D01*
X140535539Y-77791185D01*
X140581294Y-77843989D01*
X140592500Y-77895500D01*
X140592500Y-81873726D01*
X140619793Y-81975589D01*
X140646156Y-82021250D01*
X140672520Y-82066913D01*
X140907624Y-82302017D01*
X141133926Y-82528318D01*
X141167411Y-82589641D01*
X141162427Y-82659332D01*
X141133927Y-82703680D01*
X140972519Y-82865088D01*
X140922736Y-82951315D01*
X140919793Y-82956412D01*
X140909273Y-82995674D01*
X140909273Y-82995675D01*
X140909272Y-82995674D01*
X140892500Y-83058271D01*
X140892500Y-83058273D01*
X140892500Y-84869157D01*
X140892500Y-84974611D01*
X140906146Y-85025541D01*
X140919793Y-85076473D01*
X140925552Y-85086447D01*
X140972520Y-85167797D01*
X141370908Y-85566185D01*
X141767295Y-85962571D01*
X141767316Y-85962594D01*
X141846198Y-86041476D01*
X141846200Y-86041477D01*
X141846203Y-86041480D01*
X141848888Y-86043030D01*
X141851079Y-86045221D01*
X141852647Y-86046424D01*
X141852488Y-86046630D01*
X141894279Y-86088418D01*
X141932511Y-86154637D01*
X141932513Y-86154639D01*
X142526440Y-86748567D01*
X142559925Y-86809890D01*
X142561855Y-86821301D01*
X142578251Y-86956330D01*
X142601532Y-87017716D01*
X142634268Y-87104034D01*
X142651722Y-87129320D01*
X142724006Y-87234043D01*
X142728979Y-87239656D01*
X142727532Y-87240937D01*
X142759338Y-87291631D01*
X142763988Y-87325270D01*
X142763988Y-89105570D01*
X142744303Y-89172609D01*
X142691499Y-89218364D01*
X142622341Y-89228308D01*
X142615798Y-89227188D01*
X142582174Y-89220500D01*
X142504500Y-89220500D01*
X142437461Y-89200815D01*
X142391706Y-89148011D01*
X142380500Y-89096500D01*
X142380500Y-88383565D01*
X142380005Y-88381717D01*
X142375267Y-88364037D01*
X142373091Y-88355914D01*
X142362413Y-88316062D01*
X142362413Y-88316061D01*
X142356810Y-88295153D01*
X142354910Y-88288062D01*
X142305475Y-88202438D01*
X142235562Y-88132525D01*
X139377517Y-85274480D01*
X139344032Y-85213157D01*
X139342102Y-85171857D01*
X139348278Y-85121000D01*
X139329237Y-84964182D01*
X139273220Y-84816477D01*
X139183483Y-84686470D01*
X139065240Y-84581717D01*
X139065238Y-84581716D01*
X139065237Y-84581715D01*
X138925365Y-84508303D01*
X138771986Y-84470500D01*
X138771985Y-84470500D01*
X138614015Y-84470500D01*
X138614014Y-84470500D01*
X138460634Y-84508303D01*
X138345126Y-84568928D01*
X138276618Y-84582654D01*
X138211565Y-84557162D01*
X138170620Y-84500546D01*
X138163500Y-84459132D01*
X138163500Y-79012087D01*
X138182506Y-78946115D01*
X138193456Y-78928690D01*
X138249313Y-78769059D01*
X138260819Y-78666943D01*
X138268249Y-78601002D01*
X138268249Y-78600997D01*
X138249314Y-78432943D01*
X138208560Y-78316475D01*
X138193456Y-78273310D01*
X138193455Y-78273309D01*
X138193454Y-78273305D01*
X138193452Y-78273302D01*
X138103481Y-78130115D01*
X138103476Y-78130109D01*
X137983890Y-78010523D01*
X137983884Y-78010518D01*
X137840697Y-77920547D01*
X137840694Y-77920545D01*
X137681056Y-77864685D01*
X137513003Y-77845751D01*
X137512997Y-77845751D01*
X137344942Y-77864686D01*
X137213454Y-77910695D01*
X137143675Y-77914256D01*
X137083048Y-77879527D01*
X137050821Y-77817533D01*
X137048500Y-77793653D01*
X137048500Y-76549920D01*
X137068185Y-76482881D01*
X137084819Y-76462239D01*
X138326058Y-75221000D01*
X147975292Y-75221000D01*
X147994078Y-75411743D01*
X148049716Y-75595154D01*
X148140061Y-75764179D01*
X148140066Y-75764185D01*
X148261655Y-75912344D01*
X148409814Y-76033933D01*
X148409820Y-76033938D01*
X148578845Y-76124283D01*
X148578847Y-76124284D01*
X148762259Y-76179922D01*
X148953000Y-76198708D01*
X149143741Y-76179922D01*
X149327153Y-76124284D01*
X149389676Y-76090864D01*
X149496179Y-76033938D01*
X149496181Y-76033935D01*
X149496185Y-76033934D01*
X149644344Y-75912344D01*
X149765934Y-75764185D01*
X149765935Y-75764181D01*
X149765938Y-75764179D01*
X149844886Y-75616477D01*
X149856284Y-75595153D01*
X149911922Y-75411741D01*
X149930708Y-75221000D01*
X149911922Y-75030259D01*
X149856284Y-74846847D01*
X149815743Y-74771000D01*
X149765938Y-74677820D01*
X149765933Y-74677814D01*
X149644344Y-74529655D01*
X149496185Y-74408066D01*
X149496179Y-74408061D01*
X149327154Y-74317716D01*
X149143743Y-74262078D01*
X148953000Y-74243292D01*
X148762256Y-74262078D01*
X148578845Y-74317716D01*
X148409820Y-74408061D01*
X148409814Y-74408066D01*
X148261655Y-74529655D01*
X148140066Y-74677814D01*
X148140061Y-74677820D01*
X148049716Y-74846845D01*
X147994078Y-75030256D01*
X147975292Y-75221000D01*
X138326058Y-75221000D01*
X140460272Y-73086786D01*
X143893475Y-69653584D01*
X143920372Y-69606996D01*
X143942910Y-69567959D01*
X143955705Y-69520207D01*
X143968500Y-69472457D01*
X143968500Y-69373585D01*
X143968500Y-67484124D01*
X143981850Y-67434300D01*
X143979799Y-67433451D01*
X143982906Y-67425944D01*
X143982911Y-67425937D01*
X144008500Y-67330436D01*
X144008500Y-67261751D01*
X144028185Y-67194712D01*
X144080989Y-67148957D01*
X144150147Y-67139013D01*
X144196651Y-67155635D01*
X144243602Y-67184018D01*
X144243603Y-67184019D01*
X144405894Y-67234590D01*
X144405893Y-67234590D01*
X144476427Y-67240999D01*
X144989581Y-67240999D01*
X145060102Y-67234591D01*
X145060107Y-67234590D01*
X145222396Y-67184018D01*
X145367877Y-67096072D01*
X145488072Y-66975877D01*
X145576019Y-66830395D01*
X145609950Y-66721505D01*
X145609950Y-66721503D01*
X144467128Y-65578681D01*
X144433643Y-65517358D01*
X144435528Y-65490999D01*
X145086553Y-65490999D01*
X145086553Y-65491000D01*
X145632998Y-66037446D01*
X145632999Y-66037445D01*
X145632999Y-64944553D01*
X145632998Y-64944552D01*
X145086553Y-65490999D01*
X144435528Y-65490999D01*
X144438627Y-65447666D01*
X144467128Y-65403319D01*
X144733000Y-65137447D01*
X145609950Y-64260495D01*
X145609950Y-64260493D01*
X145576020Y-64151606D01*
X145576018Y-64151603D01*
X145488072Y-64006122D01*
X145367877Y-63885927D01*
X145222395Y-63797980D01*
X145222396Y-63797980D01*
X145060105Y-63747409D01*
X145060106Y-63747409D01*
X144989572Y-63741000D01*
X144476417Y-63741000D01*
X144405897Y-63747408D01*
X144405892Y-63747409D01*
X144243603Y-63797981D01*
X144098124Y-63885926D01*
X144025536Y-63958514D01*
X143964212Y-63991998D01*
X143925405Y-63991996D01*
X143925212Y-63994058D01*
X143887270Y-63990500D01*
X143887266Y-63990500D01*
X143378734Y-63990500D01*
X143378730Y-63990500D01*
X143348300Y-63993353D01*
X143348299Y-63993353D01*
X143275353Y-64018878D01*
X143205574Y-64022439D01*
X143144947Y-63987709D01*
X143119839Y-63949290D01*
X143109465Y-63924245D01*
X143038277Y-63817703D01*
X143038275Y-63817701D01*
X143038273Y-63817698D01*
X142543756Y-63323181D01*
X142510271Y-63261858D01*
X142515255Y-63192166D01*
X142557127Y-63136233D01*
X142622591Y-63111816D01*
X142631437Y-63111500D01*
X145752963Y-63111500D01*
X145752964Y-63111500D01*
X145800714Y-63098705D01*
X145848466Y-63085910D01*
X145934090Y-63036475D01*
X146004003Y-62966562D01*
X150848474Y-58122091D01*
X150848475Y-58122090D01*
X150897910Y-58036466D01*
X150910705Y-57988714D01*
X150923500Y-57940964D01*
X150923500Y-57842092D01*
X150923500Y-48756565D01*
X150920693Y-48746089D01*
X150897911Y-48661063D01*
X150848475Y-48575438D01*
X148777769Y-46504732D01*
X148744284Y-46443409D01*
X148742230Y-46403167D01*
X148744158Y-46386062D01*
X148758249Y-46261000D01*
X148757523Y-46254553D01*
X148739314Y-46092943D01*
X148683454Y-45933305D01*
X148683452Y-45933302D01*
X148593481Y-45790115D01*
X148593476Y-45790109D01*
X148517048Y-45713681D01*
X148483563Y-45652358D01*
X148488547Y-45582666D01*
X148517048Y-45538319D01*
X148593477Y-45461890D01*
X148634064Y-45397297D01*
X148683452Y-45318697D01*
X148683454Y-45318694D01*
X148683454Y-45318692D01*
X148683456Y-45318690D01*
X148739313Y-45159059D01*
X148739313Y-45159058D01*
X148739314Y-45159056D01*
X148758249Y-44991002D01*
X148758249Y-44990997D01*
X148739314Y-44822945D01*
X148739312Y-44822938D01*
X148726548Y-44786462D01*
X148722986Y-44716687D01*
X148757715Y-44656059D01*
X148769279Y-44646243D01*
X148860191Y-44578186D01*
X148946350Y-44463093D01*
X148946354Y-44463086D01*
X148996596Y-44328379D01*
X148996598Y-44328372D01*
X149002999Y-44268844D01*
X149003000Y-44268827D01*
X149003000Y-43971000D01*
X148212618Y-43971000D01*
X148263064Y-43920554D01*
X148305851Y-43846445D01*
X148328000Y-43763787D01*
X148328000Y-43678213D01*
X148305851Y-43595555D01*
X148263064Y-43521446D01*
X148212618Y-43471000D01*
X148253000Y-43471000D01*
X149003000Y-43471000D01*
X149003000Y-43173172D01*
X149002999Y-43173155D01*
X148996598Y-43113627D01*
X148996596Y-43113620D01*
X148946354Y-42978913D01*
X148946350Y-42978906D01*
X148860190Y-42863812D01*
X148860187Y-42863809D01*
X148745093Y-42777649D01*
X148745086Y-42777645D01*
X148610379Y-42727403D01*
X148610372Y-42727401D01*
X148550844Y-42721000D01*
X148253000Y-42721000D01*
X148253000Y-43471000D01*
X148212618Y-43471000D01*
X148202554Y-43460936D01*
X148128445Y-43418149D01*
X148045787Y-43396000D01*
X147960213Y-43396000D01*
X147877555Y-43418149D01*
X147803446Y-43460936D01*
X147742936Y-43521446D01*
X147700149Y-43595555D01*
X147678000Y-43678213D01*
X147678000Y-43763787D01*
X147700149Y-43846445D01*
X147742936Y-43920554D01*
X147793382Y-43971000D01*
X147003000Y-43971000D01*
X147003000Y-44268844D01*
X147009401Y-44328372D01*
X147009403Y-44328379D01*
X147059645Y-44463086D01*
X147059649Y-44463093D01*
X147145809Y-44578187D01*
X147236720Y-44646244D01*
X147278590Y-44702178D01*
X147283574Y-44771870D01*
X147279450Y-44786463D01*
X147266687Y-44822938D01*
X147266685Y-44822945D01*
X147247751Y-44990997D01*
X147247751Y-44991004D01*
X147263768Y-45133167D01*
X147251713Y-45201989D01*
X147228229Y-45234731D01*
X144612438Y-47850525D01*
X144542526Y-47920436D01*
X144493091Y-48006059D01*
X144493091Y-48006060D01*
X144493090Y-48006062D01*
X144467500Y-48101565D01*
X144467500Y-48101567D01*
X144467500Y-50424100D01*
X144447815Y-50491139D01*
X144431184Y-50511777D01*
X144370143Y-50572819D01*
X144323893Y-50619069D01*
X144304709Y-50629543D01*
X144298535Y-50643729D01*
X144291069Y-50651893D01*
X144073782Y-50869181D01*
X144012459Y-50902666D01*
X143986101Y-50905500D01*
X141578898Y-50905500D01*
X141511859Y-50885815D01*
X141466104Y-50833011D01*
X141456160Y-50763853D01*
X141485185Y-50700297D01*
X141491217Y-50693819D01*
X141612217Y-50572819D01*
X141673540Y-50539334D01*
X141699898Y-50536500D01*
X143953002Y-50536500D01*
X143953003Y-50536499D01*
X144050776Y-50517051D01*
X144133666Y-50461666D01*
X144189051Y-50378776D01*
X144208500Y-50281000D01*
X144208500Y-49861000D01*
X144208500Y-49860997D01*
X144190437Y-49770192D01*
X144190437Y-49721808D01*
X144208500Y-49631002D01*
X144208500Y-49210997D01*
X144190437Y-49120192D01*
X144190437Y-49071808D01*
X144208500Y-48981002D01*
X144208500Y-48560997D01*
X144190437Y-48470192D01*
X144190437Y-48421808D01*
X144208500Y-48331002D01*
X144208500Y-47910997D01*
X144208499Y-47910995D01*
X144189052Y-47813228D01*
X144189051Y-47813227D01*
X144189051Y-47813224D01*
X144133666Y-47730334D01*
X144133665Y-47730333D01*
X144050778Y-47674950D01*
X144050771Y-47674947D01*
X143953003Y-47655500D01*
X143953000Y-47655500D01*
X141703000Y-47655500D01*
X141702997Y-47655500D01*
X141605228Y-47674947D01*
X141605221Y-47674950D01*
X141522334Y-47730333D01*
X141522333Y-47730334D01*
X141466950Y-47813221D01*
X141466947Y-47813228D01*
X141447500Y-47910995D01*
X141447500Y-47945819D01*
X141427815Y-48012858D01*
X141375011Y-48058613D01*
X141305853Y-48068557D01*
X141242297Y-48039532D01*
X141204523Y-47980754D01*
X141200797Y-47963705D01*
X141193433Y-47913160D01*
X141189012Y-47904117D01*
X141141323Y-47806569D01*
X141057430Y-47722676D01*
X140950842Y-47670567D01*
X140933565Y-47668050D01*
X140881742Y-47660500D01*
X140324258Y-47660500D01*
X140278192Y-47667211D01*
X140255157Y-47670567D01*
X140139340Y-47727189D01*
X140138739Y-47725959D01*
X140082933Y-47745352D01*
X140076880Y-47745500D01*
X139523564Y-47745500D01*
X139475812Y-47758295D01*
X139475811Y-47758294D01*
X139428063Y-47771089D01*
X139428062Y-47771089D01*
X139342435Y-47820527D01*
X139328782Y-47834181D01*
X139267459Y-47867666D01*
X139241101Y-47870500D01*
X139209739Y-47870500D01*
X139141607Y-47880426D01*
X139141606Y-47880426D01*
X139117198Y-47892359D01*
X139048325Y-47904117D01*
X138984028Y-47876773D01*
X138960690Y-47851399D01*
X138943483Y-47826470D01*
X138825240Y-47721717D01*
X138825238Y-47721716D01*
X138825237Y-47721715D01*
X138685365Y-47648303D01*
X138531986Y-47610500D01*
X138531985Y-47610500D01*
X138374015Y-47610500D01*
X138374014Y-47610500D01*
X138220634Y-47648303D01*
X138080761Y-47721715D01*
X138080759Y-47721716D01*
X137974726Y-47815653D01*
X137911493Y-47845374D01*
X137842230Y-47836190D01*
X137788927Y-47791017D01*
X137768507Y-47724198D01*
X137768500Y-47722837D01*
X137768500Y-46737898D01*
X137788185Y-46670859D01*
X137804814Y-46650222D01*
X140787273Y-43667762D01*
X140848594Y-43634279D01*
X140918286Y-43639263D01*
X140922378Y-43640873D01*
X140996795Y-43671698D01*
X141146615Y-43701499D01*
X141146619Y-43701500D01*
X141146620Y-43701500D01*
X141299381Y-43701500D01*
X141299382Y-43701499D01*
X141449205Y-43671698D01*
X141590337Y-43613239D01*
X141717352Y-43528370D01*
X141724276Y-43521446D01*
X141770319Y-43475404D01*
X141831642Y-43441919D01*
X141901334Y-43446903D01*
X141945681Y-43475404D01*
X141998644Y-43528367D01*
X141998648Y-43528370D01*
X142125656Y-43613235D01*
X142125662Y-43613238D01*
X142125663Y-43613239D01*
X142266795Y-43671698D01*
X142416615Y-43701499D01*
X142416619Y-43701500D01*
X142416620Y-43701500D01*
X142569381Y-43701500D01*
X142569381Y-43701499D01*
X142694298Y-43676652D01*
X142763889Y-43682879D01*
X142817755Y-43723958D01*
X142880809Y-43808187D01*
X142880812Y-43808190D01*
X142995906Y-43894350D01*
X142995913Y-43894354D01*
X143130620Y-43944596D01*
X143130627Y-43944598D01*
X143190155Y-43950999D01*
X143190172Y-43951000D01*
X143513000Y-43951000D01*
X143513000Y-42981330D01*
X143532745Y-43001075D01*
X143618255Y-43050444D01*
X143713630Y-43076000D01*
X143812370Y-43076000D01*
X143907745Y-43050444D01*
X143993255Y-43001075D01*
X144013000Y-42981330D01*
X144013000Y-43951000D01*
X144335828Y-43951000D01*
X144335844Y-43950999D01*
X144395372Y-43944598D01*
X144395379Y-43944596D01*
X144530086Y-43894354D01*
X144530093Y-43894350D01*
X144645187Y-43808190D01*
X144645190Y-43808187D01*
X144731350Y-43693093D01*
X144731354Y-43693086D01*
X144781596Y-43558379D01*
X144781598Y-43558372D01*
X144787999Y-43498844D01*
X144788000Y-43498827D01*
X144788000Y-43173155D01*
X147003000Y-43173155D01*
X147003000Y-43471000D01*
X147753000Y-43471000D01*
X147753000Y-42721000D01*
X147455155Y-42721000D01*
X147395627Y-42727401D01*
X147395620Y-42727403D01*
X147260913Y-42777645D01*
X147260906Y-42777649D01*
X147145812Y-42863809D01*
X147145809Y-42863812D01*
X147059649Y-42978906D01*
X147059645Y-42978913D01*
X147009403Y-43113620D01*
X147009401Y-43113627D01*
X147003000Y-43173155D01*
X144788000Y-43173155D01*
X144788000Y-42951000D01*
X144043330Y-42951000D01*
X144063075Y-42931255D01*
X144112444Y-42845745D01*
X144138000Y-42750370D01*
X144138000Y-42651630D01*
X144112444Y-42556255D01*
X144063075Y-42470745D01*
X144043330Y-42451000D01*
X144788000Y-42451000D01*
X144788000Y-41903172D01*
X144787999Y-41903155D01*
X144781598Y-41843627D01*
X144781596Y-41843620D01*
X144731354Y-41708913D01*
X144731350Y-41708906D01*
X144645190Y-41593812D01*
X144645187Y-41593809D01*
X144530093Y-41507649D01*
X144530086Y-41507645D01*
X144395379Y-41457403D01*
X144395372Y-41457401D01*
X144335844Y-41451000D01*
X144013000Y-41451000D01*
X144013000Y-42420670D01*
X143993255Y-42400925D01*
X143907745Y-42351556D01*
X143812370Y-42326000D01*
X143713630Y-42326000D01*
X143618255Y-42351556D01*
X143532745Y-42400925D01*
X143513000Y-42420670D01*
X143513000Y-41451000D01*
X143190155Y-41451000D01*
X143130627Y-41457401D01*
X143130619Y-41457403D01*
X143035833Y-41492756D01*
X142966141Y-41497740D01*
X142904818Y-41464254D01*
X142871334Y-41402931D01*
X142868500Y-41376574D01*
X142868500Y-41021566D01*
X142868500Y-41021565D01*
X142868500Y-41021564D01*
X142842911Y-40926063D01*
X142793475Y-40840437D01*
X140540547Y-38587510D01*
X140507063Y-38526188D01*
X140512047Y-38456496D01*
X140553919Y-38400563D01*
X140619383Y-38376146D01*
X140627787Y-38375832D01*
X142279590Y-38370396D01*
X142279626Y-38370396D01*
X142279872Y-38370467D01*
X142279872Y-38370395D01*
X151049943Y-38359190D01*
X151117006Y-38378789D01*
G37*
%TD.AperFunction*%
%TA.AperFunction,Conductor*%
G36*
X139340730Y-90341185D02*
G01*
X139361372Y-90357819D01*
X139371000Y-90367447D01*
X139912371Y-90908819D01*
X139945856Y-90970142D01*
X139940872Y-91039834D01*
X139899000Y-91095767D01*
X139833536Y-91120184D01*
X139824690Y-91120500D01*
X139468309Y-91120500D01*
X139401270Y-91100815D01*
X139380628Y-91084181D01*
X138829628Y-90533181D01*
X138796143Y-90471858D01*
X138801127Y-90402166D01*
X138842999Y-90346233D01*
X138908463Y-90321816D01*
X138917309Y-90321500D01*
X139273691Y-90321500D01*
X139340730Y-90341185D01*
G37*
%TD.AperFunction*%
%TA.AperFunction,Conductor*%
G36*
X139865521Y-70583776D02*
G01*
X139960634Y-70633696D01*
X140114014Y-70671500D01*
X140114015Y-70671500D01*
X140271985Y-70671500D01*
X140425365Y-70633696D01*
X140456096Y-70617566D01*
X140524603Y-70603841D01*
X140589657Y-70629333D01*
X140630601Y-70685948D01*
X140636220Y-70718627D01*
X140636818Y-70718555D01*
X140656763Y-70882818D01*
X140656762Y-70882818D01*
X140695716Y-70985530D01*
X140712780Y-71030523D01*
X140802517Y-71160530D01*
X140920760Y-71265283D01*
X140920762Y-71265284D01*
X140967588Y-71289861D01*
X141017801Y-71338446D01*
X141033775Y-71406465D01*
X141010440Y-71472322D01*
X140997643Y-71487338D01*
X136442438Y-76042546D01*
X136372526Y-76112457D01*
X136323091Y-76198080D01*
X136323091Y-76198081D01*
X136323090Y-76198083D01*
X136297500Y-76293586D01*
X136297500Y-76293588D01*
X136297500Y-83114100D01*
X136277815Y-83181139D01*
X136261181Y-83201781D01*
X135671871Y-83791090D01*
X135610548Y-83824575D01*
X135540856Y-83819591D01*
X135515300Y-83806512D01*
X135505437Y-83799922D01*
X135445740Y-83760034D01*
X135445739Y-83760033D01*
X135445735Y-83760032D01*
X135372677Y-83745500D01*
X135372674Y-83745500D01*
X134723326Y-83745500D01*
X134723323Y-83745500D01*
X134650264Y-83760032D01*
X134650260Y-83760033D01*
X134567399Y-83815399D01*
X134512033Y-83898260D01*
X134512032Y-83898264D01*
X134497500Y-83971321D01*
X134497500Y-85150101D01*
X134477815Y-85217140D01*
X134425011Y-85262895D01*
X134355853Y-85272839D01*
X134292297Y-85243814D01*
X134285819Y-85237782D01*
X133724819Y-84676782D01*
X133691334Y-84615459D01*
X133688500Y-84589101D01*
X133688500Y-83971323D01*
X133688499Y-83971321D01*
X133673967Y-83898264D01*
X133673966Y-83898260D01*
X133657901Y-83874217D01*
X133618601Y-83815399D01*
X133535740Y-83760034D01*
X133535739Y-83760033D01*
X133535735Y-83760032D01*
X133462677Y-83745500D01*
X133462674Y-83745500D01*
X132813326Y-83745500D01*
X132813323Y-83745500D01*
X132740264Y-83760032D01*
X132740260Y-83760033D01*
X132657399Y-83815399D01*
X132602033Y-83898260D01*
X132602032Y-83898264D01*
X132587500Y-83971321D01*
X132587500Y-85270678D01*
X132602032Y-85343735D01*
X132602033Y-85343739D01*
X132602034Y-85343740D01*
X132657399Y-85426601D01*
X132740260Y-85481966D01*
X132740264Y-85481967D01*
X132813321Y-85496499D01*
X132813324Y-85496500D01*
X133431101Y-85496500D01*
X133498140Y-85516185D01*
X133518782Y-85532819D01*
X134407525Y-86421562D01*
X134477438Y-86491475D01*
X134561863Y-86540218D01*
X134563062Y-86540910D01*
X134609852Y-86553448D01*
X134609853Y-86553448D01*
X134620146Y-86556206D01*
X134658564Y-86566500D01*
X134658565Y-86566500D01*
X135486692Y-86566500D01*
X135553731Y-86586185D01*
X135588742Y-86620061D01*
X135592517Y-86625530D01*
X135710760Y-86730283D01*
X135783212Y-86768309D01*
X135833424Y-86816893D01*
X135849399Y-86884912D01*
X135826064Y-86950770D01*
X135813267Y-86965786D01*
X135254873Y-87524181D01*
X135193550Y-87557666D01*
X135167192Y-87560500D01*
X131167500Y-87560500D01*
X131100461Y-87540815D01*
X131054706Y-87488011D01*
X131043500Y-87436500D01*
X131043500Y-87187381D01*
X131060774Y-87128552D01*
X131058961Y-87127562D01*
X131063206Y-87119785D01*
X131063212Y-87119778D01*
X131112251Y-86988299D01*
X131114641Y-86966069D01*
X131118499Y-86930190D01*
X131118500Y-86930173D01*
X131118500Y-86490399D01*
X131138185Y-86423360D01*
X131154819Y-86402718D01*
X131677590Y-85879947D01*
X132203474Y-85354063D01*
X132203475Y-85354062D01*
X132252910Y-85268438D01*
X132278500Y-85172935D01*
X132278500Y-83757899D01*
X132298185Y-83690860D01*
X132314819Y-83670218D01*
X133052218Y-82932819D01*
X133113541Y-82899334D01*
X133139899Y-82896500D01*
X133418500Y-82896500D01*
X133485539Y-82916185D01*
X133531294Y-82968989D01*
X133542500Y-83020500D01*
X133542500Y-83170678D01*
X133557032Y-83243735D01*
X133557033Y-83243739D01*
X133575405Y-83271235D01*
X133612399Y-83326601D01*
X133695260Y-83381966D01*
X133695264Y-83381967D01*
X133768321Y-83396499D01*
X133768324Y-83396500D01*
X133768326Y-83396500D01*
X134417676Y-83396500D01*
X134417677Y-83396499D01*
X134490740Y-83381966D01*
X134573601Y-83326601D01*
X134628966Y-83243740D01*
X134643500Y-83170674D01*
X134643500Y-81871326D01*
X134643500Y-81871323D01*
X134643499Y-81871321D01*
X134628967Y-81798264D01*
X134628966Y-81798260D01*
X134611639Y-81772328D01*
X134573601Y-81715399D01*
X134490740Y-81660034D01*
X134490739Y-81660033D01*
X134490735Y-81660032D01*
X134417677Y-81645500D01*
X134417674Y-81645500D01*
X133768326Y-81645500D01*
X133768323Y-81645500D01*
X133695264Y-81660032D01*
X133695260Y-81660033D01*
X133612399Y-81715399D01*
X133557033Y-81798260D01*
X133557032Y-81798264D01*
X133542500Y-81871321D01*
X133542500Y-82021500D01*
X133522815Y-82088539D01*
X133470011Y-82134294D01*
X133418500Y-82145500D01*
X132883564Y-82145500D01*
X132836913Y-82158000D01*
X132836912Y-82157999D01*
X132788063Y-82171089D01*
X132788062Y-82171089D01*
X132702435Y-82220527D01*
X131602527Y-83320435D01*
X131602525Y-83320437D01*
X131602525Y-83320438D01*
X131598967Y-83326601D01*
X131553091Y-83406060D01*
X131553090Y-83406062D01*
X131537048Y-83465934D01*
X131537047Y-83465938D01*
X131527500Y-83501564D01*
X131527500Y-84916601D01*
X131507815Y-84983640D01*
X131491181Y-85004282D01*
X131330181Y-85165282D01*
X131268858Y-85198767D01*
X131199166Y-85193783D01*
X131143233Y-85151911D01*
X131118816Y-85086447D01*
X131118500Y-85077601D01*
X131118500Y-84511826D01*
X131118499Y-84511809D01*
X131112251Y-84453700D01*
X131093449Y-84403292D01*
X131063212Y-84322222D01*
X130979116Y-84209884D01*
X130866778Y-84125788D01*
X130866776Y-84125787D01*
X130866777Y-84125787D01*
X130849163Y-84119217D01*
X130793230Y-84077344D01*
X130768816Y-84011879D01*
X130768500Y-84003037D01*
X130768500Y-83671690D01*
X130781099Y-83617230D01*
X130782196Y-83614984D01*
X130782198Y-83614983D01*
X130833573Y-83509893D01*
X130843500Y-83441760D01*
X130843500Y-83115240D01*
X130833573Y-83047107D01*
X130816879Y-83012959D01*
X130805119Y-82944090D01*
X130816878Y-82904040D01*
X130833573Y-82869893D01*
X130843500Y-82801760D01*
X130843500Y-82475240D01*
X130833573Y-82407107D01*
X130782198Y-82302017D01*
X130782197Y-82302016D01*
X130781099Y-82299769D01*
X130768500Y-82245309D01*
X130768500Y-82152220D01*
X130788185Y-82085181D01*
X130804819Y-82064539D01*
X130891497Y-81977860D01*
X130891502Y-81977855D01*
X130948739Y-81865522D01*
X130948739Y-81865520D01*
X130948740Y-81865519D01*
X130963499Y-81772328D01*
X130963500Y-81772323D01*
X130963499Y-81414678D01*
X130963499Y-81414675D01*
X130963499Y-81414673D01*
X130956159Y-81368331D01*
X130965114Y-81299038D01*
X130990951Y-81261251D01*
X131081190Y-81171012D01*
X131081193Y-81171008D01*
X131164469Y-81030195D01*
X131164471Y-81030192D01*
X131209994Y-80873501D01*
X131209993Y-80873500D01*
X129576007Y-80873500D01*
X129576005Y-80873501D01*
X129621528Y-81030192D01*
X129621530Y-81030195D01*
X129704806Y-81171008D01*
X129704812Y-81171016D01*
X129795047Y-81261251D01*
X129828532Y-81322574D01*
X129829840Y-81368328D01*
X129822500Y-81414675D01*
X129822500Y-81772321D01*
X129826609Y-81798264D01*
X129837261Y-81865522D01*
X129894498Y-81977855D01*
X129894500Y-81977857D01*
X129894502Y-81977860D01*
X129981181Y-82064539D01*
X130014666Y-82125862D01*
X130017500Y-82152220D01*
X130017500Y-82245309D01*
X130004901Y-82299769D01*
X129952426Y-82407108D01*
X129942500Y-82475239D01*
X129942500Y-82801760D01*
X129952426Y-82869892D01*
X129952426Y-82869893D01*
X129969120Y-82904041D01*
X129980878Y-82972914D01*
X129969120Y-83012959D01*
X129952426Y-83047106D01*
X129952426Y-83047107D01*
X129942500Y-83115239D01*
X129942500Y-83441760D01*
X129952426Y-83509891D01*
X129952427Y-83509893D01*
X130003802Y-83614983D01*
X130004901Y-83617230D01*
X130017500Y-83671690D01*
X130017500Y-84003037D01*
X129997815Y-84070076D01*
X129945011Y-84115831D01*
X129936837Y-84119217D01*
X129919222Y-84125787D01*
X129806884Y-84209884D01*
X129722789Y-84322219D01*
X129673748Y-84453700D01*
X129667500Y-84511809D01*
X129667500Y-85105190D01*
X129673748Y-85163299D01*
X129703779Y-85243814D01*
X129722788Y-85294778D01*
X129806884Y-85407116D01*
X129919222Y-85491212D01*
X129999712Y-85521233D01*
X130050700Y-85540251D01*
X130108809Y-85546499D01*
X130108826Y-85546500D01*
X130649601Y-85546500D01*
X130716640Y-85566185D01*
X130762395Y-85618989D01*
X130772339Y-85688147D01*
X130743314Y-85751703D01*
X130737282Y-85758181D01*
X130636282Y-85859181D01*
X130574959Y-85892666D01*
X130548601Y-85895500D01*
X130108809Y-85895500D01*
X130050700Y-85901748D01*
X129919219Y-85950789D01*
X129806884Y-86034884D01*
X129722789Y-86147219D01*
X129673748Y-86278700D01*
X129667500Y-86336809D01*
X129667500Y-86930190D01*
X129673748Y-86988299D01*
X129701333Y-87062255D01*
X129722788Y-87119778D01*
X129722790Y-87119780D01*
X129727039Y-87127562D01*
X129723818Y-87129320D01*
X129742180Y-87178474D01*
X129742500Y-87187381D01*
X129742500Y-87436500D01*
X129722815Y-87503539D01*
X129670011Y-87549294D01*
X129618500Y-87560500D01*
X129333538Y-87560500D01*
X129271537Y-87543886D01*
X129266890Y-87541203D01*
X129266887Y-87541201D01*
X129238241Y-87533525D01*
X129152309Y-87510500D01*
X129152306Y-87510500D01*
X129067500Y-87510500D01*
X129000461Y-87490815D01*
X128954706Y-87438011D01*
X128943500Y-87386500D01*
X128943500Y-80373498D01*
X129576005Y-80373498D01*
X129576007Y-80373500D01*
X130143000Y-80373500D01*
X130643000Y-80373500D01*
X131209993Y-80373500D01*
X131209994Y-80373498D01*
X131164471Y-80216807D01*
X131164469Y-80216804D01*
X131081193Y-80075991D01*
X131081187Y-80075983D01*
X130965516Y-79960312D01*
X130965508Y-79960306D01*
X130824697Y-79877031D01*
X130824692Y-79877029D01*
X130667603Y-79831390D01*
X130667591Y-79831388D01*
X130643000Y-79829452D01*
X130643000Y-80373500D01*
X130143000Y-80373500D01*
X130143000Y-79829454D01*
X130118402Y-79831389D01*
X129961307Y-79877029D01*
X129961302Y-79877031D01*
X129820491Y-79960306D01*
X129820483Y-79960312D01*
X129704812Y-80075983D01*
X129704806Y-80075991D01*
X129621530Y-80216804D01*
X129621528Y-80216807D01*
X129576005Y-80373498D01*
X128943500Y-80373498D01*
X128943500Y-79777745D01*
X128943500Y-79777740D01*
X128933573Y-79709607D01*
X128916879Y-79675459D01*
X128905119Y-79606590D01*
X128916878Y-79566540D01*
X128933573Y-79532393D01*
X128943500Y-79464260D01*
X128943500Y-79137740D01*
X128933573Y-79069607D01*
X128882198Y-78964517D01*
X128882197Y-78964516D01*
X128881099Y-78962269D01*
X128868500Y-78907809D01*
X128868500Y-78270500D01*
X128888185Y-78203461D01*
X128940989Y-78157706D01*
X128992500Y-78146500D01*
X129043565Y-78146500D01*
X131059810Y-78146500D01*
X131114269Y-78159099D01*
X131154890Y-78178957D01*
X131188112Y-78202677D01*
X131555647Y-78570212D01*
X131589132Y-78631535D01*
X131590439Y-78659444D01*
X131591778Y-78659444D01*
X131591778Y-78666944D01*
X131610818Y-78823762D01*
X131650613Y-78928690D01*
X131666836Y-78971467D01*
X131756573Y-79101474D01*
X131874816Y-79206227D01*
X131874818Y-79206228D01*
X132014690Y-79279640D01*
X132168070Y-79317444D01*
X132168071Y-79317444D01*
X132326041Y-79317444D01*
X132479421Y-79279640D01*
X132619296Y-79206227D01*
X132737539Y-79101474D01*
X132827276Y-78971467D01*
X132883293Y-78823762D01*
X132902334Y-78666944D01*
X132896756Y-78621000D01*
X132883293Y-78510125D01*
X132854021Y-78432941D01*
X132827276Y-78362421D01*
X132737539Y-78232414D01*
X132619296Y-78127661D01*
X132619294Y-78127660D01*
X132619293Y-78127659D01*
X132613119Y-78123397D01*
X132614184Y-78121854D01*
X132571026Y-78080091D01*
X132555055Y-78012071D01*
X132562845Y-77982246D01*
X132560730Y-77981593D01*
X132563571Y-77972396D01*
X132563573Y-77972393D01*
X132573500Y-77904260D01*
X132573500Y-77872899D01*
X132593185Y-77805860D01*
X132609819Y-77785218D01*
X132843000Y-77552037D01*
X133233474Y-77161563D01*
X133233475Y-77161562D01*
X133282910Y-77075938D01*
X133308500Y-76980435D01*
X133308500Y-75904810D01*
X133328185Y-75837771D01*
X133363608Y-75801708D01*
X133438601Y-75751601D01*
X133493966Y-75668740D01*
X133503891Y-75618844D01*
X134028000Y-75618844D01*
X134034401Y-75678372D01*
X134034403Y-75678379D01*
X134084645Y-75813086D01*
X134084649Y-75813093D01*
X134170809Y-75928187D01*
X134170812Y-75928190D01*
X134285906Y-76014350D01*
X134285913Y-76014354D01*
X134420620Y-76064596D01*
X134420627Y-76064598D01*
X134480155Y-76070999D01*
X134480172Y-76071000D01*
X134603000Y-76071000D01*
X135103000Y-76071000D01*
X135225828Y-76071000D01*
X135225844Y-76070999D01*
X135285372Y-76064598D01*
X135285379Y-76064596D01*
X135420086Y-76014354D01*
X135420093Y-76014350D01*
X135535187Y-75928190D01*
X135535190Y-75928187D01*
X135621350Y-75813093D01*
X135621354Y-75813086D01*
X135671596Y-75678379D01*
X135671598Y-75678372D01*
X135677999Y-75618844D01*
X135678000Y-75618827D01*
X135678000Y-75271000D01*
X135103000Y-75271000D01*
X135103000Y-76071000D01*
X134603000Y-76071000D01*
X134603000Y-75271000D01*
X134028000Y-75271000D01*
X134028000Y-75618844D01*
X133503891Y-75618844D01*
X133508500Y-75595674D01*
X133508500Y-74446326D01*
X133508500Y-74446323D01*
X133508499Y-74446321D01*
X133493967Y-74373264D01*
X133493966Y-74373263D01*
X133493966Y-74373260D01*
X133487525Y-74363620D01*
X133474676Y-74344389D01*
X133453799Y-74277712D01*
X133472284Y-74210332D01*
X133524264Y-74163642D01*
X133577779Y-74151500D01*
X133934926Y-74151500D01*
X134001965Y-74171185D01*
X134047720Y-74223989D01*
X134057664Y-74293147D01*
X134051108Y-74318834D01*
X134034402Y-74363623D01*
X134034401Y-74363627D01*
X134028000Y-74423155D01*
X134028000Y-74771000D01*
X135678000Y-74771000D01*
X135678000Y-74423172D01*
X135677999Y-74423155D01*
X135671598Y-74363627D01*
X135671596Y-74363620D01*
X135621354Y-74228913D01*
X135621350Y-74228906D01*
X135535190Y-74113812D01*
X135535187Y-74113809D01*
X135420093Y-74027649D01*
X135420086Y-74027645D01*
X135285379Y-73977403D01*
X135285372Y-73977401D01*
X135225844Y-73971000D01*
X135158398Y-73971000D01*
X135091359Y-73951315D01*
X135045604Y-73898511D01*
X135035660Y-73829353D01*
X135064685Y-73765797D01*
X135070717Y-73759319D01*
X135365855Y-73464182D01*
X135989819Y-72840218D01*
X136521277Y-72308761D01*
X136582600Y-72275276D01*
X136652292Y-72280260D01*
X136708225Y-72322132D01*
X136732642Y-72387596D01*
X136732958Y-72396442D01*
X136732958Y-73105082D01*
X136713273Y-73172121D01*
X136703621Y-73184870D01*
X136612780Y-73316475D01*
X136612780Y-73316476D01*
X136556762Y-73464181D01*
X136537722Y-73620999D01*
X136537722Y-73621000D01*
X136556762Y-73777818D01*
X136602536Y-73898511D01*
X136612780Y-73925523D01*
X136702517Y-74055530D01*
X136820760Y-74160283D01*
X136820762Y-74160284D01*
X136960634Y-74233696D01*
X137114014Y-74271500D01*
X137114015Y-74271500D01*
X137271985Y-74271500D01*
X137425365Y-74233696D01*
X137443860Y-74223989D01*
X137565240Y-74160283D01*
X137683483Y-74055530D01*
X137773220Y-73925523D01*
X137829237Y-73777818D01*
X137848278Y-73621000D01*
X137829237Y-73464182D01*
X137773220Y-73316477D01*
X137683483Y-73186470D01*
X137681677Y-73184870D01*
X137675728Y-73179599D01*
X137638603Y-73120408D01*
X137633958Y-73086786D01*
X137633958Y-72319847D01*
X137653643Y-72252808D01*
X137706447Y-72207053D01*
X137775605Y-72197109D01*
X137815581Y-72210049D01*
X137860635Y-72233696D01*
X137937325Y-72252598D01*
X138014014Y-72271500D01*
X138014015Y-72271500D01*
X138171985Y-72271500D01*
X138325365Y-72233696D01*
X138376128Y-72207053D01*
X138465240Y-72160283D01*
X138583483Y-72055530D01*
X138673220Y-71925523D01*
X138729237Y-71777818D01*
X138748278Y-71621000D01*
X138729237Y-71464182D01*
X138673220Y-71316477D01*
X138583483Y-71186470D01*
X138583481Y-71186468D01*
X138510273Y-71121611D01*
X138473146Y-71062422D01*
X138468500Y-71028796D01*
X138468500Y-70714427D01*
X138488185Y-70647388D01*
X138540989Y-70601633D01*
X138610147Y-70591689D01*
X138673703Y-70620714D01*
X138694551Y-70643989D01*
X138702515Y-70655528D01*
X138702516Y-70655529D01*
X138702517Y-70655530D01*
X138820760Y-70760283D01*
X138820762Y-70760284D01*
X138960634Y-70833696D01*
X139114014Y-70871500D01*
X139114015Y-70871500D01*
X139271985Y-70871500D01*
X139425365Y-70833696D01*
X139448650Y-70821475D01*
X139565240Y-70760283D01*
X139683483Y-70655530D01*
X139705846Y-70623131D01*
X139760127Y-70579142D01*
X139829575Y-70571482D01*
X139865521Y-70583776D01*
G37*
%TD.AperFunction*%
%TD*%
M02*
