%TF.GenerationSoftware,KiCad,Pcbnew,8.0.2*%
%TF.CreationDate,2024-07-30T13:46:01+02:00*%
%TF.ProjectId,lc29h_mikrobus_PCB,6c633239-685f-46d6-996b-726f6275735f,rev?*%
%TF.SameCoordinates,Original*%
%TF.FileFunction,Copper,L1,Top*%
%TF.FilePolarity,Positive*%
%FSLAX46Y46*%
G04 Gerber Fmt 4.6, Leading zero omitted, Abs format (unit mm)*
G04 Created by KiCad (PCBNEW 8.0.2) date 2024-07-30 13:46:01*
%MOMM*%
%LPD*%
G01*
G04 APERTURE LIST*
G04 Aperture macros list*
%AMRoundRect*
0 Rectangle with rounded corners*
0 $1 Rounding radius*
0 $2 $3 $4 $5 $6 $7 $8 $9 X,Y pos of 4 corners*
0 Add a 4 corners polygon primitive as box body*
4,1,4,$2,$3,$4,$5,$6,$7,$8,$9,$2,$3,0*
0 Add four circle primitives for the rounded corners*
1,1,$1+$1,$2,$3*
1,1,$1+$1,$4,$5*
1,1,$1+$1,$6,$7*
1,1,$1+$1,$8,$9*
0 Add four rect primitives between the rounded corners*
20,1,$1+$1,$2,$3,$4,$5,0*
20,1,$1+$1,$4,$5,$6,$7,0*
20,1,$1+$1,$6,$7,$8,$9,0*
20,1,$1+$1,$8,$9,$2,$3,0*%
%AMFreePoly0*
4,1,17,1.395000,0.765000,0.855000,0.765000,0.855000,0.535000,1.395000,0.535000,1.395000,0.115000,0.855000,0.115000,0.855000,-0.115000,1.395000,-0.115000,1.395000,-0.535000,0.855000,-0.535000,0.855000,-0.765000,1.395000,-0.765000,1.395000,-1.185000,-0.855000,-1.185000,-0.855000,1.185000,1.395000,1.185000,1.395000,0.765000,1.395000,0.765000,$1*%
G04 Aperture macros list end*
%TA.AperFunction,ComponentPad*%
%ADD10R,1.445000X1.445000*%
%TD*%
%TA.AperFunction,ComponentPad*%
%ADD11C,1.445000*%
%TD*%
%TA.AperFunction,SMDPad,CuDef*%
%ADD12RoundRect,0.147500X-0.172500X0.147500X-0.172500X-0.147500X0.172500X-0.147500X0.172500X0.147500X0*%
%TD*%
%TA.AperFunction,SMDPad,CuDef*%
%ADD13RoundRect,0.100000X-0.130000X-0.100000X0.130000X-0.100000X0.130000X0.100000X-0.130000X0.100000X0*%
%TD*%
%TA.AperFunction,SMDPad,CuDef*%
%ADD14RoundRect,0.100000X0.130000X0.100000X-0.130000X0.100000X-0.130000X-0.100000X0.130000X-0.100000X0*%
%TD*%
%TA.AperFunction,SMDPad,CuDef*%
%ADD15R,0.450000X0.750000*%
%TD*%
%TA.AperFunction,SMDPad,CuDef*%
%ADD16R,2.400000X1.600000*%
%TD*%
%TA.AperFunction,SMDPad,CuDef*%
%ADD17R,1.200000X1.200000*%
%TD*%
%TA.AperFunction,ComponentPad*%
%ADD18R,1.000000X1.000000*%
%TD*%
%TA.AperFunction,ComponentPad*%
%ADD19O,1.000000X1.000000*%
%TD*%
%TA.AperFunction,SMDPad,CuDef*%
%ADD20R,0.800000X0.300000*%
%TD*%
%TA.AperFunction,SMDPad,CuDef*%
%ADD21RoundRect,0.100000X-0.100000X0.130000X-0.100000X-0.130000X0.100000X-0.130000X0.100000X0.130000X0*%
%TD*%
%TA.AperFunction,SMDPad,CuDef*%
%ADD22RoundRect,0.105000X-0.245000X-0.105000X0.245000X-0.105000X0.245000X0.105000X-0.245000X0.105000X0*%
%TD*%
%TA.AperFunction,SMDPad,CuDef*%
%ADD23FreePoly0,0.000000*%
%TD*%
%TA.AperFunction,SMDPad,CuDef*%
%ADD24RoundRect,0.100000X0.100000X-0.130000X0.100000X0.130000X-0.100000X0.130000X-0.100000X-0.130000X0*%
%TD*%
%TA.AperFunction,SMDPad,CuDef*%
%ADD25RoundRect,0.250000X0.550000X-0.250000X0.550000X0.250000X-0.550000X0.250000X-0.550000X-0.250000X0*%
%TD*%
%TA.AperFunction,SMDPad,CuDef*%
%ADD26R,0.244000X0.300000*%
%TD*%
%TA.AperFunction,SMDPad,CuDef*%
%ADD27RoundRect,0.237500X0.237500X-0.250000X0.237500X0.250000X-0.237500X0.250000X-0.237500X-0.250000X0*%
%TD*%
%TA.AperFunction,ComponentPad*%
%ADD28C,2.050000*%
%TD*%
%TA.AperFunction,ComponentPad*%
%ADD29C,2.250000*%
%TD*%
%TA.AperFunction,SMDPad,CuDef*%
%ADD30R,1.125000X0.600000*%
%TD*%
%TA.AperFunction,SMDPad,CuDef*%
%ADD31RoundRect,0.200000X-0.200000X1.050000X-0.200000X-1.050000X0.200000X-1.050000X0.200000X1.050000X0*%
%TD*%
%TA.AperFunction,ComponentPad*%
%ADD32R,1.050000X1.500000*%
%TD*%
%TA.AperFunction,ComponentPad*%
%ADD33O,1.050000X1.500000*%
%TD*%
%TA.AperFunction,SMDPad,CuDef*%
%ADD34R,0.600000X1.250000*%
%TD*%
%TA.AperFunction,SMDPad,CuDef*%
%ADD35R,0.650000X1.100000*%
%TD*%
%TA.AperFunction,ViaPad*%
%ADD36C,0.800000*%
%TD*%
%TA.AperFunction,ViaPad*%
%ADD37C,1.000000*%
%TD*%
%TA.AperFunction,Conductor*%
%ADD38C,0.400000*%
%TD*%
%TA.AperFunction,Conductor*%
%ADD39C,0.200000*%
%TD*%
%TA.AperFunction,Conductor*%
%ADD40C,0.300000*%
%TD*%
%TA.AperFunction,Conductor*%
%ADD41C,0.800000*%
%TD*%
%TA.AperFunction,Conductor*%
%ADD42C,0.250000*%
%TD*%
G04 APERTURE END LIST*
D10*
%TO.P,IC1,1,AN*%
%TO.N,unconnected-(IC1-AN-Pad1)*%
X126093000Y-75221000D03*
D11*
%TO.P,IC1,2,RST*%
%TO.N,RST*%
X126093000Y-77761000D03*
%TO.P,IC1,3,CS*%
%TO.N,CE_HOST*%
X126093000Y-80301000D03*
%TO.P,IC1,4,SCK*%
%TO.N,unconnected-(IC1-SCK-Pad4)*%
X126093000Y-82841000D03*
%TO.P,IC1,5,MISO*%
%TO.N,unconnected-(IC1-MISO-Pad5)*%
X126093000Y-85381000D03*
%TO.P,IC1,6,MOSI*%
%TO.N,unconnected-(IC1-MOSI-Pad6)*%
X126093000Y-87921000D03*
%TO.P,IC1,7,+3.3V*%
%TO.N,VCC*%
X126093000Y-90461000D03*
%TO.P,IC1,8,GND_1*%
%TO.N,GND*%
X126093000Y-93001000D03*
%TO.P,IC1,9,PWM*%
%TO.N,WUP*%
X148953000Y-75221000D03*
%TO.P,IC1,10,INT*%
%TO.N,1PPS*%
X148953000Y-77761000D03*
%TO.P,IC1,11,RX*%
%TO.N,TX1*%
X148953000Y-80301000D03*
%TO.P,IC1,12,TX*%
%TO.N,RX1*%
X148953000Y-82841000D03*
%TO.P,IC1,13,SCL*%
%TO.N,SCL*%
X148953000Y-85381000D03*
%TO.P,IC1,14,SDA*%
%TO.N,SDA*%
X148953000Y-87921000D03*
%TO.P,IC1,15,+5V*%
%TO.N,unconnected-(IC1-+5V-Pad15)*%
X148953000Y-90461000D03*
%TO.P,IC1,16,GND_2*%
%TO.N,GND*%
X148953000Y-93001000D03*
%TD*%
D12*
%TO.P,D1,1,K*%
%TO.N,GND*%
X130393000Y-80623500D03*
%TO.P,D1,2,A*%
%TO.N,Net-(D1-A)*%
X130393000Y-81593500D03*
%TD*%
D13*
%TO.P,R13,1*%
%TO.N,RST*%
X131453000Y-77771000D03*
%TO.P,R13,2*%
%TO.N,Net-(Q3-B)*%
X132093000Y-77771000D03*
%TD*%
D14*
%TO.P,R18,1*%
%TO.N,Net-(U2-RXD2)*%
X129568000Y-71521000D03*
%TO.P,R18,2*%
%TO.N,Net-(J2-Pin_3)*%
X128928000Y-71521000D03*
%TD*%
D15*
%TO.P,IC2,1,N.C.*%
%TO.N,unconnected-(IC2-N.C.-Pad1)*%
X132079500Y-90247000D03*
%TO.P,IC2,2,IO*%
%TO.N,Net-(IC2-IO)*%
X131129500Y-90247000D03*
%TO.P,IC2,3,GND*%
%TO.N,GND*%
X130179500Y-90247000D03*
%TO.P,IC2,4,PIOB*%
%TO.N,unconnected-(IC2-PIOB-Pad4)*%
X130179500Y-93247000D03*
%TO.P,IC2,5,PIOA*%
%TO.N,unconnected-(IC2-PIOA-Pad5)*%
X131129500Y-93247000D03*
%TO.P,IC2,6,CEXT*%
%TO.N,VCC*%
X132079500Y-93247000D03*
D16*
%TO.P,IC2,7,EP*%
%TO.N,GND*%
X131129500Y-91747000D03*
%TD*%
D17*
%TO.P,D2,1,K*%
%TO.N,Net-(D2-K)*%
X125725500Y-61731000D03*
%TO.P,D2,2,A*%
%TO.N,VCC*%
X128525500Y-61731000D03*
%TD*%
D18*
%TO.P,J2,1,Pin_1*%
%TO.N,GND*%
X148003000Y-43721000D03*
D19*
%TO.P,J2,2,Pin_2*%
%TO.N,Net-(J2-Pin_2)*%
X148003000Y-44991000D03*
%TO.P,J2,3,Pin_3*%
%TO.N,Net-(J2-Pin_3)*%
X148003000Y-46261000D03*
%TD*%
D14*
%TO.P,C4,1*%
%TO.N,VBCK*%
X127003000Y-53431000D03*
%TO.P,C4,2*%
%TO.N,GND*%
X126363000Y-53431000D03*
%TD*%
D13*
%TO.P,R4,1*%
%TO.N,ANT_ON*%
X125838000Y-49971000D03*
%TO.P,R4,2*%
%TO.N,Net-(Q1-B)*%
X126478000Y-49971000D03*
%TD*%
D14*
%TO.P,C2,1*%
%TO.N,VBCK*%
X127048000Y-56931000D03*
%TO.P,C2,2*%
%TO.N,GND*%
X126408000Y-56931000D03*
%TD*%
D20*
%TO.P,U1,1,B2*%
%TO.N,SDA*%
X145393000Y-83321000D03*
%TO.P,U1,2,GND*%
%TO.N,GND*%
X145393000Y-82821000D03*
%TO.P,U1,3,VCCA*%
%TO.N,VDD_EXT*%
X145393000Y-82321000D03*
%TO.P,U1,4,A2*%
%TO.N,mSDA*%
X145393000Y-81821000D03*
%TO.P,U1,5,A1*%
%TO.N,mSCL*%
X142293000Y-81821000D03*
%TO.P,U1,6,OE*%
%TO.N,VDD_EXT*%
X142293000Y-82321000D03*
%TO.P,U1,7,VCCB*%
%TO.N,VCC*%
X142293000Y-82821000D03*
%TO.P,U1,8,B1*%
%TO.N,SCL*%
X142293000Y-83321000D03*
%TD*%
D21*
%TO.P,R5,1*%
%TO.N,VDD_RF*%
X139343000Y-48351000D03*
%TO.P,R5,2*%
%TO.N,Net-(Q1-C)*%
X139343000Y-48991000D03*
%TD*%
D14*
%TO.P,R12,1*%
%TO.N,VBCK*%
X127048000Y-58231000D03*
%TO.P,R12,2*%
%TO.N,Net-(D2-K)*%
X126408000Y-58231000D03*
%TD*%
D22*
%TO.P,Q2,1,S*%
%TO.N,VDD_RF*%
X140603000Y-48121000D03*
%TO.P,Q2,2,S*%
X140603000Y-48771000D03*
%TO.P,Q2,3,S*%
X140603000Y-49421000D03*
%TO.P,Q2,4,G*%
%TO.N,Net-(Q1-C)*%
X140603000Y-50071000D03*
D23*
%TO.P,Q2,5,D*%
%TO.N,Net-(Q2-D)*%
X142558000Y-49096000D03*
%TD*%
D14*
%TO.P,R15,1*%
%TO.N,Net-(IC3-Y0)*%
X134513000Y-93221000D03*
%TO.P,R15,2*%
%TO.N,VCC*%
X133873000Y-93221000D03*
%TD*%
D24*
%TO.P,C6,1*%
%TO.N,Net-(C5-Pad1)*%
X135713000Y-49361000D03*
%TO.P,C6,2*%
%TO.N,GND*%
X135713000Y-48721000D03*
%TD*%
D21*
%TO.P,C7,1*%
%TO.N,Net-(J1-In)*%
X131833000Y-50706000D03*
%TO.P,C7,2*%
%TO.N,RF_IN*%
X131833000Y-51346000D03*
%TD*%
D14*
%TO.P,C3,1*%
%TO.N,VBCK*%
X127048000Y-55231000D03*
%TO.P,C3,2*%
%TO.N,GND*%
X126408000Y-55231000D03*
%TD*%
D24*
%TO.P,R14,1*%
%TO.N,VDD_EXT*%
X148493000Y-59141000D03*
%TO.P,R14,2*%
%TO.N,Net-(SW1-C)*%
X148493000Y-58501000D03*
%TD*%
D21*
%TO.P,C9,1*%
%TO.N,VCC*%
X128593000Y-89856000D03*
%TO.P,C9,2*%
%TO.N,GND*%
X128593000Y-90496000D03*
%TD*%
D25*
%TO.P,SW1,1,C*%
%TO.N,Net-(SW1-C)*%
X149443000Y-54371000D03*
%TO.P,SW1,2,B*%
%TO.N,Net-(SW1-B)*%
X147143000Y-52621000D03*
%TO.P,SW1,3,A*%
%TO.N,unconnected-(SW1-A-Pad3)*%
X149443000Y-50871000D03*
%TD*%
D21*
%TO.P,R16,1*%
%TO.N,VCC*%
X132993000Y-88581000D03*
%TO.P,R16,2*%
%TO.N,Net-(IC2-IO)*%
X132993000Y-89221000D03*
%TD*%
D13*
%TO.P,R3,1*%
%TO.N,VDD_EXT*%
X146573000Y-80421000D03*
%TO.P,R3,2*%
%TO.N,GND*%
X147213000Y-80421000D03*
%TD*%
D26*
%TO.P,D3,1,1*%
%TO.N,GND*%
X131421000Y-48721000D03*
%TO.P,D3,2,2*%
%TO.N,Net-(J1-In)*%
X131833000Y-48721000D03*
%TD*%
D24*
%TO.P,R10,1*%
%TO.N,VCC*%
X142293000Y-85721000D03*
%TO.P,R10,2*%
%TO.N,SCL*%
X142293000Y-85081000D03*
%TD*%
D14*
%TO.P,L1,1,1*%
%TO.N,Net-(C5-Pad1)*%
X132473000Y-49831000D03*
%TO.P,L1,2,2*%
%TO.N,Net-(J1-In)*%
X131833000Y-49831000D03*
%TD*%
%TO.P,R19,1*%
%TO.N,Net-(U2-TXD2)*%
X129568000Y-70521000D03*
%TO.P,R19,2*%
%TO.N,Net-(J2-Pin_2)*%
X128928000Y-70521000D03*
%TD*%
D24*
%TO.P,R2,1*%
%TO.N,Net-(R1-Pad2)*%
X130393000Y-83278500D03*
%TO.P,R2,2*%
%TO.N,Net-(D1-A)*%
X130393000Y-82638500D03*
%TD*%
D27*
%TO.P,R1,1*%
%TO.N,VCC*%
X130393000Y-86633500D03*
%TO.P,R1,2*%
%TO.N,Net-(R1-Pad2)*%
X130393000Y-84808500D03*
%TD*%
D24*
%TO.P,R17,1*%
%TO.N,VCC*%
X128493000Y-79941000D03*
%TO.P,R17,2*%
%TO.N,RST*%
X128493000Y-79301000D03*
%TD*%
D13*
%TO.P,R6,1*%
%TO.N,Net-(Q1-B)*%
X125878000Y-51121000D03*
%TO.P,R6,2*%
%TO.N,GND*%
X126518000Y-51121000D03*
%TD*%
D28*
%TO.P,J1,1,In*%
%TO.N,Net-(J1-In)*%
X131833000Y-43361000D03*
D29*
%TO.P,J1,2,Ext*%
%TO.N,GND*%
X129293000Y-40821000D03*
X129293000Y-45901000D03*
X134373000Y-40821000D03*
X134373000Y-45901000D03*
%TD*%
D24*
%TO.P,R11,1*%
%TO.N,VCC*%
X145393000Y-85721000D03*
%TO.P,R11,2*%
%TO.N,SDA*%
X145393000Y-85081000D03*
%TD*%
D13*
%TO.P,R8,1*%
%TO.N,VDD_EXT*%
X141073000Y-77821000D03*
%TO.P,R8,2*%
%TO.N,mSDA*%
X141713000Y-77821000D03*
%TD*%
D24*
%TO.P,C5,1*%
%TO.N,Net-(C5-Pad1)*%
X133603000Y-49366000D03*
%TO.P,C5,2*%
%TO.N,GND*%
X133603000Y-48726000D03*
%TD*%
D13*
%TO.P,C1,1*%
%TO.N,VDD_EXT*%
X146573000Y-79421000D03*
%TO.P,C1,2*%
%TO.N,GND*%
X147213000Y-79421000D03*
%TD*%
D30*
%TO.P,IC3,1,Y1*%
%TO.N,CE*%
X139371000Y-89771000D03*
%TO.P,IC3,2,GND*%
%TO.N,GND*%
X139371000Y-90721000D03*
%TO.P,IC3,3,Y0*%
%TO.N,Net-(IC3-Y0)*%
X139371000Y-91671000D03*
%TO.P,IC3,4,Z*%
%TO.N,CE_HOST*%
X141995000Y-91671000D03*
%TO.P,IC3,5,VCC*%
%TO.N,VCC*%
X141995000Y-90721000D03*
%TO.P,IC3,6,S*%
%TO.N,RST*%
X141995000Y-89771000D03*
%TD*%
D13*
%TO.P,R7,1*%
%TO.N,VDD_EXT*%
X141273000Y-79521000D03*
%TO.P,R7,2*%
%TO.N,mSCL*%
X141913000Y-79521000D03*
%TD*%
D14*
%TO.P,R9,1*%
%TO.N,Net-(Q2-D)*%
X137573000Y-50831000D03*
%TO.P,R9,2*%
%TO.N,Net-(C5-Pad1)*%
X136933000Y-50831000D03*
%TD*%
D31*
%TO.P,U2,1,WAKE_UP*%
%TO.N,WUP*%
X144733000Y-53291000D03*
%TO.P,U2,2,FWD*%
%TO.N,unconnected-(U2-FWD-Pad2)*%
X143633000Y-53291000D03*
%TO.P,U2,3,1PPS*%
%TO.N,1PPS*%
X142533000Y-53291000D03*
%TO.P,U2,4,WHEELTICK*%
%TO.N,unconnected-(U2-WHEELTICK-Pad4)*%
X141433000Y-53291000D03*
%TO.P,U2,5,D_SEL1*%
%TO.N,Net-(SW1-B)*%
X140333000Y-53291000D03*
%TO.P,U2,6,D_SEL2*%
X139233000Y-53291000D03*
%TO.P,U2,7,VDD_EXT*%
%TO.N,VDD_EXT*%
X138133000Y-53291000D03*
%TO.P,U2,8,RESET_N*%
%TO.N,Net-(Q3-C)*%
X135133000Y-53291000D03*
%TO.P,U2,9,VDD_RF*%
%TO.N,VDD_RF*%
X134033000Y-53291000D03*
%TO.P,U2,10,GND*%
%TO.N,GND*%
X132933000Y-53291000D03*
%TO.P,U2,11,RF_IN*%
%TO.N,RF_IN*%
X131833000Y-53291000D03*
%TO.P,U2,12,GND*%
%TO.N,GND*%
X130733000Y-53291000D03*
%TO.P,U2,13,GND*%
X130733000Y-65491000D03*
%TO.P,U2,14,ANT_ON*%
%TO.N,ANT_ON*%
X131833000Y-65491000D03*
%TO.P,U2,15,TXD2*%
%TO.N,Net-(U2-TXD2)*%
X132933000Y-65491000D03*
%TO.P,U2,16,RXD2*%
%TO.N,Net-(U2-RXD2)*%
X134033000Y-65491000D03*
%TO.P,U2,17,WI*%
%TO.N,unconnected-(U2-WI-Pad17)*%
X135133000Y-65491000D03*
%TO.P,U2,18,I2C_SDA/SPI_CS*%
%TO.N,mSDA*%
X138133000Y-65491000D03*
%TO.P,U2,19,I2C_SCL/SPI_CLK*%
%TO.N,mSCL*%
X139233000Y-65491000D03*
%TO.P,U2,20,TXD1/SPI_MISO*%
%TO.N,TX1*%
X140333000Y-65491000D03*
%TO.P,U2,21,RXD1/SPI_MOSI*%
%TO.N,RX1*%
X141433000Y-65491000D03*
%TO.P,U2,22,V_BCKP*%
%TO.N,VBCK*%
X142533000Y-65491000D03*
%TO.P,U2,23,VCC*%
%TO.N,Net-(Q5-S)*%
X143633000Y-65491000D03*
%TO.P,U2,24,GND*%
%TO.N,GND*%
X144733000Y-65491000D03*
%TD*%
D32*
%TO.P,Q1,1,E*%
%TO.N,GND*%
X143763000Y-42701000D03*
D33*
%TO.P,Q1,2,B*%
%TO.N,Net-(Q1-B)*%
X142493000Y-42701000D03*
%TO.P,Q1,3,C*%
%TO.N,Net-(Q1-C)*%
X141223000Y-42701000D03*
%TD*%
D34*
%TO.P,Q4,1,G*%
%TO.N,Net-(IC2-IO)*%
X134938000Y-91671000D03*
%TO.P,Q4,2,S*%
%TO.N,Net-(IC3-Y0)*%
X136848000Y-91671000D03*
%TO.P,Q4,3,D*%
%TO.N,VCC*%
X135893000Y-89571000D03*
%TD*%
%TO.P,Q5,1,G*%
%TO.N,CE*%
X133138000Y-84621000D03*
%TO.P,Q5,2,S*%
%TO.N,Net-(Q5-S)*%
X135048000Y-84621000D03*
%TO.P,Q5,3,D*%
%TO.N,VCC*%
X134093000Y-82521000D03*
%TD*%
D35*
%TO.P,Q3,1,B*%
%TO.N,Net-(Q3-B)*%
X132933000Y-75021000D03*
%TO.P,Q3,2,E*%
%TO.N,GND*%
X134853000Y-75021000D03*
%TO.P,Q3,3,C*%
%TO.N,Net-(Q3-C)*%
X133893000Y-72921000D03*
%TD*%
D13*
%TO.P,C8,1*%
%TO.N,VCC*%
X143373000Y-89921000D03*
%TO.P,C8,2*%
%TO.N,GND*%
X144013000Y-89921000D03*
%TD*%
D36*
%TO.N,GND*%
X130893000Y-75771000D03*
X146093000Y-70721000D03*
X144043000Y-73771000D03*
X129333000Y-49746000D03*
X134093000Y-77971000D03*
X139443000Y-80271000D03*
D37*
%TO.N,VCC*%
X128513000Y-65801000D03*
X133363000Y-91661000D03*
X137513000Y-78601000D03*
X134263000Y-89601000D03*
D36*
X143214488Y-86799511D03*
X144643000Y-86171000D03*
%TO.N,1PPS*%
X142500107Y-60028107D03*
%TO.N,TX1*%
X140193000Y-70021000D03*
%TO.N,CE_HOST*%
X143313000Y-91321000D03*
%TO.N,RX1*%
X141293000Y-70726000D03*
%TO.N,RST*%
X132247056Y-78666944D03*
X138693000Y-85121000D03*
%TO.N,WUP*%
X146393000Y-55821000D03*
%TO.N,CE*%
X136083000Y-86191000D03*
X139393000Y-88921000D03*
%TO.N,VDD_EXT*%
X137193000Y-73621000D03*
X140493000Y-77121000D03*
%TO.N,mSDA*%
X141593000Y-75921000D03*
X138093000Y-71621000D03*
%TO.N,mSCL*%
X142293000Y-78621000D03*
X139193000Y-70221000D03*
%TO.N,VDD_RF*%
X138453000Y-48261000D03*
X134793000Y-51341000D03*
D37*
%TO.N,VBCK*%
X129423000Y-58421000D03*
X138063000Y-63041000D03*
D36*
%TO.N,ANT_ON*%
X131177101Y-63696885D03*
X124943000Y-51171000D03*
%TO.N,Net-(J2-Pin_3)*%
X134113000Y-70551000D03*
D37*
X140893000Y-62361000D03*
%TD*%
D38*
%TO.N,GND*%
X147213000Y-80421000D02*
X147213000Y-79421000D01*
X132943000Y-53346000D02*
X132943000Y-55796000D01*
X140693000Y-91421000D02*
X140693000Y-92171000D01*
D39*
X134413000Y-48341000D02*
X134000000Y-48341000D01*
X134000000Y-48341000D02*
X133613000Y-48728000D01*
D40*
X146443000Y-82821000D02*
X145393000Y-82821000D01*
D38*
X126408000Y-56931000D02*
X125778000Y-56931000D01*
D40*
X147213000Y-80421000D02*
X147213000Y-82051000D01*
D39*
X131360000Y-48711000D02*
X130626000Y-48711000D01*
D38*
X144013000Y-89921000D02*
X144693000Y-89921000D01*
X130179500Y-90797000D02*
X131129500Y-91747000D01*
X130179500Y-90247000D02*
X130179500Y-90797000D01*
D39*
X135723000Y-48201000D02*
X135723000Y-48718000D01*
D38*
X147213000Y-79421000D02*
X147213000Y-78641000D01*
X147213000Y-78641000D02*
X147193000Y-78621000D01*
D40*
X147213000Y-82051000D02*
X146443000Y-82821000D01*
D38*
X139983000Y-90721000D02*
X140683000Y-91421000D01*
X139381000Y-90721000D02*
X139993000Y-90721000D01*
X126408000Y-55231000D02*
X125728000Y-55231000D01*
D41*
%TO.N,VCC*%
X137513000Y-85301000D02*
X137493000Y-85321000D01*
D38*
X135893000Y-89571000D02*
X134293000Y-89571000D01*
D42*
X131903000Y-85123500D02*
X130393000Y-86633500D01*
D41*
X126093000Y-90461000D02*
X128343000Y-88211000D01*
D40*
X142293000Y-85721000D02*
X142092116Y-85721000D01*
D38*
X133193000Y-93247000D02*
X132079500Y-93247000D01*
D41*
X128343000Y-88211000D02*
X130393000Y-88211000D01*
D40*
X141293000Y-83111000D02*
X141583000Y-82821000D01*
D38*
X143214488Y-86799511D02*
X143293000Y-86878023D01*
X143214488Y-86799511D02*
X142293000Y-85878023D01*
D41*
X137493000Y-85321000D02*
X137493000Y-86206000D01*
D38*
X143214488Y-86799511D02*
X143214488Y-89762488D01*
D41*
X130393000Y-86633500D02*
X130393000Y-88211000D01*
D38*
X144643000Y-86171000D02*
X145093000Y-85721000D01*
D42*
X128593000Y-88461000D02*
X129093000Y-87961000D01*
D38*
X142589913Y-90721000D02*
X141292500Y-90721000D01*
X145093000Y-85721000D02*
X145393000Y-85721000D01*
X133873000Y-93221000D02*
X133847000Y-93247000D01*
D41*
X137513000Y-78601000D02*
X137513000Y-85301000D01*
X128513000Y-61743500D02*
X128525500Y-61731000D01*
D38*
X133363000Y-91661000D02*
X133873000Y-92171000D01*
X141292500Y-90721000D02*
X140693000Y-90121500D01*
D41*
X134293000Y-89571000D02*
X134263000Y-89601000D01*
D40*
X141293000Y-84921884D02*
X141293000Y-83111000D01*
D38*
X140693000Y-89117913D02*
X137781087Y-86206000D01*
X143293000Y-90017913D02*
X142589913Y-90721000D01*
D41*
X128513000Y-65801000D02*
X128513000Y-61743500D01*
D42*
X131903000Y-83551000D02*
X131903000Y-85123500D01*
D38*
X133873000Y-92171000D02*
X133873000Y-93221000D01*
X135893000Y-89571000D02*
X135893000Y-88616000D01*
D42*
X128593000Y-88461000D02*
X128343000Y-88211000D01*
X132933000Y-82521000D02*
X134093000Y-82521000D01*
X128593000Y-88621000D02*
X128593000Y-88461000D01*
D38*
X137781087Y-86206000D02*
X137493000Y-86206000D01*
X143214488Y-89762488D02*
X143373000Y-89921000D01*
D41*
X137493000Y-86206000D02*
X135488000Y-88211000D01*
D38*
X128493000Y-87961000D02*
X128493000Y-79941000D01*
D41*
X130393000Y-88211000D02*
X135488000Y-88211000D01*
D38*
X129093000Y-87961000D02*
X128493000Y-87961000D01*
D42*
X131903000Y-83551000D02*
X132933000Y-82521000D01*
D38*
X135893000Y-88616000D02*
X135488000Y-88211000D01*
D40*
X141583000Y-82821000D02*
X142293000Y-82821000D01*
X142092116Y-85721000D02*
X141293000Y-84921884D01*
D38*
X128593000Y-89771000D02*
X128593000Y-88621000D01*
X133847000Y-93247000D02*
X133193000Y-93247000D01*
X142293000Y-85878023D02*
X142293000Y-85721000D01*
X140693000Y-90121500D02*
X140693000Y-89117913D01*
D42*
%TO.N,1PPS*%
X142533000Y-55181000D02*
X142533000Y-53291000D01*
X142500107Y-60028107D02*
X142493000Y-60021000D01*
X142493000Y-60021000D02*
X142493000Y-55221000D01*
X142493000Y-55221000D02*
X142533000Y-55181000D01*
%TO.N,TX1*%
X140193000Y-65826000D02*
X140333000Y-65826000D01*
X140193000Y-70021000D02*
X140193000Y-65826000D01*
%TO.N,CE_HOST*%
X142963000Y-91671000D02*
X142005000Y-91671000D01*
X143313000Y-91321000D02*
X142963000Y-91671000D01*
%TO.N,RX1*%
X141293000Y-70726000D02*
X141293000Y-65831108D01*
%TO.N,SCL*%
X142492999Y-85081000D02*
X146532999Y-89121000D01*
X149393000Y-89121000D02*
X149993000Y-88521000D01*
X142293000Y-83321000D02*
X142293000Y-85081000D01*
X142293000Y-85081000D02*
X142492999Y-85081000D01*
X146532999Y-89121000D02*
X149393000Y-89121000D01*
X149993000Y-86421000D02*
X148953000Y-85381000D01*
X149993000Y-88521000D02*
X149993000Y-86421000D01*
%TO.N,SDA*%
X145393000Y-85081000D02*
X146113000Y-85081000D01*
X145393000Y-83321000D02*
X145393000Y-85081000D01*
X146113000Y-85081000D02*
X148953000Y-87921000D01*
%TO.N,RST*%
X132183416Y-78666944D02*
X131453000Y-77936528D01*
X132247056Y-78666944D02*
X132183416Y-78666944D01*
X131453000Y-77771000D02*
X129093000Y-77771000D01*
X138693000Y-85121000D02*
X142005000Y-88433000D01*
X131453000Y-77936528D02*
X131453000Y-77771000D01*
X142005000Y-88433000D02*
X142005000Y-89771000D01*
X128493000Y-79301000D02*
X128493000Y-77771000D01*
X128493000Y-77771000D02*
X129093000Y-77771000D01*
X129093000Y-77771000D02*
X126103000Y-77771000D01*
%TO.N,WUP*%
X146393000Y-55821000D02*
X146393000Y-54951000D01*
X146393000Y-54951000D02*
X144733000Y-53291000D01*
%TO.N,CE*%
X136083000Y-86191000D02*
X134708000Y-86191000D01*
X134708000Y-86191000D02*
X133138000Y-84621000D01*
X139381000Y-88933000D02*
X139393000Y-88921000D01*
X139381000Y-89771000D02*
X139381000Y-88933000D01*
D38*
%TO.N,VDD_EXT*%
X139893000Y-58821000D02*
X142193000Y-61121000D01*
D42*
X141273000Y-79521000D02*
X140993000Y-79521000D01*
X145393000Y-82321000D02*
X146053000Y-82321000D01*
X146053000Y-82321000D02*
X146573000Y-81801000D01*
D38*
X137193000Y-73621000D02*
X137183458Y-73611458D01*
D40*
X141493000Y-82321000D02*
X140993000Y-81821000D01*
X140993000Y-81821000D02*
X140993000Y-79521000D01*
D38*
X146513000Y-61121000D02*
X148493000Y-59141000D01*
X138093000Y-55121000D02*
X138133000Y-55081000D01*
X138133000Y-55081000D02*
X138133000Y-53291000D01*
X138093000Y-55121000D02*
X138093000Y-57021000D01*
D42*
X142293000Y-82321000D02*
X145393000Y-82321000D01*
D38*
X137183458Y-73611458D02*
X137183458Y-61530542D01*
D40*
X140493000Y-77121000D02*
X140993000Y-77621000D01*
D42*
X146573000Y-81801000D02*
X146573000Y-79421000D01*
D38*
X138093000Y-57021000D02*
X139893000Y-58821000D01*
D40*
X142293000Y-82321000D02*
X141493000Y-82321000D01*
D38*
X142193000Y-61121000D02*
X146513000Y-61121000D01*
X137183458Y-61530542D02*
X139893000Y-58821000D01*
D40*
X140993000Y-77621000D02*
X140993000Y-79521000D01*
D42*
%TO.N,mSDA*%
X138093000Y-67321000D02*
X138133000Y-67281000D01*
X142693000Y-77021000D02*
X142793000Y-77121000D01*
X141713000Y-77821000D02*
X141893000Y-77821000D01*
X138093000Y-71621000D02*
X138093000Y-67321000D01*
X141893000Y-77821000D02*
X142693000Y-77021000D01*
X145393000Y-79721000D02*
X145393000Y-81821000D01*
X138133000Y-67281000D02*
X138133000Y-65491000D01*
X141593000Y-75921000D02*
X142793000Y-77121000D01*
X142793000Y-77121000D02*
X145393000Y-79721000D01*
%TO.N,mSCL*%
X141913000Y-79521000D02*
X142293000Y-79521000D01*
X142293000Y-78621000D02*
X142293000Y-79521000D01*
X139233000Y-67281000D02*
X139233000Y-65491000D01*
X142293000Y-81821000D02*
X142293000Y-79521000D01*
X139193000Y-70221000D02*
X139193000Y-67321000D01*
X139193000Y-67321000D02*
X139233000Y-67281000D01*
%TO.N,Net-(J1-In)*%
X131833000Y-43361000D02*
X131833000Y-44461000D01*
X131833000Y-44461000D02*
X131843000Y-44471000D01*
X131746000Y-43628000D02*
X131793000Y-43581000D01*
X131843000Y-48714000D02*
X131836000Y-48721000D01*
X131746000Y-44074000D02*
X131733000Y-44061000D01*
X131836000Y-49828000D02*
X131836000Y-48721000D01*
X131843000Y-44471000D02*
X131843000Y-48714000D01*
X131833000Y-50706000D02*
X131833000Y-49831000D01*
X131833000Y-49831000D02*
X131836000Y-49828000D01*
X131843000Y-43841000D02*
X131843000Y-44471000D01*
%TO.N,VDD_RF*%
X140603000Y-49421000D02*
X140603000Y-48771000D01*
X140603000Y-48121000D02*
X139573000Y-48121000D01*
X139573000Y-48121000D02*
X139343000Y-48351000D01*
X138543000Y-48351000D02*
X138453000Y-48261000D01*
X134793000Y-51341000D02*
X134033000Y-52101000D01*
X139343000Y-48351000D02*
X138543000Y-48351000D01*
X134033000Y-52101000D02*
X134033000Y-53291000D01*
X140603000Y-48771000D02*
X140603000Y-48121000D01*
D40*
%TO.N,VBCK*%
X127028000Y-56831000D02*
X127028000Y-53431000D01*
D41*
X141961628Y-63661000D02*
X138683000Y-63661000D01*
X142533000Y-65491000D02*
X142533000Y-64232372D01*
X142533000Y-64232372D02*
X141961628Y-63661000D01*
D38*
X129348000Y-58461000D02*
X127918000Y-58461000D01*
D40*
X127003000Y-56856000D02*
X127028000Y-56831000D01*
D41*
X138683000Y-63661000D02*
X138063000Y-63041000D01*
D38*
X127918000Y-58461000D02*
X127688000Y-58231000D01*
D42*
X127048000Y-58211000D02*
X127048000Y-56976000D01*
D38*
X127688000Y-58231000D02*
X127048000Y-58231000D01*
D42*
%TO.N,RF_IN*%
X131833000Y-51346000D02*
X131833000Y-53291000D01*
%TO.N,ANT_ON*%
X131793000Y-65691000D02*
X131673000Y-65571000D01*
X131177101Y-63696885D02*
X131833000Y-64352784D01*
X124943000Y-50866000D02*
X125838000Y-49971000D01*
X131833000Y-64352784D02*
X131833000Y-65491000D01*
X124943000Y-51171000D02*
X124943000Y-50866000D01*
%TO.N,Net-(J2-Pin_3)*%
X150548000Y-57891528D02*
X145703528Y-62736000D01*
X128928000Y-71686528D02*
X128928000Y-71521000D01*
X141268000Y-62736000D02*
X140893000Y-62361000D01*
X134113000Y-70551000D02*
X132638000Y-72026000D01*
X145703528Y-62736000D02*
X141268000Y-62736000D01*
X150548000Y-48806000D02*
X150548000Y-57891528D01*
X132638000Y-72026000D02*
X129267472Y-72026000D01*
X148003000Y-46261000D02*
X150548000Y-48806000D01*
X129267472Y-72026000D02*
X128928000Y-71686528D01*
%TO.N,Net-(J2-Pin_2)*%
X144843000Y-48151000D02*
X144843000Y-50631000D01*
X136423000Y-52911000D02*
X136423000Y-71876000D01*
X128243000Y-71641528D02*
X128243000Y-71206000D01*
X144193000Y-51281000D02*
X138053000Y-51281000D01*
X138053000Y-51281000D02*
X136423000Y-52911000D01*
X134523000Y-73776000D02*
X130377472Y-73776000D01*
X128243000Y-71206000D02*
X128928000Y-70521000D01*
X144843000Y-50631000D02*
X144193000Y-51281000D01*
X136423000Y-71876000D02*
X134523000Y-73776000D01*
X130377472Y-73776000D02*
X128243000Y-71641528D01*
X148003000Y-44991000D02*
X144843000Y-48151000D01*
%TO.N,Net-(C5-Pad1)*%
X133603000Y-49366000D02*
X135708000Y-49366000D01*
X133138000Y-49831000D02*
X133603000Y-49366000D01*
X132473000Y-49831000D02*
X133138000Y-49831000D01*
X135713000Y-49611000D02*
X136933000Y-50831000D01*
X135708000Y-49366000D02*
X135713000Y-49361000D01*
X135713000Y-49361000D02*
X135713000Y-49611000D01*
%TO.N,Net-(D1-A)*%
X130393000Y-82638500D02*
X130393000Y-81593500D01*
D38*
%TO.N,Net-(D2-K)*%
X126408000Y-58231000D02*
X125725500Y-58913500D01*
X125725500Y-58913500D02*
X125725500Y-61731000D01*
D42*
%TO.N,Net-(IC2-IO)*%
X132993000Y-89221000D02*
X132993000Y-89726000D01*
X131129500Y-90247000D02*
X131129500Y-90097000D01*
X132993000Y-89726000D02*
X134938000Y-91671000D01*
X132005500Y-89221000D02*
X132993000Y-89221000D01*
X131129500Y-90097000D02*
X132005500Y-89221000D01*
%TO.N,Net-(IC3-Y0)*%
X136848000Y-91671000D02*
X135298000Y-93221000D01*
X136848000Y-91671000D02*
X139371000Y-91671000D01*
X135298000Y-93221000D02*
X134513000Y-93221000D01*
%TO.N,Net-(Q1-B)*%
X142493000Y-42701000D02*
X142493000Y-41071000D01*
X125878000Y-50736528D02*
X125878000Y-51121000D01*
X126518000Y-50011000D02*
X126478000Y-49971000D01*
X140303000Y-38881000D02*
X127463000Y-38881000D01*
X126478000Y-50136528D02*
X125878000Y-50736528D01*
X126478000Y-49971000D02*
X126478000Y-50136528D01*
X127463000Y-38881000D02*
X126478000Y-39866000D01*
X142493000Y-41071000D02*
X140303000Y-38881000D01*
X126478000Y-39866000D02*
X126478000Y-49971000D01*
%TO.N,Net-(Q1-C)*%
X139343000Y-48991000D02*
X137913000Y-48991000D01*
X137393000Y-48471000D02*
X137393000Y-46531000D01*
X140603000Y-50071000D02*
X140253000Y-50071000D01*
X140253000Y-50071000D02*
X139343000Y-49161000D01*
X139343000Y-49161000D02*
X139343000Y-48991000D01*
X137393000Y-46531000D02*
X141223000Y-42701000D01*
X137913000Y-48991000D02*
X137393000Y-48471000D01*
%TO.N,Net-(Q2-D)*%
X140823000Y-50831000D02*
X137573000Y-50831000D01*
X142558000Y-49096000D02*
X140823000Y-50831000D01*
%TO.N,Net-(Q3-C)*%
X133893000Y-72921000D02*
X135993000Y-70821000D01*
X135093000Y-55121000D02*
X135093000Y-53379112D01*
X135993000Y-56021000D02*
X135093000Y-55121000D01*
X135093000Y-53379112D02*
X135157056Y-53315056D01*
X135993000Y-70821000D02*
X135993000Y-56021000D01*
%TO.N,Net-(Q3-B)*%
X132093000Y-77771000D02*
X132933000Y-76931000D01*
X132933000Y-76931000D02*
X132933000Y-75021000D01*
%TO.N,Net-(Q5-S)*%
X135373000Y-84621000D02*
X135048000Y-84621000D01*
X143633000Y-67281000D02*
X143633000Y-65491000D01*
X143593000Y-67321000D02*
X143593000Y-69423021D01*
X143593000Y-69423021D02*
X136673000Y-76343021D01*
X143593000Y-67321000D02*
X143633000Y-67281000D01*
X136673000Y-83321000D02*
X135373000Y-84621000D01*
X136673000Y-76343021D02*
X136673000Y-83321000D01*
%TO.N,Net-(R1-Pad2)*%
X130393000Y-84808500D02*
X130393000Y-83278500D01*
%TO.N,Net-(SW1-C)*%
X148493000Y-58501000D02*
X148493000Y-55321000D01*
X148493000Y-55321000D02*
X149443000Y-54371000D01*
%TO.N,Net-(U2-RXD2)*%
X131593000Y-71521000D02*
X133993000Y-69121000D01*
X133993000Y-67321000D02*
X134033000Y-67281000D01*
X134033000Y-67281000D02*
X134033000Y-65491000D01*
X129568000Y-71521000D02*
X131593000Y-71521000D01*
X133993000Y-69121000D02*
X133993000Y-67321000D01*
%TO.N,Net-(U2-TXD2)*%
X132893000Y-68821000D02*
X132893000Y-67321000D01*
X132893000Y-67321000D02*
X132933000Y-67281000D01*
X131193000Y-70521000D02*
X132893000Y-68821000D01*
X129568000Y-70521000D02*
X131193000Y-70521000D01*
X132933000Y-67281000D02*
X132933000Y-65491000D01*
%TO.N,Net-(SW1-B)*%
X141088000Y-51736000D02*
X140638000Y-51736000D01*
X140638000Y-51736000D02*
X140333000Y-52041000D01*
X147143000Y-52621000D02*
X146258000Y-51736000D01*
X141098000Y-51736000D02*
X141093000Y-51731000D01*
X146258000Y-51736000D02*
X141098000Y-51736000D01*
X141093000Y-51731000D02*
X141088000Y-51736000D01*
X139233000Y-53291000D02*
X140333000Y-53291000D01*
X140333000Y-52041000D02*
X140333000Y-53291000D01*
%TD*%
%TA.AperFunction,Conductor*%
%TO.N,GND*%
G36*
X128355731Y-39534185D02*
G01*
X128376373Y-39550819D01*
X128892438Y-40066884D01*
X128890374Y-40067740D01*
X128751156Y-40160762D01*
X128632762Y-40279156D01*
X128539740Y-40418374D01*
X128538884Y-40420438D01*
X127977532Y-39859086D01*
X127974282Y-39862893D01*
X127840636Y-40080984D01*
X127840634Y-40080987D01*
X127742752Y-40317297D01*
X127683042Y-40566010D01*
X127662975Y-40821000D01*
X127683042Y-41075989D01*
X127742752Y-41324702D01*
X127840634Y-41561012D01*
X127840636Y-41561015D01*
X127974277Y-41779098D01*
X127974284Y-41779107D01*
X127977533Y-41782912D01*
X128538884Y-41221560D01*
X128539740Y-41223626D01*
X128632762Y-41362844D01*
X128751156Y-41481238D01*
X128890374Y-41574260D01*
X128892437Y-41575114D01*
X128331087Y-42136465D01*
X128334897Y-42139719D01*
X128552984Y-42273363D01*
X128552987Y-42273365D01*
X128789297Y-42371247D01*
X129038011Y-42430957D01*
X129038010Y-42430957D01*
X129293000Y-42451024D01*
X129547989Y-42430957D01*
X129796702Y-42371247D01*
X130033012Y-42273365D01*
X130033015Y-42273363D01*
X130251095Y-42139724D01*
X130251110Y-42139713D01*
X130254911Y-42136466D01*
X130254911Y-42136464D01*
X129693562Y-41575114D01*
X129695626Y-41574260D01*
X129834844Y-41481238D01*
X129953238Y-41362844D01*
X130046260Y-41223626D01*
X130047114Y-41221561D01*
X130608464Y-41782911D01*
X130608466Y-41782911D01*
X130611713Y-41779110D01*
X130611724Y-41779095D01*
X130745363Y-41561015D01*
X130745365Y-41561012D01*
X130843247Y-41324702D01*
X130902957Y-41075989D01*
X130923024Y-40821000D01*
X130902957Y-40566010D01*
X130843247Y-40317297D01*
X130745365Y-40080987D01*
X130745363Y-40080984D01*
X130611719Y-39862897D01*
X130608465Y-39859087D01*
X130047114Y-40420437D01*
X130046260Y-40418374D01*
X129953238Y-40279156D01*
X129834844Y-40160762D01*
X129695626Y-40067740D01*
X129693561Y-40066884D01*
X130209627Y-39550819D01*
X130270950Y-39517334D01*
X130297308Y-39514500D01*
X133368692Y-39514500D01*
X133435731Y-39534185D01*
X133456373Y-39550819D01*
X133972438Y-40066884D01*
X133970374Y-40067740D01*
X133831156Y-40160762D01*
X133712762Y-40279156D01*
X133619740Y-40418374D01*
X133618884Y-40420438D01*
X133057532Y-39859086D01*
X133054282Y-39862893D01*
X132920636Y-40080984D01*
X132920634Y-40080987D01*
X132822752Y-40317297D01*
X132763042Y-40566010D01*
X132742975Y-40821000D01*
X132763042Y-41075989D01*
X132822752Y-41324702D01*
X132920634Y-41561012D01*
X132920636Y-41561015D01*
X133054277Y-41779098D01*
X133054284Y-41779107D01*
X133057533Y-41782912D01*
X133618884Y-41221560D01*
X133619740Y-41223626D01*
X133712762Y-41362844D01*
X133831156Y-41481238D01*
X133970374Y-41574260D01*
X133972437Y-41575114D01*
X133411087Y-42136465D01*
X133414897Y-42139719D01*
X133632984Y-42273363D01*
X133632987Y-42273365D01*
X133869297Y-42371247D01*
X134118011Y-42430957D01*
X134118010Y-42430957D01*
X134373000Y-42451024D01*
X134627989Y-42430957D01*
X134876702Y-42371247D01*
X135113012Y-42273365D01*
X135113015Y-42273363D01*
X135331095Y-42139724D01*
X135331110Y-42139713D01*
X135334911Y-42136466D01*
X135334911Y-42136464D01*
X134773562Y-41575114D01*
X134775626Y-41574260D01*
X134914844Y-41481238D01*
X135033238Y-41362844D01*
X135126260Y-41223626D01*
X135127114Y-41221561D01*
X135688464Y-41782911D01*
X135688466Y-41782911D01*
X135691713Y-41779110D01*
X135691724Y-41779095D01*
X135825363Y-41561015D01*
X135825365Y-41561012D01*
X135923247Y-41324702D01*
X135982957Y-41075989D01*
X136003024Y-40821000D01*
X135982957Y-40566010D01*
X135923247Y-40317297D01*
X135825365Y-40080987D01*
X135825363Y-40080984D01*
X135691719Y-39862897D01*
X135688465Y-39859087D01*
X135127114Y-40420437D01*
X135126260Y-40418374D01*
X135033238Y-40279156D01*
X134914844Y-40160762D01*
X134775626Y-40067740D01*
X134773561Y-40066884D01*
X135289627Y-39550819D01*
X135350950Y-39517334D01*
X135377308Y-39514500D01*
X139989234Y-39514500D01*
X140056273Y-39534185D01*
X140076915Y-39550819D01*
X141823181Y-41297085D01*
X141856666Y-41358408D01*
X141859500Y-41384766D01*
X141859500Y-41435415D01*
X141839815Y-41502454D01*
X141787011Y-41548209D01*
X141717853Y-41558153D01*
X141688048Y-41549976D01*
X141524465Y-41482218D01*
X141524453Y-41482215D01*
X141324794Y-41442500D01*
X141324791Y-41442500D01*
X141121209Y-41442500D01*
X141121206Y-41442500D01*
X140921546Y-41482215D01*
X140921534Y-41482218D01*
X140733460Y-41560120D01*
X140733447Y-41560127D01*
X140564182Y-41673227D01*
X140564178Y-41673230D01*
X140420230Y-41817178D01*
X140420227Y-41817182D01*
X140307127Y-41986447D01*
X140307120Y-41986460D01*
X140229218Y-42174534D01*
X140229215Y-42174546D01*
X140189500Y-42374204D01*
X140189500Y-42787234D01*
X140169815Y-42854273D01*
X140153181Y-42874915D01*
X136989167Y-46038929D01*
X136964797Y-46063299D01*
X136900927Y-46127168D01*
X136831603Y-46230918D01*
X136831598Y-46230927D01*
X136783845Y-46346214D01*
X136783843Y-46346222D01*
X136759500Y-46468601D01*
X136759500Y-48533398D01*
X136783843Y-48655777D01*
X136783845Y-48655785D01*
X136831598Y-48771072D01*
X136831603Y-48771081D01*
X136900928Y-48874832D01*
X136900931Y-48874836D01*
X137509163Y-49483068D01*
X137509167Y-49483071D01*
X137612918Y-49552396D01*
X137612924Y-49552399D01*
X137612925Y-49552400D01*
X137728215Y-49600155D01*
X137850601Y-49624499D01*
X137850605Y-49624500D01*
X137850606Y-49624500D01*
X137975394Y-49624500D01*
X138857511Y-49624500D01*
X138924550Y-49644185D01*
X138932982Y-49650113D01*
X138936124Y-49652524D01*
X138936126Y-49652525D01*
X138940405Y-49655808D01*
X138952598Y-49666502D01*
X139271915Y-49985819D01*
X139305400Y-50047142D01*
X139300416Y-50116834D01*
X139258544Y-50172767D01*
X139193080Y-50197184D01*
X139184234Y-50197500D01*
X138029770Y-50197500D01*
X137982318Y-50188061D01*
X137861853Y-50138163D01*
X137861851Y-50138162D01*
X137861850Y-50138162D01*
X137742885Y-50122500D01*
X137403113Y-50122500D01*
X137276092Y-50139222D01*
X137275919Y-50137910D01*
X137230079Y-50137910D01*
X137229907Y-50139223D01*
X137221850Y-50138162D01*
X137164791Y-50130650D01*
X137100895Y-50102383D01*
X137093296Y-50095392D01*
X136457818Y-49459914D01*
X136424333Y-49398591D01*
X136421499Y-49372233D01*
X136421499Y-49191114D01*
X136405838Y-49072152D01*
X136405838Y-49072150D01*
X136405825Y-49072120D01*
X136405821Y-49072085D01*
X136403734Y-49064296D01*
X136404759Y-49064021D01*
X136397444Y-49008474D01*
X136408961Y-48921000D01*
X136403276Y-48921000D01*
X136336237Y-48901315D01*
X136304900Y-48872486D01*
X136246988Y-48797014D01*
X136220116Y-48776394D01*
X136177084Y-48743374D01*
X136135884Y-48686948D01*
X136131729Y-48617202D01*
X136165942Y-48556281D01*
X136227659Y-48523529D01*
X136252573Y-48521000D01*
X136408959Y-48521000D01*
X136408960Y-48520998D01*
X136397557Y-48434372D01*
X136397555Y-48434366D01*
X136337100Y-48288414D01*
X136240924Y-48163075D01*
X136115586Y-48066899D01*
X135969631Y-48006444D01*
X135913000Y-47998987D01*
X135913000Y-48498500D01*
X135893315Y-48565539D01*
X135840511Y-48611294D01*
X135789000Y-48622500D01*
X135637000Y-48622500D01*
X135569961Y-48602815D01*
X135524206Y-48550011D01*
X135513000Y-48498500D01*
X135513000Y-47998987D01*
X135456368Y-48006444D01*
X135310413Y-48066899D01*
X135185075Y-48163075D01*
X135088899Y-48288413D01*
X135028445Y-48434365D01*
X135028444Y-48434369D01*
X135013000Y-48551669D01*
X135013000Y-48608500D01*
X134993315Y-48675539D01*
X134940511Y-48721294D01*
X134889000Y-48732500D01*
X134426999Y-48732500D01*
X134359960Y-48712815D01*
X134314205Y-48660011D01*
X134302999Y-48608500D01*
X134302999Y-48556675D01*
X134287557Y-48439371D01*
X134287555Y-48439366D01*
X134227100Y-48293414D01*
X134130924Y-48168075D01*
X134005586Y-48071899D01*
X133859631Y-48011444D01*
X133803000Y-48003987D01*
X133803000Y-48503500D01*
X133783315Y-48570539D01*
X133730511Y-48616294D01*
X133679000Y-48627500D01*
X133527000Y-48627500D01*
X133459961Y-48607815D01*
X133414206Y-48555011D01*
X133403000Y-48503500D01*
X133403000Y-48003987D01*
X133346368Y-48011444D01*
X133200413Y-48071899D01*
X133075075Y-48168075D01*
X132978899Y-48293413D01*
X132918445Y-48439365D01*
X132918444Y-48439369D01*
X132907038Y-48526000D01*
X133063427Y-48526000D01*
X133130466Y-48545685D01*
X133176221Y-48598489D01*
X133186165Y-48667647D01*
X133157140Y-48731203D01*
X133138917Y-48748372D01*
X133109336Y-48771072D01*
X133069011Y-48802014D01*
X133020576Y-48865135D01*
X133014937Y-48872486D01*
X133011100Y-48877486D01*
X132954672Y-48918689D01*
X132912724Y-48926000D01*
X132907041Y-48926000D01*
X132907039Y-48926001D01*
X132917077Y-49002256D01*
X132906310Y-49071291D01*
X132859929Y-49123546D01*
X132792660Y-49142430D01*
X132762053Y-49138216D01*
X132761854Y-49138162D01*
X132642892Y-49122500D01*
X132642885Y-49122500D01*
X132593500Y-49122500D01*
X132526461Y-49102815D01*
X132480706Y-49050011D01*
X132469500Y-48998500D01*
X132469500Y-48823796D01*
X132471882Y-48799607D01*
X132476500Y-48776394D01*
X132476500Y-45901000D01*
X132742975Y-45901000D01*
X132763042Y-46155989D01*
X132822752Y-46404702D01*
X132920634Y-46641012D01*
X132920636Y-46641015D01*
X133054277Y-46859098D01*
X133054284Y-46859107D01*
X133057533Y-46862912D01*
X133618884Y-46301560D01*
X133619740Y-46303626D01*
X133712762Y-46442844D01*
X133831156Y-46561238D01*
X133970374Y-46654260D01*
X133972437Y-46655114D01*
X133411087Y-47216465D01*
X133414897Y-47219719D01*
X133632984Y-47353363D01*
X133632987Y-47353365D01*
X133869297Y-47451247D01*
X134118011Y-47510957D01*
X134118010Y-47510957D01*
X134373000Y-47531024D01*
X134627989Y-47510957D01*
X134876702Y-47451247D01*
X135113012Y-47353365D01*
X135113015Y-47353363D01*
X135331095Y-47219724D01*
X135331110Y-47219713D01*
X135334911Y-47216466D01*
X135334911Y-47216464D01*
X134773562Y-46655114D01*
X134775626Y-46654260D01*
X134914844Y-46561238D01*
X135033238Y-46442844D01*
X135126260Y-46303626D01*
X135127114Y-46301561D01*
X135688464Y-46862911D01*
X135688466Y-46862911D01*
X135691713Y-46859110D01*
X135691724Y-46859095D01*
X135825363Y-46641015D01*
X135825365Y-46641012D01*
X135923247Y-46404702D01*
X135982957Y-46155989D01*
X136003024Y-45901000D01*
X135982957Y-45646010D01*
X135923247Y-45397297D01*
X135825365Y-45160987D01*
X135825363Y-45160984D01*
X135691719Y-44942897D01*
X135688465Y-44939087D01*
X135127114Y-45500437D01*
X135126260Y-45498374D01*
X135033238Y-45359156D01*
X134914844Y-45240762D01*
X134775626Y-45147740D01*
X134773561Y-45146884D01*
X135334912Y-44585533D01*
X135331107Y-44582284D01*
X135331098Y-44582277D01*
X135113015Y-44448636D01*
X135113012Y-44448634D01*
X134876702Y-44350752D01*
X134627988Y-44291042D01*
X134627989Y-44291042D01*
X134373000Y-44270975D01*
X134118010Y-44291042D01*
X133869297Y-44350752D01*
X133632987Y-44448634D01*
X133632984Y-44448636D01*
X133414893Y-44582282D01*
X133411086Y-44585532D01*
X133972438Y-45146884D01*
X133970374Y-45147740D01*
X133831156Y-45240762D01*
X133712762Y-45359156D01*
X133619740Y-45498374D01*
X133618884Y-45500438D01*
X133057532Y-44939086D01*
X133054282Y-44942893D01*
X132920636Y-45160984D01*
X132920634Y-45160987D01*
X132822752Y-45397297D01*
X132763042Y-45646010D01*
X132742975Y-45901000D01*
X132476500Y-45901000D01*
X132476500Y-44834637D01*
X132496185Y-44767598D01*
X132535706Y-44728912D01*
X132737156Y-44605464D01*
X132920701Y-44448701D01*
X133077464Y-44265156D01*
X133203584Y-44059347D01*
X133295955Y-43836343D01*
X133352304Y-43601634D01*
X133371242Y-43361000D01*
X133352304Y-43120366D01*
X133295955Y-42885657D01*
X133286906Y-42863809D01*
X133203584Y-42662652D01*
X133077467Y-42456849D01*
X133077466Y-42456847D01*
X133077465Y-42456846D01*
X133077464Y-42456844D01*
X132920701Y-42273299D01*
X132737156Y-42116536D01*
X132737154Y-42116534D01*
X132737152Y-42116533D01*
X132737150Y-42116532D01*
X132531347Y-41990415D01*
X132308343Y-41898044D01*
X132073630Y-41841695D01*
X132073631Y-41841695D01*
X131833000Y-41822758D01*
X131592368Y-41841695D01*
X131357656Y-41898044D01*
X131134652Y-41990415D01*
X130928849Y-42116532D01*
X130928847Y-42116533D01*
X130745299Y-42273299D01*
X130588533Y-42456847D01*
X130588532Y-42456849D01*
X130462415Y-42662652D01*
X130370044Y-42885656D01*
X130313695Y-43120368D01*
X130294758Y-43361000D01*
X130313695Y-43601631D01*
X130370044Y-43836343D01*
X130462415Y-44059347D01*
X130588532Y-44265150D01*
X130588533Y-44265152D01*
X130588534Y-44265154D01*
X130588536Y-44265156D01*
X130745299Y-44448701D01*
X130928844Y-44605464D01*
X130928846Y-44605465D01*
X130928847Y-44605466D01*
X130928849Y-44605467D01*
X131130287Y-44728909D01*
X131134653Y-44731584D01*
X131134657Y-44731585D01*
X131138993Y-44733795D01*
X131138285Y-44735184D01*
X131187339Y-44774695D01*
X131209420Y-44840984D01*
X131209500Y-44845440D01*
X131209500Y-47984639D01*
X131189815Y-48051678D01*
X131137011Y-48097433D01*
X131128834Y-48100821D01*
X131056911Y-48127646D01*
X131056906Y-48127649D01*
X130941812Y-48213809D01*
X130941809Y-48213812D01*
X130855649Y-48328906D01*
X130855645Y-48328913D01*
X130805403Y-48463620D01*
X130805401Y-48463627D01*
X130799000Y-48523155D01*
X130799000Y-48918844D01*
X130805401Y-48978372D01*
X130805403Y-48978379D01*
X130855645Y-49113086D01*
X130855649Y-49113093D01*
X130941809Y-49228187D01*
X130941812Y-49228190D01*
X131056906Y-49314350D01*
X131056913Y-49314354D01*
X131075123Y-49321146D01*
X131131057Y-49363017D01*
X131155474Y-49428481D01*
X131146351Y-49484780D01*
X131110163Y-49572146D01*
X131110161Y-49572151D01*
X131094500Y-49691114D01*
X131094500Y-49970886D01*
X131110160Y-50089842D01*
X131110163Y-50089853D01*
X131173291Y-50242260D01*
X131180760Y-50311729D01*
X131173292Y-50337163D01*
X131140162Y-50417148D01*
X131124500Y-50536107D01*
X131124500Y-50875886D01*
X131141222Y-51002908D01*
X131139910Y-51003080D01*
X131139911Y-51048921D01*
X131141223Y-51049094D01*
X131124500Y-51176107D01*
X131124500Y-51417482D01*
X131104815Y-51484521D01*
X131052011Y-51530276D01*
X130992400Y-51540445D01*
X130992385Y-51540796D01*
X130992385Y-51541000D01*
X130992375Y-51541000D01*
X130992370Y-51541127D01*
X130989574Y-51541000D01*
X130476417Y-51541000D01*
X130405897Y-51547408D01*
X130405892Y-51547409D01*
X130243603Y-51597981D01*
X130098122Y-51685927D01*
X129977927Y-51806122D01*
X129889981Y-51951603D01*
X129889980Y-51951605D01*
X129856048Y-52060493D01*
X129856048Y-52060495D01*
X130888181Y-53092628D01*
X130921666Y-53153951D01*
X130924500Y-53180309D01*
X130924500Y-53401690D01*
X130904815Y-53468729D01*
X130888181Y-53489371D01*
X129856048Y-54521503D01*
X129856048Y-54521505D01*
X129889980Y-54630394D01*
X129889981Y-54630396D01*
X129977927Y-54775877D01*
X130098122Y-54896072D01*
X130243604Y-54984019D01*
X130243603Y-54984019D01*
X130405894Y-55034590D01*
X130405893Y-55034590D01*
X130476427Y-55040999D01*
X130989581Y-55040999D01*
X131060102Y-55034591D01*
X131060107Y-55034590D01*
X131222390Y-54984021D01*
X131223097Y-54983703D01*
X131223662Y-54983624D01*
X131229560Y-54981787D01*
X131229865Y-54982767D01*
X131292308Y-54974132D01*
X131333188Y-54988869D01*
X131333244Y-54988747D01*
X131334831Y-54989461D01*
X131338157Y-54990660D01*
X131340087Y-54991827D01*
X131504351Y-55043013D01*
X131575735Y-55049500D01*
X132090264Y-55049499D01*
X132090272Y-55049499D01*
X132161645Y-55043014D01*
X132161648Y-55043013D01*
X132161649Y-55043013D01*
X132325913Y-54991827D01*
X132327838Y-54990663D01*
X132329440Y-54990239D01*
X132332753Y-54988749D01*
X132333000Y-54989299D01*
X132395387Y-54972819D01*
X132436312Y-54982193D01*
X132436439Y-54981787D01*
X132441708Y-54983428D01*
X132442896Y-54983701D01*
X132443603Y-54984019D01*
X132605894Y-55034590D01*
X132605893Y-55034590D01*
X132676427Y-55040999D01*
X133189581Y-55040999D01*
X133260102Y-55034591D01*
X133260107Y-55034590D01*
X133422390Y-54984021D01*
X133423097Y-54983703D01*
X133423662Y-54983624D01*
X133429560Y-54981787D01*
X133429865Y-54982767D01*
X133492308Y-54974132D01*
X133533188Y-54988869D01*
X133533244Y-54988747D01*
X133534831Y-54989461D01*
X133538157Y-54990660D01*
X133540087Y-54991827D01*
X133704351Y-55043013D01*
X133775735Y-55049500D01*
X134290264Y-55049499D01*
X134290272Y-55049499D01*
X134324279Y-55046409D01*
X134392825Y-55059946D01*
X134443170Y-55108393D01*
X134459500Y-55169900D01*
X134459500Y-55183398D01*
X134483843Y-55305777D01*
X134483845Y-55305785D01*
X134531598Y-55421072D01*
X134531603Y-55421081D01*
X134600928Y-55524832D01*
X134600931Y-55524836D01*
X135323181Y-56247085D01*
X135356666Y-56308408D01*
X135359500Y-56334766D01*
X135359500Y-63608500D01*
X135339815Y-63675539D01*
X135287011Y-63721294D01*
X135235500Y-63732500D01*
X134875727Y-63732500D01*
X134804354Y-63738985D01*
X134804344Y-63738988D01*
X134640093Y-63790170D01*
X134633891Y-63792962D01*
X134564679Y-63802525D01*
X134532109Y-63792962D01*
X134525914Y-63790173D01*
X134434186Y-63761590D01*
X134361649Y-63738987D01*
X134361647Y-63738986D01*
X134361645Y-63738986D01*
X134311667Y-63734444D01*
X134290265Y-63732500D01*
X134290262Y-63732500D01*
X133775727Y-63732500D01*
X133704354Y-63738985D01*
X133704344Y-63738988D01*
X133540093Y-63790170D01*
X133533891Y-63792962D01*
X133464679Y-63802525D01*
X133432109Y-63792962D01*
X133425914Y-63790173D01*
X133334186Y-63761590D01*
X133261649Y-63738987D01*
X133261647Y-63738986D01*
X133261645Y-63738986D01*
X133211667Y-63734444D01*
X133190265Y-63732500D01*
X133190262Y-63732500D01*
X132675727Y-63732500D01*
X132604354Y-63738985D01*
X132604344Y-63738988D01*
X132440093Y-63790170D01*
X132433891Y-63792962D01*
X132364679Y-63802525D01*
X132332109Y-63792962D01*
X132325914Y-63790173D01*
X132260234Y-63769706D01*
X132170673Y-63741799D01*
X132112527Y-63703062D01*
X132084553Y-63639037D01*
X132084256Y-63636486D01*
X132070643Y-63506957D01*
X132011628Y-63325329D01*
X131916141Y-63159941D01*
X131788354Y-63018019D01*
X131633853Y-62905767D01*
X131459389Y-62828091D01*
X131459387Y-62828090D01*
X131272588Y-62788385D01*
X131081614Y-62788385D01*
X130894815Y-62828090D01*
X130720347Y-62905768D01*
X130565846Y-63018020D01*
X130438060Y-63159942D01*
X130342574Y-63325328D01*
X130342571Y-63325335D01*
X130283560Y-63506953D01*
X130283559Y-63506957D01*
X130263597Y-63696885D01*
X130263597Y-63696887D01*
X130263597Y-63696891D01*
X130264160Y-63702251D01*
X130251587Y-63770980D01*
X130204990Y-63821322D01*
X130098125Y-63885925D01*
X130098121Y-63885928D01*
X129977927Y-64006122D01*
X129889981Y-64151603D01*
X129889980Y-64151605D01*
X129856048Y-64260493D01*
X129856048Y-64260495D01*
X130888181Y-65292628D01*
X130921666Y-65353951D01*
X130924500Y-65380309D01*
X130924500Y-65601690D01*
X130904815Y-65668729D01*
X130888181Y-65689371D01*
X129856048Y-66721503D01*
X129856048Y-66721505D01*
X129889980Y-66830394D01*
X129889981Y-66830396D01*
X129977927Y-66975877D01*
X130098122Y-67096072D01*
X130243604Y-67184019D01*
X130243603Y-67184019D01*
X130405894Y-67234590D01*
X130405893Y-67234590D01*
X130476427Y-67240999D01*
X130989581Y-67240999D01*
X131060102Y-67234591D01*
X131060107Y-67234590D01*
X131222390Y-67184021D01*
X131223097Y-67183703D01*
X131223662Y-67183624D01*
X131229560Y-67181787D01*
X131229865Y-67182767D01*
X131292308Y-67174132D01*
X131333188Y-67188869D01*
X131333244Y-67188747D01*
X131334831Y-67189461D01*
X131338157Y-67190660D01*
X131340087Y-67191827D01*
X131504351Y-67243013D01*
X131575735Y-67249500D01*
X132090264Y-67249499D01*
X132090272Y-67249499D01*
X132124279Y-67246409D01*
X132192825Y-67259946D01*
X132243170Y-67308393D01*
X132259500Y-67369900D01*
X132259500Y-68507234D01*
X132239815Y-68574273D01*
X132223181Y-68594915D01*
X130966915Y-69851181D01*
X130905592Y-69884666D01*
X130879234Y-69887500D01*
X130024770Y-69887500D01*
X129977318Y-69878061D01*
X129856853Y-69828163D01*
X129856851Y-69828162D01*
X129856850Y-69828162D01*
X129737885Y-69812500D01*
X129398113Y-69812500D01*
X129271092Y-69829222D01*
X129270919Y-69827911D01*
X129225079Y-69827911D01*
X129224906Y-69829223D01*
X129216851Y-69828162D01*
X129216850Y-69828162D01*
X129097885Y-69812500D01*
X128758113Y-69812500D01*
X128639157Y-69828160D01*
X128639146Y-69828163D01*
X128491127Y-69889474D01*
X128491124Y-69889475D01*
X128491124Y-69889476D01*
X128364013Y-69987013D01*
X128298922Y-70071841D01*
X128266474Y-70114127D01*
X128205163Y-70262146D01*
X128205162Y-70262151D01*
X128197650Y-70319207D01*
X128169383Y-70383104D01*
X128162393Y-70390702D01*
X127839167Y-70713929D01*
X127812168Y-70740928D01*
X127750927Y-70802168D01*
X127681603Y-70905918D01*
X127681598Y-70905927D01*
X127633845Y-71021214D01*
X127633843Y-71021222D01*
X127609500Y-71143601D01*
X127609500Y-71703926D01*
X127633843Y-71826305D01*
X127633845Y-71826313D01*
X127681598Y-71941600D01*
X127681603Y-71941609D01*
X127750928Y-72045360D01*
X127750931Y-72045364D01*
X129973635Y-74268068D01*
X129973639Y-74268071D01*
X130077390Y-74337396D01*
X130077396Y-74337399D01*
X130077397Y-74337400D01*
X130192687Y-74385155D01*
X130315073Y-74409499D01*
X130315077Y-74409500D01*
X130315078Y-74409500D01*
X130439866Y-74409500D01*
X131975500Y-74409500D01*
X132042539Y-74429185D01*
X132088294Y-74481989D01*
X132099500Y-74533500D01*
X132099500Y-75619654D01*
X132106011Y-75680202D01*
X132106011Y-75680204D01*
X132155575Y-75813086D01*
X132157111Y-75817204D01*
X132244739Y-75934261D01*
X132249805Y-75938053D01*
X132291679Y-75993984D01*
X132299500Y-76037324D01*
X132299500Y-76617233D01*
X132279815Y-76684272D01*
X132263181Y-76704914D01*
X131932702Y-77035392D01*
X131871379Y-77068877D01*
X131861206Y-77070650D01*
X131796093Y-77079222D01*
X131795920Y-77077911D01*
X131750079Y-77077911D01*
X131749906Y-77079223D01*
X131741851Y-77078162D01*
X131741850Y-77078162D01*
X131622885Y-77062500D01*
X131283113Y-77062500D01*
X131164157Y-77078160D01*
X131164146Y-77078163D01*
X131043682Y-77128061D01*
X130996230Y-77137500D01*
X127223744Y-77137500D01*
X127156705Y-77117815D01*
X127122169Y-77084623D01*
X127106678Y-77062500D01*
X127039603Y-76966706D01*
X127039601Y-76966703D01*
X126887296Y-76814398D01*
X126710851Y-76690851D01*
X126710844Y-76690847D01*
X126705555Y-76688381D01*
X126653116Y-76642208D01*
X126633965Y-76575014D01*
X126654182Y-76508133D01*
X126707348Y-76462800D01*
X126757961Y-76452000D01*
X126864138Y-76452000D01*
X126864154Y-76451999D01*
X126891192Y-76449091D01*
X126924701Y-76445489D01*
X127061704Y-76394389D01*
X127178761Y-76306761D01*
X127266389Y-76189704D01*
X127317489Y-76052701D01*
X127323802Y-75993984D01*
X127323999Y-75992154D01*
X127324000Y-75992137D01*
X127324000Y-74449862D01*
X127323999Y-74449845D01*
X127319661Y-74409500D01*
X127317489Y-74389299D01*
X127315943Y-74385155D01*
X127284131Y-74299864D01*
X127266389Y-74252296D01*
X127178761Y-74135239D01*
X127061704Y-74047611D01*
X126924703Y-73996511D01*
X126864154Y-73990000D01*
X126864138Y-73990000D01*
X125321862Y-73990000D01*
X125321845Y-73990000D01*
X125261297Y-73996511D01*
X125261295Y-73996511D01*
X125124295Y-74047611D01*
X125007239Y-74135239D01*
X124919611Y-74252295D01*
X124868511Y-74389295D01*
X124868511Y-74389297D01*
X124862000Y-74449845D01*
X124862000Y-75992154D01*
X124868511Y-76052702D01*
X124868511Y-76052704D01*
X124919611Y-76189704D01*
X125007239Y-76306761D01*
X125124296Y-76394389D01*
X125239449Y-76437339D01*
X125252306Y-76442135D01*
X125261299Y-76445489D01*
X125288550Y-76448418D01*
X125321845Y-76451999D01*
X125321862Y-76452000D01*
X125428039Y-76452000D01*
X125495078Y-76471685D01*
X125540833Y-76524489D01*
X125550777Y-76593647D01*
X125521752Y-76657203D01*
X125480445Y-76688381D01*
X125475155Y-76690847D01*
X125475148Y-76690851D01*
X125298703Y-76814398D01*
X125146398Y-76966703D01*
X125022851Y-77143148D01*
X125022850Y-77143150D01*
X124944614Y-77310928D01*
X124933468Y-77334832D01*
X124931821Y-77338363D01*
X124931817Y-77338372D01*
X124876072Y-77546417D01*
X124876070Y-77546428D01*
X124857298Y-77760998D01*
X124857298Y-77761001D01*
X124876070Y-77975571D01*
X124876072Y-77975582D01*
X124931817Y-78183627D01*
X124931819Y-78183631D01*
X124931820Y-78183635D01*
X124983934Y-78295394D01*
X125022850Y-78378849D01*
X125022851Y-78378851D01*
X125146398Y-78555296D01*
X125298703Y-78707601D01*
X125298706Y-78707603D01*
X125475149Y-78831149D01*
X125604960Y-78891681D01*
X125662726Y-78918618D01*
X125715165Y-78964791D01*
X125734317Y-79031984D01*
X125714101Y-79098865D01*
X125662726Y-79143382D01*
X125475150Y-79230850D01*
X125475148Y-79230851D01*
X125298703Y-79354398D01*
X125146398Y-79506703D01*
X125022851Y-79683148D01*
X125022850Y-79683150D01*
X124931821Y-79878363D01*
X124931817Y-79878372D01*
X124876072Y-80086417D01*
X124876070Y-80086428D01*
X124857298Y-80300998D01*
X124857298Y-80301001D01*
X124876070Y-80515571D01*
X124876072Y-80515582D01*
X124931817Y-80723627D01*
X124931819Y-80723631D01*
X124931820Y-80723635D01*
X124980429Y-80827876D01*
X125022850Y-80918849D01*
X125022851Y-80918851D01*
X125146398Y-81095296D01*
X125298703Y-81247601D01*
X125298706Y-81247603D01*
X125475149Y-81371149D01*
X125510214Y-81387500D01*
X125662726Y-81458618D01*
X125715165Y-81504791D01*
X125734317Y-81571984D01*
X125714101Y-81638865D01*
X125662726Y-81683382D01*
X125475150Y-81770850D01*
X125475148Y-81770851D01*
X125298703Y-81894398D01*
X125146398Y-82046703D01*
X125022851Y-82223148D01*
X125022850Y-82223150D01*
X124931821Y-82418363D01*
X124931817Y-82418372D01*
X124876072Y-82626417D01*
X124876070Y-82626428D01*
X124857298Y-82840998D01*
X124857298Y-82841001D01*
X124876070Y-83055571D01*
X124876072Y-83055582D01*
X124931817Y-83263627D01*
X124931819Y-83263631D01*
X124931820Y-83263635D01*
X124955225Y-83313826D01*
X125022850Y-83458849D01*
X125022851Y-83458851D01*
X125146398Y-83635296D01*
X125298703Y-83787601D01*
X125298706Y-83787603D01*
X125475149Y-83911149D01*
X125585462Y-83962589D01*
X125662726Y-83998618D01*
X125715165Y-84044791D01*
X125734317Y-84111984D01*
X125714101Y-84178865D01*
X125662726Y-84223382D01*
X125475150Y-84310850D01*
X125475148Y-84310851D01*
X125298703Y-84434398D01*
X125146398Y-84586703D01*
X125022851Y-84763148D01*
X125022850Y-84763150D01*
X124931821Y-84958363D01*
X124931817Y-84958372D01*
X124876072Y-85166417D01*
X124876070Y-85166428D01*
X124857298Y-85380998D01*
X124857298Y-85381001D01*
X124876070Y-85595571D01*
X124876072Y-85595582D01*
X124931817Y-85803627D01*
X124931819Y-85803631D01*
X124931820Y-85803635D01*
X125012645Y-85976965D01*
X125022850Y-85998849D01*
X125022851Y-85998851D01*
X125146398Y-86175296D01*
X125298703Y-86327601D01*
X125307538Y-86333787D01*
X125475149Y-86451149D01*
X125600463Y-86509584D01*
X125662726Y-86538618D01*
X125715165Y-86584791D01*
X125734317Y-86651984D01*
X125714101Y-86718865D01*
X125662726Y-86763382D01*
X125475150Y-86850850D01*
X125475148Y-86850851D01*
X125298703Y-86974398D01*
X125146398Y-87126703D01*
X125022851Y-87303148D01*
X125022850Y-87303150D01*
X124931821Y-87498363D01*
X124931817Y-87498372D01*
X124876072Y-87706417D01*
X124876070Y-87706428D01*
X124857298Y-87920998D01*
X124857298Y-87921001D01*
X124876070Y-88135571D01*
X124876072Y-88135582D01*
X124931817Y-88343627D01*
X124931819Y-88343631D01*
X124931820Y-88343635D01*
X124981970Y-88451181D01*
X125022850Y-88538849D01*
X125022851Y-88538851D01*
X125146398Y-88715296D01*
X125298703Y-88867601D01*
X125343038Y-88898644D01*
X125475149Y-88991149D01*
X125620535Y-89058944D01*
X125662726Y-89078618D01*
X125715165Y-89124791D01*
X125734317Y-89191984D01*
X125714101Y-89258865D01*
X125662726Y-89303382D01*
X125475150Y-89390850D01*
X125475148Y-89390851D01*
X125298703Y-89514398D01*
X125146398Y-89666703D01*
X125022851Y-89843148D01*
X125022850Y-89843150D01*
X124931821Y-90038363D01*
X124931817Y-90038372D01*
X124876072Y-90246417D01*
X124876070Y-90246428D01*
X124857298Y-90460998D01*
X124857298Y-90461001D01*
X124876070Y-90675571D01*
X124876072Y-90675582D01*
X124931817Y-90883627D01*
X124931819Y-90883631D01*
X124931820Y-90883635D01*
X124977007Y-90980539D01*
X125022850Y-91078849D01*
X125022851Y-91078851D01*
X125146398Y-91255296D01*
X125298703Y-91407601D01*
X125298706Y-91407603D01*
X125475149Y-91531149D01*
X125670365Y-91622180D01*
X125670368Y-91622180D01*
X125672781Y-91623306D01*
X125725220Y-91669478D01*
X125744372Y-91736672D01*
X125724156Y-91803553D01*
X125672782Y-91848070D01*
X125479410Y-91938242D01*
X125423172Y-91977619D01*
X126008905Y-92563352D01*
X125921429Y-92586792D01*
X125820070Y-92645311D01*
X125737311Y-92728070D01*
X125678792Y-92829429D01*
X125655352Y-92916905D01*
X125069619Y-92331172D01*
X125030241Y-92387412D01*
X124939837Y-92581281D01*
X124939834Y-92581290D01*
X124884473Y-92787901D01*
X124884473Y-92787905D01*
X124865830Y-93000997D01*
X124865830Y-93001002D01*
X124884473Y-93214094D01*
X124884473Y-93214098D01*
X124939834Y-93420709D01*
X124939838Y-93420718D01*
X125030238Y-93614582D01*
X125069620Y-93670825D01*
X125069621Y-93670826D01*
X125655352Y-93085094D01*
X125678792Y-93172571D01*
X125737311Y-93273930D01*
X125820070Y-93356689D01*
X125921429Y-93415208D01*
X126008905Y-93438647D01*
X125423172Y-94024378D01*
X125479417Y-94063761D01*
X125673281Y-94154161D01*
X125673290Y-94154165D01*
X125879903Y-94209526D01*
X126092998Y-94228170D01*
X126093002Y-94228170D01*
X126306094Y-94209526D01*
X126306098Y-94209526D01*
X126512709Y-94154165D01*
X126512718Y-94154161D01*
X126706584Y-94063760D01*
X126706588Y-94063758D01*
X126762826Y-94024379D01*
X126177095Y-93438647D01*
X126264571Y-93415208D01*
X126365930Y-93356689D01*
X126448689Y-93273930D01*
X126507208Y-93172571D01*
X126530647Y-93085094D01*
X127116379Y-93670826D01*
X127155758Y-93614588D01*
X127155760Y-93614584D01*
X127246161Y-93420718D01*
X127246165Y-93420709D01*
X127301526Y-93214098D01*
X127301526Y-93214094D01*
X127320170Y-93001002D01*
X127320170Y-93000997D01*
X127301526Y-92787905D01*
X127301526Y-92787901D01*
X127246165Y-92581290D01*
X127246161Y-92581281D01*
X127155761Y-92387417D01*
X127116377Y-92331172D01*
X126530647Y-92916904D01*
X126507208Y-92829429D01*
X126448689Y-92728070D01*
X126365930Y-92645311D01*
X126264571Y-92586792D01*
X126177095Y-92563352D01*
X126762826Y-91977621D01*
X126762825Y-91977620D01*
X126706582Y-91938238D01*
X126513218Y-91848070D01*
X126460779Y-91801897D01*
X126441627Y-91734704D01*
X126461843Y-91667823D01*
X126513219Y-91623306D01*
X126515631Y-91622180D01*
X126515635Y-91622180D01*
X126710851Y-91531149D01*
X126887294Y-91407603D01*
X127039603Y-91255294D01*
X127163149Y-91078851D01*
X127254180Y-90883635D01*
X127309929Y-90675577D01*
X127320059Y-90559778D01*
X127345511Y-90494711D01*
X127355898Y-90482913D01*
X127692446Y-90146365D01*
X127753767Y-90112882D01*
X127823459Y-90117866D01*
X127879392Y-90159738D01*
X127903809Y-90225202D01*
X127903064Y-90250234D01*
X127897038Y-90296000D01*
X127902724Y-90296000D01*
X127969763Y-90315685D01*
X128001099Y-90344513D01*
X128059013Y-90419987D01*
X128128915Y-90473625D01*
X128170116Y-90530052D01*
X128174271Y-90599798D01*
X128140058Y-90660719D01*
X128078341Y-90693471D01*
X128053427Y-90696000D01*
X127897041Y-90696000D01*
X127897039Y-90696001D01*
X127908442Y-90782627D01*
X127908444Y-90782633D01*
X127968899Y-90928585D01*
X128065075Y-91053924D01*
X128190414Y-91150100D01*
X128336366Y-91210555D01*
X128336372Y-91210557D01*
X128392998Y-91218011D01*
X128393000Y-91218010D01*
X128393000Y-90718499D01*
X128412685Y-90651460D01*
X128465489Y-90605705D01*
X128516996Y-90594499D01*
X128669000Y-90594499D01*
X128736039Y-90614184D01*
X128781794Y-90666988D01*
X128793000Y-90718499D01*
X128793000Y-91218010D01*
X128793001Y-91218011D01*
X128849627Y-91210557D01*
X128849633Y-91210555D01*
X128995585Y-91150100D01*
X129120926Y-91053923D01*
X129207124Y-90941588D01*
X129231560Y-90923744D01*
X129231767Y-90894790D01*
X129235931Y-90883121D01*
X129277555Y-90782631D01*
X129277556Y-90782628D01*
X129281696Y-90751181D01*
X129309961Y-90687284D01*
X129368285Y-90648812D01*
X129438150Y-90647979D01*
X129452087Y-90652803D01*
X129454500Y-90653802D01*
X129861302Y-90247000D01*
X129861302Y-90246999D01*
X129449390Y-89835087D01*
X129403482Y-89840023D01*
X129341003Y-89808747D01*
X129305351Y-89748658D01*
X129301500Y-89717993D01*
X129301500Y-89243500D01*
X129321185Y-89176461D01*
X129373989Y-89130706D01*
X129425500Y-89119500D01*
X130303521Y-89119500D01*
X130812009Y-89119500D01*
X130879048Y-89139185D01*
X130924803Y-89191989D01*
X130934747Y-89261147D01*
X130905722Y-89324703D01*
X130846944Y-89362477D01*
X130825265Y-89366789D01*
X130795297Y-89370011D01*
X130795296Y-89370011D01*
X130685672Y-89410899D01*
X130615981Y-89415883D01*
X130599006Y-89410899D01*
X130511879Y-89378403D01*
X130511872Y-89378401D01*
X130452344Y-89372000D01*
X129906655Y-89372000D01*
X129847127Y-89378401D01*
X129847120Y-89378403D01*
X129712413Y-89428645D01*
X129712410Y-89428647D01*
X129693501Y-89442803D01*
X129693500Y-89442803D01*
X130179500Y-89928802D01*
X130359681Y-90108983D01*
X130393166Y-90170306D01*
X130396000Y-90196664D01*
X130396000Y-90297336D01*
X130376315Y-90364375D01*
X130359681Y-90385017D01*
X129662508Y-91082189D01*
X129601185Y-91115674D01*
X129531493Y-91110690D01*
X129492295Y-91087052D01*
X129429500Y-91031050D01*
X129429500Y-92594844D01*
X129435901Y-92654372D01*
X129435903Y-92654383D01*
X129448608Y-92688445D01*
X129453592Y-92758136D01*
X129453105Y-92760282D01*
X129452511Y-92762795D01*
X129446000Y-92823345D01*
X129446000Y-93670654D01*
X129452511Y-93731202D01*
X129452511Y-93731204D01*
X129498499Y-93854499D01*
X129503611Y-93868204D01*
X129591239Y-93985261D01*
X129708296Y-94072889D01*
X129845299Y-94123989D01*
X129872550Y-94126918D01*
X129905845Y-94130499D01*
X129905862Y-94130500D01*
X130453138Y-94130500D01*
X130453154Y-94130499D01*
X130513701Y-94123989D01*
X130611166Y-94087636D01*
X130680857Y-94082652D01*
X130697834Y-94087636D01*
X130795298Y-94123989D01*
X130855845Y-94130499D01*
X130855862Y-94130500D01*
X131403138Y-94130500D01*
X131403154Y-94130499D01*
X131463701Y-94123989D01*
X131561166Y-94087636D01*
X131630857Y-94082652D01*
X131647834Y-94087636D01*
X131745298Y-94123989D01*
X131805845Y-94130499D01*
X131805862Y-94130500D01*
X132353138Y-94130500D01*
X132353154Y-94130499D01*
X132380192Y-94127591D01*
X132413701Y-94123989D01*
X132550704Y-94072889D01*
X132667761Y-93985261D01*
X132667761Y-93985259D01*
X132674477Y-93980233D01*
X132739942Y-93955816D01*
X132748788Y-93955500D01*
X133916782Y-93955500D01*
X133985221Y-93941886D01*
X134052589Y-93928486D01*
X134060508Y-93927178D01*
X134161850Y-93913838D01*
X134161850Y-93913837D01*
X134169910Y-93912777D01*
X134170083Y-93914094D01*
X134215919Y-93914091D01*
X134216093Y-93912777D01*
X134224148Y-93913837D01*
X134224150Y-93913838D01*
X134343115Y-93929500D01*
X134682884Y-93929499D01*
X134682886Y-93929499D01*
X134801842Y-93913839D01*
X134801841Y-93913839D01*
X134801850Y-93913838D01*
X134912021Y-93868204D01*
X134922318Y-93863939D01*
X134969770Y-93854500D01*
X135360395Y-93854500D01*
X135360396Y-93854499D01*
X135482785Y-93830155D01*
X135598075Y-93782400D01*
X135701833Y-93713071D01*
X136574085Y-92840819D01*
X136635408Y-92807334D01*
X136661766Y-92804500D01*
X137196638Y-92804500D01*
X137196654Y-92804499D01*
X137223692Y-92801591D01*
X137257201Y-92797989D01*
X137394204Y-92746889D01*
X137511261Y-92659261D01*
X137598889Y-92542204D01*
X137649989Y-92405201D01*
X137649989Y-92405195D01*
X137651220Y-92399992D01*
X137685790Y-92339274D01*
X137747698Y-92306884D01*
X137771898Y-92304500D01*
X138364212Y-92304500D01*
X138431251Y-92324185D01*
X138438523Y-92329233D01*
X138445238Y-92334259D01*
X138445239Y-92334261D01*
X138562296Y-92421889D01*
X138699299Y-92472989D01*
X138726550Y-92475918D01*
X138759845Y-92479499D01*
X138759862Y-92479500D01*
X139982138Y-92479500D01*
X139982154Y-92479499D01*
X140009192Y-92476591D01*
X140042701Y-92472989D01*
X140179704Y-92421889D01*
X140296761Y-92334261D01*
X140384389Y-92217204D01*
X140435489Y-92080201D01*
X140439091Y-92046692D01*
X140441999Y-92019654D01*
X140442000Y-92019637D01*
X140442000Y-91322362D01*
X140441999Y-91322345D01*
X140435489Y-91261801D01*
X140435489Y-91261799D01*
X140422572Y-91227170D01*
X140417589Y-91157480D01*
X140422575Y-91140501D01*
X140427098Y-91128375D01*
X140427726Y-91125718D01*
X140428779Y-91123868D01*
X140429810Y-91121105D01*
X140430257Y-91121272D01*
X140462300Y-91065003D01*
X140524211Y-91032618D01*
X140593803Y-91038845D01*
X140636083Y-91066554D01*
X140840853Y-91271325D01*
X140840856Y-91271327D01*
X140840857Y-91271328D01*
X140868889Y-91290058D01*
X140913695Y-91343669D01*
X140924000Y-91393161D01*
X140924000Y-92019654D01*
X140930511Y-92080202D01*
X140930511Y-92080204D01*
X140971387Y-92189794D01*
X140981611Y-92217204D01*
X141069239Y-92334261D01*
X141186296Y-92421889D01*
X141323299Y-92472989D01*
X141350550Y-92475918D01*
X141383845Y-92479499D01*
X141383862Y-92479500D01*
X142606138Y-92479500D01*
X142606154Y-92479499D01*
X142633192Y-92476591D01*
X142666701Y-92472989D01*
X142803704Y-92421889D01*
X142920761Y-92334261D01*
X142920761Y-92334259D01*
X142927477Y-92329233D01*
X142992942Y-92304816D01*
X143001788Y-92304500D01*
X143025395Y-92304500D01*
X143025396Y-92304499D01*
X143147785Y-92280155D01*
X143247289Y-92238939D01*
X143294742Y-92229500D01*
X143408487Y-92229500D01*
X143595288Y-92189794D01*
X143769752Y-92112118D01*
X143924253Y-91999866D01*
X144052040Y-91857944D01*
X144147527Y-91692556D01*
X144206542Y-91510928D01*
X144226504Y-91321000D01*
X144206542Y-91131072D01*
X144147527Y-90949444D01*
X144065285Y-90806998D01*
X144048813Y-90739099D01*
X144071666Y-90673072D01*
X144126587Y-90629881D01*
X144172673Y-90620999D01*
X144182324Y-90620999D01*
X144299628Y-90605557D01*
X144299633Y-90605555D01*
X144445585Y-90545100D01*
X144570924Y-90448924D01*
X144667100Y-90323586D01*
X144727555Y-90177631D01*
X144735012Y-90121000D01*
X144235500Y-90121000D01*
X144168461Y-90101315D01*
X144122706Y-90048511D01*
X144111500Y-89997001D01*
X144111499Y-89845001D01*
X144131183Y-89777961D01*
X144183987Y-89732206D01*
X144235499Y-89721000D01*
X144735010Y-89721000D01*
X144735011Y-89720998D01*
X144727557Y-89664372D01*
X144727555Y-89664366D01*
X144667100Y-89518414D01*
X144570924Y-89393075D01*
X144445586Y-89296899D01*
X144299631Y-89236444D01*
X144213000Y-89225038D01*
X144213000Y-89381426D01*
X144193315Y-89448465D01*
X144140511Y-89494220D01*
X144071353Y-89504164D01*
X144007797Y-89475139D01*
X143990625Y-89456913D01*
X143948613Y-89402163D01*
X143923418Y-89336994D01*
X143922988Y-89326676D01*
X143922988Y-87706255D01*
X143942673Y-87639216D01*
X143995477Y-87593461D01*
X144064635Y-87583517D01*
X144128191Y-87612542D01*
X144134669Y-87618574D01*
X146129162Y-89613069D01*
X146129166Y-89613072D01*
X146232920Y-89682399D01*
X146232922Y-89682399D01*
X146232924Y-89682401D01*
X146325525Y-89720757D01*
X146348214Y-89730155D01*
X146348216Y-89730155D01*
X146348221Y-89730157D01*
X146470600Y-89754499D01*
X146470604Y-89754500D01*
X146470605Y-89754500D01*
X147729548Y-89754500D01*
X147796587Y-89774185D01*
X147842342Y-89826989D01*
X147852286Y-89896147D01*
X147841930Y-89930905D01*
X147791820Y-90038363D01*
X147791817Y-90038372D01*
X147736072Y-90246417D01*
X147736070Y-90246428D01*
X147717298Y-90460998D01*
X147717298Y-90461001D01*
X147736070Y-90675571D01*
X147736072Y-90675582D01*
X147791817Y-90883627D01*
X147791819Y-90883631D01*
X147791820Y-90883635D01*
X147837007Y-90980539D01*
X147882850Y-91078849D01*
X147882851Y-91078851D01*
X148006398Y-91255296D01*
X148158703Y-91407601D01*
X148158706Y-91407603D01*
X148335149Y-91531149D01*
X148530365Y-91622180D01*
X148530368Y-91622180D01*
X148532781Y-91623306D01*
X148585220Y-91669478D01*
X148604372Y-91736672D01*
X148584156Y-91803553D01*
X148532782Y-91848070D01*
X148339410Y-91938242D01*
X148283172Y-91977619D01*
X148868905Y-92563352D01*
X148781429Y-92586792D01*
X148680070Y-92645311D01*
X148597311Y-92728070D01*
X148538792Y-92829429D01*
X148515352Y-92916905D01*
X147929619Y-92331172D01*
X147890241Y-92387412D01*
X147799837Y-92581281D01*
X147799834Y-92581290D01*
X147744473Y-92787901D01*
X147744473Y-92787905D01*
X147725830Y-93000997D01*
X147725830Y-93001002D01*
X147744473Y-93214094D01*
X147744473Y-93214098D01*
X147799834Y-93420709D01*
X147799838Y-93420718D01*
X147890238Y-93614582D01*
X147929620Y-93670825D01*
X147929621Y-93670826D01*
X148515352Y-93085094D01*
X148538792Y-93172571D01*
X148597311Y-93273930D01*
X148680070Y-93356689D01*
X148781429Y-93415208D01*
X148868905Y-93438647D01*
X148283172Y-94024378D01*
X148339417Y-94063761D01*
X148533281Y-94154161D01*
X148533290Y-94154165D01*
X148739903Y-94209526D01*
X148952998Y-94228170D01*
X148953002Y-94228170D01*
X149166094Y-94209526D01*
X149166098Y-94209526D01*
X149372709Y-94154165D01*
X149372718Y-94154161D01*
X149566584Y-94063760D01*
X149566588Y-94063758D01*
X149622826Y-94024379D01*
X149037095Y-93438647D01*
X149124571Y-93415208D01*
X149225930Y-93356689D01*
X149308689Y-93273930D01*
X149367208Y-93172571D01*
X149390647Y-93085094D01*
X149976379Y-93670826D01*
X150015758Y-93614588D01*
X150015760Y-93614584D01*
X150106161Y-93420718D01*
X150106165Y-93420709D01*
X150161526Y-93214098D01*
X150161526Y-93214094D01*
X150180170Y-93001002D01*
X150180170Y-93000997D01*
X150161526Y-92787905D01*
X150161526Y-92787901D01*
X150106165Y-92581290D01*
X150106161Y-92581281D01*
X150015761Y-92387417D01*
X149976377Y-92331172D01*
X149390647Y-92916904D01*
X149367208Y-92829429D01*
X149308689Y-92728070D01*
X149225930Y-92645311D01*
X149124571Y-92586792D01*
X149037095Y-92563352D01*
X149622826Y-91977621D01*
X149622825Y-91977620D01*
X149566582Y-91938238D01*
X149373218Y-91848070D01*
X149320779Y-91801897D01*
X149301627Y-91734704D01*
X149321843Y-91667823D01*
X149373219Y-91623306D01*
X149375631Y-91622180D01*
X149375635Y-91622180D01*
X149570851Y-91531149D01*
X149747294Y-91407603D01*
X149899603Y-91255294D01*
X150023149Y-91078851D01*
X150114180Y-90883635D01*
X150169929Y-90675577D01*
X150188702Y-90461000D01*
X150187645Y-90448924D01*
X150176153Y-90317568D01*
X150169929Y-90246423D01*
X150114180Y-90038365D01*
X150023149Y-89843149D01*
X149937620Y-89721000D01*
X149896498Y-89662271D01*
X149898003Y-89661216D01*
X149873266Y-89604698D01*
X149884304Y-89535705D01*
X149908587Y-89501316D01*
X150165833Y-89244071D01*
X150485071Y-88924833D01*
X150554400Y-88821075D01*
X150602155Y-88705785D01*
X150626500Y-88583394D01*
X150626500Y-88458606D01*
X150626500Y-86358606D01*
X150602155Y-86236215D01*
X150554400Y-86120925D01*
X150554399Y-86120924D01*
X150554396Y-86120918D01*
X150485072Y-86017168D01*
X150466753Y-85998849D01*
X150396833Y-85928929D01*
X150198056Y-85730152D01*
X150164571Y-85668829D01*
X150165963Y-85610374D01*
X150169929Y-85595577D01*
X150188702Y-85381000D01*
X150169929Y-85166423D01*
X150114180Y-84958365D01*
X150023149Y-84763149D01*
X149923579Y-84620947D01*
X149899601Y-84586703D01*
X149747296Y-84434398D01*
X149570851Y-84310851D01*
X149570849Y-84310850D01*
X149516280Y-84285404D01*
X149383272Y-84223381D01*
X149330834Y-84177210D01*
X149311682Y-84110016D01*
X149331898Y-84043135D01*
X149383272Y-83998618D01*
X149570851Y-83911149D01*
X149747294Y-83787603D01*
X149899603Y-83635294D01*
X150023149Y-83458851D01*
X150114180Y-83263635D01*
X150169929Y-83055577D01*
X150188702Y-82841000D01*
X150185848Y-82808384D01*
X150169929Y-82626428D01*
X150169929Y-82626423D01*
X150114180Y-82418365D01*
X150023149Y-82223149D01*
X149899603Y-82046706D01*
X149899601Y-82046703D01*
X149747296Y-81894398D01*
X149570851Y-81770851D01*
X149570849Y-81770850D01*
X149539121Y-81756055D01*
X149383272Y-81683381D01*
X149330834Y-81637210D01*
X149311682Y-81570016D01*
X149331898Y-81503135D01*
X149383272Y-81458618D01*
X149570851Y-81371149D01*
X149747294Y-81247603D01*
X149899603Y-81095294D01*
X150023149Y-80918851D01*
X150114180Y-80723635D01*
X150169929Y-80515577D01*
X150188702Y-80301000D01*
X150169929Y-80086423D01*
X150114180Y-79878365D01*
X150023149Y-79683149D01*
X149899603Y-79506706D01*
X149899601Y-79506703D01*
X149747296Y-79354398D01*
X149570851Y-79230851D01*
X149570849Y-79230850D01*
X149513029Y-79203888D01*
X149383272Y-79143381D01*
X149330834Y-79097210D01*
X149311682Y-79030016D01*
X149331898Y-78963135D01*
X149383272Y-78918618D01*
X149570851Y-78831149D01*
X149747294Y-78707603D01*
X149899603Y-78555294D01*
X150023149Y-78378851D01*
X150114180Y-78183635D01*
X150169929Y-77975577D01*
X150188702Y-77761000D01*
X150169929Y-77546423D01*
X150114180Y-77338365D01*
X150023149Y-77143149D01*
X149899603Y-76966706D01*
X149899601Y-76966703D01*
X149747296Y-76814398D01*
X149570851Y-76690851D01*
X149570849Y-76690850D01*
X149412977Y-76617233D01*
X149383272Y-76603381D01*
X149330834Y-76557210D01*
X149311682Y-76490016D01*
X149331898Y-76423135D01*
X149383272Y-76378618D01*
X149570851Y-76291149D01*
X149747294Y-76167603D01*
X149899603Y-76015294D01*
X150023149Y-75838851D01*
X150114180Y-75643635D01*
X150169929Y-75435577D01*
X150188702Y-75221000D01*
X150169929Y-75006423D01*
X150114180Y-74798365D01*
X150023149Y-74603149D01*
X149899603Y-74426706D01*
X149899601Y-74426703D01*
X149747296Y-74274398D01*
X149570851Y-74150851D01*
X149570849Y-74150850D01*
X149537371Y-74135239D01*
X149375635Y-74059820D01*
X149375631Y-74059819D01*
X149375627Y-74059817D01*
X149167582Y-74004072D01*
X149167578Y-74004071D01*
X149167577Y-74004071D01*
X149167576Y-74004070D01*
X149167571Y-74004070D01*
X148953002Y-73985298D01*
X148952998Y-73985298D01*
X148738428Y-74004070D01*
X148738417Y-74004072D01*
X148530372Y-74059817D01*
X148530363Y-74059821D01*
X148335150Y-74150850D01*
X148335148Y-74150851D01*
X148158703Y-74274398D01*
X148006398Y-74426703D01*
X147882851Y-74603148D01*
X147882850Y-74603150D01*
X147791821Y-74798363D01*
X147791817Y-74798372D01*
X147736072Y-75006417D01*
X147736070Y-75006428D01*
X147717298Y-75220998D01*
X147717298Y-75221001D01*
X147736070Y-75435571D01*
X147736072Y-75435582D01*
X147791817Y-75643627D01*
X147791819Y-75643631D01*
X147791820Y-75643635D01*
X147832591Y-75731068D01*
X147882850Y-75838849D01*
X147882851Y-75838851D01*
X148006398Y-76015296D01*
X148158703Y-76167601D01*
X148158706Y-76167603D01*
X148335149Y-76291149D01*
X148480535Y-76358944D01*
X148522726Y-76378618D01*
X148575165Y-76424791D01*
X148594317Y-76491984D01*
X148574101Y-76558865D01*
X148522726Y-76603382D01*
X148335150Y-76690850D01*
X148335148Y-76690851D01*
X148158703Y-76814398D01*
X148006398Y-76966703D01*
X147882851Y-77143148D01*
X147882850Y-77143150D01*
X147804614Y-77310928D01*
X147793468Y-77334832D01*
X147791821Y-77338363D01*
X147791817Y-77338372D01*
X147736072Y-77546417D01*
X147736070Y-77546428D01*
X147717298Y-77760998D01*
X147717298Y-77761001D01*
X147736070Y-77975571D01*
X147736072Y-77975582D01*
X147791817Y-78183627D01*
X147791819Y-78183631D01*
X147791820Y-78183635D01*
X147843934Y-78295394D01*
X147882850Y-78378849D01*
X147882851Y-78378851D01*
X148006398Y-78555296D01*
X148158703Y-78707601D01*
X148158706Y-78707603D01*
X148335149Y-78831149D01*
X148464960Y-78891681D01*
X148522726Y-78918618D01*
X148575165Y-78964791D01*
X148594317Y-79031984D01*
X148574101Y-79098865D01*
X148522726Y-79143382D01*
X148335150Y-79230850D01*
X148335148Y-79230851D01*
X148158705Y-79354396D01*
X148154251Y-79358851D01*
X148092926Y-79392332D01*
X148023234Y-79387343D01*
X147967303Y-79345468D01*
X147944945Y-79285515D01*
X147943529Y-79285702D01*
X147927557Y-79164371D01*
X147927555Y-79164366D01*
X147867100Y-79018414D01*
X147770924Y-78893075D01*
X147645586Y-78796899D01*
X147499631Y-78736444D01*
X147413000Y-78725038D01*
X147413000Y-78881426D01*
X147393315Y-78948465D01*
X147340511Y-78994220D01*
X147271353Y-79004164D01*
X147207797Y-78975139D01*
X147190625Y-78956913D01*
X147136987Y-78887012D01*
X147061513Y-78829098D01*
X147020310Y-78772670D01*
X147013000Y-78730723D01*
X147013000Y-78725038D01*
X147012999Y-78725038D01*
X146925524Y-78736555D01*
X146869975Y-78729242D01*
X146869701Y-78730266D01*
X146861927Y-78728183D01*
X146861889Y-78728178D01*
X146861853Y-78728163D01*
X146861851Y-78728162D01*
X146861850Y-78728162D01*
X146742885Y-78712500D01*
X146403113Y-78712500D01*
X146284157Y-78728160D01*
X146284146Y-78728163D01*
X146136127Y-78789474D01*
X146136124Y-78789475D01*
X146136124Y-78789476D01*
X146064768Y-78844230D01*
X146009013Y-78887013D01*
X145911473Y-79014127D01*
X145885999Y-79075627D01*
X145842158Y-79130030D01*
X145775863Y-79152094D01*
X145708164Y-79134814D01*
X145683758Y-79115854D01*
X142539620Y-75971716D01*
X142506135Y-75910393D01*
X142503983Y-75897015D01*
X142486542Y-75731072D01*
X142427527Y-75549444D01*
X142332040Y-75384056D01*
X142204253Y-75242134D01*
X142049752Y-75129882D01*
X141875288Y-75052206D01*
X141875286Y-75052205D01*
X141688487Y-75012500D01*
X141497513Y-75012500D01*
X141310714Y-75052205D01*
X141136246Y-75129883D01*
X140981745Y-75242135D01*
X140853959Y-75384057D01*
X140758473Y-75549443D01*
X140758470Y-75549450D01*
X140715986Y-75680204D01*
X140699458Y-75731072D01*
X140679496Y-75921000D01*
X140695738Y-76075540D01*
X140683170Y-76144268D01*
X140635438Y-76195292D01*
X140572418Y-76212500D01*
X140397513Y-76212500D01*
X140210714Y-76252205D01*
X140036246Y-76329883D01*
X139881745Y-76442135D01*
X139753959Y-76584057D01*
X139658473Y-76749443D01*
X139658470Y-76749450D01*
X139619754Y-76868607D01*
X139599458Y-76931072D01*
X139579496Y-77121000D01*
X139599458Y-77310928D01*
X139599459Y-77310931D01*
X139658470Y-77492549D01*
X139658473Y-77492556D01*
X139753960Y-77657944D01*
X139881747Y-77799866D01*
X140036248Y-77912118D01*
X140210712Y-77989794D01*
X140226518Y-77993153D01*
X140236281Y-77995229D01*
X140297763Y-78028421D01*
X140331539Y-78089584D01*
X140334500Y-78116519D01*
X140334500Y-79456143D01*
X140334500Y-81756143D01*
X140334500Y-81885857D01*
X140334500Y-81885859D01*
X140334499Y-81885859D01*
X140359804Y-82013071D01*
X140359806Y-82013077D01*
X140409443Y-82132913D01*
X140409447Y-82132920D01*
X140481510Y-82240771D01*
X140769860Y-82529121D01*
X140803345Y-82590444D01*
X140798361Y-82660136D01*
X140783818Y-82685448D01*
X140784893Y-82686166D01*
X140735827Y-82759599D01*
X140735827Y-82759600D01*
X140709443Y-82799085D01*
X140709442Y-82799087D01*
X140659807Y-82918918D01*
X140659804Y-82918928D01*
X140634500Y-83046140D01*
X140634500Y-83046143D01*
X140634500Y-84857027D01*
X140634500Y-84986741D01*
X140634500Y-84986743D01*
X140634499Y-84986743D01*
X140659804Y-85113955D01*
X140659806Y-85113961D01*
X140709443Y-85233797D01*
X140709447Y-85233804D01*
X140781510Y-85341655D01*
X140781511Y-85341656D01*
X141676655Y-86236799D01*
X141676138Y-86237315D01*
X141694509Y-86257586D01*
X141742671Y-86329665D01*
X141742674Y-86329669D01*
X142280324Y-86867317D01*
X142313809Y-86928640D01*
X142315963Y-86942029D01*
X142320946Y-86989439D01*
X142320947Y-86989441D01*
X142320947Y-86989443D01*
X142379958Y-87171060D01*
X142379961Y-87171067D01*
X142475447Y-87336454D01*
X142479266Y-87341710D01*
X142477851Y-87342738D01*
X142504368Y-87397991D01*
X142505988Y-87417972D01*
X142505988Y-87738722D01*
X142486303Y-87805761D01*
X142433499Y-87851516D01*
X142364341Y-87861460D01*
X142300785Y-87832435D01*
X142294307Y-87826403D01*
X139639620Y-85171716D01*
X139606135Y-85110393D01*
X139603983Y-85097015D01*
X139586542Y-84931072D01*
X139527527Y-84749444D01*
X139432040Y-84584056D01*
X139304253Y-84442134D01*
X139149752Y-84329882D01*
X138975288Y-84252206D01*
X138975286Y-84252205D01*
X138788487Y-84212500D01*
X138597513Y-84212500D01*
X138589972Y-84214102D01*
X138571277Y-84218076D01*
X138501610Y-84212758D01*
X138445878Y-84170619D01*
X138421775Y-84105039D01*
X138421500Y-84096785D01*
X138421500Y-79071764D01*
X138436142Y-79013310D01*
X138436759Y-79012155D01*
X138449241Y-78988804D01*
X138506908Y-78798701D01*
X138526380Y-78601000D01*
X138506908Y-78403299D01*
X138449241Y-78213196D01*
X138449239Y-78213193D01*
X138449239Y-78213191D01*
X138355598Y-78038001D01*
X138355594Y-78037994D01*
X138229568Y-77884431D01*
X138076005Y-77758405D01*
X138075998Y-77758401D01*
X137900808Y-77664760D01*
X137805752Y-77635925D01*
X137710701Y-77607092D01*
X137710699Y-77607091D01*
X137710701Y-77607091D01*
X137530725Y-77589365D01*
X137513000Y-77587620D01*
X137512999Y-77587620D01*
X137442653Y-77594548D01*
X137374007Y-77581529D01*
X137323297Y-77533463D01*
X137306500Y-77471145D01*
X137306500Y-76656787D01*
X137326185Y-76589748D01*
X137342819Y-76569106D01*
X144085068Y-69826857D01*
X144085071Y-69826854D01*
X144154400Y-69723096D01*
X144202155Y-69607806D01*
X144226500Y-69485415D01*
X144226500Y-69360627D01*
X144226500Y-67528243D01*
X144235939Y-67480790D01*
X144242155Y-67465784D01*
X144258544Y-67383394D01*
X144266500Y-67343394D01*
X144267689Y-67337418D01*
X144269415Y-67337761D01*
X144292436Y-67280712D01*
X144349460Y-67240339D01*
X144400919Y-67234138D01*
X144476428Y-67240999D01*
X144989581Y-67240999D01*
X145060102Y-67234591D01*
X145060107Y-67234590D01*
X145222396Y-67184018D01*
X145367877Y-67096072D01*
X145488072Y-66975877D01*
X145576019Y-66830395D01*
X145609950Y-66721505D01*
X145609950Y-66721503D01*
X144577818Y-65689371D01*
X144544333Y-65628048D01*
X144541499Y-65601695D01*
X144541499Y-65490999D01*
X145086553Y-65490999D01*
X145086553Y-65491000D01*
X145632998Y-66037446D01*
X145632999Y-66037445D01*
X145632999Y-64944553D01*
X145632998Y-64944552D01*
X145086553Y-65490999D01*
X144541499Y-65490999D01*
X144541499Y-65380307D01*
X144561184Y-65313270D01*
X144577818Y-65292627D01*
X144733000Y-65137446D01*
X145609950Y-64260495D01*
X145609950Y-64260493D01*
X145576020Y-64151606D01*
X145576018Y-64151603D01*
X145488072Y-64006122D01*
X145367877Y-63885927D01*
X145222395Y-63797980D01*
X145222396Y-63797980D01*
X145060105Y-63747409D01*
X145060106Y-63747409D01*
X144989572Y-63741000D01*
X144476417Y-63741000D01*
X144405897Y-63747408D01*
X144405892Y-63747409D01*
X144243600Y-63797982D01*
X144242878Y-63798307D01*
X144242302Y-63798386D01*
X144236441Y-63800213D01*
X144236137Y-63799237D01*
X144173665Y-63807863D01*
X144132806Y-63793130D01*
X144132752Y-63793251D01*
X144131193Y-63792549D01*
X144127850Y-63791344D01*
X144125913Y-63790173D01*
X143961649Y-63738987D01*
X143961647Y-63738986D01*
X143961645Y-63738986D01*
X143911667Y-63734444D01*
X143890265Y-63732500D01*
X143890262Y-63732500D01*
X143375725Y-63732500D01*
X143375724Y-63732501D01*
X143369836Y-63733036D01*
X143301290Y-63719498D01*
X143255514Y-63678434D01*
X143238679Y-63653238D01*
X143238675Y-63653233D01*
X143166623Y-63581181D01*
X143133138Y-63519858D01*
X143138122Y-63450166D01*
X143179994Y-63394233D01*
X143245458Y-63369816D01*
X143254304Y-63369500D01*
X145765923Y-63369500D01*
X145765924Y-63369499D01*
X145888313Y-63345155D01*
X146003603Y-63297400D01*
X146107361Y-63228071D01*
X150975846Y-58359586D01*
X151037169Y-58326101D01*
X151106861Y-58331085D01*
X151162794Y-58372957D01*
X151187211Y-58438421D01*
X151187527Y-58447184D01*
X151199884Y-76820734D01*
X151199884Y-76820859D01*
X151193042Y-96897042D01*
X151173335Y-96964075D01*
X151120515Y-97009812D01*
X151069042Y-97021000D01*
X123967042Y-97021000D01*
X123900003Y-97001315D01*
X123854248Y-96948511D01*
X123843042Y-96896958D01*
X123843953Y-94228170D01*
X123855267Y-61082345D01*
X124617000Y-61082345D01*
X124617000Y-62379654D01*
X124623511Y-62440202D01*
X124623511Y-62440204D01*
X124667709Y-62558700D01*
X124674611Y-62577204D01*
X124762239Y-62694261D01*
X124879296Y-62781889D01*
X125016299Y-62832989D01*
X125043550Y-62835918D01*
X125076845Y-62839499D01*
X125076862Y-62839500D01*
X126374138Y-62839500D01*
X126374154Y-62839499D01*
X126401192Y-62836591D01*
X126434701Y-62832989D01*
X126571704Y-62781889D01*
X126688761Y-62694261D01*
X126776389Y-62577204D01*
X126827489Y-62440201D01*
X126831091Y-62406692D01*
X126833999Y-62379654D01*
X126834000Y-62379637D01*
X126834000Y-61082362D01*
X126833999Y-61082345D01*
X127417000Y-61082345D01*
X127417000Y-62379654D01*
X127423511Y-62440202D01*
X127423511Y-62440204D01*
X127467709Y-62558700D01*
X127474611Y-62577204D01*
X127562239Y-62694261D01*
X127562240Y-62694261D01*
X127562241Y-62694263D01*
X127568181Y-62700203D01*
X127601666Y-62761526D01*
X127604500Y-62787884D01*
X127604500Y-65330235D01*
X127589859Y-65388688D01*
X127576759Y-65413195D01*
X127519091Y-65603300D01*
X127499620Y-65801000D01*
X127519091Y-65998699D01*
X127576760Y-66188808D01*
X127670401Y-66363998D01*
X127670405Y-66364005D01*
X127796431Y-66517568D01*
X127949994Y-66643594D01*
X127950001Y-66643598D01*
X128125191Y-66737239D01*
X128125193Y-66737239D01*
X128125196Y-66737241D01*
X128315299Y-66794908D01*
X128315298Y-66794908D01*
X128333024Y-66796653D01*
X128513000Y-66814380D01*
X128710701Y-66794908D01*
X128900804Y-66737241D01*
X129076004Y-66643595D01*
X129229568Y-66517568D01*
X129355595Y-66364004D01*
X129449241Y-66188804D01*
X129495155Y-66037446D01*
X129833000Y-66037446D01*
X130379447Y-65491000D01*
X130379447Y-65490999D01*
X129833000Y-64944552D01*
X129833000Y-66037446D01*
X129495155Y-66037446D01*
X129506908Y-65998701D01*
X129526380Y-65801000D01*
X129506908Y-65603299D01*
X129449241Y-65413196D01*
X129436140Y-65388687D01*
X129421500Y-65330235D01*
X129421500Y-62806681D01*
X129441185Y-62739642D01*
X129471188Y-62707415D01*
X129488761Y-62694261D01*
X129576389Y-62577204D01*
X129627489Y-62440201D01*
X129631091Y-62406692D01*
X129633999Y-62379654D01*
X129634000Y-62379637D01*
X129634000Y-61082362D01*
X129633999Y-61082345D01*
X129630657Y-61051270D01*
X129627489Y-61021799D01*
X129576389Y-60884796D01*
X129488761Y-60767739D01*
X129371704Y-60680111D01*
X129234703Y-60629011D01*
X129174154Y-60622500D01*
X129174138Y-60622500D01*
X127876862Y-60622500D01*
X127876845Y-60622500D01*
X127816297Y-60629011D01*
X127816295Y-60629011D01*
X127679295Y-60680111D01*
X127562239Y-60767739D01*
X127474611Y-60884795D01*
X127423511Y-61021795D01*
X127423511Y-61021797D01*
X127417000Y-61082345D01*
X126833999Y-61082345D01*
X126830657Y-61051270D01*
X126827489Y-61021799D01*
X126776389Y-60884796D01*
X126688761Y-60767739D01*
X126571704Y-60680111D01*
X126514665Y-60658836D01*
X126458732Y-60616964D01*
X126434316Y-60551500D01*
X126434000Y-60542655D01*
X126434000Y-59258331D01*
X126453685Y-59191292D01*
X126470315Y-59170654D01*
X126678781Y-58962187D01*
X126740102Y-58928704D01*
X126782644Y-58926931D01*
X126878115Y-58939500D01*
X126963777Y-58939499D01*
X126963784Y-58939500D01*
X126978219Y-58939500D01*
X127343167Y-58939500D01*
X127410206Y-58959185D01*
X127430849Y-58975820D01*
X127466353Y-59011325D01*
X127466357Y-59011328D01*
X127582392Y-59088861D01*
X127582405Y-59088868D01*
X127673572Y-59126630D01*
X127711338Y-59142273D01*
X127746854Y-59149337D01*
X127779730Y-59155877D01*
X127779754Y-59155881D01*
X127779778Y-59155886D01*
X127831108Y-59166096D01*
X127848217Y-59169500D01*
X127848218Y-59169500D01*
X127848219Y-59169500D01*
X128700973Y-59169500D01*
X128768012Y-59189185D01*
X128779638Y-59197647D01*
X128859994Y-59263594D01*
X128860001Y-59263598D01*
X129035191Y-59357239D01*
X129035193Y-59357239D01*
X129035196Y-59357241D01*
X129225299Y-59414908D01*
X129225298Y-59414908D01*
X129243024Y-59416653D01*
X129423000Y-59434380D01*
X129620701Y-59414908D01*
X129810804Y-59357241D01*
X129986004Y-59263595D01*
X130139568Y-59137568D01*
X130265595Y-58984004D01*
X130359241Y-58808804D01*
X130416908Y-58618701D01*
X130436380Y-58421000D01*
X130416908Y-58223299D01*
X130359241Y-58033196D01*
X130359239Y-58033193D01*
X130359239Y-58033191D01*
X130265598Y-57858001D01*
X130265594Y-57857994D01*
X130139568Y-57704431D01*
X129986005Y-57578405D01*
X129985998Y-57578401D01*
X129810808Y-57484760D01*
X129715752Y-57455925D01*
X129620701Y-57427092D01*
X129620699Y-57427091D01*
X129620701Y-57427091D01*
X129423000Y-57407620D01*
X129225300Y-57427091D01*
X129035191Y-57484760D01*
X128860001Y-57578401D01*
X128859994Y-57578405D01*
X128706432Y-57704431D01*
X128704187Y-57707167D01*
X128702650Y-57708213D01*
X128702129Y-57708735D01*
X128702030Y-57708636D01*
X128646440Y-57746500D01*
X128608336Y-57752500D01*
X128262833Y-57752500D01*
X128195794Y-57732815D01*
X128175151Y-57716180D01*
X128139646Y-57680674D01*
X128139642Y-57680671D01*
X128023604Y-57603136D01*
X128023601Y-57603135D01*
X127925557Y-57562524D01*
X127894665Y-57549728D01*
X127894655Y-57549725D01*
X127826221Y-57536113D01*
X127812258Y-57533335D01*
X127788582Y-57528626D01*
X127726671Y-57496241D01*
X127692097Y-57435525D01*
X127695838Y-57365755D01*
X127706796Y-57345681D01*
X127705462Y-57344911D01*
X127709520Y-57337880D01*
X127709524Y-57337876D01*
X127770838Y-57189850D01*
X127786500Y-57070885D01*
X127786499Y-56791116D01*
X127782909Y-56763848D01*
X127770839Y-56672157D01*
X127770838Y-56672156D01*
X127770838Y-56672150D01*
X127709524Y-56524124D01*
X127709524Y-56524123D01*
X127705460Y-56517084D01*
X127707612Y-56515841D01*
X127686930Y-56462343D01*
X127686500Y-56452026D01*
X127686500Y-55709973D01*
X127705583Y-55644981D01*
X127705462Y-55644911D01*
X127705751Y-55644408D01*
X127706185Y-55642934D01*
X127708525Y-55639605D01*
X127709520Y-55637880D01*
X127709524Y-55637876D01*
X127770838Y-55489850D01*
X127786500Y-55370885D01*
X127786499Y-55091116D01*
X127782219Y-55058606D01*
X127770839Y-54972157D01*
X127770838Y-54972156D01*
X127770838Y-54972150D01*
X127726429Y-54864937D01*
X127709524Y-54824123D01*
X127705460Y-54817084D01*
X127707612Y-54815841D01*
X127686930Y-54762343D01*
X127686500Y-54752026D01*
X127686500Y-53837446D01*
X129833000Y-53837446D01*
X130379447Y-53291000D01*
X130379447Y-53290999D01*
X129833000Y-52744552D01*
X129833000Y-53837446D01*
X127686500Y-53837446D01*
X127686500Y-53809485D01*
X127695939Y-53762032D01*
X127725838Y-53689850D01*
X127741500Y-53570885D01*
X127741499Y-53291116D01*
X127734572Y-53238500D01*
X127725839Y-53172157D01*
X127725838Y-53172156D01*
X127725838Y-53172150D01*
X127664524Y-53024124D01*
X127566987Y-52897013D01*
X127439876Y-52799476D01*
X127439872Y-52799474D01*
X127291853Y-52738163D01*
X127291851Y-52738162D01*
X127291850Y-52738162D01*
X127172885Y-52722500D01*
X126833113Y-52722500D01*
X126714152Y-52738160D01*
X126714147Y-52738162D01*
X126714112Y-52738177D01*
X126714073Y-52738182D01*
X126706300Y-52740265D01*
X126706025Y-52739241D01*
X126650474Y-52746555D01*
X126563000Y-52735037D01*
X126563000Y-52740723D01*
X126543315Y-52807762D01*
X126514487Y-52839098D01*
X126439012Y-52897012D01*
X126385375Y-52966913D01*
X126328947Y-53008116D01*
X126259201Y-53012270D01*
X126198281Y-52978057D01*
X126165528Y-52916339D01*
X126163000Y-52891426D01*
X126163000Y-52735038D01*
X126076369Y-52746444D01*
X126076365Y-52746445D01*
X125930413Y-52806899D01*
X125805075Y-52903075D01*
X125708899Y-53028413D01*
X125648444Y-53174368D01*
X125640987Y-53231000D01*
X126140500Y-53231000D01*
X126207539Y-53250685D01*
X126253294Y-53303489D01*
X126264500Y-53354999D01*
X126264501Y-53506999D01*
X126244817Y-53574039D01*
X126192013Y-53619794D01*
X126140501Y-53631000D01*
X125640990Y-53631000D01*
X125640988Y-53631001D01*
X125648442Y-53687627D01*
X125648444Y-53687633D01*
X125708899Y-53833585D01*
X125805075Y-53958924D01*
X125930413Y-54055100D01*
X126076365Y-54115554D01*
X126076369Y-54115555D01*
X126193675Y-54130999D01*
X126245498Y-54130999D01*
X126312538Y-54150682D01*
X126358293Y-54203486D01*
X126369500Y-54254999D01*
X126369500Y-54407000D01*
X126349815Y-54474039D01*
X126297011Y-54519794D01*
X126245511Y-54531000D01*
X126238678Y-54531000D01*
X126121371Y-54546442D01*
X126121366Y-54546444D01*
X125975414Y-54606899D01*
X125850075Y-54703075D01*
X125753899Y-54828413D01*
X125693444Y-54974368D01*
X125685987Y-55031000D01*
X126185500Y-55031000D01*
X126252539Y-55050685D01*
X126298294Y-55103489D01*
X126309500Y-55154999D01*
X126309501Y-55306999D01*
X126289817Y-55374039D01*
X126237013Y-55419794D01*
X126185501Y-55431000D01*
X125685990Y-55431000D01*
X125685988Y-55431001D01*
X125693442Y-55487627D01*
X125693444Y-55487633D01*
X125753899Y-55633585D01*
X125850075Y-55758924D01*
X125975413Y-55855100D01*
X126121365Y-55915554D01*
X126121369Y-55915555D01*
X126238674Y-55930999D01*
X126245489Y-55930999D01*
X126312530Y-55950677D01*
X126358290Y-56003477D01*
X126369500Y-56054999D01*
X126369500Y-56107000D01*
X126349815Y-56174039D01*
X126297011Y-56219794D01*
X126245511Y-56231000D01*
X126238678Y-56231000D01*
X126121371Y-56246442D01*
X126121366Y-56246444D01*
X125975414Y-56306899D01*
X125850075Y-56403075D01*
X125753899Y-56528413D01*
X125693444Y-56674368D01*
X125685987Y-56731000D01*
X126185500Y-56731000D01*
X126252539Y-56750685D01*
X126298294Y-56803489D01*
X126309500Y-56854999D01*
X126309501Y-57006999D01*
X126289817Y-57074039D01*
X126237013Y-57119794D01*
X126185501Y-57131000D01*
X125685990Y-57131000D01*
X125685988Y-57131001D01*
X125693442Y-57187627D01*
X125693444Y-57187633D01*
X125753899Y-57333585D01*
X125850076Y-57458926D01*
X125873978Y-57477266D01*
X125915181Y-57533694D01*
X125919336Y-57603440D01*
X125885124Y-57664360D01*
X125873981Y-57674016D01*
X125844014Y-57697011D01*
X125746474Y-57824127D01*
X125708941Y-57914739D01*
X125682061Y-57954967D01*
X125175174Y-58461853D01*
X125175171Y-58461857D01*
X125097636Y-58577895D01*
X125072792Y-58637876D01*
X125044228Y-58706833D01*
X125044225Y-58706845D01*
X125017000Y-58843714D01*
X125017000Y-60542655D01*
X124997315Y-60609694D01*
X124944511Y-60655449D01*
X124936335Y-60658836D01*
X124879295Y-60680111D01*
X124762239Y-60767739D01*
X124674611Y-60884795D01*
X124623511Y-61021795D01*
X124623511Y-61021797D01*
X124617000Y-61082345D01*
X123855267Y-61082345D01*
X123858519Y-51556139D01*
X123878226Y-51489109D01*
X123931046Y-51443372D01*
X124000208Y-51433452D01*
X124063754Y-51462499D01*
X124100450Y-51517864D01*
X124108014Y-51541145D01*
X124108473Y-51542556D01*
X124203960Y-51707944D01*
X124331747Y-51849866D01*
X124486248Y-51962118D01*
X124660712Y-52039794D01*
X124847513Y-52079500D01*
X125038487Y-52079500D01*
X125225288Y-52039794D01*
X125399752Y-51962118D01*
X125554253Y-51849866D01*
X125554254Y-51849864D01*
X125559510Y-51846046D01*
X125560920Y-51847986D01*
X125614082Y-51822453D01*
X125650288Y-51821887D01*
X125708115Y-51829500D01*
X126047884Y-51829499D01*
X126047885Y-51829499D01*
X126077625Y-51825583D01*
X126166850Y-51813838D01*
X126166875Y-51813827D01*
X126166901Y-51813824D01*
X126174707Y-51811733D01*
X126174982Y-51812759D01*
X126230526Y-51805444D01*
X126318000Y-51816960D01*
X126318000Y-51811276D01*
X126337685Y-51744237D01*
X126366513Y-51712901D01*
X126391254Y-51693916D01*
X126441987Y-51654987D01*
X126495625Y-51585084D01*
X126552052Y-51543884D01*
X126621798Y-51539729D01*
X126682719Y-51573942D01*
X126715471Y-51635659D01*
X126718000Y-51660573D01*
X126718000Y-51816959D01*
X126718001Y-51816960D01*
X126804627Y-51805557D01*
X126804633Y-51805555D01*
X126950585Y-51745100D01*
X127075924Y-51648924D01*
X127172100Y-51523586D01*
X127232555Y-51377631D01*
X127240012Y-51321000D01*
X126740500Y-51321000D01*
X126673461Y-51301315D01*
X126627706Y-51248511D01*
X126616500Y-51197001D01*
X126616499Y-51045001D01*
X126636183Y-50977961D01*
X126688987Y-50932206D01*
X126740499Y-50921000D01*
X127240010Y-50921000D01*
X127240011Y-50920998D01*
X127232557Y-50864372D01*
X127232555Y-50864366D01*
X127172100Y-50718412D01*
X127172098Y-50718409D01*
X127083083Y-50602404D01*
X127057888Y-50537235D01*
X127071926Y-50468790D01*
X127083083Y-50451430D01*
X127091735Y-50440155D01*
X127139524Y-50377876D01*
X127200838Y-50229850D01*
X127216500Y-50110885D01*
X127216499Y-49831116D01*
X127200838Y-49712150D01*
X127172686Y-49644185D01*
X127139524Y-49564123D01*
X127139523Y-49564121D01*
X127137121Y-49560991D01*
X127135916Y-49557874D01*
X127135460Y-49557084D01*
X127135583Y-49557012D01*
X127111929Y-49495821D01*
X127111500Y-49485509D01*
X127111500Y-45901000D01*
X127662975Y-45901000D01*
X127683042Y-46155989D01*
X127742752Y-46404702D01*
X127840634Y-46641012D01*
X127840636Y-46641015D01*
X127974277Y-46859098D01*
X127974284Y-46859107D01*
X127977533Y-46862912D01*
X128538884Y-46301560D01*
X128539740Y-46303626D01*
X128632762Y-46442844D01*
X128751156Y-46561238D01*
X128890374Y-46654260D01*
X128892437Y-46655114D01*
X128331087Y-47216465D01*
X128334897Y-47219719D01*
X128552984Y-47353363D01*
X128552987Y-47353365D01*
X128789297Y-47451247D01*
X129038011Y-47510957D01*
X129038010Y-47510957D01*
X129293000Y-47531024D01*
X129547989Y-47510957D01*
X129796702Y-47451247D01*
X130033012Y-47353365D01*
X130033015Y-47353363D01*
X130251095Y-47219724D01*
X130251110Y-47219713D01*
X130254911Y-47216466D01*
X130254911Y-47216464D01*
X129693562Y-46655114D01*
X129695626Y-46654260D01*
X129834844Y-46561238D01*
X129953238Y-46442844D01*
X130046260Y-46303626D01*
X130047114Y-46301561D01*
X130608464Y-46862911D01*
X130608466Y-46862911D01*
X130611713Y-46859110D01*
X130611724Y-46859095D01*
X130745363Y-46641015D01*
X130745365Y-46641012D01*
X130843247Y-46404702D01*
X130902957Y-46155989D01*
X130923024Y-45901000D01*
X130902957Y-45646010D01*
X130843247Y-45397297D01*
X130745365Y-45160987D01*
X130745363Y-45160984D01*
X130611719Y-44942897D01*
X130608465Y-44939087D01*
X130047114Y-45500437D01*
X130046260Y-45498374D01*
X129953238Y-45359156D01*
X129834844Y-45240762D01*
X129695626Y-45147740D01*
X129693561Y-45146884D01*
X130254912Y-44585533D01*
X130251107Y-44582284D01*
X130251098Y-44582277D01*
X130033015Y-44448636D01*
X130033012Y-44448634D01*
X129796702Y-44350752D01*
X129547988Y-44291042D01*
X129547989Y-44291042D01*
X129293000Y-44270975D01*
X129038010Y-44291042D01*
X128789297Y-44350752D01*
X128552987Y-44448634D01*
X128552984Y-44448636D01*
X128334893Y-44582282D01*
X128331086Y-44585532D01*
X128892438Y-45146884D01*
X128890374Y-45147740D01*
X128751156Y-45240762D01*
X128632762Y-45359156D01*
X128539740Y-45498374D01*
X128538884Y-45500438D01*
X127977532Y-44939086D01*
X127974282Y-44942893D01*
X127840636Y-45160984D01*
X127840634Y-45160987D01*
X127742752Y-45397297D01*
X127683042Y-45646010D01*
X127662975Y-45901000D01*
X127111500Y-45901000D01*
X127111500Y-40179766D01*
X127131185Y-40112727D01*
X127147819Y-40092085D01*
X127689085Y-39550819D01*
X127750408Y-39517334D01*
X127776766Y-39514500D01*
X128288692Y-39514500D01*
X128355731Y-39534185D01*
G37*
%TD.AperFunction*%
%TA.AperFunction,Conductor*%
G36*
X147888279Y-80950245D02*
G01*
X147931727Y-80988654D01*
X148006398Y-81095296D01*
X148158703Y-81247601D01*
X148158706Y-81247603D01*
X148335149Y-81371149D01*
X148370214Y-81387500D01*
X148522726Y-81458618D01*
X148575165Y-81504791D01*
X148594317Y-81571984D01*
X148574101Y-81638865D01*
X148522726Y-81683382D01*
X148335150Y-81770850D01*
X148335148Y-81770851D01*
X148158703Y-81894398D01*
X148006398Y-82046703D01*
X147882851Y-82223148D01*
X147882850Y-82223150D01*
X147791821Y-82418363D01*
X147791817Y-82418372D01*
X147736072Y-82626417D01*
X147736070Y-82626428D01*
X147717298Y-82840998D01*
X147717298Y-82841001D01*
X147736070Y-83055571D01*
X147736072Y-83055582D01*
X147791817Y-83263627D01*
X147791819Y-83263631D01*
X147791820Y-83263635D01*
X147815225Y-83313826D01*
X147882850Y-83458849D01*
X147882851Y-83458851D01*
X148006398Y-83635296D01*
X148158703Y-83787601D01*
X148158706Y-83787603D01*
X148335149Y-83911149D01*
X148445462Y-83962589D01*
X148522726Y-83998618D01*
X148575165Y-84044791D01*
X148594317Y-84111984D01*
X148574101Y-84178865D01*
X148522726Y-84223382D01*
X148335150Y-84310850D01*
X148335148Y-84310851D01*
X148158703Y-84434398D01*
X148006398Y-84586703D01*
X147882851Y-84763148D01*
X147882850Y-84763150D01*
X147791821Y-84958363D01*
X147791817Y-84958372D01*
X147736072Y-85166417D01*
X147736070Y-85166428D01*
X147717298Y-85380998D01*
X147717298Y-85381002D01*
X147726760Y-85489159D01*
X147712993Y-85557659D01*
X147664378Y-85607842D01*
X147596349Y-85623775D01*
X147530505Y-85600399D01*
X147515551Y-85587647D01*
X146516836Y-84588931D01*
X146516832Y-84588928D01*
X146413081Y-84519603D01*
X146413072Y-84519598D01*
X146297785Y-84471845D01*
X146297777Y-84471843D01*
X146175398Y-84447500D01*
X146175394Y-84447500D01*
X146150500Y-84447500D01*
X146083461Y-84427815D01*
X146037706Y-84375011D01*
X146026500Y-84323500D01*
X146026500Y-83993468D01*
X146046185Y-83926429D01*
X146076188Y-83894202D01*
X146156261Y-83834261D01*
X146243889Y-83717204D01*
X146294989Y-83580201D01*
X146298591Y-83546692D01*
X146301499Y-83519654D01*
X146301500Y-83519637D01*
X146301500Y-83122362D01*
X146301499Y-83122345D01*
X146294160Y-83054086D01*
X146294753Y-83054022D01*
X146292717Y-83021452D01*
X146292999Y-83018823D01*
X146293000Y-83018822D01*
X146293000Y-82988820D01*
X146312685Y-82921781D01*
X146348110Y-82885718D01*
X146415037Y-82840998D01*
X146456833Y-82813071D01*
X147065071Y-82204833D01*
X147134400Y-82101075D01*
X147182155Y-81985785D01*
X147206500Y-81863394D01*
X147206500Y-81738606D01*
X147206500Y-81244999D01*
X147226185Y-81177960D01*
X147278989Y-81132205D01*
X147330500Y-81120999D01*
X147382324Y-81120999D01*
X147499628Y-81105557D01*
X147499633Y-81105555D01*
X147645586Y-81045100D01*
X147754665Y-80961401D01*
X147819835Y-80936207D01*
X147888279Y-80950245D01*
G37*
%TD.AperFunction*%
%TA.AperFunction,Conductor*%
G36*
X136387670Y-72909747D02*
G01*
X136443603Y-72951619D01*
X136468020Y-73017083D01*
X136453168Y-73085356D01*
X136451723Y-73087928D01*
X136358475Y-73249438D01*
X136358470Y-73249450D01*
X136299459Y-73431068D01*
X136299458Y-73431072D01*
X136279496Y-73621000D01*
X136299458Y-73810928D01*
X136299459Y-73810931D01*
X136358470Y-73992549D01*
X136358473Y-73992556D01*
X136453960Y-74157944D01*
X136581747Y-74299866D01*
X136736248Y-74412118D01*
X136910712Y-74489794D01*
X137097513Y-74529500D01*
X137291255Y-74529500D01*
X137358294Y-74549185D01*
X137404049Y-74601989D01*
X137413993Y-74671147D01*
X137384968Y-74734703D01*
X137378939Y-74741177D01*
X136269167Y-75850950D01*
X136225047Y-75895070D01*
X136180927Y-75939189D01*
X136111603Y-76042939D01*
X136111598Y-76042948D01*
X136063845Y-76158235D01*
X136063843Y-76158243D01*
X136039500Y-76280622D01*
X136039500Y-83007233D01*
X136019815Y-83074272D01*
X136003181Y-83094914D01*
X135620531Y-83477563D01*
X135559208Y-83511048D01*
X135489516Y-83506064D01*
X135489516Y-83506063D01*
X135457207Y-83494012D01*
X135457202Y-83494011D01*
X135396654Y-83487500D01*
X135396638Y-83487500D01*
X134986940Y-83487500D01*
X134919901Y-83467815D01*
X134874146Y-83415011D01*
X134864202Y-83345853D01*
X134870758Y-83320166D01*
X134894989Y-83255201D01*
X134901499Y-83194654D01*
X134901500Y-83194637D01*
X134901500Y-81847362D01*
X134901499Y-81847345D01*
X134897186Y-81807235D01*
X134894989Y-81786799D01*
X134889040Y-81770850D01*
X134855087Y-81679820D01*
X134843889Y-81649796D01*
X134756261Y-81532739D01*
X134639204Y-81445111D01*
X134502203Y-81394011D01*
X134441654Y-81387500D01*
X134441638Y-81387500D01*
X133744362Y-81387500D01*
X133744345Y-81387500D01*
X133683797Y-81394011D01*
X133683795Y-81394011D01*
X133546795Y-81445111D01*
X133429739Y-81532739D01*
X133342111Y-81649795D01*
X133291011Y-81786797D01*
X133289780Y-81792008D01*
X133255210Y-81852726D01*
X133193302Y-81885116D01*
X133169102Y-81887500D01*
X132870601Y-81887500D01*
X132748222Y-81911843D01*
X132748214Y-81911845D01*
X132632927Y-81959598D01*
X132632918Y-81959603D01*
X132529167Y-82028928D01*
X132529163Y-82028931D01*
X131749712Y-82808384D01*
X131499167Y-83058929D01*
X131466340Y-83091756D01*
X131410927Y-83147168D01*
X131341603Y-83250918D01*
X131341599Y-83250926D01*
X131340058Y-83254647D01*
X131296214Y-83309048D01*
X131229918Y-83331109D01*
X131162220Y-83313826D01*
X131114612Y-83262687D01*
X131101499Y-83207188D01*
X131101499Y-83108615D01*
X131094516Y-83055571D01*
X131085838Y-82989650D01*
X131085837Y-82989648D01*
X131084777Y-82981593D01*
X131086090Y-82981420D01*
X131086090Y-82935579D01*
X131084777Y-82935407D01*
X131085852Y-82927247D01*
X131101500Y-82808385D01*
X131101499Y-82468616D01*
X131085838Y-82349650D01*
X131058596Y-82283882D01*
X131058596Y-82283881D01*
X131051127Y-82214412D01*
X131082402Y-82151933D01*
X131085427Y-82148797D01*
X131087962Y-82146263D01*
X131172332Y-82003600D01*
X131213065Y-81863395D01*
X131218572Y-81844441D01*
X131218572Y-81844439D01*
X131218573Y-81844437D01*
X131221500Y-81807247D01*
X131221499Y-81379754D01*
X131218573Y-81342563D01*
X131172332Y-81183400D01*
X131160426Y-81163268D01*
X131143246Y-81095545D01*
X131160431Y-81037024D01*
X131164469Y-81030196D01*
X131164470Y-81030192D01*
X131209994Y-80873501D01*
X131209993Y-80873500D01*
X130920076Y-80873500D01*
X130856955Y-80856232D01*
X130828103Y-80839169D01*
X130828098Y-80839167D01*
X130668941Y-80792927D01*
X130668935Y-80792926D01*
X130634922Y-80790249D01*
X130631747Y-80790000D01*
X130631746Y-80790000D01*
X130154264Y-80790000D01*
X130154242Y-80790001D01*
X130117062Y-80792927D01*
X130117061Y-80792927D01*
X129957901Y-80839167D01*
X129957896Y-80839169D01*
X129929045Y-80856232D01*
X129865924Y-80873500D01*
X129576007Y-80873500D01*
X129576005Y-80873501D01*
X129621528Y-81030192D01*
X129621532Y-81030199D01*
X129625573Y-81037033D01*
X129642753Y-81104757D01*
X129625573Y-81163268D01*
X129613669Y-81183396D01*
X129613666Y-81183404D01*
X129567427Y-81342558D01*
X129567426Y-81342564D01*
X129564500Y-81379747D01*
X129564500Y-81807235D01*
X129564501Y-81807257D01*
X129567427Y-81844437D01*
X129567427Y-81844438D01*
X129613666Y-82003595D01*
X129613668Y-82003601D01*
X129698036Y-82146260D01*
X129698042Y-82146268D01*
X129700523Y-82148749D01*
X129701846Y-82151172D01*
X129702821Y-82152429D01*
X129702618Y-82152586D01*
X129734008Y-82210072D01*
X129729024Y-82279764D01*
X129727404Y-82283882D01*
X129700161Y-82349652D01*
X129684500Y-82468607D01*
X129684500Y-82808386D01*
X129701222Y-82935408D01*
X129699910Y-82935580D01*
X129699911Y-82981421D01*
X129701223Y-82981594D01*
X129684500Y-83108607D01*
X129684500Y-83448386D01*
X129700160Y-83567342D01*
X129700163Y-83567353D01*
X129750061Y-83687818D01*
X129759500Y-83735270D01*
X129759500Y-83857053D01*
X129739815Y-83924092D01*
X129700600Y-83962589D01*
X129689659Y-83969337D01*
X129689653Y-83969342D01*
X129566342Y-84092653D01*
X129566339Y-84092657D01*
X129474795Y-84241071D01*
X129474790Y-84241082D01*
X129443206Y-84336399D01*
X129403434Y-84393844D01*
X129338918Y-84420667D01*
X129270142Y-84408352D01*
X129218942Y-84360809D01*
X129201500Y-84297395D01*
X129201500Y-80373498D01*
X129576005Y-80373498D01*
X129576007Y-80373500D01*
X130143000Y-80373500D01*
X130643000Y-80373500D01*
X131209993Y-80373500D01*
X131209994Y-80373498D01*
X131164471Y-80216807D01*
X131164469Y-80216804D01*
X131081193Y-80075991D01*
X131081187Y-80075983D01*
X130965516Y-79960312D01*
X130965508Y-79960306D01*
X130824697Y-79877031D01*
X130824692Y-79877029D01*
X130667603Y-79831390D01*
X130667591Y-79831388D01*
X130643000Y-79829452D01*
X130643000Y-80373500D01*
X130143000Y-80373500D01*
X130143000Y-79829454D01*
X130118402Y-79831389D01*
X129961307Y-79877029D01*
X129961302Y-79877031D01*
X129820491Y-79960306D01*
X129820483Y-79960312D01*
X129704812Y-80075983D01*
X129704806Y-80075991D01*
X129621530Y-80216804D01*
X129621528Y-80216807D01*
X129576005Y-80373498D01*
X129201500Y-80373498D01*
X129201500Y-79863624D01*
X129201499Y-79863606D01*
X129201499Y-79771115D01*
X129189919Y-79683149D01*
X129185838Y-79652150D01*
X129185837Y-79652148D01*
X129184777Y-79644093D01*
X129186090Y-79643920D01*
X129186090Y-79598079D01*
X129184777Y-79597907D01*
X129187735Y-79575444D01*
X129201500Y-79470885D01*
X129201499Y-79131116D01*
X129197253Y-79098865D01*
X129185839Y-79012155D01*
X129185838Y-79012151D01*
X129176168Y-78988806D01*
X129135938Y-78891681D01*
X129126500Y-78844230D01*
X129126500Y-78528500D01*
X129146185Y-78461461D01*
X129198989Y-78415706D01*
X129250500Y-78404500D01*
X130973706Y-78404500D01*
X131040745Y-78424185D01*
X131061387Y-78440819D01*
X131307909Y-78687341D01*
X131341394Y-78748664D01*
X131343549Y-78762060D01*
X131353514Y-78856873D01*
X131353515Y-78856876D01*
X131412526Y-79038493D01*
X131412529Y-79038500D01*
X131508016Y-79203888D01*
X131635803Y-79345810D01*
X131790304Y-79458062D01*
X131964768Y-79535738D01*
X132151569Y-79575444D01*
X132342543Y-79575444D01*
X132529344Y-79535738D01*
X132703808Y-79458062D01*
X132858309Y-79345810D01*
X132986096Y-79203888D01*
X133081583Y-79038500D01*
X133140598Y-78856872D01*
X133160560Y-78666944D01*
X133140598Y-78477016D01*
X133081583Y-78295388D01*
X132986096Y-78130000D01*
X132896069Y-78030015D01*
X132865840Y-77967025D01*
X132874465Y-77897689D01*
X132900536Y-77859366D01*
X133425071Y-77334833D01*
X133494400Y-77231075D01*
X133542155Y-77115785D01*
X133566500Y-76993394D01*
X133566500Y-76868607D01*
X133566500Y-76037324D01*
X133586185Y-75970285D01*
X133616195Y-75938053D01*
X133621261Y-75934261D01*
X133708889Y-75817204D01*
X133759989Y-75680201D01*
X133763921Y-75643627D01*
X133766499Y-75619654D01*
X133766500Y-75619637D01*
X133766500Y-75618844D01*
X134028000Y-75618844D01*
X134034401Y-75678372D01*
X134034403Y-75678379D01*
X134084645Y-75813086D01*
X134084649Y-75813093D01*
X134170809Y-75928187D01*
X134170812Y-75928190D01*
X134285906Y-76014350D01*
X134285913Y-76014354D01*
X134420620Y-76064596D01*
X134420627Y-76064598D01*
X134480155Y-76070999D01*
X134480172Y-76071000D01*
X134603000Y-76071000D01*
X135103000Y-76071000D01*
X135225828Y-76071000D01*
X135225844Y-76070999D01*
X135285372Y-76064598D01*
X135285379Y-76064596D01*
X135420086Y-76014354D01*
X135420093Y-76014350D01*
X135535187Y-75928190D01*
X135535190Y-75928187D01*
X135621350Y-75813093D01*
X135621354Y-75813086D01*
X135671596Y-75678379D01*
X135671598Y-75678372D01*
X135677999Y-75618844D01*
X135678000Y-75618827D01*
X135678000Y-75271000D01*
X135103000Y-75271000D01*
X135103000Y-76071000D01*
X134603000Y-76071000D01*
X134603000Y-75271000D01*
X134028000Y-75271000D01*
X134028000Y-75618844D01*
X133766500Y-75618844D01*
X133766500Y-74533500D01*
X133786185Y-74466461D01*
X133838989Y-74420706D01*
X133890500Y-74409500D01*
X133904000Y-74409500D01*
X133971039Y-74429185D01*
X134016794Y-74481989D01*
X134028000Y-74533500D01*
X134028000Y-74771000D01*
X135678000Y-74771000D01*
X135678000Y-74423172D01*
X135677999Y-74423155D01*
X135671598Y-74363627D01*
X135671596Y-74363620D01*
X135621354Y-74228913D01*
X135621350Y-74228906D01*
X135535190Y-74113812D01*
X135535187Y-74113809D01*
X135420093Y-74027649D01*
X135420087Y-74027646D01*
X135416722Y-74026391D01*
X135413845Y-74024237D01*
X135412304Y-74023396D01*
X135412425Y-74023174D01*
X135360788Y-73984519D01*
X135336372Y-73919054D01*
X135351224Y-73850781D01*
X135372372Y-73822531D01*
X136256657Y-72938246D01*
X136317978Y-72904763D01*
X136387670Y-72909747D01*
G37*
%TD.AperFunction*%
%TA.AperFunction,Conductor*%
G36*
X151117006Y-38378789D02*
G01*
X151162828Y-38431534D01*
X151174100Y-38483107D01*
X151180664Y-48243313D01*
X151161025Y-48310365D01*
X151108251Y-48356156D01*
X151039100Y-48366146D01*
X150975524Y-48337164D01*
X150968983Y-48331077D01*
X149047317Y-46409412D01*
X149013832Y-46348089D01*
X149011595Y-46309575D01*
X149012181Y-46303626D01*
X149016380Y-46261000D01*
X148996908Y-46063299D01*
X148939241Y-45873196D01*
X148939239Y-45873193D01*
X148939239Y-45873191D01*
X148845600Y-45698004D01*
X148843525Y-45694899D01*
X148842936Y-45693021D01*
X148842724Y-45692623D01*
X148842799Y-45692582D01*
X148822642Y-45628224D01*
X148841121Y-45560842D01*
X148843525Y-45557101D01*
X148845589Y-45554010D01*
X148845595Y-45554004D01*
X148939241Y-45378804D01*
X148996908Y-45188701D01*
X149016380Y-44991000D01*
X148996908Y-44793299D01*
X148939241Y-44603196D01*
X148935709Y-44596589D01*
X148921468Y-44528187D01*
X148942960Y-44471345D01*
X148942101Y-44470876D01*
X148945472Y-44464702D01*
X148945806Y-44463819D01*
X148946351Y-44463090D01*
X148996597Y-44328376D01*
X148996598Y-44328372D01*
X149002999Y-44268844D01*
X149003000Y-44268827D01*
X149003000Y-43971000D01*
X148212618Y-43971000D01*
X148263064Y-43920554D01*
X148305851Y-43846445D01*
X148328000Y-43763787D01*
X148328000Y-43678213D01*
X148305851Y-43595555D01*
X148263064Y-43521446D01*
X148212618Y-43471000D01*
X148253000Y-43471000D01*
X149003000Y-43471000D01*
X149003000Y-43173172D01*
X149002999Y-43173155D01*
X148996598Y-43113627D01*
X148996596Y-43113620D01*
X148946354Y-42978913D01*
X148946350Y-42978906D01*
X148860190Y-42863812D01*
X148860187Y-42863809D01*
X148745093Y-42777649D01*
X148745086Y-42777645D01*
X148610379Y-42727403D01*
X148610372Y-42727401D01*
X148550844Y-42721000D01*
X148253000Y-42721000D01*
X148253000Y-43471000D01*
X148212618Y-43471000D01*
X148202554Y-43460936D01*
X148128445Y-43418149D01*
X148045787Y-43396000D01*
X147960213Y-43396000D01*
X147877555Y-43418149D01*
X147803446Y-43460936D01*
X147742936Y-43521446D01*
X147700149Y-43595555D01*
X147678000Y-43678213D01*
X147678000Y-43763787D01*
X147700149Y-43846445D01*
X147742936Y-43920554D01*
X147793382Y-43971000D01*
X147003000Y-43971000D01*
X147003000Y-44268844D01*
X147009401Y-44328372D01*
X147009402Y-44328376D01*
X147059648Y-44463091D01*
X147060198Y-44463825D01*
X147060519Y-44464688D01*
X147063899Y-44470877D01*
X147063009Y-44471362D01*
X147084615Y-44529289D01*
X147070295Y-44596579D01*
X147066761Y-44603191D01*
X147066760Y-44603193D01*
X147066759Y-44603196D01*
X147027814Y-44731580D01*
X147009091Y-44793302D01*
X146989620Y-44991000D01*
X146994404Y-45039578D01*
X146981385Y-45108224D01*
X146958682Y-45139412D01*
X144519879Y-47578216D01*
X144458556Y-47611701D01*
X144388864Y-47606717D01*
X144349047Y-47579073D01*
X144347779Y-47580537D01*
X144341077Y-47574730D01*
X144341077Y-47574729D01*
X144230619Y-47479016D01*
X144181126Y-47456413D01*
X144097673Y-47418300D01*
X144097668Y-47418299D01*
X143953000Y-47397500D01*
X141703000Y-47397500D01*
X141702997Y-47397500D01*
X141629922Y-47402726D01*
X141629916Y-47402727D01*
X141489686Y-47443902D01*
X141489681Y-47443904D01*
X141360487Y-47526933D01*
X141293448Y-47546618D01*
X141230327Y-47529350D01*
X141106996Y-47456413D01*
X141093587Y-47448483D01*
X141093586Y-47448482D01*
X141093585Y-47448482D01*
X141093582Y-47448481D01*
X140944739Y-47405237D01*
X140944733Y-47405236D01*
X140909957Y-47402500D01*
X140296055Y-47402500D01*
X140296030Y-47402501D01*
X140261264Y-47405237D01*
X140112417Y-47448481D01*
X140112414Y-47448482D01*
X140107739Y-47451247D01*
X140076230Y-47469882D01*
X140075638Y-47470232D01*
X140012517Y-47487500D01*
X139510601Y-47487500D01*
X139388222Y-47511843D01*
X139388214Y-47511845D01*
X139272924Y-47559599D01*
X139218963Y-47595654D01*
X139152285Y-47616530D01*
X139084905Y-47598044D01*
X139067104Y-47584701D01*
X139064255Y-47582136D01*
X139064254Y-47582135D01*
X139064253Y-47582134D01*
X138909752Y-47469882D01*
X138735288Y-47392206D01*
X138735286Y-47392205D01*
X138548487Y-47352500D01*
X138357513Y-47352500D01*
X138176281Y-47391022D01*
X138106614Y-47385706D01*
X138050880Y-47343569D01*
X138026775Y-47277989D01*
X138026500Y-47269732D01*
X138026500Y-46844765D01*
X138046185Y-46777726D01*
X138062814Y-46757089D01*
X140856808Y-43963094D01*
X140918129Y-43929611D01*
X140968678Y-43929160D01*
X141121204Y-43959499D01*
X141121207Y-43959500D01*
X141121209Y-43959500D01*
X141324793Y-43959500D01*
X141324794Y-43959499D01*
X141524461Y-43919783D01*
X141669928Y-43859528D01*
X141712539Y-43841879D01*
X141712539Y-43841878D01*
X141712546Y-43841876D01*
X141789112Y-43790715D01*
X141855786Y-43769839D01*
X141923166Y-43788323D01*
X141926832Y-43790679D01*
X142003454Y-43841876D01*
X142003457Y-43841877D01*
X142003460Y-43841879D01*
X142176392Y-43913509D01*
X142191539Y-43919783D01*
X142348472Y-43950999D01*
X142391204Y-43959499D01*
X142391207Y-43959500D01*
X142391209Y-43959500D01*
X142594793Y-43959500D01*
X142594794Y-43959499D01*
X142794461Y-43919783D01*
X142880787Y-43884025D01*
X142950251Y-43876557D01*
X142986821Y-43892495D01*
X142988128Y-43890103D01*
X142995913Y-43894354D01*
X143130620Y-43944596D01*
X143130627Y-43944598D01*
X143190155Y-43950999D01*
X143190172Y-43951000D01*
X143513000Y-43951000D01*
X143513000Y-43107871D01*
X143515383Y-43083679D01*
X143526500Y-43027793D01*
X143526500Y-42994830D01*
X143532745Y-43001075D01*
X143618255Y-43050444D01*
X143713630Y-43076000D01*
X143812370Y-43076000D01*
X143907745Y-43050444D01*
X143993255Y-43001075D01*
X144013000Y-42981330D01*
X144013000Y-43951000D01*
X144335828Y-43951000D01*
X144335844Y-43950999D01*
X144395372Y-43944598D01*
X144395379Y-43944596D01*
X144530086Y-43894354D01*
X144530093Y-43894350D01*
X144645187Y-43808190D01*
X144645190Y-43808187D01*
X144731350Y-43693093D01*
X144731354Y-43693086D01*
X144781596Y-43558379D01*
X144781598Y-43558372D01*
X144787999Y-43498844D01*
X144788000Y-43498827D01*
X144788000Y-43173155D01*
X147003000Y-43173155D01*
X147003000Y-43471000D01*
X147753000Y-43471000D01*
X147753000Y-42721000D01*
X147455155Y-42721000D01*
X147395627Y-42727401D01*
X147395620Y-42727403D01*
X147260913Y-42777645D01*
X147260906Y-42777649D01*
X147145812Y-42863809D01*
X147145809Y-42863812D01*
X147059649Y-42978906D01*
X147059645Y-42978913D01*
X147009403Y-43113620D01*
X147009401Y-43113627D01*
X147003000Y-43173155D01*
X144788000Y-43173155D01*
X144788000Y-42951000D01*
X144043330Y-42951000D01*
X144063075Y-42931255D01*
X144112444Y-42845745D01*
X144138000Y-42750370D01*
X144138000Y-42651630D01*
X144112444Y-42556255D01*
X144063075Y-42470745D01*
X144043330Y-42451000D01*
X144788000Y-42451000D01*
X144788000Y-41903172D01*
X144787999Y-41903155D01*
X144781598Y-41843627D01*
X144781596Y-41843620D01*
X144731354Y-41708913D01*
X144731350Y-41708906D01*
X144645190Y-41593812D01*
X144645187Y-41593809D01*
X144530093Y-41507649D01*
X144530086Y-41507645D01*
X144395379Y-41457403D01*
X144395372Y-41457401D01*
X144335844Y-41451000D01*
X144013000Y-41451000D01*
X144013000Y-42420670D01*
X143993255Y-42400925D01*
X143907745Y-42351556D01*
X143812370Y-42326000D01*
X143713630Y-42326000D01*
X143618255Y-42351556D01*
X143532745Y-42400925D01*
X143526500Y-42407170D01*
X143526500Y-42374206D01*
X143515383Y-42318320D01*
X143513000Y-42294128D01*
X143513000Y-41451000D01*
X143250500Y-41451000D01*
X143183461Y-41431315D01*
X143137706Y-41378511D01*
X143126500Y-41327000D01*
X143126500Y-41008605D01*
X143126499Y-41008601D01*
X143102157Y-40886222D01*
X143102154Y-40886213D01*
X143088168Y-40852447D01*
X143075142Y-40820999D01*
X143054401Y-40770925D01*
X143054399Y-40770923D01*
X143054399Y-40770921D01*
X142985072Y-40667167D01*
X142985069Y-40667163D01*
X140904218Y-38586314D01*
X140870733Y-38524991D01*
X140875717Y-38455299D01*
X140917589Y-38399366D01*
X140983053Y-38374949D01*
X140991449Y-38374635D01*
X142279673Y-38370396D01*
X142279920Y-38370467D01*
X142279920Y-38370395D01*
X151049943Y-38359190D01*
X151117006Y-38378789D01*
G37*
%TD.AperFunction*%
%TD*%
M02*
