M48
; DRILL file {KiCad 8.0.2} date 2024-07-30T13:46:04+0200
; FORMAT={-:-/ absolute / inch / decimal}
; #@! TF.CreationDate,2024-07-30T13:46:04+02:00
; #@! TF.GenerationSoftware,Kicad,Pcbnew,8.0.2
; #@! TF.FileFunction,Plated,1,2,PTH
FMAT,2
INCH
; #@! TA.AperFunction,Plated,PTH,ViaDrill
T1C0.0157
; #@! TA.AperFunction,Plated,PTH,ViaDrill
T2C0.0197
; #@! TA.AperFunction,Plated,PTH,ViaDrill
T3C0.0236
; #@! TA.AperFunction,Plated,PTH,ComponentDrill
T4C0.0256
; #@! TA.AperFunction,Plated,PTH,ComponentDrill
T5C0.0295
; #@! TA.AperFunction,Plated,PTH,ComponentDrill
T6C0.0350
; #@! TA.AperFunction,Plated,PTH,ComponentDrill
T7C0.0591
; #@! TA.AperFunction,Plated,PTH,ComponentDrill
T8C0.0669
%
G90
G05
T1
X4.919Y-2.0146
X5.0919Y-1.9585
X5.1533Y-2.9831
X5.1645Y-2.5078
X5.2066Y-3.0971
X5.2793Y-3.0697
X5.28Y-2.7776
X5.3068Y-2.0213
X5.3576Y-3.3933
X5.4013Y-2.8985
X5.4367Y-2.8197
X5.4509Y-1.9
X5.4604Y-3.3512
X5.48Y-2.7646
X5.4879Y-3.5008
X5.4899Y-3.1603
X5.5194Y-2.7567
X5.5312Y-3.0363
X5.5627Y-2.7845
X5.5745Y-2.989
X5.6021Y-3.0953
X5.6102Y-2.3633
X5.6384Y-3.4173
X5.6422Y-3.5953
X5.671Y-2.9044
X5.6946Y-3.3926
X5.7517Y-2.7843
X5.7635Y-2.1977
T2
X5.0954Y-2.3
X5.2505Y-3.6087
X5.2859Y-3.5276
X5.4356Y-2.4819
X5.547Y-2.4552
T3
X5.0596Y-2.5906
X5.4139Y-3.0945
T4
X5.8269Y-1.7213
X5.8269Y-1.7713
X5.8269Y-1.8213
T5
X5.56Y-1.6811
X5.61Y-1.6811
X5.66Y-1.6811
T6
X4.9643Y-2.9615
X4.9643Y-3.0615
X4.9643Y-3.1615
X4.9643Y-3.2615
X4.9643Y-3.3615
X4.9643Y-3.4615
X4.9643Y-3.5615
X4.9643Y-3.6615
X5.8643Y-2.9615
X5.8643Y-3.0615
X5.8643Y-3.1615
X5.8643Y-3.2615
X5.8643Y-3.3615
X5.8643Y-3.4615
X5.8643Y-3.5615
X5.8643Y-3.6615
T7
X5.1903Y-1.7071
T8
X5.0903Y-1.6071
X5.0903Y-1.8071
X5.2903Y-1.6071
X5.2903Y-1.8071
M30
