%TF.GenerationSoftware,KiCad,Pcbnew,8.0.2*%
%TF.CreationDate,2024-07-30T13:46:02+02:00*%
%TF.ProjectId,lc29h_mikrobus_PCB,6c633239-685f-46d6-996b-726f6275735f,rev?*%
%TF.SameCoordinates,Original*%
%TF.FileFunction,Soldermask,Top*%
%TF.FilePolarity,Negative*%
%FSLAX46Y46*%
G04 Gerber Fmt 4.6, Leading zero omitted, Abs format (unit mm)*
G04 Created by KiCad (PCBNEW 8.0.2) date 2024-07-30 13:46:02*
%MOMM*%
%LPD*%
G01*
G04 APERTURE LIST*
G04 Aperture macros list*
%AMRoundRect*
0 Rectangle with rounded corners*
0 $1 Rounding radius*
0 $2 $3 $4 $5 $6 $7 $8 $9 X,Y pos of 4 corners*
0 Add a 4 corners polygon primitive as box body*
4,1,4,$2,$3,$4,$5,$6,$7,$8,$9,$2,$3,0*
0 Add four circle primitives for the rounded corners*
1,1,$1+$1,$2,$3*
1,1,$1+$1,$4,$5*
1,1,$1+$1,$6,$7*
1,1,$1+$1,$8,$9*
0 Add four rect primitives between the rounded corners*
20,1,$1+$1,$2,$3,$4,$5,0*
20,1,$1+$1,$4,$5,$6,$7,0*
20,1,$1+$1,$6,$7,$8,$9,0*
20,1,$1+$1,$8,$9,$2,$3,0*%
%AMFreePoly0*
4,1,17,1.395000,0.765000,0.855000,0.765000,0.855000,0.535000,1.395000,0.535000,1.395000,0.115000,0.855000,0.115000,0.855000,-0.115000,1.395000,-0.115000,1.395000,-0.535000,0.855000,-0.535000,0.855000,-0.765000,1.395000,-0.765000,1.395000,-1.185000,-0.855000,-1.185000,-0.855000,1.185000,1.395000,1.185000,1.395000,0.765000,1.395000,0.765000,$1*%
G04 Aperture macros list end*
%ADD10R,1.445000X1.445000*%
%ADD11C,1.445000*%
%ADD12RoundRect,0.147500X-0.172500X0.147500X-0.172500X-0.147500X0.172500X-0.147500X0.172500X0.147500X0*%
%ADD13RoundRect,0.100000X-0.130000X-0.100000X0.130000X-0.100000X0.130000X0.100000X-0.130000X0.100000X0*%
%ADD14RoundRect,0.100000X0.130000X0.100000X-0.130000X0.100000X-0.130000X-0.100000X0.130000X-0.100000X0*%
%ADD15R,0.450000X0.750000*%
%ADD16R,2.400000X1.600000*%
%ADD17R,1.200000X1.200000*%
%ADD18R,1.000000X1.000000*%
%ADD19O,1.000000X1.000000*%
%ADD20R,0.800000X0.300000*%
%ADD21RoundRect,0.100000X-0.100000X0.130000X-0.100000X-0.130000X0.100000X-0.130000X0.100000X0.130000X0*%
%ADD22RoundRect,0.105000X-0.245000X-0.105000X0.245000X-0.105000X0.245000X0.105000X-0.245000X0.105000X0*%
%ADD23FreePoly0,0.000000*%
%ADD24RoundRect,0.100000X0.100000X-0.130000X0.100000X0.130000X-0.100000X0.130000X-0.100000X-0.130000X0*%
%ADD25RoundRect,0.250000X0.550000X-0.250000X0.550000X0.250000X-0.550000X0.250000X-0.550000X-0.250000X0*%
%ADD26R,0.244000X0.300000*%
%ADD27RoundRect,0.237500X0.237500X-0.250000X0.237500X0.250000X-0.237500X0.250000X-0.237500X-0.250000X0*%
%ADD28C,2.050000*%
%ADD29C,2.250000*%
%ADD30R,1.125000X0.600000*%
%ADD31RoundRect,0.200000X-0.200000X1.050000X-0.200000X-1.050000X0.200000X-1.050000X0.200000X1.050000X0*%
%ADD32R,1.050000X1.500000*%
%ADD33O,1.050000X1.500000*%
%ADD34R,0.600000X1.250000*%
%ADD35R,0.650000X1.100000*%
G04 APERTURE END LIST*
D10*
%TO.C,IC1*%
X126093000Y-75221000D03*
D11*
X126093000Y-77761000D03*
X126093000Y-80301000D03*
X126093000Y-82841000D03*
X126093000Y-85381000D03*
X126093000Y-87921000D03*
X126093000Y-90461000D03*
X126093000Y-93001000D03*
X148953000Y-75221000D03*
X148953000Y-77761000D03*
X148953000Y-80301000D03*
X148953000Y-82841000D03*
X148953000Y-85381000D03*
X148953000Y-87921000D03*
X148953000Y-90461000D03*
X148953000Y-93001000D03*
%TD*%
D12*
%TO.C,D1*%
X130393000Y-80623500D03*
X130393000Y-81593500D03*
%TD*%
D13*
%TO.C,R13*%
X131453000Y-77771000D03*
X132093000Y-77771000D03*
%TD*%
D14*
%TO.C,R18*%
X129568000Y-71521000D03*
X128928000Y-71521000D03*
%TD*%
D15*
%TO.C,IC2*%
X132079500Y-90247000D03*
X131129500Y-90247000D03*
X130179500Y-90247000D03*
X130179500Y-93247000D03*
X131129500Y-93247000D03*
X132079500Y-93247000D03*
D16*
X131129500Y-91747000D03*
%TD*%
D17*
%TO.C,D2*%
X125725500Y-61731000D03*
X128525500Y-61731000D03*
%TD*%
D18*
%TO.C,J2*%
X148003000Y-43721000D03*
D19*
X148003000Y-44991000D03*
X148003000Y-46261000D03*
%TD*%
D14*
%TO.C,C4*%
X127003000Y-53431000D03*
X126363000Y-53431000D03*
%TD*%
D13*
%TO.C,R4*%
X125838000Y-49971000D03*
X126478000Y-49971000D03*
%TD*%
D14*
%TO.C,C2*%
X127048000Y-56931000D03*
X126408000Y-56931000D03*
%TD*%
D20*
%TO.C,U1*%
X145393000Y-83321000D03*
X145393000Y-82821000D03*
X145393000Y-82321000D03*
X145393000Y-81821000D03*
X142293000Y-81821000D03*
X142293000Y-82321000D03*
X142293000Y-82821000D03*
X142293000Y-83321000D03*
%TD*%
D21*
%TO.C,R5*%
X139343000Y-48351000D03*
X139343000Y-48991000D03*
%TD*%
D14*
%TO.C,R12*%
X127048000Y-58231000D03*
X126408000Y-58231000D03*
%TD*%
D22*
%TO.C,Q2*%
X140603000Y-48121000D03*
X140603000Y-48771000D03*
X140603000Y-49421000D03*
X140603000Y-50071000D03*
D23*
X142558000Y-49096000D03*
%TD*%
D14*
%TO.C,R15*%
X134513000Y-93221000D03*
X133873000Y-93221000D03*
%TD*%
D24*
%TO.C,C6*%
X135713000Y-49361000D03*
X135713000Y-48721000D03*
%TD*%
D21*
%TO.C,C7*%
X131833000Y-50706000D03*
X131833000Y-51346000D03*
%TD*%
D14*
%TO.C,C3*%
X127048000Y-55231000D03*
X126408000Y-55231000D03*
%TD*%
D24*
%TO.C,R14*%
X148493000Y-59141000D03*
X148493000Y-58501000D03*
%TD*%
D21*
%TO.C,C9*%
X128593000Y-89856000D03*
X128593000Y-90496000D03*
%TD*%
D25*
%TO.C,SW1*%
X149443000Y-54371000D03*
X147143000Y-52621000D03*
X149443000Y-50871000D03*
%TD*%
D21*
%TO.C,R16*%
X132993000Y-88581000D03*
X132993000Y-89221000D03*
%TD*%
D13*
%TO.C,R3*%
X146573000Y-80421000D03*
X147213000Y-80421000D03*
%TD*%
D26*
%TO.C,D3*%
X131421000Y-48721000D03*
X131833000Y-48721000D03*
%TD*%
D24*
%TO.C,R10*%
X142293000Y-85721000D03*
X142293000Y-85081000D03*
%TD*%
D14*
%TO.C,L1*%
X132473000Y-49831000D03*
X131833000Y-49831000D03*
%TD*%
%TO.C,R19*%
X129568000Y-70521000D03*
X128928000Y-70521000D03*
%TD*%
D24*
%TO.C,R2*%
X130393000Y-83278500D03*
X130393000Y-82638500D03*
%TD*%
D27*
%TO.C,R1*%
X130393000Y-86633500D03*
X130393000Y-84808500D03*
%TD*%
D24*
%TO.C,R17*%
X128493000Y-79941000D03*
X128493000Y-79301000D03*
%TD*%
D13*
%TO.C,R6*%
X125878000Y-51121000D03*
X126518000Y-51121000D03*
%TD*%
D28*
%TO.C,J1*%
X131833000Y-43361000D03*
D29*
X129293000Y-40821000D03*
X129293000Y-45901000D03*
X134373000Y-40821000D03*
X134373000Y-45901000D03*
%TD*%
D24*
%TO.C,R11*%
X145393000Y-85721000D03*
X145393000Y-85081000D03*
%TD*%
D13*
%TO.C,R8*%
X141073000Y-77821000D03*
X141713000Y-77821000D03*
%TD*%
D24*
%TO.C,C5*%
X133603000Y-49366000D03*
X133603000Y-48726000D03*
%TD*%
D13*
%TO.C,C1*%
X146573000Y-79421000D03*
X147213000Y-79421000D03*
%TD*%
D30*
%TO.C,IC3*%
X139371000Y-89771000D03*
X139371000Y-90721000D03*
X139371000Y-91671000D03*
X141995000Y-91671000D03*
X141995000Y-90721000D03*
X141995000Y-89771000D03*
%TD*%
D13*
%TO.C,R7*%
X141273000Y-79521000D03*
X141913000Y-79521000D03*
%TD*%
D14*
%TO.C,R9*%
X137573000Y-50831000D03*
X136933000Y-50831000D03*
%TD*%
D31*
%TO.C,U2*%
X144733000Y-53291000D03*
X143633000Y-53291000D03*
X142533000Y-53291000D03*
X141433000Y-53291000D03*
X140333000Y-53291000D03*
X139233000Y-53291000D03*
X138133000Y-53291000D03*
X135133000Y-53291000D03*
X134033000Y-53291000D03*
X132933000Y-53291000D03*
X131833000Y-53291000D03*
X130733000Y-53291000D03*
X130733000Y-65491000D03*
X131833000Y-65491000D03*
X132933000Y-65491000D03*
X134033000Y-65491000D03*
X135133000Y-65491000D03*
X138133000Y-65491000D03*
X139233000Y-65491000D03*
X140333000Y-65491000D03*
X141433000Y-65491000D03*
X142533000Y-65491000D03*
X143633000Y-65491000D03*
X144733000Y-65491000D03*
%TD*%
D32*
%TO.C,Q1*%
X143763000Y-42701000D03*
D33*
X142493000Y-42701000D03*
X141223000Y-42701000D03*
%TD*%
D34*
%TO.C,Q4*%
X134938000Y-91671000D03*
X136848000Y-91671000D03*
X135893000Y-89571000D03*
%TD*%
%TO.C,Q5*%
X133138000Y-84621000D03*
X135048000Y-84621000D03*
X134093000Y-82521000D03*
%TD*%
D35*
%TO.C,Q3*%
X132933000Y-75021000D03*
X134853000Y-75021000D03*
X133893000Y-72921000D03*
%TD*%
D13*
%TO.C,C8*%
X143373000Y-89921000D03*
X144013000Y-89921000D03*
%TD*%
M02*
