%TF.GenerationSoftware,KiCad,Pcbnew,8.0.2*%
%TF.CreationDate,2024-07-30T14:50:55+02:00*%
%TF.ProjectId,lc29h_mikrobus_PCB,6c633239-685f-46d6-996b-726f6275735f,rev?*%
%TF.SameCoordinates,Original*%
%TF.FileFunction,Legend,Top*%
%TF.FilePolarity,Positive*%
%FSLAX46Y46*%
G04 Gerber Fmt 4.6, Leading zero omitted, Abs format (unit mm)*
G04 Created by KiCad (PCBNEW 8.0.2) date 2024-07-30 14:50:55*
%MOMM*%
%LPD*%
G01*
G04 APERTURE LIST*
%ADD10C,0.254000*%
%ADD11C,0.150000*%
%ADD12C,0.100000*%
%ADD13C,0.120000*%
%ADD14C,0.200000*%
%ADD15C,1.445000*%
%ADD16R,1.445000X1.445000*%
G04 APERTURE END LIST*
D10*
X136283237Y-82275318D02*
X136283237Y-81005318D01*
X137613714Y-82154365D02*
X137553238Y-82214842D01*
X137553238Y-82214842D02*
X137371809Y-82275318D01*
X137371809Y-82275318D02*
X137250857Y-82275318D01*
X137250857Y-82275318D02*
X137069428Y-82214842D01*
X137069428Y-82214842D02*
X136948476Y-82093889D01*
X136948476Y-82093889D02*
X136887999Y-81972937D01*
X136887999Y-81972937D02*
X136827523Y-81731032D01*
X136827523Y-81731032D02*
X136827523Y-81549603D01*
X136827523Y-81549603D02*
X136887999Y-81307699D01*
X136887999Y-81307699D02*
X136948476Y-81186746D01*
X136948476Y-81186746D02*
X137069428Y-81065794D01*
X137069428Y-81065794D02*
X137250857Y-81005318D01*
X137250857Y-81005318D02*
X137371809Y-81005318D01*
X137371809Y-81005318D02*
X137553238Y-81065794D01*
X137553238Y-81065794D02*
X137613714Y-81126270D01*
X138823238Y-82275318D02*
X138097523Y-82275318D01*
X138460380Y-82275318D02*
X138460380Y-81005318D01*
X138460380Y-81005318D02*
X138339428Y-81186746D01*
X138339428Y-81186746D02*
X138218476Y-81307699D01*
X138218476Y-81307699D02*
X138097523Y-81368175D01*
D11*
X132017819Y-81846594D02*
X131017819Y-81846594D01*
X131017819Y-81846594D02*
X131017819Y-81608499D01*
X131017819Y-81608499D02*
X131065438Y-81465642D01*
X131065438Y-81465642D02*
X131160676Y-81370404D01*
X131160676Y-81370404D02*
X131255914Y-81322785D01*
X131255914Y-81322785D02*
X131446390Y-81275166D01*
X131446390Y-81275166D02*
X131589247Y-81275166D01*
X131589247Y-81275166D02*
X131779723Y-81322785D01*
X131779723Y-81322785D02*
X131874961Y-81370404D01*
X131874961Y-81370404D02*
X131970200Y-81465642D01*
X131970200Y-81465642D02*
X132017819Y-81608499D01*
X132017819Y-81608499D02*
X132017819Y-81846594D01*
X132017819Y-80322785D02*
X132017819Y-80894213D01*
X132017819Y-80608499D02*
X131017819Y-80608499D01*
X131017819Y-80608499D02*
X131160676Y-80703737D01*
X131160676Y-80703737D02*
X131255914Y-80798975D01*
X131255914Y-80798975D02*
X131303533Y-80894213D01*
X130000142Y-76925819D02*
X129666809Y-76449628D01*
X129428714Y-76925819D02*
X129428714Y-75925819D01*
X129428714Y-75925819D02*
X129809666Y-75925819D01*
X129809666Y-75925819D02*
X129904904Y-75973438D01*
X129904904Y-75973438D02*
X129952523Y-76021057D01*
X129952523Y-76021057D02*
X130000142Y-76116295D01*
X130000142Y-76116295D02*
X130000142Y-76259152D01*
X130000142Y-76259152D02*
X129952523Y-76354390D01*
X129952523Y-76354390D02*
X129904904Y-76402009D01*
X129904904Y-76402009D02*
X129809666Y-76449628D01*
X129809666Y-76449628D02*
X129428714Y-76449628D01*
X130952523Y-76925819D02*
X130381095Y-76925819D01*
X130666809Y-76925819D02*
X130666809Y-75925819D01*
X130666809Y-75925819D02*
X130571571Y-76068676D01*
X130571571Y-76068676D02*
X130476333Y-76163914D01*
X130476333Y-76163914D02*
X130381095Y-76211533D01*
X131285857Y-75925819D02*
X131904904Y-75925819D01*
X131904904Y-75925819D02*
X131571571Y-76306771D01*
X131571571Y-76306771D02*
X131714428Y-76306771D01*
X131714428Y-76306771D02*
X131809666Y-76354390D01*
X131809666Y-76354390D02*
X131857285Y-76402009D01*
X131857285Y-76402009D02*
X131904904Y-76497247D01*
X131904904Y-76497247D02*
X131904904Y-76735342D01*
X131904904Y-76735342D02*
X131857285Y-76830580D01*
X131857285Y-76830580D02*
X131809666Y-76878200D01*
X131809666Y-76878200D02*
X131714428Y-76925819D01*
X131714428Y-76925819D02*
X131428714Y-76925819D01*
X131428714Y-76925819D02*
X131333476Y-76878200D01*
X131333476Y-76878200D02*
X131285857Y-76830580D01*
X128605142Y-73025819D02*
X128271809Y-72549628D01*
X128033714Y-73025819D02*
X128033714Y-72025819D01*
X128033714Y-72025819D02*
X128414666Y-72025819D01*
X128414666Y-72025819D02*
X128509904Y-72073438D01*
X128509904Y-72073438D02*
X128557523Y-72121057D01*
X128557523Y-72121057D02*
X128605142Y-72216295D01*
X128605142Y-72216295D02*
X128605142Y-72359152D01*
X128605142Y-72359152D02*
X128557523Y-72454390D01*
X128557523Y-72454390D02*
X128509904Y-72502009D01*
X128509904Y-72502009D02*
X128414666Y-72549628D01*
X128414666Y-72549628D02*
X128033714Y-72549628D01*
X129557523Y-73025819D02*
X128986095Y-73025819D01*
X129271809Y-73025819D02*
X129271809Y-72025819D01*
X129271809Y-72025819D02*
X129176571Y-72168676D01*
X129176571Y-72168676D02*
X129081333Y-72263914D01*
X129081333Y-72263914D02*
X128986095Y-72311533D01*
X130128952Y-72454390D02*
X130033714Y-72406771D01*
X130033714Y-72406771D02*
X129986095Y-72359152D01*
X129986095Y-72359152D02*
X129938476Y-72263914D01*
X129938476Y-72263914D02*
X129938476Y-72216295D01*
X129938476Y-72216295D02*
X129986095Y-72121057D01*
X129986095Y-72121057D02*
X130033714Y-72073438D01*
X130033714Y-72073438D02*
X130128952Y-72025819D01*
X130128952Y-72025819D02*
X130319428Y-72025819D01*
X130319428Y-72025819D02*
X130414666Y-72073438D01*
X130414666Y-72073438D02*
X130462285Y-72121057D01*
X130462285Y-72121057D02*
X130509904Y-72216295D01*
X130509904Y-72216295D02*
X130509904Y-72263914D01*
X130509904Y-72263914D02*
X130462285Y-72359152D01*
X130462285Y-72359152D02*
X130414666Y-72406771D01*
X130414666Y-72406771D02*
X130319428Y-72454390D01*
X130319428Y-72454390D02*
X130128952Y-72454390D01*
X130128952Y-72454390D02*
X130033714Y-72502009D01*
X130033714Y-72502009D02*
X129986095Y-72549628D01*
X129986095Y-72549628D02*
X129938476Y-72644866D01*
X129938476Y-72644866D02*
X129938476Y-72835342D01*
X129938476Y-72835342D02*
X129986095Y-72930580D01*
X129986095Y-72930580D02*
X130033714Y-72978200D01*
X130033714Y-72978200D02*
X130128952Y-73025819D01*
X130128952Y-73025819D02*
X130319428Y-73025819D01*
X130319428Y-73025819D02*
X130414666Y-72978200D01*
X130414666Y-72978200D02*
X130462285Y-72930580D01*
X130462285Y-72930580D02*
X130509904Y-72835342D01*
X130509904Y-72835342D02*
X130509904Y-72644866D01*
X130509904Y-72644866D02*
X130462285Y-72549628D01*
X130462285Y-72549628D02*
X130414666Y-72502009D01*
X130414666Y-72502009D02*
X130319428Y-72454390D01*
D10*
X129789737Y-95621318D02*
X129789737Y-94351318D01*
X131120214Y-95500365D02*
X131059738Y-95560842D01*
X131059738Y-95560842D02*
X130878309Y-95621318D01*
X130878309Y-95621318D02*
X130757357Y-95621318D01*
X130757357Y-95621318D02*
X130575928Y-95560842D01*
X130575928Y-95560842D02*
X130454976Y-95439889D01*
X130454976Y-95439889D02*
X130394499Y-95318937D01*
X130394499Y-95318937D02*
X130334023Y-95077032D01*
X130334023Y-95077032D02*
X130334023Y-94895603D01*
X130334023Y-94895603D02*
X130394499Y-94653699D01*
X130394499Y-94653699D02*
X130454976Y-94532746D01*
X130454976Y-94532746D02*
X130575928Y-94411794D01*
X130575928Y-94411794D02*
X130757357Y-94351318D01*
X130757357Y-94351318D02*
X130878309Y-94351318D01*
X130878309Y-94351318D02*
X131059738Y-94411794D01*
X131059738Y-94411794D02*
X131120214Y-94472270D01*
X131604023Y-94472270D02*
X131664499Y-94411794D01*
X131664499Y-94411794D02*
X131785452Y-94351318D01*
X131785452Y-94351318D02*
X132087833Y-94351318D01*
X132087833Y-94351318D02*
X132208785Y-94411794D01*
X132208785Y-94411794D02*
X132269261Y-94472270D01*
X132269261Y-94472270D02*
X132329738Y-94593222D01*
X132329738Y-94593222D02*
X132329738Y-94714175D01*
X132329738Y-94714175D02*
X132269261Y-94895603D01*
X132269261Y-94895603D02*
X131543547Y-95621318D01*
X131543547Y-95621318D02*
X132329738Y-95621318D01*
D11*
X125137405Y-64035819D02*
X125137405Y-63035819D01*
X125137405Y-63035819D02*
X125375500Y-63035819D01*
X125375500Y-63035819D02*
X125518357Y-63083438D01*
X125518357Y-63083438D02*
X125613595Y-63178676D01*
X125613595Y-63178676D02*
X125661214Y-63273914D01*
X125661214Y-63273914D02*
X125708833Y-63464390D01*
X125708833Y-63464390D02*
X125708833Y-63607247D01*
X125708833Y-63607247D02*
X125661214Y-63797723D01*
X125661214Y-63797723D02*
X125613595Y-63892961D01*
X125613595Y-63892961D02*
X125518357Y-63988200D01*
X125518357Y-63988200D02*
X125375500Y-64035819D01*
X125375500Y-64035819D02*
X125137405Y-64035819D01*
X126089786Y-63131057D02*
X126137405Y-63083438D01*
X126137405Y-63083438D02*
X126232643Y-63035819D01*
X126232643Y-63035819D02*
X126470738Y-63035819D01*
X126470738Y-63035819D02*
X126565976Y-63083438D01*
X126565976Y-63083438D02*
X126613595Y-63131057D01*
X126613595Y-63131057D02*
X126661214Y-63226295D01*
X126661214Y-63226295D02*
X126661214Y-63321533D01*
X126661214Y-63321533D02*
X126613595Y-63464390D01*
X126613595Y-63464390D02*
X126042167Y-64035819D01*
X126042167Y-64035819D02*
X126661214Y-64035819D01*
X147719666Y-41405819D02*
X147719666Y-42120104D01*
X147719666Y-42120104D02*
X147672047Y-42262961D01*
X147672047Y-42262961D02*
X147576809Y-42358200D01*
X147576809Y-42358200D02*
X147433952Y-42405819D01*
X147433952Y-42405819D02*
X147338714Y-42405819D01*
X148148238Y-41501057D02*
X148195857Y-41453438D01*
X148195857Y-41453438D02*
X148291095Y-41405819D01*
X148291095Y-41405819D02*
X148529190Y-41405819D01*
X148529190Y-41405819D02*
X148624428Y-41453438D01*
X148624428Y-41453438D02*
X148672047Y-41501057D01*
X148672047Y-41501057D02*
X148719666Y-41596295D01*
X148719666Y-41596295D02*
X148719666Y-41691533D01*
X148719666Y-41691533D02*
X148672047Y-41834390D01*
X148672047Y-41834390D02*
X148100619Y-42405819D01*
X148100619Y-42405819D02*
X148719666Y-42405819D01*
X124811333Y-53790580D02*
X124763714Y-53838200D01*
X124763714Y-53838200D02*
X124620857Y-53885819D01*
X124620857Y-53885819D02*
X124525619Y-53885819D01*
X124525619Y-53885819D02*
X124382762Y-53838200D01*
X124382762Y-53838200D02*
X124287524Y-53742961D01*
X124287524Y-53742961D02*
X124239905Y-53647723D01*
X124239905Y-53647723D02*
X124192286Y-53457247D01*
X124192286Y-53457247D02*
X124192286Y-53314390D01*
X124192286Y-53314390D02*
X124239905Y-53123914D01*
X124239905Y-53123914D02*
X124287524Y-53028676D01*
X124287524Y-53028676D02*
X124382762Y-52933438D01*
X124382762Y-52933438D02*
X124525619Y-52885819D01*
X124525619Y-52885819D02*
X124620857Y-52885819D01*
X124620857Y-52885819D02*
X124763714Y-52933438D01*
X124763714Y-52933438D02*
X124811333Y-52981057D01*
X125668476Y-53219152D02*
X125668476Y-53885819D01*
X125430381Y-52838200D02*
X125192286Y-53552485D01*
X125192286Y-53552485D02*
X125811333Y-53552485D01*
X125216333Y-49215819D02*
X124883000Y-48739628D01*
X124644905Y-49215819D02*
X124644905Y-48215819D01*
X124644905Y-48215819D02*
X125025857Y-48215819D01*
X125025857Y-48215819D02*
X125121095Y-48263438D01*
X125121095Y-48263438D02*
X125168714Y-48311057D01*
X125168714Y-48311057D02*
X125216333Y-48406295D01*
X125216333Y-48406295D02*
X125216333Y-48549152D01*
X125216333Y-48549152D02*
X125168714Y-48644390D01*
X125168714Y-48644390D02*
X125121095Y-48692009D01*
X125121095Y-48692009D02*
X125025857Y-48739628D01*
X125025857Y-48739628D02*
X124644905Y-48739628D01*
X126073476Y-48549152D02*
X126073476Y-49215819D01*
X125835381Y-48168200D02*
X125597286Y-48882485D01*
X125597286Y-48882485D02*
X126216333Y-48882485D01*
X124761333Y-57290580D02*
X124713714Y-57338200D01*
X124713714Y-57338200D02*
X124570857Y-57385819D01*
X124570857Y-57385819D02*
X124475619Y-57385819D01*
X124475619Y-57385819D02*
X124332762Y-57338200D01*
X124332762Y-57338200D02*
X124237524Y-57242961D01*
X124237524Y-57242961D02*
X124189905Y-57147723D01*
X124189905Y-57147723D02*
X124142286Y-56957247D01*
X124142286Y-56957247D02*
X124142286Y-56814390D01*
X124142286Y-56814390D02*
X124189905Y-56623914D01*
X124189905Y-56623914D02*
X124237524Y-56528676D01*
X124237524Y-56528676D02*
X124332762Y-56433438D01*
X124332762Y-56433438D02*
X124475619Y-56385819D01*
X124475619Y-56385819D02*
X124570857Y-56385819D01*
X124570857Y-56385819D02*
X124713714Y-56433438D01*
X124713714Y-56433438D02*
X124761333Y-56481057D01*
X125142286Y-56481057D02*
X125189905Y-56433438D01*
X125189905Y-56433438D02*
X125285143Y-56385819D01*
X125285143Y-56385819D02*
X125523238Y-56385819D01*
X125523238Y-56385819D02*
X125618476Y-56433438D01*
X125618476Y-56433438D02*
X125666095Y-56481057D01*
X125666095Y-56481057D02*
X125713714Y-56576295D01*
X125713714Y-56576295D02*
X125713714Y-56671533D01*
X125713714Y-56671533D02*
X125666095Y-56814390D01*
X125666095Y-56814390D02*
X125094667Y-57385819D01*
X125094667Y-57385819D02*
X125713714Y-57385819D01*
X143081095Y-84025819D02*
X143081095Y-84835342D01*
X143081095Y-84835342D02*
X143128714Y-84930580D01*
X143128714Y-84930580D02*
X143176333Y-84978200D01*
X143176333Y-84978200D02*
X143271571Y-85025819D01*
X143271571Y-85025819D02*
X143462047Y-85025819D01*
X143462047Y-85025819D02*
X143557285Y-84978200D01*
X143557285Y-84978200D02*
X143604904Y-84930580D01*
X143604904Y-84930580D02*
X143652523Y-84835342D01*
X143652523Y-84835342D02*
X143652523Y-84025819D01*
X144652523Y-85025819D02*
X144081095Y-85025819D01*
X144366809Y-85025819D02*
X144366809Y-84025819D01*
X144366809Y-84025819D02*
X144271571Y-84168676D01*
X144271571Y-84168676D02*
X144176333Y-84263914D01*
X144176333Y-84263914D02*
X144081095Y-84311533D01*
X139827819Y-46747666D02*
X139351628Y-47080999D01*
X139827819Y-47319094D02*
X138827819Y-47319094D01*
X138827819Y-47319094D02*
X138827819Y-46938142D01*
X138827819Y-46938142D02*
X138875438Y-46842904D01*
X138875438Y-46842904D02*
X138923057Y-46795285D01*
X138923057Y-46795285D02*
X139018295Y-46747666D01*
X139018295Y-46747666D02*
X139161152Y-46747666D01*
X139161152Y-46747666D02*
X139256390Y-46795285D01*
X139256390Y-46795285D02*
X139304009Y-46842904D01*
X139304009Y-46842904D02*
X139351628Y-46938142D01*
X139351628Y-46938142D02*
X139351628Y-47319094D01*
X138827819Y-45842904D02*
X138827819Y-46319094D01*
X138827819Y-46319094D02*
X139304009Y-46366713D01*
X139304009Y-46366713D02*
X139256390Y-46319094D01*
X139256390Y-46319094D02*
X139208771Y-46223856D01*
X139208771Y-46223856D02*
X139208771Y-45985761D01*
X139208771Y-45985761D02*
X139256390Y-45890523D01*
X139256390Y-45890523D02*
X139304009Y-45842904D01*
X139304009Y-45842904D02*
X139399247Y-45795285D01*
X139399247Y-45795285D02*
X139637342Y-45795285D01*
X139637342Y-45795285D02*
X139732580Y-45842904D01*
X139732580Y-45842904D02*
X139780200Y-45890523D01*
X139780200Y-45890523D02*
X139827819Y-45985761D01*
X139827819Y-45985761D02*
X139827819Y-46223856D01*
X139827819Y-46223856D02*
X139780200Y-46319094D01*
X139780200Y-46319094D02*
X139732580Y-46366713D01*
X128752819Y-58623857D02*
X128276628Y-58957190D01*
X128752819Y-59195285D02*
X127752819Y-59195285D01*
X127752819Y-59195285D02*
X127752819Y-58814333D01*
X127752819Y-58814333D02*
X127800438Y-58719095D01*
X127800438Y-58719095D02*
X127848057Y-58671476D01*
X127848057Y-58671476D02*
X127943295Y-58623857D01*
X127943295Y-58623857D02*
X128086152Y-58623857D01*
X128086152Y-58623857D02*
X128181390Y-58671476D01*
X128181390Y-58671476D02*
X128229009Y-58719095D01*
X128229009Y-58719095D02*
X128276628Y-58814333D01*
X128276628Y-58814333D02*
X128276628Y-59195285D01*
X128752819Y-57671476D02*
X128752819Y-58242904D01*
X128752819Y-57957190D02*
X127752819Y-57957190D01*
X127752819Y-57957190D02*
X127895676Y-58052428D01*
X127895676Y-58052428D02*
X127990914Y-58147666D01*
X127990914Y-58147666D02*
X128038533Y-58242904D01*
X127848057Y-57290523D02*
X127800438Y-57242904D01*
X127800438Y-57242904D02*
X127752819Y-57147666D01*
X127752819Y-57147666D02*
X127752819Y-56909571D01*
X127752819Y-56909571D02*
X127800438Y-56814333D01*
X127800438Y-56814333D02*
X127848057Y-56766714D01*
X127848057Y-56766714D02*
X127943295Y-56719095D01*
X127943295Y-56719095D02*
X128038533Y-56719095D01*
X128038533Y-56719095D02*
X128181390Y-56766714D01*
X128181390Y-56766714D02*
X128752819Y-57338142D01*
X128752819Y-57338142D02*
X128752819Y-56719095D01*
X145267761Y-49491057D02*
X145172523Y-49443438D01*
X145172523Y-49443438D02*
X145077285Y-49348200D01*
X145077285Y-49348200D02*
X144934428Y-49205342D01*
X144934428Y-49205342D02*
X144839190Y-49157723D01*
X144839190Y-49157723D02*
X144743952Y-49157723D01*
X144791571Y-49395819D02*
X144696333Y-49348200D01*
X144696333Y-49348200D02*
X144601095Y-49252961D01*
X144601095Y-49252961D02*
X144553476Y-49062485D01*
X144553476Y-49062485D02*
X144553476Y-48729152D01*
X144553476Y-48729152D02*
X144601095Y-48538676D01*
X144601095Y-48538676D02*
X144696333Y-48443438D01*
X144696333Y-48443438D02*
X144791571Y-48395819D01*
X144791571Y-48395819D02*
X144982047Y-48395819D01*
X144982047Y-48395819D02*
X145077285Y-48443438D01*
X145077285Y-48443438D02*
X145172523Y-48538676D01*
X145172523Y-48538676D02*
X145220142Y-48729152D01*
X145220142Y-48729152D02*
X145220142Y-49062485D01*
X145220142Y-49062485D02*
X145172523Y-49252961D01*
X145172523Y-49252961D02*
X145077285Y-49348200D01*
X145077285Y-49348200D02*
X144982047Y-49395819D01*
X144982047Y-49395819D02*
X144791571Y-49395819D01*
X145601095Y-48491057D02*
X145648714Y-48443438D01*
X145648714Y-48443438D02*
X145743952Y-48395819D01*
X145743952Y-48395819D02*
X145982047Y-48395819D01*
X145982047Y-48395819D02*
X146077285Y-48443438D01*
X146077285Y-48443438D02*
X146124904Y-48491057D01*
X146124904Y-48491057D02*
X146172523Y-48586295D01*
X146172523Y-48586295D02*
X146172523Y-48681533D01*
X146172523Y-48681533D02*
X146124904Y-48824390D01*
X146124904Y-48824390D02*
X145553476Y-49395819D01*
X145553476Y-49395819D02*
X146172523Y-49395819D01*
X133710142Y-94765819D02*
X133376809Y-94289628D01*
X133138714Y-94765819D02*
X133138714Y-93765819D01*
X133138714Y-93765819D02*
X133519666Y-93765819D01*
X133519666Y-93765819D02*
X133614904Y-93813438D01*
X133614904Y-93813438D02*
X133662523Y-93861057D01*
X133662523Y-93861057D02*
X133710142Y-93956295D01*
X133710142Y-93956295D02*
X133710142Y-94099152D01*
X133710142Y-94099152D02*
X133662523Y-94194390D01*
X133662523Y-94194390D02*
X133614904Y-94242009D01*
X133614904Y-94242009D02*
X133519666Y-94289628D01*
X133519666Y-94289628D02*
X133138714Y-94289628D01*
X134662523Y-94765819D02*
X134091095Y-94765819D01*
X134376809Y-94765819D02*
X134376809Y-93765819D01*
X134376809Y-93765819D02*
X134281571Y-93908676D01*
X134281571Y-93908676D02*
X134186333Y-94003914D01*
X134186333Y-94003914D02*
X134091095Y-94051533D01*
X135567285Y-93765819D02*
X135091095Y-93765819D01*
X135091095Y-93765819D02*
X135043476Y-94242009D01*
X135043476Y-94242009D02*
X135091095Y-94194390D01*
X135091095Y-94194390D02*
X135186333Y-94146771D01*
X135186333Y-94146771D02*
X135424428Y-94146771D01*
X135424428Y-94146771D02*
X135519666Y-94194390D01*
X135519666Y-94194390D02*
X135567285Y-94242009D01*
X135567285Y-94242009D02*
X135614904Y-94337247D01*
X135614904Y-94337247D02*
X135614904Y-94575342D01*
X135614904Y-94575342D02*
X135567285Y-94670580D01*
X135567285Y-94670580D02*
X135519666Y-94718200D01*
X135519666Y-94718200D02*
X135424428Y-94765819D01*
X135424428Y-94765819D02*
X135186333Y-94765819D01*
X135186333Y-94765819D02*
X135091095Y-94718200D01*
X135091095Y-94718200D02*
X135043476Y-94670580D01*
X135022580Y-49207666D02*
X135070200Y-49255285D01*
X135070200Y-49255285D02*
X135117819Y-49398142D01*
X135117819Y-49398142D02*
X135117819Y-49493380D01*
X135117819Y-49493380D02*
X135070200Y-49636237D01*
X135070200Y-49636237D02*
X134974961Y-49731475D01*
X134974961Y-49731475D02*
X134879723Y-49779094D01*
X134879723Y-49779094D02*
X134689247Y-49826713D01*
X134689247Y-49826713D02*
X134546390Y-49826713D01*
X134546390Y-49826713D02*
X134355914Y-49779094D01*
X134355914Y-49779094D02*
X134260676Y-49731475D01*
X134260676Y-49731475D02*
X134165438Y-49636237D01*
X134165438Y-49636237D02*
X134117819Y-49493380D01*
X134117819Y-49493380D02*
X134117819Y-49398142D01*
X134117819Y-49398142D02*
X134165438Y-49255285D01*
X134165438Y-49255285D02*
X134213057Y-49207666D01*
X134117819Y-48350523D02*
X134117819Y-48540999D01*
X134117819Y-48540999D02*
X134165438Y-48636237D01*
X134165438Y-48636237D02*
X134213057Y-48683856D01*
X134213057Y-48683856D02*
X134355914Y-48779094D01*
X134355914Y-48779094D02*
X134546390Y-48826713D01*
X134546390Y-48826713D02*
X134927342Y-48826713D01*
X134927342Y-48826713D02*
X135022580Y-48779094D01*
X135022580Y-48779094D02*
X135070200Y-48731475D01*
X135070200Y-48731475D02*
X135117819Y-48636237D01*
X135117819Y-48636237D02*
X135117819Y-48445761D01*
X135117819Y-48445761D02*
X135070200Y-48350523D01*
X135070200Y-48350523D02*
X135022580Y-48302904D01*
X135022580Y-48302904D02*
X134927342Y-48255285D01*
X134927342Y-48255285D02*
X134689247Y-48255285D01*
X134689247Y-48255285D02*
X134594009Y-48302904D01*
X134594009Y-48302904D02*
X134546390Y-48350523D01*
X134546390Y-48350523D02*
X134498771Y-48445761D01*
X134498771Y-48445761D02*
X134498771Y-48636237D01*
X134498771Y-48636237D02*
X134546390Y-48731475D01*
X134546390Y-48731475D02*
X134594009Y-48779094D01*
X134594009Y-48779094D02*
X134689247Y-48826713D01*
X133242580Y-51192666D02*
X133290200Y-51240285D01*
X133290200Y-51240285D02*
X133337819Y-51383142D01*
X133337819Y-51383142D02*
X133337819Y-51478380D01*
X133337819Y-51478380D02*
X133290200Y-51621237D01*
X133290200Y-51621237D02*
X133194961Y-51716475D01*
X133194961Y-51716475D02*
X133099723Y-51764094D01*
X133099723Y-51764094D02*
X132909247Y-51811713D01*
X132909247Y-51811713D02*
X132766390Y-51811713D01*
X132766390Y-51811713D02*
X132575914Y-51764094D01*
X132575914Y-51764094D02*
X132480676Y-51716475D01*
X132480676Y-51716475D02*
X132385438Y-51621237D01*
X132385438Y-51621237D02*
X132337819Y-51478380D01*
X132337819Y-51478380D02*
X132337819Y-51383142D01*
X132337819Y-51383142D02*
X132385438Y-51240285D01*
X132385438Y-51240285D02*
X132433057Y-51192666D01*
X132337819Y-50859332D02*
X132337819Y-50192666D01*
X132337819Y-50192666D02*
X133337819Y-50621237D01*
X124861333Y-55590580D02*
X124813714Y-55638200D01*
X124813714Y-55638200D02*
X124670857Y-55685819D01*
X124670857Y-55685819D02*
X124575619Y-55685819D01*
X124575619Y-55685819D02*
X124432762Y-55638200D01*
X124432762Y-55638200D02*
X124337524Y-55542961D01*
X124337524Y-55542961D02*
X124289905Y-55447723D01*
X124289905Y-55447723D02*
X124242286Y-55257247D01*
X124242286Y-55257247D02*
X124242286Y-55114390D01*
X124242286Y-55114390D02*
X124289905Y-54923914D01*
X124289905Y-54923914D02*
X124337524Y-54828676D01*
X124337524Y-54828676D02*
X124432762Y-54733438D01*
X124432762Y-54733438D02*
X124575619Y-54685819D01*
X124575619Y-54685819D02*
X124670857Y-54685819D01*
X124670857Y-54685819D02*
X124813714Y-54733438D01*
X124813714Y-54733438D02*
X124861333Y-54781057D01*
X125194667Y-54685819D02*
X125813714Y-54685819D01*
X125813714Y-54685819D02*
X125480381Y-55066771D01*
X125480381Y-55066771D02*
X125623238Y-55066771D01*
X125623238Y-55066771D02*
X125718476Y-55114390D01*
X125718476Y-55114390D02*
X125766095Y-55162009D01*
X125766095Y-55162009D02*
X125813714Y-55257247D01*
X125813714Y-55257247D02*
X125813714Y-55495342D01*
X125813714Y-55495342D02*
X125766095Y-55590580D01*
X125766095Y-55590580D02*
X125718476Y-55638200D01*
X125718476Y-55638200D02*
X125623238Y-55685819D01*
X125623238Y-55685819D02*
X125337524Y-55685819D01*
X125337524Y-55685819D02*
X125242286Y-55638200D01*
X125242286Y-55638200D02*
X125194667Y-55590580D01*
X147897819Y-59463857D02*
X147421628Y-59797190D01*
X147897819Y-60035285D02*
X146897819Y-60035285D01*
X146897819Y-60035285D02*
X146897819Y-59654333D01*
X146897819Y-59654333D02*
X146945438Y-59559095D01*
X146945438Y-59559095D02*
X146993057Y-59511476D01*
X146993057Y-59511476D02*
X147088295Y-59463857D01*
X147088295Y-59463857D02*
X147231152Y-59463857D01*
X147231152Y-59463857D02*
X147326390Y-59511476D01*
X147326390Y-59511476D02*
X147374009Y-59559095D01*
X147374009Y-59559095D02*
X147421628Y-59654333D01*
X147421628Y-59654333D02*
X147421628Y-60035285D01*
X147897819Y-58511476D02*
X147897819Y-59082904D01*
X147897819Y-58797190D02*
X146897819Y-58797190D01*
X146897819Y-58797190D02*
X147040676Y-58892428D01*
X147040676Y-58892428D02*
X147135914Y-58987666D01*
X147135914Y-58987666D02*
X147183533Y-59082904D01*
X147231152Y-57654333D02*
X147897819Y-57654333D01*
X146850200Y-57892428D02*
X147564485Y-58130523D01*
X147564485Y-58130523D02*
X147564485Y-57511476D01*
X128942580Y-92077666D02*
X128990200Y-92125285D01*
X128990200Y-92125285D02*
X129037819Y-92268142D01*
X129037819Y-92268142D02*
X129037819Y-92363380D01*
X129037819Y-92363380D02*
X128990200Y-92506237D01*
X128990200Y-92506237D02*
X128894961Y-92601475D01*
X128894961Y-92601475D02*
X128799723Y-92649094D01*
X128799723Y-92649094D02*
X128609247Y-92696713D01*
X128609247Y-92696713D02*
X128466390Y-92696713D01*
X128466390Y-92696713D02*
X128275914Y-92649094D01*
X128275914Y-92649094D02*
X128180676Y-92601475D01*
X128180676Y-92601475D02*
X128085438Y-92506237D01*
X128085438Y-92506237D02*
X128037819Y-92363380D01*
X128037819Y-92363380D02*
X128037819Y-92268142D01*
X128037819Y-92268142D02*
X128085438Y-92125285D01*
X128085438Y-92125285D02*
X128133057Y-92077666D01*
X129037819Y-91601475D02*
X129037819Y-91410999D01*
X129037819Y-91410999D02*
X128990200Y-91315761D01*
X128990200Y-91315761D02*
X128942580Y-91268142D01*
X128942580Y-91268142D02*
X128799723Y-91172904D01*
X128799723Y-91172904D02*
X128609247Y-91125285D01*
X128609247Y-91125285D02*
X128228295Y-91125285D01*
X128228295Y-91125285D02*
X128133057Y-91172904D01*
X128133057Y-91172904D02*
X128085438Y-91220523D01*
X128085438Y-91220523D02*
X128037819Y-91315761D01*
X128037819Y-91315761D02*
X128037819Y-91506237D01*
X128037819Y-91506237D02*
X128085438Y-91601475D01*
X128085438Y-91601475D02*
X128133057Y-91649094D01*
X128133057Y-91649094D02*
X128228295Y-91696713D01*
X128228295Y-91696713D02*
X128466390Y-91696713D01*
X128466390Y-91696713D02*
X128561628Y-91649094D01*
X128561628Y-91649094D02*
X128609247Y-91601475D01*
X128609247Y-91601475D02*
X128656866Y-91506237D01*
X128656866Y-91506237D02*
X128656866Y-91315761D01*
X128656866Y-91315761D02*
X128609247Y-91220523D01*
X128609247Y-91220523D02*
X128561628Y-91172904D01*
X128561628Y-91172904D02*
X128466390Y-91125285D01*
X146959667Y-56728200D02*
X147102524Y-56775819D01*
X147102524Y-56775819D02*
X147340619Y-56775819D01*
X147340619Y-56775819D02*
X147435857Y-56728200D01*
X147435857Y-56728200D02*
X147483476Y-56680580D01*
X147483476Y-56680580D02*
X147531095Y-56585342D01*
X147531095Y-56585342D02*
X147531095Y-56490104D01*
X147531095Y-56490104D02*
X147483476Y-56394866D01*
X147483476Y-56394866D02*
X147435857Y-56347247D01*
X147435857Y-56347247D02*
X147340619Y-56299628D01*
X147340619Y-56299628D02*
X147150143Y-56252009D01*
X147150143Y-56252009D02*
X147054905Y-56204390D01*
X147054905Y-56204390D02*
X147007286Y-56156771D01*
X147007286Y-56156771D02*
X146959667Y-56061533D01*
X146959667Y-56061533D02*
X146959667Y-55966295D01*
X146959667Y-55966295D02*
X147007286Y-55871057D01*
X147007286Y-55871057D02*
X147054905Y-55823438D01*
X147054905Y-55823438D02*
X147150143Y-55775819D01*
X147150143Y-55775819D02*
X147388238Y-55775819D01*
X147388238Y-55775819D02*
X147531095Y-55823438D01*
X147864429Y-55775819D02*
X148102524Y-56775819D01*
X148102524Y-56775819D02*
X148293000Y-56061533D01*
X148293000Y-56061533D02*
X148483476Y-56775819D01*
X148483476Y-56775819D02*
X148721572Y-55775819D01*
X149626333Y-56775819D02*
X149054905Y-56775819D01*
X149340619Y-56775819D02*
X149340619Y-55775819D01*
X149340619Y-55775819D02*
X149245381Y-55918676D01*
X149245381Y-55918676D02*
X149150143Y-56013914D01*
X149150143Y-56013914D02*
X149054905Y-56061533D01*
X130400142Y-89035819D02*
X130066809Y-88559628D01*
X129828714Y-89035819D02*
X129828714Y-88035819D01*
X129828714Y-88035819D02*
X130209666Y-88035819D01*
X130209666Y-88035819D02*
X130304904Y-88083438D01*
X130304904Y-88083438D02*
X130352523Y-88131057D01*
X130352523Y-88131057D02*
X130400142Y-88226295D01*
X130400142Y-88226295D02*
X130400142Y-88369152D01*
X130400142Y-88369152D02*
X130352523Y-88464390D01*
X130352523Y-88464390D02*
X130304904Y-88512009D01*
X130304904Y-88512009D02*
X130209666Y-88559628D01*
X130209666Y-88559628D02*
X129828714Y-88559628D01*
X131352523Y-89035819D02*
X130781095Y-89035819D01*
X131066809Y-89035819D02*
X131066809Y-88035819D01*
X131066809Y-88035819D02*
X130971571Y-88178676D01*
X130971571Y-88178676D02*
X130876333Y-88273914D01*
X130876333Y-88273914D02*
X130781095Y-88321533D01*
X132209666Y-88035819D02*
X132019190Y-88035819D01*
X132019190Y-88035819D02*
X131923952Y-88083438D01*
X131923952Y-88083438D02*
X131876333Y-88131057D01*
X131876333Y-88131057D02*
X131781095Y-88273914D01*
X131781095Y-88273914D02*
X131733476Y-88464390D01*
X131733476Y-88464390D02*
X131733476Y-88845342D01*
X131733476Y-88845342D02*
X131781095Y-88940580D01*
X131781095Y-88940580D02*
X131828714Y-88988200D01*
X131828714Y-88988200D02*
X131923952Y-89035819D01*
X131923952Y-89035819D02*
X132114428Y-89035819D01*
X132114428Y-89035819D02*
X132209666Y-88988200D01*
X132209666Y-88988200D02*
X132257285Y-88940580D01*
X132257285Y-88940580D02*
X132304904Y-88845342D01*
X132304904Y-88845342D02*
X132304904Y-88607247D01*
X132304904Y-88607247D02*
X132257285Y-88512009D01*
X132257285Y-88512009D02*
X132209666Y-88464390D01*
X132209666Y-88464390D02*
X132114428Y-88416771D01*
X132114428Y-88416771D02*
X131923952Y-88416771D01*
X131923952Y-88416771D02*
X131828714Y-88464390D01*
X131828714Y-88464390D02*
X131781095Y-88512009D01*
X131781095Y-88512009D02*
X131733476Y-88607247D01*
X144956333Y-80885819D02*
X144623000Y-80409628D01*
X144384905Y-80885819D02*
X144384905Y-79885819D01*
X144384905Y-79885819D02*
X144765857Y-79885819D01*
X144765857Y-79885819D02*
X144861095Y-79933438D01*
X144861095Y-79933438D02*
X144908714Y-79981057D01*
X144908714Y-79981057D02*
X144956333Y-80076295D01*
X144956333Y-80076295D02*
X144956333Y-80219152D01*
X144956333Y-80219152D02*
X144908714Y-80314390D01*
X144908714Y-80314390D02*
X144861095Y-80362009D01*
X144861095Y-80362009D02*
X144765857Y-80409628D01*
X144765857Y-80409628D02*
X144384905Y-80409628D01*
X145289667Y-79885819D02*
X145908714Y-79885819D01*
X145908714Y-79885819D02*
X145575381Y-80266771D01*
X145575381Y-80266771D02*
X145718238Y-80266771D01*
X145718238Y-80266771D02*
X145813476Y-80314390D01*
X145813476Y-80314390D02*
X145861095Y-80362009D01*
X145861095Y-80362009D02*
X145908714Y-80457247D01*
X145908714Y-80457247D02*
X145908714Y-80695342D01*
X145908714Y-80695342D02*
X145861095Y-80790580D01*
X145861095Y-80790580D02*
X145813476Y-80838200D01*
X145813476Y-80838200D02*
X145718238Y-80885819D01*
X145718238Y-80885819D02*
X145432524Y-80885819D01*
X145432524Y-80885819D02*
X145337286Y-80838200D01*
X145337286Y-80838200D02*
X145289667Y-80790580D01*
D10*
X128359618Y-48785318D02*
X128359618Y-47515318D01*
X128359618Y-47515318D02*
X128661999Y-47515318D01*
X128661999Y-47515318D02*
X128843428Y-47575794D01*
X128843428Y-47575794D02*
X128964380Y-47696746D01*
X128964380Y-47696746D02*
X129024857Y-47817699D01*
X129024857Y-47817699D02*
X129085333Y-48059603D01*
X129085333Y-48059603D02*
X129085333Y-48241032D01*
X129085333Y-48241032D02*
X129024857Y-48482937D01*
X129024857Y-48482937D02*
X128964380Y-48603889D01*
X128964380Y-48603889D02*
X128843428Y-48724842D01*
X128843428Y-48724842D02*
X128661999Y-48785318D01*
X128661999Y-48785318D02*
X128359618Y-48785318D01*
X129508666Y-47515318D02*
X130294857Y-47515318D01*
X130294857Y-47515318D02*
X129871523Y-47999127D01*
X129871523Y-47999127D02*
X130052952Y-47999127D01*
X130052952Y-47999127D02*
X130173904Y-48059603D01*
X130173904Y-48059603D02*
X130234380Y-48120080D01*
X130234380Y-48120080D02*
X130294857Y-48241032D01*
X130294857Y-48241032D02*
X130294857Y-48543413D01*
X130294857Y-48543413D02*
X130234380Y-48664365D01*
X130234380Y-48664365D02*
X130173904Y-48724842D01*
X130173904Y-48724842D02*
X130052952Y-48785318D01*
X130052952Y-48785318D02*
X129690095Y-48785318D01*
X129690095Y-48785318D02*
X129569142Y-48724842D01*
X129569142Y-48724842D02*
X129508666Y-48664365D01*
D11*
X141697819Y-86043857D02*
X141221628Y-86377190D01*
X141697819Y-86615285D02*
X140697819Y-86615285D01*
X140697819Y-86615285D02*
X140697819Y-86234333D01*
X140697819Y-86234333D02*
X140745438Y-86139095D01*
X140745438Y-86139095D02*
X140793057Y-86091476D01*
X140793057Y-86091476D02*
X140888295Y-86043857D01*
X140888295Y-86043857D02*
X141031152Y-86043857D01*
X141031152Y-86043857D02*
X141126390Y-86091476D01*
X141126390Y-86091476D02*
X141174009Y-86139095D01*
X141174009Y-86139095D02*
X141221628Y-86234333D01*
X141221628Y-86234333D02*
X141221628Y-86615285D01*
X141697819Y-85091476D02*
X141697819Y-85662904D01*
X141697819Y-85377190D02*
X140697819Y-85377190D01*
X140697819Y-85377190D02*
X140840676Y-85472428D01*
X140840676Y-85472428D02*
X140935914Y-85567666D01*
X140935914Y-85567666D02*
X140983533Y-85662904D01*
X140697819Y-84472428D02*
X140697819Y-84377190D01*
X140697819Y-84377190D02*
X140745438Y-84281952D01*
X140745438Y-84281952D02*
X140793057Y-84234333D01*
X140793057Y-84234333D02*
X140888295Y-84186714D01*
X140888295Y-84186714D02*
X141078771Y-84139095D01*
X141078771Y-84139095D02*
X141316866Y-84139095D01*
X141316866Y-84139095D02*
X141507342Y-84186714D01*
X141507342Y-84186714D02*
X141602580Y-84234333D01*
X141602580Y-84234333D02*
X141650200Y-84281952D01*
X141650200Y-84281952D02*
X141697819Y-84377190D01*
X141697819Y-84377190D02*
X141697819Y-84472428D01*
X141697819Y-84472428D02*
X141650200Y-84567666D01*
X141650200Y-84567666D02*
X141602580Y-84615285D01*
X141602580Y-84615285D02*
X141507342Y-84662904D01*
X141507342Y-84662904D02*
X141316866Y-84710523D01*
X141316866Y-84710523D02*
X141078771Y-84710523D01*
X141078771Y-84710523D02*
X140888295Y-84662904D01*
X140888295Y-84662904D02*
X140793057Y-84615285D01*
X140793057Y-84615285D02*
X140745438Y-84567666D01*
X140745438Y-84567666D02*
X140697819Y-84472428D01*
X130336333Y-50285819D02*
X129860143Y-50285819D01*
X129860143Y-50285819D02*
X129860143Y-49285819D01*
X131193476Y-50285819D02*
X130622048Y-50285819D01*
X130907762Y-50285819D02*
X130907762Y-49285819D01*
X130907762Y-49285819D02*
X130812524Y-49428676D01*
X130812524Y-49428676D02*
X130717286Y-49523914D01*
X130717286Y-49523914D02*
X130622048Y-49571533D01*
X128720142Y-69975819D02*
X128386809Y-69499628D01*
X128148714Y-69975819D02*
X128148714Y-68975819D01*
X128148714Y-68975819D02*
X128529666Y-68975819D01*
X128529666Y-68975819D02*
X128624904Y-69023438D01*
X128624904Y-69023438D02*
X128672523Y-69071057D01*
X128672523Y-69071057D02*
X128720142Y-69166295D01*
X128720142Y-69166295D02*
X128720142Y-69309152D01*
X128720142Y-69309152D02*
X128672523Y-69404390D01*
X128672523Y-69404390D02*
X128624904Y-69452009D01*
X128624904Y-69452009D02*
X128529666Y-69499628D01*
X128529666Y-69499628D02*
X128148714Y-69499628D01*
X129672523Y-69975819D02*
X129101095Y-69975819D01*
X129386809Y-69975819D02*
X129386809Y-68975819D01*
X129386809Y-68975819D02*
X129291571Y-69118676D01*
X129291571Y-69118676D02*
X129196333Y-69213914D01*
X129196333Y-69213914D02*
X129101095Y-69261533D01*
X130148714Y-69975819D02*
X130339190Y-69975819D01*
X130339190Y-69975819D02*
X130434428Y-69928200D01*
X130434428Y-69928200D02*
X130482047Y-69880580D01*
X130482047Y-69880580D02*
X130577285Y-69737723D01*
X130577285Y-69737723D02*
X130624904Y-69547247D01*
X130624904Y-69547247D02*
X130624904Y-69166295D01*
X130624904Y-69166295D02*
X130577285Y-69071057D01*
X130577285Y-69071057D02*
X130529666Y-69023438D01*
X130529666Y-69023438D02*
X130434428Y-68975819D01*
X130434428Y-68975819D02*
X130243952Y-68975819D01*
X130243952Y-68975819D02*
X130148714Y-69023438D01*
X130148714Y-69023438D02*
X130101095Y-69071057D01*
X130101095Y-69071057D02*
X130053476Y-69166295D01*
X130053476Y-69166295D02*
X130053476Y-69404390D01*
X130053476Y-69404390D02*
X130101095Y-69499628D01*
X130101095Y-69499628D02*
X130148714Y-69547247D01*
X130148714Y-69547247D02*
X130243952Y-69594866D01*
X130243952Y-69594866D02*
X130434428Y-69594866D01*
X130434428Y-69594866D02*
X130529666Y-69547247D01*
X130529666Y-69547247D02*
X130577285Y-69499628D01*
X130577285Y-69499628D02*
X130624904Y-69404390D01*
X129797819Y-83125166D02*
X129321628Y-83458499D01*
X129797819Y-83696594D02*
X128797819Y-83696594D01*
X128797819Y-83696594D02*
X128797819Y-83315642D01*
X128797819Y-83315642D02*
X128845438Y-83220404D01*
X128845438Y-83220404D02*
X128893057Y-83172785D01*
X128893057Y-83172785D02*
X128988295Y-83125166D01*
X128988295Y-83125166D02*
X129131152Y-83125166D01*
X129131152Y-83125166D02*
X129226390Y-83172785D01*
X129226390Y-83172785D02*
X129274009Y-83220404D01*
X129274009Y-83220404D02*
X129321628Y-83315642D01*
X129321628Y-83315642D02*
X129321628Y-83696594D01*
X128893057Y-82744213D02*
X128845438Y-82696594D01*
X128845438Y-82696594D02*
X128797819Y-82601356D01*
X128797819Y-82601356D02*
X128797819Y-82363261D01*
X128797819Y-82363261D02*
X128845438Y-82268023D01*
X128845438Y-82268023D02*
X128893057Y-82220404D01*
X128893057Y-82220404D02*
X128988295Y-82172785D01*
X128988295Y-82172785D02*
X129083533Y-82172785D01*
X129083533Y-82172785D02*
X129226390Y-82220404D01*
X129226390Y-82220404D02*
X129797819Y-82791832D01*
X129797819Y-82791832D02*
X129797819Y-82172785D01*
X129417819Y-85887666D02*
X128941628Y-86220999D01*
X129417819Y-86459094D02*
X128417819Y-86459094D01*
X128417819Y-86459094D02*
X128417819Y-86078142D01*
X128417819Y-86078142D02*
X128465438Y-85982904D01*
X128465438Y-85982904D02*
X128513057Y-85935285D01*
X128513057Y-85935285D02*
X128608295Y-85887666D01*
X128608295Y-85887666D02*
X128751152Y-85887666D01*
X128751152Y-85887666D02*
X128846390Y-85935285D01*
X128846390Y-85935285D02*
X128894009Y-85982904D01*
X128894009Y-85982904D02*
X128941628Y-86078142D01*
X128941628Y-86078142D02*
X128941628Y-86459094D01*
X129417819Y-84935285D02*
X129417819Y-85506713D01*
X129417819Y-85220999D02*
X128417819Y-85220999D01*
X128417819Y-85220999D02*
X128560676Y-85316237D01*
X128560676Y-85316237D02*
X128655914Y-85411475D01*
X128655914Y-85411475D02*
X128703533Y-85506713D01*
X127897819Y-80263857D02*
X127421628Y-80597190D01*
X127897819Y-80835285D02*
X126897819Y-80835285D01*
X126897819Y-80835285D02*
X126897819Y-80454333D01*
X126897819Y-80454333D02*
X126945438Y-80359095D01*
X126945438Y-80359095D02*
X126993057Y-80311476D01*
X126993057Y-80311476D02*
X127088295Y-80263857D01*
X127088295Y-80263857D02*
X127231152Y-80263857D01*
X127231152Y-80263857D02*
X127326390Y-80311476D01*
X127326390Y-80311476D02*
X127374009Y-80359095D01*
X127374009Y-80359095D02*
X127421628Y-80454333D01*
X127421628Y-80454333D02*
X127421628Y-80835285D01*
X127897819Y-79311476D02*
X127897819Y-79882904D01*
X127897819Y-79597190D02*
X126897819Y-79597190D01*
X126897819Y-79597190D02*
X127040676Y-79692428D01*
X127040676Y-79692428D02*
X127135914Y-79787666D01*
X127135914Y-79787666D02*
X127183533Y-79882904D01*
X126897819Y-78978142D02*
X126897819Y-78311476D01*
X126897819Y-78311476D02*
X127897819Y-78740047D01*
X127726333Y-51945819D02*
X127393000Y-51469628D01*
X127154905Y-51945819D02*
X127154905Y-50945819D01*
X127154905Y-50945819D02*
X127535857Y-50945819D01*
X127535857Y-50945819D02*
X127631095Y-50993438D01*
X127631095Y-50993438D02*
X127678714Y-51041057D01*
X127678714Y-51041057D02*
X127726333Y-51136295D01*
X127726333Y-51136295D02*
X127726333Y-51279152D01*
X127726333Y-51279152D02*
X127678714Y-51374390D01*
X127678714Y-51374390D02*
X127631095Y-51422009D01*
X127631095Y-51422009D02*
X127535857Y-51469628D01*
X127535857Y-51469628D02*
X127154905Y-51469628D01*
X128583476Y-50945819D02*
X128393000Y-50945819D01*
X128393000Y-50945819D02*
X128297762Y-50993438D01*
X128297762Y-50993438D02*
X128250143Y-51041057D01*
X128250143Y-51041057D02*
X128154905Y-51183914D01*
X128154905Y-51183914D02*
X128107286Y-51374390D01*
X128107286Y-51374390D02*
X128107286Y-51755342D01*
X128107286Y-51755342D02*
X128154905Y-51850580D01*
X128154905Y-51850580D02*
X128202524Y-51898200D01*
X128202524Y-51898200D02*
X128297762Y-51945819D01*
X128297762Y-51945819D02*
X128488238Y-51945819D01*
X128488238Y-51945819D02*
X128583476Y-51898200D01*
X128583476Y-51898200D02*
X128631095Y-51850580D01*
X128631095Y-51850580D02*
X128678714Y-51755342D01*
X128678714Y-51755342D02*
X128678714Y-51517247D01*
X128678714Y-51517247D02*
X128631095Y-51422009D01*
X128631095Y-51422009D02*
X128583476Y-51374390D01*
X128583476Y-51374390D02*
X128488238Y-51326771D01*
X128488238Y-51326771D02*
X128297762Y-51326771D01*
X128297762Y-51326771D02*
X128202524Y-51374390D01*
X128202524Y-51374390D02*
X128154905Y-51422009D01*
X128154905Y-51422009D02*
X128107286Y-51517247D01*
X126309666Y-42775819D02*
X126309666Y-43490104D01*
X126309666Y-43490104D02*
X126262047Y-43632961D01*
X126262047Y-43632961D02*
X126166809Y-43728200D01*
X126166809Y-43728200D02*
X126023952Y-43775819D01*
X126023952Y-43775819D02*
X125928714Y-43775819D01*
X127309666Y-43775819D02*
X126738238Y-43775819D01*
X127023952Y-43775819D02*
X127023952Y-42775819D01*
X127023952Y-42775819D02*
X126928714Y-42918676D01*
X126928714Y-42918676D02*
X126833476Y-43013914D01*
X126833476Y-43013914D02*
X126738238Y-43061533D01*
X147677819Y-84703857D02*
X147201628Y-85037190D01*
X147677819Y-85275285D02*
X146677819Y-85275285D01*
X146677819Y-85275285D02*
X146677819Y-84894333D01*
X146677819Y-84894333D02*
X146725438Y-84799095D01*
X146725438Y-84799095D02*
X146773057Y-84751476D01*
X146773057Y-84751476D02*
X146868295Y-84703857D01*
X146868295Y-84703857D02*
X147011152Y-84703857D01*
X147011152Y-84703857D02*
X147106390Y-84751476D01*
X147106390Y-84751476D02*
X147154009Y-84799095D01*
X147154009Y-84799095D02*
X147201628Y-84894333D01*
X147201628Y-84894333D02*
X147201628Y-85275285D01*
X147677819Y-83751476D02*
X147677819Y-84322904D01*
X147677819Y-84037190D02*
X146677819Y-84037190D01*
X146677819Y-84037190D02*
X146820676Y-84132428D01*
X146820676Y-84132428D02*
X146915914Y-84227666D01*
X146915914Y-84227666D02*
X146963533Y-84322904D01*
X147677819Y-82799095D02*
X147677819Y-83370523D01*
X147677819Y-83084809D02*
X146677819Y-83084809D01*
X146677819Y-83084809D02*
X146820676Y-83180047D01*
X146820676Y-83180047D02*
X146915914Y-83275285D01*
X146915914Y-83275285D02*
X146963533Y-83370523D01*
X142726333Y-77475819D02*
X142393000Y-76999628D01*
X142154905Y-77475819D02*
X142154905Y-76475819D01*
X142154905Y-76475819D02*
X142535857Y-76475819D01*
X142535857Y-76475819D02*
X142631095Y-76523438D01*
X142631095Y-76523438D02*
X142678714Y-76571057D01*
X142678714Y-76571057D02*
X142726333Y-76666295D01*
X142726333Y-76666295D02*
X142726333Y-76809152D01*
X142726333Y-76809152D02*
X142678714Y-76904390D01*
X142678714Y-76904390D02*
X142631095Y-76952009D01*
X142631095Y-76952009D02*
X142535857Y-76999628D01*
X142535857Y-76999628D02*
X142154905Y-76999628D01*
X143297762Y-76904390D02*
X143202524Y-76856771D01*
X143202524Y-76856771D02*
X143154905Y-76809152D01*
X143154905Y-76809152D02*
X143107286Y-76713914D01*
X143107286Y-76713914D02*
X143107286Y-76666295D01*
X143107286Y-76666295D02*
X143154905Y-76571057D01*
X143154905Y-76571057D02*
X143202524Y-76523438D01*
X143202524Y-76523438D02*
X143297762Y-76475819D01*
X143297762Y-76475819D02*
X143488238Y-76475819D01*
X143488238Y-76475819D02*
X143583476Y-76523438D01*
X143583476Y-76523438D02*
X143631095Y-76571057D01*
X143631095Y-76571057D02*
X143678714Y-76666295D01*
X143678714Y-76666295D02*
X143678714Y-76713914D01*
X143678714Y-76713914D02*
X143631095Y-76809152D01*
X143631095Y-76809152D02*
X143583476Y-76856771D01*
X143583476Y-76856771D02*
X143488238Y-76904390D01*
X143488238Y-76904390D02*
X143297762Y-76904390D01*
X143297762Y-76904390D02*
X143202524Y-76952009D01*
X143202524Y-76952009D02*
X143154905Y-76999628D01*
X143154905Y-76999628D02*
X143107286Y-77094866D01*
X143107286Y-77094866D02*
X143107286Y-77285342D01*
X143107286Y-77285342D02*
X143154905Y-77380580D01*
X143154905Y-77380580D02*
X143202524Y-77428200D01*
X143202524Y-77428200D02*
X143297762Y-77475819D01*
X143297762Y-77475819D02*
X143488238Y-77475819D01*
X143488238Y-77475819D02*
X143583476Y-77428200D01*
X143583476Y-77428200D02*
X143631095Y-77380580D01*
X143631095Y-77380580D02*
X143678714Y-77285342D01*
X143678714Y-77285342D02*
X143678714Y-77094866D01*
X143678714Y-77094866D02*
X143631095Y-76999628D01*
X143631095Y-76999628D02*
X143583476Y-76952009D01*
X143583476Y-76952009D02*
X143488238Y-76904390D01*
X133112580Y-48787666D02*
X133160200Y-48835285D01*
X133160200Y-48835285D02*
X133207819Y-48978142D01*
X133207819Y-48978142D02*
X133207819Y-49073380D01*
X133207819Y-49073380D02*
X133160200Y-49216237D01*
X133160200Y-49216237D02*
X133064961Y-49311475D01*
X133064961Y-49311475D02*
X132969723Y-49359094D01*
X132969723Y-49359094D02*
X132779247Y-49406713D01*
X132779247Y-49406713D02*
X132636390Y-49406713D01*
X132636390Y-49406713D02*
X132445914Y-49359094D01*
X132445914Y-49359094D02*
X132350676Y-49311475D01*
X132350676Y-49311475D02*
X132255438Y-49216237D01*
X132255438Y-49216237D02*
X132207819Y-49073380D01*
X132207819Y-49073380D02*
X132207819Y-48978142D01*
X132207819Y-48978142D02*
X132255438Y-48835285D01*
X132255438Y-48835285D02*
X132303057Y-48787666D01*
X132207819Y-47882904D02*
X132207819Y-48359094D01*
X132207819Y-48359094D02*
X132684009Y-48406713D01*
X132684009Y-48406713D02*
X132636390Y-48359094D01*
X132636390Y-48359094D02*
X132588771Y-48263856D01*
X132588771Y-48263856D02*
X132588771Y-48025761D01*
X132588771Y-48025761D02*
X132636390Y-47930523D01*
X132636390Y-47930523D02*
X132684009Y-47882904D01*
X132684009Y-47882904D02*
X132779247Y-47835285D01*
X132779247Y-47835285D02*
X133017342Y-47835285D01*
X133017342Y-47835285D02*
X133112580Y-47882904D01*
X133112580Y-47882904D02*
X133160200Y-47930523D01*
X133160200Y-47930523D02*
X133207819Y-48025761D01*
X133207819Y-48025761D02*
X133207819Y-48263856D01*
X133207819Y-48263856D02*
X133160200Y-48359094D01*
X133160200Y-48359094D02*
X133112580Y-48406713D01*
X146726333Y-78730580D02*
X146678714Y-78778200D01*
X146678714Y-78778200D02*
X146535857Y-78825819D01*
X146535857Y-78825819D02*
X146440619Y-78825819D01*
X146440619Y-78825819D02*
X146297762Y-78778200D01*
X146297762Y-78778200D02*
X146202524Y-78682961D01*
X146202524Y-78682961D02*
X146154905Y-78587723D01*
X146154905Y-78587723D02*
X146107286Y-78397247D01*
X146107286Y-78397247D02*
X146107286Y-78254390D01*
X146107286Y-78254390D02*
X146154905Y-78063914D01*
X146154905Y-78063914D02*
X146202524Y-77968676D01*
X146202524Y-77968676D02*
X146297762Y-77873438D01*
X146297762Y-77873438D02*
X146440619Y-77825819D01*
X146440619Y-77825819D02*
X146535857Y-77825819D01*
X146535857Y-77825819D02*
X146678714Y-77873438D01*
X146678714Y-77873438D02*
X146726333Y-77921057D01*
X147678714Y-78825819D02*
X147107286Y-78825819D01*
X147393000Y-78825819D02*
X147393000Y-77825819D01*
X147393000Y-77825819D02*
X147297762Y-77968676D01*
X147297762Y-77968676D02*
X147202524Y-78063914D01*
X147202524Y-78063914D02*
X147107286Y-78111533D01*
D10*
X141902762Y-92836681D02*
X141902762Y-94106681D01*
X140572285Y-92957634D02*
X140632761Y-92897158D01*
X140632761Y-92897158D02*
X140814190Y-92836681D01*
X140814190Y-92836681D02*
X140935142Y-92836681D01*
X140935142Y-92836681D02*
X141116571Y-92897158D01*
X141116571Y-92897158D02*
X141237523Y-93018110D01*
X141237523Y-93018110D02*
X141298000Y-93139062D01*
X141298000Y-93139062D02*
X141358476Y-93380967D01*
X141358476Y-93380967D02*
X141358476Y-93562396D01*
X141358476Y-93562396D02*
X141298000Y-93804300D01*
X141298000Y-93804300D02*
X141237523Y-93925253D01*
X141237523Y-93925253D02*
X141116571Y-94046205D01*
X141116571Y-94046205D02*
X140935142Y-94106681D01*
X140935142Y-94106681D02*
X140814190Y-94106681D01*
X140814190Y-94106681D02*
X140632761Y-94046205D01*
X140632761Y-94046205D02*
X140572285Y-93985729D01*
X140148952Y-94106681D02*
X139362761Y-94106681D01*
X139362761Y-94106681D02*
X139786095Y-93622872D01*
X139786095Y-93622872D02*
X139604666Y-93622872D01*
X139604666Y-93622872D02*
X139483714Y-93562396D01*
X139483714Y-93562396D02*
X139423238Y-93501919D01*
X139423238Y-93501919D02*
X139362761Y-93380967D01*
X139362761Y-93380967D02*
X139362761Y-93078586D01*
X139362761Y-93078586D02*
X139423238Y-92957634D01*
X139423238Y-92957634D02*
X139483714Y-92897158D01*
X139483714Y-92897158D02*
X139604666Y-92836681D01*
X139604666Y-92836681D02*
X139967523Y-92836681D01*
X139967523Y-92836681D02*
X140088476Y-92897158D01*
X140088476Y-92897158D02*
X140148952Y-92957634D01*
D11*
X141426333Y-80875819D02*
X141093000Y-80399628D01*
X140854905Y-80875819D02*
X140854905Y-79875819D01*
X140854905Y-79875819D02*
X141235857Y-79875819D01*
X141235857Y-79875819D02*
X141331095Y-79923438D01*
X141331095Y-79923438D02*
X141378714Y-79971057D01*
X141378714Y-79971057D02*
X141426333Y-80066295D01*
X141426333Y-80066295D02*
X141426333Y-80209152D01*
X141426333Y-80209152D02*
X141378714Y-80304390D01*
X141378714Y-80304390D02*
X141331095Y-80352009D01*
X141331095Y-80352009D02*
X141235857Y-80399628D01*
X141235857Y-80399628D02*
X140854905Y-80399628D01*
X141759667Y-79875819D02*
X142426333Y-79875819D01*
X142426333Y-79875819D02*
X141997762Y-80875819D01*
X138556333Y-50535819D02*
X138223000Y-50059628D01*
X137984905Y-50535819D02*
X137984905Y-49535819D01*
X137984905Y-49535819D02*
X138365857Y-49535819D01*
X138365857Y-49535819D02*
X138461095Y-49583438D01*
X138461095Y-49583438D02*
X138508714Y-49631057D01*
X138508714Y-49631057D02*
X138556333Y-49726295D01*
X138556333Y-49726295D02*
X138556333Y-49869152D01*
X138556333Y-49869152D02*
X138508714Y-49964390D01*
X138508714Y-49964390D02*
X138461095Y-50012009D01*
X138461095Y-50012009D02*
X138365857Y-50059628D01*
X138365857Y-50059628D02*
X137984905Y-50059628D01*
X139032524Y-50535819D02*
X139223000Y-50535819D01*
X139223000Y-50535819D02*
X139318238Y-50488200D01*
X139318238Y-50488200D02*
X139365857Y-50440580D01*
X139365857Y-50440580D02*
X139461095Y-50297723D01*
X139461095Y-50297723D02*
X139508714Y-50107247D01*
X139508714Y-50107247D02*
X139508714Y-49726295D01*
X139508714Y-49726295D02*
X139461095Y-49631057D01*
X139461095Y-49631057D02*
X139413476Y-49583438D01*
X139413476Y-49583438D02*
X139318238Y-49535819D01*
X139318238Y-49535819D02*
X139127762Y-49535819D01*
X139127762Y-49535819D02*
X139032524Y-49583438D01*
X139032524Y-49583438D02*
X138984905Y-49631057D01*
X138984905Y-49631057D02*
X138937286Y-49726295D01*
X138937286Y-49726295D02*
X138937286Y-49964390D01*
X138937286Y-49964390D02*
X138984905Y-50059628D01*
X138984905Y-50059628D02*
X139032524Y-50107247D01*
X139032524Y-50107247D02*
X139127762Y-50154866D01*
X139127762Y-50154866D02*
X139318238Y-50154866D01*
X139318238Y-50154866D02*
X139413476Y-50107247D01*
X139413476Y-50107247D02*
X139461095Y-50059628D01*
X139461095Y-50059628D02*
X139508714Y-49964390D01*
D12*
X140915580Y-56369095D02*
X140106057Y-56369095D01*
X140106057Y-56369095D02*
X140010819Y-56416714D01*
X140010819Y-56416714D02*
X139963200Y-56464333D01*
X139963200Y-56464333D02*
X139915580Y-56559571D01*
X139915580Y-56559571D02*
X139915580Y-56750047D01*
X139915580Y-56750047D02*
X139963200Y-56845285D01*
X139963200Y-56845285D02*
X140010819Y-56892904D01*
X140010819Y-56892904D02*
X140106057Y-56940523D01*
X140106057Y-56940523D02*
X140915580Y-56940523D01*
X140820342Y-57369095D02*
X140867961Y-57416714D01*
X140867961Y-57416714D02*
X140915580Y-57511952D01*
X140915580Y-57511952D02*
X140915580Y-57750047D01*
X140915580Y-57750047D02*
X140867961Y-57845285D01*
X140867961Y-57845285D02*
X140820342Y-57892904D01*
X140820342Y-57892904D02*
X140725104Y-57940523D01*
X140725104Y-57940523D02*
X140629866Y-57940523D01*
X140629866Y-57940523D02*
X140487009Y-57892904D01*
X140487009Y-57892904D02*
X139915580Y-57321476D01*
X139915580Y-57321476D02*
X139915580Y-57940523D01*
D11*
X142397761Y-46811057D02*
X142302523Y-46763438D01*
X142302523Y-46763438D02*
X142207285Y-46668200D01*
X142207285Y-46668200D02*
X142064428Y-46525342D01*
X142064428Y-46525342D02*
X141969190Y-46477723D01*
X141969190Y-46477723D02*
X141873952Y-46477723D01*
X141921571Y-46715819D02*
X141826333Y-46668200D01*
X141826333Y-46668200D02*
X141731095Y-46572961D01*
X141731095Y-46572961D02*
X141683476Y-46382485D01*
X141683476Y-46382485D02*
X141683476Y-46049152D01*
X141683476Y-46049152D02*
X141731095Y-45858676D01*
X141731095Y-45858676D02*
X141826333Y-45763438D01*
X141826333Y-45763438D02*
X141921571Y-45715819D01*
X141921571Y-45715819D02*
X142112047Y-45715819D01*
X142112047Y-45715819D02*
X142207285Y-45763438D01*
X142207285Y-45763438D02*
X142302523Y-45858676D01*
X142302523Y-45858676D02*
X142350142Y-46049152D01*
X142350142Y-46049152D02*
X142350142Y-46382485D01*
X142350142Y-46382485D02*
X142302523Y-46572961D01*
X142302523Y-46572961D02*
X142207285Y-46668200D01*
X142207285Y-46668200D02*
X142112047Y-46715819D01*
X142112047Y-46715819D02*
X141921571Y-46715819D01*
X143302523Y-46715819D02*
X142731095Y-46715819D01*
X143016809Y-46715819D02*
X143016809Y-45715819D01*
X143016809Y-45715819D02*
X142921571Y-45858676D01*
X142921571Y-45858676D02*
X142826333Y-45953914D01*
X142826333Y-45953914D02*
X142731095Y-46001533D01*
D10*
X135413952Y-86835729D02*
X135534904Y-86896205D01*
X135534904Y-86896205D02*
X135655857Y-87017158D01*
X135655857Y-87017158D02*
X135837285Y-87198586D01*
X135837285Y-87198586D02*
X135958238Y-87259062D01*
X135958238Y-87259062D02*
X136079190Y-87259062D01*
X136018714Y-86956681D02*
X136139666Y-87017158D01*
X136139666Y-87017158D02*
X136260619Y-87138110D01*
X136260619Y-87138110D02*
X136321095Y-87380015D01*
X136321095Y-87380015D02*
X136321095Y-87803348D01*
X136321095Y-87803348D02*
X136260619Y-88045253D01*
X136260619Y-88045253D02*
X136139666Y-88166205D01*
X136139666Y-88166205D02*
X136018714Y-88226681D01*
X136018714Y-88226681D02*
X135776809Y-88226681D01*
X135776809Y-88226681D02*
X135655857Y-88166205D01*
X135655857Y-88166205D02*
X135534904Y-88045253D01*
X135534904Y-88045253D02*
X135474428Y-87803348D01*
X135474428Y-87803348D02*
X135474428Y-87380015D01*
X135474428Y-87380015D02*
X135534904Y-87138110D01*
X135534904Y-87138110D02*
X135655857Y-87017158D01*
X135655857Y-87017158D02*
X135776809Y-86956681D01*
X135776809Y-86956681D02*
X136018714Y-86956681D01*
X134385857Y-87803348D02*
X134385857Y-86956681D01*
X134688238Y-88287158D02*
X134990619Y-87380015D01*
X134990619Y-87380015D02*
X134204428Y-87380015D01*
X132432047Y-87236270D02*
X132311095Y-87175794D01*
X132311095Y-87175794D02*
X132190142Y-87054842D01*
X132190142Y-87054842D02*
X132008714Y-86873413D01*
X132008714Y-86873413D02*
X131887761Y-86812937D01*
X131887761Y-86812937D02*
X131766809Y-86812937D01*
X131827285Y-87115318D02*
X131706333Y-87054842D01*
X131706333Y-87054842D02*
X131585380Y-86933889D01*
X131585380Y-86933889D02*
X131524904Y-86691984D01*
X131524904Y-86691984D02*
X131524904Y-86268651D01*
X131524904Y-86268651D02*
X131585380Y-86026746D01*
X131585380Y-86026746D02*
X131706333Y-85905794D01*
X131706333Y-85905794D02*
X131827285Y-85845318D01*
X131827285Y-85845318D02*
X132069190Y-85845318D01*
X132069190Y-85845318D02*
X132190142Y-85905794D01*
X132190142Y-85905794D02*
X132311095Y-86026746D01*
X132311095Y-86026746D02*
X132371571Y-86268651D01*
X132371571Y-86268651D02*
X132371571Y-86691984D01*
X132371571Y-86691984D02*
X132311095Y-86933889D01*
X132311095Y-86933889D02*
X132190142Y-87054842D01*
X132190142Y-87054842D02*
X132069190Y-87115318D01*
X132069190Y-87115318D02*
X131827285Y-87115318D01*
X133520618Y-85845318D02*
X132915856Y-85845318D01*
X132915856Y-85845318D02*
X132855380Y-86450080D01*
X132855380Y-86450080D02*
X132915856Y-86389603D01*
X132915856Y-86389603D02*
X133036809Y-86329127D01*
X133036809Y-86329127D02*
X133339190Y-86329127D01*
X133339190Y-86329127D02*
X133460142Y-86389603D01*
X133460142Y-86389603D02*
X133520618Y-86450080D01*
X133520618Y-86450080D02*
X133581095Y-86571032D01*
X133581095Y-86571032D02*
X133581095Y-86873413D01*
X133581095Y-86873413D02*
X133520618Y-86994365D01*
X133520618Y-86994365D02*
X133460142Y-87054842D01*
X133460142Y-87054842D02*
X133339190Y-87115318D01*
X133339190Y-87115318D02*
X133036809Y-87115318D01*
X133036809Y-87115318D02*
X132915856Y-87054842D01*
X132915856Y-87054842D02*
X132855380Y-86994365D01*
X136072047Y-77396270D02*
X135951095Y-77335794D01*
X135951095Y-77335794D02*
X135830142Y-77214842D01*
X135830142Y-77214842D02*
X135648714Y-77033413D01*
X135648714Y-77033413D02*
X135527761Y-76972937D01*
X135527761Y-76972937D02*
X135406809Y-76972937D01*
X135467285Y-77275318D02*
X135346333Y-77214842D01*
X135346333Y-77214842D02*
X135225380Y-77093889D01*
X135225380Y-77093889D02*
X135164904Y-76851984D01*
X135164904Y-76851984D02*
X135164904Y-76428651D01*
X135164904Y-76428651D02*
X135225380Y-76186746D01*
X135225380Y-76186746D02*
X135346333Y-76065794D01*
X135346333Y-76065794D02*
X135467285Y-76005318D01*
X135467285Y-76005318D02*
X135709190Y-76005318D01*
X135709190Y-76005318D02*
X135830142Y-76065794D01*
X135830142Y-76065794D02*
X135951095Y-76186746D01*
X135951095Y-76186746D02*
X136011571Y-76428651D01*
X136011571Y-76428651D02*
X136011571Y-76851984D01*
X136011571Y-76851984D02*
X135951095Y-77093889D01*
X135951095Y-77093889D02*
X135830142Y-77214842D01*
X135830142Y-77214842D02*
X135709190Y-77275318D01*
X135709190Y-77275318D02*
X135467285Y-77275318D01*
X136434904Y-76005318D02*
X137221095Y-76005318D01*
X137221095Y-76005318D02*
X136797761Y-76489127D01*
X136797761Y-76489127D02*
X136979190Y-76489127D01*
X136979190Y-76489127D02*
X137100142Y-76549603D01*
X137100142Y-76549603D02*
X137160618Y-76610080D01*
X137160618Y-76610080D02*
X137221095Y-76731032D01*
X137221095Y-76731032D02*
X137221095Y-77033413D01*
X137221095Y-77033413D02*
X137160618Y-77154365D01*
X137160618Y-77154365D02*
X137100142Y-77214842D01*
X137100142Y-77214842D02*
X136979190Y-77275318D01*
X136979190Y-77275318D02*
X136616333Y-77275318D01*
X136616333Y-77275318D02*
X136495380Y-77214842D01*
X136495380Y-77214842D02*
X136434904Y-77154365D01*
D11*
X143526333Y-89230580D02*
X143478714Y-89278200D01*
X143478714Y-89278200D02*
X143335857Y-89325819D01*
X143335857Y-89325819D02*
X143240619Y-89325819D01*
X143240619Y-89325819D02*
X143097762Y-89278200D01*
X143097762Y-89278200D02*
X143002524Y-89182961D01*
X143002524Y-89182961D02*
X142954905Y-89087723D01*
X142954905Y-89087723D02*
X142907286Y-88897247D01*
X142907286Y-88897247D02*
X142907286Y-88754390D01*
X142907286Y-88754390D02*
X142954905Y-88563914D01*
X142954905Y-88563914D02*
X143002524Y-88468676D01*
X143002524Y-88468676D02*
X143097762Y-88373438D01*
X143097762Y-88373438D02*
X143240619Y-88325819D01*
X143240619Y-88325819D02*
X143335857Y-88325819D01*
X143335857Y-88325819D02*
X143478714Y-88373438D01*
X143478714Y-88373438D02*
X143526333Y-88421057D01*
X144097762Y-88754390D02*
X144002524Y-88706771D01*
X144002524Y-88706771D02*
X143954905Y-88659152D01*
X143954905Y-88659152D02*
X143907286Y-88563914D01*
X143907286Y-88563914D02*
X143907286Y-88516295D01*
X143907286Y-88516295D02*
X143954905Y-88421057D01*
X143954905Y-88421057D02*
X144002524Y-88373438D01*
X144002524Y-88373438D02*
X144097762Y-88325819D01*
X144097762Y-88325819D02*
X144288238Y-88325819D01*
X144288238Y-88325819D02*
X144383476Y-88373438D01*
X144383476Y-88373438D02*
X144431095Y-88421057D01*
X144431095Y-88421057D02*
X144478714Y-88516295D01*
X144478714Y-88516295D02*
X144478714Y-88563914D01*
X144478714Y-88563914D02*
X144431095Y-88659152D01*
X144431095Y-88659152D02*
X144383476Y-88706771D01*
X144383476Y-88706771D02*
X144288238Y-88754390D01*
X144288238Y-88754390D02*
X144097762Y-88754390D01*
X144097762Y-88754390D02*
X144002524Y-88802009D01*
X144002524Y-88802009D02*
X143954905Y-88849628D01*
X143954905Y-88849628D02*
X143907286Y-88944866D01*
X143907286Y-88944866D02*
X143907286Y-89135342D01*
X143907286Y-89135342D02*
X143954905Y-89230580D01*
X143954905Y-89230580D02*
X144002524Y-89278200D01*
X144002524Y-89278200D02*
X144097762Y-89325819D01*
X144097762Y-89325819D02*
X144288238Y-89325819D01*
X144288238Y-89325819D02*
X144383476Y-89278200D01*
X144383476Y-89278200D02*
X144431095Y-89230580D01*
X144431095Y-89230580D02*
X144478714Y-89135342D01*
X144478714Y-89135342D02*
X144478714Y-88944866D01*
X144478714Y-88944866D02*
X144431095Y-88849628D01*
X144431095Y-88849628D02*
X144383476Y-88802009D01*
X144383476Y-88802009D02*
X144288238Y-88754390D01*
D12*
%TO.C,IC1*%
X150223000Y-93461000D02*
X150223000Y-67401000D01*
X150223000Y-67401000D02*
X124823000Y-67401000D01*
X147683000Y-96001000D02*
X150223000Y-93461000D01*
X124823000Y-96001000D02*
X147683000Y-96001000D01*
X124823000Y-68061000D02*
X124823000Y-96001000D01*
X124823000Y-67401000D02*
X124823000Y-68061000D01*
%TO.C,D1*%
X130443000Y-80018500D02*
G75*
G02*
X130343000Y-80018500I-50000J0D01*
G01*
X130343000Y-80018500D02*
G75*
G02*
X130443000Y-80018500I50000J0D01*
G01*
D10*
%TO.C,IC2*%
X132929500Y-89872000D02*
G75*
G02*
X132679500Y-89872000I-125000J0D01*
G01*
X132679500Y-89872000D02*
G75*
G02*
X132929500Y-89872000I125000J0D01*
G01*
D13*
%TO.C,D2*%
X124865500Y-62681000D02*
X128525500Y-62681000D01*
X124865500Y-60781000D02*
X128525500Y-60781000D01*
X124865500Y-60781000D02*
X124865500Y-62681000D01*
%TO.C,J2*%
X149113000Y-44481000D02*
X149113000Y-46956000D01*
X148566471Y-44481000D02*
X149113000Y-44481000D01*
X148310530Y-46956000D02*
X149113000Y-46956000D01*
X146893000Y-46956000D02*
X147695470Y-46956000D01*
X146893000Y-44481000D02*
X147439529Y-44481000D01*
X146893000Y-44481000D02*
X146893000Y-46956000D01*
X146893000Y-43721000D02*
X146893000Y-42961000D01*
X146893000Y-42961000D02*
X148003000Y-42961000D01*
%TO.C,U1*%
X146193000Y-83421000D02*
X146043000Y-83321000D01*
X146193000Y-83221000D01*
X146193000Y-83421000D01*
X142743000Y-83671000D02*
X144943000Y-83671000D01*
X142743000Y-81471000D02*
X144943000Y-81471000D01*
%TO.C,Q2*%
X140343000Y-47646000D02*
X139863000Y-47646000D01*
X140343000Y-47166000D01*
X140343000Y-47646000D01*
G36*
X140343000Y-47646000D02*
G01*
X139863000Y-47646000D01*
X140343000Y-47166000D01*
X140343000Y-47646000D01*
G37*
X143873000Y-50866000D02*
X143873000Y-50496000D01*
X143873000Y-47326000D02*
X143873000Y-47696000D01*
X143873000Y-47326000D02*
X140663000Y-47326000D01*
X140333000Y-50866000D02*
X143873000Y-50866000D01*
X140333000Y-50866000D02*
X140333000Y-50496000D01*
%TO.C,SW1*%
X149653000Y-55431000D02*
X146933000Y-55431000D01*
X149653000Y-55171000D02*
X150193000Y-55171000D01*
X149653000Y-55171000D02*
X149653000Y-55421000D01*
X149653000Y-53601000D02*
X149653000Y-51641000D01*
X149653000Y-49811000D02*
X149653000Y-50071000D01*
X146943000Y-49811000D02*
X149643000Y-49811000D01*
X146933000Y-55431000D02*
X146933000Y-53421000D01*
X146933000Y-51821000D02*
X146933000Y-49811000D01*
D12*
%TO.C,D3*%
X131027000Y-48771000D02*
G75*
G02*
X131027000Y-48671000I0J50000D01*
G01*
X131027000Y-48671000D02*
G75*
G02*
X131027000Y-48771000I0J-50000D01*
G01*
X131027000Y-48771000D02*
X131027000Y-48771000D01*
X131027000Y-48671000D02*
X131027000Y-48671000D01*
D13*
%TO.C,R1*%
X130915500Y-85975724D02*
X130915500Y-85466276D01*
X129870500Y-85975724D02*
X129870500Y-85466276D01*
%TO.C,J1*%
X135188000Y-41911000D02*
X135188000Y-44811000D01*
X130383000Y-46716000D02*
X133283000Y-46716000D01*
X130383000Y-40006000D02*
X133283000Y-40006000D01*
X128478000Y-41911000D02*
X128478000Y-44811000D01*
D14*
%TO.C,IC3*%
X141083000Y-92171000D02*
X140283000Y-92171000D01*
X141083000Y-89271000D02*
X141083000Y-92171000D01*
X140283000Y-92171000D02*
X140283000Y-89271000D01*
X140283000Y-89271000D02*
X141083000Y-89271000D01*
X138808000Y-89121000D02*
X139933000Y-89121000D01*
%TO.C,U2*%
D12*
X145733000Y-53291000D02*
X129733000Y-53291000D01*
X129733000Y-65491000D01*
X145733000Y-65491000D01*
X145733000Y-53291000D01*
D13*
%TO.C,Q1*%
X144331478Y-40862522D02*
G75*
G02*
X142493000Y-45301001I-1838478J-1838478D01*
G01*
X142493000Y-45301000D02*
G75*
G02*
X140654522Y-40862522I0J2600000D01*
G01*
X144293000Y-40851000D02*
X140693000Y-40851000D01*
D14*
%TO.C,Q4*%
X137353000Y-90696000D02*
X134433000Y-90696000D01*
X137353000Y-90546000D02*
X137353000Y-90696000D01*
X134433000Y-90696000D02*
X134433000Y-90546000D01*
X134433000Y-90546000D02*
X137353000Y-90546000D01*
X134388000Y-92296000D02*
X134388000Y-91046000D01*
%TO.C,Q5*%
X135553000Y-83646000D02*
X132633000Y-83646000D01*
X135553000Y-83496000D02*
X135553000Y-83646000D01*
X132633000Y-83646000D02*
X132633000Y-83496000D01*
X132633000Y-83496000D02*
X135553000Y-83496000D01*
X132588000Y-85246000D02*
X132588000Y-83996000D01*
%TO.C,Q3*%
X135343000Y-74121000D02*
X132443000Y-74121000D01*
X135343000Y-73821000D02*
X135343000Y-74121000D01*
X132443000Y-74121000D02*
X132443000Y-73821000D01*
X132443000Y-73821000D02*
X135343000Y-73821000D01*
X132358000Y-75571000D02*
X132358000Y-74471000D01*
%TD*%
D15*
%TO.C,IC1*%
X148953000Y-93001000D03*
X148953000Y-90461000D03*
X148953000Y-87921000D03*
X148953000Y-85381000D03*
X148953000Y-82841000D03*
X148953000Y-80301000D03*
X148953000Y-77761000D03*
X148953000Y-75221000D03*
X126093000Y-93001000D03*
X126093000Y-90461000D03*
X126093000Y-87921000D03*
X126093000Y-85381000D03*
X126093000Y-82841000D03*
X126093000Y-80301000D03*
X126093000Y-77761000D03*
D16*
X126093000Y-75221000D03*
%TD*%
M02*
