%TF.GenerationSoftware,KiCad,Pcbnew,8.0.2*%
%TF.CreationDate,2024-07-30T14:29:59+02:00*%
%TF.ProjectId,lc29h_mikrobus_PCB,6c633239-685f-46d6-996b-726f6275735f,rev?*%
%TF.SameCoordinates,Original*%
%TF.FileFunction,Legend,Bot*%
%TF.FilePolarity,Positive*%
%FSLAX46Y46*%
G04 Gerber Fmt 4.6, Leading zero omitted, Abs format (unit mm)*
G04 Created by KiCad (PCBNEW 8.0.2) date 2024-07-30 14:29:59*
%MOMM*%
%LPD*%
G01*
G04 APERTURE LIST*
%ADD10C,0.150000*%
%ADD11C,0.180000*%
%ADD12C,0.254000*%
%ADD13C,0.010000*%
%ADD14C,0.200000*%
%ADD15C,0.100000*%
G04 APERTURE END LIST*
D10*
X146954904Y-92573438D02*
X147050142Y-92525819D01*
X147050142Y-92525819D02*
X147192999Y-92525819D01*
X147192999Y-92525819D02*
X147335856Y-92573438D01*
X147335856Y-92573438D02*
X147431094Y-92668676D01*
X147431094Y-92668676D02*
X147478713Y-92763914D01*
X147478713Y-92763914D02*
X147526332Y-92954390D01*
X147526332Y-92954390D02*
X147526332Y-93097247D01*
X147526332Y-93097247D02*
X147478713Y-93287723D01*
X147478713Y-93287723D02*
X147431094Y-93382961D01*
X147431094Y-93382961D02*
X147335856Y-93478200D01*
X147335856Y-93478200D02*
X147192999Y-93525819D01*
X147192999Y-93525819D02*
X147097761Y-93525819D01*
X147097761Y-93525819D02*
X146954904Y-93478200D01*
X146954904Y-93478200D02*
X146907285Y-93430580D01*
X146907285Y-93430580D02*
X146907285Y-93097247D01*
X146907285Y-93097247D02*
X147097761Y-93097247D01*
X146478713Y-93525819D02*
X146478713Y-92525819D01*
X146478713Y-92525819D02*
X145907285Y-93525819D01*
X145907285Y-93525819D02*
X145907285Y-92525819D01*
X145431094Y-93525819D02*
X145431094Y-92525819D01*
X145431094Y-92525819D02*
X145192999Y-92525819D01*
X145192999Y-92525819D02*
X145050142Y-92573438D01*
X145050142Y-92573438D02*
X144954904Y-92668676D01*
X144954904Y-92668676D02*
X144907285Y-92763914D01*
X144907285Y-92763914D02*
X144859666Y-92954390D01*
X144859666Y-92954390D02*
X144859666Y-93097247D01*
X144859666Y-93097247D02*
X144907285Y-93287723D01*
X144907285Y-93287723D02*
X144954904Y-93382961D01*
X144954904Y-93382961D02*
X145050142Y-93478200D01*
X145050142Y-93478200D02*
X145192999Y-93525819D01*
X145192999Y-93525819D02*
X145431094Y-93525819D01*
X129053666Y-80660580D02*
X129101285Y-80708200D01*
X129101285Y-80708200D02*
X129244142Y-80755819D01*
X129244142Y-80755819D02*
X129339380Y-80755819D01*
X129339380Y-80755819D02*
X129482237Y-80708200D01*
X129482237Y-80708200D02*
X129577475Y-80612961D01*
X129577475Y-80612961D02*
X129625094Y-80517723D01*
X129625094Y-80517723D02*
X129672713Y-80327247D01*
X129672713Y-80327247D02*
X129672713Y-80184390D01*
X129672713Y-80184390D02*
X129625094Y-79993914D01*
X129625094Y-79993914D02*
X129577475Y-79898676D01*
X129577475Y-79898676D02*
X129482237Y-79803438D01*
X129482237Y-79803438D02*
X129339380Y-79755819D01*
X129339380Y-79755819D02*
X129244142Y-79755819D01*
X129244142Y-79755819D02*
X129101285Y-79803438D01*
X129101285Y-79803438D02*
X129053666Y-79851057D01*
X128672713Y-80708200D02*
X128529856Y-80755819D01*
X128529856Y-80755819D02*
X128291761Y-80755819D01*
X128291761Y-80755819D02*
X128196523Y-80708200D01*
X128196523Y-80708200D02*
X128148904Y-80660580D01*
X128148904Y-80660580D02*
X128101285Y-80565342D01*
X128101285Y-80565342D02*
X128101285Y-80470104D01*
X128101285Y-80470104D02*
X128148904Y-80374866D01*
X128148904Y-80374866D02*
X128196523Y-80327247D01*
X128196523Y-80327247D02*
X128291761Y-80279628D01*
X128291761Y-80279628D02*
X128482237Y-80232009D01*
X128482237Y-80232009D02*
X128577475Y-80184390D01*
X128577475Y-80184390D02*
X128625094Y-80136771D01*
X128625094Y-80136771D02*
X128672713Y-80041533D01*
X128672713Y-80041533D02*
X128672713Y-79946295D01*
X128672713Y-79946295D02*
X128625094Y-79851057D01*
X128625094Y-79851057D02*
X128577475Y-79803438D01*
X128577475Y-79803438D02*
X128482237Y-79755819D01*
X128482237Y-79755819D02*
X128244142Y-79755819D01*
X128244142Y-79755819D02*
X128101285Y-79803438D01*
X147309761Y-75675819D02*
X147309761Y-74675819D01*
X147309761Y-74675819D02*
X146928809Y-74675819D01*
X146928809Y-74675819D02*
X146833571Y-74723438D01*
X146833571Y-74723438D02*
X146785952Y-74771057D01*
X146785952Y-74771057D02*
X146738333Y-74866295D01*
X146738333Y-74866295D02*
X146738333Y-75009152D01*
X146738333Y-75009152D02*
X146785952Y-75104390D01*
X146785952Y-75104390D02*
X146833571Y-75152009D01*
X146833571Y-75152009D02*
X146928809Y-75199628D01*
X146928809Y-75199628D02*
X147309761Y-75199628D01*
X146404999Y-74675819D02*
X146166904Y-75675819D01*
X146166904Y-75675819D02*
X145976428Y-74961533D01*
X145976428Y-74961533D02*
X145785952Y-75675819D01*
X145785952Y-75675819D02*
X145547857Y-74675819D01*
X145166904Y-75675819D02*
X145166904Y-74675819D01*
X145166904Y-74675819D02*
X144833571Y-75390104D01*
X144833571Y-75390104D02*
X144500238Y-74675819D01*
X144500238Y-74675819D02*
X144500238Y-75675819D01*
X147063761Y-78215819D02*
X147063761Y-77215819D01*
X146587571Y-78215819D02*
X146587571Y-77215819D01*
X146587571Y-77215819D02*
X146016143Y-78215819D01*
X146016143Y-78215819D02*
X146016143Y-77215819D01*
X145682809Y-77215819D02*
X145111381Y-77215819D01*
X145397095Y-78215819D02*
X145397095Y-77215819D01*
X131220427Y-85835819D02*
X131220427Y-84835819D01*
X131220427Y-84835819D02*
X130887094Y-85550104D01*
X130887094Y-85550104D02*
X130553761Y-84835819D01*
X130553761Y-84835819D02*
X130553761Y-85835819D01*
X130077570Y-85835819D02*
X130077570Y-84835819D01*
X129648999Y-85788200D02*
X129506142Y-85835819D01*
X129506142Y-85835819D02*
X129268047Y-85835819D01*
X129268047Y-85835819D02*
X129172809Y-85788200D01*
X129172809Y-85788200D02*
X129125190Y-85740580D01*
X129125190Y-85740580D02*
X129077571Y-85645342D01*
X129077571Y-85645342D02*
X129077571Y-85550104D01*
X129077571Y-85550104D02*
X129125190Y-85454866D01*
X129125190Y-85454866D02*
X129172809Y-85407247D01*
X129172809Y-85407247D02*
X129268047Y-85359628D01*
X129268047Y-85359628D02*
X129458523Y-85312009D01*
X129458523Y-85312009D02*
X129553761Y-85264390D01*
X129553761Y-85264390D02*
X129601380Y-85216771D01*
X129601380Y-85216771D02*
X129648999Y-85121533D01*
X129648999Y-85121533D02*
X129648999Y-85026295D01*
X129648999Y-85026295D02*
X129601380Y-84931057D01*
X129601380Y-84931057D02*
X129553761Y-84883438D01*
X129553761Y-84883438D02*
X129458523Y-84835819D01*
X129458523Y-84835819D02*
X129220428Y-84835819D01*
X129220428Y-84835819D02*
X129077571Y-84883438D01*
X128458523Y-84835819D02*
X128268047Y-84835819D01*
X128268047Y-84835819D02*
X128172809Y-84883438D01*
X128172809Y-84883438D02*
X128077571Y-84978676D01*
X128077571Y-84978676D02*
X128029952Y-85169152D01*
X128029952Y-85169152D02*
X128029952Y-85502485D01*
X128029952Y-85502485D02*
X128077571Y-85692961D01*
X128077571Y-85692961D02*
X128172809Y-85788200D01*
X128172809Y-85788200D02*
X128268047Y-85835819D01*
X128268047Y-85835819D02*
X128458523Y-85835819D01*
X128458523Y-85835819D02*
X128553761Y-85788200D01*
X128553761Y-85788200D02*
X128648999Y-85692961D01*
X128648999Y-85692961D02*
X128696618Y-85502485D01*
X128696618Y-85502485D02*
X128696618Y-85169152D01*
X128696618Y-85169152D02*
X128648999Y-84978676D01*
X128648999Y-84978676D02*
X128553761Y-84883438D01*
X128553761Y-84883438D02*
X128458523Y-84835819D01*
X130966427Y-88375819D02*
X130966427Y-87375819D01*
X130966427Y-87375819D02*
X130633094Y-88090104D01*
X130633094Y-88090104D02*
X130299761Y-87375819D01*
X130299761Y-87375819D02*
X130299761Y-88375819D01*
X129633094Y-87375819D02*
X129442618Y-87375819D01*
X129442618Y-87375819D02*
X129347380Y-87423438D01*
X129347380Y-87423438D02*
X129252142Y-87518676D01*
X129252142Y-87518676D02*
X129204523Y-87709152D01*
X129204523Y-87709152D02*
X129204523Y-88042485D01*
X129204523Y-88042485D02*
X129252142Y-88232961D01*
X129252142Y-88232961D02*
X129347380Y-88328200D01*
X129347380Y-88328200D02*
X129442618Y-88375819D01*
X129442618Y-88375819D02*
X129633094Y-88375819D01*
X129633094Y-88375819D02*
X129728332Y-88328200D01*
X129728332Y-88328200D02*
X129823570Y-88232961D01*
X129823570Y-88232961D02*
X129871189Y-88042485D01*
X129871189Y-88042485D02*
X129871189Y-87709152D01*
X129871189Y-87709152D02*
X129823570Y-87518676D01*
X129823570Y-87518676D02*
X129728332Y-87423438D01*
X129728332Y-87423438D02*
X129633094Y-87375819D01*
X128823570Y-88328200D02*
X128680713Y-88375819D01*
X128680713Y-88375819D02*
X128442618Y-88375819D01*
X128442618Y-88375819D02*
X128347380Y-88328200D01*
X128347380Y-88328200D02*
X128299761Y-88280580D01*
X128299761Y-88280580D02*
X128252142Y-88185342D01*
X128252142Y-88185342D02*
X128252142Y-88090104D01*
X128252142Y-88090104D02*
X128299761Y-87994866D01*
X128299761Y-87994866D02*
X128347380Y-87947247D01*
X128347380Y-87947247D02*
X128442618Y-87899628D01*
X128442618Y-87899628D02*
X128633094Y-87852009D01*
X128633094Y-87852009D02*
X128728332Y-87804390D01*
X128728332Y-87804390D02*
X128775951Y-87756771D01*
X128775951Y-87756771D02*
X128823570Y-87661533D01*
X128823570Y-87661533D02*
X128823570Y-87566295D01*
X128823570Y-87566295D02*
X128775951Y-87471057D01*
X128775951Y-87471057D02*
X128728332Y-87423438D01*
X128728332Y-87423438D02*
X128633094Y-87375819D01*
X128633094Y-87375819D02*
X128394999Y-87375819D01*
X128394999Y-87375819D02*
X128252142Y-87423438D01*
X127823570Y-88375819D02*
X127823570Y-87375819D01*
X129394904Y-75390104D02*
X128918714Y-75390104D01*
X129490142Y-75675819D02*
X129156809Y-74675819D01*
X129156809Y-74675819D02*
X128823476Y-75675819D01*
X128490142Y-75675819D02*
X128490142Y-74675819D01*
X128490142Y-74675819D02*
X127918714Y-75675819D01*
X127918714Y-75675819D02*
X127918714Y-74675819D01*
X147678713Y-90534866D02*
X146916809Y-90534866D01*
X147297761Y-90915819D02*
X147297761Y-90153914D01*
X145964428Y-89915819D02*
X146440618Y-89915819D01*
X146440618Y-89915819D02*
X146488237Y-90392009D01*
X146488237Y-90392009D02*
X146440618Y-90344390D01*
X146440618Y-90344390D02*
X146345380Y-90296771D01*
X146345380Y-90296771D02*
X146107285Y-90296771D01*
X146107285Y-90296771D02*
X146012047Y-90344390D01*
X146012047Y-90344390D02*
X145964428Y-90392009D01*
X145964428Y-90392009D02*
X145916809Y-90487247D01*
X145916809Y-90487247D02*
X145916809Y-90725342D01*
X145916809Y-90725342D02*
X145964428Y-90820580D01*
X145964428Y-90820580D02*
X146012047Y-90868200D01*
X146012047Y-90868200D02*
X146107285Y-90915819D01*
X146107285Y-90915819D02*
X146345380Y-90915819D01*
X146345380Y-90915819D02*
X146440618Y-90868200D01*
X146440618Y-90868200D02*
X146488237Y-90820580D01*
X145631094Y-89915819D02*
X145297761Y-90915819D01*
X145297761Y-90915819D02*
X144964428Y-89915819D01*
X130680713Y-83248200D02*
X130537856Y-83295819D01*
X130537856Y-83295819D02*
X130299761Y-83295819D01*
X130299761Y-83295819D02*
X130204523Y-83248200D01*
X130204523Y-83248200D02*
X130156904Y-83200580D01*
X130156904Y-83200580D02*
X130109285Y-83105342D01*
X130109285Y-83105342D02*
X130109285Y-83010104D01*
X130109285Y-83010104D02*
X130156904Y-82914866D01*
X130156904Y-82914866D02*
X130204523Y-82867247D01*
X130204523Y-82867247D02*
X130299761Y-82819628D01*
X130299761Y-82819628D02*
X130490237Y-82772009D01*
X130490237Y-82772009D02*
X130585475Y-82724390D01*
X130585475Y-82724390D02*
X130633094Y-82676771D01*
X130633094Y-82676771D02*
X130680713Y-82581533D01*
X130680713Y-82581533D02*
X130680713Y-82486295D01*
X130680713Y-82486295D02*
X130633094Y-82391057D01*
X130633094Y-82391057D02*
X130585475Y-82343438D01*
X130585475Y-82343438D02*
X130490237Y-82295819D01*
X130490237Y-82295819D02*
X130252142Y-82295819D01*
X130252142Y-82295819D02*
X130109285Y-82343438D01*
X129109285Y-83200580D02*
X129156904Y-83248200D01*
X129156904Y-83248200D02*
X129299761Y-83295819D01*
X129299761Y-83295819D02*
X129394999Y-83295819D01*
X129394999Y-83295819D02*
X129537856Y-83248200D01*
X129537856Y-83248200D02*
X129633094Y-83152961D01*
X129633094Y-83152961D02*
X129680713Y-83057723D01*
X129680713Y-83057723D02*
X129728332Y-82867247D01*
X129728332Y-82867247D02*
X129728332Y-82724390D01*
X129728332Y-82724390D02*
X129680713Y-82533914D01*
X129680713Y-82533914D02*
X129633094Y-82438676D01*
X129633094Y-82438676D02*
X129537856Y-82343438D01*
X129537856Y-82343438D02*
X129394999Y-82295819D01*
X129394999Y-82295819D02*
X129299761Y-82295819D01*
X129299761Y-82295819D02*
X129156904Y-82343438D01*
X129156904Y-82343438D02*
X129109285Y-82391057D01*
X128680713Y-83295819D02*
X128680713Y-82295819D01*
X128109285Y-83295819D02*
X128537856Y-82724390D01*
X128109285Y-82295819D02*
X128680713Y-82867247D01*
X146325666Y-80755819D02*
X146658999Y-80279628D01*
X146897094Y-80755819D02*
X146897094Y-79755819D01*
X146897094Y-79755819D02*
X146516142Y-79755819D01*
X146516142Y-79755819D02*
X146420904Y-79803438D01*
X146420904Y-79803438D02*
X146373285Y-79851057D01*
X146373285Y-79851057D02*
X146325666Y-79946295D01*
X146325666Y-79946295D02*
X146325666Y-80089152D01*
X146325666Y-80089152D02*
X146373285Y-80184390D01*
X146373285Y-80184390D02*
X146420904Y-80232009D01*
X146420904Y-80232009D02*
X146516142Y-80279628D01*
X146516142Y-80279628D02*
X146897094Y-80279628D01*
X145992332Y-79755819D02*
X145325666Y-80755819D01*
X145325666Y-79755819D02*
X145992332Y-80755819D01*
D11*
X144990142Y-69466816D02*
X144990142Y-68266816D01*
X144990142Y-68266816D02*
X144590142Y-69123959D01*
X144590142Y-69123959D02*
X144190142Y-68266816D01*
X144190142Y-68266816D02*
X144190142Y-69466816D01*
X143618713Y-69466816D02*
X143618713Y-68666816D01*
X143618713Y-68266816D02*
X143675856Y-68323959D01*
X143675856Y-68323959D02*
X143618713Y-68381102D01*
X143618713Y-68381102D02*
X143561570Y-68323959D01*
X143561570Y-68323959D02*
X143618713Y-68266816D01*
X143618713Y-68266816D02*
X143618713Y-68381102D01*
X143047284Y-69466816D02*
X143047284Y-68266816D01*
X142932999Y-69009674D02*
X142590141Y-69466816D01*
X142590141Y-68666816D02*
X143047284Y-69123959D01*
X142075855Y-69466816D02*
X142075855Y-68666816D01*
X142075855Y-68895388D02*
X142018712Y-68781102D01*
X142018712Y-68781102D02*
X141961570Y-68723959D01*
X141961570Y-68723959D02*
X141847284Y-68666816D01*
X141847284Y-68666816D02*
X141732998Y-68666816D01*
X141161570Y-69466816D02*
X141275855Y-69409674D01*
X141275855Y-69409674D02*
X141332998Y-69352531D01*
X141332998Y-69352531D02*
X141390141Y-69238245D01*
X141390141Y-69238245D02*
X141390141Y-68895388D01*
X141390141Y-68895388D02*
X141332998Y-68781102D01*
X141332998Y-68781102D02*
X141275855Y-68723959D01*
X141275855Y-68723959D02*
X141161570Y-68666816D01*
X141161570Y-68666816D02*
X140990141Y-68666816D01*
X140990141Y-68666816D02*
X140875855Y-68723959D01*
X140875855Y-68723959D02*
X140818713Y-68781102D01*
X140818713Y-68781102D02*
X140761570Y-68895388D01*
X140761570Y-68895388D02*
X140761570Y-69238245D01*
X140761570Y-69238245D02*
X140818713Y-69352531D01*
X140818713Y-69352531D02*
X140875855Y-69409674D01*
X140875855Y-69409674D02*
X140990141Y-69466816D01*
X140990141Y-69466816D02*
X141161570Y-69466816D01*
X140247284Y-69466816D02*
X140247284Y-68266816D01*
X140247284Y-68723959D02*
X140132999Y-68666816D01*
X140132999Y-68666816D02*
X139904427Y-68666816D01*
X139904427Y-68666816D02*
X139790141Y-68723959D01*
X139790141Y-68723959D02*
X139732999Y-68781102D01*
X139732999Y-68781102D02*
X139675856Y-68895388D01*
X139675856Y-68895388D02*
X139675856Y-69238245D01*
X139675856Y-69238245D02*
X139732999Y-69352531D01*
X139732999Y-69352531D02*
X139790141Y-69409674D01*
X139790141Y-69409674D02*
X139904427Y-69466816D01*
X139904427Y-69466816D02*
X140132999Y-69466816D01*
X140132999Y-69466816D02*
X140247284Y-69409674D01*
X138647285Y-68666816D02*
X138647285Y-69466816D01*
X139161570Y-68666816D02*
X139161570Y-69295388D01*
X139161570Y-69295388D02*
X139104427Y-69409674D01*
X139104427Y-69409674D02*
X138990142Y-69466816D01*
X138990142Y-69466816D02*
X138818713Y-69466816D01*
X138818713Y-69466816D02*
X138704427Y-69409674D01*
X138704427Y-69409674D02*
X138647285Y-69352531D01*
X138132999Y-69409674D02*
X138018713Y-69466816D01*
X138018713Y-69466816D02*
X137790142Y-69466816D01*
X137790142Y-69466816D02*
X137675856Y-69409674D01*
X137675856Y-69409674D02*
X137618713Y-69295388D01*
X137618713Y-69295388D02*
X137618713Y-69238245D01*
X137618713Y-69238245D02*
X137675856Y-69123959D01*
X137675856Y-69123959D02*
X137790142Y-69066816D01*
X137790142Y-69066816D02*
X137961571Y-69066816D01*
X137961571Y-69066816D02*
X138075856Y-69009674D01*
X138075856Y-69009674D02*
X138132999Y-68895388D01*
X138132999Y-68895388D02*
X138132999Y-68838245D01*
X138132999Y-68838245D02*
X138075856Y-68723959D01*
X138075856Y-68723959D02*
X137961571Y-68666816D01*
X137961571Y-68666816D02*
X137790142Y-68666816D01*
X137790142Y-68666816D02*
X137675856Y-68723959D01*
X147847286Y-70598749D02*
X147847286Y-71570178D01*
X147847286Y-71570178D02*
X147904428Y-71684464D01*
X147904428Y-71684464D02*
X147961571Y-71741607D01*
X147961571Y-71741607D02*
X148075857Y-71798749D01*
X148075857Y-71798749D02*
X148247286Y-71798749D01*
X148247286Y-71798749D02*
X148361571Y-71741607D01*
X147847286Y-71341607D02*
X147961571Y-71398749D01*
X147961571Y-71398749D02*
X148190143Y-71398749D01*
X148190143Y-71398749D02*
X148304428Y-71341607D01*
X148304428Y-71341607D02*
X148361571Y-71284464D01*
X148361571Y-71284464D02*
X148418714Y-71170178D01*
X148418714Y-71170178D02*
X148418714Y-70827321D01*
X148418714Y-70827321D02*
X148361571Y-70713035D01*
X148361571Y-70713035D02*
X148304428Y-70655892D01*
X148304428Y-70655892D02*
X148190143Y-70598749D01*
X148190143Y-70598749D02*
X147961571Y-70598749D01*
X147961571Y-70598749D02*
X147847286Y-70655892D01*
X147275857Y-70598749D02*
X147275857Y-71398749D01*
X147275857Y-70713035D02*
X147218714Y-70655892D01*
X147218714Y-70655892D02*
X147104429Y-70598749D01*
X147104429Y-70598749D02*
X146933000Y-70598749D01*
X146933000Y-70598749D02*
X146818714Y-70655892D01*
X146818714Y-70655892D02*
X146761572Y-70770178D01*
X146761572Y-70770178D02*
X146761572Y-71398749D01*
X146247286Y-71341607D02*
X146133000Y-71398749D01*
X146133000Y-71398749D02*
X145904429Y-71398749D01*
X145904429Y-71398749D02*
X145790143Y-71341607D01*
X145790143Y-71341607D02*
X145733000Y-71227321D01*
X145733000Y-71227321D02*
X145733000Y-71170178D01*
X145733000Y-71170178D02*
X145790143Y-71055892D01*
X145790143Y-71055892D02*
X145904429Y-70998749D01*
X145904429Y-70998749D02*
X146075858Y-70998749D01*
X146075858Y-70998749D02*
X146190143Y-70941607D01*
X146190143Y-70941607D02*
X146247286Y-70827321D01*
X146247286Y-70827321D02*
X146247286Y-70770178D01*
X146247286Y-70770178D02*
X146190143Y-70655892D01*
X146190143Y-70655892D02*
X146075858Y-70598749D01*
X146075858Y-70598749D02*
X145904429Y-70598749D01*
X145904429Y-70598749D02*
X145790143Y-70655892D01*
X145275857Y-71341607D02*
X145161571Y-71398749D01*
X145161571Y-71398749D02*
X144933000Y-71398749D01*
X144933000Y-71398749D02*
X144818714Y-71341607D01*
X144818714Y-71341607D02*
X144761571Y-71227321D01*
X144761571Y-71227321D02*
X144761571Y-71170178D01*
X144761571Y-71170178D02*
X144818714Y-71055892D01*
X144818714Y-71055892D02*
X144933000Y-70998749D01*
X144933000Y-70998749D02*
X145104429Y-70998749D01*
X145104429Y-70998749D02*
X145218714Y-70941607D01*
X145218714Y-70941607D02*
X145275857Y-70827321D01*
X145275857Y-70827321D02*
X145275857Y-70770178D01*
X145275857Y-70770178D02*
X145218714Y-70655892D01*
X145218714Y-70655892D02*
X145104429Y-70598749D01*
X145104429Y-70598749D02*
X144933000Y-70598749D01*
X144933000Y-70598749D02*
X144818714Y-70655892D01*
X144533000Y-71513035D02*
X143618714Y-71513035D01*
X143332999Y-71398749D02*
X143332999Y-70598749D01*
X143332999Y-70827321D02*
X143275856Y-70713035D01*
X143275856Y-70713035D02*
X143218714Y-70655892D01*
X143218714Y-70655892D02*
X143104428Y-70598749D01*
X143104428Y-70598749D02*
X142990142Y-70598749D01*
X142761571Y-70598749D02*
X142304428Y-70598749D01*
X142590142Y-70198749D02*
X142590142Y-71227321D01*
X142590142Y-71227321D02*
X142532999Y-71341607D01*
X142532999Y-71341607D02*
X142418714Y-71398749D01*
X142418714Y-71398749D02*
X142304428Y-71398749D01*
X141904428Y-71398749D02*
X141904428Y-70198749D01*
X141790143Y-70941607D02*
X141447285Y-71398749D01*
X141447285Y-70598749D02*
X141904428Y-71055892D01*
X141218714Y-71513035D02*
X140304428Y-71513035D01*
X140132999Y-70198749D02*
X139390142Y-70198749D01*
X139390142Y-70198749D02*
X139790142Y-70655892D01*
X139790142Y-70655892D02*
X139618713Y-70655892D01*
X139618713Y-70655892D02*
X139504428Y-70713035D01*
X139504428Y-70713035D02*
X139447285Y-70770178D01*
X139447285Y-70770178D02*
X139390142Y-70884464D01*
X139390142Y-70884464D02*
X139390142Y-71170178D01*
X139390142Y-71170178D02*
X139447285Y-71284464D01*
X139447285Y-71284464D02*
X139504428Y-71341607D01*
X139504428Y-71341607D02*
X139618713Y-71398749D01*
X139618713Y-71398749D02*
X139961570Y-71398749D01*
X139961570Y-71398749D02*
X140075856Y-71341607D01*
X140075856Y-71341607D02*
X140132999Y-71284464D01*
X139161571Y-71513035D02*
X138247285Y-71513035D01*
X137447285Y-71341607D02*
X137561570Y-71398749D01*
X137561570Y-71398749D02*
X137790142Y-71398749D01*
X137790142Y-71398749D02*
X137904427Y-71341607D01*
X137904427Y-71341607D02*
X137961570Y-71284464D01*
X137961570Y-71284464D02*
X138018713Y-71170178D01*
X138018713Y-71170178D02*
X138018713Y-70827321D01*
X138018713Y-70827321D02*
X137961570Y-70713035D01*
X137961570Y-70713035D02*
X137904427Y-70655892D01*
X137904427Y-70655892D02*
X137790142Y-70598749D01*
X137790142Y-70598749D02*
X137561570Y-70598749D01*
X137561570Y-70598749D02*
X137447285Y-70655892D01*
X136761571Y-71398749D02*
X136875856Y-71341607D01*
X136875856Y-71341607D02*
X136932999Y-71227321D01*
X136932999Y-71227321D02*
X136932999Y-70198749D01*
X136304428Y-71398749D02*
X136304428Y-70598749D01*
X136304428Y-70198749D02*
X136361571Y-70255892D01*
X136361571Y-70255892D02*
X136304428Y-70313035D01*
X136304428Y-70313035D02*
X136247285Y-70255892D01*
X136247285Y-70255892D02*
X136304428Y-70198749D01*
X136304428Y-70198749D02*
X136304428Y-70313035D01*
X135218714Y-71341607D02*
X135332999Y-71398749D01*
X135332999Y-71398749D02*
X135561571Y-71398749D01*
X135561571Y-71398749D02*
X135675856Y-71341607D01*
X135675856Y-71341607D02*
X135732999Y-71284464D01*
X135732999Y-71284464D02*
X135790142Y-71170178D01*
X135790142Y-71170178D02*
X135790142Y-70827321D01*
X135790142Y-70827321D02*
X135732999Y-70713035D01*
X135732999Y-70713035D02*
X135675856Y-70655892D01*
X135675856Y-70655892D02*
X135561571Y-70598749D01*
X135561571Y-70598749D02*
X135332999Y-70598749D01*
X135332999Y-70598749D02*
X135218714Y-70655892D01*
X134704428Y-71398749D02*
X134704428Y-70198749D01*
X134590143Y-70941607D02*
X134247285Y-71398749D01*
X134247285Y-70598749D02*
X134704428Y-71055892D01*
D10*
X129902904Y-92503438D02*
X129998142Y-92455819D01*
X129998142Y-92455819D02*
X130140999Y-92455819D01*
X130140999Y-92455819D02*
X130283856Y-92503438D01*
X130283856Y-92503438D02*
X130379094Y-92598676D01*
X130379094Y-92598676D02*
X130426713Y-92693914D01*
X130426713Y-92693914D02*
X130474332Y-92884390D01*
X130474332Y-92884390D02*
X130474332Y-93027247D01*
X130474332Y-93027247D02*
X130426713Y-93217723D01*
X130426713Y-93217723D02*
X130379094Y-93312961D01*
X130379094Y-93312961D02*
X130283856Y-93408200D01*
X130283856Y-93408200D02*
X130140999Y-93455819D01*
X130140999Y-93455819D02*
X130045761Y-93455819D01*
X130045761Y-93455819D02*
X129902904Y-93408200D01*
X129902904Y-93408200D02*
X129855285Y-93360580D01*
X129855285Y-93360580D02*
X129855285Y-93027247D01*
X129855285Y-93027247D02*
X130045761Y-93027247D01*
X129426713Y-93455819D02*
X129426713Y-92455819D01*
X129426713Y-92455819D02*
X128855285Y-93455819D01*
X128855285Y-93455819D02*
X128855285Y-92455819D01*
X128379094Y-93455819D02*
X128379094Y-92455819D01*
X128379094Y-92455819D02*
X128140999Y-92455819D01*
X128140999Y-92455819D02*
X127998142Y-92503438D01*
X127998142Y-92503438D02*
X127902904Y-92598676D01*
X127902904Y-92598676D02*
X127855285Y-92693914D01*
X127855285Y-92693914D02*
X127807666Y-92884390D01*
X127807666Y-92884390D02*
X127807666Y-93027247D01*
X127807666Y-93027247D02*
X127855285Y-93217723D01*
X127855285Y-93217723D02*
X127902904Y-93312961D01*
X127902904Y-93312961D02*
X127998142Y-93408200D01*
X127998142Y-93408200D02*
X128140999Y-93455819D01*
X128140999Y-93455819D02*
X128379094Y-93455819D01*
X131355381Y-78215819D02*
X131688714Y-77739628D01*
X131926809Y-78215819D02*
X131926809Y-77215819D01*
X131926809Y-77215819D02*
X131545857Y-77215819D01*
X131545857Y-77215819D02*
X131450619Y-77263438D01*
X131450619Y-77263438D02*
X131403000Y-77311057D01*
X131403000Y-77311057D02*
X131355381Y-77406295D01*
X131355381Y-77406295D02*
X131355381Y-77549152D01*
X131355381Y-77549152D02*
X131403000Y-77644390D01*
X131403000Y-77644390D02*
X131450619Y-77692009D01*
X131450619Y-77692009D02*
X131545857Y-77739628D01*
X131545857Y-77739628D02*
X131926809Y-77739628D01*
X130926809Y-77692009D02*
X130593476Y-77692009D01*
X130450619Y-78215819D02*
X130926809Y-78215819D01*
X130926809Y-78215819D02*
X130926809Y-77215819D01*
X130926809Y-77215819D02*
X130450619Y-77215819D01*
X130069666Y-78168200D02*
X129926809Y-78215819D01*
X129926809Y-78215819D02*
X129688714Y-78215819D01*
X129688714Y-78215819D02*
X129593476Y-78168200D01*
X129593476Y-78168200D02*
X129545857Y-78120580D01*
X129545857Y-78120580D02*
X129498238Y-78025342D01*
X129498238Y-78025342D02*
X129498238Y-77930104D01*
X129498238Y-77930104D02*
X129545857Y-77834866D01*
X129545857Y-77834866D02*
X129593476Y-77787247D01*
X129593476Y-77787247D02*
X129688714Y-77739628D01*
X129688714Y-77739628D02*
X129879190Y-77692009D01*
X129879190Y-77692009D02*
X129974428Y-77644390D01*
X129974428Y-77644390D02*
X130022047Y-77596771D01*
X130022047Y-77596771D02*
X130069666Y-77501533D01*
X130069666Y-77501533D02*
X130069666Y-77406295D01*
X130069666Y-77406295D02*
X130022047Y-77311057D01*
X130022047Y-77311057D02*
X129974428Y-77263438D01*
X129974428Y-77263438D02*
X129879190Y-77215819D01*
X129879190Y-77215819D02*
X129641095Y-77215819D01*
X129641095Y-77215819D02*
X129498238Y-77263438D01*
X129069666Y-77692009D02*
X128736333Y-77692009D01*
X128593476Y-78215819D02*
X129069666Y-78215819D01*
X129069666Y-78215819D02*
X129069666Y-77215819D01*
X129069666Y-77215819D02*
X128593476Y-77215819D01*
X128307761Y-77215819D02*
X127736333Y-77215819D01*
X128022047Y-78215819D02*
X128022047Y-77215819D01*
X147657285Y-88328200D02*
X147514428Y-88375819D01*
X147514428Y-88375819D02*
X147276333Y-88375819D01*
X147276333Y-88375819D02*
X147181095Y-88328200D01*
X147181095Y-88328200D02*
X147133476Y-88280580D01*
X147133476Y-88280580D02*
X147085857Y-88185342D01*
X147085857Y-88185342D02*
X147085857Y-88090104D01*
X147085857Y-88090104D02*
X147133476Y-87994866D01*
X147133476Y-87994866D02*
X147181095Y-87947247D01*
X147181095Y-87947247D02*
X147276333Y-87899628D01*
X147276333Y-87899628D02*
X147466809Y-87852009D01*
X147466809Y-87852009D02*
X147562047Y-87804390D01*
X147562047Y-87804390D02*
X147609666Y-87756771D01*
X147609666Y-87756771D02*
X147657285Y-87661533D01*
X147657285Y-87661533D02*
X147657285Y-87566295D01*
X147657285Y-87566295D02*
X147609666Y-87471057D01*
X147609666Y-87471057D02*
X147562047Y-87423438D01*
X147562047Y-87423438D02*
X147466809Y-87375819D01*
X147466809Y-87375819D02*
X147228714Y-87375819D01*
X147228714Y-87375819D02*
X147085857Y-87423438D01*
X146657285Y-88375819D02*
X146657285Y-87375819D01*
X146657285Y-87375819D02*
X146419190Y-87375819D01*
X146419190Y-87375819D02*
X146276333Y-87423438D01*
X146276333Y-87423438D02*
X146181095Y-87518676D01*
X146181095Y-87518676D02*
X146133476Y-87613914D01*
X146133476Y-87613914D02*
X146085857Y-87804390D01*
X146085857Y-87804390D02*
X146085857Y-87947247D01*
X146085857Y-87947247D02*
X146133476Y-88137723D01*
X146133476Y-88137723D02*
X146181095Y-88232961D01*
X146181095Y-88232961D02*
X146276333Y-88328200D01*
X146276333Y-88328200D02*
X146419190Y-88375819D01*
X146419190Y-88375819D02*
X146657285Y-88375819D01*
X145704904Y-88090104D02*
X145228714Y-88090104D01*
X145800142Y-88375819D02*
X145466809Y-87375819D01*
X145466809Y-87375819D02*
X145133476Y-88375819D01*
X131902999Y-90534866D02*
X131141095Y-90534866D01*
X131522047Y-90915819D02*
X131522047Y-90153914D01*
X130760142Y-89915819D02*
X130141095Y-89915819D01*
X130141095Y-89915819D02*
X130474428Y-90296771D01*
X130474428Y-90296771D02*
X130331571Y-90296771D01*
X130331571Y-90296771D02*
X130236333Y-90344390D01*
X130236333Y-90344390D02*
X130188714Y-90392009D01*
X130188714Y-90392009D02*
X130141095Y-90487247D01*
X130141095Y-90487247D02*
X130141095Y-90725342D01*
X130141095Y-90725342D02*
X130188714Y-90820580D01*
X130188714Y-90820580D02*
X130236333Y-90868200D01*
X130236333Y-90868200D02*
X130331571Y-90915819D01*
X130331571Y-90915819D02*
X130617285Y-90915819D01*
X130617285Y-90915819D02*
X130712523Y-90868200D01*
X130712523Y-90868200D02*
X130760142Y-90820580D01*
X129712523Y-90820580D02*
X129664904Y-90868200D01*
X129664904Y-90868200D02*
X129712523Y-90915819D01*
X129712523Y-90915819D02*
X129760142Y-90868200D01*
X129760142Y-90868200D02*
X129712523Y-90820580D01*
X129712523Y-90820580D02*
X129712523Y-90915819D01*
X129331571Y-89915819D02*
X128712524Y-89915819D01*
X128712524Y-89915819D02*
X129045857Y-90296771D01*
X129045857Y-90296771D02*
X128903000Y-90296771D01*
X128903000Y-90296771D02*
X128807762Y-90344390D01*
X128807762Y-90344390D02*
X128760143Y-90392009D01*
X128760143Y-90392009D02*
X128712524Y-90487247D01*
X128712524Y-90487247D02*
X128712524Y-90725342D01*
X128712524Y-90725342D02*
X128760143Y-90820580D01*
X128760143Y-90820580D02*
X128807762Y-90868200D01*
X128807762Y-90868200D02*
X128903000Y-90915819D01*
X128903000Y-90915819D02*
X129188714Y-90915819D01*
X129188714Y-90915819D02*
X129283952Y-90868200D01*
X129283952Y-90868200D02*
X129331571Y-90820580D01*
X128426809Y-89915819D02*
X128093476Y-90915819D01*
X128093476Y-90915819D02*
X127760143Y-89915819D01*
D12*
X134190856Y-58790080D02*
X134009428Y-58850556D01*
X134009428Y-58850556D02*
X133948951Y-58911032D01*
X133948951Y-58911032D02*
X133888475Y-59031984D01*
X133888475Y-59031984D02*
X133888475Y-59213413D01*
X133888475Y-59213413D02*
X133948951Y-59334365D01*
X133948951Y-59334365D02*
X134009428Y-59394842D01*
X134009428Y-59394842D02*
X134130380Y-59455318D01*
X134130380Y-59455318D02*
X134614190Y-59455318D01*
X134614190Y-59455318D02*
X134614190Y-58185318D01*
X134614190Y-58185318D02*
X134190856Y-58185318D01*
X134190856Y-58185318D02*
X134069904Y-58245794D01*
X134069904Y-58245794D02*
X134009428Y-58306270D01*
X134009428Y-58306270D02*
X133948951Y-58427222D01*
X133948951Y-58427222D02*
X133948951Y-58548175D01*
X133948951Y-58548175D02*
X134009428Y-58669127D01*
X134009428Y-58669127D02*
X134069904Y-58729603D01*
X134069904Y-58729603D02*
X134190856Y-58790080D01*
X134190856Y-58790080D02*
X134614190Y-58790080D01*
X133525618Y-58185318D02*
X132799904Y-58185318D01*
X133162761Y-59455318D02*
X133162761Y-58185318D01*
X131711332Y-59455318D02*
X132437047Y-59455318D01*
X132074190Y-59455318D02*
X132074190Y-58185318D01*
X132074190Y-58185318D02*
X132195142Y-58366746D01*
X132195142Y-58366746D02*
X132316094Y-58487699D01*
X132316094Y-58487699D02*
X132437047Y-58548175D01*
D13*
%TO.C,G\u002A\u002A\u002A*%
X127209618Y-67762424D02*
X127290049Y-67785144D01*
X127383496Y-67828900D01*
X127485405Y-67891051D01*
X127591217Y-67968960D01*
X127696375Y-68059988D01*
X127767813Y-68126859D01*
X127672563Y-68064536D01*
X127569742Y-68000294D01*
X127463047Y-67940178D01*
X127366482Y-67892567D01*
X127284962Y-67859869D01*
X127223403Y-67844491D01*
X127200452Y-67841989D01*
X127161752Y-67841053D01*
X127140002Y-67849671D01*
X127125060Y-67870529D01*
X127116197Y-67902278D01*
X127118287Y-67966769D01*
X127136281Y-68052337D01*
X127169436Y-68155724D01*
X127217009Y-68273673D01*
X127223652Y-68288840D01*
X127242126Y-68333625D01*
X127248495Y-68359743D01*
X127243548Y-68375391D01*
X127228074Y-68388767D01*
X127205928Y-68403315D01*
X127182034Y-68408596D01*
X127167296Y-68390781D01*
X127150254Y-68351026D01*
X127101411Y-68229822D01*
X127066854Y-68129724D01*
X127045060Y-68045947D01*
X127034505Y-67973709D01*
X127033217Y-67957189D01*
X127030561Y-67903086D01*
X127034127Y-67867646D01*
X127046111Y-67840428D01*
X127068706Y-67810991D01*
X127093735Y-67784499D01*
X127128972Y-67764634D01*
X127177880Y-67759762D01*
X127209618Y-67762424D01*
G36*
X127209618Y-67762424D02*
G01*
X127290049Y-67785144D01*
X127383496Y-67828900D01*
X127485405Y-67891051D01*
X127591217Y-67968960D01*
X127696375Y-68059988D01*
X127767813Y-68126859D01*
X127672563Y-68064536D01*
X127569742Y-68000294D01*
X127463047Y-67940178D01*
X127366482Y-67892567D01*
X127284962Y-67859869D01*
X127223403Y-67844491D01*
X127200452Y-67841989D01*
X127161752Y-67841053D01*
X127140002Y-67849671D01*
X127125060Y-67870529D01*
X127116197Y-67902278D01*
X127118287Y-67966769D01*
X127136281Y-68052337D01*
X127169436Y-68155724D01*
X127217009Y-68273673D01*
X127223652Y-68288840D01*
X127242126Y-68333625D01*
X127248495Y-68359743D01*
X127243548Y-68375391D01*
X127228074Y-68388767D01*
X127205928Y-68403315D01*
X127182034Y-68408596D01*
X127167296Y-68390781D01*
X127150254Y-68351026D01*
X127101411Y-68229822D01*
X127066854Y-68129724D01*
X127045060Y-68045947D01*
X127034505Y-67973709D01*
X127033217Y-67957189D01*
X127030561Y-67903086D01*
X127034127Y-67867646D01*
X127046111Y-67840428D01*
X127068706Y-67810991D01*
X127093735Y-67784499D01*
X127128972Y-67764634D01*
X127177880Y-67759762D01*
X127209618Y-67762424D01*
G37*
X130427875Y-69481255D02*
X130453398Y-69540414D01*
X130529546Y-69794906D01*
X130576956Y-70061625D01*
X130587438Y-70148937D01*
X130548784Y-70096888D01*
X130547072Y-70094596D01*
X130456871Y-70000160D01*
X130345826Y-69926514D01*
X130218036Y-69874890D01*
X130077597Y-69846519D01*
X129928608Y-69842632D01*
X129775166Y-69864459D01*
X129725472Y-69876067D01*
X129687179Y-69888222D01*
X129670214Y-69902740D01*
X129669250Y-69924914D01*
X129678956Y-69960037D01*
X129681292Y-69967760D01*
X129695735Y-70017510D01*
X129710776Y-70071636D01*
X129728515Y-70137210D01*
X129787976Y-70115989D01*
X129812844Y-70108896D01*
X129883205Y-70098311D01*
X129964867Y-70094567D01*
X130044272Y-70097967D01*
X130107866Y-70108817D01*
X130150094Y-70123746D01*
X130234247Y-70175971D01*
X130297831Y-70251628D01*
X130339991Y-70349496D01*
X130359873Y-70468357D01*
X130359602Y-70554490D01*
X130338084Y-70664879D01*
X130292628Y-70757218D01*
X130224354Y-70829464D01*
X130134382Y-70879575D01*
X130116098Y-70885698D01*
X130057921Y-70896693D01*
X129982466Y-70899969D01*
X129885214Y-70895573D01*
X129761647Y-70883554D01*
X129742181Y-70883494D01*
X129727111Y-70893862D01*
X129715559Y-70921903D01*
X129703135Y-70974437D01*
X129693945Y-71018772D01*
X129685445Y-71063068D01*
X129684219Y-71071003D01*
X129681770Y-71086867D01*
X129686878Y-71098061D01*
X129718489Y-71115434D01*
X129775578Y-71130816D01*
X129854254Y-71143266D01*
X129950625Y-71151844D01*
X129997450Y-71153819D01*
X130140788Y-71146376D01*
X130269081Y-71116241D01*
X130389164Y-71062014D01*
X130470749Y-71015970D01*
X130440645Y-71095196D01*
X130407031Y-71174669D01*
X130360735Y-71271350D01*
X130308034Y-71372755D01*
X130254623Y-71467933D01*
X130206198Y-71545937D01*
X130180010Y-71582867D01*
X130117176Y-71662453D01*
X130041130Y-71750799D01*
X129958883Y-71840154D01*
X129877445Y-71922765D01*
X129803825Y-71990882D01*
X129733401Y-72048886D01*
X129531746Y-72188195D01*
X129311326Y-72305614D01*
X129076932Y-72399120D01*
X128833352Y-72466685D01*
X128585375Y-72506284D01*
X128488047Y-72513184D01*
X128282317Y-72512063D01*
X128069475Y-72492303D01*
X127860872Y-72455194D01*
X127667859Y-72402025D01*
X127491318Y-72333460D01*
X127266861Y-72217897D01*
X127055050Y-72076427D01*
X126859266Y-71911968D01*
X126682888Y-71727436D01*
X126529298Y-71525748D01*
X126401877Y-71309820D01*
X126399976Y-71306086D01*
X126366971Y-71239866D01*
X126340872Y-71184914D01*
X126324271Y-71146858D01*
X126319756Y-71131327D01*
X126322476Y-71130588D01*
X126348687Y-71131050D01*
X126396008Y-71135015D01*
X126456702Y-71141886D01*
X126499089Y-71146441D01*
X126661675Y-71148563D01*
X126809444Y-71125213D01*
X126940705Y-71077166D01*
X127053766Y-71005198D01*
X127146935Y-70910083D01*
X127218520Y-70792599D01*
X127223503Y-70781844D01*
X127239828Y-70742251D01*
X127250402Y-70703884D01*
X127256444Y-70658502D01*
X127259174Y-70597864D01*
X127259813Y-70513728D01*
X127259645Y-70455048D01*
X127258281Y-70397300D01*
X127445061Y-70397300D01*
X127448346Y-70536886D01*
X127455594Y-70651597D01*
X127467087Y-70744633D01*
X127483104Y-70819191D01*
X127503923Y-70878471D01*
X127507378Y-70886065D01*
X127565280Y-70978217D01*
X127642988Y-71055543D01*
X127732227Y-71109664D01*
X127790715Y-71128431D01*
X127879633Y-71144396D01*
X127977147Y-71152262D01*
X128070970Y-71151131D01*
X128148813Y-71140104D01*
X128215169Y-71116383D01*
X128305214Y-71058874D01*
X128381725Y-70979473D01*
X128439658Y-70883805D01*
X128473966Y-70777499D01*
X128476624Y-70755523D01*
X128680974Y-70755523D01*
X128681770Y-70782799D01*
X128700783Y-70887322D01*
X128745902Y-70974936D01*
X128818199Y-71047222D01*
X128918750Y-71105763D01*
X128971090Y-71124895D01*
X129074174Y-71145974D01*
X129189560Y-71153853D01*
X129306746Y-71148059D01*
X129415229Y-71128118D01*
X129416335Y-71127819D01*
X129472183Y-71111140D01*
X129516000Y-71095220D01*
X129538383Y-71083467D01*
X129543259Y-71071003D01*
X129541447Y-71027801D01*
X129527473Y-70957645D01*
X129526242Y-70952542D01*
X129512873Y-70898625D01*
X129502449Y-70859153D01*
X129497133Y-70842357D01*
X129496921Y-70842192D01*
X129479310Y-70844585D01*
X129440025Y-70854558D01*
X129387066Y-70870094D01*
X129334094Y-70884470D01*
X129237816Y-70900531D01*
X129150307Y-70902686D01*
X129076739Y-70891449D01*
X129022284Y-70867332D01*
X128992112Y-70830851D01*
X128981120Y-70788490D01*
X128985720Y-70745659D01*
X129011127Y-70706447D01*
X129059902Y-70668290D01*
X129134604Y-70628626D01*
X129237796Y-70584890D01*
X129244477Y-70582219D01*
X129354210Y-70525271D01*
X129439611Y-70454722D01*
X129499196Y-70373281D01*
X129531481Y-70283660D01*
X129534983Y-70188570D01*
X129508219Y-70090722D01*
X129463742Y-70013440D01*
X129394748Y-69944954D01*
X129299750Y-69888609D01*
X129276821Y-69878152D01*
X129233557Y-69862139D01*
X129188622Y-69852781D01*
X129132003Y-69848399D01*
X129053688Y-69847312D01*
X129051664Y-69847314D01*
X128963918Y-69850475D01*
X128917397Y-69855250D01*
X128881925Y-69858891D01*
X128812183Y-69871404D01*
X128761189Y-69886853D01*
X128735442Y-69904081D01*
X128735332Y-69922359D01*
X128742067Y-69961914D01*
X128753454Y-70012349D01*
X128767021Y-70063634D01*
X128780295Y-70105740D01*
X128790802Y-70128633D01*
X128799575Y-70131186D01*
X128832056Y-70127974D01*
X128877951Y-70116727D01*
X128914155Y-70107994D01*
X128984825Y-70097478D01*
X129054070Y-70093375D01*
X129114514Y-70097319D01*
X129181605Y-70117113D01*
X129222454Y-70153120D01*
X129236250Y-70204844D01*
X129233249Y-70226550D01*
X129212353Y-70262779D01*
X129169048Y-70298633D01*
X129100421Y-70336279D01*
X129003555Y-70377885D01*
X128890331Y-70430926D01*
X128796487Y-70496139D01*
X128731179Y-70570961D01*
X128693109Y-70656915D01*
X128680974Y-70755523D01*
X128476624Y-70755523D01*
X128477645Y-70747084D01*
X128481681Y-70685700D01*
X128485119Y-70602337D01*
X128487786Y-70502334D01*
X128489512Y-70391032D01*
X128490125Y-70273770D01*
X128490125Y-69855250D01*
X128204375Y-69855250D01*
X128204375Y-70240852D01*
X128203889Y-70357016D01*
X128201262Y-70491539D01*
X128195686Y-70600171D01*
X128186413Y-70686277D01*
X128172692Y-70753221D01*
X128153776Y-70804369D01*
X128128914Y-70843086D01*
X128097358Y-70872737D01*
X128058358Y-70896687D01*
X128053763Y-70898985D01*
X127982009Y-70917434D01*
X127909243Y-70907825D01*
X127842816Y-70872434D01*
X127790077Y-70813540D01*
X127789309Y-70812303D01*
X127778324Y-70793680D01*
X127769682Y-70774736D01*
X127763050Y-70751541D01*
X127758097Y-70720168D01*
X127754489Y-70676689D01*
X127751894Y-70617174D01*
X127749979Y-70537696D01*
X127748412Y-70434327D01*
X127746860Y-70303137D01*
X127741782Y-69854087D01*
X127596047Y-69858637D01*
X127450313Y-69863187D01*
X127445676Y-70212437D01*
X127445461Y-70229642D01*
X127445061Y-70397300D01*
X127258281Y-70397300D01*
X127258099Y-70389615D01*
X127253693Y-70341744D01*
X127244962Y-70302982D01*
X127230438Y-70264876D01*
X127208654Y-70218976D01*
X127176303Y-70160399D01*
X127090384Y-70050152D01*
X126983611Y-69963472D01*
X126856712Y-69900765D01*
X126710412Y-69862435D01*
X126545438Y-69848888D01*
X126498921Y-69849700D01*
X126417517Y-69855711D01*
X126341092Y-69866449D01*
X126276338Y-69880620D01*
X126229948Y-69896928D01*
X126208613Y-69914079D01*
X126206335Y-69932683D01*
X126210016Y-69974705D01*
X126219524Y-70026223D01*
X126232501Y-70076979D01*
X126246588Y-70116711D01*
X126259427Y-70135159D01*
X126284594Y-70135390D01*
X126322464Y-70125400D01*
X126338373Y-70119962D01*
X126418500Y-70103631D01*
X126512175Y-70097281D01*
X126605938Y-70101263D01*
X126686328Y-70115927D01*
X126747762Y-70139196D01*
X126832408Y-70192813D01*
X126897061Y-70262635D01*
X126936130Y-70343568D01*
X126942238Y-70366478D01*
X126958455Y-70484378D01*
X126949412Y-70596060D01*
X126916518Y-70696838D01*
X126861181Y-70782029D01*
X126784809Y-70846947D01*
X126747083Y-70868408D01*
X126702847Y-70885987D01*
X126651390Y-70895708D01*
X126580464Y-70900800D01*
X126573778Y-70901085D01*
X126510012Y-70901628D01*
X126464649Y-70897946D01*
X126444281Y-70890536D01*
X126443476Y-70888806D01*
X126439679Y-70861912D01*
X126438261Y-70813886D01*
X126439536Y-70753830D01*
X126444759Y-70633125D01*
X126632750Y-70633125D01*
X126632750Y-70393541D01*
X126398594Y-70395700D01*
X126164438Y-70397860D01*
X126166985Y-70186086D01*
X126170538Y-70087664D01*
X126193828Y-69888046D01*
X126240104Y-69689222D01*
X126268036Y-69607893D01*
X127824727Y-69607893D01*
X127827643Y-69609693D01*
X127853762Y-69617572D01*
X127895409Y-69625709D01*
X127901226Y-69626616D01*
X127935040Y-69629357D01*
X127962028Y-69622357D01*
X127991739Y-69601174D01*
X128033719Y-69561366D01*
X128071445Y-69523380D01*
X128098717Y-69494418D01*
X128109125Y-69481255D01*
X128106942Y-69479124D01*
X128084177Y-69469260D01*
X128044651Y-69456207D01*
X127980176Y-69436890D01*
X127898563Y-69518503D01*
X127892901Y-69524202D01*
X127855657Y-69563898D01*
X127831252Y-69593829D01*
X127824727Y-69607893D01*
X126268036Y-69607893D01*
X126311210Y-69482187D01*
X126344556Y-69408503D01*
X127661901Y-69408503D01*
X127728671Y-69496939D01*
X127730996Y-69500017D01*
X127763937Y-69543138D01*
X127787973Y-69573740D01*
X127798044Y-69585375D01*
X127798474Y-69585137D01*
X127812717Y-69571862D01*
X127842592Y-69542285D01*
X127882408Y-69502031D01*
X127964168Y-69418687D01*
X127900265Y-69339312D01*
X127868520Y-69300983D01*
X127840572Y-69269538D01*
X127825900Y-69255993D01*
X127825660Y-69255927D01*
X127809466Y-69265216D01*
X127778295Y-69291851D01*
X127738669Y-69330276D01*
X127661901Y-69408503D01*
X126344556Y-69408503D01*
X126397041Y-69292526D01*
X126425671Y-69243832D01*
X127873877Y-69243832D01*
X127877456Y-69256048D01*
X127895796Y-69287123D01*
X127925005Y-69329253D01*
X127952405Y-69363722D01*
X127999292Y-69405996D01*
X128025719Y-69418687D01*
X128053905Y-69432223D01*
X128077537Y-69439838D01*
X128111610Y-69448688D01*
X128125000Y-69448792D01*
X128116636Y-69433924D01*
X128093826Y-69400915D01*
X128061635Y-69357211D01*
X128038934Y-69328775D01*
X127989034Y-69280638D01*
X127939411Y-69255220D01*
X127928008Y-69251882D01*
X127891795Y-69243759D01*
X127873877Y-69243832D01*
X126425671Y-69243832D01*
X126525743Y-69073631D01*
X126678799Y-68869484D01*
X126852672Y-68684708D01*
X127043827Y-68523927D01*
X127177091Y-68425134D01*
X127235623Y-68532973D01*
X127254885Y-68567541D01*
X127299726Y-68643453D01*
X127351815Y-68727130D01*
X127408475Y-68814716D01*
X127467031Y-68902359D01*
X127524805Y-68986205D01*
X127579123Y-69062401D01*
X127627308Y-69127094D01*
X127666684Y-69176429D01*
X127694574Y-69206553D01*
X127708304Y-69213613D01*
X127707196Y-69204896D01*
X127693874Y-69173342D01*
X127669365Y-69124949D01*
X127636667Y-69065895D01*
X127616441Y-69030499D01*
X127563875Y-68937081D01*
X127509896Y-68839394D01*
X127456619Y-68741436D01*
X127406154Y-68647206D01*
X127360615Y-68560702D01*
X127322114Y-68485922D01*
X127292764Y-68426864D01*
X127274678Y-68387525D01*
X127269967Y-68371905D01*
X127282018Y-68363394D01*
X127322871Y-68341239D01*
X127382720Y-68312672D01*
X127454686Y-68280705D01*
X127531895Y-68248355D01*
X127607470Y-68218633D01*
X127674535Y-68194556D01*
X127743870Y-68172637D01*
X127995651Y-68113542D01*
X128251221Y-68084303D01*
X128507444Y-68084604D01*
X128761185Y-68114131D01*
X129009310Y-68172572D01*
X129248682Y-68259611D01*
X129476167Y-68374936D01*
X129678694Y-68508191D01*
X129882630Y-68677189D01*
X130063128Y-68866535D01*
X130219129Y-69074604D01*
X130349572Y-69299771D01*
X130413868Y-69448792D01*
X130427875Y-69481255D01*
G36*
X130427875Y-69481255D02*
G01*
X130453398Y-69540414D01*
X130529546Y-69794906D01*
X130576956Y-70061625D01*
X130587438Y-70148937D01*
X130548784Y-70096888D01*
X130547072Y-70094596D01*
X130456871Y-70000160D01*
X130345826Y-69926514D01*
X130218036Y-69874890D01*
X130077597Y-69846519D01*
X129928608Y-69842632D01*
X129775166Y-69864459D01*
X129725472Y-69876067D01*
X129687179Y-69888222D01*
X129670214Y-69902740D01*
X129669250Y-69924914D01*
X129678956Y-69960037D01*
X129681292Y-69967760D01*
X129695735Y-70017510D01*
X129710776Y-70071636D01*
X129728515Y-70137210D01*
X129787976Y-70115989D01*
X129812844Y-70108896D01*
X129883205Y-70098311D01*
X129964867Y-70094567D01*
X130044272Y-70097967D01*
X130107866Y-70108817D01*
X130150094Y-70123746D01*
X130234247Y-70175971D01*
X130297831Y-70251628D01*
X130339991Y-70349496D01*
X130359873Y-70468357D01*
X130359602Y-70554490D01*
X130338084Y-70664879D01*
X130292628Y-70757218D01*
X130224354Y-70829464D01*
X130134382Y-70879575D01*
X130116098Y-70885698D01*
X130057921Y-70896693D01*
X129982466Y-70899969D01*
X129885214Y-70895573D01*
X129761647Y-70883554D01*
X129742181Y-70883494D01*
X129727111Y-70893862D01*
X129715559Y-70921903D01*
X129703135Y-70974437D01*
X129693945Y-71018772D01*
X129685445Y-71063068D01*
X129684219Y-71071003D01*
X129681770Y-71086867D01*
X129686878Y-71098061D01*
X129718489Y-71115434D01*
X129775578Y-71130816D01*
X129854254Y-71143266D01*
X129950625Y-71151844D01*
X129997450Y-71153819D01*
X130140788Y-71146376D01*
X130269081Y-71116241D01*
X130389164Y-71062014D01*
X130470749Y-71015970D01*
X130440645Y-71095196D01*
X130407031Y-71174669D01*
X130360735Y-71271350D01*
X130308034Y-71372755D01*
X130254623Y-71467933D01*
X130206198Y-71545937D01*
X130180010Y-71582867D01*
X130117176Y-71662453D01*
X130041130Y-71750799D01*
X129958883Y-71840154D01*
X129877445Y-71922765D01*
X129803825Y-71990882D01*
X129733401Y-72048886D01*
X129531746Y-72188195D01*
X129311326Y-72305614D01*
X129076932Y-72399120D01*
X128833352Y-72466685D01*
X128585375Y-72506284D01*
X128488047Y-72513184D01*
X128282317Y-72512063D01*
X128069475Y-72492303D01*
X127860872Y-72455194D01*
X127667859Y-72402025D01*
X127491318Y-72333460D01*
X127266861Y-72217897D01*
X127055050Y-72076427D01*
X126859266Y-71911968D01*
X126682888Y-71727436D01*
X126529298Y-71525748D01*
X126401877Y-71309820D01*
X126399976Y-71306086D01*
X126366971Y-71239866D01*
X126340872Y-71184914D01*
X126324271Y-71146858D01*
X126319756Y-71131327D01*
X126322476Y-71130588D01*
X126348687Y-71131050D01*
X126396008Y-71135015D01*
X126456702Y-71141886D01*
X126499089Y-71146441D01*
X126661675Y-71148563D01*
X126809444Y-71125213D01*
X126940705Y-71077166D01*
X127053766Y-71005198D01*
X127146935Y-70910083D01*
X127218520Y-70792599D01*
X127223503Y-70781844D01*
X127239828Y-70742251D01*
X127250402Y-70703884D01*
X127256444Y-70658502D01*
X127259174Y-70597864D01*
X127259813Y-70513728D01*
X127259645Y-70455048D01*
X127258281Y-70397300D01*
X127445061Y-70397300D01*
X127448346Y-70536886D01*
X127455594Y-70651597D01*
X127467087Y-70744633D01*
X127483104Y-70819191D01*
X127503923Y-70878471D01*
X127507378Y-70886065D01*
X127565280Y-70978217D01*
X127642988Y-71055543D01*
X127732227Y-71109664D01*
X127790715Y-71128431D01*
X127879633Y-71144396D01*
X127977147Y-71152262D01*
X128070970Y-71151131D01*
X128148813Y-71140104D01*
X128215169Y-71116383D01*
X128305214Y-71058874D01*
X128381725Y-70979473D01*
X128439658Y-70883805D01*
X128473966Y-70777499D01*
X128476624Y-70755523D01*
X128680974Y-70755523D01*
X128681770Y-70782799D01*
X128700783Y-70887322D01*
X128745902Y-70974936D01*
X128818199Y-71047222D01*
X128918750Y-71105763D01*
X128971090Y-71124895D01*
X129074174Y-71145974D01*
X129189560Y-71153853D01*
X129306746Y-71148059D01*
X129415229Y-71128118D01*
X129416335Y-71127819D01*
X129472183Y-71111140D01*
X129516000Y-71095220D01*
X129538383Y-71083467D01*
X129543259Y-71071003D01*
X129541447Y-71027801D01*
X129527473Y-70957645D01*
X129526242Y-70952542D01*
X129512873Y-70898625D01*
X129502449Y-70859153D01*
X129497133Y-70842357D01*
X129496921Y-70842192D01*
X129479310Y-70844585D01*
X129440025Y-70854558D01*
X129387066Y-70870094D01*
X129334094Y-70884470D01*
X129237816Y-70900531D01*
X129150307Y-70902686D01*
X129076739Y-70891449D01*
X129022284Y-70867332D01*
X128992112Y-70830851D01*
X128981120Y-70788490D01*
X128985720Y-70745659D01*
X129011127Y-70706447D01*
X129059902Y-70668290D01*
X129134604Y-70628626D01*
X129237796Y-70584890D01*
X129244477Y-70582219D01*
X129354210Y-70525271D01*
X129439611Y-70454722D01*
X129499196Y-70373281D01*
X129531481Y-70283660D01*
X129534983Y-70188570D01*
X129508219Y-70090722D01*
X129463742Y-70013440D01*
X129394748Y-69944954D01*
X129299750Y-69888609D01*
X129276821Y-69878152D01*
X129233557Y-69862139D01*
X129188622Y-69852781D01*
X129132003Y-69848399D01*
X129053688Y-69847312D01*
X129051664Y-69847314D01*
X128963918Y-69850475D01*
X128917397Y-69855250D01*
X128881925Y-69858891D01*
X128812183Y-69871404D01*
X128761189Y-69886853D01*
X128735442Y-69904081D01*
X128735332Y-69922359D01*
X128742067Y-69961914D01*
X128753454Y-70012349D01*
X128767021Y-70063634D01*
X128780295Y-70105740D01*
X128790802Y-70128633D01*
X128799575Y-70131186D01*
X128832056Y-70127974D01*
X128877951Y-70116727D01*
X128914155Y-70107994D01*
X128984825Y-70097478D01*
X129054070Y-70093375D01*
X129114514Y-70097319D01*
X129181605Y-70117113D01*
X129222454Y-70153120D01*
X129236250Y-70204844D01*
X129233249Y-70226550D01*
X129212353Y-70262779D01*
X129169048Y-70298633D01*
X129100421Y-70336279D01*
X129003555Y-70377885D01*
X128890331Y-70430926D01*
X128796487Y-70496139D01*
X128731179Y-70570961D01*
X128693109Y-70656915D01*
X128680974Y-70755523D01*
X128476624Y-70755523D01*
X128477645Y-70747084D01*
X128481681Y-70685700D01*
X128485119Y-70602337D01*
X128487786Y-70502334D01*
X128489512Y-70391032D01*
X128490125Y-70273770D01*
X128490125Y-69855250D01*
X128204375Y-69855250D01*
X128204375Y-70240852D01*
X128203889Y-70357016D01*
X128201262Y-70491539D01*
X128195686Y-70600171D01*
X128186413Y-70686277D01*
X128172692Y-70753221D01*
X128153776Y-70804369D01*
X128128914Y-70843086D01*
X128097358Y-70872737D01*
X128058358Y-70896687D01*
X128053763Y-70898985D01*
X127982009Y-70917434D01*
X127909243Y-70907825D01*
X127842816Y-70872434D01*
X127790077Y-70813540D01*
X127789309Y-70812303D01*
X127778324Y-70793680D01*
X127769682Y-70774736D01*
X127763050Y-70751541D01*
X127758097Y-70720168D01*
X127754489Y-70676689D01*
X127751894Y-70617174D01*
X127749979Y-70537696D01*
X127748412Y-70434327D01*
X127746860Y-70303137D01*
X127741782Y-69854087D01*
X127596047Y-69858637D01*
X127450313Y-69863187D01*
X127445676Y-70212437D01*
X127445461Y-70229642D01*
X127445061Y-70397300D01*
X127258281Y-70397300D01*
X127258099Y-70389615D01*
X127253693Y-70341744D01*
X127244962Y-70302982D01*
X127230438Y-70264876D01*
X127208654Y-70218976D01*
X127176303Y-70160399D01*
X127090384Y-70050152D01*
X126983611Y-69963472D01*
X126856712Y-69900765D01*
X126710412Y-69862435D01*
X126545438Y-69848888D01*
X126498921Y-69849700D01*
X126417517Y-69855711D01*
X126341092Y-69866449D01*
X126276338Y-69880620D01*
X126229948Y-69896928D01*
X126208613Y-69914079D01*
X126206335Y-69932683D01*
X126210016Y-69974705D01*
X126219524Y-70026223D01*
X126232501Y-70076979D01*
X126246588Y-70116711D01*
X126259427Y-70135159D01*
X126284594Y-70135390D01*
X126322464Y-70125400D01*
X126338373Y-70119962D01*
X126418500Y-70103631D01*
X126512175Y-70097281D01*
X126605938Y-70101263D01*
X126686328Y-70115927D01*
X126747762Y-70139196D01*
X126832408Y-70192813D01*
X126897061Y-70262635D01*
X126936130Y-70343568D01*
X126942238Y-70366478D01*
X126958455Y-70484378D01*
X126949412Y-70596060D01*
X126916518Y-70696838D01*
X126861181Y-70782029D01*
X126784809Y-70846947D01*
X126747083Y-70868408D01*
X126702847Y-70885987D01*
X126651390Y-70895708D01*
X126580464Y-70900800D01*
X126573778Y-70901085D01*
X126510012Y-70901628D01*
X126464649Y-70897946D01*
X126444281Y-70890536D01*
X126443476Y-70888806D01*
X126439679Y-70861912D01*
X126438261Y-70813886D01*
X126439536Y-70753830D01*
X126444759Y-70633125D01*
X126632750Y-70633125D01*
X126632750Y-70393541D01*
X126398594Y-70395700D01*
X126164438Y-70397860D01*
X126166985Y-70186086D01*
X126170538Y-70087664D01*
X126193828Y-69888046D01*
X126240104Y-69689222D01*
X126268036Y-69607893D01*
X127824727Y-69607893D01*
X127827643Y-69609693D01*
X127853762Y-69617572D01*
X127895409Y-69625709D01*
X127901226Y-69626616D01*
X127935040Y-69629357D01*
X127962028Y-69622357D01*
X127991739Y-69601174D01*
X128033719Y-69561366D01*
X128071445Y-69523380D01*
X128098717Y-69494418D01*
X128109125Y-69481255D01*
X128106942Y-69479124D01*
X128084177Y-69469260D01*
X128044651Y-69456207D01*
X127980176Y-69436890D01*
X127898563Y-69518503D01*
X127892901Y-69524202D01*
X127855657Y-69563898D01*
X127831252Y-69593829D01*
X127824727Y-69607893D01*
X126268036Y-69607893D01*
X126311210Y-69482187D01*
X126344556Y-69408503D01*
X127661901Y-69408503D01*
X127728671Y-69496939D01*
X127730996Y-69500017D01*
X127763937Y-69543138D01*
X127787973Y-69573740D01*
X127798044Y-69585375D01*
X127798474Y-69585137D01*
X127812717Y-69571862D01*
X127842592Y-69542285D01*
X127882408Y-69502031D01*
X127964168Y-69418687D01*
X127900265Y-69339312D01*
X127868520Y-69300983D01*
X127840572Y-69269538D01*
X127825900Y-69255993D01*
X127825660Y-69255927D01*
X127809466Y-69265216D01*
X127778295Y-69291851D01*
X127738669Y-69330276D01*
X127661901Y-69408503D01*
X126344556Y-69408503D01*
X126397041Y-69292526D01*
X126425671Y-69243832D01*
X127873877Y-69243832D01*
X127877456Y-69256048D01*
X127895796Y-69287123D01*
X127925005Y-69329253D01*
X127952405Y-69363722D01*
X127999292Y-69405996D01*
X128025719Y-69418687D01*
X128053905Y-69432223D01*
X128077537Y-69439838D01*
X128111610Y-69448688D01*
X128125000Y-69448792D01*
X128116636Y-69433924D01*
X128093826Y-69400915D01*
X128061635Y-69357211D01*
X128038934Y-69328775D01*
X127989034Y-69280638D01*
X127939411Y-69255220D01*
X127928008Y-69251882D01*
X127891795Y-69243759D01*
X127873877Y-69243832D01*
X126425671Y-69243832D01*
X126525743Y-69073631D01*
X126678799Y-68869484D01*
X126852672Y-68684708D01*
X127043827Y-68523927D01*
X127177091Y-68425134D01*
X127235623Y-68532973D01*
X127254885Y-68567541D01*
X127299726Y-68643453D01*
X127351815Y-68727130D01*
X127408475Y-68814716D01*
X127467031Y-68902359D01*
X127524805Y-68986205D01*
X127579123Y-69062401D01*
X127627308Y-69127094D01*
X127666684Y-69176429D01*
X127694574Y-69206553D01*
X127708304Y-69213613D01*
X127707196Y-69204896D01*
X127693874Y-69173342D01*
X127669365Y-69124949D01*
X127636667Y-69065895D01*
X127616441Y-69030499D01*
X127563875Y-68937081D01*
X127509896Y-68839394D01*
X127456619Y-68741436D01*
X127406154Y-68647206D01*
X127360615Y-68560702D01*
X127322114Y-68485922D01*
X127292764Y-68426864D01*
X127274678Y-68387525D01*
X127269967Y-68371905D01*
X127282018Y-68363394D01*
X127322871Y-68341239D01*
X127382720Y-68312672D01*
X127454686Y-68280705D01*
X127531895Y-68248355D01*
X127607470Y-68218633D01*
X127674535Y-68194556D01*
X127743870Y-68172637D01*
X127995651Y-68113542D01*
X128251221Y-68084303D01*
X128507444Y-68084604D01*
X128761185Y-68114131D01*
X129009310Y-68172572D01*
X129248682Y-68259611D01*
X129476167Y-68374936D01*
X129678694Y-68508191D01*
X129882630Y-68677189D01*
X130063128Y-68866535D01*
X130219129Y-69074604D01*
X130349572Y-69299771D01*
X130413868Y-69448792D01*
X130427875Y-69481255D01*
G37*
D14*
%TO.C,BT1*%
X130688000Y-54451000D02*
X130688000Y-54451000D01*
X130688000Y-54451000D02*
X130688000Y-56151000D01*
X130688000Y-60351000D02*
X130688000Y-62151000D01*
X130688000Y-62151000D02*
X133293000Y-65151000D01*
X133293000Y-54441000D02*
X134293000Y-55151000D01*
X133293000Y-65151000D02*
X141293000Y-65151000D01*
X134293000Y-55151000D02*
X140293000Y-55151000D01*
X140293000Y-55151000D02*
X141293000Y-54451000D01*
X141293000Y-65151000D02*
X143898000Y-62151000D01*
X143898000Y-54451000D02*
X143898000Y-54451000D01*
X143898000Y-54451000D02*
X143898000Y-56551000D01*
X143898000Y-62151000D02*
X143898000Y-60351000D01*
D15*
X147193000Y-58421000D02*
X147193000Y-58421000D01*
X147293000Y-58421000D02*
X147293000Y-58421000D01*
D14*
X130688000Y-54451000D02*
G75*
G02*
X133292968Y-54441907I1302500J0D01*
G01*
X141293000Y-54451000D02*
G75*
G02*
X143898000Y-54451000I1302500J0D01*
G01*
D15*
X147193000Y-58421000D02*
G75*
G02*
X147293000Y-58421000I50000J0D01*
G01*
X147293000Y-58421000D02*
G75*
G02*
X147193000Y-58421000I-50000J0D01*
G01*
%TD*%
M02*
