M48
; DRILL file {KiCad 8.0.2} date 2024-07-30T13:49:24+0200
; FORMAT={-:-/ absolute / inch / decimal}
; #@! TF.CreationDate,2024-07-30T13:49:24+02:00
; #@! TF.GenerationSoftware,Kicad,Pcbnew,8.0.2
; #@! TF.FileFunction,NonPlated,1,2,NPTH
FMAT,2
INCH
; #@! TA.AperFunction,NonPlated,NPTH,ComponentDrill
T1C0.0380
; #@! TA.AperFunction,NonPlated,NPTH,ComponentDrill
T2C0.0700
; #@! TA.AperFunction,NonPlated,NPTH,ComponentDrill
T3C0.1083
%
G90
G05
T1
X4.8713Y-2.9153
X4.8713Y-3.0153
X4.9713Y-2.9153
X4.9713Y-3.0153
X5.0713Y-2.9153
X5.0713Y-3.0153
X5.1713Y-2.9153
X5.1713Y-3.0153
X5.2713Y-2.9153
X5.2713Y-3.0153
X5.3713Y-2.9153
X5.3713Y-3.0153
X5.4713Y-2.9153
X5.4713Y-3.0153
X5.5713Y-2.9153
X5.5713Y-3.0153
X5.6713Y-2.9153
X5.6713Y-3.0153
X5.7713Y-2.9153
X5.7713Y-3.0153
X5.8713Y-2.9153
X5.8713Y-3.0153
X5.9713Y-2.9153
X5.9713Y-3.0153
X6.0713Y-2.9153
X6.0713Y-3.0153
X6.1713Y-2.9153
X6.1713Y-3.0153
X6.2713Y-2.9153
X6.2713Y-3.0153
X6.3713Y-2.9153
X6.3713Y-3.0153
X6.4713Y-2.9153
X6.4713Y-3.0153
X6.5713Y-2.9153
X6.5713Y-3.0153
X6.6713Y-2.9153
X6.6713Y-3.0153
X6.7713Y-2.9153
X6.7713Y-3.0153
T2
X4.9213Y-2.9653
X6.7213Y-2.9653
T3
X4.676Y-2.9354
X4.676Y-4.8646
X6.9594Y-2.9354
X6.9594Y-4.8646
M30
