%TF.GenerationSoftware,KiCad,Pcbnew,8.0.2*%
%TF.CreationDate,2024-07-30T14:20:43+02:00*%
%TF.ProjectId,mikrobus_x1_hatPCB,6d696b72-6f62-4757-935f-78315f686174,rev?*%
%TF.SameCoordinates,Original*%
%TF.FileFunction,Legend,Top*%
%TF.FilePolarity,Positive*%
%FSLAX46Y46*%
G04 Gerber Fmt 4.6, Leading zero omitted, Abs format (unit mm)*
G04 Created by KiCad (PCBNEW 8.0.2) date 2024-07-30 14:20:43*
%MOMM*%
%LPD*%
G01*
G04 APERTURE LIST*
%ADD10C,0.150000*%
%ADD11C,0.400000*%
%ADD12C,0.254000*%
%ADD13C,0.100000*%
%ADD14C,0.000000*%
%ADD15C,0.965200*%
%ADD16C,1.778000*%
G04 APERTURE END LIST*
D10*
X140459411Y-87052561D02*
X140554649Y-87100180D01*
X140554649Y-87100180D02*
X140697506Y-87100180D01*
X140697506Y-87100180D02*
X140840363Y-87052561D01*
X140840363Y-87052561D02*
X140935601Y-86957323D01*
X140935601Y-86957323D02*
X140983220Y-86862085D01*
X140983220Y-86862085D02*
X141030839Y-86671609D01*
X141030839Y-86671609D02*
X141030839Y-86528752D01*
X141030839Y-86528752D02*
X140983220Y-86338276D01*
X140983220Y-86338276D02*
X140935601Y-86243038D01*
X140935601Y-86243038D02*
X140840363Y-86147800D01*
X140840363Y-86147800D02*
X140697506Y-86100180D01*
X140697506Y-86100180D02*
X140602268Y-86100180D01*
X140602268Y-86100180D02*
X140459411Y-86147800D01*
X140459411Y-86147800D02*
X140411792Y-86195419D01*
X140411792Y-86195419D02*
X140411792Y-86528752D01*
X140411792Y-86528752D02*
X140602268Y-86528752D01*
X139983220Y-86100180D02*
X139983220Y-87100180D01*
X139983220Y-87100180D02*
X139411792Y-86100180D01*
X139411792Y-86100180D02*
X139411792Y-87100180D01*
X138935601Y-86100180D02*
X138935601Y-87100180D01*
X138935601Y-87100180D02*
X138697506Y-87100180D01*
X138697506Y-87100180D02*
X138554649Y-87052561D01*
X138554649Y-87052561D02*
X138459411Y-86957323D01*
X138459411Y-86957323D02*
X138411792Y-86862085D01*
X138411792Y-86862085D02*
X138364173Y-86671609D01*
X138364173Y-86671609D02*
X138364173Y-86528752D01*
X138364173Y-86528752D02*
X138411792Y-86338276D01*
X138411792Y-86338276D02*
X138459411Y-86243038D01*
X138459411Y-86243038D02*
X138554649Y-86147800D01*
X138554649Y-86147800D02*
X138697506Y-86100180D01*
X138697506Y-86100180D02*
X138935601Y-86100180D01*
X158203220Y-93790180D02*
X158203220Y-94790180D01*
X158203220Y-94790180D02*
X157869887Y-94075895D01*
X157869887Y-94075895D02*
X157536554Y-94790180D01*
X157536554Y-94790180D02*
X157536554Y-93790180D01*
X157060363Y-93790180D02*
X157060363Y-94790180D01*
X156631792Y-93837800D02*
X156488935Y-93790180D01*
X156488935Y-93790180D02*
X156250840Y-93790180D01*
X156250840Y-93790180D02*
X156155602Y-93837800D01*
X156155602Y-93837800D02*
X156107983Y-93885419D01*
X156107983Y-93885419D02*
X156060364Y-93980657D01*
X156060364Y-93980657D02*
X156060364Y-94075895D01*
X156060364Y-94075895D02*
X156107983Y-94171133D01*
X156107983Y-94171133D02*
X156155602Y-94218752D01*
X156155602Y-94218752D02*
X156250840Y-94266371D01*
X156250840Y-94266371D02*
X156441316Y-94313990D01*
X156441316Y-94313990D02*
X156536554Y-94361609D01*
X156536554Y-94361609D02*
X156584173Y-94409228D01*
X156584173Y-94409228D02*
X156631792Y-94504466D01*
X156631792Y-94504466D02*
X156631792Y-94599704D01*
X156631792Y-94599704D02*
X156584173Y-94694942D01*
X156584173Y-94694942D02*
X156536554Y-94742561D01*
X156536554Y-94742561D02*
X156441316Y-94790180D01*
X156441316Y-94790180D02*
X156203221Y-94790180D01*
X156203221Y-94790180D02*
X156060364Y-94742561D01*
X155441316Y-94790180D02*
X155250840Y-94790180D01*
X155250840Y-94790180D02*
X155155602Y-94742561D01*
X155155602Y-94742561D02*
X155060364Y-94647323D01*
X155060364Y-94647323D02*
X155012745Y-94456847D01*
X155012745Y-94456847D02*
X155012745Y-94123514D01*
X155012745Y-94123514D02*
X155060364Y-93933038D01*
X155060364Y-93933038D02*
X155155602Y-93837800D01*
X155155602Y-93837800D02*
X155250840Y-93790180D01*
X155250840Y-93790180D02*
X155441316Y-93790180D01*
X155441316Y-93790180D02*
X155536554Y-93837800D01*
X155536554Y-93837800D02*
X155631792Y-93933038D01*
X155631792Y-93933038D02*
X155679411Y-94123514D01*
X155679411Y-94123514D02*
X155679411Y-94456847D01*
X155679411Y-94456847D02*
X155631792Y-94647323D01*
X155631792Y-94647323D02*
X155536554Y-94742561D01*
X155536554Y-94742561D02*
X155441316Y-94790180D01*
X153869888Y-94837800D02*
X154727030Y-93552085D01*
X153012745Y-94742561D02*
X153107983Y-94790180D01*
X153107983Y-94790180D02*
X153250840Y-94790180D01*
X153250840Y-94790180D02*
X153393697Y-94742561D01*
X153393697Y-94742561D02*
X153488935Y-94647323D01*
X153488935Y-94647323D02*
X153536554Y-94552085D01*
X153536554Y-94552085D02*
X153584173Y-94361609D01*
X153584173Y-94361609D02*
X153584173Y-94218752D01*
X153584173Y-94218752D02*
X153536554Y-94028276D01*
X153536554Y-94028276D02*
X153488935Y-93933038D01*
X153488935Y-93933038D02*
X153393697Y-93837800D01*
X153393697Y-93837800D02*
X153250840Y-93790180D01*
X153250840Y-93790180D02*
X153155602Y-93790180D01*
X153155602Y-93790180D02*
X153012745Y-93837800D01*
X153012745Y-93837800D02*
X152965126Y-93885419D01*
X152965126Y-93885419D02*
X152965126Y-94218752D01*
X152965126Y-94218752D02*
X153155602Y-94218752D01*
X152536554Y-93790180D02*
X152536554Y-94790180D01*
X152536554Y-94790180D02*
X152155602Y-94790180D01*
X152155602Y-94790180D02*
X152060364Y-94742561D01*
X152060364Y-94742561D02*
X152012745Y-94694942D01*
X152012745Y-94694942D02*
X151965126Y-94599704D01*
X151965126Y-94599704D02*
X151965126Y-94456847D01*
X151965126Y-94456847D02*
X152012745Y-94361609D01*
X152012745Y-94361609D02*
X152060364Y-94313990D01*
X152060364Y-94313990D02*
X152155602Y-94266371D01*
X152155602Y-94266371D02*
X152536554Y-94266371D01*
X151488935Y-93790180D02*
X151298459Y-93790180D01*
X151298459Y-93790180D02*
X151203221Y-93837800D01*
X151203221Y-93837800D02*
X151155602Y-93885419D01*
X151155602Y-93885419D02*
X151060364Y-94028276D01*
X151060364Y-94028276D02*
X151012745Y-94218752D01*
X151012745Y-94218752D02*
X151012745Y-94599704D01*
X151012745Y-94599704D02*
X151060364Y-94694942D01*
X151060364Y-94694942D02*
X151107983Y-94742561D01*
X151107983Y-94742561D02*
X151203221Y-94790180D01*
X151203221Y-94790180D02*
X151393697Y-94790180D01*
X151393697Y-94790180D02*
X151488935Y-94742561D01*
X151488935Y-94742561D02*
X151536554Y-94694942D01*
X151536554Y-94694942D02*
X151584173Y-94599704D01*
X151584173Y-94599704D02*
X151584173Y-94361609D01*
X151584173Y-94361609D02*
X151536554Y-94266371D01*
X151536554Y-94266371D02*
X151488935Y-94218752D01*
X151488935Y-94218752D02*
X151393697Y-94171133D01*
X151393697Y-94171133D02*
X151203221Y-94171133D01*
X151203221Y-94171133D02*
X151107983Y-94218752D01*
X151107983Y-94218752D02*
X151060364Y-94266371D01*
X151060364Y-94266371D02*
X151012745Y-94361609D01*
X158143220Y-91520180D02*
X158143220Y-92520180D01*
X158143220Y-92520180D02*
X157809887Y-91805895D01*
X157809887Y-91805895D02*
X157476554Y-92520180D01*
X157476554Y-92520180D02*
X157476554Y-91520180D01*
X156809887Y-92520180D02*
X156619411Y-92520180D01*
X156619411Y-92520180D02*
X156524173Y-92472561D01*
X156524173Y-92472561D02*
X156428935Y-92377323D01*
X156428935Y-92377323D02*
X156381316Y-92186847D01*
X156381316Y-92186847D02*
X156381316Y-91853514D01*
X156381316Y-91853514D02*
X156428935Y-91663038D01*
X156428935Y-91663038D02*
X156524173Y-91567800D01*
X156524173Y-91567800D02*
X156619411Y-91520180D01*
X156619411Y-91520180D02*
X156809887Y-91520180D01*
X156809887Y-91520180D02*
X156905125Y-91567800D01*
X156905125Y-91567800D02*
X157000363Y-91663038D01*
X157000363Y-91663038D02*
X157047982Y-91853514D01*
X157047982Y-91853514D02*
X157047982Y-92186847D01*
X157047982Y-92186847D02*
X157000363Y-92377323D01*
X157000363Y-92377323D02*
X156905125Y-92472561D01*
X156905125Y-92472561D02*
X156809887Y-92520180D01*
X156000363Y-91567800D02*
X155857506Y-91520180D01*
X155857506Y-91520180D02*
X155619411Y-91520180D01*
X155619411Y-91520180D02*
X155524173Y-91567800D01*
X155524173Y-91567800D02*
X155476554Y-91615419D01*
X155476554Y-91615419D02*
X155428935Y-91710657D01*
X155428935Y-91710657D02*
X155428935Y-91805895D01*
X155428935Y-91805895D02*
X155476554Y-91901133D01*
X155476554Y-91901133D02*
X155524173Y-91948752D01*
X155524173Y-91948752D02*
X155619411Y-91996371D01*
X155619411Y-91996371D02*
X155809887Y-92043990D01*
X155809887Y-92043990D02*
X155905125Y-92091609D01*
X155905125Y-92091609D02*
X155952744Y-92139228D01*
X155952744Y-92139228D02*
X156000363Y-92234466D01*
X156000363Y-92234466D02*
X156000363Y-92329704D01*
X156000363Y-92329704D02*
X155952744Y-92424942D01*
X155952744Y-92424942D02*
X155905125Y-92472561D01*
X155905125Y-92472561D02*
X155809887Y-92520180D01*
X155809887Y-92520180D02*
X155571792Y-92520180D01*
X155571792Y-92520180D02*
X155428935Y-92472561D01*
X155000363Y-91520180D02*
X155000363Y-92520180D01*
X153809888Y-92567800D02*
X154667030Y-91282085D01*
X152952745Y-92472561D02*
X153047983Y-92520180D01*
X153047983Y-92520180D02*
X153190840Y-92520180D01*
X153190840Y-92520180D02*
X153333697Y-92472561D01*
X153333697Y-92472561D02*
X153428935Y-92377323D01*
X153428935Y-92377323D02*
X153476554Y-92282085D01*
X153476554Y-92282085D02*
X153524173Y-92091609D01*
X153524173Y-92091609D02*
X153524173Y-91948752D01*
X153524173Y-91948752D02*
X153476554Y-91758276D01*
X153476554Y-91758276D02*
X153428935Y-91663038D01*
X153428935Y-91663038D02*
X153333697Y-91567800D01*
X153333697Y-91567800D02*
X153190840Y-91520180D01*
X153190840Y-91520180D02*
X153095602Y-91520180D01*
X153095602Y-91520180D02*
X152952745Y-91567800D01*
X152952745Y-91567800D02*
X152905126Y-91615419D01*
X152905126Y-91615419D02*
X152905126Y-91948752D01*
X152905126Y-91948752D02*
X153095602Y-91948752D01*
X152476554Y-91520180D02*
X152476554Y-92520180D01*
X152476554Y-92520180D02*
X152095602Y-92520180D01*
X152095602Y-92520180D02*
X152000364Y-92472561D01*
X152000364Y-92472561D02*
X151952745Y-92424942D01*
X151952745Y-92424942D02*
X151905126Y-92329704D01*
X151905126Y-92329704D02*
X151905126Y-92186847D01*
X151905126Y-92186847D02*
X151952745Y-92091609D01*
X151952745Y-92091609D02*
X152000364Y-92043990D01*
X152000364Y-92043990D02*
X152095602Y-91996371D01*
X152095602Y-91996371D02*
X152476554Y-91996371D01*
X150952745Y-91520180D02*
X151524173Y-91520180D01*
X151238459Y-91520180D02*
X151238459Y-92520180D01*
X151238459Y-92520180D02*
X151333697Y-92377323D01*
X151333697Y-92377323D02*
X151428935Y-92282085D01*
X151428935Y-92282085D02*
X151524173Y-92234466D01*
X150333697Y-92520180D02*
X150238459Y-92520180D01*
X150238459Y-92520180D02*
X150143221Y-92472561D01*
X150143221Y-92472561D02*
X150095602Y-92424942D01*
X150095602Y-92424942D02*
X150047983Y-92329704D01*
X150047983Y-92329704D02*
X150000364Y-92139228D01*
X150000364Y-92139228D02*
X150000364Y-91901133D01*
X150000364Y-91901133D02*
X150047983Y-91710657D01*
X150047983Y-91710657D02*
X150095602Y-91615419D01*
X150095602Y-91615419D02*
X150143221Y-91567800D01*
X150143221Y-91567800D02*
X150238459Y-91520180D01*
X150238459Y-91520180D02*
X150333697Y-91520180D01*
X150333697Y-91520180D02*
X150428935Y-91567800D01*
X150428935Y-91567800D02*
X150476554Y-91615419D01*
X150476554Y-91615419D02*
X150524173Y-91710657D01*
X150524173Y-91710657D02*
X150571792Y-91901133D01*
X150571792Y-91901133D02*
X150571792Y-92139228D01*
X150571792Y-92139228D02*
X150524173Y-92329704D01*
X150524173Y-92329704D02*
X150476554Y-92424942D01*
X150476554Y-92424942D02*
X150428935Y-92472561D01*
X150428935Y-92472561D02*
X150333697Y-92520180D01*
X144629411Y-97122561D02*
X144724649Y-97170180D01*
X144724649Y-97170180D02*
X144867506Y-97170180D01*
X144867506Y-97170180D02*
X145010363Y-97122561D01*
X145010363Y-97122561D02*
X145105601Y-97027323D01*
X145105601Y-97027323D02*
X145153220Y-96932085D01*
X145153220Y-96932085D02*
X145200839Y-96741609D01*
X145200839Y-96741609D02*
X145200839Y-96598752D01*
X145200839Y-96598752D02*
X145153220Y-96408276D01*
X145153220Y-96408276D02*
X145105601Y-96313038D01*
X145105601Y-96313038D02*
X145010363Y-96217800D01*
X145010363Y-96217800D02*
X144867506Y-96170180D01*
X144867506Y-96170180D02*
X144772268Y-96170180D01*
X144772268Y-96170180D02*
X144629411Y-96217800D01*
X144629411Y-96217800D02*
X144581792Y-96265419D01*
X144581792Y-96265419D02*
X144581792Y-96598752D01*
X144581792Y-96598752D02*
X144772268Y-96598752D01*
X144153220Y-96170180D02*
X144153220Y-97170180D01*
X144153220Y-97170180D02*
X143772268Y-97170180D01*
X143772268Y-97170180D02*
X143677030Y-97122561D01*
X143677030Y-97122561D02*
X143629411Y-97074942D01*
X143629411Y-97074942D02*
X143581792Y-96979704D01*
X143581792Y-96979704D02*
X143581792Y-96836847D01*
X143581792Y-96836847D02*
X143629411Y-96741609D01*
X143629411Y-96741609D02*
X143677030Y-96693990D01*
X143677030Y-96693990D02*
X143772268Y-96646371D01*
X143772268Y-96646371D02*
X144153220Y-96646371D01*
X142629411Y-96170180D02*
X143200839Y-96170180D01*
X142915125Y-96170180D02*
X142915125Y-97170180D01*
X142915125Y-97170180D02*
X143010363Y-97027323D01*
X143010363Y-97027323D02*
X143105601Y-96932085D01*
X143105601Y-96932085D02*
X143200839Y-96884466D01*
X141772268Y-96836847D02*
X141772268Y-96170180D01*
X142010363Y-97217800D02*
X142248458Y-96503514D01*
X142248458Y-96503514D02*
X141629411Y-96503514D01*
X140534173Y-97217800D02*
X141391315Y-95932085D01*
X140343696Y-97170180D02*
X139772268Y-97170180D01*
X140057982Y-96170180D02*
X140057982Y-97170180D01*
X139534172Y-97170180D02*
X138867506Y-96170180D01*
X138867506Y-97170180D02*
X139534172Y-96170180D01*
X157759411Y-87182561D02*
X157854649Y-87230180D01*
X157854649Y-87230180D02*
X157997506Y-87230180D01*
X157997506Y-87230180D02*
X158140363Y-87182561D01*
X158140363Y-87182561D02*
X158235601Y-87087323D01*
X158235601Y-87087323D02*
X158283220Y-86992085D01*
X158283220Y-86992085D02*
X158330839Y-86801609D01*
X158330839Y-86801609D02*
X158330839Y-86658752D01*
X158330839Y-86658752D02*
X158283220Y-86468276D01*
X158283220Y-86468276D02*
X158235601Y-86373038D01*
X158235601Y-86373038D02*
X158140363Y-86277800D01*
X158140363Y-86277800D02*
X157997506Y-86230180D01*
X157997506Y-86230180D02*
X157902268Y-86230180D01*
X157902268Y-86230180D02*
X157759411Y-86277800D01*
X157759411Y-86277800D02*
X157711792Y-86325419D01*
X157711792Y-86325419D02*
X157711792Y-86658752D01*
X157711792Y-86658752D02*
X157902268Y-86658752D01*
X157283220Y-86230180D02*
X157283220Y-87230180D01*
X157283220Y-87230180D02*
X156711792Y-86230180D01*
X156711792Y-86230180D02*
X156711792Y-87230180D01*
X156235601Y-86230180D02*
X156235601Y-87230180D01*
X156235601Y-87230180D02*
X155997506Y-87230180D01*
X155997506Y-87230180D02*
X155854649Y-87182561D01*
X155854649Y-87182561D02*
X155759411Y-87087323D01*
X155759411Y-87087323D02*
X155711792Y-86992085D01*
X155711792Y-86992085D02*
X155664173Y-86801609D01*
X155664173Y-86801609D02*
X155664173Y-86658752D01*
X155664173Y-86658752D02*
X155711792Y-86468276D01*
X155711792Y-86468276D02*
X155759411Y-86373038D01*
X155759411Y-86373038D02*
X155854649Y-86277800D01*
X155854649Y-86277800D02*
X155997506Y-86230180D01*
X155997506Y-86230180D02*
X156235601Y-86230180D01*
X158583220Y-89301133D02*
X157821316Y-89301133D01*
X158202268Y-88920180D02*
X158202268Y-89682085D01*
X157440363Y-89920180D02*
X156821316Y-89920180D01*
X156821316Y-89920180D02*
X157154649Y-89539228D01*
X157154649Y-89539228D02*
X157011792Y-89539228D01*
X157011792Y-89539228D02*
X156916554Y-89491609D01*
X156916554Y-89491609D02*
X156868935Y-89443990D01*
X156868935Y-89443990D02*
X156821316Y-89348752D01*
X156821316Y-89348752D02*
X156821316Y-89110657D01*
X156821316Y-89110657D02*
X156868935Y-89015419D01*
X156868935Y-89015419D02*
X156916554Y-88967800D01*
X156916554Y-88967800D02*
X157011792Y-88920180D01*
X157011792Y-88920180D02*
X157297506Y-88920180D01*
X157297506Y-88920180D02*
X157392744Y-88967800D01*
X157392744Y-88967800D02*
X157440363Y-89015419D01*
X156392744Y-89015419D02*
X156345125Y-88967800D01*
X156345125Y-88967800D02*
X156392744Y-88920180D01*
X156392744Y-88920180D02*
X156440363Y-88967800D01*
X156440363Y-88967800D02*
X156392744Y-89015419D01*
X156392744Y-89015419D02*
X156392744Y-88920180D01*
X156011792Y-89920180D02*
X155392745Y-89920180D01*
X155392745Y-89920180D02*
X155726078Y-89539228D01*
X155726078Y-89539228D02*
X155583221Y-89539228D01*
X155583221Y-89539228D02*
X155487983Y-89491609D01*
X155487983Y-89491609D02*
X155440364Y-89443990D01*
X155440364Y-89443990D02*
X155392745Y-89348752D01*
X155392745Y-89348752D02*
X155392745Y-89110657D01*
X155392745Y-89110657D02*
X155440364Y-89015419D01*
X155440364Y-89015419D02*
X155487983Y-88967800D01*
X155487983Y-88967800D02*
X155583221Y-88920180D01*
X155583221Y-88920180D02*
X155868935Y-88920180D01*
X155868935Y-88920180D02*
X155964173Y-88967800D01*
X155964173Y-88967800D02*
X156011792Y-89015419D01*
X155107030Y-89920180D02*
X154773697Y-88920180D01*
X154773697Y-88920180D02*
X154440364Y-89920180D01*
X146419411Y-94632561D02*
X146514649Y-94680180D01*
X146514649Y-94680180D02*
X146657506Y-94680180D01*
X146657506Y-94680180D02*
X146800363Y-94632561D01*
X146800363Y-94632561D02*
X146895601Y-94537323D01*
X146895601Y-94537323D02*
X146943220Y-94442085D01*
X146943220Y-94442085D02*
X146990839Y-94251609D01*
X146990839Y-94251609D02*
X146990839Y-94108752D01*
X146990839Y-94108752D02*
X146943220Y-93918276D01*
X146943220Y-93918276D02*
X146895601Y-93823038D01*
X146895601Y-93823038D02*
X146800363Y-93727800D01*
X146800363Y-93727800D02*
X146657506Y-93680180D01*
X146657506Y-93680180D02*
X146562268Y-93680180D01*
X146562268Y-93680180D02*
X146419411Y-93727800D01*
X146419411Y-93727800D02*
X146371792Y-93775419D01*
X146371792Y-93775419D02*
X146371792Y-94108752D01*
X146371792Y-94108752D02*
X146562268Y-94108752D01*
X145943220Y-93680180D02*
X145943220Y-94680180D01*
X145943220Y-94680180D02*
X145562268Y-94680180D01*
X145562268Y-94680180D02*
X145467030Y-94632561D01*
X145467030Y-94632561D02*
X145419411Y-94584942D01*
X145419411Y-94584942D02*
X145371792Y-94489704D01*
X145371792Y-94489704D02*
X145371792Y-94346847D01*
X145371792Y-94346847D02*
X145419411Y-94251609D01*
X145419411Y-94251609D02*
X145467030Y-94203990D01*
X145467030Y-94203990D02*
X145562268Y-94156371D01*
X145562268Y-94156371D02*
X145943220Y-94156371D01*
X145038458Y-94680180D02*
X144419411Y-94680180D01*
X144419411Y-94680180D02*
X144752744Y-94299228D01*
X144752744Y-94299228D02*
X144609887Y-94299228D01*
X144609887Y-94299228D02*
X144514649Y-94251609D01*
X144514649Y-94251609D02*
X144467030Y-94203990D01*
X144467030Y-94203990D02*
X144419411Y-94108752D01*
X144419411Y-94108752D02*
X144419411Y-93870657D01*
X144419411Y-93870657D02*
X144467030Y-93775419D01*
X144467030Y-93775419D02*
X144514649Y-93727800D01*
X144514649Y-93727800D02*
X144609887Y-93680180D01*
X144609887Y-93680180D02*
X144895601Y-93680180D01*
X144895601Y-93680180D02*
X144990839Y-93727800D01*
X144990839Y-93727800D02*
X145038458Y-93775419D01*
X143705125Y-93299228D02*
X143752744Y-93346847D01*
X143752744Y-93346847D02*
X143847982Y-93489704D01*
X143847982Y-93489704D02*
X143895601Y-93584942D01*
X143895601Y-93584942D02*
X143943220Y-93727800D01*
X143943220Y-93727800D02*
X143990839Y-93965895D01*
X143990839Y-93965895D02*
X143990839Y-94156371D01*
X143990839Y-94156371D02*
X143943220Y-94394466D01*
X143943220Y-94394466D02*
X143895601Y-94537323D01*
X143895601Y-94537323D02*
X143847982Y-94632561D01*
X143847982Y-94632561D02*
X143752744Y-94775419D01*
X143752744Y-94775419D02*
X143705125Y-94823038D01*
X142800363Y-93680180D02*
X143371791Y-93680180D01*
X143086077Y-93680180D02*
X143086077Y-94680180D01*
X143086077Y-94680180D02*
X143181315Y-94537323D01*
X143181315Y-94537323D02*
X143276553Y-94442085D01*
X143276553Y-94442085D02*
X143371791Y-94394466D01*
X142467029Y-93299228D02*
X142419410Y-93346847D01*
X142419410Y-93346847D02*
X142324172Y-93489704D01*
X142324172Y-93489704D02*
X142276553Y-93584942D01*
X142276553Y-93584942D02*
X142228934Y-93727800D01*
X142228934Y-93727800D02*
X142181315Y-93965895D01*
X142181315Y-93965895D02*
X142181315Y-94156371D01*
X142181315Y-94156371D02*
X142228934Y-94394466D01*
X142228934Y-94394466D02*
X142276553Y-94537323D01*
X142276553Y-94537323D02*
X142324172Y-94632561D01*
X142324172Y-94632561D02*
X142419410Y-94775419D01*
X142419410Y-94775419D02*
X142467029Y-94823038D01*
X140990839Y-94727800D02*
X141847981Y-93442085D01*
X140705124Y-93727800D02*
X140562267Y-93680180D01*
X140562267Y-93680180D02*
X140324172Y-93680180D01*
X140324172Y-93680180D02*
X140228934Y-93727800D01*
X140228934Y-93727800D02*
X140181315Y-93775419D01*
X140181315Y-93775419D02*
X140133696Y-93870657D01*
X140133696Y-93870657D02*
X140133696Y-93965895D01*
X140133696Y-93965895D02*
X140181315Y-94061133D01*
X140181315Y-94061133D02*
X140228934Y-94108752D01*
X140228934Y-94108752D02*
X140324172Y-94156371D01*
X140324172Y-94156371D02*
X140514648Y-94203990D01*
X140514648Y-94203990D02*
X140609886Y-94251609D01*
X140609886Y-94251609D02*
X140657505Y-94299228D01*
X140657505Y-94299228D02*
X140705124Y-94394466D01*
X140705124Y-94394466D02*
X140705124Y-94489704D01*
X140705124Y-94489704D02*
X140657505Y-94584942D01*
X140657505Y-94584942D02*
X140609886Y-94632561D01*
X140609886Y-94632561D02*
X140514648Y-94680180D01*
X140514648Y-94680180D02*
X140276553Y-94680180D01*
X140276553Y-94680180D02*
X140133696Y-94632561D01*
X139133696Y-93775419D02*
X139181315Y-93727800D01*
X139181315Y-93727800D02*
X139324172Y-93680180D01*
X139324172Y-93680180D02*
X139419410Y-93680180D01*
X139419410Y-93680180D02*
X139562267Y-93727800D01*
X139562267Y-93727800D02*
X139657505Y-93823038D01*
X139657505Y-93823038D02*
X139705124Y-93918276D01*
X139705124Y-93918276D02*
X139752743Y-94108752D01*
X139752743Y-94108752D02*
X139752743Y-94251609D01*
X139752743Y-94251609D02*
X139705124Y-94442085D01*
X139705124Y-94442085D02*
X139657505Y-94537323D01*
X139657505Y-94537323D02*
X139562267Y-94632561D01*
X139562267Y-94632561D02*
X139419410Y-94680180D01*
X139419410Y-94680180D02*
X139324172Y-94680180D01*
X139324172Y-94680180D02*
X139181315Y-94632561D01*
X139181315Y-94632561D02*
X139133696Y-94584942D01*
X138228934Y-93680180D02*
X138705124Y-93680180D01*
X138705124Y-93680180D02*
X138705124Y-94680180D01*
D11*
X147762081Y-85426752D02*
X149190652Y-85426752D01*
X148476366Y-85426752D02*
X148476366Y-87926752D01*
X148476366Y-87926752D02*
X148714462Y-87569609D01*
X148714462Y-87569609D02*
X148952557Y-87331514D01*
X148952557Y-87331514D02*
X149190652Y-87212466D01*
D10*
X141093220Y-89081133D02*
X140331316Y-89081133D01*
X140712268Y-88700180D02*
X140712268Y-89462085D01*
X139378935Y-89700180D02*
X139855125Y-89700180D01*
X139855125Y-89700180D02*
X139902744Y-89223990D01*
X139902744Y-89223990D02*
X139855125Y-89271609D01*
X139855125Y-89271609D02*
X139759887Y-89319228D01*
X139759887Y-89319228D02*
X139521792Y-89319228D01*
X139521792Y-89319228D02*
X139426554Y-89271609D01*
X139426554Y-89271609D02*
X139378935Y-89223990D01*
X139378935Y-89223990D02*
X139331316Y-89128752D01*
X139331316Y-89128752D02*
X139331316Y-88890657D01*
X139331316Y-88890657D02*
X139378935Y-88795419D01*
X139378935Y-88795419D02*
X139426554Y-88747800D01*
X139426554Y-88747800D02*
X139521792Y-88700180D01*
X139521792Y-88700180D02*
X139759887Y-88700180D01*
X139759887Y-88700180D02*
X139855125Y-88747800D01*
X139855125Y-88747800D02*
X139902744Y-88795419D01*
X139045601Y-89700180D02*
X138712268Y-88700180D01*
X138712268Y-88700180D02*
X138378935Y-89700180D01*
X157501792Y-101160180D02*
X157835125Y-101636371D01*
X158073220Y-101160180D02*
X158073220Y-102160180D01*
X158073220Y-102160180D02*
X157692268Y-102160180D01*
X157692268Y-102160180D02*
X157597030Y-102112561D01*
X157597030Y-102112561D02*
X157549411Y-102064942D01*
X157549411Y-102064942D02*
X157501792Y-101969704D01*
X157501792Y-101969704D02*
X157501792Y-101826847D01*
X157501792Y-101826847D02*
X157549411Y-101731609D01*
X157549411Y-101731609D02*
X157597030Y-101683990D01*
X157597030Y-101683990D02*
X157692268Y-101636371D01*
X157692268Y-101636371D02*
X158073220Y-101636371D01*
X157120839Y-101207800D02*
X156977982Y-101160180D01*
X156977982Y-101160180D02*
X156739887Y-101160180D01*
X156739887Y-101160180D02*
X156644649Y-101207800D01*
X156644649Y-101207800D02*
X156597030Y-101255419D01*
X156597030Y-101255419D02*
X156549411Y-101350657D01*
X156549411Y-101350657D02*
X156549411Y-101445895D01*
X156549411Y-101445895D02*
X156597030Y-101541133D01*
X156597030Y-101541133D02*
X156644649Y-101588752D01*
X156644649Y-101588752D02*
X156739887Y-101636371D01*
X156739887Y-101636371D02*
X156930363Y-101683990D01*
X156930363Y-101683990D02*
X157025601Y-101731609D01*
X157025601Y-101731609D02*
X157073220Y-101779228D01*
X157073220Y-101779228D02*
X157120839Y-101874466D01*
X157120839Y-101874466D02*
X157120839Y-101969704D01*
X157120839Y-101969704D02*
X157073220Y-102064942D01*
X157073220Y-102064942D02*
X157025601Y-102112561D01*
X157025601Y-102112561D02*
X156930363Y-102160180D01*
X156930363Y-102160180D02*
X156692268Y-102160180D01*
X156692268Y-102160180D02*
X156549411Y-102112561D01*
X156263696Y-102160180D02*
X155692268Y-102160180D01*
X155977982Y-101160180D02*
X155977982Y-102160180D01*
X154644649Y-102207800D02*
X155501791Y-100922085D01*
X153787506Y-102112561D02*
X153882744Y-102160180D01*
X153882744Y-102160180D02*
X154025601Y-102160180D01*
X154025601Y-102160180D02*
X154168458Y-102112561D01*
X154168458Y-102112561D02*
X154263696Y-102017323D01*
X154263696Y-102017323D02*
X154311315Y-101922085D01*
X154311315Y-101922085D02*
X154358934Y-101731609D01*
X154358934Y-101731609D02*
X154358934Y-101588752D01*
X154358934Y-101588752D02*
X154311315Y-101398276D01*
X154311315Y-101398276D02*
X154263696Y-101303038D01*
X154263696Y-101303038D02*
X154168458Y-101207800D01*
X154168458Y-101207800D02*
X154025601Y-101160180D01*
X154025601Y-101160180D02*
X153930363Y-101160180D01*
X153930363Y-101160180D02*
X153787506Y-101207800D01*
X153787506Y-101207800D02*
X153739887Y-101255419D01*
X153739887Y-101255419D02*
X153739887Y-101588752D01*
X153739887Y-101588752D02*
X153930363Y-101588752D01*
X153311315Y-101160180D02*
X153311315Y-102160180D01*
X153311315Y-102160180D02*
X152930363Y-102160180D01*
X152930363Y-102160180D02*
X152835125Y-102112561D01*
X152835125Y-102112561D02*
X152787506Y-102064942D01*
X152787506Y-102064942D02*
X152739887Y-101969704D01*
X152739887Y-101969704D02*
X152739887Y-101826847D01*
X152739887Y-101826847D02*
X152787506Y-101731609D01*
X152787506Y-101731609D02*
X152835125Y-101683990D01*
X152835125Y-101683990D02*
X152930363Y-101636371D01*
X152930363Y-101636371D02*
X153311315Y-101636371D01*
X151882744Y-101826847D02*
X151882744Y-101160180D01*
X152120839Y-102207800D02*
X152358934Y-101493514D01*
X152358934Y-101493514D02*
X151739887Y-101493514D01*
X157589411Y-104812561D02*
X157684649Y-104860180D01*
X157684649Y-104860180D02*
X157827506Y-104860180D01*
X157827506Y-104860180D02*
X157970363Y-104812561D01*
X157970363Y-104812561D02*
X158065601Y-104717323D01*
X158065601Y-104717323D02*
X158113220Y-104622085D01*
X158113220Y-104622085D02*
X158160839Y-104431609D01*
X158160839Y-104431609D02*
X158160839Y-104288752D01*
X158160839Y-104288752D02*
X158113220Y-104098276D01*
X158113220Y-104098276D02*
X158065601Y-104003038D01*
X158065601Y-104003038D02*
X157970363Y-103907800D01*
X157970363Y-103907800D02*
X157827506Y-103860180D01*
X157827506Y-103860180D02*
X157732268Y-103860180D01*
X157732268Y-103860180D02*
X157589411Y-103907800D01*
X157589411Y-103907800D02*
X157541792Y-103955419D01*
X157541792Y-103955419D02*
X157541792Y-104288752D01*
X157541792Y-104288752D02*
X157732268Y-104288752D01*
X157113220Y-103860180D02*
X157113220Y-104860180D01*
X157113220Y-104860180D02*
X156732268Y-104860180D01*
X156732268Y-104860180D02*
X156637030Y-104812561D01*
X156637030Y-104812561D02*
X156589411Y-104764942D01*
X156589411Y-104764942D02*
X156541792Y-104669704D01*
X156541792Y-104669704D02*
X156541792Y-104526847D01*
X156541792Y-104526847D02*
X156589411Y-104431609D01*
X156589411Y-104431609D02*
X156637030Y-104383990D01*
X156637030Y-104383990D02*
X156732268Y-104336371D01*
X156732268Y-104336371D02*
X157113220Y-104336371D01*
X156160839Y-104764942D02*
X156113220Y-104812561D01*
X156113220Y-104812561D02*
X156017982Y-104860180D01*
X156017982Y-104860180D02*
X155779887Y-104860180D01*
X155779887Y-104860180D02*
X155684649Y-104812561D01*
X155684649Y-104812561D02*
X155637030Y-104764942D01*
X155637030Y-104764942D02*
X155589411Y-104669704D01*
X155589411Y-104669704D02*
X155589411Y-104574466D01*
X155589411Y-104574466D02*
X155637030Y-104431609D01*
X155637030Y-104431609D02*
X156208458Y-103860180D01*
X156208458Y-103860180D02*
X155589411Y-103860180D01*
X155208458Y-104764942D02*
X155160839Y-104812561D01*
X155160839Y-104812561D02*
X155065601Y-104860180D01*
X155065601Y-104860180D02*
X154827506Y-104860180D01*
X154827506Y-104860180D02*
X154732268Y-104812561D01*
X154732268Y-104812561D02*
X154684649Y-104764942D01*
X154684649Y-104764942D02*
X154637030Y-104669704D01*
X154637030Y-104669704D02*
X154637030Y-104574466D01*
X154637030Y-104574466D02*
X154684649Y-104431609D01*
X154684649Y-104431609D02*
X155256077Y-103860180D01*
X155256077Y-103860180D02*
X154637030Y-103860180D01*
X146579411Y-92192561D02*
X146674649Y-92240180D01*
X146674649Y-92240180D02*
X146817506Y-92240180D01*
X146817506Y-92240180D02*
X146960363Y-92192561D01*
X146960363Y-92192561D02*
X147055601Y-92097323D01*
X147055601Y-92097323D02*
X147103220Y-92002085D01*
X147103220Y-92002085D02*
X147150839Y-91811609D01*
X147150839Y-91811609D02*
X147150839Y-91668752D01*
X147150839Y-91668752D02*
X147103220Y-91478276D01*
X147103220Y-91478276D02*
X147055601Y-91383038D01*
X147055601Y-91383038D02*
X146960363Y-91287800D01*
X146960363Y-91287800D02*
X146817506Y-91240180D01*
X146817506Y-91240180D02*
X146722268Y-91240180D01*
X146722268Y-91240180D02*
X146579411Y-91287800D01*
X146579411Y-91287800D02*
X146531792Y-91335419D01*
X146531792Y-91335419D02*
X146531792Y-91668752D01*
X146531792Y-91668752D02*
X146722268Y-91668752D01*
X146103220Y-91240180D02*
X146103220Y-92240180D01*
X146103220Y-92240180D02*
X145722268Y-92240180D01*
X145722268Y-92240180D02*
X145627030Y-92192561D01*
X145627030Y-92192561D02*
X145579411Y-92144942D01*
X145579411Y-92144942D02*
X145531792Y-92049704D01*
X145531792Y-92049704D02*
X145531792Y-91906847D01*
X145531792Y-91906847D02*
X145579411Y-91811609D01*
X145579411Y-91811609D02*
X145627030Y-91763990D01*
X145627030Y-91763990D02*
X145722268Y-91716371D01*
X145722268Y-91716371D02*
X146103220Y-91716371D01*
X145150839Y-92144942D02*
X145103220Y-92192561D01*
X145103220Y-92192561D02*
X145007982Y-92240180D01*
X145007982Y-92240180D02*
X144769887Y-92240180D01*
X144769887Y-92240180D02*
X144674649Y-92192561D01*
X144674649Y-92192561D02*
X144627030Y-92144942D01*
X144627030Y-92144942D02*
X144579411Y-92049704D01*
X144579411Y-92049704D02*
X144579411Y-91954466D01*
X144579411Y-91954466D02*
X144627030Y-91811609D01*
X144627030Y-91811609D02*
X145198458Y-91240180D01*
X145198458Y-91240180D02*
X144579411Y-91240180D01*
X143865125Y-90859228D02*
X143912744Y-90906847D01*
X143912744Y-90906847D02*
X144007982Y-91049704D01*
X144007982Y-91049704D02*
X144055601Y-91144942D01*
X144055601Y-91144942D02*
X144103220Y-91287800D01*
X144103220Y-91287800D02*
X144150839Y-91525895D01*
X144150839Y-91525895D02*
X144150839Y-91716371D01*
X144150839Y-91716371D02*
X144103220Y-91954466D01*
X144103220Y-91954466D02*
X144055601Y-92097323D01*
X144055601Y-92097323D02*
X144007982Y-92192561D01*
X144007982Y-92192561D02*
X143912744Y-92335419D01*
X143912744Y-92335419D02*
X143865125Y-92383038D01*
X143293696Y-92240180D02*
X143198458Y-92240180D01*
X143198458Y-92240180D02*
X143103220Y-92192561D01*
X143103220Y-92192561D02*
X143055601Y-92144942D01*
X143055601Y-92144942D02*
X143007982Y-92049704D01*
X143007982Y-92049704D02*
X142960363Y-91859228D01*
X142960363Y-91859228D02*
X142960363Y-91621133D01*
X142960363Y-91621133D02*
X143007982Y-91430657D01*
X143007982Y-91430657D02*
X143055601Y-91335419D01*
X143055601Y-91335419D02*
X143103220Y-91287800D01*
X143103220Y-91287800D02*
X143198458Y-91240180D01*
X143198458Y-91240180D02*
X143293696Y-91240180D01*
X143293696Y-91240180D02*
X143388934Y-91287800D01*
X143388934Y-91287800D02*
X143436553Y-91335419D01*
X143436553Y-91335419D02*
X143484172Y-91430657D01*
X143484172Y-91430657D02*
X143531791Y-91621133D01*
X143531791Y-91621133D02*
X143531791Y-91859228D01*
X143531791Y-91859228D02*
X143484172Y-92049704D01*
X143484172Y-92049704D02*
X143436553Y-92144942D01*
X143436553Y-92144942D02*
X143388934Y-92192561D01*
X143388934Y-92192561D02*
X143293696Y-92240180D01*
X142627029Y-90859228D02*
X142579410Y-90906847D01*
X142579410Y-90906847D02*
X142484172Y-91049704D01*
X142484172Y-91049704D02*
X142436553Y-91144942D01*
X142436553Y-91144942D02*
X142388934Y-91287800D01*
X142388934Y-91287800D02*
X142341315Y-91525895D01*
X142341315Y-91525895D02*
X142341315Y-91716371D01*
X142341315Y-91716371D02*
X142388934Y-91954466D01*
X142388934Y-91954466D02*
X142436553Y-92097323D01*
X142436553Y-92097323D02*
X142484172Y-92192561D01*
X142484172Y-92192561D02*
X142579410Y-92335419D01*
X142579410Y-92335419D02*
X142627029Y-92383038D01*
X141150839Y-92287800D02*
X142007981Y-91002085D01*
X140865124Y-91287800D02*
X140722267Y-91240180D01*
X140722267Y-91240180D02*
X140484172Y-91240180D01*
X140484172Y-91240180D02*
X140388934Y-91287800D01*
X140388934Y-91287800D02*
X140341315Y-91335419D01*
X140341315Y-91335419D02*
X140293696Y-91430657D01*
X140293696Y-91430657D02*
X140293696Y-91525895D01*
X140293696Y-91525895D02*
X140341315Y-91621133D01*
X140341315Y-91621133D02*
X140388934Y-91668752D01*
X140388934Y-91668752D02*
X140484172Y-91716371D01*
X140484172Y-91716371D02*
X140674648Y-91763990D01*
X140674648Y-91763990D02*
X140769886Y-91811609D01*
X140769886Y-91811609D02*
X140817505Y-91859228D01*
X140817505Y-91859228D02*
X140865124Y-91954466D01*
X140865124Y-91954466D02*
X140865124Y-92049704D01*
X140865124Y-92049704D02*
X140817505Y-92144942D01*
X140817505Y-92144942D02*
X140769886Y-92192561D01*
X140769886Y-92192561D02*
X140674648Y-92240180D01*
X140674648Y-92240180D02*
X140436553Y-92240180D01*
X140436553Y-92240180D02*
X140293696Y-92192561D01*
X139865124Y-91240180D02*
X139865124Y-92240180D01*
X139865124Y-92240180D02*
X139627029Y-92240180D01*
X139627029Y-92240180D02*
X139484172Y-92192561D01*
X139484172Y-92192561D02*
X139388934Y-92097323D01*
X139388934Y-92097323D02*
X139341315Y-92002085D01*
X139341315Y-92002085D02*
X139293696Y-91811609D01*
X139293696Y-91811609D02*
X139293696Y-91668752D01*
X139293696Y-91668752D02*
X139341315Y-91478276D01*
X139341315Y-91478276D02*
X139388934Y-91383038D01*
X139388934Y-91383038D02*
X139484172Y-91287800D01*
X139484172Y-91287800D02*
X139627029Y-91240180D01*
X139627029Y-91240180D02*
X139865124Y-91240180D01*
X138912743Y-91525895D02*
X138436553Y-91525895D01*
X139007981Y-91240180D02*
X138674648Y-92240180D01*
X138674648Y-92240180D02*
X138341315Y-91240180D01*
X157501792Y-99015419D02*
X157549411Y-98967800D01*
X157549411Y-98967800D02*
X157692268Y-98920180D01*
X157692268Y-98920180D02*
X157787506Y-98920180D01*
X157787506Y-98920180D02*
X157930363Y-98967800D01*
X157930363Y-98967800D02*
X158025601Y-99063038D01*
X158025601Y-99063038D02*
X158073220Y-99158276D01*
X158073220Y-99158276D02*
X158120839Y-99348752D01*
X158120839Y-99348752D02*
X158120839Y-99491609D01*
X158120839Y-99491609D02*
X158073220Y-99682085D01*
X158073220Y-99682085D02*
X158025601Y-99777323D01*
X158025601Y-99777323D02*
X157930363Y-99872561D01*
X157930363Y-99872561D02*
X157787506Y-99920180D01*
X157787506Y-99920180D02*
X157692268Y-99920180D01*
X157692268Y-99920180D02*
X157549411Y-99872561D01*
X157549411Y-99872561D02*
X157501792Y-99824942D01*
X157120839Y-98967800D02*
X156977982Y-98920180D01*
X156977982Y-98920180D02*
X156739887Y-98920180D01*
X156739887Y-98920180D02*
X156644649Y-98967800D01*
X156644649Y-98967800D02*
X156597030Y-99015419D01*
X156597030Y-99015419D02*
X156549411Y-99110657D01*
X156549411Y-99110657D02*
X156549411Y-99205895D01*
X156549411Y-99205895D02*
X156597030Y-99301133D01*
X156597030Y-99301133D02*
X156644649Y-99348752D01*
X156644649Y-99348752D02*
X156739887Y-99396371D01*
X156739887Y-99396371D02*
X156930363Y-99443990D01*
X156930363Y-99443990D02*
X157025601Y-99491609D01*
X157025601Y-99491609D02*
X157073220Y-99539228D01*
X157073220Y-99539228D02*
X157120839Y-99634466D01*
X157120839Y-99634466D02*
X157120839Y-99729704D01*
X157120839Y-99729704D02*
X157073220Y-99824942D01*
X157073220Y-99824942D02*
X157025601Y-99872561D01*
X157025601Y-99872561D02*
X156930363Y-99920180D01*
X156930363Y-99920180D02*
X156692268Y-99920180D01*
X156692268Y-99920180D02*
X156549411Y-99872561D01*
X155406554Y-99967800D02*
X156263696Y-98682085D01*
X154549411Y-99872561D02*
X154644649Y-99920180D01*
X154644649Y-99920180D02*
X154787506Y-99920180D01*
X154787506Y-99920180D02*
X154930363Y-99872561D01*
X154930363Y-99872561D02*
X155025601Y-99777323D01*
X155025601Y-99777323D02*
X155073220Y-99682085D01*
X155073220Y-99682085D02*
X155120839Y-99491609D01*
X155120839Y-99491609D02*
X155120839Y-99348752D01*
X155120839Y-99348752D02*
X155073220Y-99158276D01*
X155073220Y-99158276D02*
X155025601Y-99063038D01*
X155025601Y-99063038D02*
X154930363Y-98967800D01*
X154930363Y-98967800D02*
X154787506Y-98920180D01*
X154787506Y-98920180D02*
X154692268Y-98920180D01*
X154692268Y-98920180D02*
X154549411Y-98967800D01*
X154549411Y-98967800D02*
X154501792Y-99015419D01*
X154501792Y-99015419D02*
X154501792Y-99348752D01*
X154501792Y-99348752D02*
X154692268Y-99348752D01*
X154073220Y-98920180D02*
X154073220Y-99920180D01*
X154073220Y-99920180D02*
X153692268Y-99920180D01*
X153692268Y-99920180D02*
X153597030Y-99872561D01*
X153597030Y-99872561D02*
X153549411Y-99824942D01*
X153549411Y-99824942D02*
X153501792Y-99729704D01*
X153501792Y-99729704D02*
X153501792Y-99586847D01*
X153501792Y-99586847D02*
X153549411Y-99491609D01*
X153549411Y-99491609D02*
X153597030Y-99443990D01*
X153597030Y-99443990D02*
X153692268Y-99396371D01*
X153692268Y-99396371D02*
X154073220Y-99396371D01*
X152930363Y-99491609D02*
X153025601Y-99539228D01*
X153025601Y-99539228D02*
X153073220Y-99586847D01*
X153073220Y-99586847D02*
X153120839Y-99682085D01*
X153120839Y-99682085D02*
X153120839Y-99729704D01*
X153120839Y-99729704D02*
X153073220Y-99824942D01*
X153073220Y-99824942D02*
X153025601Y-99872561D01*
X153025601Y-99872561D02*
X152930363Y-99920180D01*
X152930363Y-99920180D02*
X152739887Y-99920180D01*
X152739887Y-99920180D02*
X152644649Y-99872561D01*
X152644649Y-99872561D02*
X152597030Y-99824942D01*
X152597030Y-99824942D02*
X152549411Y-99729704D01*
X152549411Y-99729704D02*
X152549411Y-99682085D01*
X152549411Y-99682085D02*
X152597030Y-99586847D01*
X152597030Y-99586847D02*
X152644649Y-99539228D01*
X152644649Y-99539228D02*
X152739887Y-99491609D01*
X152739887Y-99491609D02*
X152930363Y-99491609D01*
X152930363Y-99491609D02*
X153025601Y-99443990D01*
X153025601Y-99443990D02*
X153073220Y-99396371D01*
X153073220Y-99396371D02*
X153120839Y-99301133D01*
X153120839Y-99301133D02*
X153120839Y-99110657D01*
X153120839Y-99110657D02*
X153073220Y-99015419D01*
X153073220Y-99015419D02*
X153025601Y-98967800D01*
X153025601Y-98967800D02*
X152930363Y-98920180D01*
X152930363Y-98920180D02*
X152739887Y-98920180D01*
X152739887Y-98920180D02*
X152644649Y-98967800D01*
X152644649Y-98967800D02*
X152597030Y-99015419D01*
X152597030Y-99015419D02*
X152549411Y-99110657D01*
X152549411Y-99110657D02*
X152549411Y-99301133D01*
X152549411Y-99301133D02*
X152597030Y-99396371D01*
X152597030Y-99396371D02*
X152644649Y-99443990D01*
X152644649Y-99443990D02*
X152739887Y-99491609D01*
X158300839Y-96327800D02*
X158157982Y-96280180D01*
X158157982Y-96280180D02*
X157919887Y-96280180D01*
X157919887Y-96280180D02*
X157824649Y-96327800D01*
X157824649Y-96327800D02*
X157777030Y-96375419D01*
X157777030Y-96375419D02*
X157729411Y-96470657D01*
X157729411Y-96470657D02*
X157729411Y-96565895D01*
X157729411Y-96565895D02*
X157777030Y-96661133D01*
X157777030Y-96661133D02*
X157824649Y-96708752D01*
X157824649Y-96708752D02*
X157919887Y-96756371D01*
X157919887Y-96756371D02*
X158110363Y-96803990D01*
X158110363Y-96803990D02*
X158205601Y-96851609D01*
X158205601Y-96851609D02*
X158253220Y-96899228D01*
X158253220Y-96899228D02*
X158300839Y-96994466D01*
X158300839Y-96994466D02*
X158300839Y-97089704D01*
X158300839Y-97089704D02*
X158253220Y-97184942D01*
X158253220Y-97184942D02*
X158205601Y-97232561D01*
X158205601Y-97232561D02*
X158110363Y-97280180D01*
X158110363Y-97280180D02*
X157872268Y-97280180D01*
X157872268Y-97280180D02*
X157729411Y-97232561D01*
X156729411Y-96375419D02*
X156777030Y-96327800D01*
X156777030Y-96327800D02*
X156919887Y-96280180D01*
X156919887Y-96280180D02*
X157015125Y-96280180D01*
X157015125Y-96280180D02*
X157157982Y-96327800D01*
X157157982Y-96327800D02*
X157253220Y-96423038D01*
X157253220Y-96423038D02*
X157300839Y-96518276D01*
X157300839Y-96518276D02*
X157348458Y-96708752D01*
X157348458Y-96708752D02*
X157348458Y-96851609D01*
X157348458Y-96851609D02*
X157300839Y-97042085D01*
X157300839Y-97042085D02*
X157253220Y-97137323D01*
X157253220Y-97137323D02*
X157157982Y-97232561D01*
X157157982Y-97232561D02*
X157015125Y-97280180D01*
X157015125Y-97280180D02*
X156919887Y-97280180D01*
X156919887Y-97280180D02*
X156777030Y-97232561D01*
X156777030Y-97232561D02*
X156729411Y-97184942D01*
X156300839Y-96280180D02*
X156300839Y-97280180D01*
X155729411Y-96280180D02*
X156157982Y-96851609D01*
X155729411Y-97280180D02*
X156300839Y-96708752D01*
X154586554Y-97327800D02*
X155443696Y-96042085D01*
X153729411Y-97232561D02*
X153824649Y-97280180D01*
X153824649Y-97280180D02*
X153967506Y-97280180D01*
X153967506Y-97280180D02*
X154110363Y-97232561D01*
X154110363Y-97232561D02*
X154205601Y-97137323D01*
X154205601Y-97137323D02*
X154253220Y-97042085D01*
X154253220Y-97042085D02*
X154300839Y-96851609D01*
X154300839Y-96851609D02*
X154300839Y-96708752D01*
X154300839Y-96708752D02*
X154253220Y-96518276D01*
X154253220Y-96518276D02*
X154205601Y-96423038D01*
X154205601Y-96423038D02*
X154110363Y-96327800D01*
X154110363Y-96327800D02*
X153967506Y-96280180D01*
X153967506Y-96280180D02*
X153872268Y-96280180D01*
X153872268Y-96280180D02*
X153729411Y-96327800D01*
X153729411Y-96327800D02*
X153681792Y-96375419D01*
X153681792Y-96375419D02*
X153681792Y-96708752D01*
X153681792Y-96708752D02*
X153872268Y-96708752D01*
X153253220Y-96280180D02*
X153253220Y-97280180D01*
X153253220Y-97280180D02*
X152872268Y-97280180D01*
X152872268Y-97280180D02*
X152777030Y-97232561D01*
X152777030Y-97232561D02*
X152729411Y-97184942D01*
X152729411Y-97184942D02*
X152681792Y-97089704D01*
X152681792Y-97089704D02*
X152681792Y-96946847D01*
X152681792Y-96946847D02*
X152729411Y-96851609D01*
X152729411Y-96851609D02*
X152777030Y-96803990D01*
X152777030Y-96803990D02*
X152872268Y-96756371D01*
X152872268Y-96756371D02*
X153253220Y-96756371D01*
X151729411Y-96280180D02*
X152300839Y-96280180D01*
X152015125Y-96280180D02*
X152015125Y-97280180D01*
X152015125Y-97280180D02*
X152110363Y-97137323D01*
X152110363Y-97137323D02*
X152205601Y-97042085D01*
X152205601Y-97042085D02*
X152300839Y-96994466D01*
X150777030Y-96280180D02*
X151348458Y-96280180D01*
X151062744Y-96280180D02*
X151062744Y-97280180D01*
X151062744Y-97280180D02*
X151157982Y-97137323D01*
X151157982Y-97137323D02*
X151253220Y-97042085D01*
X151253220Y-97042085D02*
X151348458Y-96994466D01*
X144959411Y-99662561D02*
X145054649Y-99710180D01*
X145054649Y-99710180D02*
X145197506Y-99710180D01*
X145197506Y-99710180D02*
X145340363Y-99662561D01*
X145340363Y-99662561D02*
X145435601Y-99567323D01*
X145435601Y-99567323D02*
X145483220Y-99472085D01*
X145483220Y-99472085D02*
X145530839Y-99281609D01*
X145530839Y-99281609D02*
X145530839Y-99138752D01*
X145530839Y-99138752D02*
X145483220Y-98948276D01*
X145483220Y-98948276D02*
X145435601Y-98853038D01*
X145435601Y-98853038D02*
X145340363Y-98757800D01*
X145340363Y-98757800D02*
X145197506Y-98710180D01*
X145197506Y-98710180D02*
X145102268Y-98710180D01*
X145102268Y-98710180D02*
X144959411Y-98757800D01*
X144959411Y-98757800D02*
X144911792Y-98805419D01*
X144911792Y-98805419D02*
X144911792Y-99138752D01*
X144911792Y-99138752D02*
X145102268Y-99138752D01*
X144483220Y-98710180D02*
X144483220Y-99710180D01*
X144483220Y-99710180D02*
X144102268Y-99710180D01*
X144102268Y-99710180D02*
X144007030Y-99662561D01*
X144007030Y-99662561D02*
X143959411Y-99614942D01*
X143959411Y-99614942D02*
X143911792Y-99519704D01*
X143911792Y-99519704D02*
X143911792Y-99376847D01*
X143911792Y-99376847D02*
X143959411Y-99281609D01*
X143959411Y-99281609D02*
X144007030Y-99233990D01*
X144007030Y-99233990D02*
X144102268Y-99186371D01*
X144102268Y-99186371D02*
X144483220Y-99186371D01*
X142959411Y-98710180D02*
X143530839Y-98710180D01*
X143245125Y-98710180D02*
X143245125Y-99710180D01*
X143245125Y-99710180D02*
X143340363Y-99567323D01*
X143340363Y-99567323D02*
X143435601Y-99472085D01*
X143435601Y-99472085D02*
X143530839Y-99424466D01*
X142054649Y-99710180D02*
X142530839Y-99710180D01*
X142530839Y-99710180D02*
X142578458Y-99233990D01*
X142578458Y-99233990D02*
X142530839Y-99281609D01*
X142530839Y-99281609D02*
X142435601Y-99329228D01*
X142435601Y-99329228D02*
X142197506Y-99329228D01*
X142197506Y-99329228D02*
X142102268Y-99281609D01*
X142102268Y-99281609D02*
X142054649Y-99233990D01*
X142054649Y-99233990D02*
X142007030Y-99138752D01*
X142007030Y-99138752D02*
X142007030Y-98900657D01*
X142007030Y-98900657D02*
X142054649Y-98805419D01*
X142054649Y-98805419D02*
X142102268Y-98757800D01*
X142102268Y-98757800D02*
X142197506Y-98710180D01*
X142197506Y-98710180D02*
X142435601Y-98710180D01*
X142435601Y-98710180D02*
X142530839Y-98757800D01*
X142530839Y-98757800D02*
X142578458Y-98805419D01*
X140864173Y-99757800D02*
X141721315Y-98472085D01*
X139959411Y-98710180D02*
X140292744Y-99186371D01*
X140530839Y-98710180D02*
X140530839Y-99710180D01*
X140530839Y-99710180D02*
X140149887Y-99710180D01*
X140149887Y-99710180D02*
X140054649Y-99662561D01*
X140054649Y-99662561D02*
X140007030Y-99614942D01*
X140007030Y-99614942D02*
X139959411Y-99519704D01*
X139959411Y-99519704D02*
X139959411Y-99376847D01*
X139959411Y-99376847D02*
X140007030Y-99281609D01*
X140007030Y-99281609D02*
X140054649Y-99233990D01*
X140054649Y-99233990D02*
X140149887Y-99186371D01*
X140149887Y-99186371D02*
X140530839Y-99186371D01*
X139626077Y-99710180D02*
X138959411Y-98710180D01*
X138959411Y-99710180D02*
X139626077Y-98710180D01*
X145709411Y-104862561D02*
X145804649Y-104910180D01*
X145804649Y-104910180D02*
X145947506Y-104910180D01*
X145947506Y-104910180D02*
X146090363Y-104862561D01*
X146090363Y-104862561D02*
X146185601Y-104767323D01*
X146185601Y-104767323D02*
X146233220Y-104672085D01*
X146233220Y-104672085D02*
X146280839Y-104481609D01*
X146280839Y-104481609D02*
X146280839Y-104338752D01*
X146280839Y-104338752D02*
X146233220Y-104148276D01*
X146233220Y-104148276D02*
X146185601Y-104053038D01*
X146185601Y-104053038D02*
X146090363Y-103957800D01*
X146090363Y-103957800D02*
X145947506Y-103910180D01*
X145947506Y-103910180D02*
X145852268Y-103910180D01*
X145852268Y-103910180D02*
X145709411Y-103957800D01*
X145709411Y-103957800D02*
X145661792Y-104005419D01*
X145661792Y-104005419D02*
X145661792Y-104338752D01*
X145661792Y-104338752D02*
X145852268Y-104338752D01*
X145233220Y-103910180D02*
X145233220Y-104910180D01*
X145233220Y-104910180D02*
X144852268Y-104910180D01*
X144852268Y-104910180D02*
X144757030Y-104862561D01*
X144757030Y-104862561D02*
X144709411Y-104814942D01*
X144709411Y-104814942D02*
X144661792Y-104719704D01*
X144661792Y-104719704D02*
X144661792Y-104576847D01*
X144661792Y-104576847D02*
X144709411Y-104481609D01*
X144709411Y-104481609D02*
X144757030Y-104433990D01*
X144757030Y-104433990D02*
X144852268Y-104386371D01*
X144852268Y-104386371D02*
X145233220Y-104386371D01*
X143709411Y-103910180D02*
X144280839Y-103910180D01*
X143995125Y-103910180D02*
X143995125Y-104910180D01*
X143995125Y-104910180D02*
X144090363Y-104767323D01*
X144090363Y-104767323D02*
X144185601Y-104672085D01*
X144185601Y-104672085D02*
X144280839Y-104624466D01*
X143137982Y-104481609D02*
X143233220Y-104529228D01*
X143233220Y-104529228D02*
X143280839Y-104576847D01*
X143280839Y-104576847D02*
X143328458Y-104672085D01*
X143328458Y-104672085D02*
X143328458Y-104719704D01*
X143328458Y-104719704D02*
X143280839Y-104814942D01*
X143280839Y-104814942D02*
X143233220Y-104862561D01*
X143233220Y-104862561D02*
X143137982Y-104910180D01*
X143137982Y-104910180D02*
X142947506Y-104910180D01*
X142947506Y-104910180D02*
X142852268Y-104862561D01*
X142852268Y-104862561D02*
X142804649Y-104814942D01*
X142804649Y-104814942D02*
X142757030Y-104719704D01*
X142757030Y-104719704D02*
X142757030Y-104672085D01*
X142757030Y-104672085D02*
X142804649Y-104576847D01*
X142804649Y-104576847D02*
X142852268Y-104529228D01*
X142852268Y-104529228D02*
X142947506Y-104481609D01*
X142947506Y-104481609D02*
X143137982Y-104481609D01*
X143137982Y-104481609D02*
X143233220Y-104433990D01*
X143233220Y-104433990D02*
X143280839Y-104386371D01*
X143280839Y-104386371D02*
X143328458Y-104291133D01*
X143328458Y-104291133D02*
X143328458Y-104100657D01*
X143328458Y-104100657D02*
X143280839Y-104005419D01*
X143280839Y-104005419D02*
X143233220Y-103957800D01*
X143233220Y-103957800D02*
X143137982Y-103910180D01*
X143137982Y-103910180D02*
X142947506Y-103910180D01*
X142947506Y-103910180D02*
X142852268Y-103957800D01*
X142852268Y-103957800D02*
X142804649Y-104005419D01*
X142804649Y-104005419D02*
X142757030Y-104100657D01*
X142757030Y-104100657D02*
X142757030Y-104291133D01*
X142757030Y-104291133D02*
X142804649Y-104386371D01*
X142804649Y-104386371D02*
X142852268Y-104433990D01*
X142852268Y-104433990D02*
X142947506Y-104481609D01*
X141614173Y-104957800D02*
X142471315Y-103672085D01*
X141280839Y-103910180D02*
X141280839Y-104910180D01*
X141280839Y-104910180D02*
X140899887Y-104910180D01*
X140899887Y-104910180D02*
X140804649Y-104862561D01*
X140804649Y-104862561D02*
X140757030Y-104814942D01*
X140757030Y-104814942D02*
X140709411Y-104719704D01*
X140709411Y-104719704D02*
X140709411Y-104576847D01*
X140709411Y-104576847D02*
X140757030Y-104481609D01*
X140757030Y-104481609D02*
X140804649Y-104433990D01*
X140804649Y-104433990D02*
X140899887Y-104386371D01*
X140899887Y-104386371D02*
X141280839Y-104386371D01*
X140376077Y-104910180D02*
X140137982Y-103910180D01*
X140137982Y-103910180D02*
X139947506Y-104624466D01*
X139947506Y-104624466D02*
X139757030Y-103910180D01*
X139757030Y-103910180D02*
X139518935Y-104910180D01*
X139137982Y-103910180D02*
X139137982Y-104910180D01*
X139137982Y-104910180D02*
X138804649Y-104195895D01*
X138804649Y-104195895D02*
X138471316Y-104910180D01*
X138471316Y-104910180D02*
X138471316Y-103910180D01*
X145119411Y-102372561D02*
X145214649Y-102420180D01*
X145214649Y-102420180D02*
X145357506Y-102420180D01*
X145357506Y-102420180D02*
X145500363Y-102372561D01*
X145500363Y-102372561D02*
X145595601Y-102277323D01*
X145595601Y-102277323D02*
X145643220Y-102182085D01*
X145643220Y-102182085D02*
X145690839Y-101991609D01*
X145690839Y-101991609D02*
X145690839Y-101848752D01*
X145690839Y-101848752D02*
X145643220Y-101658276D01*
X145643220Y-101658276D02*
X145595601Y-101563038D01*
X145595601Y-101563038D02*
X145500363Y-101467800D01*
X145500363Y-101467800D02*
X145357506Y-101420180D01*
X145357506Y-101420180D02*
X145262268Y-101420180D01*
X145262268Y-101420180D02*
X145119411Y-101467800D01*
X145119411Y-101467800D02*
X145071792Y-101515419D01*
X145071792Y-101515419D02*
X145071792Y-101848752D01*
X145071792Y-101848752D02*
X145262268Y-101848752D01*
X144643220Y-101420180D02*
X144643220Y-102420180D01*
X144643220Y-102420180D02*
X144262268Y-102420180D01*
X144262268Y-102420180D02*
X144167030Y-102372561D01*
X144167030Y-102372561D02*
X144119411Y-102324942D01*
X144119411Y-102324942D02*
X144071792Y-102229704D01*
X144071792Y-102229704D02*
X144071792Y-102086847D01*
X144071792Y-102086847D02*
X144119411Y-101991609D01*
X144119411Y-101991609D02*
X144167030Y-101943990D01*
X144167030Y-101943990D02*
X144262268Y-101896371D01*
X144262268Y-101896371D02*
X144643220Y-101896371D01*
X143119411Y-101420180D02*
X143690839Y-101420180D01*
X143405125Y-101420180D02*
X143405125Y-102420180D01*
X143405125Y-102420180D02*
X143500363Y-102277323D01*
X143500363Y-102277323D02*
X143595601Y-102182085D01*
X143595601Y-102182085D02*
X143690839Y-102134466D01*
X142786077Y-102420180D02*
X142119411Y-102420180D01*
X142119411Y-102420180D02*
X142547982Y-101420180D01*
X141024173Y-102467800D02*
X141881315Y-101182085D01*
X140690839Y-101420180D02*
X140690839Y-102420180D01*
X140214649Y-101420180D02*
X140214649Y-102420180D01*
X140214649Y-102420180D02*
X139643221Y-101420180D01*
X139643221Y-101420180D02*
X139643221Y-102420180D01*
X139309887Y-102420180D02*
X138738459Y-102420180D01*
X139024173Y-101420180D02*
X139024173Y-102420180D01*
X123314819Y-80651133D02*
X124029104Y-80651133D01*
X124029104Y-80651133D02*
X124171961Y-80698752D01*
X124171961Y-80698752D02*
X124267200Y-80793990D01*
X124267200Y-80793990D02*
X124314819Y-80936847D01*
X124314819Y-80936847D02*
X124314819Y-81032085D01*
X124314819Y-79651133D02*
X124314819Y-80222561D01*
X124314819Y-79936847D02*
X123314819Y-79936847D01*
X123314819Y-79936847D02*
X123457676Y-80032085D01*
X123457676Y-80032085D02*
X123552914Y-80127323D01*
X123552914Y-80127323D02*
X123600533Y-80222561D01*
D12*
X149124318Y-99239762D02*
X147854318Y-99239762D01*
X149003365Y-97909285D02*
X149063842Y-97969761D01*
X149063842Y-97969761D02*
X149124318Y-98151190D01*
X149124318Y-98151190D02*
X149124318Y-98272142D01*
X149124318Y-98272142D02*
X149063842Y-98453571D01*
X149063842Y-98453571D02*
X148942889Y-98574523D01*
X148942889Y-98574523D02*
X148821937Y-98635000D01*
X148821937Y-98635000D02*
X148580032Y-98695476D01*
X148580032Y-98695476D02*
X148398603Y-98695476D01*
X148398603Y-98695476D02*
X148156699Y-98635000D01*
X148156699Y-98635000D02*
X148035746Y-98574523D01*
X148035746Y-98574523D02*
X147914794Y-98453571D01*
X147914794Y-98453571D02*
X147854318Y-98272142D01*
X147854318Y-98272142D02*
X147854318Y-98151190D01*
X147854318Y-98151190D02*
X147914794Y-97969761D01*
X147914794Y-97969761D02*
X147975270Y-97909285D01*
X149124318Y-96699761D02*
X149124318Y-97425476D01*
X149124318Y-97062619D02*
X147854318Y-97062619D01*
X147854318Y-97062619D02*
X148035746Y-97183571D01*
X148035746Y-97183571D02*
X148156699Y-97304523D01*
X148156699Y-97304523D02*
X148217175Y-97425476D01*
%TO.C,J1*%
X122460000Y-72777800D02*
X173260000Y-72777800D01*
X122460000Y-77857800D02*
X122460000Y-72777800D01*
X173260000Y-72777800D02*
X173260000Y-77857800D01*
X173260000Y-77857800D02*
X122460000Y-77857800D01*
D13*
%TO.C,IC1*%
X135850000Y-86240000D02*
X135850000Y-112300000D01*
X135850000Y-112300000D02*
X161250000Y-112300000D01*
X138390000Y-83700000D02*
X135850000Y-86240000D01*
X161250000Y-83700000D02*
X138390000Y-83700000D01*
X161250000Y-111640000D02*
X161250000Y-83700000D01*
X161250000Y-112300000D02*
X161250000Y-111640000D01*
D14*
%TO.C,G\u002A\u002A\u002A*%
G36*
X147114582Y-111130439D02*
G01*
X147129333Y-111189666D01*
X147061560Y-111301915D01*
X147002333Y-111316666D01*
X146890085Y-111248894D01*
X146875333Y-111189666D01*
X146943106Y-111077418D01*
X147002333Y-111062666D01*
X147114582Y-111130439D01*
G37*
G36*
X147073569Y-109744740D02*
G01*
X147113163Y-109876022D01*
X147128403Y-110133435D01*
X147129333Y-110258333D01*
X147120855Y-110567023D01*
X147090559Y-110738595D01*
X147031156Y-110804637D01*
X147002333Y-110808666D01*
X146931097Y-110771926D01*
X146891504Y-110640644D01*
X146876263Y-110383232D01*
X146875333Y-110258333D01*
X146883812Y-109949643D01*
X146914108Y-109778072D01*
X146973510Y-109712030D01*
X147002333Y-109708000D01*
X147073569Y-109744740D01*
G37*
G36*
X145213205Y-109748529D02*
G01*
X145251669Y-109889966D01*
X145266057Y-110162088D01*
X145266666Y-110263201D01*
X145266666Y-110818403D01*
X144906833Y-110792368D01*
X144671914Y-110759987D01*
X144558067Y-110690029D01*
X144519945Y-110575833D01*
X144541769Y-110418849D01*
X144625778Y-110385333D01*
X144741409Y-110453528D01*
X144758666Y-110519389D01*
X144810329Y-110617400D01*
X144864500Y-110618567D01*
X144933023Y-110517164D01*
X144982340Y-110291920D01*
X144995924Y-110145845D01*
X145028749Y-109864561D01*
X145090021Y-109728870D01*
X145144091Y-109708000D01*
X145213205Y-109748529D01*
G37*
G36*
X144317741Y-110179349D02*
G01*
X144288502Y-110450804D01*
X144136574Y-110669435D01*
X143882716Y-110794141D01*
X143742666Y-110808666D01*
X143472983Y-110740956D01*
X143272975Y-110567515D01*
X143162946Y-110332882D01*
X143163027Y-110251277D01*
X143411745Y-110251277D01*
X143454830Y-110410551D01*
X143536880Y-110506118D01*
X143710196Y-110579672D01*
X143894452Y-110523625D01*
X144017914Y-110366519D01*
X144034068Y-110159815D01*
X143945225Y-109996452D01*
X143795710Y-109903839D01*
X143629849Y-109909386D01*
X143491967Y-110040500D01*
X143491645Y-110041100D01*
X143411745Y-110251277D01*
X143163027Y-110251277D01*
X143163195Y-110081595D01*
X143294025Y-109858192D01*
X143304833Y-109848122D01*
X143535937Y-109730498D01*
X143813495Y-109709441D01*
X144067965Y-109781233D01*
X144203532Y-109896172D01*
X144309863Y-110159815D01*
X144317741Y-110179349D01*
G37*
G36*
X146470206Y-109736786D02*
G01*
X146508518Y-109842070D01*
X146529084Y-110052238D01*
X146536387Y-110395677D01*
X146536666Y-110512333D01*
X146532121Y-110895752D01*
X146515498Y-111138394D01*
X146482313Y-111268647D01*
X146428086Y-111314898D01*
X146409666Y-111316666D01*
X146336941Y-111278315D01*
X146296662Y-111142225D01*
X146281110Y-110876843D01*
X146280185Y-110787500D01*
X146277703Y-110258333D01*
X146027378Y-110533500D01*
X145830015Y-110705379D01*
X145639923Y-110801269D01*
X145589918Y-110808666D01*
X145484219Y-110799751D01*
X145475750Y-110751675D01*
X145573553Y-110632444D01*
X145667679Y-110533500D01*
X145932577Y-110258333D01*
X145712417Y-110004333D01*
X145578936Y-109840474D01*
X145552694Y-109760582D01*
X145625296Y-109724917D01*
X145652215Y-109719347D01*
X145827145Y-109767095D01*
X146036975Y-109957769D01*
X146047419Y-109970149D01*
X146282666Y-110251937D01*
X146282666Y-109979968D01*
X146315564Y-109770656D01*
X146409666Y-109708000D01*
X146470206Y-109736786D01*
G37*
G36*
X148998974Y-109725152D02*
G01*
X149050065Y-109801553D01*
X149072121Y-109974620D01*
X149076666Y-110258333D01*
X149076666Y-110808666D01*
X148373933Y-110808666D01*
X147981452Y-110795886D01*
X147703173Y-110759884D01*
X147569600Y-110707067D01*
X147502152Y-110563360D01*
X147468344Y-110338468D01*
X147466774Y-110087523D01*
X147496041Y-109865660D01*
X147554741Y-109728013D01*
X147595000Y-109708000D01*
X147674865Y-109753319D01*
X147713873Y-109910227D01*
X147722000Y-110131333D01*
X147728862Y-110382577D01*
X147763885Y-110507917D01*
X147848720Y-110550656D01*
X147933666Y-110554666D01*
X148059289Y-110540941D01*
X148121958Y-110470896D01*
X148143328Y-110301227D01*
X148145333Y-110131333D01*
X148158929Y-109865115D01*
X148206001Y-109735089D01*
X148272333Y-109708000D01*
X148352199Y-109753319D01*
X148391206Y-109910227D01*
X148399333Y-110131333D01*
X148408248Y-110385250D01*
X148446090Y-110511888D01*
X148529500Y-110552855D01*
X148568666Y-110554666D01*
X148670233Y-110532378D01*
X148720889Y-110437776D01*
X148737275Y-110229250D01*
X148738000Y-110131333D01*
X148746915Y-109877416D01*
X148784756Y-109750778D01*
X148868167Y-109709811D01*
X148907333Y-109708000D01*
X148998974Y-109725152D01*
G37*
G36*
X146367032Y-107089039D02*
G01*
X146659351Y-107156347D01*
X146771828Y-107215134D01*
X146858321Y-107289194D01*
X146913390Y-107389061D01*
X146944030Y-107550925D01*
X146957234Y-107810977D01*
X146960000Y-108188801D01*
X146957651Y-108572859D01*
X146946484Y-108818337D01*
X146920316Y-108955968D01*
X146872967Y-109016484D01*
X146798255Y-109030619D01*
X146790666Y-109030666D01*
X146706574Y-109016630D01*
X146656044Y-108951898D01*
X146630661Y-108802538D01*
X146622012Y-108534618D01*
X146621333Y-108347767D01*
X146608312Y-107907423D01*
X146562536Y-107610681D01*
X146473939Y-107433334D01*
X146332452Y-107351178D01*
X146201069Y-107337333D01*
X145976987Y-107365828D01*
X145827091Y-107468123D01*
X145738228Y-107669430D01*
X145697245Y-107994964D01*
X145690000Y-108317047D01*
X145686798Y-108665214D01*
X145671934Y-108877330D01*
X145637519Y-108986639D01*
X145575667Y-109026382D01*
X145520666Y-109030666D01*
X145441964Y-109018521D01*
X145392293Y-108961143D01*
X145365039Y-108827123D01*
X145353592Y-108585049D01*
X145351333Y-108226333D01*
X145356080Y-107836824D01*
X145374814Y-107577741D01*
X145414274Y-107410332D01*
X145481200Y-107295843D01*
X145520666Y-107252666D01*
X145731430Y-107139187D01*
X146035638Y-107083982D01*
X146367032Y-107089039D01*
G37*
G36*
X144570033Y-107086756D02*
G01*
X144779637Y-107102266D01*
X144886693Y-107137726D01*
X144924567Y-107200998D01*
X144928000Y-107249105D01*
X144910902Y-107333672D01*
X144836784Y-107386259D01*
X144671406Y-107416805D01*
X144380529Y-107435251D01*
X144271833Y-107439605D01*
X143940061Y-107456270D01*
X143743238Y-107482087D01*
X143646985Y-107527225D01*
X143616923Y-107601851D01*
X143615666Y-107633666D01*
X143635768Y-107725385D01*
X143719924Y-107783909D01*
X143903907Y-107822683D01*
X144199685Y-107853120D01*
X144590993Y-107909787D01*
X144840053Y-108010886D01*
X144971851Y-108174269D01*
X145011372Y-108417786D01*
X145011370Y-108433015D01*
X144961709Y-108687699D01*
X144805487Y-108865718D01*
X144526539Y-108975496D01*
X144108696Y-109025454D01*
X143864155Y-109030666D01*
X143568132Y-109025284D01*
X143403721Y-109001349D01*
X143333342Y-108947181D01*
X143319333Y-108861333D01*
X143337256Y-108768203D01*
X143416389Y-108716889D01*
X143594775Y-108695124D01*
X143848500Y-108690703D01*
X144227841Y-108674024D01*
X144460999Y-108620420D01*
X144568761Y-108521169D01*
X144575696Y-108385521D01*
X144530410Y-108296074D01*
X144411704Y-108238996D01*
X144182619Y-108201810D01*
X143978749Y-108184000D01*
X143673555Y-108147306D01*
X143430047Y-108092801D01*
X143306599Y-108035982D01*
X143224509Y-107854418D01*
X143212378Y-107600617D01*
X143264293Y-107353177D01*
X143369937Y-107193816D01*
X143552415Y-107130572D01*
X143878641Y-107092927D01*
X144224515Y-107083333D01*
X144570033Y-107086756D01*
G37*
G36*
X149076666Y-108067617D02*
G01*
X149076666Y-108438000D01*
X149076666Y-109051901D01*
X148363188Y-109014453D01*
X147998486Y-108983084D01*
X147706604Y-108934697D01*
X147531880Y-108877043D01*
X147516521Y-108866469D01*
X147418187Y-108700871D01*
X147385846Y-108471332D01*
X147390969Y-108438000D01*
X147849000Y-108438000D01*
X147865740Y-108567440D01*
X147945348Y-108634993D01*
X148131908Y-108666692D01*
X148251166Y-108675472D01*
X148493388Y-108685709D01*
X148611374Y-108657856D01*
X148649816Y-108565524D01*
X148653333Y-108438000D01*
X148645228Y-108279950D01*
X148591117Y-108206183D01*
X148446308Y-108190308D01*
X148251166Y-108200528D01*
X148007272Y-108224988D01*
X147888625Y-108274500D01*
X147851143Y-108375095D01*
X147849000Y-108438000D01*
X147390969Y-108438000D01*
X147419581Y-108251821D01*
X147515683Y-108118347D01*
X147604413Y-108047427D01*
X147553586Y-107966857D01*
X147515683Y-107934440D01*
X147409057Y-107757189D01*
X147403085Y-107701499D01*
X147771061Y-107701499D01*
X147889861Y-107803730D01*
X148153685Y-107843891D01*
X148239058Y-107845333D01*
X148486910Y-107838116D01*
X148609301Y-107801568D01*
X148649963Y-107713347D01*
X148653333Y-107633666D01*
X148639297Y-107507258D01*
X148568101Y-107444692D01*
X148396108Y-107423783D01*
X148237055Y-107422000D01*
X147957364Y-107443209D01*
X147802179Y-107501839D01*
X147783861Y-107527833D01*
X147771061Y-107701499D01*
X147403085Y-107701499D01*
X147383677Y-107520509D01*
X147436521Y-107297879D01*
X147547100Y-107170979D01*
X147706924Y-107129423D01*
X147982320Y-107098523D01*
X148319604Y-107083837D01*
X148393767Y-107083333D01*
X149076666Y-107083333D01*
X149076666Y-107633666D01*
X149076666Y-108067617D01*
G37*
G36*
X155434004Y-107057553D02*
G01*
X155596000Y-107168000D01*
X155746176Y-107416283D01*
X155733220Y-107684541D01*
X155559088Y-107955077D01*
X155502942Y-108009869D01*
X155352378Y-108162877D01*
X155278608Y-108307146D01*
X155260482Y-108507635D01*
X155270109Y-108724878D01*
X155299666Y-109200231D01*
X154685833Y-109200115D01*
X154072000Y-109200000D01*
X154072000Y-109698125D01*
X154080128Y-109984516D01*
X154113293Y-110144410D01*
X154184664Y-110220228D01*
X154240314Y-110240265D01*
X154413526Y-110363601D01*
X154514426Y-110586506D01*
X154520248Y-110846626D01*
X154494756Y-110937185D01*
X154332327Y-111151237D01*
X154082264Y-111267515D01*
X153810729Y-111259101D01*
X153755200Y-111238080D01*
X153559051Y-111076207D01*
X153455888Y-110845264D01*
X153446720Y-110596062D01*
X153532557Y-110379414D01*
X153714406Y-110246131D01*
X153735373Y-110239999D01*
X153830904Y-110190620D01*
X153881717Y-110078208D01*
X153900875Y-109860449D01*
X153902666Y-109698125D01*
X153902666Y-109200000D01*
X152759666Y-109200000D01*
X151616666Y-109200000D01*
X151616666Y-109662688D01*
X151628559Y-109947187D01*
X151674391Y-110112179D01*
X151769389Y-110206451D01*
X151790053Y-110218169D01*
X151998900Y-110403755D01*
X152079312Y-110636301D01*
X152049124Y-110877454D01*
X151926173Y-111088863D01*
X151728295Y-111232176D01*
X151473328Y-111269040D01*
X151318815Y-111231423D01*
X151122608Y-111085187D01*
X151014336Y-110862872D01*
X150996064Y-110615909D01*
X151069857Y-110395731D01*
X151237780Y-110253768D01*
X151279019Y-110240265D01*
X151375071Y-110191092D01*
X151426168Y-110079579D01*
X151445480Y-109863306D01*
X151447333Y-109698125D01*
X151447333Y-109200000D01*
X150854666Y-109200000D01*
X150262000Y-109200000D01*
X150262000Y-108649666D01*
X150250037Y-108362084D01*
X150218348Y-108165190D01*
X150177333Y-108099333D01*
X150024595Y-108028643D01*
X149872949Y-107858801D01*
X149771120Y-107653152D01*
X149754000Y-107549000D01*
X149829440Y-107296707D01*
X150018960Y-107095425D01*
X150267357Y-107000358D01*
X150304333Y-106998666D01*
X150557132Y-107074229D01*
X150758057Y-107264532D01*
X150852929Y-107514997D01*
X150854666Y-107553043D01*
X150791842Y-107766274D01*
X150643000Y-107964918D01*
X150509102Y-108124640D01*
X150446129Y-108320954D01*
X150431333Y-108595875D01*
X150431333Y-109030666D01*
X151574333Y-109030666D01*
X152717333Y-109030666D01*
X152717333Y-108626187D01*
X152699223Y-108351977D01*
X152624017Y-108167781D01*
X152463333Y-107998827D01*
X152261278Y-107739782D01*
X152217689Y-107470824D01*
X152335006Y-107215877D01*
X152378666Y-107168000D01*
X152617861Y-107029060D01*
X152877366Y-107025676D01*
X153109934Y-107138134D01*
X153268315Y-107346717D01*
X153310000Y-107556639D01*
X153233103Y-107793250D01*
X153056000Y-107998827D01*
X152893784Y-108170008D01*
X152819556Y-108354903D01*
X152802000Y-108626187D01*
X152802000Y-109030666D01*
X153987333Y-109030666D01*
X155172666Y-109030666D01*
X155172666Y-108565000D01*
X155158748Y-108309985D01*
X155122844Y-108140843D01*
X155088000Y-108099333D01*
X154935262Y-108028643D01*
X154783615Y-107858801D01*
X154681787Y-107653152D01*
X154664666Y-107549000D01*
X154740107Y-107296707D01*
X154929627Y-107095425D01*
X155178024Y-107000358D01*
X155215000Y-106998666D01*
X155434004Y-107057553D01*
G37*
%TD*%
D15*
%TO.C,J1*%
X123730000Y-76587800D03*
X126270000Y-76587800D03*
X128810000Y-76587800D03*
X131350000Y-76587800D03*
X133890000Y-76587800D03*
X136430000Y-76587800D03*
X138970000Y-76587800D03*
X141510000Y-76587800D03*
X144050000Y-76587800D03*
X146590000Y-76587800D03*
X149130000Y-76587800D03*
X151670000Y-76587800D03*
X154210000Y-76587800D03*
X156750000Y-76587800D03*
X159290000Y-76587800D03*
X161830000Y-76587800D03*
X164370000Y-76587800D03*
X166910000Y-76587800D03*
X169450000Y-76587800D03*
X171990000Y-76587800D03*
D16*
X125000000Y-75317800D03*
X170720000Y-75317800D03*
D15*
X123730000Y-74047800D03*
X126270000Y-74047800D03*
X128810000Y-74047800D03*
X131350000Y-74047800D03*
X133890000Y-74047800D03*
X136430000Y-74047800D03*
X138970000Y-74047800D03*
X141510000Y-74047800D03*
X144050000Y-74047800D03*
X146590000Y-74047800D03*
X149130000Y-74047800D03*
X151670000Y-74047800D03*
X154210000Y-74047800D03*
X156750000Y-74047800D03*
X159290000Y-74047800D03*
X161830000Y-74047800D03*
X164370000Y-74047800D03*
X166910000Y-74047800D03*
X169450000Y-74047800D03*
X171990000Y-74047800D03*
%TD*%
M02*
