%TF.GenerationSoftware,KiCad,Pcbnew,8.0.2*%
%TF.CreationDate,2024-07-30T13:49:41+02:00*%
%TF.ProjectId,mikrobus_x1_hatPCB,6d696b72-6f62-4757-935f-78315f686174,rev?*%
%TF.SameCoordinates,Original*%
%TF.FileFunction,Copper,L1,Top*%
%TF.FilePolarity,Positive*%
%FSLAX46Y46*%
G04 Gerber Fmt 4.6, Leading zero omitted, Abs format (unit mm)*
G04 Created by KiCad (PCBNEW 8.0.2) date 2024-07-30 13:49:41*
%MOMM*%
%LPD*%
G01*
G04 APERTURE LIST*
%TA.AperFunction,SMDPad,CuDef*%
%ADD10R,0.889000X1.676400*%
%TD*%
%TA.AperFunction,ComponentPad*%
%ADD11R,1.445000X1.445000*%
%TD*%
%TA.AperFunction,ComponentPad*%
%ADD12C,1.445000*%
%TD*%
%TA.AperFunction,ViaPad*%
%ADD13C,0.600000*%
%TD*%
%TA.AperFunction,ViaPad*%
%ADD14C,0.900000*%
%TD*%
%TA.AperFunction,Conductor*%
%ADD15C,0.250000*%
%TD*%
G04 APERTURE END LIST*
D10*
%TO.P,J1,1,3.3V*%
%TO.N,3V3*%
X123730000Y-78035600D03*
%TO.P,J1,2,5V*%
%TO.N,5V*%
X123730000Y-72600000D03*
%TO.P,J1,3,BCM2_SDA*%
%TO.N,Net-(IC1-SDA)*%
X126270000Y-78035600D03*
%TO.P,J1,4,5V*%
%TO.N,5V*%
X126270000Y-72600000D03*
%TO.P,J1,5,BCM3_SCL*%
%TO.N,Net-(IC1-SCL)*%
X128810000Y-78035600D03*
%TO.P,J1,6,GND*%
%TO.N,GND*%
X128810000Y-72600000D03*
%TO.P,J1,7,BCM4_GPCLK0*%
%TO.N,Net-(IC1-RST)*%
X131350000Y-78035600D03*
%TO.P,J1,8,BCM14_TXD*%
%TO.N,Net-(IC1-TX)*%
X131350000Y-72600000D03*
%TO.P,J1,9,GND*%
%TO.N,GND*%
X133890000Y-78035600D03*
%TO.P,J1,10,BCM15_RXD*%
%TO.N,Net-(IC1-RX)*%
X133890000Y-72600000D03*
%TO.P,J1,11,BCM17*%
%TO.N,Net-(IC1-INT)*%
X136430000Y-78035600D03*
%TO.P,J1,12,BCM18_PCM_C*%
%TO.N,Net-(IC1-PWM)*%
X136430000Y-72600000D03*
%TO.P,J1,13,BCM27*%
%TO.N,unconnected-(J1-BCM27-Pad13)*%
X138970000Y-78035600D03*
%TO.P,J1,14,GND*%
%TO.N,GND*%
X138970000Y-72600000D03*
%TO.P,J1,15,BCM22*%
%TO.N,Net-(IC1-AN)*%
X141510000Y-78035600D03*
%TO.P,J1,16,BCM23*%
%TO.N,unconnected-(J1-BCM23-Pad16)*%
X141510000Y-72600000D03*
%TO.P,J1,17,3.3V*%
%TO.N,3V3*%
X144050000Y-78035600D03*
%TO.P,J1,18,BCM24*%
%TO.N,unconnected-(J1-BCM24-Pad18)*%
X144050000Y-72600000D03*
%TO.P,J1,19,BCM10_MOSI*%
%TO.N,Net-(IC1-MOSI)*%
X146590000Y-78035600D03*
%TO.P,J1,20,GND*%
%TO.N,GND*%
X146590000Y-72600000D03*
%TO.P,J1,21,BCM9_MISO*%
%TO.N,Net-(IC1-MISO)*%
X149130000Y-78035600D03*
%TO.P,J1,22,BCM25*%
%TO.N,unconnected-(J1-BCM25-Pad22)*%
X149130000Y-72600000D03*
%TO.P,J1,23,BCM11_SCLK*%
%TO.N,Net-(IC1-SCK)*%
X151670000Y-78035600D03*
%TO.P,J1,24,BCM8_CE0*%
%TO.N,Net-(IC1-CS)*%
X151670000Y-72600000D03*
%TO.P,J1,25,GND*%
%TO.N,GND*%
X154210000Y-78035600D03*
%TO.P,J1,26,BCM7_CE1*%
%TO.N,unconnected-(J1-BCM7_CE1-Pad26)*%
X154210000Y-72600000D03*
%TO.P,J1,27,BCM0_ID_SD*%
%TO.N,unconnected-(J1-BCM0_ID_SD-Pad27)*%
X156750000Y-78035600D03*
%TO.P,J1,28,BCM1_ID_SC*%
%TO.N,unconnected-(J1-BCM1_ID_SC-Pad28)*%
X156750000Y-72600000D03*
%TO.P,J1,29,BCM5*%
%TO.N,unconnected-(J1-BCM5-Pad29)*%
X159290000Y-78035600D03*
%TO.P,J1,30,GND*%
%TO.N,GND*%
X159290000Y-72600000D03*
%TO.P,J1,31,BCM6*%
%TO.N,unconnected-(J1-BCM6-Pad31)*%
X161830000Y-78035600D03*
%TO.P,J1,32,BCM12_PWM0*%
%TO.N,unconnected-(J1-BCM12_PWM0-Pad32)*%
X161830000Y-72600000D03*
%TO.P,J1,33,BCM13_PWM1*%
%TO.N,unconnected-(J1-BCM13_PWM1-Pad33)*%
X164370000Y-78035600D03*
%TO.P,J1,34,GND*%
%TO.N,GND*%
X164370000Y-72600000D03*
%TO.P,J1,35,BCM19_MISO_PCM_FS*%
%TO.N,unconnected-(J1-BCM19_MISO_PCM_FS-Pad35)*%
X166910000Y-78035600D03*
%TO.P,J1,36,BCM16*%
%TO.N,unconnected-(J1-BCM16-Pad36)*%
X166910000Y-72600000D03*
%TO.P,J1,37,BCM26*%
%TO.N,unconnected-(J1-BCM26-Pad37)*%
X169450000Y-78035600D03*
%TO.P,J1,38,BCM20_MOSI_PCM_DI*%
%TO.N,unconnected-(J1-BCM20_MOSI_PCM_DI-Pad38)*%
X169450000Y-72600000D03*
%TO.P,J1,39,GND*%
%TO.N,GND*%
X171990000Y-78035600D03*
%TO.P,J1,40,BCM21_SCLK_PCM_DO*%
%TO.N,unconnected-(J1-BCM21_SCLK_PCM_DO-Pad40)*%
X171990000Y-72600000D03*
%TD*%
D11*
%TO.P,IC1,1,AN*%
%TO.N,Net-(IC1-AN)*%
X159980000Y-104480000D03*
D12*
%TO.P,IC1,2,RST*%
%TO.N,Net-(IC1-RST)*%
X159980000Y-101940000D03*
%TO.P,IC1,3,CS*%
%TO.N,Net-(IC1-CS)*%
X159980000Y-99400000D03*
%TO.P,IC1,4,SCK*%
%TO.N,Net-(IC1-SCK)*%
X159980000Y-96860000D03*
%TO.P,IC1,5,MISO*%
%TO.N,Net-(IC1-MISO)*%
X159980000Y-94320000D03*
%TO.P,IC1,6,MOSI*%
%TO.N,Net-(IC1-MOSI)*%
X159980000Y-91780000D03*
%TO.P,IC1,7,+3.3V*%
%TO.N,3V3*%
X159980000Y-89240000D03*
%TO.P,IC1,8,GND_1*%
%TO.N,GND*%
X159980000Y-86700000D03*
%TO.P,IC1,9,PWM*%
%TO.N,Net-(IC1-PWM)*%
X137120000Y-104480000D03*
%TO.P,IC1,10,INT*%
%TO.N,Net-(IC1-INT)*%
X137120000Y-101940000D03*
%TO.P,IC1,11,RX*%
%TO.N,Net-(IC1-RX)*%
X137120000Y-99400000D03*
%TO.P,IC1,12,TX*%
%TO.N,Net-(IC1-TX)*%
X137120000Y-96860000D03*
%TO.P,IC1,13,SCL*%
%TO.N,Net-(IC1-SCL)*%
X137120000Y-94320000D03*
%TO.P,IC1,14,SDA*%
%TO.N,Net-(IC1-SDA)*%
X137120000Y-91780000D03*
%TO.P,IC1,15,+5V*%
%TO.N,5V*%
X137120000Y-89240000D03*
%TO.P,IC1,16,GND_2*%
%TO.N,GND*%
X137120000Y-86700000D03*
%TD*%
D13*
%TO.N,GND*%
X130560000Y-81090000D03*
D14*
X135090000Y-80880000D03*
D13*
%TO.N,3V3*%
X142800000Y-79350000D03*
X124180000Y-79460000D03*
%TO.N,Net-(IC1-RST)*%
X132670000Y-80470000D03*
X143170000Y-85240000D03*
%TD*%
D15*
%TO.N,Net-(IC1-PWM)*%
X137720000Y-73890000D02*
X136430000Y-72600000D01*
X137720000Y-79780000D02*
X137720000Y-73890000D01*
X141420000Y-100180000D02*
X141420000Y-83480000D01*
X141420000Y-83480000D02*
X137720000Y-79780000D01*
X137120000Y-104480000D02*
X141420000Y-100180000D01*
%TO.N,Net-(IC1-CS)*%
X153020000Y-79790000D02*
X153020000Y-73370000D01*
X160590000Y-82100000D02*
X155330000Y-82100000D01*
X155330000Y-82100000D02*
X153020000Y-79790000D01*
X163340000Y-84850000D02*
X160590000Y-82100000D01*
X163340000Y-96040000D02*
X163340000Y-84850000D01*
X153020000Y-73370000D02*
X152250000Y-72600000D01*
X152250000Y-72600000D02*
X151670000Y-72600000D01*
X159980000Y-99400000D02*
X163340000Y-96040000D01*
%TO.N,Net-(IC1-RX)*%
X135960000Y-79956396D02*
X139900000Y-83896396D01*
X139900000Y-96620000D02*
X137120000Y-99400000D01*
X135572400Y-74282400D02*
X135572400Y-78952400D01*
X135572400Y-78952400D02*
X135960000Y-79340000D01*
X139900000Y-83896396D02*
X139900000Y-96620000D01*
X133890000Y-72600000D02*
X135572400Y-74282400D01*
X135960000Y-79340000D02*
X135960000Y-79956396D01*
%TO.N,Net-(IC1-INT)*%
X140700000Y-84060000D02*
X136430000Y-79790000D01*
X136430000Y-79790000D02*
X136430000Y-78035600D01*
X137120000Y-101940000D02*
X140700000Y-98360000D01*
X140700000Y-98360000D02*
X140700000Y-84060000D01*
%TO.N,5V*%
X127600000Y-73930000D02*
X126270000Y-72600000D01*
X137120000Y-89240000D02*
X127600000Y-79720000D01*
X126270000Y-72600000D02*
X123730000Y-72600000D01*
X127600000Y-79720000D02*
X127600000Y-73930000D01*
%TO.N,Net-(IC1-AN)*%
X141870000Y-78395600D02*
X141510000Y-78035600D01*
X141870000Y-86370000D02*
X141870000Y-78395600D01*
X159980000Y-104480000D02*
X141870000Y-86370000D01*
%TO.N,GND*%
X132010000Y-82540000D02*
X132010000Y-82600000D01*
X130560000Y-81090000D02*
X132010000Y-82540000D01*
X137120000Y-86700000D02*
X136170000Y-86700000D01*
X133890000Y-79680000D02*
X135090000Y-80880000D01*
X133890000Y-78035600D02*
X133890000Y-79680000D01*
X136170000Y-86700000D02*
X132010000Y-82540000D01*
%TO.N,Net-(IC1-SCL)*%
X137120000Y-94320000D02*
X139000000Y-92440000D01*
X139000000Y-92440000D02*
X139000000Y-85750000D01*
X138100000Y-84850000D02*
X135624400Y-84850000D01*
X139000000Y-85750000D02*
X138100000Y-84850000D01*
X135624400Y-84850000D02*
X128810000Y-78035600D01*
%TO.N,Net-(IC1-SDA)*%
X137120000Y-91780000D02*
X126270000Y-80930000D01*
X126270000Y-80930000D02*
X126270000Y-78035600D01*
%TO.N,Net-(IC1-MISO)*%
X159980000Y-94320000D02*
X162300000Y-92000000D01*
X162300000Y-85520000D02*
X162320000Y-85500000D01*
X162320000Y-85500000D02*
X160310000Y-83490000D01*
X154584400Y-83490000D02*
X149130000Y-78035600D01*
X162300000Y-92000000D02*
X162300000Y-85520000D01*
X160310000Y-83490000D02*
X154584400Y-83490000D01*
%TO.N,Net-(IC1-MOSI)*%
X161850000Y-89910000D02*
X161850000Y-85710000D01*
X160490000Y-84350000D02*
X157030000Y-84350000D01*
X156330000Y-85050000D02*
X153604400Y-85050000D01*
X153604400Y-85050000D02*
X146590000Y-78035600D01*
X159980000Y-91780000D02*
X161850000Y-89910000D01*
X157030000Y-84350000D02*
X156330000Y-85050000D01*
X161850000Y-85710000D02*
X160490000Y-84350000D01*
%TO.N,Net-(IC1-SCK)*%
X162830000Y-85300000D02*
X160500000Y-82970000D01*
X160500000Y-82970000D02*
X155000000Y-82970000D01*
X155000000Y-82970000D02*
X151670000Y-79640000D01*
X151670000Y-79640000D02*
X151670000Y-78035600D01*
X159980000Y-96860000D02*
X162830000Y-94010000D01*
X162830000Y-94010000D02*
X162830000Y-85300000D01*
%TO.N,Net-(IC1-TX)*%
X131350000Y-72600000D02*
X132430000Y-73680000D01*
X132430000Y-73680000D02*
X132430000Y-78480000D01*
X138310000Y-84360000D02*
X139450000Y-85500000D01*
X133295000Y-79345000D02*
X133295000Y-81635000D01*
X139450000Y-85500000D02*
X139450000Y-94530000D01*
X139450000Y-94530000D02*
X137120000Y-96860000D01*
X133295000Y-81635000D02*
X136020000Y-84360000D01*
X136020000Y-84360000D02*
X138310000Y-84360000D01*
X132430000Y-78480000D02*
X133295000Y-79345000D01*
%TO.N,3V3*%
X123730000Y-79010000D02*
X124180000Y-79460000D01*
X159980000Y-89240000D02*
X155254400Y-89240000D01*
X155254400Y-89240000D02*
X144050000Y-78035600D01*
X123730000Y-78035600D02*
X123730000Y-79010000D01*
X142800000Y-79285600D02*
X144050000Y-78035600D01*
X142800000Y-79350000D02*
X142800000Y-79285600D01*
%TO.N,Net-(IC1-RST)*%
X143280000Y-85240000D02*
X143170000Y-85240000D01*
X131350000Y-79150000D02*
X131350000Y-78035600D01*
X159980000Y-101940000D02*
X143280000Y-85240000D01*
X132670000Y-80470000D02*
X131350000Y-79150000D01*
%TD*%
%TA.AperFunction,Conductor*%
%TO.N,GND*%
G36*
X177439119Y-70656373D02*
G01*
X178574589Y-71034863D01*
X178603568Y-71048935D01*
X178990029Y-71303434D01*
X179008533Y-71318347D01*
X179447037Y-71747319D01*
X179468787Y-71775860D01*
X179860028Y-72482002D01*
X179873624Y-72520255D01*
X180038058Y-73439153D01*
X180039997Y-73461019D01*
X180039920Y-73852433D01*
X180020222Y-73919469D01*
X179967409Y-73965213D01*
X179898249Y-73975143D01*
X179834699Y-73946106D01*
X179796936Y-73887320D01*
X179795029Y-73880001D01*
X179787530Y-73847147D01*
X179754018Y-73700319D01*
X179639002Y-73371621D01*
X179487906Y-73057867D01*
X179302630Y-72763003D01*
X179302628Y-72763000D01*
X179302627Y-72762998D01*
X179085512Y-72490743D01*
X178839256Y-72244487D01*
X178567001Y-72027372D01*
X178566999Y-72027371D01*
X178272130Y-71842092D01*
X177958382Y-71690999D01*
X177629692Y-71575985D01*
X177629684Y-71575982D01*
X177375048Y-71517863D01*
X177290171Y-71498491D01*
X177290167Y-71498490D01*
X177290158Y-71498489D01*
X176944124Y-71459500D01*
X176944120Y-71459500D01*
X176595880Y-71459500D01*
X176595875Y-71459500D01*
X176249841Y-71498489D01*
X176249829Y-71498491D01*
X175910315Y-71575982D01*
X175910307Y-71575985D01*
X175581617Y-71690999D01*
X175267869Y-71842092D01*
X174973000Y-72027371D01*
X174972998Y-72027372D01*
X174700743Y-72244487D01*
X174454487Y-72490743D01*
X174237372Y-72762998D01*
X174237371Y-72763000D01*
X174052092Y-73057869D01*
X173900999Y-73371617D01*
X173785985Y-73700307D01*
X173785982Y-73700315D01*
X173708491Y-74039829D01*
X173708489Y-74039841D01*
X173669500Y-74385875D01*
X173669500Y-74734124D01*
X173708489Y-75080158D01*
X173708491Y-75080170D01*
X173785982Y-75419684D01*
X173785985Y-75419692D01*
X173900999Y-75748382D01*
X174052092Y-76062130D01*
X174237371Y-76356999D01*
X174237372Y-76357001D01*
X174454487Y-76629256D01*
X174700743Y-76875512D01*
X174972998Y-77092627D01*
X174973001Y-77092628D01*
X174973003Y-77092630D01*
X175267867Y-77277906D01*
X175581621Y-77429002D01*
X175828488Y-77515384D01*
X175910307Y-77544014D01*
X175910315Y-77544017D01*
X175910318Y-77544017D01*
X175910319Y-77544018D01*
X176249829Y-77621509D01*
X176595876Y-77660499D01*
X176595877Y-77660500D01*
X176595880Y-77660500D01*
X176944123Y-77660500D01*
X176944123Y-77660499D01*
X177290171Y-77621509D01*
X177629681Y-77544018D01*
X177958379Y-77429002D01*
X178272133Y-77277906D01*
X178566997Y-77092630D01*
X178570270Y-77090020D01*
X178839256Y-76875512D01*
X178839258Y-76875509D01*
X178839263Y-76875506D01*
X179085506Y-76629263D01*
X179176155Y-76515593D01*
X179302627Y-76357001D01*
X179302628Y-76356999D01*
X179302630Y-76356997D01*
X179487906Y-76062133D01*
X179639002Y-75748379D01*
X179754018Y-75419681D01*
X179794750Y-75241221D01*
X179828859Y-75180243D01*
X179890520Y-75147385D01*
X179960157Y-75153080D01*
X180015661Y-75195520D01*
X180039409Y-75261230D01*
X180039641Y-75268838D01*
X180030262Y-122810118D01*
X180010564Y-122877154D01*
X179957751Y-122922899D01*
X179888591Y-122932828D01*
X179825041Y-122903791D01*
X179787278Y-122845005D01*
X179785371Y-122837686D01*
X179754018Y-122700319D01*
X179754014Y-122700307D01*
X179725384Y-122618488D01*
X179639002Y-122371621D01*
X179487906Y-122057867D01*
X179302630Y-121763003D01*
X179302628Y-121763000D01*
X179302627Y-121762998D01*
X179085512Y-121490743D01*
X178839256Y-121244487D01*
X178567001Y-121027372D01*
X178566999Y-121027371D01*
X178272130Y-120842092D01*
X177958382Y-120690999D01*
X177629692Y-120575985D01*
X177629684Y-120575982D01*
X177375048Y-120517863D01*
X177290171Y-120498491D01*
X177290167Y-120498490D01*
X177290158Y-120498489D01*
X176944124Y-120459500D01*
X176944120Y-120459500D01*
X176595880Y-120459500D01*
X176595875Y-120459500D01*
X176249841Y-120498489D01*
X176249829Y-120498491D01*
X175910315Y-120575982D01*
X175910307Y-120575985D01*
X175581617Y-120690999D01*
X175267869Y-120842092D01*
X174973000Y-121027371D01*
X174972998Y-121027372D01*
X174700743Y-121244487D01*
X174454487Y-121490743D01*
X174237372Y-121762998D01*
X174237371Y-121763000D01*
X174052092Y-122057869D01*
X173900999Y-122371617D01*
X173785985Y-122700307D01*
X173785982Y-122700315D01*
X173708491Y-123039829D01*
X173708489Y-123039841D01*
X173669500Y-123385875D01*
X173669500Y-123734124D01*
X173708489Y-124080158D01*
X173708491Y-124080170D01*
X173785982Y-124419684D01*
X173785985Y-124419692D01*
X173900999Y-124748382D01*
X174052092Y-125062130D01*
X174237371Y-125356999D01*
X174237372Y-125357001D01*
X174454487Y-125629256D01*
X174700743Y-125875512D01*
X174972998Y-126092627D01*
X174973001Y-126092628D01*
X174973003Y-126092630D01*
X175267867Y-126277906D01*
X175581621Y-126429002D01*
X175803947Y-126506797D01*
X175910307Y-126544014D01*
X175910315Y-126544017D01*
X175910318Y-126544017D01*
X175910319Y-126544018D01*
X176249829Y-126621509D01*
X176249837Y-126621509D01*
X176249842Y-126621511D01*
X176303957Y-126627608D01*
X176368371Y-126654674D01*
X176407926Y-126712269D01*
X176410064Y-126782106D01*
X176374106Y-126842012D01*
X176311469Y-126872968D01*
X176287619Y-126874804D01*
X175539987Y-126859999D01*
X119221230Y-126899999D01*
X119218758Y-126899976D01*
X119052520Y-126896779D01*
X118985871Y-126875809D01*
X118941140Y-126822135D01*
X118932528Y-126752798D01*
X118962770Y-126689812D01*
X119022263Y-126653175D01*
X119041020Y-126649582D01*
X119093656Y-126643651D01*
X119290171Y-126621509D01*
X119629681Y-126544018D01*
X119958379Y-126429002D01*
X120272133Y-126277906D01*
X120566997Y-126092630D01*
X120567001Y-126092627D01*
X120839256Y-125875512D01*
X120839258Y-125875509D01*
X120839263Y-125875506D01*
X121085506Y-125629263D01*
X121109458Y-125599229D01*
X121302627Y-125357001D01*
X121302628Y-125356999D01*
X121302630Y-125356997D01*
X121487906Y-125062133D01*
X121639002Y-124748379D01*
X121754018Y-124419681D01*
X121831509Y-124080171D01*
X121870500Y-123734120D01*
X121870500Y-123385880D01*
X121831509Y-123039829D01*
X121754018Y-122700319D01*
X121639002Y-122371621D01*
X121487906Y-122057867D01*
X121302630Y-121763003D01*
X121302628Y-121763000D01*
X121302627Y-121762998D01*
X121085512Y-121490743D01*
X120839256Y-121244487D01*
X120567001Y-121027372D01*
X120566999Y-121027371D01*
X120272130Y-120842092D01*
X119958382Y-120690999D01*
X119629692Y-120575985D01*
X119629684Y-120575982D01*
X119375048Y-120517863D01*
X119290171Y-120498491D01*
X119290167Y-120498490D01*
X119290158Y-120498489D01*
X118944124Y-120459500D01*
X118944120Y-120459500D01*
X118595880Y-120459500D01*
X118595875Y-120459500D01*
X118249841Y-120498489D01*
X118249829Y-120498491D01*
X117910315Y-120575982D01*
X117910307Y-120575985D01*
X117581617Y-120690999D01*
X117267869Y-120842092D01*
X116973000Y-121027371D01*
X116972998Y-121027372D01*
X116700743Y-121244487D01*
X116454487Y-121490743D01*
X116237372Y-121762998D01*
X116237371Y-121763000D01*
X116052092Y-122057869D01*
X115900999Y-122371617D01*
X115785985Y-122700307D01*
X115785982Y-122700315D01*
X115708491Y-123039829D01*
X115708489Y-123039841D01*
X115669500Y-123385875D01*
X115669500Y-123734124D01*
X115708489Y-124080158D01*
X115708491Y-124080170D01*
X115785982Y-124419684D01*
X115785985Y-124419692D01*
X115900999Y-124748382D01*
X116052092Y-125062130D01*
X116237371Y-125356999D01*
X116237372Y-125357001D01*
X116454487Y-125629256D01*
X116700743Y-125875512D01*
X116972998Y-126092627D01*
X116973001Y-126092628D01*
X116973003Y-126092630D01*
X117267867Y-126277906D01*
X117581621Y-126429002D01*
X117803947Y-126506797D01*
X117910307Y-126544014D01*
X117910315Y-126544017D01*
X117910318Y-126544017D01*
X117910319Y-126544018D01*
X118249829Y-126621509D01*
X118303959Y-126627608D01*
X118381711Y-126636369D01*
X118446125Y-126663435D01*
X118485680Y-126721030D01*
X118487817Y-126790867D01*
X118451859Y-126850774D01*
X118389221Y-126881729D01*
X118365443Y-126883566D01*
X117681789Y-126870419D01*
X117639660Y-126862177D01*
X116769213Y-126527389D01*
X116734204Y-126506797D01*
X116238680Y-126092628D01*
X116094582Y-125972188D01*
X116069736Y-125944001D01*
X115867824Y-125629256D01*
X115415182Y-124923667D01*
X115396512Y-124872097D01*
X115280995Y-123947961D01*
X115280040Y-123931977D01*
X115359736Y-108291644D01*
X115379762Y-108224709D01*
X115396842Y-108203815D01*
X115884136Y-107725223D01*
X115945758Y-107692293D01*
X115970264Y-107689694D01*
X119210000Y-107670000D01*
X119910000Y-107420000D01*
X120300000Y-106760000D01*
X120300000Y-104190000D01*
X120317386Y-99087207D01*
X120320000Y-98320061D01*
X120319999Y-98320043D01*
X120320000Y-98320000D01*
X120260000Y-91240000D01*
X119950000Y-90730000D01*
X119949999Y-90729999D01*
X119650710Y-90536342D01*
X119440000Y-90400000D01*
X119439999Y-90399999D01*
X116172129Y-90390067D01*
X116129263Y-90382284D01*
X115749412Y-90240944D01*
X115699335Y-90206382D01*
X115330680Y-89785061D01*
X115301349Y-89721647D01*
X115300000Y-89703407D01*
X115300000Y-88370000D01*
X115301888Y-86913094D01*
X115318125Y-74385875D01*
X115669500Y-74385875D01*
X115669500Y-74734124D01*
X115708489Y-75080158D01*
X115708491Y-75080170D01*
X115785982Y-75419684D01*
X115785985Y-75419692D01*
X115900999Y-75748382D01*
X116052092Y-76062130D01*
X116237371Y-76356999D01*
X116237372Y-76357001D01*
X116454487Y-76629256D01*
X116700743Y-76875512D01*
X116972998Y-77092627D01*
X116973001Y-77092628D01*
X116973003Y-77092630D01*
X117267867Y-77277906D01*
X117581621Y-77429002D01*
X117828488Y-77515384D01*
X117910307Y-77544014D01*
X117910315Y-77544017D01*
X117910318Y-77544017D01*
X117910319Y-77544018D01*
X118249829Y-77621509D01*
X118595876Y-77660499D01*
X118595877Y-77660500D01*
X118595880Y-77660500D01*
X118944123Y-77660500D01*
X118944123Y-77660499D01*
X119290171Y-77621509D01*
X119629681Y-77544018D01*
X119958379Y-77429002D01*
X120272133Y-77277906D01*
X120566997Y-77092630D01*
X120570270Y-77090020D01*
X120839256Y-76875512D01*
X120839258Y-76875509D01*
X120839263Y-76875506D01*
X121085506Y-76629263D01*
X121176155Y-76515593D01*
X121302627Y-76357001D01*
X121302628Y-76356999D01*
X121302630Y-76356997D01*
X121487906Y-76062133D01*
X121639002Y-75748379D01*
X121754018Y-75419681D01*
X121831509Y-75080171D01*
X121870500Y-74734120D01*
X121870500Y-74385880D01*
X121840543Y-74120006D01*
X122996899Y-74120006D01*
X123025071Y-74261630D01*
X123025073Y-74261638D01*
X123080335Y-74395053D01*
X123080336Y-74395056D01*
X123160563Y-74515123D01*
X123160566Y-74515127D01*
X123262672Y-74617233D01*
X123262676Y-74617236D01*
X123382743Y-74697463D01*
X123382745Y-74697463D01*
X123382747Y-74697465D01*
X123516163Y-74752727D01*
X123550846Y-74759626D01*
X123657793Y-74780900D01*
X123805637Y-74780900D01*
X123872676Y-74800585D01*
X123918431Y-74853389D01*
X123928375Y-74922547D01*
X123923568Y-74943218D01*
X123888557Y-75050969D01*
X123860500Y-75228113D01*
X123860500Y-75407486D01*
X123888557Y-75584630D01*
X123923568Y-75692382D01*
X123925563Y-75762223D01*
X123889483Y-75822056D01*
X123826782Y-75852884D01*
X123805637Y-75854700D01*
X123657794Y-75854700D01*
X123516169Y-75882871D01*
X123516161Y-75882873D01*
X123382746Y-75938135D01*
X123382743Y-75938136D01*
X123262676Y-76018363D01*
X123262672Y-76018366D01*
X123160566Y-76120472D01*
X123160563Y-76120476D01*
X123080336Y-76240543D01*
X123080335Y-76240546D01*
X123025073Y-76373961D01*
X123025071Y-76373969D01*
X122996900Y-76515593D01*
X122996900Y-76515596D01*
X122996900Y-76660004D01*
X122996900Y-76660006D01*
X122996899Y-76660006D01*
X123025071Y-76801630D01*
X123025073Y-76801638D01*
X123080331Y-76935045D01*
X123080332Y-76935046D01*
X123080335Y-76935053D01*
X123080338Y-76935057D01*
X123080340Y-76935061D01*
X123103964Y-76970418D01*
X123124841Y-77037095D01*
X123106356Y-77104475D01*
X123103964Y-77108197D01*
X123096632Y-77119170D01*
X123096631Y-77119170D01*
X123085000Y-77177647D01*
X123085000Y-78893552D01*
X123096631Y-78952029D01*
X123096632Y-78952030D01*
X123140947Y-79018352D01*
X123207269Y-79062667D01*
X123207270Y-79062668D01*
X123265747Y-79074299D01*
X123265750Y-79074300D01*
X123265752Y-79074300D01*
X123319677Y-79074300D01*
X123386716Y-79093985D01*
X123427063Y-79136299D01*
X123469535Y-79209862D01*
X123469537Y-79209864D01*
X123638034Y-79378361D01*
X123671519Y-79439684D01*
X123672764Y-79451268D01*
X123673091Y-79451222D01*
X123694834Y-79602456D01*
X123728945Y-79677147D01*
X123754623Y-79733373D01*
X123848872Y-79842143D01*
X123969947Y-79919953D01*
X123969950Y-79919954D01*
X123969949Y-79919954D01*
X124108036Y-79960499D01*
X124108038Y-79960500D01*
X124108039Y-79960500D01*
X124251962Y-79960500D01*
X124251962Y-79960499D01*
X124390053Y-79919953D01*
X124511128Y-79842143D01*
X124605377Y-79733373D01*
X124665165Y-79602457D01*
X124685647Y-79460000D01*
X124665165Y-79317543D01*
X124605377Y-79186627D01*
X124511128Y-79077857D01*
X124428979Y-79025063D01*
X124383225Y-78972260D01*
X124373281Y-78903101D01*
X124374402Y-78896555D01*
X124375000Y-78893548D01*
X124375000Y-77177649D01*
X124374999Y-77177647D01*
X124363368Y-77119171D01*
X124363367Y-77119169D01*
X124356036Y-77108197D01*
X124335158Y-77041523D01*
X124353641Y-76974143D01*
X124356037Y-76970415D01*
X124366132Y-76955306D01*
X124379665Y-76935053D01*
X124434927Y-76801637D01*
X124463100Y-76660004D01*
X124463100Y-76515596D01*
X124463100Y-76512162D01*
X124482785Y-76445123D01*
X124535589Y-76399368D01*
X124604747Y-76389424D01*
X124625402Y-76394227D01*
X124733166Y-76429242D01*
X124821742Y-76443271D01*
X124910314Y-76457300D01*
X124910319Y-76457300D01*
X125089686Y-76457300D01*
X125172891Y-76444121D01*
X125266834Y-76429242D01*
X125374586Y-76394230D01*
X125444422Y-76392235D01*
X125504255Y-76428315D01*
X125535084Y-76491016D01*
X125536900Y-76512162D01*
X125536900Y-76515596D01*
X125536900Y-76660004D01*
X125536900Y-76660006D01*
X125536899Y-76660006D01*
X125565071Y-76801630D01*
X125565073Y-76801638D01*
X125620331Y-76935045D01*
X125620332Y-76935046D01*
X125620335Y-76935053D01*
X125620338Y-76935057D01*
X125620340Y-76935061D01*
X125643964Y-76970418D01*
X125664841Y-77037095D01*
X125646356Y-77104475D01*
X125643964Y-77108197D01*
X125636632Y-77119170D01*
X125636631Y-77119170D01*
X125625000Y-77177647D01*
X125625000Y-78893552D01*
X125636631Y-78952029D01*
X125636632Y-78952030D01*
X125680947Y-79018352D01*
X125747269Y-79062667D01*
X125747270Y-79062668D01*
X125805747Y-79074299D01*
X125805750Y-79074300D01*
X125805752Y-79074300D01*
X125820500Y-79074300D01*
X125887539Y-79093985D01*
X125933294Y-79146789D01*
X125944500Y-79198300D01*
X125944500Y-80887147D01*
X125944500Y-80972853D01*
X125955591Y-81014246D01*
X125966682Y-81055640D01*
X125974588Y-81069333D01*
X126009535Y-81129862D01*
X126009537Y-81129864D01*
X136220882Y-91341209D01*
X136254367Y-91402532D01*
X136251132Y-91467207D01*
X136212199Y-91587032D01*
X136212197Y-91587037D01*
X136191916Y-91780000D01*
X136212197Y-91972962D01*
X136212198Y-91972964D01*
X136272150Y-92157480D01*
X136272153Y-92157486D01*
X136369164Y-92325514D01*
X136471353Y-92439006D01*
X136498991Y-92469701D01*
X136655953Y-92583741D01*
X136655954Y-92583741D01*
X136655958Y-92583744D01*
X136800510Y-92648103D01*
X136833201Y-92662658D01*
X136833206Y-92662660D01*
X137022989Y-92703000D01*
X137217011Y-92703000D01*
X137406794Y-92662660D01*
X137584042Y-92583744D01*
X137741009Y-92469701D01*
X137870836Y-92325514D01*
X137967847Y-92157486D01*
X138027803Y-91972960D01*
X138048084Y-91780000D01*
X138027803Y-91587040D01*
X137988867Y-91467207D01*
X137967849Y-91402519D01*
X137967846Y-91402513D01*
X137870836Y-91234486D01*
X137741009Y-91090299D01*
X137732813Y-91084344D01*
X137584046Y-90976258D01*
X137584043Y-90976256D01*
X137584042Y-90976256D01*
X137469270Y-90925156D01*
X137406798Y-90897341D01*
X137406793Y-90897339D01*
X137217011Y-90857000D01*
X137022989Y-90857000D01*
X136833208Y-90897339D01*
X136833204Y-90897340D01*
X136817273Y-90904433D01*
X136748023Y-90913716D01*
X136684747Y-90884085D01*
X136679160Y-90878833D01*
X126631819Y-80831492D01*
X126598334Y-80770169D01*
X126595500Y-80743811D01*
X126595500Y-79198300D01*
X126615185Y-79131261D01*
X126667989Y-79085506D01*
X126719500Y-79074300D01*
X126734250Y-79074300D01*
X126734251Y-79074299D01*
X126749068Y-79071352D01*
X126792729Y-79062668D01*
X126792729Y-79062667D01*
X126792731Y-79062667D01*
X126859052Y-79018352D01*
X126903367Y-78952031D01*
X126903367Y-78952029D01*
X126903368Y-78952029D01*
X126914999Y-78893552D01*
X126915000Y-78893550D01*
X126915000Y-77177649D01*
X126914999Y-77177647D01*
X126903368Y-77119171D01*
X126903367Y-77119169D01*
X126896036Y-77108197D01*
X126875158Y-77041523D01*
X126893641Y-76974143D01*
X126896037Y-76970415D01*
X126906132Y-76955306D01*
X126919665Y-76935053D01*
X126974927Y-76801637D01*
X127003100Y-76660004D01*
X127003100Y-76515596D01*
X127003100Y-76515593D01*
X126978959Y-76394231D01*
X126974927Y-76373963D01*
X126919665Y-76240547D01*
X126919663Y-76240545D01*
X126919663Y-76240543D01*
X126839436Y-76120476D01*
X126839433Y-76120472D01*
X126737327Y-76018366D01*
X126737323Y-76018363D01*
X126617256Y-75938136D01*
X126617253Y-75938135D01*
X126483838Y-75882873D01*
X126483830Y-75882871D01*
X126342206Y-75854700D01*
X126342204Y-75854700D01*
X126197796Y-75854700D01*
X126194363Y-75854700D01*
X126127324Y-75835015D01*
X126081569Y-75782211D01*
X126071625Y-75713053D01*
X126076432Y-75692382D01*
X126111442Y-75584634D01*
X126123912Y-75505899D01*
X126139500Y-75407486D01*
X126139500Y-75228113D01*
X126120794Y-75110017D01*
X126111442Y-75050966D01*
X126076431Y-74943217D01*
X126074437Y-74873377D01*
X126110517Y-74813544D01*
X126173218Y-74782716D01*
X126194363Y-74780900D01*
X126342206Y-74780900D01*
X126413503Y-74766717D01*
X126483837Y-74752727D01*
X126617253Y-74697465D01*
X126737324Y-74617236D01*
X126839436Y-74515124D01*
X126919665Y-74395053D01*
X126974927Y-74261637D01*
X127001198Y-74129568D01*
X127003100Y-74120006D01*
X127003100Y-74092789D01*
X127022785Y-74025750D01*
X127075589Y-73979995D01*
X127144747Y-73970051D01*
X127208303Y-73999076D01*
X127214781Y-74005108D01*
X127238181Y-74028508D01*
X127271666Y-74089831D01*
X127274500Y-74116189D01*
X127274500Y-79677147D01*
X127274500Y-79762853D01*
X127285591Y-79804246D01*
X127296682Y-79845640D01*
X127311131Y-79870666D01*
X127339535Y-79919862D01*
X127339537Y-79919864D01*
X136220882Y-88801209D01*
X136254367Y-88862532D01*
X136251132Y-88927207D01*
X136212199Y-89047032D01*
X136212197Y-89047037D01*
X136191916Y-89240000D01*
X136212197Y-89432962D01*
X136212198Y-89432964D01*
X136272150Y-89617480D01*
X136272153Y-89617486D01*
X136369164Y-89785514D01*
X136431503Y-89854748D01*
X136498991Y-89929701D01*
X136655953Y-90043741D01*
X136655954Y-90043741D01*
X136655958Y-90043744D01*
X136800510Y-90108103D01*
X136833201Y-90122658D01*
X136833206Y-90122660D01*
X137022989Y-90163000D01*
X137217011Y-90163000D01*
X137406794Y-90122660D01*
X137584042Y-90043744D01*
X137741009Y-89929701D01*
X137870836Y-89785514D01*
X137967847Y-89617486D01*
X138027803Y-89432960D01*
X138048084Y-89240000D01*
X138027803Y-89047040D01*
X137967847Y-88862514D01*
X137870836Y-88694486D01*
X137741009Y-88550299D01*
X137741008Y-88550298D01*
X137584046Y-88436258D01*
X137584043Y-88436256D01*
X137584042Y-88436256D01*
X137500577Y-88399095D01*
X137406798Y-88357341D01*
X137406793Y-88357339D01*
X137217011Y-88317000D01*
X137022989Y-88317000D01*
X136833208Y-88357339D01*
X136833204Y-88357340D01*
X136817273Y-88364433D01*
X136748023Y-88373716D01*
X136684747Y-88344085D01*
X136679160Y-88338833D01*
X135040324Y-86699997D01*
X135892830Y-86699997D01*
X135892830Y-86700002D01*
X135911473Y-86913094D01*
X135911473Y-86913098D01*
X135966834Y-87119709D01*
X135966838Y-87119718D01*
X136057238Y-87313582D01*
X136096620Y-87369825D01*
X136096621Y-87369826D01*
X136682352Y-86784094D01*
X136705792Y-86871571D01*
X136764311Y-86972930D01*
X136847070Y-87055689D01*
X136948429Y-87114208D01*
X137035905Y-87137647D01*
X136450172Y-87723378D01*
X136506417Y-87762761D01*
X136700281Y-87853161D01*
X136700290Y-87853165D01*
X136906903Y-87908526D01*
X137119998Y-87927170D01*
X137120002Y-87927170D01*
X137333094Y-87908526D01*
X137333098Y-87908526D01*
X137539709Y-87853165D01*
X137539718Y-87853161D01*
X137733584Y-87762760D01*
X137733588Y-87762758D01*
X137789826Y-87723379D01*
X137204095Y-87137647D01*
X137291571Y-87114208D01*
X137392930Y-87055689D01*
X137475689Y-86972930D01*
X137534208Y-86871571D01*
X137557647Y-86784094D01*
X138143379Y-87369826D01*
X138182758Y-87313588D01*
X138182760Y-87313584D01*
X138273161Y-87119718D01*
X138273165Y-87119709D01*
X138328526Y-86913098D01*
X138328526Y-86913094D01*
X138347170Y-86700002D01*
X138347170Y-86699997D01*
X138328526Y-86486905D01*
X138328526Y-86486901D01*
X138273165Y-86280290D01*
X138273161Y-86280281D01*
X138182761Y-86086417D01*
X138143377Y-86030172D01*
X137557647Y-86615904D01*
X137534208Y-86528429D01*
X137475689Y-86427070D01*
X137392930Y-86344311D01*
X137291571Y-86285792D01*
X137204095Y-86262352D01*
X137789826Y-85676621D01*
X137789825Y-85676620D01*
X137733582Y-85637238D01*
X137539718Y-85546838D01*
X137539709Y-85546834D01*
X137333096Y-85491473D01*
X137120002Y-85472830D01*
X137119998Y-85472830D01*
X136906905Y-85491473D01*
X136906901Y-85491473D01*
X136700290Y-85546834D01*
X136700281Y-85546837D01*
X136506412Y-85637241D01*
X136450172Y-85676619D01*
X137035905Y-86262352D01*
X136948429Y-86285792D01*
X136847070Y-86344311D01*
X136764311Y-86427070D01*
X136705792Y-86528429D01*
X136682352Y-86615905D01*
X136096619Y-86030172D01*
X136057241Y-86086412D01*
X135966837Y-86280281D01*
X135966834Y-86280290D01*
X135911473Y-86486901D01*
X135911473Y-86486905D01*
X135892830Y-86699997D01*
X135040324Y-86699997D01*
X127961819Y-79621492D01*
X127928334Y-79560169D01*
X127925500Y-79533811D01*
X127925500Y-78948494D01*
X127945185Y-78881455D01*
X127997989Y-78835700D01*
X128067147Y-78825756D01*
X128130703Y-78854781D01*
X128168477Y-78913559D01*
X128171117Y-78924303D01*
X128176631Y-78952029D01*
X128176632Y-78952030D01*
X128220947Y-79018352D01*
X128287269Y-79062667D01*
X128287270Y-79062668D01*
X128345747Y-79074299D01*
X128345750Y-79074300D01*
X128345752Y-79074300D01*
X129274249Y-79074300D01*
X129296544Y-79069865D01*
X129304431Y-79068296D01*
X129374023Y-79074523D01*
X129416305Y-79102232D01*
X135424538Y-85110465D01*
X135498761Y-85153318D01*
X135581547Y-85175500D01*
X135667253Y-85175500D01*
X137913811Y-85175500D01*
X137980850Y-85195185D01*
X138001492Y-85211819D01*
X138638181Y-85848508D01*
X138671666Y-85909831D01*
X138674500Y-85936189D01*
X138674500Y-92253810D01*
X138654815Y-92320849D01*
X138638181Y-92341491D01*
X137560839Y-93418833D01*
X137499516Y-93452318D01*
X137429824Y-93447334D01*
X137422722Y-93444431D01*
X137406798Y-93437341D01*
X137406793Y-93437339D01*
X137217011Y-93397000D01*
X137022989Y-93397000D01*
X136833206Y-93437339D01*
X136833201Y-93437341D01*
X136655958Y-93516256D01*
X136655953Y-93516258D01*
X136498991Y-93630298D01*
X136369163Y-93774487D01*
X136272153Y-93942513D01*
X136272150Y-93942519D01*
X136212198Y-94127035D01*
X136212197Y-94127037D01*
X136191916Y-94320000D01*
X136212197Y-94512962D01*
X136212198Y-94512964D01*
X136272150Y-94697480D01*
X136272153Y-94697486D01*
X136369164Y-94865514D01*
X136498991Y-95009701D01*
X136655953Y-95123741D01*
X136655954Y-95123741D01*
X136655958Y-95123744D01*
X136749043Y-95165188D01*
X136833201Y-95202658D01*
X136833206Y-95202660D01*
X137022989Y-95243000D01*
X137217011Y-95243000D01*
X137406794Y-95202660D01*
X137584042Y-95123744D01*
X137741009Y-95009701D01*
X137870836Y-94865514D01*
X137967847Y-94697486D01*
X138027803Y-94512960D01*
X138048084Y-94320000D01*
X138027803Y-94127040D01*
X137988867Y-94007207D01*
X137986872Y-93937366D01*
X138019115Y-93881210D01*
X138912820Y-92987506D01*
X138974142Y-92954022D01*
X139043834Y-92959006D01*
X139099767Y-93000878D01*
X139124184Y-93066342D01*
X139124500Y-93075188D01*
X139124500Y-94343810D01*
X139104815Y-94410849D01*
X139088181Y-94431491D01*
X137560839Y-95958832D01*
X137499516Y-95992317D01*
X137429824Y-95987333D01*
X137422727Y-95984432D01*
X137406802Y-95977342D01*
X137406793Y-95977339D01*
X137217011Y-95937000D01*
X137022989Y-95937000D01*
X136833206Y-95977339D01*
X136833201Y-95977341D01*
X136655958Y-96056256D01*
X136655953Y-96056258D01*
X136498991Y-96170298D01*
X136369163Y-96314487D01*
X136272153Y-96482513D01*
X136272150Y-96482519D01*
X136212198Y-96667035D01*
X136212197Y-96667037D01*
X136191916Y-96860000D01*
X136212197Y-97052962D01*
X136212198Y-97052964D01*
X136272150Y-97237480D01*
X136272153Y-97237486D01*
X136369164Y-97405514D01*
X136498991Y-97549701D01*
X136655953Y-97663741D01*
X136655954Y-97663741D01*
X136655958Y-97663744D01*
X136800510Y-97728103D01*
X136833201Y-97742658D01*
X136833206Y-97742660D01*
X137022989Y-97783000D01*
X137217011Y-97783000D01*
X137406794Y-97742660D01*
X137584042Y-97663744D01*
X137741009Y-97549701D01*
X137870836Y-97405514D01*
X137967847Y-97237486D01*
X138027803Y-97052960D01*
X138048084Y-96860000D01*
X138027803Y-96667040D01*
X137988867Y-96547207D01*
X137986872Y-96477366D01*
X138019115Y-96421210D01*
X139362819Y-95077507D01*
X139424142Y-95044022D01*
X139493834Y-95049006D01*
X139549767Y-95090878D01*
X139574184Y-95156342D01*
X139574500Y-95165188D01*
X139574500Y-96433810D01*
X139554815Y-96500849D01*
X139538181Y-96521491D01*
X137560839Y-98498832D01*
X137499516Y-98532317D01*
X137429824Y-98527333D01*
X137422727Y-98524432D01*
X137406802Y-98517342D01*
X137406793Y-98517339D01*
X137217011Y-98477000D01*
X137022989Y-98477000D01*
X136833206Y-98517339D01*
X136833201Y-98517341D01*
X136655958Y-98596256D01*
X136655953Y-98596258D01*
X136498991Y-98710298D01*
X136369163Y-98854487D01*
X136272153Y-99022513D01*
X136272150Y-99022519D01*
X136212198Y-99207035D01*
X136212197Y-99207037D01*
X136191916Y-99400000D01*
X136212197Y-99592962D01*
X136212198Y-99592964D01*
X136272150Y-99777480D01*
X136272153Y-99777486D01*
X136369164Y-99945514D01*
X136491599Y-100081491D01*
X136498991Y-100089701D01*
X136655953Y-100203741D01*
X136655954Y-100203741D01*
X136655958Y-100203744D01*
X136800510Y-100268103D01*
X136833201Y-100282658D01*
X136833206Y-100282660D01*
X137022989Y-100323000D01*
X137217011Y-100323000D01*
X137406794Y-100282660D01*
X137584042Y-100203744D01*
X137741009Y-100089701D01*
X137870836Y-99945514D01*
X137967847Y-99777486D01*
X138027803Y-99592960D01*
X138048084Y-99400000D01*
X138027803Y-99207040D01*
X137988867Y-99087207D01*
X137986872Y-99017366D01*
X138019115Y-98961210D01*
X140089652Y-96890672D01*
X140089657Y-96890669D01*
X140099860Y-96880465D01*
X140099862Y-96880465D01*
X140160465Y-96819862D01*
X140160465Y-96819861D01*
X140162819Y-96817508D01*
X140224142Y-96784023D01*
X140293834Y-96789007D01*
X140349767Y-96830879D01*
X140374184Y-96896343D01*
X140374500Y-96905189D01*
X140374500Y-98173810D01*
X140354815Y-98240849D01*
X140338181Y-98261491D01*
X137560839Y-101038832D01*
X137499516Y-101072317D01*
X137429824Y-101067333D01*
X137422727Y-101064432D01*
X137406802Y-101057342D01*
X137406793Y-101057339D01*
X137217011Y-101017000D01*
X137022989Y-101017000D01*
X136833206Y-101057339D01*
X136833201Y-101057341D01*
X136655958Y-101136256D01*
X136655953Y-101136258D01*
X136498991Y-101250298D01*
X136369163Y-101394487D01*
X136272153Y-101562513D01*
X136272150Y-101562519D01*
X136212198Y-101747035D01*
X136212197Y-101747037D01*
X136191916Y-101940000D01*
X136212197Y-102132962D01*
X136212198Y-102132964D01*
X136272150Y-102317480D01*
X136272153Y-102317486D01*
X136369164Y-102485514D01*
X136498991Y-102629701D01*
X136655953Y-102743741D01*
X136655954Y-102743741D01*
X136655958Y-102743744D01*
X136800510Y-102808103D01*
X136833201Y-102822658D01*
X136833206Y-102822660D01*
X137022989Y-102863000D01*
X137217011Y-102863000D01*
X137406794Y-102822660D01*
X137584042Y-102743744D01*
X137741009Y-102629701D01*
X137870836Y-102485514D01*
X137967847Y-102317486D01*
X138027803Y-102132960D01*
X138048084Y-101940000D01*
X138027803Y-101747040D01*
X137988867Y-101627207D01*
X137986872Y-101557366D01*
X138019115Y-101501210D01*
X140882819Y-98637505D01*
X140944142Y-98604021D01*
X141013834Y-98609005D01*
X141069767Y-98650877D01*
X141094184Y-98716341D01*
X141094500Y-98725187D01*
X141094500Y-99993810D01*
X141074815Y-100060849D01*
X141058181Y-100081491D01*
X137560839Y-103578832D01*
X137499516Y-103612317D01*
X137429824Y-103607333D01*
X137422727Y-103604432D01*
X137406802Y-103597342D01*
X137406793Y-103597339D01*
X137217011Y-103557000D01*
X137022989Y-103557000D01*
X136833206Y-103597339D01*
X136833201Y-103597341D01*
X136655958Y-103676256D01*
X136655953Y-103676258D01*
X136498991Y-103790298D01*
X136369163Y-103934487D01*
X136272153Y-104102513D01*
X136272150Y-104102519D01*
X136212198Y-104287035D01*
X136212197Y-104287037D01*
X136191916Y-104480000D01*
X136212197Y-104672962D01*
X136212198Y-104672964D01*
X136272150Y-104857480D01*
X136272153Y-104857486D01*
X136369164Y-105025514D01*
X136498991Y-105169701D01*
X136655953Y-105283741D01*
X136655954Y-105283741D01*
X136655958Y-105283744D01*
X136798150Y-105347052D01*
X136833201Y-105362658D01*
X136833206Y-105362660D01*
X137022989Y-105403000D01*
X137217011Y-105403000D01*
X137406794Y-105362660D01*
X137584042Y-105283744D01*
X137741009Y-105169701D01*
X137870836Y-105025514D01*
X137967847Y-104857486D01*
X138027803Y-104672960D01*
X138048084Y-104480000D01*
X138027803Y-104287040D01*
X137988867Y-104167207D01*
X137986872Y-104097366D01*
X138019115Y-104041210D01*
X141680465Y-100379862D01*
X141723317Y-100305639D01*
X141723318Y-100305638D01*
X141745500Y-100222853D01*
X141745500Y-87005188D01*
X141765185Y-86938149D01*
X141817989Y-86892394D01*
X141887147Y-86882450D01*
X141950703Y-86911475D01*
X141957181Y-86917507D01*
X159020681Y-103981007D01*
X159054166Y-104042330D01*
X159057000Y-104068688D01*
X159057000Y-105222252D01*
X159068631Y-105280729D01*
X159068632Y-105280730D01*
X159112947Y-105347052D01*
X159179269Y-105391367D01*
X159179270Y-105391368D01*
X159237747Y-105402999D01*
X159237750Y-105403000D01*
X159237752Y-105403000D01*
X160722250Y-105403000D01*
X160722251Y-105402999D01*
X160737068Y-105400052D01*
X160780729Y-105391368D01*
X160780729Y-105391367D01*
X160780731Y-105391367D01*
X160847052Y-105347052D01*
X160891367Y-105280731D01*
X160891367Y-105280729D01*
X160891368Y-105280729D01*
X160902999Y-105222252D01*
X160903000Y-105222250D01*
X160903000Y-103737749D01*
X160902999Y-103737747D01*
X160891368Y-103679270D01*
X160891367Y-103679269D01*
X160847052Y-103612947D01*
X160780730Y-103568632D01*
X160780729Y-103568631D01*
X160722252Y-103557000D01*
X160722248Y-103557000D01*
X159568688Y-103557000D01*
X159501649Y-103537315D01*
X159481007Y-103520681D01*
X142231819Y-86271492D01*
X142198334Y-86210169D01*
X142195500Y-86183811D01*
X142195500Y-85240000D01*
X142664353Y-85240000D01*
X142684834Y-85382456D01*
X142726107Y-85472830D01*
X142744623Y-85513373D01*
X142838872Y-85622143D01*
X142959947Y-85699953D01*
X142959950Y-85699954D01*
X142959949Y-85699954D01*
X143098036Y-85740499D01*
X143098038Y-85740500D01*
X143098039Y-85740500D01*
X143241958Y-85740500D01*
X143241961Y-85740500D01*
X143241963Y-85740499D01*
X143248897Y-85739502D01*
X143318056Y-85749442D01*
X143354231Y-85774558D01*
X159080882Y-101501209D01*
X159114367Y-101562532D01*
X159111132Y-101627207D01*
X159072199Y-101747032D01*
X159072197Y-101747037D01*
X159051916Y-101940000D01*
X159072197Y-102132962D01*
X159072198Y-102132964D01*
X159132150Y-102317480D01*
X159132153Y-102317486D01*
X159229164Y-102485514D01*
X159358991Y-102629701D01*
X159515953Y-102743741D01*
X159515954Y-102743741D01*
X159515958Y-102743744D01*
X159660510Y-102808103D01*
X159693201Y-102822658D01*
X159693206Y-102822660D01*
X159882989Y-102863000D01*
X160077011Y-102863000D01*
X160266794Y-102822660D01*
X160444042Y-102743744D01*
X160601009Y-102629701D01*
X160730836Y-102485514D01*
X160827847Y-102317486D01*
X160887803Y-102132960D01*
X160908084Y-101940000D01*
X160887803Y-101747040D01*
X160827847Y-101562514D01*
X160730836Y-101394486D01*
X160601009Y-101250299D01*
X160601008Y-101250298D01*
X160444046Y-101136258D01*
X160444043Y-101136256D01*
X160444042Y-101136256D01*
X160360577Y-101099095D01*
X160266798Y-101057341D01*
X160266793Y-101057339D01*
X160077011Y-101017000D01*
X159882989Y-101017000D01*
X159693208Y-101057339D01*
X159693204Y-101057340D01*
X159677273Y-101064433D01*
X159608023Y-101073716D01*
X159544747Y-101044085D01*
X159539160Y-101038833D01*
X143693968Y-85193641D01*
X143660483Y-85132318D01*
X143658916Y-85123639D01*
X143655165Y-85097543D01*
X143595377Y-84966627D01*
X143501128Y-84857857D01*
X143380053Y-84780047D01*
X143380051Y-84780046D01*
X143380049Y-84780045D01*
X143380050Y-84780045D01*
X143241963Y-84739500D01*
X143241961Y-84739500D01*
X143098039Y-84739500D01*
X143098036Y-84739500D01*
X142959949Y-84780045D01*
X142838873Y-84857856D01*
X142744623Y-84966626D01*
X142744622Y-84966628D01*
X142684834Y-85097543D01*
X142664353Y-85240000D01*
X142195500Y-85240000D01*
X142195500Y-79749111D01*
X142215185Y-79682072D01*
X142267989Y-79636317D01*
X142337147Y-79626373D01*
X142400703Y-79655398D01*
X142413209Y-79667904D01*
X142468872Y-79732143D01*
X142589947Y-79809953D01*
X142589950Y-79809954D01*
X142589949Y-79809954D01*
X142728036Y-79850499D01*
X142728038Y-79850500D01*
X142728039Y-79850500D01*
X142871962Y-79850500D01*
X142871962Y-79850499D01*
X143010053Y-79809953D01*
X143131128Y-79732143D01*
X143225377Y-79623373D01*
X143285165Y-79492457D01*
X143305647Y-79350000D01*
X143300687Y-79315507D01*
X143310630Y-79246353D01*
X143335741Y-79210184D01*
X143443695Y-79102230D01*
X143505016Y-79068747D01*
X143555566Y-79068296D01*
X143585749Y-79074300D01*
X143585752Y-79074300D01*
X144514249Y-79074300D01*
X144536544Y-79069865D01*
X144544431Y-79068296D01*
X144614023Y-79074523D01*
X144656305Y-79102232D01*
X154993934Y-89439861D01*
X154993935Y-89439862D01*
X155054538Y-89500465D01*
X155054540Y-89500466D01*
X155054544Y-89500469D01*
X155105694Y-89530000D01*
X155128762Y-89543318D01*
X155211547Y-89565500D01*
X155297252Y-89565500D01*
X159030547Y-89565500D01*
X159097586Y-89585185D01*
X159137934Y-89627500D01*
X159192290Y-89721647D01*
X159228902Y-89785061D01*
X159229163Y-89785512D01*
X159229162Y-89785512D01*
X159358991Y-89929701D01*
X159515953Y-90043741D01*
X159515954Y-90043741D01*
X159515958Y-90043744D01*
X159660510Y-90108103D01*
X159693201Y-90122658D01*
X159693206Y-90122660D01*
X159882989Y-90163000D01*
X160077011Y-90163000D01*
X160266794Y-90122660D01*
X160444042Y-90043744D01*
X160601009Y-89929701D01*
X160730836Y-89785514D01*
X160827847Y-89617486D01*
X160887803Y-89432960D01*
X160908084Y-89240000D01*
X160887803Y-89047040D01*
X160827847Y-88862514D01*
X160730836Y-88694486D01*
X160601009Y-88550299D01*
X160601008Y-88550298D01*
X160444046Y-88436258D01*
X160444043Y-88436256D01*
X160444042Y-88436256D01*
X160360577Y-88399095D01*
X160266798Y-88357341D01*
X160266793Y-88357339D01*
X160077011Y-88317000D01*
X159882989Y-88317000D01*
X159693206Y-88357339D01*
X159693201Y-88357341D01*
X159515958Y-88436256D01*
X159515953Y-88436258D01*
X159358991Y-88550298D01*
X159229162Y-88694487D01*
X159137934Y-88852500D01*
X159087367Y-88900716D01*
X159030547Y-88914500D01*
X155440589Y-88914500D01*
X155373550Y-88894815D01*
X155352908Y-88878181D01*
X153174724Y-86699997D01*
X158752830Y-86699997D01*
X158752830Y-86700002D01*
X158771473Y-86913094D01*
X158771473Y-86913098D01*
X158826834Y-87119709D01*
X158826838Y-87119718D01*
X158917238Y-87313582D01*
X158956620Y-87369825D01*
X158956621Y-87369826D01*
X159542352Y-86784094D01*
X159565792Y-86871571D01*
X159624311Y-86972930D01*
X159707070Y-87055689D01*
X159808429Y-87114208D01*
X159895905Y-87137647D01*
X159310172Y-87723378D01*
X159366417Y-87762761D01*
X159560281Y-87853161D01*
X159560290Y-87853165D01*
X159766903Y-87908526D01*
X159979998Y-87927170D01*
X159980002Y-87927170D01*
X160193094Y-87908526D01*
X160193098Y-87908526D01*
X160399709Y-87853165D01*
X160399718Y-87853161D01*
X160593584Y-87762760D01*
X160593588Y-87762758D01*
X160649826Y-87723379D01*
X160064095Y-87137647D01*
X160151571Y-87114208D01*
X160252930Y-87055689D01*
X160335689Y-86972930D01*
X160394208Y-86871571D01*
X160417647Y-86784094D01*
X161003379Y-87369826D01*
X161042758Y-87313588D01*
X161042760Y-87313584D01*
X161133161Y-87119718D01*
X161133165Y-87119709D01*
X161188526Y-86913098D01*
X161188526Y-86913094D01*
X161207170Y-86700002D01*
X161207170Y-86699997D01*
X161188526Y-86486905D01*
X161188526Y-86486901D01*
X161133165Y-86280290D01*
X161133161Y-86280281D01*
X161042761Y-86086417D01*
X161003377Y-86030172D01*
X160417647Y-86615904D01*
X160394208Y-86528429D01*
X160335689Y-86427070D01*
X160252930Y-86344311D01*
X160151571Y-86285792D01*
X160064095Y-86262352D01*
X160649826Y-85676621D01*
X160649825Y-85676620D01*
X160593582Y-85637238D01*
X160399718Y-85546838D01*
X160399709Y-85546834D01*
X160193096Y-85491473D01*
X159980002Y-85472830D01*
X159979998Y-85472830D01*
X159766905Y-85491473D01*
X159766901Y-85491473D01*
X159560290Y-85546834D01*
X159560281Y-85546837D01*
X159366412Y-85637241D01*
X159310172Y-85676619D01*
X159895905Y-86262352D01*
X159808429Y-86285792D01*
X159707070Y-86344311D01*
X159624311Y-86427070D01*
X159565792Y-86528429D01*
X159542352Y-86615905D01*
X158956619Y-86030172D01*
X158917241Y-86086412D01*
X158826837Y-86280281D01*
X158826834Y-86280290D01*
X158771473Y-86486901D01*
X158771473Y-86486905D01*
X158752830Y-86699997D01*
X153174724Y-86699997D01*
X144731319Y-78256592D01*
X144697834Y-78195269D01*
X144695000Y-78168911D01*
X144695000Y-77177649D01*
X144694999Y-77177647D01*
X144683368Y-77119171D01*
X144683367Y-77119169D01*
X144676036Y-77108197D01*
X144655158Y-77041523D01*
X144673641Y-76974143D01*
X144676037Y-76970415D01*
X144686132Y-76955306D01*
X144699665Y-76935053D01*
X144754927Y-76801637D01*
X144783100Y-76660006D01*
X145856899Y-76660006D01*
X145885071Y-76801630D01*
X145885073Y-76801638D01*
X145940331Y-76935045D01*
X145940332Y-76935046D01*
X145940335Y-76935053D01*
X145940338Y-76935057D01*
X145940340Y-76935061D01*
X145963964Y-76970418D01*
X145984841Y-77037095D01*
X145966356Y-77104475D01*
X145963964Y-77108197D01*
X145956632Y-77119170D01*
X145956631Y-77119170D01*
X145945000Y-77177647D01*
X145945000Y-78893552D01*
X145956631Y-78952029D01*
X145956632Y-78952030D01*
X146000947Y-79018352D01*
X146067269Y-79062667D01*
X146067270Y-79062668D01*
X146125747Y-79074299D01*
X146125750Y-79074300D01*
X146125752Y-79074300D01*
X147054249Y-79074300D01*
X147076544Y-79069865D01*
X147084431Y-79068296D01*
X147154023Y-79074523D01*
X147196305Y-79102232D01*
X153339594Y-85245520D01*
X153339604Y-85245531D01*
X153404539Y-85310466D01*
X153432587Y-85326659D01*
X153460636Y-85342853D01*
X153460638Y-85342854D01*
X153478760Y-85353317D01*
X153478761Y-85353317D01*
X153478762Y-85353318D01*
X153561547Y-85375501D01*
X153561549Y-85375501D01*
X153654849Y-85375501D01*
X153654865Y-85375500D01*
X156372851Y-85375500D01*
X156372853Y-85375500D01*
X156455639Y-85353318D01*
X156529862Y-85310465D01*
X157128508Y-84711819D01*
X157189831Y-84678334D01*
X157216189Y-84675500D01*
X160303811Y-84675500D01*
X160370850Y-84695185D01*
X160391492Y-84711819D01*
X161488181Y-85808508D01*
X161521666Y-85869831D01*
X161524500Y-85896189D01*
X161524500Y-89723810D01*
X161504815Y-89790849D01*
X161488181Y-89811491D01*
X160420839Y-90878833D01*
X160359516Y-90912318D01*
X160289824Y-90907334D01*
X160282722Y-90904431D01*
X160266798Y-90897341D01*
X160266793Y-90897339D01*
X160077011Y-90857000D01*
X159882989Y-90857000D01*
X159693206Y-90897339D01*
X159693201Y-90897341D01*
X159515958Y-90976256D01*
X159515953Y-90976258D01*
X159358991Y-91090298D01*
X159229163Y-91234487D01*
X159132153Y-91402513D01*
X159132150Y-91402519D01*
X159072198Y-91587035D01*
X159072197Y-91587037D01*
X159051916Y-91780000D01*
X159072197Y-91972962D01*
X159072198Y-91972964D01*
X159132150Y-92157480D01*
X159132153Y-92157486D01*
X159229164Y-92325514D01*
X159331353Y-92439006D01*
X159358991Y-92469701D01*
X159515953Y-92583741D01*
X159515954Y-92583741D01*
X159515958Y-92583744D01*
X159660510Y-92648103D01*
X159693201Y-92662658D01*
X159693206Y-92662660D01*
X159882989Y-92703000D01*
X160077011Y-92703000D01*
X160266794Y-92662660D01*
X160444042Y-92583744D01*
X160601009Y-92469701D01*
X160730836Y-92325514D01*
X160827847Y-92157486D01*
X160887803Y-91972960D01*
X160908084Y-91780000D01*
X160887803Y-91587040D01*
X160848867Y-91467207D01*
X160846872Y-91397366D01*
X160879115Y-91341210D01*
X161762820Y-90457506D01*
X161824142Y-90424022D01*
X161893834Y-90429006D01*
X161949767Y-90470878D01*
X161974184Y-90536342D01*
X161974500Y-90545188D01*
X161974500Y-91813810D01*
X161954815Y-91880849D01*
X161938181Y-91901491D01*
X160420839Y-93418832D01*
X160359516Y-93452317D01*
X160289824Y-93447333D01*
X160282727Y-93444432D01*
X160266802Y-93437342D01*
X160266793Y-93437339D01*
X160077011Y-93397000D01*
X159882989Y-93397000D01*
X159693206Y-93437339D01*
X159693201Y-93437341D01*
X159515958Y-93516256D01*
X159515953Y-93516258D01*
X159358991Y-93630298D01*
X159229163Y-93774487D01*
X159132153Y-93942513D01*
X159132150Y-93942519D01*
X159072198Y-94127035D01*
X159072197Y-94127037D01*
X159051916Y-94320000D01*
X159072197Y-94512962D01*
X159072198Y-94512964D01*
X159132150Y-94697480D01*
X159132153Y-94697486D01*
X159229164Y-94865514D01*
X159358991Y-95009701D01*
X159515953Y-95123741D01*
X159515954Y-95123741D01*
X159515958Y-95123744D01*
X159609043Y-95165188D01*
X159693201Y-95202658D01*
X159693206Y-95202660D01*
X159882989Y-95243000D01*
X160077011Y-95243000D01*
X160266794Y-95202660D01*
X160444042Y-95123744D01*
X160601009Y-95009701D01*
X160730836Y-94865514D01*
X160827847Y-94697486D01*
X160887803Y-94512960D01*
X160908084Y-94320000D01*
X160887803Y-94127040D01*
X160848867Y-94007207D01*
X160846872Y-93937366D01*
X160879115Y-93881210D01*
X162292820Y-92467505D01*
X162354142Y-92434022D01*
X162423834Y-92439006D01*
X162479767Y-92480878D01*
X162504184Y-92546342D01*
X162504500Y-92555188D01*
X162504500Y-93823810D01*
X162484815Y-93890849D01*
X162468181Y-93911491D01*
X160420839Y-95958832D01*
X160359516Y-95992317D01*
X160289824Y-95987333D01*
X160282727Y-95984432D01*
X160266802Y-95977342D01*
X160266793Y-95977339D01*
X160077011Y-95937000D01*
X159882989Y-95937000D01*
X159693206Y-95977339D01*
X159693201Y-95977341D01*
X159515958Y-96056256D01*
X159515953Y-96056258D01*
X159358991Y-96170298D01*
X159229163Y-96314487D01*
X159132153Y-96482513D01*
X159132150Y-96482519D01*
X159072198Y-96667035D01*
X159072197Y-96667037D01*
X159051916Y-96860000D01*
X159072197Y-97052962D01*
X159072198Y-97052964D01*
X159132150Y-97237480D01*
X159132153Y-97237486D01*
X159229164Y-97405514D01*
X159358991Y-97549701D01*
X159515953Y-97663741D01*
X159515954Y-97663741D01*
X159515958Y-97663744D01*
X159660510Y-97728103D01*
X159693201Y-97742658D01*
X159693206Y-97742660D01*
X159882989Y-97783000D01*
X160077011Y-97783000D01*
X160266794Y-97742660D01*
X160444042Y-97663744D01*
X160601009Y-97549701D01*
X160730836Y-97405514D01*
X160827847Y-97237486D01*
X160887803Y-97052960D01*
X160908084Y-96860000D01*
X160887803Y-96667040D01*
X160848867Y-96547207D01*
X160846872Y-96477366D01*
X160879115Y-96421210D01*
X162802819Y-94497507D01*
X162864142Y-94464022D01*
X162933834Y-94469006D01*
X162989767Y-94510878D01*
X163014184Y-94576342D01*
X163014500Y-94585188D01*
X163014500Y-95853810D01*
X162994815Y-95920849D01*
X162978181Y-95941491D01*
X160420839Y-98498832D01*
X160359516Y-98532317D01*
X160289824Y-98527333D01*
X160282727Y-98524432D01*
X160266802Y-98517342D01*
X160266793Y-98517339D01*
X160077011Y-98477000D01*
X159882989Y-98477000D01*
X159693206Y-98517339D01*
X159693201Y-98517341D01*
X159515958Y-98596256D01*
X159515953Y-98596258D01*
X159358991Y-98710298D01*
X159229163Y-98854487D01*
X159132153Y-99022513D01*
X159132150Y-99022519D01*
X159072198Y-99207035D01*
X159072197Y-99207037D01*
X159051916Y-99400000D01*
X159072197Y-99592962D01*
X159072198Y-99592964D01*
X159132150Y-99777480D01*
X159132153Y-99777486D01*
X159229164Y-99945514D01*
X159351599Y-100081491D01*
X159358991Y-100089701D01*
X159515953Y-100203741D01*
X159515954Y-100203741D01*
X159515958Y-100203744D01*
X159660510Y-100268103D01*
X159693201Y-100282658D01*
X159693206Y-100282660D01*
X159882989Y-100323000D01*
X160077011Y-100323000D01*
X160266794Y-100282660D01*
X160444042Y-100203744D01*
X160601009Y-100089701D01*
X160730836Y-99945514D01*
X160827847Y-99777486D01*
X160887803Y-99592960D01*
X160908084Y-99400000D01*
X160887803Y-99207040D01*
X160848867Y-99087207D01*
X160846872Y-99017366D01*
X160879115Y-98961210D01*
X163529652Y-96310672D01*
X163529657Y-96310669D01*
X163539860Y-96300465D01*
X163539862Y-96300465D01*
X163600465Y-96239862D01*
X163643318Y-96165638D01*
X163643489Y-96165000D01*
X163665501Y-96082852D01*
X163665501Y-95997147D01*
X163665501Y-95989552D01*
X163665500Y-95989534D01*
X163665500Y-84807149D01*
X163665500Y-84807147D01*
X163643318Y-84724362D01*
X163643314Y-84724355D01*
X163600469Y-84650144D01*
X163600463Y-84650136D01*
X160789864Y-81839537D01*
X160789862Y-81839535D01*
X160752750Y-81818108D01*
X160715640Y-81796682D01*
X160674246Y-81785591D01*
X160632853Y-81774500D01*
X160632852Y-81774500D01*
X155516189Y-81774500D01*
X155449150Y-81754815D01*
X155428508Y-81738181D01*
X153381819Y-79691492D01*
X153348334Y-79630169D01*
X153345500Y-79603811D01*
X153345500Y-79428997D01*
X153365185Y-79361958D01*
X153417989Y-79316203D01*
X153487147Y-79306259D01*
X153514599Y-79315398D01*
X153515101Y-79314054D01*
X153658120Y-79367396D01*
X153658127Y-79367398D01*
X153717655Y-79373799D01*
X153717672Y-79373800D01*
X153960000Y-79373800D01*
X154460000Y-79373800D01*
X154702328Y-79373800D01*
X154702344Y-79373799D01*
X154761872Y-79367398D01*
X154761879Y-79367396D01*
X154896586Y-79317154D01*
X154896593Y-79317150D01*
X155011687Y-79230990D01*
X155011690Y-79230987D01*
X155097850Y-79115893D01*
X155097854Y-79115886D01*
X155148096Y-78981179D01*
X155148098Y-78981172D01*
X155154499Y-78921644D01*
X155154500Y-78921627D01*
X155154500Y-78285600D01*
X154460000Y-78285600D01*
X154460000Y-79373800D01*
X153960000Y-79373800D01*
X153960000Y-77909600D01*
X153979685Y-77842561D01*
X154032489Y-77796806D01*
X154084000Y-77785600D01*
X155154500Y-77785600D01*
X155154500Y-77149572D01*
X155154499Y-77149555D01*
X155148098Y-77090027D01*
X155148096Y-77090020D01*
X155097854Y-76955313D01*
X155097850Y-76955306D01*
X155011691Y-76840214D01*
X155011682Y-76840205D01*
X154983339Y-76818987D01*
X154941468Y-76763054D01*
X154936033Y-76695530D01*
X154943100Y-76660006D01*
X156016899Y-76660006D01*
X156045071Y-76801630D01*
X156045073Y-76801638D01*
X156100331Y-76935045D01*
X156100332Y-76935046D01*
X156100335Y-76935053D01*
X156100338Y-76935057D01*
X156100340Y-76935061D01*
X156123964Y-76970418D01*
X156144841Y-77037095D01*
X156126356Y-77104475D01*
X156123964Y-77108197D01*
X156116632Y-77119170D01*
X156116631Y-77119170D01*
X156105000Y-77177647D01*
X156105000Y-78893552D01*
X156116631Y-78952029D01*
X156116632Y-78952030D01*
X156160947Y-79018352D01*
X156227269Y-79062667D01*
X156227270Y-79062668D01*
X156285747Y-79074299D01*
X156285750Y-79074300D01*
X156285752Y-79074300D01*
X157214250Y-79074300D01*
X157214251Y-79074299D01*
X157229068Y-79071352D01*
X157272729Y-79062668D01*
X157272729Y-79062667D01*
X157272731Y-79062667D01*
X157339052Y-79018352D01*
X157383367Y-78952031D01*
X157383367Y-78952029D01*
X157383368Y-78952029D01*
X157394999Y-78893552D01*
X157395000Y-78893550D01*
X157395000Y-77177649D01*
X157394999Y-77177647D01*
X157383368Y-77119171D01*
X157383367Y-77119169D01*
X157376036Y-77108197D01*
X157355158Y-77041523D01*
X157373641Y-76974143D01*
X157376037Y-76970415D01*
X157386132Y-76955306D01*
X157399665Y-76935053D01*
X157454927Y-76801637D01*
X157483100Y-76660006D01*
X158556899Y-76660006D01*
X158585071Y-76801630D01*
X158585073Y-76801638D01*
X158640331Y-76935045D01*
X158640332Y-76935046D01*
X158640335Y-76935053D01*
X158640338Y-76935057D01*
X158640340Y-76935061D01*
X158663964Y-76970418D01*
X158684841Y-77037095D01*
X158666356Y-77104475D01*
X158663964Y-77108197D01*
X158656632Y-77119170D01*
X158656631Y-77119170D01*
X158645000Y-77177647D01*
X158645000Y-78893552D01*
X158656631Y-78952029D01*
X158656632Y-78952030D01*
X158700947Y-79018352D01*
X158767269Y-79062667D01*
X158767270Y-79062668D01*
X158825747Y-79074299D01*
X158825750Y-79074300D01*
X158825752Y-79074300D01*
X159754250Y-79074300D01*
X159754251Y-79074299D01*
X159769068Y-79071352D01*
X159812729Y-79062668D01*
X159812729Y-79062667D01*
X159812731Y-79062667D01*
X159879052Y-79018352D01*
X159923367Y-78952031D01*
X159923367Y-78952029D01*
X159923368Y-78952029D01*
X159934999Y-78893552D01*
X159935000Y-78893550D01*
X159935000Y-77177649D01*
X159934999Y-77177647D01*
X159923368Y-77119171D01*
X159923367Y-77119169D01*
X159916036Y-77108197D01*
X159895158Y-77041523D01*
X159913641Y-76974143D01*
X159916037Y-76970415D01*
X159926132Y-76955306D01*
X159939665Y-76935053D01*
X159994927Y-76801637D01*
X160023100Y-76660006D01*
X161096899Y-76660006D01*
X161125071Y-76801630D01*
X161125073Y-76801638D01*
X161180331Y-76935045D01*
X161180332Y-76935046D01*
X161180335Y-76935053D01*
X161180338Y-76935057D01*
X161180340Y-76935061D01*
X161203964Y-76970418D01*
X161224841Y-77037095D01*
X161206356Y-77104475D01*
X161203964Y-77108197D01*
X161196632Y-77119170D01*
X161196631Y-77119170D01*
X161185000Y-77177647D01*
X161185000Y-78893552D01*
X161196631Y-78952029D01*
X161196632Y-78952030D01*
X161240947Y-79018352D01*
X161307269Y-79062667D01*
X161307270Y-79062668D01*
X161365747Y-79074299D01*
X161365750Y-79074300D01*
X161365752Y-79074300D01*
X162294250Y-79074300D01*
X162294251Y-79074299D01*
X162309068Y-79071352D01*
X162352729Y-79062668D01*
X162352729Y-79062667D01*
X162352731Y-79062667D01*
X162419052Y-79018352D01*
X162463367Y-78952031D01*
X162463367Y-78952029D01*
X162463368Y-78952029D01*
X162474999Y-78893552D01*
X162475000Y-78893550D01*
X162475000Y-77177649D01*
X162474999Y-77177647D01*
X162463368Y-77119171D01*
X162463367Y-77119169D01*
X162456036Y-77108197D01*
X162435158Y-77041523D01*
X162453641Y-76974143D01*
X162456037Y-76970415D01*
X162466132Y-76955306D01*
X162479665Y-76935053D01*
X162534927Y-76801637D01*
X162563100Y-76660006D01*
X163636899Y-76660006D01*
X163665071Y-76801630D01*
X163665073Y-76801638D01*
X163720331Y-76935045D01*
X163720332Y-76935046D01*
X163720335Y-76935053D01*
X163720338Y-76935057D01*
X163720340Y-76935061D01*
X163743964Y-76970418D01*
X163764841Y-77037095D01*
X163746356Y-77104475D01*
X163743964Y-77108197D01*
X163736632Y-77119170D01*
X163736631Y-77119170D01*
X163725000Y-77177647D01*
X163725000Y-78893552D01*
X163736631Y-78952029D01*
X163736632Y-78952030D01*
X163780947Y-79018352D01*
X163847269Y-79062667D01*
X163847270Y-79062668D01*
X163905747Y-79074299D01*
X163905750Y-79074300D01*
X163905752Y-79074300D01*
X164834250Y-79074300D01*
X164834251Y-79074299D01*
X164849068Y-79071352D01*
X164892729Y-79062668D01*
X164892729Y-79062667D01*
X164892731Y-79062667D01*
X164959052Y-79018352D01*
X165003367Y-78952031D01*
X165003367Y-78952029D01*
X165003368Y-78952029D01*
X165014999Y-78893552D01*
X165015000Y-78893550D01*
X165015000Y-77177649D01*
X165014999Y-77177647D01*
X165003368Y-77119171D01*
X165003367Y-77119169D01*
X164996036Y-77108197D01*
X164975158Y-77041523D01*
X164993641Y-76974143D01*
X164996037Y-76970415D01*
X165006132Y-76955306D01*
X165019665Y-76935053D01*
X165074927Y-76801637D01*
X165103100Y-76660006D01*
X166176899Y-76660006D01*
X166205071Y-76801630D01*
X166205073Y-76801638D01*
X166260331Y-76935045D01*
X166260332Y-76935046D01*
X166260335Y-76935053D01*
X166260338Y-76935057D01*
X166260340Y-76935061D01*
X166283964Y-76970418D01*
X166304841Y-77037095D01*
X166286356Y-77104475D01*
X166283964Y-77108197D01*
X166276632Y-77119170D01*
X166276631Y-77119170D01*
X166265000Y-77177647D01*
X166265000Y-78893552D01*
X166276631Y-78952029D01*
X166276632Y-78952030D01*
X166320947Y-79018352D01*
X166387269Y-79062667D01*
X166387270Y-79062668D01*
X166445747Y-79074299D01*
X166445750Y-79074300D01*
X166445752Y-79074300D01*
X167374250Y-79074300D01*
X167374251Y-79074299D01*
X167389068Y-79071352D01*
X167432729Y-79062668D01*
X167432729Y-79062667D01*
X167432731Y-79062667D01*
X167499052Y-79018352D01*
X167543367Y-78952031D01*
X167543367Y-78952029D01*
X167543368Y-78952029D01*
X167554999Y-78893552D01*
X167555000Y-78893550D01*
X167555000Y-77177649D01*
X167554999Y-77177647D01*
X167543368Y-77119171D01*
X167543367Y-77119169D01*
X167536036Y-77108197D01*
X167515158Y-77041523D01*
X167533641Y-76974143D01*
X167536037Y-76970415D01*
X167546132Y-76955306D01*
X167559665Y-76935053D01*
X167614927Y-76801637D01*
X167643100Y-76660004D01*
X167643100Y-76515596D01*
X167643100Y-76515593D01*
X167618959Y-76394231D01*
X167614927Y-76373963D01*
X167559665Y-76240547D01*
X167559663Y-76240545D01*
X167559663Y-76240543D01*
X167479436Y-76120476D01*
X167479433Y-76120472D01*
X167377327Y-76018366D01*
X167377323Y-76018363D01*
X167257256Y-75938136D01*
X167257253Y-75938135D01*
X167123838Y-75882873D01*
X167123830Y-75882871D01*
X166982206Y-75854700D01*
X166982204Y-75854700D01*
X166837796Y-75854700D01*
X166837794Y-75854700D01*
X166696169Y-75882871D01*
X166696161Y-75882873D01*
X166562746Y-75938135D01*
X166562743Y-75938136D01*
X166442676Y-76018363D01*
X166442672Y-76018366D01*
X166340566Y-76120472D01*
X166340563Y-76120476D01*
X166260336Y-76240543D01*
X166260335Y-76240546D01*
X166205073Y-76373961D01*
X166205071Y-76373969D01*
X166176900Y-76515593D01*
X166176900Y-76515596D01*
X166176900Y-76660004D01*
X166176900Y-76660006D01*
X166176899Y-76660006D01*
X165103100Y-76660006D01*
X165103100Y-76660004D01*
X165103100Y-76515596D01*
X165103100Y-76515593D01*
X165078959Y-76394231D01*
X165074927Y-76373963D01*
X165019665Y-76240547D01*
X165019663Y-76240545D01*
X165019663Y-76240543D01*
X164939436Y-76120476D01*
X164939433Y-76120472D01*
X164837327Y-76018366D01*
X164837323Y-76018363D01*
X164717256Y-75938136D01*
X164717253Y-75938135D01*
X164583838Y-75882873D01*
X164583830Y-75882871D01*
X164442206Y-75854700D01*
X164442204Y-75854700D01*
X164297796Y-75854700D01*
X164297794Y-75854700D01*
X164156169Y-75882871D01*
X164156161Y-75882873D01*
X164022746Y-75938135D01*
X164022743Y-75938136D01*
X163902676Y-76018363D01*
X163902672Y-76018366D01*
X163800566Y-76120472D01*
X163800563Y-76120476D01*
X163720336Y-76240543D01*
X163720335Y-76240546D01*
X163665073Y-76373961D01*
X163665071Y-76373969D01*
X163636900Y-76515593D01*
X163636900Y-76515596D01*
X163636900Y-76660004D01*
X163636900Y-76660006D01*
X163636899Y-76660006D01*
X162563100Y-76660006D01*
X162563100Y-76660004D01*
X162563100Y-76515596D01*
X162563100Y-76515593D01*
X162538959Y-76394231D01*
X162534927Y-76373963D01*
X162479665Y-76240547D01*
X162479663Y-76240545D01*
X162479663Y-76240543D01*
X162399436Y-76120476D01*
X162399433Y-76120472D01*
X162297327Y-76018366D01*
X162297323Y-76018363D01*
X162177256Y-75938136D01*
X162177253Y-75938135D01*
X162043838Y-75882873D01*
X162043830Y-75882871D01*
X161902206Y-75854700D01*
X161902204Y-75854700D01*
X161757796Y-75854700D01*
X161757794Y-75854700D01*
X161616169Y-75882871D01*
X161616161Y-75882873D01*
X161482746Y-75938135D01*
X161482743Y-75938136D01*
X161362676Y-76018363D01*
X161362672Y-76018366D01*
X161260566Y-76120472D01*
X161260563Y-76120476D01*
X161180336Y-76240543D01*
X161180335Y-76240546D01*
X161125073Y-76373961D01*
X161125071Y-76373969D01*
X161096900Y-76515593D01*
X161096900Y-76515596D01*
X161096900Y-76660004D01*
X161096900Y-76660006D01*
X161096899Y-76660006D01*
X160023100Y-76660006D01*
X160023100Y-76660004D01*
X160023100Y-76515596D01*
X160023100Y-76515593D01*
X159998959Y-76394231D01*
X159994927Y-76373963D01*
X159939665Y-76240547D01*
X159939663Y-76240545D01*
X159939663Y-76240543D01*
X159859436Y-76120476D01*
X159859433Y-76120472D01*
X159757327Y-76018366D01*
X159757323Y-76018363D01*
X159637256Y-75938136D01*
X159637253Y-75938135D01*
X159503838Y-75882873D01*
X159503830Y-75882871D01*
X159362206Y-75854700D01*
X159362204Y-75854700D01*
X159217796Y-75854700D01*
X159217794Y-75854700D01*
X159076169Y-75882871D01*
X159076161Y-75882873D01*
X158942746Y-75938135D01*
X158942743Y-75938136D01*
X158822676Y-76018363D01*
X158822672Y-76018366D01*
X158720566Y-76120472D01*
X158720563Y-76120476D01*
X158640336Y-76240543D01*
X158640335Y-76240546D01*
X158585073Y-76373961D01*
X158585071Y-76373969D01*
X158556900Y-76515593D01*
X158556900Y-76515596D01*
X158556900Y-76660004D01*
X158556900Y-76660006D01*
X158556899Y-76660006D01*
X157483100Y-76660006D01*
X157483100Y-76660004D01*
X157483100Y-76515596D01*
X157483100Y-76515593D01*
X157458959Y-76394231D01*
X157454927Y-76373963D01*
X157399665Y-76240547D01*
X157399663Y-76240545D01*
X157399663Y-76240543D01*
X157319436Y-76120476D01*
X157319433Y-76120472D01*
X157217327Y-76018366D01*
X157217323Y-76018363D01*
X157097256Y-75938136D01*
X157097253Y-75938135D01*
X156963838Y-75882873D01*
X156963830Y-75882871D01*
X156822206Y-75854700D01*
X156822204Y-75854700D01*
X156677796Y-75854700D01*
X156677794Y-75854700D01*
X156536169Y-75882871D01*
X156536161Y-75882873D01*
X156402746Y-75938135D01*
X156402743Y-75938136D01*
X156282676Y-76018363D01*
X156282672Y-76018366D01*
X156180566Y-76120472D01*
X156180563Y-76120476D01*
X156100336Y-76240543D01*
X156100335Y-76240546D01*
X156045073Y-76373961D01*
X156045071Y-76373969D01*
X156016900Y-76515593D01*
X156016900Y-76515596D01*
X156016900Y-76660004D01*
X156016900Y-76660006D01*
X156016899Y-76660006D01*
X154943100Y-76660006D01*
X154943100Y-76660004D01*
X154943100Y-76515596D01*
X154943100Y-76515593D01*
X154918959Y-76394231D01*
X154914927Y-76373963D01*
X154859665Y-76240547D01*
X154859663Y-76240545D01*
X154859663Y-76240543D01*
X154779436Y-76120476D01*
X154779433Y-76120472D01*
X154677327Y-76018366D01*
X154677323Y-76018363D01*
X154557256Y-75938136D01*
X154557253Y-75938135D01*
X154423838Y-75882873D01*
X154423830Y-75882871D01*
X154282206Y-75854700D01*
X154282204Y-75854700D01*
X154137796Y-75854700D01*
X154137794Y-75854700D01*
X153996169Y-75882871D01*
X153996161Y-75882873D01*
X153862746Y-75938135D01*
X153862743Y-75938136D01*
X153742676Y-76018363D01*
X153742672Y-76018366D01*
X153640566Y-76120472D01*
X153640563Y-76120476D01*
X153572602Y-76222187D01*
X153518990Y-76266992D01*
X153449665Y-76275699D01*
X153386637Y-76245544D01*
X153349918Y-76186101D01*
X153345500Y-76153296D01*
X153345500Y-74482303D01*
X153365185Y-74415264D01*
X153417989Y-74369509D01*
X153487147Y-74359565D01*
X153550703Y-74388590D01*
X153572602Y-74413412D01*
X153640563Y-74515124D01*
X153742672Y-74617233D01*
X153742676Y-74617236D01*
X153862743Y-74697463D01*
X153862745Y-74697463D01*
X153862747Y-74697465D01*
X153996163Y-74752727D01*
X154030846Y-74759626D01*
X154137793Y-74780900D01*
X154137796Y-74780900D01*
X154282206Y-74780900D01*
X154353503Y-74766717D01*
X154423837Y-74752727D01*
X154557253Y-74697465D01*
X154677324Y-74617236D01*
X154779436Y-74515124D01*
X154859665Y-74395053D01*
X154914927Y-74261637D01*
X154941198Y-74129568D01*
X154943100Y-74120006D01*
X156016899Y-74120006D01*
X156045071Y-74261630D01*
X156045073Y-74261638D01*
X156100335Y-74395053D01*
X156100336Y-74395056D01*
X156180563Y-74515123D01*
X156180566Y-74515127D01*
X156282672Y-74617233D01*
X156282676Y-74617236D01*
X156402743Y-74697463D01*
X156402745Y-74697463D01*
X156402747Y-74697465D01*
X156536163Y-74752727D01*
X156570846Y-74759626D01*
X156677793Y-74780900D01*
X156677796Y-74780900D01*
X156822206Y-74780900D01*
X156893503Y-74766717D01*
X156963837Y-74752727D01*
X157097253Y-74697465D01*
X157217324Y-74617236D01*
X157319436Y-74515124D01*
X157399665Y-74395053D01*
X157454927Y-74261637D01*
X157481198Y-74129568D01*
X157483100Y-74120006D01*
X157483100Y-73975593D01*
X157458601Y-73852433D01*
X157454927Y-73833963D01*
X157399665Y-73700547D01*
X157376035Y-73665183D01*
X157355158Y-73598507D01*
X157373642Y-73531127D01*
X157376021Y-73527424D01*
X157383367Y-73516431D01*
X157386069Y-73502850D01*
X157389412Y-73486044D01*
X158345500Y-73486044D01*
X158351901Y-73545572D01*
X158351903Y-73545579D01*
X158402145Y-73680286D01*
X158402149Y-73680293D01*
X158488309Y-73795387D01*
X158488310Y-73795388D01*
X158516659Y-73816610D01*
X158558531Y-73872543D01*
X158563967Y-73940067D01*
X158562766Y-73946106D01*
X158556900Y-73975596D01*
X158556900Y-74120004D01*
X158556900Y-74120006D01*
X158556899Y-74120006D01*
X158585071Y-74261630D01*
X158585073Y-74261638D01*
X158640335Y-74395053D01*
X158640336Y-74395056D01*
X158720563Y-74515123D01*
X158720566Y-74515127D01*
X158822672Y-74617233D01*
X158822676Y-74617236D01*
X158942743Y-74697463D01*
X158942745Y-74697463D01*
X158942747Y-74697465D01*
X159076163Y-74752727D01*
X159110846Y-74759626D01*
X159217793Y-74780900D01*
X159217796Y-74780900D01*
X159362206Y-74780900D01*
X159433503Y-74766717D01*
X159503837Y-74752727D01*
X159637253Y-74697465D01*
X159757324Y-74617236D01*
X159859436Y-74515124D01*
X159939665Y-74395053D01*
X159994927Y-74261637D01*
X160021198Y-74129568D01*
X160023100Y-74120006D01*
X161096899Y-74120006D01*
X161125071Y-74261630D01*
X161125073Y-74261638D01*
X161180335Y-74395053D01*
X161180336Y-74395056D01*
X161260563Y-74515123D01*
X161260566Y-74515127D01*
X161362672Y-74617233D01*
X161362676Y-74617236D01*
X161482743Y-74697463D01*
X161482745Y-74697463D01*
X161482747Y-74697465D01*
X161616163Y-74752727D01*
X161650846Y-74759626D01*
X161757793Y-74780900D01*
X161757796Y-74780900D01*
X161902206Y-74780900D01*
X161973503Y-74766717D01*
X162043837Y-74752727D01*
X162177253Y-74697465D01*
X162297324Y-74617236D01*
X162399436Y-74515124D01*
X162479665Y-74395053D01*
X162534927Y-74261637D01*
X162561198Y-74129568D01*
X162563100Y-74120006D01*
X162563100Y-73975593D01*
X162538601Y-73852433D01*
X162534927Y-73833963D01*
X162479665Y-73700547D01*
X162456035Y-73665183D01*
X162435158Y-73598507D01*
X162453642Y-73531127D01*
X162456021Y-73527424D01*
X162463367Y-73516431D01*
X162466069Y-73502850D01*
X162469412Y-73486044D01*
X163425500Y-73486044D01*
X163431901Y-73545572D01*
X163431903Y-73545579D01*
X163482145Y-73680286D01*
X163482149Y-73680293D01*
X163568309Y-73795387D01*
X163568310Y-73795388D01*
X163596659Y-73816610D01*
X163638531Y-73872543D01*
X163643967Y-73940067D01*
X163642766Y-73946106D01*
X163636900Y-73975596D01*
X163636900Y-74120004D01*
X163636900Y-74120006D01*
X163636899Y-74120006D01*
X163665071Y-74261630D01*
X163665073Y-74261638D01*
X163720335Y-74395053D01*
X163720336Y-74395056D01*
X163800563Y-74515123D01*
X163800566Y-74515127D01*
X163902672Y-74617233D01*
X163902676Y-74617236D01*
X164022743Y-74697463D01*
X164022745Y-74697463D01*
X164022747Y-74697465D01*
X164156163Y-74752727D01*
X164190846Y-74759626D01*
X164297793Y-74780900D01*
X164297796Y-74780900D01*
X164442206Y-74780900D01*
X164513503Y-74766717D01*
X164583837Y-74752727D01*
X164717253Y-74697465D01*
X164837324Y-74617236D01*
X164939436Y-74515124D01*
X165019665Y-74395053D01*
X165074927Y-74261637D01*
X165101198Y-74129568D01*
X165103100Y-74120006D01*
X166176899Y-74120006D01*
X166205071Y-74261630D01*
X166205073Y-74261638D01*
X166260335Y-74395053D01*
X166260336Y-74395056D01*
X166340563Y-74515123D01*
X166340566Y-74515127D01*
X166442672Y-74617233D01*
X166442676Y-74617236D01*
X166562743Y-74697463D01*
X166562745Y-74697463D01*
X166562747Y-74697465D01*
X166696163Y-74752727D01*
X166730846Y-74759626D01*
X166837793Y-74780900D01*
X166837796Y-74780900D01*
X166982206Y-74780900D01*
X167053503Y-74766717D01*
X167123837Y-74752727D01*
X167257253Y-74697465D01*
X167377324Y-74617236D01*
X167479436Y-74515124D01*
X167559665Y-74395053D01*
X167614927Y-74261637D01*
X167641198Y-74129568D01*
X167643100Y-74120006D01*
X168716899Y-74120006D01*
X168745071Y-74261630D01*
X168745073Y-74261638D01*
X168800335Y-74395053D01*
X168800336Y-74395056D01*
X168880563Y-74515123D01*
X168880566Y-74515127D01*
X168982672Y-74617233D01*
X168982676Y-74617236D01*
X169102743Y-74697463D01*
X169102745Y-74697463D01*
X169102747Y-74697465D01*
X169236163Y-74752727D01*
X169270846Y-74759626D01*
X169377793Y-74780900D01*
X169525637Y-74780900D01*
X169592676Y-74800585D01*
X169638431Y-74853389D01*
X169648375Y-74922547D01*
X169643568Y-74943218D01*
X169608557Y-75050969D01*
X169580500Y-75228113D01*
X169580500Y-75407486D01*
X169608557Y-75584630D01*
X169643568Y-75692382D01*
X169645563Y-75762223D01*
X169609483Y-75822056D01*
X169546782Y-75852884D01*
X169525637Y-75854700D01*
X169377794Y-75854700D01*
X169236169Y-75882871D01*
X169236161Y-75882873D01*
X169102746Y-75938135D01*
X169102743Y-75938136D01*
X168982676Y-76018363D01*
X168982672Y-76018366D01*
X168880566Y-76120472D01*
X168880563Y-76120476D01*
X168800336Y-76240543D01*
X168800335Y-76240546D01*
X168745073Y-76373961D01*
X168745071Y-76373969D01*
X168716900Y-76515593D01*
X168716900Y-76515596D01*
X168716900Y-76660004D01*
X168716900Y-76660006D01*
X168716899Y-76660006D01*
X168745071Y-76801630D01*
X168745073Y-76801638D01*
X168800331Y-76935045D01*
X168800332Y-76935046D01*
X168800335Y-76935053D01*
X168800338Y-76935057D01*
X168800340Y-76935061D01*
X168823964Y-76970418D01*
X168844841Y-77037095D01*
X168826356Y-77104475D01*
X168823964Y-77108197D01*
X168816632Y-77119170D01*
X168816631Y-77119170D01*
X168805000Y-77177647D01*
X168805000Y-78893552D01*
X168816631Y-78952029D01*
X168816632Y-78952030D01*
X168860947Y-79018352D01*
X168927269Y-79062667D01*
X168927270Y-79062668D01*
X168985747Y-79074299D01*
X168985750Y-79074300D01*
X168985752Y-79074300D01*
X169914250Y-79074300D01*
X169914251Y-79074299D01*
X169929068Y-79071352D01*
X169972729Y-79062668D01*
X169972729Y-79062667D01*
X169972731Y-79062667D01*
X170039052Y-79018352D01*
X170083367Y-78952031D01*
X170083367Y-78952029D01*
X170083368Y-78952029D01*
X170089412Y-78921644D01*
X171045500Y-78921644D01*
X171051901Y-78981172D01*
X171051903Y-78981179D01*
X171102145Y-79115886D01*
X171102149Y-79115893D01*
X171188309Y-79230987D01*
X171188312Y-79230990D01*
X171303406Y-79317150D01*
X171303413Y-79317154D01*
X171438120Y-79367396D01*
X171438127Y-79367398D01*
X171497655Y-79373799D01*
X171497672Y-79373800D01*
X171740000Y-79373800D01*
X172240000Y-79373800D01*
X172482328Y-79373800D01*
X172482344Y-79373799D01*
X172541872Y-79367398D01*
X172541879Y-79367396D01*
X172676586Y-79317154D01*
X172676593Y-79317150D01*
X172791687Y-79230990D01*
X172791690Y-79230987D01*
X172877850Y-79115893D01*
X172877854Y-79115886D01*
X172928096Y-78981179D01*
X172928098Y-78981172D01*
X172934499Y-78921644D01*
X172934500Y-78921627D01*
X172934500Y-78285600D01*
X172240000Y-78285600D01*
X172240000Y-79373800D01*
X171740000Y-79373800D01*
X171740000Y-78285600D01*
X171045500Y-78285600D01*
X171045500Y-78921644D01*
X170089412Y-78921644D01*
X170094999Y-78893552D01*
X170095000Y-78893550D01*
X170095000Y-77177649D01*
X170094999Y-77177647D01*
X170083368Y-77119171D01*
X170083367Y-77119169D01*
X170076036Y-77108197D01*
X170055158Y-77041523D01*
X170073641Y-76974143D01*
X170076037Y-76970415D01*
X170086132Y-76955306D01*
X170099665Y-76935053D01*
X170154927Y-76801637D01*
X170183100Y-76660004D01*
X170183100Y-76515596D01*
X170183100Y-76512162D01*
X170202785Y-76445123D01*
X170255589Y-76399368D01*
X170324747Y-76389424D01*
X170345402Y-76394227D01*
X170453166Y-76429242D01*
X170541742Y-76443271D01*
X170630314Y-76457300D01*
X170630319Y-76457300D01*
X170809686Y-76457300D01*
X170892891Y-76444121D01*
X170986834Y-76429242D01*
X171094586Y-76394230D01*
X171164422Y-76392235D01*
X171224255Y-76428315D01*
X171255084Y-76491016D01*
X171256900Y-76512162D01*
X171256900Y-76515596D01*
X171256900Y-76660004D01*
X171256900Y-76660006D01*
X171256899Y-76660006D01*
X171263966Y-76695529D01*
X171257739Y-76765121D01*
X171216662Y-76818986D01*
X171188315Y-76840206D01*
X171188308Y-76840214D01*
X171102149Y-76955306D01*
X171102145Y-76955313D01*
X171051903Y-77090020D01*
X171051901Y-77090027D01*
X171045500Y-77149555D01*
X171045500Y-77785600D01*
X172934500Y-77785600D01*
X172934500Y-77149572D01*
X172934499Y-77149555D01*
X172928098Y-77090027D01*
X172928096Y-77090020D01*
X172877854Y-76955313D01*
X172877850Y-76955306D01*
X172791691Y-76840214D01*
X172791682Y-76840205D01*
X172763339Y-76818987D01*
X172721468Y-76763054D01*
X172716033Y-76695530D01*
X172723100Y-76660004D01*
X172723100Y-76515596D01*
X172723100Y-76515593D01*
X172698959Y-76394231D01*
X172694927Y-76373963D01*
X172639665Y-76240547D01*
X172639663Y-76240545D01*
X172639663Y-76240543D01*
X172559436Y-76120476D01*
X172559433Y-76120472D01*
X172457327Y-76018366D01*
X172457323Y-76018363D01*
X172337256Y-75938136D01*
X172337253Y-75938135D01*
X172203838Y-75882873D01*
X172203830Y-75882871D01*
X172062206Y-75854700D01*
X172062204Y-75854700D01*
X171917796Y-75854700D01*
X171914363Y-75854700D01*
X171847324Y-75835015D01*
X171801569Y-75782211D01*
X171791625Y-75713053D01*
X171796432Y-75692382D01*
X171831442Y-75584634D01*
X171843912Y-75505899D01*
X171859500Y-75407486D01*
X171859500Y-75228113D01*
X171840794Y-75110017D01*
X171831442Y-75050966D01*
X171796431Y-74943217D01*
X171794437Y-74873377D01*
X171830517Y-74813544D01*
X171893218Y-74782716D01*
X171914363Y-74780900D01*
X172062206Y-74780900D01*
X172133503Y-74766717D01*
X172203837Y-74752727D01*
X172337253Y-74697465D01*
X172457324Y-74617236D01*
X172559436Y-74515124D01*
X172639665Y-74395053D01*
X172694927Y-74261637D01*
X172721198Y-74129568D01*
X172723100Y-74120006D01*
X172723100Y-73975593D01*
X172698601Y-73852433D01*
X172694927Y-73833963D01*
X172639665Y-73700547D01*
X172616035Y-73665183D01*
X172595158Y-73598507D01*
X172613642Y-73531127D01*
X172616021Y-73527424D01*
X172623367Y-73516431D01*
X172626069Y-73502850D01*
X172634999Y-73457952D01*
X172635000Y-73457950D01*
X172635000Y-71742049D01*
X172634999Y-71742047D01*
X172623368Y-71683570D01*
X172623367Y-71683569D01*
X172579052Y-71617247D01*
X172512730Y-71572932D01*
X172512729Y-71572931D01*
X172454252Y-71561300D01*
X172454248Y-71561300D01*
X171525752Y-71561300D01*
X171525747Y-71561300D01*
X171467270Y-71572931D01*
X171467269Y-71572932D01*
X171400947Y-71617247D01*
X171356632Y-71683569D01*
X171356631Y-71683570D01*
X171345000Y-71742047D01*
X171345000Y-73457952D01*
X171356631Y-73516429D01*
X171356632Y-73516431D01*
X171363962Y-73527400D01*
X171384841Y-73594077D01*
X171366357Y-73661457D01*
X171363965Y-73665180D01*
X171340339Y-73700540D01*
X171340331Y-73700554D01*
X171285073Y-73833961D01*
X171285071Y-73833969D01*
X171256900Y-73975593D01*
X171256900Y-74123437D01*
X171237215Y-74190476D01*
X171184411Y-74236231D01*
X171115253Y-74246175D01*
X171094584Y-74241368D01*
X170986834Y-74206358D01*
X170986832Y-74206357D01*
X170986830Y-74206357D01*
X170809686Y-74178300D01*
X170809681Y-74178300D01*
X170630319Y-74178300D01*
X170630314Y-74178300D01*
X170453169Y-74206357D01*
X170453166Y-74206358D01*
X170345417Y-74241368D01*
X170275577Y-74243363D01*
X170215744Y-74207283D01*
X170184916Y-74144582D01*
X170183100Y-74123437D01*
X170183100Y-73975593D01*
X170158601Y-73852433D01*
X170154927Y-73833963D01*
X170099665Y-73700547D01*
X170076035Y-73665183D01*
X170055158Y-73598507D01*
X170073642Y-73531127D01*
X170076021Y-73527424D01*
X170083367Y-73516431D01*
X170086069Y-73502850D01*
X170094999Y-73457952D01*
X170095000Y-73457950D01*
X170095000Y-71742049D01*
X170094999Y-71742047D01*
X170083368Y-71683570D01*
X170083367Y-71683569D01*
X170039052Y-71617247D01*
X169972730Y-71572932D01*
X169972729Y-71572931D01*
X169914252Y-71561300D01*
X169914248Y-71561300D01*
X168985752Y-71561300D01*
X168985747Y-71561300D01*
X168927270Y-71572931D01*
X168927269Y-71572932D01*
X168860947Y-71617247D01*
X168816632Y-71683569D01*
X168816631Y-71683570D01*
X168805000Y-71742047D01*
X168805000Y-73457952D01*
X168816631Y-73516429D01*
X168816632Y-73516431D01*
X168823962Y-73527400D01*
X168844841Y-73594077D01*
X168826357Y-73661457D01*
X168823965Y-73665180D01*
X168800339Y-73700540D01*
X168800331Y-73700554D01*
X168745073Y-73833961D01*
X168745071Y-73833969D01*
X168716900Y-73975593D01*
X168716900Y-73975595D01*
X168716900Y-73975596D01*
X168716900Y-74120004D01*
X168716900Y-74120006D01*
X168716899Y-74120006D01*
X167643100Y-74120006D01*
X167643100Y-73975593D01*
X167618601Y-73852433D01*
X167614927Y-73833963D01*
X167559665Y-73700547D01*
X167536035Y-73665183D01*
X167515158Y-73598507D01*
X167533642Y-73531127D01*
X167536021Y-73527424D01*
X167543367Y-73516431D01*
X167546069Y-73502850D01*
X167554999Y-73457952D01*
X167555000Y-73457950D01*
X167555000Y-71742049D01*
X167554999Y-71742047D01*
X167543368Y-71683570D01*
X167543367Y-71683569D01*
X167499052Y-71617247D01*
X167432730Y-71572932D01*
X167432729Y-71572931D01*
X167374252Y-71561300D01*
X167374248Y-71561300D01*
X166445752Y-71561300D01*
X166445747Y-71561300D01*
X166387270Y-71572931D01*
X166387269Y-71572932D01*
X166320947Y-71617247D01*
X166276632Y-71683569D01*
X166276631Y-71683570D01*
X166265000Y-71742047D01*
X166265000Y-73457952D01*
X166276631Y-73516429D01*
X166276632Y-73516431D01*
X166283962Y-73527400D01*
X166304841Y-73594077D01*
X166286357Y-73661457D01*
X166283965Y-73665180D01*
X166260339Y-73700540D01*
X166260331Y-73700554D01*
X166205073Y-73833961D01*
X166205071Y-73833969D01*
X166176900Y-73975593D01*
X166176900Y-73975595D01*
X166176900Y-73975596D01*
X166176900Y-74120004D01*
X166176900Y-74120006D01*
X166176899Y-74120006D01*
X165103100Y-74120006D01*
X165103100Y-73975595D01*
X165100430Y-73962176D01*
X165096033Y-73940067D01*
X165102259Y-73870479D01*
X165143341Y-73816609D01*
X165171688Y-73795388D01*
X165171690Y-73795386D01*
X165257852Y-73680288D01*
X165257854Y-73680286D01*
X165308096Y-73545579D01*
X165308098Y-73545572D01*
X165314499Y-73486044D01*
X165314500Y-73486027D01*
X165314500Y-72850000D01*
X163425500Y-72850000D01*
X163425500Y-73486044D01*
X162469412Y-73486044D01*
X162474999Y-73457952D01*
X162475000Y-73457950D01*
X162475000Y-71742049D01*
X162474999Y-71742047D01*
X162469412Y-71713955D01*
X163425500Y-71713955D01*
X163425500Y-72350000D01*
X164120000Y-72350000D01*
X164620000Y-72350000D01*
X165314500Y-72350000D01*
X165314500Y-71713972D01*
X165314499Y-71713955D01*
X165308098Y-71654427D01*
X165308096Y-71654420D01*
X165257854Y-71519713D01*
X165257850Y-71519706D01*
X165171690Y-71404612D01*
X165171687Y-71404609D01*
X165056593Y-71318449D01*
X165056586Y-71318445D01*
X164921879Y-71268203D01*
X164921872Y-71268201D01*
X164862344Y-71261800D01*
X164620000Y-71261800D01*
X164620000Y-72350000D01*
X164120000Y-72350000D01*
X164120000Y-71261800D01*
X163877655Y-71261800D01*
X163818127Y-71268201D01*
X163818120Y-71268203D01*
X163683413Y-71318445D01*
X163683406Y-71318449D01*
X163568312Y-71404609D01*
X163568309Y-71404612D01*
X163482149Y-71519706D01*
X163482145Y-71519713D01*
X163431903Y-71654420D01*
X163431901Y-71654427D01*
X163425500Y-71713955D01*
X162469412Y-71713955D01*
X162463368Y-71683570D01*
X162463367Y-71683569D01*
X162419052Y-71617247D01*
X162352730Y-71572932D01*
X162352729Y-71572931D01*
X162294252Y-71561300D01*
X162294248Y-71561300D01*
X161365752Y-71561300D01*
X161365747Y-71561300D01*
X161307270Y-71572931D01*
X161307269Y-71572932D01*
X161240947Y-71617247D01*
X161196632Y-71683569D01*
X161196631Y-71683570D01*
X161185000Y-71742047D01*
X161185000Y-73457952D01*
X161196631Y-73516429D01*
X161196632Y-73516431D01*
X161203962Y-73527400D01*
X161224841Y-73594077D01*
X161206357Y-73661457D01*
X161203965Y-73665180D01*
X161180339Y-73700540D01*
X161180331Y-73700554D01*
X161125073Y-73833961D01*
X161125071Y-73833969D01*
X161096900Y-73975593D01*
X161096900Y-73975595D01*
X161096900Y-73975596D01*
X161096900Y-74120004D01*
X161096900Y-74120006D01*
X161096899Y-74120006D01*
X160023100Y-74120006D01*
X160023100Y-73975595D01*
X160020430Y-73962176D01*
X160016033Y-73940067D01*
X160022259Y-73870479D01*
X160063341Y-73816609D01*
X160091688Y-73795388D01*
X160091690Y-73795386D01*
X160177852Y-73680288D01*
X160177854Y-73680286D01*
X160228096Y-73545579D01*
X160228098Y-73545572D01*
X160234499Y-73486044D01*
X160234500Y-73486027D01*
X160234500Y-72850000D01*
X158345500Y-72850000D01*
X158345500Y-73486044D01*
X157389412Y-73486044D01*
X157394999Y-73457952D01*
X157395000Y-73457950D01*
X157395000Y-71742049D01*
X157394999Y-71742047D01*
X157389412Y-71713955D01*
X158345500Y-71713955D01*
X158345500Y-72350000D01*
X159040000Y-72350000D01*
X159540000Y-72350000D01*
X160234500Y-72350000D01*
X160234500Y-71713972D01*
X160234499Y-71713955D01*
X160228098Y-71654427D01*
X160228096Y-71654420D01*
X160177854Y-71519713D01*
X160177850Y-71519706D01*
X160091690Y-71404612D01*
X160091687Y-71404609D01*
X159976593Y-71318449D01*
X159976586Y-71318445D01*
X159841879Y-71268203D01*
X159841872Y-71268201D01*
X159782344Y-71261800D01*
X159540000Y-71261800D01*
X159540000Y-72350000D01*
X159040000Y-72350000D01*
X159040000Y-71261800D01*
X158797655Y-71261800D01*
X158738127Y-71268201D01*
X158738120Y-71268203D01*
X158603413Y-71318445D01*
X158603406Y-71318449D01*
X158488312Y-71404609D01*
X158488309Y-71404612D01*
X158402149Y-71519706D01*
X158402145Y-71519713D01*
X158351903Y-71654420D01*
X158351901Y-71654427D01*
X158345500Y-71713955D01*
X157389412Y-71713955D01*
X157383368Y-71683570D01*
X157383367Y-71683569D01*
X157339052Y-71617247D01*
X157272730Y-71572932D01*
X157272729Y-71572931D01*
X157214252Y-71561300D01*
X157214248Y-71561300D01*
X156285752Y-71561300D01*
X156285747Y-71561300D01*
X156227270Y-71572931D01*
X156227269Y-71572932D01*
X156160947Y-71617247D01*
X156116632Y-71683569D01*
X156116631Y-71683570D01*
X156105000Y-71742047D01*
X156105000Y-73457952D01*
X156116631Y-73516429D01*
X156116632Y-73516431D01*
X156123962Y-73527400D01*
X156144841Y-73594077D01*
X156126357Y-73661457D01*
X156123965Y-73665180D01*
X156100339Y-73700540D01*
X156100331Y-73700554D01*
X156045073Y-73833961D01*
X156045071Y-73833969D01*
X156016900Y-73975593D01*
X156016900Y-73975595D01*
X156016900Y-73975596D01*
X156016900Y-74120004D01*
X156016900Y-74120006D01*
X156016899Y-74120006D01*
X154943100Y-74120006D01*
X154943100Y-73975593D01*
X154918601Y-73852433D01*
X154914927Y-73833963D01*
X154859665Y-73700547D01*
X154836035Y-73665183D01*
X154815158Y-73598507D01*
X154833642Y-73531127D01*
X154836021Y-73527424D01*
X154843367Y-73516431D01*
X154846069Y-73502850D01*
X154854999Y-73457952D01*
X154855000Y-73457950D01*
X154855000Y-71742049D01*
X154854999Y-71742047D01*
X154843368Y-71683570D01*
X154843367Y-71683569D01*
X154799052Y-71617247D01*
X154732730Y-71572932D01*
X154732729Y-71572931D01*
X154674252Y-71561300D01*
X154674248Y-71561300D01*
X153745752Y-71561300D01*
X153745747Y-71561300D01*
X153687270Y-71572931D01*
X153687269Y-71572932D01*
X153620947Y-71617247D01*
X153576632Y-71683569D01*
X153576631Y-71683570D01*
X153565000Y-71742047D01*
X153565000Y-73204459D01*
X153545315Y-73271498D01*
X153492511Y-73317253D01*
X153423353Y-73327197D01*
X153359797Y-73298172D01*
X153329280Y-73250687D01*
X153326427Y-73251869D01*
X153323320Y-73244369D01*
X153323318Y-73244362D01*
X153297568Y-73199761D01*
X153280469Y-73170144D01*
X153280463Y-73170136D01*
X152449864Y-72339537D01*
X152449862Y-72339535D01*
X152447425Y-72338128D01*
X152376999Y-72297466D01*
X152328784Y-72246899D01*
X152315000Y-72190080D01*
X152315000Y-71742049D01*
X152314999Y-71742047D01*
X152303368Y-71683570D01*
X152303367Y-71683569D01*
X152259052Y-71617247D01*
X152192730Y-71572932D01*
X152192729Y-71572931D01*
X152134252Y-71561300D01*
X152134248Y-71561300D01*
X151205752Y-71561300D01*
X151205747Y-71561300D01*
X151147270Y-71572931D01*
X151147269Y-71572932D01*
X151080947Y-71617247D01*
X151036632Y-71683569D01*
X151036631Y-71683570D01*
X151025000Y-71742047D01*
X151025000Y-73457952D01*
X151036631Y-73516429D01*
X151036632Y-73516431D01*
X151043962Y-73527400D01*
X151064841Y-73594077D01*
X151046357Y-73661457D01*
X151043965Y-73665180D01*
X151020339Y-73700540D01*
X151020331Y-73700554D01*
X150965073Y-73833961D01*
X150965071Y-73833969D01*
X150936900Y-73975593D01*
X150936900Y-73975595D01*
X150936900Y-73975596D01*
X150936900Y-74120004D01*
X150936900Y-74120006D01*
X150936899Y-74120006D01*
X150965071Y-74261630D01*
X150965073Y-74261638D01*
X151020335Y-74395053D01*
X151020336Y-74395056D01*
X151100563Y-74515123D01*
X151100566Y-74515127D01*
X151202672Y-74617233D01*
X151202676Y-74617236D01*
X151322743Y-74697463D01*
X151322745Y-74697463D01*
X151322747Y-74697465D01*
X151456163Y-74752727D01*
X151490846Y-74759626D01*
X151597793Y-74780900D01*
X151597796Y-74780900D01*
X151742206Y-74780900D01*
X151813503Y-74766717D01*
X151883837Y-74752727D01*
X152017253Y-74697465D01*
X152137324Y-74617236D01*
X152239436Y-74515124D01*
X152319665Y-74395053D01*
X152374927Y-74261637D01*
X152401198Y-74129568D01*
X152403100Y-74120006D01*
X152403100Y-73975593D01*
X152378601Y-73852433D01*
X152374927Y-73833963D01*
X152319665Y-73700547D01*
X152296035Y-73665183D01*
X152275158Y-73598507D01*
X152293642Y-73531127D01*
X152296021Y-73527424D01*
X152303367Y-73516431D01*
X152306069Y-73502850D01*
X152314999Y-73457952D01*
X152315000Y-73457950D01*
X152315000Y-73424689D01*
X152334685Y-73357650D01*
X152387489Y-73311895D01*
X152456647Y-73301951D01*
X152520203Y-73330976D01*
X152526681Y-73337008D01*
X152658181Y-73468508D01*
X152691666Y-73529831D01*
X152694500Y-73556189D01*
X152694500Y-79747147D01*
X152694500Y-79832853D01*
X152699228Y-79850500D01*
X152710638Y-79893081D01*
X152708975Y-79962931D01*
X152669812Y-80020793D01*
X152605583Y-80048297D01*
X152536681Y-80036710D01*
X152503182Y-80012855D01*
X152031819Y-79541492D01*
X151998334Y-79480169D01*
X151995500Y-79453811D01*
X151995500Y-79198300D01*
X152015185Y-79131261D01*
X152067989Y-79085506D01*
X152119500Y-79074300D01*
X152134250Y-79074300D01*
X152134251Y-79074299D01*
X152149068Y-79071352D01*
X152192729Y-79062668D01*
X152192729Y-79062667D01*
X152192731Y-79062667D01*
X152259052Y-79018352D01*
X152303367Y-78952031D01*
X152303367Y-78952029D01*
X152303368Y-78952029D01*
X152314999Y-78893552D01*
X152315000Y-78893550D01*
X152315000Y-77177649D01*
X152314999Y-77177647D01*
X152303368Y-77119171D01*
X152303367Y-77119169D01*
X152296036Y-77108197D01*
X152275158Y-77041523D01*
X152293641Y-76974143D01*
X152296037Y-76970415D01*
X152306132Y-76955306D01*
X152319665Y-76935053D01*
X152374927Y-76801637D01*
X152403100Y-76660004D01*
X152403100Y-76515596D01*
X152403100Y-76515593D01*
X152378959Y-76394231D01*
X152374927Y-76373963D01*
X152319665Y-76240547D01*
X152319663Y-76240545D01*
X152319663Y-76240543D01*
X152239436Y-76120476D01*
X152239433Y-76120472D01*
X152137327Y-76018366D01*
X152137323Y-76018363D01*
X152017256Y-75938136D01*
X152017253Y-75938135D01*
X151883838Y-75882873D01*
X151883830Y-75882871D01*
X151742206Y-75854700D01*
X151742204Y-75854700D01*
X151597796Y-75854700D01*
X151597794Y-75854700D01*
X151456169Y-75882871D01*
X151456161Y-75882873D01*
X151322746Y-75938135D01*
X151322743Y-75938136D01*
X151202676Y-76018363D01*
X151202672Y-76018366D01*
X151100566Y-76120472D01*
X151100563Y-76120476D01*
X151020336Y-76240543D01*
X151020335Y-76240546D01*
X150965073Y-76373961D01*
X150965071Y-76373969D01*
X150936900Y-76515593D01*
X150936900Y-76515596D01*
X150936900Y-76660004D01*
X150936900Y-76660006D01*
X150936899Y-76660006D01*
X150965071Y-76801630D01*
X150965073Y-76801638D01*
X151020331Y-76935045D01*
X151020332Y-76935046D01*
X151020335Y-76935053D01*
X151020338Y-76935057D01*
X151020340Y-76935061D01*
X151043964Y-76970418D01*
X151064841Y-77037095D01*
X151046356Y-77104475D01*
X151043964Y-77108197D01*
X151036632Y-77119170D01*
X151036631Y-77119170D01*
X151025000Y-77177647D01*
X151025000Y-78893552D01*
X151036631Y-78952029D01*
X151036632Y-78952030D01*
X151080947Y-79018352D01*
X151147269Y-79062667D01*
X151147270Y-79062668D01*
X151205747Y-79074299D01*
X151205750Y-79074300D01*
X151205752Y-79074300D01*
X151220500Y-79074300D01*
X151287539Y-79093985D01*
X151333294Y-79146789D01*
X151344500Y-79198300D01*
X151344500Y-79490411D01*
X151324815Y-79557450D01*
X151272011Y-79603205D01*
X151202853Y-79613149D01*
X151139297Y-79584124D01*
X151132819Y-79578092D01*
X149811319Y-78256592D01*
X149777834Y-78195269D01*
X149775000Y-78168911D01*
X149775000Y-77177649D01*
X149774999Y-77177647D01*
X149763368Y-77119171D01*
X149763367Y-77119169D01*
X149756036Y-77108197D01*
X149735158Y-77041523D01*
X149753641Y-76974143D01*
X149756037Y-76970415D01*
X149766132Y-76955306D01*
X149779665Y-76935053D01*
X149834927Y-76801637D01*
X149863100Y-76660004D01*
X149863100Y-76515596D01*
X149863100Y-76515593D01*
X149838959Y-76394231D01*
X149834927Y-76373963D01*
X149779665Y-76240547D01*
X149779663Y-76240545D01*
X149779663Y-76240543D01*
X149699436Y-76120476D01*
X149699433Y-76120472D01*
X149597327Y-76018366D01*
X149597323Y-76018363D01*
X149477256Y-75938136D01*
X149477253Y-75938135D01*
X149343838Y-75882873D01*
X149343830Y-75882871D01*
X149202206Y-75854700D01*
X149202204Y-75854700D01*
X149057796Y-75854700D01*
X149057794Y-75854700D01*
X148916169Y-75882871D01*
X148916161Y-75882873D01*
X148782746Y-75938135D01*
X148782743Y-75938136D01*
X148662676Y-76018363D01*
X148662672Y-76018366D01*
X148560566Y-76120472D01*
X148560563Y-76120476D01*
X148480336Y-76240543D01*
X148480335Y-76240546D01*
X148425073Y-76373961D01*
X148425071Y-76373969D01*
X148396900Y-76515593D01*
X148396900Y-76515596D01*
X148396900Y-76660004D01*
X148396900Y-76660006D01*
X148396899Y-76660006D01*
X148425071Y-76801630D01*
X148425073Y-76801638D01*
X148480331Y-76935045D01*
X148480332Y-76935046D01*
X148480335Y-76935053D01*
X148480338Y-76935057D01*
X148480340Y-76935061D01*
X148503964Y-76970418D01*
X148524841Y-77037095D01*
X148506356Y-77104475D01*
X148503964Y-77108197D01*
X148496632Y-77119170D01*
X148496631Y-77119170D01*
X148485000Y-77177647D01*
X148485000Y-78893552D01*
X148496631Y-78952029D01*
X148496632Y-78952030D01*
X148540947Y-79018352D01*
X148607269Y-79062667D01*
X148607270Y-79062668D01*
X148665747Y-79074299D01*
X148665750Y-79074300D01*
X148665752Y-79074300D01*
X149594249Y-79074300D01*
X149616544Y-79069865D01*
X149624431Y-79068296D01*
X149694023Y-79074523D01*
X149736305Y-79102232D01*
X154323934Y-83689861D01*
X154323935Y-83689862D01*
X154384538Y-83750465D01*
X154384540Y-83750466D01*
X154384544Y-83750469D01*
X154458755Y-83793314D01*
X154458762Y-83793318D01*
X154541547Y-83815500D01*
X156842007Y-83815500D01*
X156909046Y-83835185D01*
X156954801Y-83887989D01*
X156964745Y-83957147D01*
X156935720Y-84020703D01*
X156904007Y-84046886D01*
X156865330Y-84069216D01*
X156830139Y-84089534D01*
X156830136Y-84089536D01*
X156231492Y-84688181D01*
X156170169Y-84721666D01*
X156143811Y-84724500D01*
X153790588Y-84724500D01*
X153723549Y-84704815D01*
X153702907Y-84688181D01*
X147271319Y-78256592D01*
X147237834Y-78195269D01*
X147235000Y-78168911D01*
X147235000Y-77177649D01*
X147234999Y-77177647D01*
X147223368Y-77119171D01*
X147223367Y-77119169D01*
X147216036Y-77108197D01*
X147195158Y-77041523D01*
X147213641Y-76974143D01*
X147216037Y-76970415D01*
X147226132Y-76955306D01*
X147239665Y-76935053D01*
X147294927Y-76801637D01*
X147323100Y-76660004D01*
X147323100Y-76515596D01*
X147323100Y-76515593D01*
X147298959Y-76394231D01*
X147294927Y-76373963D01*
X147239665Y-76240547D01*
X147239663Y-76240545D01*
X147239663Y-76240543D01*
X147159436Y-76120476D01*
X147159433Y-76120472D01*
X147057327Y-76018366D01*
X147057323Y-76018363D01*
X146937256Y-75938136D01*
X146937253Y-75938135D01*
X146803838Y-75882873D01*
X146803830Y-75882871D01*
X146662206Y-75854700D01*
X146662204Y-75854700D01*
X146517796Y-75854700D01*
X146517794Y-75854700D01*
X146376169Y-75882871D01*
X146376161Y-75882873D01*
X146242746Y-75938135D01*
X146242743Y-75938136D01*
X146122676Y-76018363D01*
X146122672Y-76018366D01*
X146020566Y-76120472D01*
X146020563Y-76120476D01*
X145940336Y-76240543D01*
X145940335Y-76240546D01*
X145885073Y-76373961D01*
X145885071Y-76373969D01*
X145856900Y-76515593D01*
X145856900Y-76515596D01*
X145856900Y-76660004D01*
X145856900Y-76660006D01*
X145856899Y-76660006D01*
X144783100Y-76660006D01*
X144783100Y-76660004D01*
X144783100Y-76515596D01*
X144783100Y-76515593D01*
X144758959Y-76394231D01*
X144754927Y-76373963D01*
X144699665Y-76240547D01*
X144699663Y-76240545D01*
X144699663Y-76240543D01*
X144619436Y-76120476D01*
X144619433Y-76120472D01*
X144517327Y-76018366D01*
X144517323Y-76018363D01*
X144397256Y-75938136D01*
X144397253Y-75938135D01*
X144263838Y-75882873D01*
X144263830Y-75882871D01*
X144122206Y-75854700D01*
X144122204Y-75854700D01*
X143977796Y-75854700D01*
X143977794Y-75854700D01*
X143836169Y-75882871D01*
X143836161Y-75882873D01*
X143702746Y-75938135D01*
X143702743Y-75938136D01*
X143582676Y-76018363D01*
X143582672Y-76018366D01*
X143480566Y-76120472D01*
X143480563Y-76120476D01*
X143400336Y-76240543D01*
X143400335Y-76240546D01*
X143345073Y-76373961D01*
X143345071Y-76373969D01*
X143316900Y-76515593D01*
X143316900Y-76515596D01*
X143316900Y-76660004D01*
X143316900Y-76660006D01*
X143316899Y-76660006D01*
X143345071Y-76801630D01*
X143345073Y-76801638D01*
X143400331Y-76935045D01*
X143400332Y-76935046D01*
X143400335Y-76935053D01*
X143400338Y-76935057D01*
X143400340Y-76935061D01*
X143423964Y-76970418D01*
X143444841Y-77037095D01*
X143426356Y-77104475D01*
X143423964Y-77108197D01*
X143416632Y-77119170D01*
X143416631Y-77119170D01*
X143405000Y-77177647D01*
X143405000Y-78168911D01*
X143385315Y-78235950D01*
X143368681Y-78256592D01*
X142812092Y-78813181D01*
X142750769Y-78846666D01*
X142736805Y-78848167D01*
X142736816Y-78848238D01*
X142728036Y-78849500D01*
X142589949Y-78890045D01*
X142468873Y-78967856D01*
X142468872Y-78967856D01*
X142468872Y-78967857D01*
X142465057Y-78972260D01*
X142413213Y-79032091D01*
X142354434Y-79069865D01*
X142284565Y-79069865D01*
X142225787Y-79032090D01*
X142196762Y-78968534D01*
X142195500Y-78950888D01*
X142195500Y-78352749D01*
X142195500Y-78352747D01*
X142173318Y-78269962D01*
X142173318Y-78269961D01*
X142171613Y-78267007D01*
X142155000Y-78205007D01*
X142155000Y-77177649D01*
X142154999Y-77177647D01*
X142143368Y-77119171D01*
X142143367Y-77119169D01*
X142136036Y-77108197D01*
X142115158Y-77041523D01*
X142133641Y-76974143D01*
X142136037Y-76970415D01*
X142146132Y-76955306D01*
X142159665Y-76935053D01*
X142214927Y-76801637D01*
X142243100Y-76660004D01*
X142243100Y-76515596D01*
X142243100Y-76515593D01*
X142218959Y-76394231D01*
X142214927Y-76373963D01*
X142159665Y-76240547D01*
X142159663Y-76240545D01*
X142159663Y-76240543D01*
X142079436Y-76120476D01*
X142079433Y-76120472D01*
X141977327Y-76018366D01*
X141977323Y-76018363D01*
X141857256Y-75938136D01*
X141857253Y-75938135D01*
X141723838Y-75882873D01*
X141723830Y-75882871D01*
X141582206Y-75854700D01*
X141582204Y-75854700D01*
X141437796Y-75854700D01*
X141437794Y-75854700D01*
X141296169Y-75882871D01*
X141296161Y-75882873D01*
X141162746Y-75938135D01*
X141162743Y-75938136D01*
X141042676Y-76018363D01*
X141042672Y-76018366D01*
X140940566Y-76120472D01*
X140940563Y-76120476D01*
X140860336Y-76240543D01*
X140860335Y-76240546D01*
X140805073Y-76373961D01*
X140805071Y-76373969D01*
X140776900Y-76515593D01*
X140776900Y-76515596D01*
X140776900Y-76660004D01*
X140776900Y-76660006D01*
X140776899Y-76660006D01*
X140805071Y-76801630D01*
X140805073Y-76801638D01*
X140860331Y-76935045D01*
X140860332Y-76935046D01*
X140860335Y-76935053D01*
X140860338Y-76935057D01*
X140860340Y-76935061D01*
X140883964Y-76970418D01*
X140904841Y-77037095D01*
X140886356Y-77104475D01*
X140883964Y-77108197D01*
X140876632Y-77119170D01*
X140876631Y-77119170D01*
X140865000Y-77177647D01*
X140865000Y-78893552D01*
X140876631Y-78952029D01*
X140876632Y-78952030D01*
X140920947Y-79018352D01*
X140987269Y-79062667D01*
X140987270Y-79062668D01*
X141045747Y-79074299D01*
X141045750Y-79074300D01*
X141045752Y-79074300D01*
X141420500Y-79074300D01*
X141487539Y-79093985D01*
X141533294Y-79146789D01*
X141544500Y-79198300D01*
X141544500Y-82844811D01*
X141524815Y-82911850D01*
X141472011Y-82957605D01*
X141402853Y-82967549D01*
X141339297Y-82938524D01*
X141332819Y-82932492D01*
X138081819Y-79681492D01*
X138048334Y-79620169D01*
X138045500Y-79593811D01*
X138045500Y-76894930D01*
X138065185Y-76827891D01*
X138117989Y-76782136D01*
X138187147Y-76772192D01*
X138250703Y-76801217D01*
X138284061Y-76847478D01*
X138320331Y-76935046D01*
X138320340Y-76935061D01*
X138343964Y-76970418D01*
X138364841Y-77037095D01*
X138346356Y-77104475D01*
X138343964Y-77108197D01*
X138336632Y-77119170D01*
X138336631Y-77119170D01*
X138325000Y-77177647D01*
X138325000Y-78893552D01*
X138336631Y-78952029D01*
X138336632Y-78952030D01*
X138380947Y-79018352D01*
X138447269Y-79062667D01*
X138447270Y-79062668D01*
X138505747Y-79074299D01*
X138505750Y-79074300D01*
X138505752Y-79074300D01*
X139434250Y-79074300D01*
X139434251Y-79074299D01*
X139449068Y-79071352D01*
X139492729Y-79062668D01*
X139492729Y-79062667D01*
X139492731Y-79062667D01*
X139559052Y-79018352D01*
X139603367Y-78952031D01*
X139603367Y-78952029D01*
X139603368Y-78952029D01*
X139614999Y-78893552D01*
X139615000Y-78893550D01*
X139615000Y-77177649D01*
X139614999Y-77177647D01*
X139603368Y-77119171D01*
X139603367Y-77119169D01*
X139596036Y-77108197D01*
X139575158Y-77041523D01*
X139593641Y-76974143D01*
X139596037Y-76970415D01*
X139606132Y-76955306D01*
X139619665Y-76935053D01*
X139674927Y-76801637D01*
X139703100Y-76660004D01*
X139703100Y-76515596D01*
X139703100Y-76515593D01*
X139678959Y-76394231D01*
X139674927Y-76373963D01*
X139619665Y-76240547D01*
X139619663Y-76240545D01*
X139619663Y-76240543D01*
X139539436Y-76120476D01*
X139539433Y-76120472D01*
X139437327Y-76018366D01*
X139437323Y-76018363D01*
X139317256Y-75938136D01*
X139317253Y-75938135D01*
X139183838Y-75882873D01*
X139183830Y-75882871D01*
X139042206Y-75854700D01*
X139042204Y-75854700D01*
X138897796Y-75854700D01*
X138897794Y-75854700D01*
X138756169Y-75882871D01*
X138756161Y-75882873D01*
X138622746Y-75938135D01*
X138622743Y-75938136D01*
X138502676Y-76018363D01*
X138502672Y-76018366D01*
X138400566Y-76120472D01*
X138400563Y-76120476D01*
X138320336Y-76240543D01*
X138320335Y-76240546D01*
X138284061Y-76328121D01*
X138240221Y-76382525D01*
X138173926Y-76404590D01*
X138106227Y-76387311D01*
X138058616Y-76336174D01*
X138045500Y-76280669D01*
X138045500Y-74354930D01*
X138065185Y-74287891D01*
X138117989Y-74242136D01*
X138187147Y-74232192D01*
X138250703Y-74261217D01*
X138284060Y-74307477D01*
X138314476Y-74380908D01*
X138320335Y-74395053D01*
X138320336Y-74395056D01*
X138400563Y-74515123D01*
X138400566Y-74515127D01*
X138502672Y-74617233D01*
X138502676Y-74617236D01*
X138622743Y-74697463D01*
X138622745Y-74697463D01*
X138622747Y-74697465D01*
X138756163Y-74752727D01*
X138790846Y-74759626D01*
X138897793Y-74780900D01*
X138897796Y-74780900D01*
X139042206Y-74780900D01*
X139113503Y-74766717D01*
X139183837Y-74752727D01*
X139317253Y-74697465D01*
X139437324Y-74617236D01*
X139539436Y-74515124D01*
X139619665Y-74395053D01*
X139674927Y-74261637D01*
X139701198Y-74129568D01*
X139703100Y-74120006D01*
X140776899Y-74120006D01*
X140805071Y-74261630D01*
X140805073Y-74261638D01*
X140860335Y-74395053D01*
X140860336Y-74395056D01*
X140940563Y-74515123D01*
X140940566Y-74515127D01*
X141042672Y-74617233D01*
X141042676Y-74617236D01*
X141162743Y-74697463D01*
X141162745Y-74697463D01*
X141162747Y-74697465D01*
X141296163Y-74752727D01*
X141330846Y-74759626D01*
X141437793Y-74780900D01*
X141437796Y-74780900D01*
X141582206Y-74780900D01*
X141653503Y-74766717D01*
X141723837Y-74752727D01*
X141857253Y-74697465D01*
X141977324Y-74617236D01*
X142079436Y-74515124D01*
X142159665Y-74395053D01*
X142214927Y-74261637D01*
X142241198Y-74129568D01*
X142243100Y-74120006D01*
X143316899Y-74120006D01*
X143345071Y-74261630D01*
X143345073Y-74261638D01*
X143400335Y-74395053D01*
X143400336Y-74395056D01*
X143480563Y-74515123D01*
X143480566Y-74515127D01*
X143582672Y-74617233D01*
X143582676Y-74617236D01*
X143702743Y-74697463D01*
X143702745Y-74697463D01*
X143702747Y-74697465D01*
X143836163Y-74752727D01*
X143870846Y-74759626D01*
X143977793Y-74780900D01*
X143977796Y-74780900D01*
X144122206Y-74780900D01*
X144193503Y-74766717D01*
X144263837Y-74752727D01*
X144397253Y-74697465D01*
X144517324Y-74617236D01*
X144619436Y-74515124D01*
X144699665Y-74395053D01*
X144754927Y-74261637D01*
X144781198Y-74129568D01*
X144783100Y-74120006D01*
X144783100Y-73975593D01*
X144758601Y-73852433D01*
X144754927Y-73833963D01*
X144699665Y-73700547D01*
X144676035Y-73665183D01*
X144655158Y-73598507D01*
X144673642Y-73531127D01*
X144676021Y-73527424D01*
X144683367Y-73516431D01*
X144686069Y-73502850D01*
X144689412Y-73486044D01*
X145645500Y-73486044D01*
X145651901Y-73545572D01*
X145651903Y-73545579D01*
X145702145Y-73680286D01*
X145702149Y-73680293D01*
X145788309Y-73795387D01*
X145788310Y-73795388D01*
X145816659Y-73816610D01*
X145858531Y-73872543D01*
X145863967Y-73940067D01*
X145862766Y-73946106D01*
X145856900Y-73975596D01*
X145856900Y-74120004D01*
X145856900Y-74120006D01*
X145856899Y-74120006D01*
X145885071Y-74261630D01*
X145885073Y-74261638D01*
X145940335Y-74395053D01*
X145940336Y-74395056D01*
X146020563Y-74515123D01*
X146020566Y-74515127D01*
X146122672Y-74617233D01*
X146122676Y-74617236D01*
X146242743Y-74697463D01*
X146242745Y-74697463D01*
X146242747Y-74697465D01*
X146376163Y-74752727D01*
X146410846Y-74759626D01*
X146517793Y-74780900D01*
X146517796Y-74780900D01*
X146662206Y-74780900D01*
X146733503Y-74766717D01*
X146803837Y-74752727D01*
X146937253Y-74697465D01*
X147057324Y-74617236D01*
X147159436Y-74515124D01*
X147239665Y-74395053D01*
X147294927Y-74261637D01*
X147321198Y-74129568D01*
X147323100Y-74120006D01*
X148396899Y-74120006D01*
X148425071Y-74261630D01*
X148425073Y-74261638D01*
X148480335Y-74395053D01*
X148480336Y-74395056D01*
X148560563Y-74515123D01*
X148560566Y-74515127D01*
X148662672Y-74617233D01*
X148662676Y-74617236D01*
X148782743Y-74697463D01*
X148782745Y-74697463D01*
X148782747Y-74697465D01*
X148916163Y-74752727D01*
X148950846Y-74759626D01*
X149057793Y-74780900D01*
X149057796Y-74780900D01*
X149202206Y-74780900D01*
X149273503Y-74766717D01*
X149343837Y-74752727D01*
X149477253Y-74697465D01*
X149597324Y-74617236D01*
X149699436Y-74515124D01*
X149779665Y-74395053D01*
X149834927Y-74261637D01*
X149861198Y-74129568D01*
X149863100Y-74120006D01*
X149863100Y-73975593D01*
X149838601Y-73852433D01*
X149834927Y-73833963D01*
X149779665Y-73700547D01*
X149756035Y-73665183D01*
X149735158Y-73598507D01*
X149753642Y-73531127D01*
X149756021Y-73527424D01*
X149763367Y-73516431D01*
X149766069Y-73502850D01*
X149774999Y-73457952D01*
X149775000Y-73457950D01*
X149775000Y-71742049D01*
X149774999Y-71742047D01*
X149763368Y-71683570D01*
X149763367Y-71683569D01*
X149719052Y-71617247D01*
X149652730Y-71572932D01*
X149652729Y-71572931D01*
X149594252Y-71561300D01*
X149594248Y-71561300D01*
X148665752Y-71561300D01*
X148665747Y-71561300D01*
X148607270Y-71572931D01*
X148607269Y-71572932D01*
X148540947Y-71617247D01*
X148496632Y-71683569D01*
X148496631Y-71683570D01*
X148485000Y-71742047D01*
X148485000Y-73457952D01*
X148496631Y-73516429D01*
X148496632Y-73516431D01*
X148503962Y-73527400D01*
X148524841Y-73594077D01*
X148506357Y-73661457D01*
X148503965Y-73665180D01*
X148480339Y-73700540D01*
X148480331Y-73700554D01*
X148425073Y-73833961D01*
X148425071Y-73833969D01*
X148396900Y-73975593D01*
X148396900Y-73975595D01*
X148396900Y-73975596D01*
X148396900Y-74120004D01*
X148396900Y-74120006D01*
X148396899Y-74120006D01*
X147323100Y-74120006D01*
X147323100Y-73975595D01*
X147320430Y-73962176D01*
X147316033Y-73940067D01*
X147322259Y-73870479D01*
X147363341Y-73816609D01*
X147391688Y-73795388D01*
X147391690Y-73795386D01*
X147477852Y-73680288D01*
X147477854Y-73680286D01*
X147528096Y-73545579D01*
X147528098Y-73545572D01*
X147534499Y-73486044D01*
X147534500Y-73486027D01*
X147534500Y-72850000D01*
X145645500Y-72850000D01*
X145645500Y-73486044D01*
X144689412Y-73486044D01*
X144694999Y-73457952D01*
X144695000Y-73457950D01*
X144695000Y-71742049D01*
X144694999Y-71742047D01*
X144689412Y-71713955D01*
X145645500Y-71713955D01*
X145645500Y-72350000D01*
X146340000Y-72350000D01*
X146840000Y-72350000D01*
X147534500Y-72350000D01*
X147534500Y-71713972D01*
X147534499Y-71713955D01*
X147528098Y-71654427D01*
X147528096Y-71654420D01*
X147477854Y-71519713D01*
X147477850Y-71519706D01*
X147391690Y-71404612D01*
X147391687Y-71404609D01*
X147276593Y-71318449D01*
X147276586Y-71318445D01*
X147141879Y-71268203D01*
X147141872Y-71268201D01*
X147082344Y-71261800D01*
X146840000Y-71261800D01*
X146840000Y-72350000D01*
X146340000Y-72350000D01*
X146340000Y-71261800D01*
X146097655Y-71261800D01*
X146038127Y-71268201D01*
X146038120Y-71268203D01*
X145903413Y-71318445D01*
X145903406Y-71318449D01*
X145788312Y-71404609D01*
X145788309Y-71404612D01*
X145702149Y-71519706D01*
X145702145Y-71519713D01*
X145651903Y-71654420D01*
X145651901Y-71654427D01*
X145645500Y-71713955D01*
X144689412Y-71713955D01*
X144683368Y-71683570D01*
X144683367Y-71683569D01*
X144639052Y-71617247D01*
X144572730Y-71572932D01*
X144572729Y-71572931D01*
X144514252Y-71561300D01*
X144514248Y-71561300D01*
X143585752Y-71561300D01*
X143585747Y-71561300D01*
X143527270Y-71572931D01*
X143527269Y-71572932D01*
X143460947Y-71617247D01*
X143416632Y-71683569D01*
X143416631Y-71683570D01*
X143405000Y-71742047D01*
X143405000Y-73457952D01*
X143416631Y-73516429D01*
X143416632Y-73516431D01*
X143423962Y-73527400D01*
X143444841Y-73594077D01*
X143426357Y-73661457D01*
X143423965Y-73665180D01*
X143400339Y-73700540D01*
X143400331Y-73700554D01*
X143345073Y-73833961D01*
X143345071Y-73833969D01*
X143316900Y-73975593D01*
X143316900Y-73975595D01*
X143316900Y-73975596D01*
X143316900Y-74120004D01*
X143316900Y-74120006D01*
X143316899Y-74120006D01*
X142243100Y-74120006D01*
X142243100Y-73975593D01*
X142218601Y-73852433D01*
X142214927Y-73833963D01*
X142159665Y-73700547D01*
X142136035Y-73665183D01*
X142115158Y-73598507D01*
X142133642Y-73531127D01*
X142136021Y-73527424D01*
X142143367Y-73516431D01*
X142146069Y-73502850D01*
X142154999Y-73457952D01*
X142155000Y-73457950D01*
X142155000Y-71742049D01*
X142154999Y-71742047D01*
X142143368Y-71683570D01*
X142143367Y-71683569D01*
X142099052Y-71617247D01*
X142032730Y-71572932D01*
X142032729Y-71572931D01*
X141974252Y-71561300D01*
X141974248Y-71561300D01*
X141045752Y-71561300D01*
X141045747Y-71561300D01*
X140987270Y-71572931D01*
X140987269Y-71572932D01*
X140920947Y-71617247D01*
X140876632Y-71683569D01*
X140876631Y-71683570D01*
X140865000Y-71742047D01*
X140865000Y-73457952D01*
X140876631Y-73516429D01*
X140876632Y-73516431D01*
X140883962Y-73527400D01*
X140904841Y-73594077D01*
X140886357Y-73661457D01*
X140883965Y-73665180D01*
X140860339Y-73700540D01*
X140860331Y-73700554D01*
X140805073Y-73833961D01*
X140805071Y-73833969D01*
X140776900Y-73975593D01*
X140776900Y-73975595D01*
X140776900Y-73975596D01*
X140776900Y-74120004D01*
X140776900Y-74120006D01*
X140776899Y-74120006D01*
X139703100Y-74120006D01*
X139703100Y-73975595D01*
X139700430Y-73962176D01*
X139696033Y-73940067D01*
X139702259Y-73870479D01*
X139743341Y-73816609D01*
X139771688Y-73795388D01*
X139771690Y-73795386D01*
X139857852Y-73680288D01*
X139857854Y-73680286D01*
X139908096Y-73545579D01*
X139908098Y-73545572D01*
X139914499Y-73486044D01*
X139914500Y-73486027D01*
X139914500Y-72850000D01*
X138025500Y-72850000D01*
X138025500Y-73435811D01*
X138005815Y-73502850D01*
X137953011Y-73548605D01*
X137883853Y-73558549D01*
X137820297Y-73529524D01*
X137813819Y-73523492D01*
X137111319Y-72820992D01*
X137077834Y-72759669D01*
X137075000Y-72733311D01*
X137075000Y-71742049D01*
X137074999Y-71742047D01*
X137069412Y-71713955D01*
X138025500Y-71713955D01*
X138025500Y-72350000D01*
X138720000Y-72350000D01*
X139220000Y-72350000D01*
X139914500Y-72350000D01*
X139914500Y-71713972D01*
X139914499Y-71713955D01*
X139908098Y-71654427D01*
X139908096Y-71654420D01*
X139857854Y-71519713D01*
X139857850Y-71519706D01*
X139771690Y-71404612D01*
X139771687Y-71404609D01*
X139656593Y-71318449D01*
X139656586Y-71318445D01*
X139521879Y-71268203D01*
X139521872Y-71268201D01*
X139462344Y-71261800D01*
X139220000Y-71261800D01*
X139220000Y-72350000D01*
X138720000Y-72350000D01*
X138720000Y-71261800D01*
X138477655Y-71261800D01*
X138418127Y-71268201D01*
X138418120Y-71268203D01*
X138283413Y-71318445D01*
X138283406Y-71318449D01*
X138168312Y-71404609D01*
X138168309Y-71404612D01*
X138082149Y-71519706D01*
X138082145Y-71519713D01*
X138031903Y-71654420D01*
X138031901Y-71654427D01*
X138025500Y-71713955D01*
X137069412Y-71713955D01*
X137063368Y-71683570D01*
X137063367Y-71683569D01*
X137019052Y-71617247D01*
X136952730Y-71572932D01*
X136952729Y-71572931D01*
X136894252Y-71561300D01*
X136894248Y-71561300D01*
X135965752Y-71561300D01*
X135965747Y-71561300D01*
X135907270Y-71572931D01*
X135907269Y-71572932D01*
X135840947Y-71617247D01*
X135796632Y-71683569D01*
X135796631Y-71683570D01*
X135785000Y-71742047D01*
X135785000Y-73457952D01*
X135796631Y-73516429D01*
X135796632Y-73516431D01*
X135803962Y-73527400D01*
X135824841Y-73594077D01*
X135806357Y-73661457D01*
X135803965Y-73665180D01*
X135780339Y-73700540D01*
X135780333Y-73700551D01*
X135754856Y-73762059D01*
X135711015Y-73816462D01*
X135644721Y-73838527D01*
X135577021Y-73821248D01*
X135552614Y-73802287D01*
X134571319Y-72820992D01*
X134537834Y-72759669D01*
X134535000Y-72733311D01*
X134535000Y-71742049D01*
X134534999Y-71742047D01*
X134523368Y-71683570D01*
X134523367Y-71683569D01*
X134479052Y-71617247D01*
X134412730Y-71572932D01*
X134412729Y-71572931D01*
X134354252Y-71561300D01*
X134354248Y-71561300D01*
X133425752Y-71561300D01*
X133425747Y-71561300D01*
X133367270Y-71572931D01*
X133367269Y-71572932D01*
X133300947Y-71617247D01*
X133256632Y-71683569D01*
X133256631Y-71683570D01*
X133245000Y-71742047D01*
X133245000Y-73457952D01*
X133256631Y-73516429D01*
X133256632Y-73516431D01*
X133263962Y-73527400D01*
X133284841Y-73594077D01*
X133266357Y-73661457D01*
X133263965Y-73665180D01*
X133240339Y-73700540D01*
X133240331Y-73700554D01*
X133185073Y-73833961D01*
X133185071Y-73833969D01*
X133156900Y-73975593D01*
X133156900Y-73975595D01*
X133156900Y-73975596D01*
X133156900Y-74120004D01*
X133156900Y-74120006D01*
X133156899Y-74120006D01*
X133185071Y-74261630D01*
X133185073Y-74261638D01*
X133240335Y-74395053D01*
X133240336Y-74395056D01*
X133320563Y-74515123D01*
X133320566Y-74515127D01*
X133422672Y-74617233D01*
X133422676Y-74617236D01*
X133542743Y-74697463D01*
X133542745Y-74697463D01*
X133542747Y-74697465D01*
X133676163Y-74752727D01*
X133710846Y-74759626D01*
X133817793Y-74780900D01*
X133817796Y-74780900D01*
X133962206Y-74780900D01*
X134033503Y-74766717D01*
X134103837Y-74752727D01*
X134237253Y-74697465D01*
X134357324Y-74617236D01*
X134459436Y-74515124D01*
X134539665Y-74395053D01*
X134594927Y-74261637D01*
X134621198Y-74129568D01*
X134623100Y-74120006D01*
X134623100Y-74092789D01*
X134642785Y-74025750D01*
X134695589Y-73979995D01*
X134764747Y-73970051D01*
X134828303Y-73999076D01*
X134834781Y-74005108D01*
X135210581Y-74380908D01*
X135244066Y-74442231D01*
X135246900Y-74468589D01*
X135246900Y-78995252D01*
X135269082Y-79078040D01*
X135272831Y-79084533D01*
X135311935Y-79152262D01*
X135311937Y-79152264D01*
X135598181Y-79438508D01*
X135631666Y-79499831D01*
X135634500Y-79526189D01*
X135634500Y-79999248D01*
X135656682Y-80082036D01*
X135678108Y-80119146D01*
X135699535Y-80156258D01*
X135699537Y-80156260D01*
X139538181Y-83994904D01*
X139571666Y-84056227D01*
X139574500Y-84082585D01*
X139574500Y-84864811D01*
X139554815Y-84931850D01*
X139502011Y-84977605D01*
X139432853Y-84987549D01*
X139369297Y-84958524D01*
X139362819Y-84952492D01*
X138509864Y-84099537D01*
X138509862Y-84099535D01*
X138472750Y-84078108D01*
X138435640Y-84056682D01*
X138394246Y-84045591D01*
X138352853Y-84034500D01*
X138352852Y-84034500D01*
X136206189Y-84034500D01*
X136139150Y-84014815D01*
X136118508Y-83998181D01*
X133656819Y-81536492D01*
X133623334Y-81475169D01*
X133620500Y-81448811D01*
X133620500Y-79444662D01*
X133640000Y-79378253D01*
X133640000Y-79373800D01*
X134140000Y-79373800D01*
X134382328Y-79373800D01*
X134382344Y-79373799D01*
X134441872Y-79367398D01*
X134441879Y-79367396D01*
X134576586Y-79317154D01*
X134576593Y-79317150D01*
X134691687Y-79230990D01*
X134691690Y-79230987D01*
X134777850Y-79115893D01*
X134777854Y-79115886D01*
X134828096Y-78981179D01*
X134828098Y-78981172D01*
X134834499Y-78921644D01*
X134834500Y-78921627D01*
X134834500Y-78285600D01*
X134140000Y-78285600D01*
X134140000Y-79373800D01*
X133640000Y-79373800D01*
X133640000Y-77909600D01*
X133659685Y-77842561D01*
X133712489Y-77796806D01*
X133764000Y-77785600D01*
X134834500Y-77785600D01*
X134834500Y-77149572D01*
X134834499Y-77149555D01*
X134828098Y-77090027D01*
X134828096Y-77090020D01*
X134777854Y-76955313D01*
X134777850Y-76955306D01*
X134691691Y-76840214D01*
X134691682Y-76840205D01*
X134663339Y-76818987D01*
X134621468Y-76763054D01*
X134616033Y-76695530D01*
X134623100Y-76660004D01*
X134623100Y-76515596D01*
X134623100Y-76515593D01*
X134598959Y-76394231D01*
X134594927Y-76373963D01*
X134539665Y-76240547D01*
X134539663Y-76240545D01*
X134539663Y-76240543D01*
X134459436Y-76120476D01*
X134459433Y-76120472D01*
X134357327Y-76018366D01*
X134357323Y-76018363D01*
X134237256Y-75938136D01*
X134237253Y-75938135D01*
X134103838Y-75882873D01*
X134103830Y-75882871D01*
X133962206Y-75854700D01*
X133962204Y-75854700D01*
X133817796Y-75854700D01*
X133817794Y-75854700D01*
X133676169Y-75882871D01*
X133676161Y-75882873D01*
X133542746Y-75938135D01*
X133542743Y-75938136D01*
X133422676Y-76018363D01*
X133422672Y-76018366D01*
X133320566Y-76120472D01*
X133320563Y-76120476D01*
X133240336Y-76240543D01*
X133240335Y-76240546D01*
X133185073Y-76373961D01*
X133185071Y-76373969D01*
X133156900Y-76515593D01*
X133156900Y-76515596D01*
X133156900Y-76660004D01*
X133156900Y-76660006D01*
X133156899Y-76660006D01*
X133163966Y-76695529D01*
X133157739Y-76765121D01*
X133116662Y-76818986D01*
X133088315Y-76840206D01*
X133088308Y-76840214D01*
X133002149Y-76955306D01*
X133002146Y-76955311D01*
X132995682Y-76972644D01*
X132953810Y-77028577D01*
X132888346Y-77052994D01*
X132820073Y-77038142D01*
X132770668Y-76988737D01*
X132755500Y-76929310D01*
X132755500Y-73732855D01*
X132755501Y-73732842D01*
X132755501Y-73637148D01*
X132755500Y-73637144D01*
X132733318Y-73554362D01*
X132728726Y-73546408D01*
X132728726Y-73546407D01*
X132690467Y-73480141D01*
X132690466Y-73480140D01*
X132690465Y-73480138D01*
X132629862Y-73419535D01*
X132629861Y-73419534D01*
X132625531Y-73415204D01*
X132625520Y-73415194D01*
X132031319Y-72820992D01*
X131997834Y-72759669D01*
X131995000Y-72733311D01*
X131995000Y-71742049D01*
X131994999Y-71742047D01*
X131983368Y-71683570D01*
X131983367Y-71683569D01*
X131939052Y-71617247D01*
X131872730Y-71572932D01*
X131872729Y-71572931D01*
X131814252Y-71561300D01*
X131814248Y-71561300D01*
X130885752Y-71561300D01*
X130885747Y-71561300D01*
X130827270Y-71572931D01*
X130827269Y-71572932D01*
X130760947Y-71617247D01*
X130716632Y-71683569D01*
X130716631Y-71683570D01*
X130705000Y-71742047D01*
X130705000Y-73457952D01*
X130716631Y-73516429D01*
X130716632Y-73516431D01*
X130723962Y-73527400D01*
X130744841Y-73594077D01*
X130726357Y-73661457D01*
X130723965Y-73665180D01*
X130700339Y-73700540D01*
X130700331Y-73700554D01*
X130645073Y-73833961D01*
X130645071Y-73833969D01*
X130616900Y-73975593D01*
X130616900Y-73975595D01*
X130616900Y-73975596D01*
X130616900Y-74120004D01*
X130616900Y-74120006D01*
X130616899Y-74120006D01*
X130645071Y-74261630D01*
X130645073Y-74261638D01*
X130700335Y-74395053D01*
X130700336Y-74395056D01*
X130780563Y-74515123D01*
X130780566Y-74515127D01*
X130882672Y-74617233D01*
X130882676Y-74617236D01*
X131002743Y-74697463D01*
X131002745Y-74697463D01*
X131002747Y-74697465D01*
X131136163Y-74752727D01*
X131170846Y-74759626D01*
X131277793Y-74780900D01*
X131277796Y-74780900D01*
X131422206Y-74780900D01*
X131493503Y-74766717D01*
X131563837Y-74752727D01*
X131697253Y-74697465D01*
X131817324Y-74617236D01*
X131817327Y-74617233D01*
X131892819Y-74541742D01*
X131954142Y-74508257D01*
X132023834Y-74513241D01*
X132079767Y-74555113D01*
X132104184Y-74620577D01*
X132104500Y-74629423D01*
X132104500Y-76006177D01*
X132084815Y-76073216D01*
X132032011Y-76118971D01*
X131962853Y-76128915D01*
X131899297Y-76099890D01*
X131892819Y-76093858D01*
X131817327Y-76018366D01*
X131817323Y-76018363D01*
X131697256Y-75938136D01*
X131697253Y-75938135D01*
X131563838Y-75882873D01*
X131563830Y-75882871D01*
X131422206Y-75854700D01*
X131422204Y-75854700D01*
X131277796Y-75854700D01*
X131277794Y-75854700D01*
X131136169Y-75882871D01*
X131136161Y-75882873D01*
X131002746Y-75938135D01*
X131002743Y-75938136D01*
X130882676Y-76018363D01*
X130882672Y-76018366D01*
X130780566Y-76120472D01*
X130780563Y-76120476D01*
X130700336Y-76240543D01*
X130700335Y-76240546D01*
X130645073Y-76373961D01*
X130645071Y-76373969D01*
X130616900Y-76515593D01*
X130616900Y-76515596D01*
X130616900Y-76660004D01*
X130616900Y-76660006D01*
X130616899Y-76660006D01*
X130645071Y-76801630D01*
X130645073Y-76801638D01*
X130700331Y-76935045D01*
X130700332Y-76935046D01*
X130700335Y-76935053D01*
X130700338Y-76935057D01*
X130700340Y-76935061D01*
X130723964Y-76970418D01*
X130744841Y-77037095D01*
X130726356Y-77104475D01*
X130723964Y-77108197D01*
X130716632Y-77119170D01*
X130716631Y-77119170D01*
X130705000Y-77177647D01*
X130705000Y-78893552D01*
X130716631Y-78952029D01*
X130716632Y-78952030D01*
X130760947Y-79018352D01*
X130827269Y-79062667D01*
X130827270Y-79062668D01*
X130885747Y-79074299D01*
X130885750Y-79074300D01*
X130885752Y-79074300D01*
X130900500Y-79074300D01*
X130967539Y-79093985D01*
X131013294Y-79146789D01*
X131021613Y-79185033D01*
X131023439Y-79184793D01*
X131024500Y-79192852D01*
X131024500Y-79192853D01*
X131029058Y-79209864D01*
X131046682Y-79275640D01*
X131064361Y-79306259D01*
X131089535Y-79349862D01*
X131089537Y-79349864D01*
X132128034Y-80388361D01*
X132161519Y-80449684D01*
X132162764Y-80461268D01*
X132163091Y-80461222D01*
X132184834Y-80612457D01*
X132187333Y-80620964D01*
X132184996Y-80621650D01*
X132193081Y-80677912D01*
X132164052Y-80741466D01*
X132105271Y-80779236D01*
X132035401Y-80779230D01*
X131982664Y-80747937D01*
X129491319Y-78256592D01*
X129457834Y-78195269D01*
X129455000Y-78168911D01*
X129455000Y-77177649D01*
X129454999Y-77177647D01*
X129443368Y-77119171D01*
X129443367Y-77119169D01*
X129436036Y-77108197D01*
X129415158Y-77041523D01*
X129433641Y-76974143D01*
X129436037Y-76970415D01*
X129446132Y-76955306D01*
X129459665Y-76935053D01*
X129514927Y-76801637D01*
X129543100Y-76660004D01*
X129543100Y-76515596D01*
X129543100Y-76515593D01*
X129518959Y-76394231D01*
X129514927Y-76373963D01*
X129459665Y-76240547D01*
X129459663Y-76240545D01*
X129459663Y-76240543D01*
X129379436Y-76120476D01*
X129379433Y-76120472D01*
X129277327Y-76018366D01*
X129277323Y-76018363D01*
X129157256Y-75938136D01*
X129157253Y-75938135D01*
X129023838Y-75882873D01*
X129023830Y-75882871D01*
X128882206Y-75854700D01*
X128882204Y-75854700D01*
X128737796Y-75854700D01*
X128737794Y-75854700D01*
X128596169Y-75882871D01*
X128596161Y-75882873D01*
X128462746Y-75938135D01*
X128462743Y-75938136D01*
X128342676Y-76018363D01*
X128342672Y-76018366D01*
X128240566Y-76120472D01*
X128240563Y-76120476D01*
X128160338Y-76240540D01*
X128158860Y-76243307D01*
X128157703Y-76244484D01*
X128156950Y-76245612D01*
X128156736Y-76245469D01*
X128109898Y-76293152D01*
X128041761Y-76308614D01*
X127976081Y-76284784D01*
X127933711Y-76229227D01*
X127925500Y-76184856D01*
X127925500Y-74450743D01*
X127945185Y-74383704D01*
X127997989Y-74337949D01*
X128067147Y-74328005D01*
X128130703Y-74357030D01*
X128158863Y-74392298D01*
X128160339Y-74395060D01*
X128240563Y-74515123D01*
X128240566Y-74515127D01*
X128342672Y-74617233D01*
X128342676Y-74617236D01*
X128462743Y-74697463D01*
X128462745Y-74697463D01*
X128462747Y-74697465D01*
X128596163Y-74752727D01*
X128630846Y-74759626D01*
X128737793Y-74780900D01*
X128737796Y-74780900D01*
X128882206Y-74780900D01*
X128953503Y-74766717D01*
X129023837Y-74752727D01*
X129157253Y-74697465D01*
X129277324Y-74617236D01*
X129379436Y-74515124D01*
X129459665Y-74395053D01*
X129514927Y-74261637D01*
X129541198Y-74129568D01*
X129543100Y-74120006D01*
X129543100Y-73975595D01*
X129540430Y-73962176D01*
X129536033Y-73940067D01*
X129542259Y-73870479D01*
X129583341Y-73816609D01*
X129611688Y-73795388D01*
X129611690Y-73795386D01*
X129697852Y-73680288D01*
X129697854Y-73680286D01*
X129748096Y-73545579D01*
X129748098Y-73545572D01*
X129754499Y-73486044D01*
X129754500Y-73486027D01*
X129754500Y-72850000D01*
X127865500Y-72850000D01*
X127865500Y-73435811D01*
X127845815Y-73502850D01*
X127793011Y-73548605D01*
X127723853Y-73558549D01*
X127660297Y-73529524D01*
X127653819Y-73523492D01*
X126951319Y-72820992D01*
X126917834Y-72759669D01*
X126915000Y-72733311D01*
X126915000Y-71742049D01*
X126914999Y-71742047D01*
X126909412Y-71713955D01*
X127865500Y-71713955D01*
X127865500Y-72350000D01*
X128560000Y-72350000D01*
X129060000Y-72350000D01*
X129754500Y-72350000D01*
X129754500Y-71713972D01*
X129754499Y-71713955D01*
X129748098Y-71654427D01*
X129748096Y-71654420D01*
X129697854Y-71519713D01*
X129697850Y-71519706D01*
X129611690Y-71404612D01*
X129611687Y-71404609D01*
X129496593Y-71318449D01*
X129496586Y-71318445D01*
X129361879Y-71268203D01*
X129361872Y-71268201D01*
X129302344Y-71261800D01*
X129060000Y-71261800D01*
X129060000Y-72350000D01*
X128560000Y-72350000D01*
X128560000Y-71261800D01*
X128317655Y-71261800D01*
X128258127Y-71268201D01*
X128258120Y-71268203D01*
X128123413Y-71318445D01*
X128123406Y-71318449D01*
X128008312Y-71404609D01*
X128008309Y-71404612D01*
X127922149Y-71519706D01*
X127922145Y-71519713D01*
X127871903Y-71654420D01*
X127871901Y-71654427D01*
X127865500Y-71713955D01*
X126909412Y-71713955D01*
X126903368Y-71683570D01*
X126903367Y-71683569D01*
X126859052Y-71617247D01*
X126792730Y-71572932D01*
X126792729Y-71572931D01*
X126734252Y-71561300D01*
X126734248Y-71561300D01*
X125805752Y-71561300D01*
X125805747Y-71561300D01*
X125747270Y-71572931D01*
X125747269Y-71572932D01*
X125680947Y-71617247D01*
X125636632Y-71683569D01*
X125636631Y-71683570D01*
X125625000Y-71742047D01*
X125625000Y-72150500D01*
X125605315Y-72217539D01*
X125552511Y-72263294D01*
X125501000Y-72274500D01*
X124499000Y-72274500D01*
X124431961Y-72254815D01*
X124386206Y-72202011D01*
X124375000Y-72150500D01*
X124375000Y-71742049D01*
X124374999Y-71742047D01*
X124363368Y-71683570D01*
X124363367Y-71683569D01*
X124319052Y-71617247D01*
X124252730Y-71572932D01*
X124252729Y-71572931D01*
X124194252Y-71561300D01*
X124194248Y-71561300D01*
X123265752Y-71561300D01*
X123265747Y-71561300D01*
X123207270Y-71572931D01*
X123207269Y-71572932D01*
X123140947Y-71617247D01*
X123096632Y-71683569D01*
X123096631Y-71683570D01*
X123085000Y-71742047D01*
X123085000Y-73457952D01*
X123096631Y-73516429D01*
X123096632Y-73516431D01*
X123103962Y-73527400D01*
X123124841Y-73594077D01*
X123106357Y-73661457D01*
X123103965Y-73665180D01*
X123080339Y-73700540D01*
X123080331Y-73700554D01*
X123025073Y-73833961D01*
X123025071Y-73833969D01*
X122996900Y-73975593D01*
X122996900Y-73975595D01*
X122996900Y-73975596D01*
X122996900Y-74120004D01*
X122996900Y-74120006D01*
X122996899Y-74120006D01*
X121840543Y-74120006D01*
X121831509Y-74039829D01*
X121754018Y-73700319D01*
X121639002Y-73371621D01*
X121487906Y-73057867D01*
X121302630Y-72763003D01*
X121302628Y-72763000D01*
X121302627Y-72762998D01*
X121085512Y-72490743D01*
X120839256Y-72244487D01*
X120567001Y-72027372D01*
X120566999Y-72027371D01*
X120272130Y-71842092D01*
X119958382Y-71690999D01*
X119629692Y-71575985D01*
X119629684Y-71575982D01*
X119375048Y-71517863D01*
X119290171Y-71498491D01*
X119290167Y-71498490D01*
X119290158Y-71498489D01*
X118944124Y-71459500D01*
X118944120Y-71459500D01*
X118595880Y-71459500D01*
X118595875Y-71459500D01*
X118249841Y-71498489D01*
X118249829Y-71498491D01*
X117910315Y-71575982D01*
X117910307Y-71575985D01*
X117581617Y-71690999D01*
X117267869Y-71842092D01*
X116973000Y-72027371D01*
X116972998Y-72027372D01*
X116700743Y-72244487D01*
X116454487Y-72490743D01*
X116237372Y-72762998D01*
X116237371Y-72763000D01*
X116052092Y-73057869D01*
X115900999Y-73371617D01*
X115785985Y-73700307D01*
X115785982Y-73700315D01*
X115708491Y-74039829D01*
X115708489Y-74039841D01*
X115669500Y-74385875D01*
X115318125Y-74385875D01*
X115319959Y-72971172D01*
X115334780Y-72912550D01*
X116007975Y-71662330D01*
X116039826Y-71624185D01*
X116843152Y-70983438D01*
X116880393Y-70963036D01*
X117662923Y-70695830D01*
X117698027Y-70689278D01*
X117927595Y-70680096D01*
X117932409Y-70679998D01*
X177399845Y-70650010D01*
X177439119Y-70656373D01*
G37*
%TD.AperFunction*%
%TD*%
M02*
