M48
; DRILL file {KiCad 8.0.2} date 2024-07-30T13:49:24+0200
; FORMAT={-:-/ absolute / inch / decimal}
; #@! TF.CreationDate,2024-07-30T13:49:24+02:00
; #@! TF.GenerationSoftware,Kicad,Pcbnew,8.0.2
; #@! TF.FileFunction,Plated,1,2,PTH
FMAT,2
INCH
; #@! TA.AperFunction,Plated,PTH,ViaDrill
T1C0.0157
; #@! TA.AperFunction,Plated,PTH,ViaDrill
T2C0.0236
; #@! TA.AperFunction,Plated,PTH,ComponentDrill
T3C0.0350
%
G90
G05
T1
X4.889Y-3.1283
X5.1402Y-3.1925
X5.2232Y-3.1681
X5.622Y-3.124
X5.6366Y-3.3559
T2
X5.3185Y-3.1843
T3
X5.3984Y-3.4134
X5.3984Y-3.5134
X5.3984Y-3.6134
X5.3984Y-3.7134
X5.3984Y-3.8134
X5.3984Y-3.9134
X5.3984Y-4.0134
X5.3984Y-4.1134
X6.2984Y-3.4134
X6.2984Y-3.5134
X6.2984Y-3.6134
X6.2984Y-3.7134
X6.2984Y-3.8134
X6.2984Y-3.9134
X6.2984Y-4.0134
X6.2984Y-4.1134
M30
