%TF.GenerationSoftware,KiCad,Pcbnew,8.0.2*%
%TF.CreationDate,2024-07-30T13:51:48+02:00*%
%TF.ProjectId,mikrobus_protoboardPCB,6d696b72-6f62-4757-935f-70726f746f62,rev?*%
%TF.SameCoordinates,Original*%
%TF.FileFunction,Legend,Top*%
%TF.FilePolarity,Positive*%
%FSLAX46Y46*%
G04 Gerber Fmt 4.6, Leading zero omitted, Abs format (unit mm)*
G04 Created by KiCad (PCBNEW 8.0.2) date 2024-07-30 13:51:48*
%MOMM*%
%LPD*%
G01*
G04 APERTURE LIST*
%ADD10C,0.100000*%
G04 APERTURE END LIST*
D10*
X158410000Y-103980000D02*
X147930000Y-103980000D01*
X147925000Y-91660000D02*
X158415000Y-91660000D01*
X163895000Y-99300000D02*
X174650000Y-99300000D01*
X163870000Y-84190000D02*
X163870000Y-103950003D01*
X147915000Y-89130000D02*
X158405000Y-89130000D01*
X147920000Y-51455000D02*
X174650000Y-51455000D01*
X174650000Y-79610000D01*
X147920000Y-79610000D01*
X147920000Y-51455000D01*
X161180000Y-82000000D02*
X161180000Y-79610000D01*
X163890000Y-89120000D02*
X174640005Y-89120000D01*
X147920000Y-82000000D02*
X174650000Y-82000000D01*
X174160000Y-104000000D02*
X163879995Y-104000000D01*
X147920000Y-84170000D02*
X158410000Y-84170000D01*
X163870000Y-84190000D02*
X174660022Y-84190000D01*
X163900000Y-91700000D02*
X174650000Y-91700000D01*
X163895000Y-101960000D02*
X174640000Y-101960000D01*
X163910000Y-96780000D02*
X174640000Y-96780000D01*
X163890000Y-94200000D02*
X174640000Y-94200000D01*
X147925000Y-94210000D02*
X158415000Y-94210000D01*
X147925000Y-101950000D02*
X158415000Y-101950000D01*
X147925000Y-86590000D02*
X158415000Y-86590000D01*
X147935000Y-96710000D02*
X158425000Y-96710000D01*
X158410000Y-84170000D02*
X158410000Y-103980003D01*
X147935000Y-99290000D02*
X158425000Y-99290000D01*
X163890000Y-86590000D02*
X174650000Y-86590000D01*
X159347300Y-98611353D02*
X159383014Y-98504211D01*
X159383014Y-98504211D02*
X159383014Y-98325639D01*
X159383014Y-98325639D02*
X159347300Y-98254211D01*
X159347300Y-98254211D02*
X159311585Y-98218496D01*
X159311585Y-98218496D02*
X159240157Y-98182782D01*
X159240157Y-98182782D02*
X159168728Y-98182782D01*
X159168728Y-98182782D02*
X159097300Y-98218496D01*
X159097300Y-98218496D02*
X159061585Y-98254211D01*
X159061585Y-98254211D02*
X159025871Y-98325639D01*
X159025871Y-98325639D02*
X158990157Y-98468496D01*
X158990157Y-98468496D02*
X158954442Y-98539925D01*
X158954442Y-98539925D02*
X158918728Y-98575639D01*
X158918728Y-98575639D02*
X158847300Y-98611353D01*
X158847300Y-98611353D02*
X158775871Y-98611353D01*
X158775871Y-98611353D02*
X158704442Y-98575639D01*
X158704442Y-98575639D02*
X158668728Y-98539925D01*
X158668728Y-98539925D02*
X158633014Y-98468496D01*
X158633014Y-98468496D02*
X158633014Y-98289925D01*
X158633014Y-98289925D02*
X158668728Y-98182782D01*
X159383014Y-97861353D02*
X158633014Y-97861353D01*
X158633014Y-97861353D02*
X158633014Y-97682782D01*
X158633014Y-97682782D02*
X158668728Y-97575639D01*
X158668728Y-97575639D02*
X158740157Y-97504210D01*
X158740157Y-97504210D02*
X158811585Y-97468496D01*
X158811585Y-97468496D02*
X158954442Y-97432782D01*
X158954442Y-97432782D02*
X159061585Y-97432782D01*
X159061585Y-97432782D02*
X159204442Y-97468496D01*
X159204442Y-97468496D02*
X159275871Y-97504210D01*
X159275871Y-97504210D02*
X159347300Y-97575639D01*
X159347300Y-97575639D02*
X159383014Y-97682782D01*
X159383014Y-97682782D02*
X159383014Y-97861353D01*
X159383014Y-97111353D02*
X158633014Y-97111353D01*
X163537300Y-96371353D02*
X163573014Y-96264211D01*
X163573014Y-96264211D02*
X163573014Y-96085639D01*
X163573014Y-96085639D02*
X163537300Y-96014211D01*
X163537300Y-96014211D02*
X163501585Y-95978496D01*
X163501585Y-95978496D02*
X163430157Y-95942782D01*
X163430157Y-95942782D02*
X163358728Y-95942782D01*
X163358728Y-95942782D02*
X163287300Y-95978496D01*
X163287300Y-95978496D02*
X163251585Y-96014211D01*
X163251585Y-96014211D02*
X163215871Y-96085639D01*
X163215871Y-96085639D02*
X163180157Y-96228496D01*
X163180157Y-96228496D02*
X163144442Y-96299925D01*
X163144442Y-96299925D02*
X163108728Y-96335639D01*
X163108728Y-96335639D02*
X163037300Y-96371353D01*
X163037300Y-96371353D02*
X162965871Y-96371353D01*
X162965871Y-96371353D02*
X162894442Y-96335639D01*
X162894442Y-96335639D02*
X162858728Y-96299925D01*
X162858728Y-96299925D02*
X162823014Y-96228496D01*
X162823014Y-96228496D02*
X162823014Y-96049925D01*
X162823014Y-96049925D02*
X162858728Y-95942782D01*
X163501585Y-95192782D02*
X163537300Y-95228496D01*
X163537300Y-95228496D02*
X163573014Y-95335639D01*
X163573014Y-95335639D02*
X163573014Y-95407067D01*
X163573014Y-95407067D02*
X163537300Y-95514210D01*
X163537300Y-95514210D02*
X163465871Y-95585639D01*
X163465871Y-95585639D02*
X163394442Y-95621353D01*
X163394442Y-95621353D02*
X163251585Y-95657067D01*
X163251585Y-95657067D02*
X163144442Y-95657067D01*
X163144442Y-95657067D02*
X163001585Y-95621353D01*
X163001585Y-95621353D02*
X162930157Y-95585639D01*
X162930157Y-95585639D02*
X162858728Y-95514210D01*
X162858728Y-95514210D02*
X162823014Y-95407067D01*
X162823014Y-95407067D02*
X162823014Y-95335639D01*
X162823014Y-95335639D02*
X162858728Y-95228496D01*
X162858728Y-95228496D02*
X162894442Y-95192782D01*
X163573014Y-94514210D02*
X163573014Y-94871353D01*
X163573014Y-94871353D02*
X162823014Y-94871353D01*
X162813014Y-93712782D02*
X162813014Y-93284211D01*
X163563014Y-93498496D02*
X162813014Y-93498496D01*
X162813014Y-93105639D02*
X163563014Y-92605639D01*
X162813014Y-92605639D02*
X163563014Y-93105639D01*
X159347300Y-93871353D02*
X159383014Y-93764211D01*
X159383014Y-93764211D02*
X159383014Y-93585639D01*
X159383014Y-93585639D02*
X159347300Y-93514211D01*
X159347300Y-93514211D02*
X159311585Y-93478496D01*
X159311585Y-93478496D02*
X159240157Y-93442782D01*
X159240157Y-93442782D02*
X159168728Y-93442782D01*
X159168728Y-93442782D02*
X159097300Y-93478496D01*
X159097300Y-93478496D02*
X159061585Y-93514211D01*
X159061585Y-93514211D02*
X159025871Y-93585639D01*
X159025871Y-93585639D02*
X158990157Y-93728496D01*
X158990157Y-93728496D02*
X158954442Y-93799925D01*
X158954442Y-93799925D02*
X158918728Y-93835639D01*
X158918728Y-93835639D02*
X158847300Y-93871353D01*
X158847300Y-93871353D02*
X158775871Y-93871353D01*
X158775871Y-93871353D02*
X158704442Y-93835639D01*
X158704442Y-93835639D02*
X158668728Y-93799925D01*
X158668728Y-93799925D02*
X158633014Y-93728496D01*
X158633014Y-93728496D02*
X158633014Y-93549925D01*
X158633014Y-93549925D02*
X158668728Y-93442782D01*
X159311585Y-92692782D02*
X159347300Y-92728496D01*
X159347300Y-92728496D02*
X159383014Y-92835639D01*
X159383014Y-92835639D02*
X159383014Y-92907067D01*
X159383014Y-92907067D02*
X159347300Y-93014210D01*
X159347300Y-93014210D02*
X159275871Y-93085639D01*
X159275871Y-93085639D02*
X159204442Y-93121353D01*
X159204442Y-93121353D02*
X159061585Y-93157067D01*
X159061585Y-93157067D02*
X158954442Y-93157067D01*
X158954442Y-93157067D02*
X158811585Y-93121353D01*
X158811585Y-93121353D02*
X158740157Y-93085639D01*
X158740157Y-93085639D02*
X158668728Y-93014210D01*
X158668728Y-93014210D02*
X158633014Y-92907067D01*
X158633014Y-92907067D02*
X158633014Y-92835639D01*
X158633014Y-92835639D02*
X158668728Y-92728496D01*
X158668728Y-92728496D02*
X158704442Y-92692782D01*
X159383014Y-92371353D02*
X158633014Y-92371353D01*
X159383014Y-91942782D02*
X158954442Y-92264210D01*
X158633014Y-91942782D02*
X159061585Y-92371353D01*
X163513014Y-86435639D02*
X162763014Y-86435639D01*
X162763014Y-86435639D02*
X162763014Y-86149925D01*
X162763014Y-86149925D02*
X162798728Y-86078496D01*
X162798728Y-86078496D02*
X162834442Y-86042782D01*
X162834442Y-86042782D02*
X162905871Y-86007068D01*
X162905871Y-86007068D02*
X163013014Y-86007068D01*
X163013014Y-86007068D02*
X163084442Y-86042782D01*
X163084442Y-86042782D02*
X163120157Y-86078496D01*
X163120157Y-86078496D02*
X163155871Y-86149925D01*
X163155871Y-86149925D02*
X163155871Y-86435639D01*
X162763014Y-85757068D02*
X163513014Y-85578496D01*
X163513014Y-85578496D02*
X162977300Y-85435639D01*
X162977300Y-85435639D02*
X163513014Y-85292782D01*
X163513014Y-85292782D02*
X162763014Y-85114211D01*
X163513014Y-84828496D02*
X162763014Y-84828496D01*
X162763014Y-84828496D02*
X162763014Y-84649925D01*
X162763014Y-84649925D02*
X162798728Y-84542782D01*
X162798728Y-84542782D02*
X162870157Y-84471353D01*
X162870157Y-84471353D02*
X162941585Y-84435639D01*
X162941585Y-84435639D02*
X163084442Y-84399925D01*
X163084442Y-84399925D02*
X163191585Y-84399925D01*
X163191585Y-84399925D02*
X163334442Y-84435639D01*
X163334442Y-84435639D02*
X163405871Y-84471353D01*
X163405871Y-84471353D02*
X163477300Y-84542782D01*
X163477300Y-84542782D02*
X163513014Y-84649925D01*
X163513014Y-84649925D02*
X163513014Y-84828496D01*
X158773014Y-101707068D02*
X158773014Y-101242782D01*
X158773014Y-101242782D02*
X159058728Y-101492782D01*
X159058728Y-101492782D02*
X159058728Y-101385639D01*
X159058728Y-101385639D02*
X159094442Y-101314211D01*
X159094442Y-101314211D02*
X159130157Y-101278496D01*
X159130157Y-101278496D02*
X159201585Y-101242782D01*
X159201585Y-101242782D02*
X159380157Y-101242782D01*
X159380157Y-101242782D02*
X159451585Y-101278496D01*
X159451585Y-101278496D02*
X159487300Y-101314211D01*
X159487300Y-101314211D02*
X159523014Y-101385639D01*
X159523014Y-101385639D02*
X159523014Y-101599925D01*
X159523014Y-101599925D02*
X159487300Y-101671353D01*
X159487300Y-101671353D02*
X159451585Y-101707068D01*
X159451585Y-100921353D02*
X159487300Y-100885639D01*
X159487300Y-100885639D02*
X159523014Y-100921353D01*
X159523014Y-100921353D02*
X159487300Y-100957067D01*
X159487300Y-100957067D02*
X159451585Y-100921353D01*
X159451585Y-100921353D02*
X159523014Y-100921353D01*
X158773014Y-100635639D02*
X158773014Y-100171353D01*
X158773014Y-100171353D02*
X159058728Y-100421353D01*
X159058728Y-100421353D02*
X159058728Y-100314210D01*
X159058728Y-100314210D02*
X159094442Y-100242782D01*
X159094442Y-100242782D02*
X159130157Y-100207067D01*
X159130157Y-100207067D02*
X159201585Y-100171353D01*
X159201585Y-100171353D02*
X159380157Y-100171353D01*
X159380157Y-100171353D02*
X159451585Y-100207067D01*
X159451585Y-100207067D02*
X159487300Y-100242782D01*
X159487300Y-100242782D02*
X159523014Y-100314210D01*
X159523014Y-100314210D02*
X159523014Y-100528496D01*
X159523014Y-100528496D02*
X159487300Y-100599924D01*
X159487300Y-100599924D02*
X159451585Y-100635639D01*
X158773014Y-99957067D02*
X159523014Y-99707067D01*
X159523014Y-99707067D02*
X158773014Y-99457067D01*
X148722931Y-80403014D02*
X149187217Y-80403014D01*
X149187217Y-80403014D02*
X148937217Y-80688728D01*
X148937217Y-80688728D02*
X149044360Y-80688728D01*
X149044360Y-80688728D02*
X149115789Y-80724442D01*
X149115789Y-80724442D02*
X149151503Y-80760157D01*
X149151503Y-80760157D02*
X149187217Y-80831585D01*
X149187217Y-80831585D02*
X149187217Y-81010157D01*
X149187217Y-81010157D02*
X149151503Y-81081585D01*
X149151503Y-81081585D02*
X149115789Y-81117300D01*
X149115789Y-81117300D02*
X149044360Y-81153014D01*
X149044360Y-81153014D02*
X148830074Y-81153014D01*
X148830074Y-81153014D02*
X148758646Y-81117300D01*
X148758646Y-81117300D02*
X148722931Y-81081585D01*
X149508646Y-81081585D02*
X149544360Y-81117300D01*
X149544360Y-81117300D02*
X149508646Y-81153014D01*
X149508646Y-81153014D02*
X149472932Y-81117300D01*
X149472932Y-81117300D02*
X149508646Y-81081585D01*
X149508646Y-81081585D02*
X149508646Y-81153014D01*
X149794360Y-80403014D02*
X150258646Y-80403014D01*
X150258646Y-80403014D02*
X150008646Y-80688728D01*
X150008646Y-80688728D02*
X150115789Y-80688728D01*
X150115789Y-80688728D02*
X150187218Y-80724442D01*
X150187218Y-80724442D02*
X150222932Y-80760157D01*
X150222932Y-80760157D02*
X150258646Y-80831585D01*
X150258646Y-80831585D02*
X150258646Y-81010157D01*
X150258646Y-81010157D02*
X150222932Y-81081585D01*
X150222932Y-81081585D02*
X150187218Y-81117300D01*
X150187218Y-81117300D02*
X150115789Y-81153014D01*
X150115789Y-81153014D02*
X149901503Y-81153014D01*
X149901503Y-81153014D02*
X149830075Y-81117300D01*
X149830075Y-81117300D02*
X149794360Y-81081585D01*
X150472932Y-80403014D02*
X150722932Y-81153014D01*
X150722932Y-81153014D02*
X150972932Y-80403014D01*
X163553014Y-88485639D02*
X162803014Y-88485639D01*
X163553014Y-88128496D02*
X162803014Y-88128496D01*
X162803014Y-88128496D02*
X163553014Y-87699925D01*
X163553014Y-87699925D02*
X162803014Y-87699925D01*
X162803014Y-87449925D02*
X162803014Y-87021354D01*
X163553014Y-87235639D02*
X162803014Y-87235639D01*
X149257217Y-50038728D02*
X149185789Y-50003014D01*
X149185789Y-50003014D02*
X149078646Y-50003014D01*
X149078646Y-50003014D02*
X148971503Y-50038728D01*
X148971503Y-50038728D02*
X148900074Y-50110157D01*
X148900074Y-50110157D02*
X148864360Y-50181585D01*
X148864360Y-50181585D02*
X148828646Y-50324442D01*
X148828646Y-50324442D02*
X148828646Y-50431585D01*
X148828646Y-50431585D02*
X148864360Y-50574442D01*
X148864360Y-50574442D02*
X148900074Y-50645871D01*
X148900074Y-50645871D02*
X148971503Y-50717300D01*
X148971503Y-50717300D02*
X149078646Y-50753014D01*
X149078646Y-50753014D02*
X149150074Y-50753014D01*
X149150074Y-50753014D02*
X149257217Y-50717300D01*
X149257217Y-50717300D02*
X149292931Y-50681585D01*
X149292931Y-50681585D02*
X149292931Y-50431585D01*
X149292931Y-50431585D02*
X149150074Y-50431585D01*
X149614360Y-50753014D02*
X149614360Y-50003014D01*
X149614360Y-50003014D02*
X150042931Y-50753014D01*
X150042931Y-50753014D02*
X150042931Y-50003014D01*
X150400074Y-50753014D02*
X150400074Y-50003014D01*
X150400074Y-50003014D02*
X150578645Y-50003014D01*
X150578645Y-50003014D02*
X150685788Y-50038728D01*
X150685788Y-50038728D02*
X150757217Y-50110157D01*
X150757217Y-50110157D02*
X150792931Y-50181585D01*
X150792931Y-50181585D02*
X150828645Y-50324442D01*
X150828645Y-50324442D02*
X150828645Y-50431585D01*
X150828645Y-50431585D02*
X150792931Y-50574442D01*
X150792931Y-50574442D02*
X150757217Y-50645871D01*
X150757217Y-50645871D02*
X150685788Y-50717300D01*
X150685788Y-50717300D02*
X150578645Y-50753014D01*
X150578645Y-50753014D02*
X150400074Y-50753014D01*
X162813014Y-100628496D02*
X162813014Y-100985639D01*
X162813014Y-100985639D02*
X163170157Y-101021353D01*
X163170157Y-101021353D02*
X163134442Y-100985639D01*
X163134442Y-100985639D02*
X163098728Y-100914211D01*
X163098728Y-100914211D02*
X163098728Y-100735639D01*
X163098728Y-100735639D02*
X163134442Y-100664211D01*
X163134442Y-100664211D02*
X163170157Y-100628496D01*
X163170157Y-100628496D02*
X163241585Y-100592782D01*
X163241585Y-100592782D02*
X163420157Y-100592782D01*
X163420157Y-100592782D02*
X163491585Y-100628496D01*
X163491585Y-100628496D02*
X163527300Y-100664211D01*
X163527300Y-100664211D02*
X163563014Y-100735639D01*
X163563014Y-100735639D02*
X163563014Y-100914211D01*
X163563014Y-100914211D02*
X163527300Y-100985639D01*
X163527300Y-100985639D02*
X163491585Y-101021353D01*
X162813014Y-100378496D02*
X163563014Y-100128496D01*
X163563014Y-100128496D02*
X162813014Y-99878496D01*
X159403014Y-88387068D02*
X159045871Y-88637068D01*
X159403014Y-88815639D02*
X158653014Y-88815639D01*
X158653014Y-88815639D02*
X158653014Y-88529925D01*
X158653014Y-88529925D02*
X158688728Y-88458496D01*
X158688728Y-88458496D02*
X158724442Y-88422782D01*
X158724442Y-88422782D02*
X158795871Y-88387068D01*
X158795871Y-88387068D02*
X158903014Y-88387068D01*
X158903014Y-88387068D02*
X158974442Y-88422782D01*
X158974442Y-88422782D02*
X159010157Y-88458496D01*
X159010157Y-88458496D02*
X159045871Y-88529925D01*
X159045871Y-88529925D02*
X159045871Y-88815639D01*
X159367300Y-88101353D02*
X159403014Y-87994211D01*
X159403014Y-87994211D02*
X159403014Y-87815639D01*
X159403014Y-87815639D02*
X159367300Y-87744211D01*
X159367300Y-87744211D02*
X159331585Y-87708496D01*
X159331585Y-87708496D02*
X159260157Y-87672782D01*
X159260157Y-87672782D02*
X159188728Y-87672782D01*
X159188728Y-87672782D02*
X159117300Y-87708496D01*
X159117300Y-87708496D02*
X159081585Y-87744211D01*
X159081585Y-87744211D02*
X159045871Y-87815639D01*
X159045871Y-87815639D02*
X159010157Y-87958496D01*
X159010157Y-87958496D02*
X158974442Y-88029925D01*
X158974442Y-88029925D02*
X158938728Y-88065639D01*
X158938728Y-88065639D02*
X158867300Y-88101353D01*
X158867300Y-88101353D02*
X158795871Y-88101353D01*
X158795871Y-88101353D02*
X158724442Y-88065639D01*
X158724442Y-88065639D02*
X158688728Y-88029925D01*
X158688728Y-88029925D02*
X158653014Y-87958496D01*
X158653014Y-87958496D02*
X158653014Y-87779925D01*
X158653014Y-87779925D02*
X158688728Y-87672782D01*
X158653014Y-87458496D02*
X158653014Y-87029925D01*
X159403014Y-87244210D02*
X158653014Y-87244210D01*
X159347300Y-96411353D02*
X159383014Y-96304211D01*
X159383014Y-96304211D02*
X159383014Y-96125639D01*
X159383014Y-96125639D02*
X159347300Y-96054211D01*
X159347300Y-96054211D02*
X159311585Y-96018496D01*
X159311585Y-96018496D02*
X159240157Y-95982782D01*
X159240157Y-95982782D02*
X159168728Y-95982782D01*
X159168728Y-95982782D02*
X159097300Y-96018496D01*
X159097300Y-96018496D02*
X159061585Y-96054211D01*
X159061585Y-96054211D02*
X159025871Y-96125639D01*
X159025871Y-96125639D02*
X158990157Y-96268496D01*
X158990157Y-96268496D02*
X158954442Y-96339925D01*
X158954442Y-96339925D02*
X158918728Y-96375639D01*
X158918728Y-96375639D02*
X158847300Y-96411353D01*
X158847300Y-96411353D02*
X158775871Y-96411353D01*
X158775871Y-96411353D02*
X158704442Y-96375639D01*
X158704442Y-96375639D02*
X158668728Y-96339925D01*
X158668728Y-96339925D02*
X158633014Y-96268496D01*
X158633014Y-96268496D02*
X158633014Y-96089925D01*
X158633014Y-96089925D02*
X158668728Y-95982782D01*
X159383014Y-95661353D02*
X158633014Y-95661353D01*
X158633014Y-95661353D02*
X158633014Y-95482782D01*
X158633014Y-95482782D02*
X158668728Y-95375639D01*
X158668728Y-95375639D02*
X158740157Y-95304210D01*
X158740157Y-95304210D02*
X158811585Y-95268496D01*
X158811585Y-95268496D02*
X158954442Y-95232782D01*
X158954442Y-95232782D02*
X159061585Y-95232782D01*
X159061585Y-95232782D02*
X159204442Y-95268496D01*
X159204442Y-95268496D02*
X159275871Y-95304210D01*
X159275871Y-95304210D02*
X159347300Y-95375639D01*
X159347300Y-95375639D02*
X159383014Y-95482782D01*
X159383014Y-95482782D02*
X159383014Y-95661353D01*
X158633014Y-94768496D02*
X158633014Y-94625639D01*
X158633014Y-94625639D02*
X158668728Y-94554210D01*
X158668728Y-94554210D02*
X158740157Y-94482782D01*
X158740157Y-94482782D02*
X158883014Y-94447067D01*
X158883014Y-94447067D02*
X159133014Y-94447067D01*
X159133014Y-94447067D02*
X159275871Y-94482782D01*
X159275871Y-94482782D02*
X159347300Y-94554210D01*
X159347300Y-94554210D02*
X159383014Y-94625639D01*
X159383014Y-94625639D02*
X159383014Y-94768496D01*
X159383014Y-94768496D02*
X159347300Y-94839925D01*
X159347300Y-94839925D02*
X159275871Y-94911353D01*
X159275871Y-94911353D02*
X159133014Y-94947067D01*
X159133014Y-94947067D02*
X158883014Y-94947067D01*
X158883014Y-94947067D02*
X158740157Y-94911353D01*
X158740157Y-94911353D02*
X158668728Y-94839925D01*
X158668728Y-94839925D02*
X158633014Y-94768496D01*
X158758728Y-103632782D02*
X158723014Y-103704211D01*
X158723014Y-103704211D02*
X158723014Y-103811353D01*
X158723014Y-103811353D02*
X158758728Y-103918496D01*
X158758728Y-103918496D02*
X158830157Y-103989925D01*
X158830157Y-103989925D02*
X158901585Y-104025639D01*
X158901585Y-104025639D02*
X159044442Y-104061353D01*
X159044442Y-104061353D02*
X159151585Y-104061353D01*
X159151585Y-104061353D02*
X159294442Y-104025639D01*
X159294442Y-104025639D02*
X159365871Y-103989925D01*
X159365871Y-103989925D02*
X159437300Y-103918496D01*
X159437300Y-103918496D02*
X159473014Y-103811353D01*
X159473014Y-103811353D02*
X159473014Y-103739925D01*
X159473014Y-103739925D02*
X159437300Y-103632782D01*
X159437300Y-103632782D02*
X159401585Y-103597068D01*
X159401585Y-103597068D02*
X159151585Y-103597068D01*
X159151585Y-103597068D02*
X159151585Y-103739925D01*
X159473014Y-103275639D02*
X158723014Y-103275639D01*
X158723014Y-103275639D02*
X159473014Y-102847068D01*
X159473014Y-102847068D02*
X158723014Y-102847068D01*
X159473014Y-102489925D02*
X158723014Y-102489925D01*
X158723014Y-102489925D02*
X158723014Y-102311354D01*
X158723014Y-102311354D02*
X158758728Y-102204211D01*
X158758728Y-102204211D02*
X158830157Y-102132782D01*
X158830157Y-102132782D02*
X158901585Y-102097068D01*
X158901585Y-102097068D02*
X159044442Y-102061354D01*
X159044442Y-102061354D02*
X159151585Y-102061354D01*
X159151585Y-102061354D02*
X159294442Y-102097068D01*
X159294442Y-102097068D02*
X159365871Y-102132782D01*
X159365871Y-102132782D02*
X159437300Y-102204211D01*
X159437300Y-102204211D02*
X159473014Y-102311354D01*
X159473014Y-102311354D02*
X159473014Y-102489925D01*
X159301585Y-90627068D02*
X159337300Y-90662782D01*
X159337300Y-90662782D02*
X159373014Y-90769925D01*
X159373014Y-90769925D02*
X159373014Y-90841353D01*
X159373014Y-90841353D02*
X159337300Y-90948496D01*
X159337300Y-90948496D02*
X159265871Y-91019925D01*
X159265871Y-91019925D02*
X159194442Y-91055639D01*
X159194442Y-91055639D02*
X159051585Y-91091353D01*
X159051585Y-91091353D02*
X158944442Y-91091353D01*
X158944442Y-91091353D02*
X158801585Y-91055639D01*
X158801585Y-91055639D02*
X158730157Y-91019925D01*
X158730157Y-91019925D02*
X158658728Y-90948496D01*
X158658728Y-90948496D02*
X158623014Y-90841353D01*
X158623014Y-90841353D02*
X158623014Y-90769925D01*
X158623014Y-90769925D02*
X158658728Y-90662782D01*
X158658728Y-90662782D02*
X158694442Y-90627068D01*
X159337300Y-90341353D02*
X159373014Y-90234211D01*
X159373014Y-90234211D02*
X159373014Y-90055639D01*
X159373014Y-90055639D02*
X159337300Y-89984211D01*
X159337300Y-89984211D02*
X159301585Y-89948496D01*
X159301585Y-89948496D02*
X159230157Y-89912782D01*
X159230157Y-89912782D02*
X159158728Y-89912782D01*
X159158728Y-89912782D02*
X159087300Y-89948496D01*
X159087300Y-89948496D02*
X159051585Y-89984211D01*
X159051585Y-89984211D02*
X159015871Y-90055639D01*
X159015871Y-90055639D02*
X158980157Y-90198496D01*
X158980157Y-90198496D02*
X158944442Y-90269925D01*
X158944442Y-90269925D02*
X158908728Y-90305639D01*
X158908728Y-90305639D02*
X158837300Y-90341353D01*
X158837300Y-90341353D02*
X158765871Y-90341353D01*
X158765871Y-90341353D02*
X158694442Y-90305639D01*
X158694442Y-90305639D02*
X158658728Y-90269925D01*
X158658728Y-90269925D02*
X158623014Y-90198496D01*
X158623014Y-90198496D02*
X158623014Y-90019925D01*
X158623014Y-90019925D02*
X158658728Y-89912782D01*
X163593014Y-90617068D02*
X163235871Y-90867068D01*
X163593014Y-91045639D02*
X162843014Y-91045639D01*
X162843014Y-91045639D02*
X162843014Y-90759925D01*
X162843014Y-90759925D02*
X162878728Y-90688496D01*
X162878728Y-90688496D02*
X162914442Y-90652782D01*
X162914442Y-90652782D02*
X162985871Y-90617068D01*
X162985871Y-90617068D02*
X163093014Y-90617068D01*
X163093014Y-90617068D02*
X163164442Y-90652782D01*
X163164442Y-90652782D02*
X163200157Y-90688496D01*
X163200157Y-90688496D02*
X163235871Y-90759925D01*
X163235871Y-90759925D02*
X163235871Y-91045639D01*
X162843014Y-90367068D02*
X163593014Y-89867068D01*
X162843014Y-89867068D02*
X163593014Y-90367068D01*
X163537300Y-98931353D02*
X163573014Y-98824211D01*
X163573014Y-98824211D02*
X163573014Y-98645639D01*
X163573014Y-98645639D02*
X163537300Y-98574211D01*
X163537300Y-98574211D02*
X163501585Y-98538496D01*
X163501585Y-98538496D02*
X163430157Y-98502782D01*
X163430157Y-98502782D02*
X163358728Y-98502782D01*
X163358728Y-98502782D02*
X163287300Y-98538496D01*
X163287300Y-98538496D02*
X163251585Y-98574211D01*
X163251585Y-98574211D02*
X163215871Y-98645639D01*
X163215871Y-98645639D02*
X163180157Y-98788496D01*
X163180157Y-98788496D02*
X163144442Y-98859925D01*
X163144442Y-98859925D02*
X163108728Y-98895639D01*
X163108728Y-98895639D02*
X163037300Y-98931353D01*
X163037300Y-98931353D02*
X162965871Y-98931353D01*
X162965871Y-98931353D02*
X162894442Y-98895639D01*
X162894442Y-98895639D02*
X162858728Y-98859925D01*
X162858728Y-98859925D02*
X162823014Y-98788496D01*
X162823014Y-98788496D02*
X162823014Y-98609925D01*
X162823014Y-98609925D02*
X162858728Y-98502782D01*
X163573014Y-98181353D02*
X162823014Y-98181353D01*
X162823014Y-98181353D02*
X162823014Y-98002782D01*
X162823014Y-98002782D02*
X162858728Y-97895639D01*
X162858728Y-97895639D02*
X162930157Y-97824210D01*
X162930157Y-97824210D02*
X163001585Y-97788496D01*
X163001585Y-97788496D02*
X163144442Y-97752782D01*
X163144442Y-97752782D02*
X163251585Y-97752782D01*
X163251585Y-97752782D02*
X163394442Y-97788496D01*
X163394442Y-97788496D02*
X163465871Y-97824210D01*
X163465871Y-97824210D02*
X163537300Y-97895639D01*
X163537300Y-97895639D02*
X163573014Y-98002782D01*
X163573014Y-98002782D02*
X163573014Y-98181353D01*
X163358728Y-97467067D02*
X163358728Y-97109925D01*
X163573014Y-97538496D02*
X162823014Y-97288496D01*
X162823014Y-97288496D02*
X163573014Y-97038496D01*
X162888728Y-103432782D02*
X162853014Y-103504211D01*
X162853014Y-103504211D02*
X162853014Y-103611353D01*
X162853014Y-103611353D02*
X162888728Y-103718496D01*
X162888728Y-103718496D02*
X162960157Y-103789925D01*
X162960157Y-103789925D02*
X163031585Y-103825639D01*
X163031585Y-103825639D02*
X163174442Y-103861353D01*
X163174442Y-103861353D02*
X163281585Y-103861353D01*
X163281585Y-103861353D02*
X163424442Y-103825639D01*
X163424442Y-103825639D02*
X163495871Y-103789925D01*
X163495871Y-103789925D02*
X163567300Y-103718496D01*
X163567300Y-103718496D02*
X163603014Y-103611353D01*
X163603014Y-103611353D02*
X163603014Y-103539925D01*
X163603014Y-103539925D02*
X163567300Y-103432782D01*
X163567300Y-103432782D02*
X163531585Y-103397068D01*
X163531585Y-103397068D02*
X163281585Y-103397068D01*
X163281585Y-103397068D02*
X163281585Y-103539925D01*
X163603014Y-103075639D02*
X162853014Y-103075639D01*
X162853014Y-103075639D02*
X163603014Y-102647068D01*
X163603014Y-102647068D02*
X162853014Y-102647068D01*
X163603014Y-102289925D02*
X162853014Y-102289925D01*
X162853014Y-102289925D02*
X162853014Y-102111354D01*
X162853014Y-102111354D02*
X162888728Y-102004211D01*
X162888728Y-102004211D02*
X162960157Y-101932782D01*
X162960157Y-101932782D02*
X163031585Y-101897068D01*
X163031585Y-101897068D02*
X163174442Y-101861354D01*
X163174442Y-101861354D02*
X163281585Y-101861354D01*
X163281585Y-101861354D02*
X163424442Y-101897068D01*
X163424442Y-101897068D02*
X163495871Y-101932782D01*
X163495871Y-101932782D02*
X163567300Y-102004211D01*
X163567300Y-102004211D02*
X163603014Y-102111354D01*
X163603014Y-102111354D02*
X163603014Y-102289925D01*
X159198728Y-86041353D02*
X159198728Y-85684211D01*
X159413014Y-86112782D02*
X158663014Y-85862782D01*
X158663014Y-85862782D02*
X159413014Y-85612782D01*
X159413014Y-85362782D02*
X158663014Y-85362782D01*
X158663014Y-85362782D02*
X159413014Y-84934211D01*
X159413014Y-84934211D02*
X158663014Y-84934211D01*
X172141503Y-80383014D02*
X171784360Y-80383014D01*
X171784360Y-80383014D02*
X171748646Y-80740157D01*
X171748646Y-80740157D02*
X171784360Y-80704442D01*
X171784360Y-80704442D02*
X171855789Y-80668728D01*
X171855789Y-80668728D02*
X172034360Y-80668728D01*
X172034360Y-80668728D02*
X172105789Y-80704442D01*
X172105789Y-80704442D02*
X172141503Y-80740157D01*
X172141503Y-80740157D02*
X172177217Y-80811585D01*
X172177217Y-80811585D02*
X172177217Y-80990157D01*
X172177217Y-80990157D02*
X172141503Y-81061585D01*
X172141503Y-81061585D02*
X172105789Y-81097300D01*
X172105789Y-81097300D02*
X172034360Y-81133014D01*
X172034360Y-81133014D02*
X171855789Y-81133014D01*
X171855789Y-81133014D02*
X171784360Y-81097300D01*
X171784360Y-81097300D02*
X171748646Y-81061585D01*
X172391503Y-80383014D02*
X172641503Y-81133014D01*
X172641503Y-81133014D02*
X172891503Y-80383014D01*
M02*
