M48
; DRILL file {KiCad 8.0.2} date 2024-07-30T13:51:50+0200
; FORMAT={-:-/ absolute / inch / decimal}
; #@! TF.CreationDate,2024-07-30T13:51:50+02:00
; #@! TF.GenerationSoftware,Kicad,Pcbnew,8.0.2
; #@! TF.FileFunction,Plated,1,2,PTH
FMAT,2
INCH
; #@! TA.AperFunction,Plated,PTH,ViaDrill
T1C0.0402
%
G90
G05
T1
X5.8953Y-2.0811
X5.8953Y-2.1811
X5.8953Y-2.2811
X5.8953Y-2.3811
X5.8953Y-2.4811
X5.8953Y-2.5811
X5.8953Y-2.6811
X5.8953Y-2.7811
X5.8953Y-2.8811
X5.8953Y-2.9811
X5.8953Y-3.0811
X5.8957Y-3.3587
X5.8957Y-3.4587
X5.8957Y-3.5587
X5.8957Y-3.6587
X5.8957Y-3.7587
X5.8957Y-3.8587
X5.8957Y-3.9587
X5.8957Y-4.0587
X5.9953Y-1.9811
X5.9953Y-2.0811
X5.9953Y-2.1811
X5.9953Y-2.2811
X5.9953Y-2.3811
X5.9953Y-2.4811
X5.9953Y-2.5811
X5.9953Y-2.6811
X5.9953Y-2.7811
X5.9953Y-2.8811
X5.9953Y-2.9811
X5.9953Y-3.0811
X5.9953Y-3.1811
X5.9957Y-3.3587
X5.9957Y-3.4587
X5.9957Y-3.5587
X5.9957Y-3.6587
X5.9957Y-3.7587
X5.9957Y-3.8587
X5.9957Y-3.9587
X5.9957Y-4.0587
X6.0953Y-1.9811
X6.0953Y-2.0811
X6.0953Y-2.1811
X6.0953Y-2.2811
X6.0953Y-2.3811
X6.0953Y-2.4811
X6.0953Y-2.5811
X6.0953Y-2.6811
X6.0953Y-2.7811
X6.0953Y-2.8811
X6.0953Y-2.9811
X6.0953Y-3.0811
X6.0953Y-3.1811
X6.0957Y-3.3587
X6.0957Y-3.4587
X6.0957Y-3.5587
X6.0957Y-3.6587
X6.0957Y-3.7587
X6.0957Y-3.8587
X6.0957Y-3.9587
X6.0957Y-4.0587
X6.1953Y-1.9811
X6.1953Y-2.0811
X6.1953Y-2.1811
X6.1953Y-2.2811
X6.1953Y-2.3811
X6.1953Y-2.4811
X6.1953Y-2.5811
X6.1953Y-2.6811
X6.1953Y-2.7811
X6.1953Y-2.8811
X6.1953Y-2.9811
X6.1953Y-3.0811
X6.1953Y-3.1811
X6.1957Y-3.3587
X6.1957Y-3.4587
X6.1957Y-3.5587
X6.1957Y-3.6587
X6.1957Y-3.7587
X6.1957Y-3.8587
X6.1957Y-3.9587
X6.1957Y-4.0587
X6.2953Y-1.9811
X6.2953Y-2.0811
X6.2953Y-2.1811
X6.2953Y-2.2811
X6.2953Y-2.3811
X6.2953Y-2.4811
X6.2953Y-2.5811
X6.2953Y-2.6811
X6.2953Y-2.7811
X6.2953Y-2.8811
X6.2953Y-2.9811
X6.2953Y-3.0811
X6.2953Y-3.1811
X6.3953Y-1.9811
X6.3953Y-2.0811
X6.3953Y-2.1811
X6.3953Y-2.2811
X6.3953Y-2.3811
X6.3953Y-2.4811
X6.3953Y-2.5811
X6.3953Y-2.6811
X6.3953Y-2.7811
X6.3953Y-2.8811
X6.3953Y-2.9811
X6.3953Y-3.0811
X6.3953Y-3.1811
X6.4953Y-1.9811
X6.4953Y-2.0811
X6.4953Y-2.1811
X6.4953Y-2.2811
X6.4953Y-2.3811
X6.4953Y-2.4811
X6.4953Y-2.5811
X6.4953Y-2.6811
X6.4953Y-2.7811
X6.4953Y-2.8811
X6.4953Y-2.9811
X6.4953Y-3.0811
X6.4953Y-3.1811
X6.4957Y-3.3583
X6.4957Y-3.4583
X6.4957Y-3.5583
X6.4957Y-3.6583
X6.4957Y-3.7583
X6.4957Y-3.8583
X6.4957Y-3.9583
X6.4957Y-4.0583
X6.5953Y-1.9811
X6.5953Y-2.0811
X6.5953Y-2.1811
X6.5953Y-2.2811
X6.5953Y-2.3811
X6.5953Y-2.4811
X6.5953Y-2.5811
X6.5953Y-2.6811
X6.5953Y-2.7811
X6.5953Y-2.8811
X6.5953Y-2.9811
X6.5953Y-3.0811
X6.5953Y-3.1811
X6.5957Y-3.3583
X6.5957Y-3.4583
X6.5957Y-3.5583
X6.5957Y-3.6583
X6.5957Y-3.7583
X6.5957Y-3.8583
X6.5957Y-3.9583
X6.5957Y-4.0583
X6.6953Y-1.9811
X6.6953Y-2.0811
X6.6953Y-2.1811
X6.6953Y-2.2811
X6.6953Y-2.3811
X6.6953Y-2.4811
X6.6953Y-2.5811
X6.6953Y-2.6811
X6.6953Y-2.7811
X6.6953Y-2.8811
X6.6953Y-2.9811
X6.6953Y-3.0811
X6.6953Y-3.1811
X6.6957Y-3.3583
X6.6957Y-3.4583
X6.6957Y-3.5583
X6.6957Y-3.6583
X6.6957Y-3.7583
X6.6957Y-3.8583
X6.6957Y-3.9583
X6.6957Y-4.0583
X6.7953Y-1.9811
X6.7953Y-2.0811
X6.7953Y-2.1811
X6.7953Y-2.2811
X6.7953Y-2.3811
X6.7953Y-2.4811
X6.7953Y-2.5811
X6.7953Y-2.6811
X6.7953Y-2.7811
X6.7953Y-2.8811
X6.7953Y-2.9811
X6.7953Y-3.0811
X6.7957Y-3.3583
X6.7957Y-3.4583
X6.7957Y-3.5583
X6.7957Y-3.6583
X6.7957Y-3.7583
X6.7957Y-3.8583
X6.7957Y-3.9583
X6.7957Y-4.0583
M30
