M48
; DRILL file {KiCad 7.0.10} date Wed Feb 21 11:49:46 2024
; FORMAT={-:-/ absolute / metric / decimal}
; #@! TF.CreationDate,2024-02-21T11:49:46+01:00
; #@! TF.GenerationSoftware,Kicad,Pcbnew,7.0.10
; #@! TF.FileFunction,Plated,1,2,PTH
FMAT,2
METRIC
; #@! TA.AperFunction,Plated,PTH,ViaDrill
T1C0.400
; #@! TA.AperFunction,Plated,PTH,ComponentDrill
T2C0.750
; #@! TA.AperFunction,Plated,PTH,ComponentDrill
T3C1.000
%
G90
G05
T1
X142.799Y-40.234
X143.053Y-37.338
X144.272Y-32.715
X145.237Y-32.715
X147.777Y-38.659
X148.336Y-56.896
X148.438Y-51.359
X149.745Y-36.728
X149.86Y-47.625
X149.962Y-52.781
X150.323Y-38.011
X152.375Y-39.065
X152.959Y-37.897
X153.721Y-36.779
X154.635Y-40.005
X155.854Y-47.498
X156.464Y-43.688
X157.48Y-43.688
X162.306Y-49.632
X162.458Y-42.113
X162.789Y-37.059
X163.932Y-41.3
X165.363Y-42.392
X165.735Y-47.625
X166.929Y-39.435
X167.005Y-42.545
X167.437Y-40.945
X169.161Y-50.149
X169.926Y-55.626
X170.434Y-50.038
X171.602Y-57.252
X172.72Y-45.263
X172.72Y-48.006
X173.38Y-59.842
X173.99Y-50.8
X174.346Y-58.979
X175.87Y-54.102
X175.87Y-60.554
T2
X148.229Y-30.023
X148.28Y-63.398
X150.229Y-30.023
X150.28Y-63.398
X152.229Y-30.023
X152.28Y-63.398
X154.229Y-30.023
X154.28Y-63.398
X163.068Y-30.023
X163.068Y-63.398
X165.068Y-30.023
X165.068Y-63.398
X167.068Y-30.023
X167.068Y-63.398
X169.068Y-30.023
X169.068Y-63.398
X178.714Y-30.277
X178.714Y-32.277
X178.714Y-34.277
X178.714Y-36.277
X178.714Y-57.144
X178.714Y-59.144
X178.714Y-61.144
X178.714Y-63.144
T3
X157.175Y-58.369
X159.715Y-58.369
X166.878Y-37.135
X169.418Y-37.135
X171.958Y-37.135
X179.73Y-41.707
X179.73Y-44.247
X179.73Y-46.787
X179.73Y-49.327
X179.73Y-51.867
M30
