M48
; DRILL file {KiCad 8.0.2} date 2024-07-30T13:50:37+0200
; FORMAT={-:-/ absolute / inch / decimal}
; #@! TF.CreationDate,2024-07-30T13:50:37+02:00
; #@! TF.GenerationSoftware,Kicad,Pcbnew,8.0.2
; #@! TF.FileFunction,Plated,1,2,PTH
FMAT,2
INCH
; #@! TA.AperFunction,Plated,PTH,ViaDrill
T1C0.0157
; #@! TA.AperFunction,Plated,PTH,ComponentDrill
T2C0.0350
%
G90
G05
T1
X4.9142Y-3.1256
X4.915Y-3.0728
X4.924Y-3.2366
X5.02Y-3.1502
X5.0421Y-3.7291
X5.0492Y-3.2114
X5.1613Y-3.6833
X5.1972Y-3.4972
X5.2827Y-3.8441
X5.3965Y-3.1992
X5.4689Y-3.2417
X5.6031Y-3.3335
X5.6228Y-3.1256
X5.822Y-3.0787
X6.1642Y-3.1378
X6.3563Y-3.1646
T2
X4.9047Y-3.7051
X4.9047Y-3.8051
X4.9047Y-3.9051
X4.9047Y-4.0051
X4.9047Y-4.1051
X4.9047Y-4.2051
X4.9047Y-4.3051
X4.9047Y-4.4051
X5.8047Y-3.7051
X5.8047Y-3.8051
X5.8047Y-3.9051
X5.8047Y-4.0051
X5.8047Y-4.1051
X5.8047Y-4.2051
X5.8047Y-4.3051
X5.8047Y-4.4051
X6.0303Y-3.7055
X6.0303Y-3.8055
X6.0303Y-3.9055
X6.0303Y-4.0055
X6.0303Y-4.1055
X6.0303Y-4.2055
X6.0303Y-4.3055
X6.0303Y-4.4055
X6.9303Y-3.7055
X6.9303Y-3.8055
X6.9303Y-3.9055
X6.9303Y-4.0055
X6.9303Y-4.1055
X6.9303Y-4.2055
X6.9303Y-4.3055
X6.9303Y-4.4055
M30
