%TF.GenerationSoftware,KiCad,Pcbnew,8.0.2*%
%TF.CreationDate,2024-07-30T13:50:33+02:00*%
%TF.ProjectId,mikrobus_x2_hatPCB,6d696b72-6f62-4757-935f-78325f686174,rev?*%
%TF.SameCoordinates,Original*%
%TF.FileFunction,Legend,Top*%
%TF.FilePolarity,Positive*%
%FSLAX46Y46*%
G04 Gerber Fmt 4.6, Leading zero omitted, Abs format (unit mm)*
G04 Created by KiCad (PCBNEW 8.0.2) date 2024-07-30 13:50:33*
%MOMM*%
%LPD*%
G01*
G04 APERTURE LIST*
%ADD10C,0.150000*%
%ADD11C,0.400000*%
%ADD12C,0.300000*%
%ADD13C,0.254000*%
%ADD14C,0.000000*%
%ADD15C,0.100000*%
%ADD16C,0.965200*%
%ADD17C,1.778000*%
G04 APERTURE END LIST*
D10*
X126698207Y-99514580D02*
X126650588Y-99562200D01*
X126650588Y-99562200D02*
X126507731Y-99609819D01*
X126507731Y-99609819D02*
X126412493Y-99609819D01*
X126412493Y-99609819D02*
X126269636Y-99562200D01*
X126269636Y-99562200D02*
X126174398Y-99466961D01*
X126174398Y-99466961D02*
X126126779Y-99371723D01*
X126126779Y-99371723D02*
X126079160Y-99181247D01*
X126079160Y-99181247D02*
X126079160Y-99038390D01*
X126079160Y-99038390D02*
X126126779Y-98847914D01*
X126126779Y-98847914D02*
X126174398Y-98752676D01*
X126174398Y-98752676D02*
X126269636Y-98657438D01*
X126269636Y-98657438D02*
X126412493Y-98609819D01*
X126412493Y-98609819D02*
X126507731Y-98609819D01*
X126507731Y-98609819D02*
X126650588Y-98657438D01*
X126650588Y-98657438D02*
X126698207Y-98705057D01*
X127079160Y-99562200D02*
X127222017Y-99609819D01*
X127222017Y-99609819D02*
X127460112Y-99609819D01*
X127460112Y-99609819D02*
X127555350Y-99562200D01*
X127555350Y-99562200D02*
X127602969Y-99514580D01*
X127602969Y-99514580D02*
X127650588Y-99419342D01*
X127650588Y-99419342D02*
X127650588Y-99324104D01*
X127650588Y-99324104D02*
X127602969Y-99228866D01*
X127602969Y-99228866D02*
X127555350Y-99181247D01*
X127555350Y-99181247D02*
X127460112Y-99133628D01*
X127460112Y-99133628D02*
X127269636Y-99086009D01*
X127269636Y-99086009D02*
X127174398Y-99038390D01*
X127174398Y-99038390D02*
X127126779Y-98990771D01*
X127126779Y-98990771D02*
X127079160Y-98895533D01*
X127079160Y-98895533D02*
X127079160Y-98800295D01*
X127079160Y-98800295D02*
X127126779Y-98705057D01*
X127126779Y-98705057D02*
X127174398Y-98657438D01*
X127174398Y-98657438D02*
X127269636Y-98609819D01*
X127269636Y-98609819D02*
X127507731Y-98609819D01*
X127507731Y-98609819D02*
X127650588Y-98657438D01*
X128793445Y-98562200D02*
X127936303Y-99847914D01*
X129650588Y-98657438D02*
X129555350Y-98609819D01*
X129555350Y-98609819D02*
X129412493Y-98609819D01*
X129412493Y-98609819D02*
X129269636Y-98657438D01*
X129269636Y-98657438D02*
X129174398Y-98752676D01*
X129174398Y-98752676D02*
X129126779Y-98847914D01*
X129126779Y-98847914D02*
X129079160Y-99038390D01*
X129079160Y-99038390D02*
X129079160Y-99181247D01*
X129079160Y-99181247D02*
X129126779Y-99371723D01*
X129126779Y-99371723D02*
X129174398Y-99466961D01*
X129174398Y-99466961D02*
X129269636Y-99562200D01*
X129269636Y-99562200D02*
X129412493Y-99609819D01*
X129412493Y-99609819D02*
X129507731Y-99609819D01*
X129507731Y-99609819D02*
X129650588Y-99562200D01*
X129650588Y-99562200D02*
X129698207Y-99514580D01*
X129698207Y-99514580D02*
X129698207Y-99181247D01*
X129698207Y-99181247D02*
X129507731Y-99181247D01*
X130126779Y-99609819D02*
X130126779Y-98609819D01*
X130126779Y-98609819D02*
X130507731Y-98609819D01*
X130507731Y-98609819D02*
X130602969Y-98657438D01*
X130602969Y-98657438D02*
X130650588Y-98705057D01*
X130650588Y-98705057D02*
X130698207Y-98800295D01*
X130698207Y-98800295D02*
X130698207Y-98943152D01*
X130698207Y-98943152D02*
X130650588Y-99038390D01*
X130650588Y-99038390D02*
X130602969Y-99086009D01*
X130602969Y-99086009D02*
X130507731Y-99133628D01*
X130507731Y-99133628D02*
X130126779Y-99133628D01*
X131269636Y-99038390D02*
X131174398Y-98990771D01*
X131174398Y-98990771D02*
X131126779Y-98943152D01*
X131126779Y-98943152D02*
X131079160Y-98847914D01*
X131079160Y-98847914D02*
X131079160Y-98800295D01*
X131079160Y-98800295D02*
X131126779Y-98705057D01*
X131126779Y-98705057D02*
X131174398Y-98657438D01*
X131174398Y-98657438D02*
X131269636Y-98609819D01*
X131269636Y-98609819D02*
X131460112Y-98609819D01*
X131460112Y-98609819D02*
X131555350Y-98657438D01*
X131555350Y-98657438D02*
X131602969Y-98705057D01*
X131602969Y-98705057D02*
X131650588Y-98800295D01*
X131650588Y-98800295D02*
X131650588Y-98847914D01*
X131650588Y-98847914D02*
X131602969Y-98943152D01*
X131602969Y-98943152D02*
X131555350Y-98990771D01*
X131555350Y-98990771D02*
X131460112Y-99038390D01*
X131460112Y-99038390D02*
X131269636Y-99038390D01*
X131269636Y-99038390D02*
X131174398Y-99086009D01*
X131174398Y-99086009D02*
X131126779Y-99133628D01*
X131126779Y-99133628D02*
X131079160Y-99228866D01*
X131079160Y-99228866D02*
X131079160Y-99419342D01*
X131079160Y-99419342D02*
X131126779Y-99514580D01*
X131126779Y-99514580D02*
X131174398Y-99562200D01*
X131174398Y-99562200D02*
X131269636Y-99609819D01*
X131269636Y-99609819D02*
X131460112Y-99609819D01*
X131460112Y-99609819D02*
X131555350Y-99562200D01*
X131555350Y-99562200D02*
X131602969Y-99514580D01*
X131602969Y-99514580D02*
X131650588Y-99419342D01*
X131650588Y-99419342D02*
X131650588Y-99228866D01*
X131650588Y-99228866D02*
X131602969Y-99133628D01*
X131602969Y-99133628D02*
X131555350Y-99086009D01*
X131555350Y-99086009D02*
X131460112Y-99038390D01*
X155510588Y-93877438D02*
X155415350Y-93829819D01*
X155415350Y-93829819D02*
X155272493Y-93829819D01*
X155272493Y-93829819D02*
X155129636Y-93877438D01*
X155129636Y-93877438D02*
X155034398Y-93972676D01*
X155034398Y-93972676D02*
X154986779Y-94067914D01*
X154986779Y-94067914D02*
X154939160Y-94258390D01*
X154939160Y-94258390D02*
X154939160Y-94401247D01*
X154939160Y-94401247D02*
X154986779Y-94591723D01*
X154986779Y-94591723D02*
X155034398Y-94686961D01*
X155034398Y-94686961D02*
X155129636Y-94782200D01*
X155129636Y-94782200D02*
X155272493Y-94829819D01*
X155272493Y-94829819D02*
X155367731Y-94829819D01*
X155367731Y-94829819D02*
X155510588Y-94782200D01*
X155510588Y-94782200D02*
X155558207Y-94734580D01*
X155558207Y-94734580D02*
X155558207Y-94401247D01*
X155558207Y-94401247D02*
X155367731Y-94401247D01*
X155986779Y-94829819D02*
X155986779Y-93829819D01*
X155986779Y-93829819D02*
X156367731Y-93829819D01*
X156367731Y-93829819D02*
X156462969Y-93877438D01*
X156462969Y-93877438D02*
X156510588Y-93925057D01*
X156510588Y-93925057D02*
X156558207Y-94020295D01*
X156558207Y-94020295D02*
X156558207Y-94163152D01*
X156558207Y-94163152D02*
X156510588Y-94258390D01*
X156510588Y-94258390D02*
X156462969Y-94306009D01*
X156462969Y-94306009D02*
X156367731Y-94353628D01*
X156367731Y-94353628D02*
X155986779Y-94353628D01*
X156939160Y-93925057D02*
X156986779Y-93877438D01*
X156986779Y-93877438D02*
X157082017Y-93829819D01*
X157082017Y-93829819D02*
X157320112Y-93829819D01*
X157320112Y-93829819D02*
X157415350Y-93877438D01*
X157415350Y-93877438D02*
X157462969Y-93925057D01*
X157462969Y-93925057D02*
X157510588Y-94020295D01*
X157510588Y-94020295D02*
X157510588Y-94115533D01*
X157510588Y-94115533D02*
X157462969Y-94258390D01*
X157462969Y-94258390D02*
X156891541Y-94829819D01*
X156891541Y-94829819D02*
X157510588Y-94829819D01*
X157891541Y-93925057D02*
X157939160Y-93877438D01*
X157939160Y-93877438D02*
X158034398Y-93829819D01*
X158034398Y-93829819D02*
X158272493Y-93829819D01*
X158272493Y-93829819D02*
X158367731Y-93877438D01*
X158367731Y-93877438D02*
X158415350Y-93925057D01*
X158415350Y-93925057D02*
X158462969Y-94020295D01*
X158462969Y-94020295D02*
X158462969Y-94115533D01*
X158462969Y-94115533D02*
X158415350Y-94258390D01*
X158415350Y-94258390D02*
X157843922Y-94829819D01*
X157843922Y-94829819D02*
X158462969Y-94829819D01*
X166680588Y-104057438D02*
X166585350Y-104009819D01*
X166585350Y-104009819D02*
X166442493Y-104009819D01*
X166442493Y-104009819D02*
X166299636Y-104057438D01*
X166299636Y-104057438D02*
X166204398Y-104152676D01*
X166204398Y-104152676D02*
X166156779Y-104247914D01*
X166156779Y-104247914D02*
X166109160Y-104438390D01*
X166109160Y-104438390D02*
X166109160Y-104581247D01*
X166109160Y-104581247D02*
X166156779Y-104771723D01*
X166156779Y-104771723D02*
X166204398Y-104866961D01*
X166204398Y-104866961D02*
X166299636Y-104962200D01*
X166299636Y-104962200D02*
X166442493Y-105009819D01*
X166442493Y-105009819D02*
X166537731Y-105009819D01*
X166537731Y-105009819D02*
X166680588Y-104962200D01*
X166680588Y-104962200D02*
X166728207Y-104914580D01*
X166728207Y-104914580D02*
X166728207Y-104581247D01*
X166728207Y-104581247D02*
X166537731Y-104581247D01*
X167156779Y-105009819D02*
X167156779Y-104009819D01*
X167156779Y-104009819D02*
X167537731Y-104009819D01*
X167537731Y-104009819D02*
X167632969Y-104057438D01*
X167632969Y-104057438D02*
X167680588Y-104105057D01*
X167680588Y-104105057D02*
X167728207Y-104200295D01*
X167728207Y-104200295D02*
X167728207Y-104343152D01*
X167728207Y-104343152D02*
X167680588Y-104438390D01*
X167680588Y-104438390D02*
X167632969Y-104486009D01*
X167632969Y-104486009D02*
X167537731Y-104533628D01*
X167537731Y-104533628D02*
X167156779Y-104533628D01*
X168061541Y-104009819D02*
X168680588Y-104009819D01*
X168680588Y-104009819D02*
X168347255Y-104390771D01*
X168347255Y-104390771D02*
X168490112Y-104390771D01*
X168490112Y-104390771D02*
X168585350Y-104438390D01*
X168585350Y-104438390D02*
X168632969Y-104486009D01*
X168632969Y-104486009D02*
X168680588Y-104581247D01*
X168680588Y-104581247D02*
X168680588Y-104819342D01*
X168680588Y-104819342D02*
X168632969Y-104914580D01*
X168632969Y-104914580D02*
X168585350Y-104962200D01*
X168585350Y-104962200D02*
X168490112Y-105009819D01*
X168490112Y-105009819D02*
X168204398Y-105009819D01*
X168204398Y-105009819D02*
X168109160Y-104962200D01*
X168109160Y-104962200D02*
X168061541Y-104914580D01*
X169394874Y-105390771D02*
X169347255Y-105343152D01*
X169347255Y-105343152D02*
X169252017Y-105200295D01*
X169252017Y-105200295D02*
X169204398Y-105105057D01*
X169204398Y-105105057D02*
X169156779Y-104962200D01*
X169156779Y-104962200D02*
X169109160Y-104724104D01*
X169109160Y-104724104D02*
X169109160Y-104533628D01*
X169109160Y-104533628D02*
X169156779Y-104295533D01*
X169156779Y-104295533D02*
X169204398Y-104152676D01*
X169204398Y-104152676D02*
X169252017Y-104057438D01*
X169252017Y-104057438D02*
X169347255Y-103914580D01*
X169347255Y-103914580D02*
X169394874Y-103866961D01*
X170299636Y-105009819D02*
X169728208Y-105009819D01*
X170013922Y-105009819D02*
X170013922Y-104009819D01*
X170013922Y-104009819D02*
X169918684Y-104152676D01*
X169918684Y-104152676D02*
X169823446Y-104247914D01*
X169823446Y-104247914D02*
X169728208Y-104295533D01*
X170632970Y-105390771D02*
X170680589Y-105343152D01*
X170680589Y-105343152D02*
X170775827Y-105200295D01*
X170775827Y-105200295D02*
X170823446Y-105105057D01*
X170823446Y-105105057D02*
X170871065Y-104962200D01*
X170871065Y-104962200D02*
X170918684Y-104724104D01*
X170918684Y-104724104D02*
X170918684Y-104533628D01*
X170918684Y-104533628D02*
X170871065Y-104295533D01*
X170871065Y-104295533D02*
X170823446Y-104152676D01*
X170823446Y-104152676D02*
X170775827Y-104057438D01*
X170775827Y-104057438D02*
X170680589Y-103914580D01*
X170680589Y-103914580D02*
X170632970Y-103866961D01*
X172109160Y-103962200D02*
X171252018Y-105247914D01*
X172394875Y-104962200D02*
X172537732Y-105009819D01*
X172537732Y-105009819D02*
X172775827Y-105009819D01*
X172775827Y-105009819D02*
X172871065Y-104962200D01*
X172871065Y-104962200D02*
X172918684Y-104914580D01*
X172918684Y-104914580D02*
X172966303Y-104819342D01*
X172966303Y-104819342D02*
X172966303Y-104724104D01*
X172966303Y-104724104D02*
X172918684Y-104628866D01*
X172918684Y-104628866D02*
X172871065Y-104581247D01*
X172871065Y-104581247D02*
X172775827Y-104533628D01*
X172775827Y-104533628D02*
X172585351Y-104486009D01*
X172585351Y-104486009D02*
X172490113Y-104438390D01*
X172490113Y-104438390D02*
X172442494Y-104390771D01*
X172442494Y-104390771D02*
X172394875Y-104295533D01*
X172394875Y-104295533D02*
X172394875Y-104200295D01*
X172394875Y-104200295D02*
X172442494Y-104105057D01*
X172442494Y-104105057D02*
X172490113Y-104057438D01*
X172490113Y-104057438D02*
X172585351Y-104009819D01*
X172585351Y-104009819D02*
X172823446Y-104009819D01*
X172823446Y-104009819D02*
X172966303Y-104057438D01*
X173966303Y-104914580D02*
X173918684Y-104962200D01*
X173918684Y-104962200D02*
X173775827Y-105009819D01*
X173775827Y-105009819D02*
X173680589Y-105009819D01*
X173680589Y-105009819D02*
X173537732Y-104962200D01*
X173537732Y-104962200D02*
X173442494Y-104866961D01*
X173442494Y-104866961D02*
X173394875Y-104771723D01*
X173394875Y-104771723D02*
X173347256Y-104581247D01*
X173347256Y-104581247D02*
X173347256Y-104438390D01*
X173347256Y-104438390D02*
X173394875Y-104247914D01*
X173394875Y-104247914D02*
X173442494Y-104152676D01*
X173442494Y-104152676D02*
X173537732Y-104057438D01*
X173537732Y-104057438D02*
X173680589Y-104009819D01*
X173680589Y-104009819D02*
X173775827Y-104009819D01*
X173775827Y-104009819D02*
X173918684Y-104057438D01*
X173918684Y-104057438D02*
X173966303Y-104105057D01*
X174871065Y-105009819D02*
X174394875Y-105009819D01*
X174394875Y-105009819D02*
X174394875Y-104009819D01*
X167390588Y-93827438D02*
X167295350Y-93779819D01*
X167295350Y-93779819D02*
X167152493Y-93779819D01*
X167152493Y-93779819D02*
X167009636Y-93827438D01*
X167009636Y-93827438D02*
X166914398Y-93922676D01*
X166914398Y-93922676D02*
X166866779Y-94017914D01*
X166866779Y-94017914D02*
X166819160Y-94208390D01*
X166819160Y-94208390D02*
X166819160Y-94351247D01*
X166819160Y-94351247D02*
X166866779Y-94541723D01*
X166866779Y-94541723D02*
X166914398Y-94636961D01*
X166914398Y-94636961D02*
X167009636Y-94732200D01*
X167009636Y-94732200D02*
X167152493Y-94779819D01*
X167152493Y-94779819D02*
X167247731Y-94779819D01*
X167247731Y-94779819D02*
X167390588Y-94732200D01*
X167390588Y-94732200D02*
X167438207Y-94684580D01*
X167438207Y-94684580D02*
X167438207Y-94351247D01*
X167438207Y-94351247D02*
X167247731Y-94351247D01*
X167866779Y-94779819D02*
X167866779Y-93779819D01*
X167866779Y-93779819D02*
X168247731Y-93779819D01*
X168247731Y-93779819D02*
X168342969Y-93827438D01*
X168342969Y-93827438D02*
X168390588Y-93875057D01*
X168390588Y-93875057D02*
X168438207Y-93970295D01*
X168438207Y-93970295D02*
X168438207Y-94113152D01*
X168438207Y-94113152D02*
X168390588Y-94208390D01*
X168390588Y-94208390D02*
X168342969Y-94256009D01*
X168342969Y-94256009D02*
X168247731Y-94303628D01*
X168247731Y-94303628D02*
X167866779Y-94303628D01*
X169390588Y-94779819D02*
X168819160Y-94779819D01*
X169104874Y-94779819D02*
X169104874Y-93779819D01*
X169104874Y-93779819D02*
X169009636Y-93922676D01*
X169009636Y-93922676D02*
X168914398Y-94017914D01*
X168914398Y-94017914D02*
X168819160Y-94065533D01*
X169962017Y-94208390D02*
X169866779Y-94160771D01*
X169866779Y-94160771D02*
X169819160Y-94113152D01*
X169819160Y-94113152D02*
X169771541Y-94017914D01*
X169771541Y-94017914D02*
X169771541Y-93970295D01*
X169771541Y-93970295D02*
X169819160Y-93875057D01*
X169819160Y-93875057D02*
X169866779Y-93827438D01*
X169866779Y-93827438D02*
X169962017Y-93779819D01*
X169962017Y-93779819D02*
X170152493Y-93779819D01*
X170152493Y-93779819D02*
X170247731Y-93827438D01*
X170247731Y-93827438D02*
X170295350Y-93875057D01*
X170295350Y-93875057D02*
X170342969Y-93970295D01*
X170342969Y-93970295D02*
X170342969Y-94017914D01*
X170342969Y-94017914D02*
X170295350Y-94113152D01*
X170295350Y-94113152D02*
X170247731Y-94160771D01*
X170247731Y-94160771D02*
X170152493Y-94208390D01*
X170152493Y-94208390D02*
X169962017Y-94208390D01*
X169962017Y-94208390D02*
X169866779Y-94256009D01*
X169866779Y-94256009D02*
X169819160Y-94303628D01*
X169819160Y-94303628D02*
X169771541Y-94398866D01*
X169771541Y-94398866D02*
X169771541Y-94589342D01*
X169771541Y-94589342D02*
X169819160Y-94684580D01*
X169819160Y-94684580D02*
X169866779Y-94732200D01*
X169866779Y-94732200D02*
X169962017Y-94779819D01*
X169962017Y-94779819D02*
X170152493Y-94779819D01*
X170152493Y-94779819D02*
X170247731Y-94732200D01*
X170247731Y-94732200D02*
X170295350Y-94684580D01*
X170295350Y-94684580D02*
X170342969Y-94589342D01*
X170342969Y-94589342D02*
X170342969Y-94398866D01*
X170342969Y-94398866D02*
X170295350Y-94303628D01*
X170295350Y-94303628D02*
X170247731Y-94256009D01*
X170247731Y-94256009D02*
X170152493Y-94208390D01*
X171485826Y-93732200D02*
X170628684Y-95017914D01*
X171819160Y-94779819D02*
X171819160Y-93779819D01*
X171819160Y-93779819D02*
X172200112Y-93779819D01*
X172200112Y-93779819D02*
X172295350Y-93827438D01*
X172295350Y-93827438D02*
X172342969Y-93875057D01*
X172342969Y-93875057D02*
X172390588Y-93970295D01*
X172390588Y-93970295D02*
X172390588Y-94113152D01*
X172390588Y-94113152D02*
X172342969Y-94208390D01*
X172342969Y-94208390D02*
X172295350Y-94256009D01*
X172295350Y-94256009D02*
X172200112Y-94303628D01*
X172200112Y-94303628D02*
X171819160Y-94303628D01*
X172723922Y-93779819D02*
X172962017Y-94779819D01*
X172962017Y-94779819D02*
X173152493Y-94065533D01*
X173152493Y-94065533D02*
X173342969Y-94779819D01*
X173342969Y-94779819D02*
X173581065Y-93779819D01*
X173962017Y-94779819D02*
X173962017Y-93779819D01*
X173962017Y-93779819D02*
X174295350Y-94494104D01*
X174295350Y-94494104D02*
X174628683Y-93779819D01*
X174628683Y-93779819D02*
X174628683Y-94779819D01*
X168470588Y-101567438D02*
X168375350Y-101519819D01*
X168375350Y-101519819D02*
X168232493Y-101519819D01*
X168232493Y-101519819D02*
X168089636Y-101567438D01*
X168089636Y-101567438D02*
X167994398Y-101662676D01*
X167994398Y-101662676D02*
X167946779Y-101757914D01*
X167946779Y-101757914D02*
X167899160Y-101948390D01*
X167899160Y-101948390D02*
X167899160Y-102091247D01*
X167899160Y-102091247D02*
X167946779Y-102281723D01*
X167946779Y-102281723D02*
X167994398Y-102376961D01*
X167994398Y-102376961D02*
X168089636Y-102472200D01*
X168089636Y-102472200D02*
X168232493Y-102519819D01*
X168232493Y-102519819D02*
X168327731Y-102519819D01*
X168327731Y-102519819D02*
X168470588Y-102472200D01*
X168470588Y-102472200D02*
X168518207Y-102424580D01*
X168518207Y-102424580D02*
X168518207Y-102091247D01*
X168518207Y-102091247D02*
X168327731Y-102091247D01*
X168946779Y-102519819D02*
X168946779Y-101519819D01*
X168946779Y-101519819D02*
X169327731Y-101519819D01*
X169327731Y-101519819D02*
X169422969Y-101567438D01*
X169422969Y-101567438D02*
X169470588Y-101615057D01*
X169470588Y-101615057D02*
X169518207Y-101710295D01*
X169518207Y-101710295D02*
X169518207Y-101853152D01*
X169518207Y-101853152D02*
X169470588Y-101948390D01*
X169470588Y-101948390D02*
X169422969Y-101996009D01*
X169422969Y-101996009D02*
X169327731Y-102043628D01*
X169327731Y-102043628D02*
X168946779Y-102043628D01*
X170470588Y-102519819D02*
X169899160Y-102519819D01*
X170184874Y-102519819D02*
X170184874Y-101519819D01*
X170184874Y-101519819D02*
X170089636Y-101662676D01*
X170089636Y-101662676D02*
X169994398Y-101757914D01*
X169994398Y-101757914D02*
X169899160Y-101805533D01*
X171327731Y-101853152D02*
X171327731Y-102519819D01*
X171089636Y-101472200D02*
X170851541Y-102186485D01*
X170851541Y-102186485D02*
X171470588Y-102186485D01*
X172565826Y-101472200D02*
X171708684Y-102757914D01*
X172756303Y-101519819D02*
X173327731Y-101519819D01*
X173042017Y-102519819D02*
X173042017Y-101519819D01*
X173565827Y-101519819D02*
X174232493Y-102519819D01*
X174232493Y-101519819D02*
X173565827Y-102519819D01*
X139080588Y-96157438D02*
X138985350Y-96109819D01*
X138985350Y-96109819D02*
X138842493Y-96109819D01*
X138842493Y-96109819D02*
X138699636Y-96157438D01*
X138699636Y-96157438D02*
X138604398Y-96252676D01*
X138604398Y-96252676D02*
X138556779Y-96347914D01*
X138556779Y-96347914D02*
X138509160Y-96538390D01*
X138509160Y-96538390D02*
X138509160Y-96681247D01*
X138509160Y-96681247D02*
X138556779Y-96871723D01*
X138556779Y-96871723D02*
X138604398Y-96966961D01*
X138604398Y-96966961D02*
X138699636Y-97062200D01*
X138699636Y-97062200D02*
X138842493Y-97109819D01*
X138842493Y-97109819D02*
X138937731Y-97109819D01*
X138937731Y-97109819D02*
X139080588Y-97062200D01*
X139080588Y-97062200D02*
X139128207Y-97014580D01*
X139128207Y-97014580D02*
X139128207Y-96681247D01*
X139128207Y-96681247D02*
X138937731Y-96681247D01*
X139556779Y-97109819D02*
X139556779Y-96109819D01*
X139556779Y-96109819D02*
X139937731Y-96109819D01*
X139937731Y-96109819D02*
X140032969Y-96157438D01*
X140032969Y-96157438D02*
X140080588Y-96205057D01*
X140080588Y-96205057D02*
X140128207Y-96300295D01*
X140128207Y-96300295D02*
X140128207Y-96443152D01*
X140128207Y-96443152D02*
X140080588Y-96538390D01*
X140080588Y-96538390D02*
X140032969Y-96586009D01*
X140032969Y-96586009D02*
X139937731Y-96633628D01*
X139937731Y-96633628D02*
X139556779Y-96633628D01*
X141080588Y-97109819D02*
X140509160Y-97109819D01*
X140794874Y-97109819D02*
X140794874Y-96109819D01*
X140794874Y-96109819D02*
X140699636Y-96252676D01*
X140699636Y-96252676D02*
X140604398Y-96347914D01*
X140604398Y-96347914D02*
X140509160Y-96395533D01*
X141413922Y-96109819D02*
X142080588Y-96109819D01*
X142080588Y-96109819D02*
X141652017Y-97109819D01*
X143175826Y-96062200D02*
X142318684Y-97347914D01*
X143509160Y-97109819D02*
X143509160Y-96109819D01*
X143985350Y-97109819D02*
X143985350Y-96109819D01*
X143985350Y-96109819D02*
X144556778Y-97109819D01*
X144556778Y-97109819D02*
X144556778Y-96109819D01*
X144890112Y-96109819D02*
X145461540Y-96109819D01*
X145175826Y-97109819D02*
X145175826Y-96109819D01*
X154956779Y-107169819D02*
X154956779Y-106169819D01*
X154956779Y-106169819D02*
X155290112Y-106884104D01*
X155290112Y-106884104D02*
X155623445Y-106169819D01*
X155623445Y-106169819D02*
X155623445Y-107169819D01*
X156290112Y-106169819D02*
X156480588Y-106169819D01*
X156480588Y-106169819D02*
X156575826Y-106217438D01*
X156575826Y-106217438D02*
X156671064Y-106312676D01*
X156671064Y-106312676D02*
X156718683Y-106503152D01*
X156718683Y-106503152D02*
X156718683Y-106836485D01*
X156718683Y-106836485D02*
X156671064Y-107026961D01*
X156671064Y-107026961D02*
X156575826Y-107122200D01*
X156575826Y-107122200D02*
X156480588Y-107169819D01*
X156480588Y-107169819D02*
X156290112Y-107169819D01*
X156290112Y-107169819D02*
X156194874Y-107122200D01*
X156194874Y-107122200D02*
X156099636Y-107026961D01*
X156099636Y-107026961D02*
X156052017Y-106836485D01*
X156052017Y-106836485D02*
X156052017Y-106503152D01*
X156052017Y-106503152D02*
X156099636Y-106312676D01*
X156099636Y-106312676D02*
X156194874Y-106217438D01*
X156194874Y-106217438D02*
X156290112Y-106169819D01*
X157099636Y-107122200D02*
X157242493Y-107169819D01*
X157242493Y-107169819D02*
X157480588Y-107169819D01*
X157480588Y-107169819D02*
X157575826Y-107122200D01*
X157575826Y-107122200D02*
X157623445Y-107074580D01*
X157623445Y-107074580D02*
X157671064Y-106979342D01*
X157671064Y-106979342D02*
X157671064Y-106884104D01*
X157671064Y-106884104D02*
X157623445Y-106788866D01*
X157623445Y-106788866D02*
X157575826Y-106741247D01*
X157575826Y-106741247D02*
X157480588Y-106693628D01*
X157480588Y-106693628D02*
X157290112Y-106646009D01*
X157290112Y-106646009D02*
X157194874Y-106598390D01*
X157194874Y-106598390D02*
X157147255Y-106550771D01*
X157147255Y-106550771D02*
X157099636Y-106455533D01*
X157099636Y-106455533D02*
X157099636Y-106360295D01*
X157099636Y-106360295D02*
X157147255Y-106265057D01*
X157147255Y-106265057D02*
X157194874Y-106217438D01*
X157194874Y-106217438D02*
X157290112Y-106169819D01*
X157290112Y-106169819D02*
X157528207Y-106169819D01*
X157528207Y-106169819D02*
X157671064Y-106217438D01*
X158099636Y-107169819D02*
X158099636Y-106169819D01*
X159290111Y-106122200D02*
X158432969Y-107407914D01*
X160147254Y-106217438D02*
X160052016Y-106169819D01*
X160052016Y-106169819D02*
X159909159Y-106169819D01*
X159909159Y-106169819D02*
X159766302Y-106217438D01*
X159766302Y-106217438D02*
X159671064Y-106312676D01*
X159671064Y-106312676D02*
X159623445Y-106407914D01*
X159623445Y-106407914D02*
X159575826Y-106598390D01*
X159575826Y-106598390D02*
X159575826Y-106741247D01*
X159575826Y-106741247D02*
X159623445Y-106931723D01*
X159623445Y-106931723D02*
X159671064Y-107026961D01*
X159671064Y-107026961D02*
X159766302Y-107122200D01*
X159766302Y-107122200D02*
X159909159Y-107169819D01*
X159909159Y-107169819D02*
X160004397Y-107169819D01*
X160004397Y-107169819D02*
X160147254Y-107122200D01*
X160147254Y-107122200D02*
X160194873Y-107074580D01*
X160194873Y-107074580D02*
X160194873Y-106741247D01*
X160194873Y-106741247D02*
X160004397Y-106741247D01*
X160623445Y-107169819D02*
X160623445Y-106169819D01*
X160623445Y-106169819D02*
X161004397Y-106169819D01*
X161004397Y-106169819D02*
X161099635Y-106217438D01*
X161099635Y-106217438D02*
X161147254Y-106265057D01*
X161147254Y-106265057D02*
X161194873Y-106360295D01*
X161194873Y-106360295D02*
X161194873Y-106503152D01*
X161194873Y-106503152D02*
X161147254Y-106598390D01*
X161147254Y-106598390D02*
X161099635Y-106646009D01*
X161099635Y-106646009D02*
X161004397Y-106693628D01*
X161004397Y-106693628D02*
X160623445Y-106693628D01*
X162147254Y-107169819D02*
X161575826Y-107169819D01*
X161861540Y-107169819D02*
X161861540Y-106169819D01*
X161861540Y-106169819D02*
X161766302Y-106312676D01*
X161766302Y-106312676D02*
X161671064Y-106407914D01*
X161671064Y-106407914D02*
X161575826Y-106455533D01*
X162766302Y-106169819D02*
X162861540Y-106169819D01*
X162861540Y-106169819D02*
X162956778Y-106217438D01*
X162956778Y-106217438D02*
X163004397Y-106265057D01*
X163004397Y-106265057D02*
X163052016Y-106360295D01*
X163052016Y-106360295D02*
X163099635Y-106550771D01*
X163099635Y-106550771D02*
X163099635Y-106788866D01*
X163099635Y-106788866D02*
X163052016Y-106979342D01*
X163052016Y-106979342D02*
X163004397Y-107074580D01*
X163004397Y-107074580D02*
X162956778Y-107122200D01*
X162956778Y-107122200D02*
X162861540Y-107169819D01*
X162861540Y-107169819D02*
X162766302Y-107169819D01*
X162766302Y-107169819D02*
X162671064Y-107122200D01*
X162671064Y-107122200D02*
X162623445Y-107074580D01*
X162623445Y-107074580D02*
X162575826Y-106979342D01*
X162575826Y-106979342D02*
X162528207Y-106788866D01*
X162528207Y-106788866D02*
X162528207Y-106550771D01*
X162528207Y-106550771D02*
X162575826Y-106360295D01*
X162575826Y-106360295D02*
X162623445Y-106265057D01*
X162623445Y-106265057D02*
X162671064Y-106217438D01*
X162671064Y-106217438D02*
X162766302Y-106169819D01*
X138490588Y-93667438D02*
X138395350Y-93619819D01*
X138395350Y-93619819D02*
X138252493Y-93619819D01*
X138252493Y-93619819D02*
X138109636Y-93667438D01*
X138109636Y-93667438D02*
X138014398Y-93762676D01*
X138014398Y-93762676D02*
X137966779Y-93857914D01*
X137966779Y-93857914D02*
X137919160Y-94048390D01*
X137919160Y-94048390D02*
X137919160Y-94191247D01*
X137919160Y-94191247D02*
X137966779Y-94381723D01*
X137966779Y-94381723D02*
X138014398Y-94476961D01*
X138014398Y-94476961D02*
X138109636Y-94572200D01*
X138109636Y-94572200D02*
X138252493Y-94619819D01*
X138252493Y-94619819D02*
X138347731Y-94619819D01*
X138347731Y-94619819D02*
X138490588Y-94572200D01*
X138490588Y-94572200D02*
X138538207Y-94524580D01*
X138538207Y-94524580D02*
X138538207Y-94191247D01*
X138538207Y-94191247D02*
X138347731Y-94191247D01*
X138966779Y-94619819D02*
X138966779Y-93619819D01*
X138966779Y-93619819D02*
X139347731Y-93619819D01*
X139347731Y-93619819D02*
X139442969Y-93667438D01*
X139442969Y-93667438D02*
X139490588Y-93715057D01*
X139490588Y-93715057D02*
X139538207Y-93810295D01*
X139538207Y-93810295D02*
X139538207Y-93953152D01*
X139538207Y-93953152D02*
X139490588Y-94048390D01*
X139490588Y-94048390D02*
X139442969Y-94096009D01*
X139442969Y-94096009D02*
X139347731Y-94143628D01*
X139347731Y-94143628D02*
X138966779Y-94143628D01*
X140490588Y-94619819D02*
X139919160Y-94619819D01*
X140204874Y-94619819D02*
X140204874Y-93619819D01*
X140204874Y-93619819D02*
X140109636Y-93762676D01*
X140109636Y-93762676D02*
X140014398Y-93857914D01*
X140014398Y-93857914D02*
X139919160Y-93905533D01*
X141062017Y-94048390D02*
X140966779Y-94000771D01*
X140966779Y-94000771D02*
X140919160Y-93953152D01*
X140919160Y-93953152D02*
X140871541Y-93857914D01*
X140871541Y-93857914D02*
X140871541Y-93810295D01*
X140871541Y-93810295D02*
X140919160Y-93715057D01*
X140919160Y-93715057D02*
X140966779Y-93667438D01*
X140966779Y-93667438D02*
X141062017Y-93619819D01*
X141062017Y-93619819D02*
X141252493Y-93619819D01*
X141252493Y-93619819D02*
X141347731Y-93667438D01*
X141347731Y-93667438D02*
X141395350Y-93715057D01*
X141395350Y-93715057D02*
X141442969Y-93810295D01*
X141442969Y-93810295D02*
X141442969Y-93857914D01*
X141442969Y-93857914D02*
X141395350Y-93953152D01*
X141395350Y-93953152D02*
X141347731Y-94000771D01*
X141347731Y-94000771D02*
X141252493Y-94048390D01*
X141252493Y-94048390D02*
X141062017Y-94048390D01*
X141062017Y-94048390D02*
X140966779Y-94096009D01*
X140966779Y-94096009D02*
X140919160Y-94143628D01*
X140919160Y-94143628D02*
X140871541Y-94238866D01*
X140871541Y-94238866D02*
X140871541Y-94429342D01*
X140871541Y-94429342D02*
X140919160Y-94524580D01*
X140919160Y-94524580D02*
X140966779Y-94572200D01*
X140966779Y-94572200D02*
X141062017Y-94619819D01*
X141062017Y-94619819D02*
X141252493Y-94619819D01*
X141252493Y-94619819D02*
X141347731Y-94572200D01*
X141347731Y-94572200D02*
X141395350Y-94524580D01*
X141395350Y-94524580D02*
X141442969Y-94429342D01*
X141442969Y-94429342D02*
X141442969Y-94238866D01*
X141442969Y-94238866D02*
X141395350Y-94143628D01*
X141395350Y-94143628D02*
X141347731Y-94096009D01*
X141347731Y-94096009D02*
X141252493Y-94048390D01*
X142585826Y-93572200D02*
X141728684Y-94857914D01*
X142919160Y-94619819D02*
X142919160Y-93619819D01*
X142919160Y-93619819D02*
X143300112Y-93619819D01*
X143300112Y-93619819D02*
X143395350Y-93667438D01*
X143395350Y-93667438D02*
X143442969Y-93715057D01*
X143442969Y-93715057D02*
X143490588Y-93810295D01*
X143490588Y-93810295D02*
X143490588Y-93953152D01*
X143490588Y-93953152D02*
X143442969Y-94048390D01*
X143442969Y-94048390D02*
X143395350Y-94096009D01*
X143395350Y-94096009D02*
X143300112Y-94143628D01*
X143300112Y-94143628D02*
X142919160Y-94143628D01*
X143823922Y-93619819D02*
X144062017Y-94619819D01*
X144062017Y-94619819D02*
X144252493Y-93905533D01*
X144252493Y-93905533D02*
X144442969Y-94619819D01*
X144442969Y-94619819D02*
X144681065Y-93619819D01*
X145062017Y-94619819D02*
X145062017Y-93619819D01*
X145062017Y-93619819D02*
X145395350Y-94334104D01*
X145395350Y-94334104D02*
X145728683Y-93619819D01*
X145728683Y-93619819D02*
X145728683Y-94619819D01*
D11*
X164199347Y-111731342D02*
X164318395Y-111612295D01*
X164318395Y-111612295D02*
X164556490Y-111493247D01*
X164556490Y-111493247D02*
X165151728Y-111493247D01*
X165151728Y-111493247D02*
X165389823Y-111612295D01*
X165389823Y-111612295D02*
X165508871Y-111731342D01*
X165508871Y-111731342D02*
X165627918Y-111969438D01*
X165627918Y-111969438D02*
X165627918Y-112207533D01*
X165627918Y-112207533D02*
X165508871Y-112564676D01*
X165508871Y-112564676D02*
X164080299Y-113993247D01*
X164080299Y-113993247D02*
X165627918Y-113993247D01*
D10*
X172640588Y-111637438D02*
X172545350Y-111589819D01*
X172545350Y-111589819D02*
X172402493Y-111589819D01*
X172402493Y-111589819D02*
X172259636Y-111637438D01*
X172259636Y-111637438D02*
X172164398Y-111732676D01*
X172164398Y-111732676D02*
X172116779Y-111827914D01*
X172116779Y-111827914D02*
X172069160Y-112018390D01*
X172069160Y-112018390D02*
X172069160Y-112161247D01*
X172069160Y-112161247D02*
X172116779Y-112351723D01*
X172116779Y-112351723D02*
X172164398Y-112446961D01*
X172164398Y-112446961D02*
X172259636Y-112542200D01*
X172259636Y-112542200D02*
X172402493Y-112589819D01*
X172402493Y-112589819D02*
X172497731Y-112589819D01*
X172497731Y-112589819D02*
X172640588Y-112542200D01*
X172640588Y-112542200D02*
X172688207Y-112494580D01*
X172688207Y-112494580D02*
X172688207Y-112161247D01*
X172688207Y-112161247D02*
X172497731Y-112161247D01*
X173116779Y-112589819D02*
X173116779Y-111589819D01*
X173116779Y-111589819D02*
X173688207Y-112589819D01*
X173688207Y-112589819D02*
X173688207Y-111589819D01*
X174164398Y-112589819D02*
X174164398Y-111589819D01*
X174164398Y-111589819D02*
X174402493Y-111589819D01*
X174402493Y-111589819D02*
X174545350Y-111637438D01*
X174545350Y-111637438D02*
X174640588Y-111732676D01*
X174640588Y-111732676D02*
X174688207Y-111827914D01*
X174688207Y-111827914D02*
X174735826Y-112018390D01*
X174735826Y-112018390D02*
X174735826Y-112161247D01*
X174735826Y-112161247D02*
X174688207Y-112351723D01*
X174688207Y-112351723D02*
X174640588Y-112446961D01*
X174640588Y-112446961D02*
X174545350Y-112542200D01*
X174545350Y-112542200D02*
X174402493Y-112589819D01*
X174402493Y-112589819D02*
X174164398Y-112589819D01*
X125616779Y-109228866D02*
X126378684Y-109228866D01*
X125997731Y-109609819D02*
X125997731Y-108847914D01*
X126759636Y-108609819D02*
X127378683Y-108609819D01*
X127378683Y-108609819D02*
X127045350Y-108990771D01*
X127045350Y-108990771D02*
X127188207Y-108990771D01*
X127188207Y-108990771D02*
X127283445Y-109038390D01*
X127283445Y-109038390D02*
X127331064Y-109086009D01*
X127331064Y-109086009D02*
X127378683Y-109181247D01*
X127378683Y-109181247D02*
X127378683Y-109419342D01*
X127378683Y-109419342D02*
X127331064Y-109514580D01*
X127331064Y-109514580D02*
X127283445Y-109562200D01*
X127283445Y-109562200D02*
X127188207Y-109609819D01*
X127188207Y-109609819D02*
X126902493Y-109609819D01*
X126902493Y-109609819D02*
X126807255Y-109562200D01*
X126807255Y-109562200D02*
X126759636Y-109514580D01*
X127807255Y-109514580D02*
X127854874Y-109562200D01*
X127854874Y-109562200D02*
X127807255Y-109609819D01*
X127807255Y-109609819D02*
X127759636Y-109562200D01*
X127759636Y-109562200D02*
X127807255Y-109514580D01*
X127807255Y-109514580D02*
X127807255Y-109609819D01*
X128188207Y-108609819D02*
X128807254Y-108609819D01*
X128807254Y-108609819D02*
X128473921Y-108990771D01*
X128473921Y-108990771D02*
X128616778Y-108990771D01*
X128616778Y-108990771D02*
X128712016Y-109038390D01*
X128712016Y-109038390D02*
X128759635Y-109086009D01*
X128759635Y-109086009D02*
X128807254Y-109181247D01*
X128807254Y-109181247D02*
X128807254Y-109419342D01*
X128807254Y-109419342D02*
X128759635Y-109514580D01*
X128759635Y-109514580D02*
X128712016Y-109562200D01*
X128712016Y-109562200D02*
X128616778Y-109609819D01*
X128616778Y-109609819D02*
X128331064Y-109609819D01*
X128331064Y-109609819D02*
X128235826Y-109562200D01*
X128235826Y-109562200D02*
X128188207Y-109514580D01*
X129092969Y-108609819D02*
X129426302Y-109609819D01*
X129426302Y-109609819D02*
X129759635Y-108609819D01*
X155598207Y-99674580D02*
X155550588Y-99722200D01*
X155550588Y-99722200D02*
X155407731Y-99769819D01*
X155407731Y-99769819D02*
X155312493Y-99769819D01*
X155312493Y-99769819D02*
X155169636Y-99722200D01*
X155169636Y-99722200D02*
X155074398Y-99626961D01*
X155074398Y-99626961D02*
X155026779Y-99531723D01*
X155026779Y-99531723D02*
X154979160Y-99341247D01*
X154979160Y-99341247D02*
X154979160Y-99198390D01*
X154979160Y-99198390D02*
X155026779Y-99007914D01*
X155026779Y-99007914D02*
X155074398Y-98912676D01*
X155074398Y-98912676D02*
X155169636Y-98817438D01*
X155169636Y-98817438D02*
X155312493Y-98769819D01*
X155312493Y-98769819D02*
X155407731Y-98769819D01*
X155407731Y-98769819D02*
X155550588Y-98817438D01*
X155550588Y-98817438D02*
X155598207Y-98865057D01*
X155979160Y-99722200D02*
X156122017Y-99769819D01*
X156122017Y-99769819D02*
X156360112Y-99769819D01*
X156360112Y-99769819D02*
X156455350Y-99722200D01*
X156455350Y-99722200D02*
X156502969Y-99674580D01*
X156502969Y-99674580D02*
X156550588Y-99579342D01*
X156550588Y-99579342D02*
X156550588Y-99484104D01*
X156550588Y-99484104D02*
X156502969Y-99388866D01*
X156502969Y-99388866D02*
X156455350Y-99341247D01*
X156455350Y-99341247D02*
X156360112Y-99293628D01*
X156360112Y-99293628D02*
X156169636Y-99246009D01*
X156169636Y-99246009D02*
X156074398Y-99198390D01*
X156074398Y-99198390D02*
X156026779Y-99150771D01*
X156026779Y-99150771D02*
X155979160Y-99055533D01*
X155979160Y-99055533D02*
X155979160Y-98960295D01*
X155979160Y-98960295D02*
X156026779Y-98865057D01*
X156026779Y-98865057D02*
X156074398Y-98817438D01*
X156074398Y-98817438D02*
X156169636Y-98769819D01*
X156169636Y-98769819D02*
X156407731Y-98769819D01*
X156407731Y-98769819D02*
X156550588Y-98817438D01*
X157693445Y-98722200D02*
X156836303Y-100007914D01*
X158550588Y-98817438D02*
X158455350Y-98769819D01*
X158455350Y-98769819D02*
X158312493Y-98769819D01*
X158312493Y-98769819D02*
X158169636Y-98817438D01*
X158169636Y-98817438D02*
X158074398Y-98912676D01*
X158074398Y-98912676D02*
X158026779Y-99007914D01*
X158026779Y-99007914D02*
X157979160Y-99198390D01*
X157979160Y-99198390D02*
X157979160Y-99341247D01*
X157979160Y-99341247D02*
X158026779Y-99531723D01*
X158026779Y-99531723D02*
X158074398Y-99626961D01*
X158074398Y-99626961D02*
X158169636Y-99722200D01*
X158169636Y-99722200D02*
X158312493Y-99769819D01*
X158312493Y-99769819D02*
X158407731Y-99769819D01*
X158407731Y-99769819D02*
X158550588Y-99722200D01*
X158550588Y-99722200D02*
X158598207Y-99674580D01*
X158598207Y-99674580D02*
X158598207Y-99341247D01*
X158598207Y-99341247D02*
X158407731Y-99341247D01*
X159026779Y-99769819D02*
X159026779Y-98769819D01*
X159026779Y-98769819D02*
X159407731Y-98769819D01*
X159407731Y-98769819D02*
X159502969Y-98817438D01*
X159502969Y-98817438D02*
X159550588Y-98865057D01*
X159550588Y-98865057D02*
X159598207Y-98960295D01*
X159598207Y-98960295D02*
X159598207Y-99103152D01*
X159598207Y-99103152D02*
X159550588Y-99198390D01*
X159550588Y-99198390D02*
X159502969Y-99246009D01*
X159502969Y-99246009D02*
X159407731Y-99293628D01*
X159407731Y-99293628D02*
X159026779Y-99293628D01*
X160169636Y-99198390D02*
X160074398Y-99150771D01*
X160074398Y-99150771D02*
X160026779Y-99103152D01*
X160026779Y-99103152D02*
X159979160Y-99007914D01*
X159979160Y-99007914D02*
X159979160Y-98960295D01*
X159979160Y-98960295D02*
X160026779Y-98865057D01*
X160026779Y-98865057D02*
X160074398Y-98817438D01*
X160074398Y-98817438D02*
X160169636Y-98769819D01*
X160169636Y-98769819D02*
X160360112Y-98769819D01*
X160360112Y-98769819D02*
X160455350Y-98817438D01*
X160455350Y-98817438D02*
X160502969Y-98865057D01*
X160502969Y-98865057D02*
X160550588Y-98960295D01*
X160550588Y-98960295D02*
X160550588Y-99007914D01*
X160550588Y-99007914D02*
X160502969Y-99103152D01*
X160502969Y-99103152D02*
X160455350Y-99150771D01*
X160455350Y-99150771D02*
X160360112Y-99198390D01*
X160360112Y-99198390D02*
X160169636Y-99198390D01*
X160169636Y-99198390D02*
X160074398Y-99246009D01*
X160074398Y-99246009D02*
X160026779Y-99293628D01*
X160026779Y-99293628D02*
X159979160Y-99388866D01*
X159979160Y-99388866D02*
X159979160Y-99579342D01*
X159979160Y-99579342D02*
X160026779Y-99674580D01*
X160026779Y-99674580D02*
X160074398Y-99722200D01*
X160074398Y-99722200D02*
X160169636Y-99769819D01*
X160169636Y-99769819D02*
X160360112Y-99769819D01*
X160360112Y-99769819D02*
X160455350Y-99722200D01*
X160455350Y-99722200D02*
X160502969Y-99674580D01*
X160502969Y-99674580D02*
X160550588Y-99579342D01*
X160550588Y-99579342D02*
X160550588Y-99388866D01*
X160550588Y-99388866D02*
X160502969Y-99293628D01*
X160502969Y-99293628D02*
X160455350Y-99246009D01*
X160455350Y-99246009D02*
X160360112Y-99198390D01*
X155340588Y-111507438D02*
X155245350Y-111459819D01*
X155245350Y-111459819D02*
X155102493Y-111459819D01*
X155102493Y-111459819D02*
X154959636Y-111507438D01*
X154959636Y-111507438D02*
X154864398Y-111602676D01*
X154864398Y-111602676D02*
X154816779Y-111697914D01*
X154816779Y-111697914D02*
X154769160Y-111888390D01*
X154769160Y-111888390D02*
X154769160Y-112031247D01*
X154769160Y-112031247D02*
X154816779Y-112221723D01*
X154816779Y-112221723D02*
X154864398Y-112316961D01*
X154864398Y-112316961D02*
X154959636Y-112412200D01*
X154959636Y-112412200D02*
X155102493Y-112459819D01*
X155102493Y-112459819D02*
X155197731Y-112459819D01*
X155197731Y-112459819D02*
X155340588Y-112412200D01*
X155340588Y-112412200D02*
X155388207Y-112364580D01*
X155388207Y-112364580D02*
X155388207Y-112031247D01*
X155388207Y-112031247D02*
X155197731Y-112031247D01*
X155816779Y-112459819D02*
X155816779Y-111459819D01*
X155816779Y-111459819D02*
X156388207Y-112459819D01*
X156388207Y-112459819D02*
X156388207Y-111459819D01*
X156864398Y-112459819D02*
X156864398Y-111459819D01*
X156864398Y-111459819D02*
X157102493Y-111459819D01*
X157102493Y-111459819D02*
X157245350Y-111507438D01*
X157245350Y-111507438D02*
X157340588Y-111602676D01*
X157340588Y-111602676D02*
X157388207Y-111697914D01*
X157388207Y-111697914D02*
X157435826Y-111888390D01*
X157435826Y-111888390D02*
X157435826Y-112031247D01*
X157435826Y-112031247D02*
X157388207Y-112221723D01*
X157388207Y-112221723D02*
X157340588Y-112316961D01*
X157340588Y-112316961D02*
X157245350Y-112412200D01*
X157245350Y-112412200D02*
X157102493Y-112459819D01*
X157102493Y-112459819D02*
X156864398Y-112459819D01*
X167980588Y-96317438D02*
X167885350Y-96269819D01*
X167885350Y-96269819D02*
X167742493Y-96269819D01*
X167742493Y-96269819D02*
X167599636Y-96317438D01*
X167599636Y-96317438D02*
X167504398Y-96412676D01*
X167504398Y-96412676D02*
X167456779Y-96507914D01*
X167456779Y-96507914D02*
X167409160Y-96698390D01*
X167409160Y-96698390D02*
X167409160Y-96841247D01*
X167409160Y-96841247D02*
X167456779Y-97031723D01*
X167456779Y-97031723D02*
X167504398Y-97126961D01*
X167504398Y-97126961D02*
X167599636Y-97222200D01*
X167599636Y-97222200D02*
X167742493Y-97269819D01*
X167742493Y-97269819D02*
X167837731Y-97269819D01*
X167837731Y-97269819D02*
X167980588Y-97222200D01*
X167980588Y-97222200D02*
X168028207Y-97174580D01*
X168028207Y-97174580D02*
X168028207Y-96841247D01*
X168028207Y-96841247D02*
X167837731Y-96841247D01*
X168456779Y-97269819D02*
X168456779Y-96269819D01*
X168456779Y-96269819D02*
X168837731Y-96269819D01*
X168837731Y-96269819D02*
X168932969Y-96317438D01*
X168932969Y-96317438D02*
X168980588Y-96365057D01*
X168980588Y-96365057D02*
X169028207Y-96460295D01*
X169028207Y-96460295D02*
X169028207Y-96603152D01*
X169028207Y-96603152D02*
X168980588Y-96698390D01*
X168980588Y-96698390D02*
X168932969Y-96746009D01*
X168932969Y-96746009D02*
X168837731Y-96793628D01*
X168837731Y-96793628D02*
X168456779Y-96793628D01*
X169980588Y-97269819D02*
X169409160Y-97269819D01*
X169694874Y-97269819D02*
X169694874Y-96269819D01*
X169694874Y-96269819D02*
X169599636Y-96412676D01*
X169599636Y-96412676D02*
X169504398Y-96507914D01*
X169504398Y-96507914D02*
X169409160Y-96555533D01*
X170313922Y-96269819D02*
X170980588Y-96269819D01*
X170980588Y-96269819D02*
X170552017Y-97269819D01*
X172075826Y-96222200D02*
X171218684Y-97507914D01*
X172409160Y-97269819D02*
X172409160Y-96269819D01*
X172885350Y-97269819D02*
X172885350Y-96269819D01*
X172885350Y-96269819D02*
X173456778Y-97269819D01*
X173456778Y-97269819D02*
X173456778Y-96269819D01*
X173790112Y-96269819D02*
X174361540Y-96269819D01*
X174075826Y-97269819D02*
X174075826Y-96269819D01*
X125899160Y-102202200D02*
X126042017Y-102249819D01*
X126042017Y-102249819D02*
X126280112Y-102249819D01*
X126280112Y-102249819D02*
X126375350Y-102202200D01*
X126375350Y-102202200D02*
X126422969Y-102154580D01*
X126422969Y-102154580D02*
X126470588Y-102059342D01*
X126470588Y-102059342D02*
X126470588Y-101964104D01*
X126470588Y-101964104D02*
X126422969Y-101868866D01*
X126422969Y-101868866D02*
X126375350Y-101821247D01*
X126375350Y-101821247D02*
X126280112Y-101773628D01*
X126280112Y-101773628D02*
X126089636Y-101726009D01*
X126089636Y-101726009D02*
X125994398Y-101678390D01*
X125994398Y-101678390D02*
X125946779Y-101630771D01*
X125946779Y-101630771D02*
X125899160Y-101535533D01*
X125899160Y-101535533D02*
X125899160Y-101440295D01*
X125899160Y-101440295D02*
X125946779Y-101345057D01*
X125946779Y-101345057D02*
X125994398Y-101297438D01*
X125994398Y-101297438D02*
X126089636Y-101249819D01*
X126089636Y-101249819D02*
X126327731Y-101249819D01*
X126327731Y-101249819D02*
X126470588Y-101297438D01*
X127470588Y-102154580D02*
X127422969Y-102202200D01*
X127422969Y-102202200D02*
X127280112Y-102249819D01*
X127280112Y-102249819D02*
X127184874Y-102249819D01*
X127184874Y-102249819D02*
X127042017Y-102202200D01*
X127042017Y-102202200D02*
X126946779Y-102106961D01*
X126946779Y-102106961D02*
X126899160Y-102011723D01*
X126899160Y-102011723D02*
X126851541Y-101821247D01*
X126851541Y-101821247D02*
X126851541Y-101678390D01*
X126851541Y-101678390D02*
X126899160Y-101487914D01*
X126899160Y-101487914D02*
X126946779Y-101392676D01*
X126946779Y-101392676D02*
X127042017Y-101297438D01*
X127042017Y-101297438D02*
X127184874Y-101249819D01*
X127184874Y-101249819D02*
X127280112Y-101249819D01*
X127280112Y-101249819D02*
X127422969Y-101297438D01*
X127422969Y-101297438D02*
X127470588Y-101345057D01*
X127899160Y-102249819D02*
X127899160Y-101249819D01*
X128470588Y-102249819D02*
X128042017Y-101678390D01*
X128470588Y-101249819D02*
X127899160Y-101821247D01*
X129613445Y-101202200D02*
X128756303Y-102487914D01*
X130470588Y-101297438D02*
X130375350Y-101249819D01*
X130375350Y-101249819D02*
X130232493Y-101249819D01*
X130232493Y-101249819D02*
X130089636Y-101297438D01*
X130089636Y-101297438D02*
X129994398Y-101392676D01*
X129994398Y-101392676D02*
X129946779Y-101487914D01*
X129946779Y-101487914D02*
X129899160Y-101678390D01*
X129899160Y-101678390D02*
X129899160Y-101821247D01*
X129899160Y-101821247D02*
X129946779Y-102011723D01*
X129946779Y-102011723D02*
X129994398Y-102106961D01*
X129994398Y-102106961D02*
X130089636Y-102202200D01*
X130089636Y-102202200D02*
X130232493Y-102249819D01*
X130232493Y-102249819D02*
X130327731Y-102249819D01*
X130327731Y-102249819D02*
X130470588Y-102202200D01*
X130470588Y-102202200D02*
X130518207Y-102154580D01*
X130518207Y-102154580D02*
X130518207Y-101821247D01*
X130518207Y-101821247D02*
X130327731Y-101821247D01*
X130946779Y-102249819D02*
X130946779Y-101249819D01*
X130946779Y-101249819D02*
X131327731Y-101249819D01*
X131327731Y-101249819D02*
X131422969Y-101297438D01*
X131422969Y-101297438D02*
X131470588Y-101345057D01*
X131470588Y-101345057D02*
X131518207Y-101440295D01*
X131518207Y-101440295D02*
X131518207Y-101583152D01*
X131518207Y-101583152D02*
X131470588Y-101678390D01*
X131470588Y-101678390D02*
X131422969Y-101726009D01*
X131422969Y-101726009D02*
X131327731Y-101773628D01*
X131327731Y-101773628D02*
X130946779Y-101773628D01*
X132470588Y-102249819D02*
X131899160Y-102249819D01*
X132184874Y-102249819D02*
X132184874Y-101249819D01*
X132184874Y-101249819D02*
X132089636Y-101392676D01*
X132089636Y-101392676D02*
X131994398Y-101487914D01*
X131994398Y-101487914D02*
X131899160Y-101535533D01*
X133422969Y-102249819D02*
X132851541Y-102249819D01*
X133137255Y-102249819D02*
X133137255Y-101249819D01*
X133137255Y-101249819D02*
X133042017Y-101392676D01*
X133042017Y-101392676D02*
X132946779Y-101487914D01*
X132946779Y-101487914D02*
X132851541Y-101535533D01*
X139240588Y-98867438D02*
X139145350Y-98819819D01*
X139145350Y-98819819D02*
X139002493Y-98819819D01*
X139002493Y-98819819D02*
X138859636Y-98867438D01*
X138859636Y-98867438D02*
X138764398Y-98962676D01*
X138764398Y-98962676D02*
X138716779Y-99057914D01*
X138716779Y-99057914D02*
X138669160Y-99248390D01*
X138669160Y-99248390D02*
X138669160Y-99391247D01*
X138669160Y-99391247D02*
X138716779Y-99581723D01*
X138716779Y-99581723D02*
X138764398Y-99676961D01*
X138764398Y-99676961D02*
X138859636Y-99772200D01*
X138859636Y-99772200D02*
X139002493Y-99819819D01*
X139002493Y-99819819D02*
X139097731Y-99819819D01*
X139097731Y-99819819D02*
X139240588Y-99772200D01*
X139240588Y-99772200D02*
X139288207Y-99724580D01*
X139288207Y-99724580D02*
X139288207Y-99391247D01*
X139288207Y-99391247D02*
X139097731Y-99391247D01*
X139716779Y-99819819D02*
X139716779Y-98819819D01*
X139716779Y-98819819D02*
X140097731Y-98819819D01*
X140097731Y-98819819D02*
X140192969Y-98867438D01*
X140192969Y-98867438D02*
X140240588Y-98915057D01*
X140240588Y-98915057D02*
X140288207Y-99010295D01*
X140288207Y-99010295D02*
X140288207Y-99153152D01*
X140288207Y-99153152D02*
X140240588Y-99248390D01*
X140240588Y-99248390D02*
X140192969Y-99296009D01*
X140192969Y-99296009D02*
X140097731Y-99343628D01*
X140097731Y-99343628D02*
X139716779Y-99343628D01*
X141240588Y-99819819D02*
X140669160Y-99819819D01*
X140954874Y-99819819D02*
X140954874Y-98819819D01*
X140954874Y-98819819D02*
X140859636Y-98962676D01*
X140859636Y-98962676D02*
X140764398Y-99057914D01*
X140764398Y-99057914D02*
X140669160Y-99105533D01*
X142145350Y-98819819D02*
X141669160Y-98819819D01*
X141669160Y-98819819D02*
X141621541Y-99296009D01*
X141621541Y-99296009D02*
X141669160Y-99248390D01*
X141669160Y-99248390D02*
X141764398Y-99200771D01*
X141764398Y-99200771D02*
X142002493Y-99200771D01*
X142002493Y-99200771D02*
X142097731Y-99248390D01*
X142097731Y-99248390D02*
X142145350Y-99296009D01*
X142145350Y-99296009D02*
X142192969Y-99391247D01*
X142192969Y-99391247D02*
X142192969Y-99629342D01*
X142192969Y-99629342D02*
X142145350Y-99724580D01*
X142145350Y-99724580D02*
X142097731Y-99772200D01*
X142097731Y-99772200D02*
X142002493Y-99819819D01*
X142002493Y-99819819D02*
X141764398Y-99819819D01*
X141764398Y-99819819D02*
X141669160Y-99772200D01*
X141669160Y-99772200D02*
X141621541Y-99724580D01*
X143335826Y-98772200D02*
X142478684Y-100057914D01*
X144240588Y-99819819D02*
X143907255Y-99343628D01*
X143669160Y-99819819D02*
X143669160Y-98819819D01*
X143669160Y-98819819D02*
X144050112Y-98819819D01*
X144050112Y-98819819D02*
X144145350Y-98867438D01*
X144145350Y-98867438D02*
X144192969Y-98915057D01*
X144192969Y-98915057D02*
X144240588Y-99010295D01*
X144240588Y-99010295D02*
X144240588Y-99153152D01*
X144240588Y-99153152D02*
X144192969Y-99248390D01*
X144192969Y-99248390D02*
X144145350Y-99296009D01*
X144145350Y-99296009D02*
X144050112Y-99343628D01*
X144050112Y-99343628D02*
X143669160Y-99343628D01*
X144573922Y-98819819D02*
X145240588Y-99819819D01*
X145240588Y-98819819D02*
X144573922Y-99819819D01*
X143740588Y-111477438D02*
X143645350Y-111429819D01*
X143645350Y-111429819D02*
X143502493Y-111429819D01*
X143502493Y-111429819D02*
X143359636Y-111477438D01*
X143359636Y-111477438D02*
X143264398Y-111572676D01*
X143264398Y-111572676D02*
X143216779Y-111667914D01*
X143216779Y-111667914D02*
X143169160Y-111858390D01*
X143169160Y-111858390D02*
X143169160Y-112001247D01*
X143169160Y-112001247D02*
X143216779Y-112191723D01*
X143216779Y-112191723D02*
X143264398Y-112286961D01*
X143264398Y-112286961D02*
X143359636Y-112382200D01*
X143359636Y-112382200D02*
X143502493Y-112429819D01*
X143502493Y-112429819D02*
X143597731Y-112429819D01*
X143597731Y-112429819D02*
X143740588Y-112382200D01*
X143740588Y-112382200D02*
X143788207Y-112334580D01*
X143788207Y-112334580D02*
X143788207Y-112001247D01*
X143788207Y-112001247D02*
X143597731Y-112001247D01*
X144216779Y-112429819D02*
X144216779Y-111429819D01*
X144216779Y-111429819D02*
X144788207Y-112429819D01*
X144788207Y-112429819D02*
X144788207Y-111429819D01*
X145264398Y-112429819D02*
X145264398Y-111429819D01*
X145264398Y-111429819D02*
X145502493Y-111429819D01*
X145502493Y-111429819D02*
X145645350Y-111477438D01*
X145645350Y-111477438D02*
X145740588Y-111572676D01*
X145740588Y-111572676D02*
X145788207Y-111667914D01*
X145788207Y-111667914D02*
X145835826Y-111858390D01*
X145835826Y-111858390D02*
X145835826Y-112001247D01*
X145835826Y-112001247D02*
X145788207Y-112191723D01*
X145788207Y-112191723D02*
X145740588Y-112286961D01*
X145740588Y-112286961D02*
X145645350Y-112382200D01*
X145645350Y-112382200D02*
X145502493Y-112429819D01*
X145502493Y-112429819D02*
X145264398Y-112429819D01*
X154896779Y-104899819D02*
X154896779Y-103899819D01*
X154896779Y-103899819D02*
X155230112Y-104614104D01*
X155230112Y-104614104D02*
X155563445Y-103899819D01*
X155563445Y-103899819D02*
X155563445Y-104899819D01*
X156039636Y-104899819D02*
X156039636Y-103899819D01*
X156468207Y-104852200D02*
X156611064Y-104899819D01*
X156611064Y-104899819D02*
X156849159Y-104899819D01*
X156849159Y-104899819D02*
X156944397Y-104852200D01*
X156944397Y-104852200D02*
X156992016Y-104804580D01*
X156992016Y-104804580D02*
X157039635Y-104709342D01*
X157039635Y-104709342D02*
X157039635Y-104614104D01*
X157039635Y-104614104D02*
X156992016Y-104518866D01*
X156992016Y-104518866D02*
X156944397Y-104471247D01*
X156944397Y-104471247D02*
X156849159Y-104423628D01*
X156849159Y-104423628D02*
X156658683Y-104376009D01*
X156658683Y-104376009D02*
X156563445Y-104328390D01*
X156563445Y-104328390D02*
X156515826Y-104280771D01*
X156515826Y-104280771D02*
X156468207Y-104185533D01*
X156468207Y-104185533D02*
X156468207Y-104090295D01*
X156468207Y-104090295D02*
X156515826Y-103995057D01*
X156515826Y-103995057D02*
X156563445Y-103947438D01*
X156563445Y-103947438D02*
X156658683Y-103899819D01*
X156658683Y-103899819D02*
X156896778Y-103899819D01*
X156896778Y-103899819D02*
X157039635Y-103947438D01*
X157658683Y-103899819D02*
X157849159Y-103899819D01*
X157849159Y-103899819D02*
X157944397Y-103947438D01*
X157944397Y-103947438D02*
X158039635Y-104042676D01*
X158039635Y-104042676D02*
X158087254Y-104233152D01*
X158087254Y-104233152D02*
X158087254Y-104566485D01*
X158087254Y-104566485D02*
X158039635Y-104756961D01*
X158039635Y-104756961D02*
X157944397Y-104852200D01*
X157944397Y-104852200D02*
X157849159Y-104899819D01*
X157849159Y-104899819D02*
X157658683Y-104899819D01*
X157658683Y-104899819D02*
X157563445Y-104852200D01*
X157563445Y-104852200D02*
X157468207Y-104756961D01*
X157468207Y-104756961D02*
X157420588Y-104566485D01*
X157420588Y-104566485D02*
X157420588Y-104233152D01*
X157420588Y-104233152D02*
X157468207Y-104042676D01*
X157468207Y-104042676D02*
X157563445Y-103947438D01*
X157563445Y-103947438D02*
X157658683Y-103899819D01*
X159230111Y-103852200D02*
X158372969Y-105137914D01*
X160087254Y-103947438D02*
X159992016Y-103899819D01*
X159992016Y-103899819D02*
X159849159Y-103899819D01*
X159849159Y-103899819D02*
X159706302Y-103947438D01*
X159706302Y-103947438D02*
X159611064Y-104042676D01*
X159611064Y-104042676D02*
X159563445Y-104137914D01*
X159563445Y-104137914D02*
X159515826Y-104328390D01*
X159515826Y-104328390D02*
X159515826Y-104471247D01*
X159515826Y-104471247D02*
X159563445Y-104661723D01*
X159563445Y-104661723D02*
X159611064Y-104756961D01*
X159611064Y-104756961D02*
X159706302Y-104852200D01*
X159706302Y-104852200D02*
X159849159Y-104899819D01*
X159849159Y-104899819D02*
X159944397Y-104899819D01*
X159944397Y-104899819D02*
X160087254Y-104852200D01*
X160087254Y-104852200D02*
X160134873Y-104804580D01*
X160134873Y-104804580D02*
X160134873Y-104471247D01*
X160134873Y-104471247D02*
X159944397Y-104471247D01*
X160563445Y-104899819D02*
X160563445Y-103899819D01*
X160563445Y-103899819D02*
X160944397Y-103899819D01*
X160944397Y-103899819D02*
X161039635Y-103947438D01*
X161039635Y-103947438D02*
X161087254Y-103995057D01*
X161087254Y-103995057D02*
X161134873Y-104090295D01*
X161134873Y-104090295D02*
X161134873Y-104233152D01*
X161134873Y-104233152D02*
X161087254Y-104328390D01*
X161087254Y-104328390D02*
X161039635Y-104376009D01*
X161039635Y-104376009D02*
X160944397Y-104423628D01*
X160944397Y-104423628D02*
X160563445Y-104423628D01*
X161611064Y-104899819D02*
X161801540Y-104899819D01*
X161801540Y-104899819D02*
X161896778Y-104852200D01*
X161896778Y-104852200D02*
X161944397Y-104804580D01*
X161944397Y-104804580D02*
X162039635Y-104661723D01*
X162039635Y-104661723D02*
X162087254Y-104471247D01*
X162087254Y-104471247D02*
X162087254Y-104090295D01*
X162087254Y-104090295D02*
X162039635Y-103995057D01*
X162039635Y-103995057D02*
X161992016Y-103947438D01*
X161992016Y-103947438D02*
X161896778Y-103899819D01*
X161896778Y-103899819D02*
X161706302Y-103899819D01*
X161706302Y-103899819D02*
X161611064Y-103947438D01*
X161611064Y-103947438D02*
X161563445Y-103995057D01*
X161563445Y-103995057D02*
X161515826Y-104090295D01*
X161515826Y-104090295D02*
X161515826Y-104328390D01*
X161515826Y-104328390D02*
X161563445Y-104423628D01*
X161563445Y-104423628D02*
X161611064Y-104471247D01*
X161611064Y-104471247D02*
X161706302Y-104518866D01*
X161706302Y-104518866D02*
X161896778Y-104518866D01*
X161896778Y-104518866D02*
X161992016Y-104471247D01*
X161992016Y-104471247D02*
X162039635Y-104423628D01*
X162039635Y-104423628D02*
X162087254Y-104328390D01*
X126056779Y-107009819D02*
X126056779Y-106009819D01*
X126056779Y-106009819D02*
X126390112Y-106724104D01*
X126390112Y-106724104D02*
X126723445Y-106009819D01*
X126723445Y-106009819D02*
X126723445Y-107009819D01*
X127390112Y-106009819D02*
X127580588Y-106009819D01*
X127580588Y-106009819D02*
X127675826Y-106057438D01*
X127675826Y-106057438D02*
X127771064Y-106152676D01*
X127771064Y-106152676D02*
X127818683Y-106343152D01*
X127818683Y-106343152D02*
X127818683Y-106676485D01*
X127818683Y-106676485D02*
X127771064Y-106866961D01*
X127771064Y-106866961D02*
X127675826Y-106962200D01*
X127675826Y-106962200D02*
X127580588Y-107009819D01*
X127580588Y-107009819D02*
X127390112Y-107009819D01*
X127390112Y-107009819D02*
X127294874Y-106962200D01*
X127294874Y-106962200D02*
X127199636Y-106866961D01*
X127199636Y-106866961D02*
X127152017Y-106676485D01*
X127152017Y-106676485D02*
X127152017Y-106343152D01*
X127152017Y-106343152D02*
X127199636Y-106152676D01*
X127199636Y-106152676D02*
X127294874Y-106057438D01*
X127294874Y-106057438D02*
X127390112Y-106009819D01*
X128199636Y-106962200D02*
X128342493Y-107009819D01*
X128342493Y-107009819D02*
X128580588Y-107009819D01*
X128580588Y-107009819D02*
X128675826Y-106962200D01*
X128675826Y-106962200D02*
X128723445Y-106914580D01*
X128723445Y-106914580D02*
X128771064Y-106819342D01*
X128771064Y-106819342D02*
X128771064Y-106724104D01*
X128771064Y-106724104D02*
X128723445Y-106628866D01*
X128723445Y-106628866D02*
X128675826Y-106581247D01*
X128675826Y-106581247D02*
X128580588Y-106533628D01*
X128580588Y-106533628D02*
X128390112Y-106486009D01*
X128390112Y-106486009D02*
X128294874Y-106438390D01*
X128294874Y-106438390D02*
X128247255Y-106390771D01*
X128247255Y-106390771D02*
X128199636Y-106295533D01*
X128199636Y-106295533D02*
X128199636Y-106200295D01*
X128199636Y-106200295D02*
X128247255Y-106105057D01*
X128247255Y-106105057D02*
X128294874Y-106057438D01*
X128294874Y-106057438D02*
X128390112Y-106009819D01*
X128390112Y-106009819D02*
X128628207Y-106009819D01*
X128628207Y-106009819D02*
X128771064Y-106057438D01*
X129199636Y-107009819D02*
X129199636Y-106009819D01*
X130390111Y-105962200D02*
X129532969Y-107247914D01*
X131247254Y-106057438D02*
X131152016Y-106009819D01*
X131152016Y-106009819D02*
X131009159Y-106009819D01*
X131009159Y-106009819D02*
X130866302Y-106057438D01*
X130866302Y-106057438D02*
X130771064Y-106152676D01*
X130771064Y-106152676D02*
X130723445Y-106247914D01*
X130723445Y-106247914D02*
X130675826Y-106438390D01*
X130675826Y-106438390D02*
X130675826Y-106581247D01*
X130675826Y-106581247D02*
X130723445Y-106771723D01*
X130723445Y-106771723D02*
X130771064Y-106866961D01*
X130771064Y-106866961D02*
X130866302Y-106962200D01*
X130866302Y-106962200D02*
X131009159Y-107009819D01*
X131009159Y-107009819D02*
X131104397Y-107009819D01*
X131104397Y-107009819D02*
X131247254Y-106962200D01*
X131247254Y-106962200D02*
X131294873Y-106914580D01*
X131294873Y-106914580D02*
X131294873Y-106581247D01*
X131294873Y-106581247D02*
X131104397Y-106581247D01*
X131723445Y-107009819D02*
X131723445Y-106009819D01*
X131723445Y-106009819D02*
X132104397Y-106009819D01*
X132104397Y-106009819D02*
X132199635Y-106057438D01*
X132199635Y-106057438D02*
X132247254Y-106105057D01*
X132247254Y-106105057D02*
X132294873Y-106200295D01*
X132294873Y-106200295D02*
X132294873Y-106343152D01*
X132294873Y-106343152D02*
X132247254Y-106438390D01*
X132247254Y-106438390D02*
X132199635Y-106486009D01*
X132199635Y-106486009D02*
X132104397Y-106533628D01*
X132104397Y-106533628D02*
X131723445Y-106533628D01*
X133247254Y-107009819D02*
X132675826Y-107009819D01*
X132961540Y-107009819D02*
X132961540Y-106009819D01*
X132961540Y-106009819D02*
X132866302Y-106152676D01*
X132866302Y-106152676D02*
X132771064Y-106247914D01*
X132771064Y-106247914D02*
X132675826Y-106295533D01*
X133866302Y-106009819D02*
X133961540Y-106009819D01*
X133961540Y-106009819D02*
X134056778Y-106057438D01*
X134056778Y-106057438D02*
X134104397Y-106105057D01*
X134104397Y-106105057D02*
X134152016Y-106200295D01*
X134152016Y-106200295D02*
X134199635Y-106390771D01*
X134199635Y-106390771D02*
X134199635Y-106628866D01*
X134199635Y-106628866D02*
X134152016Y-106819342D01*
X134152016Y-106819342D02*
X134104397Y-106914580D01*
X134104397Y-106914580D02*
X134056778Y-106962200D01*
X134056778Y-106962200D02*
X133961540Y-107009819D01*
X133961540Y-107009819D02*
X133866302Y-107009819D01*
X133866302Y-107009819D02*
X133771064Y-106962200D01*
X133771064Y-106962200D02*
X133723445Y-106914580D01*
X133723445Y-106914580D02*
X133675826Y-106819342D01*
X133675826Y-106819342D02*
X133628207Y-106628866D01*
X133628207Y-106628866D02*
X133628207Y-106390771D01*
X133628207Y-106390771D02*
X133675826Y-106200295D01*
X133675826Y-106200295D02*
X133723445Y-106105057D01*
X133723445Y-106105057D02*
X133771064Y-106057438D01*
X133771064Y-106057438D02*
X133866302Y-106009819D01*
X126440588Y-111347438D02*
X126345350Y-111299819D01*
X126345350Y-111299819D02*
X126202493Y-111299819D01*
X126202493Y-111299819D02*
X126059636Y-111347438D01*
X126059636Y-111347438D02*
X125964398Y-111442676D01*
X125964398Y-111442676D02*
X125916779Y-111537914D01*
X125916779Y-111537914D02*
X125869160Y-111728390D01*
X125869160Y-111728390D02*
X125869160Y-111871247D01*
X125869160Y-111871247D02*
X125916779Y-112061723D01*
X125916779Y-112061723D02*
X125964398Y-112156961D01*
X125964398Y-112156961D02*
X126059636Y-112252200D01*
X126059636Y-112252200D02*
X126202493Y-112299819D01*
X126202493Y-112299819D02*
X126297731Y-112299819D01*
X126297731Y-112299819D02*
X126440588Y-112252200D01*
X126440588Y-112252200D02*
X126488207Y-112204580D01*
X126488207Y-112204580D02*
X126488207Y-111871247D01*
X126488207Y-111871247D02*
X126297731Y-111871247D01*
X126916779Y-112299819D02*
X126916779Y-111299819D01*
X126916779Y-111299819D02*
X127488207Y-112299819D01*
X127488207Y-112299819D02*
X127488207Y-111299819D01*
X127964398Y-112299819D02*
X127964398Y-111299819D01*
X127964398Y-111299819D02*
X128202493Y-111299819D01*
X128202493Y-111299819D02*
X128345350Y-111347438D01*
X128345350Y-111347438D02*
X128440588Y-111442676D01*
X128440588Y-111442676D02*
X128488207Y-111537914D01*
X128488207Y-111537914D02*
X128535826Y-111728390D01*
X128535826Y-111728390D02*
X128535826Y-111871247D01*
X128535826Y-111871247D02*
X128488207Y-112061723D01*
X128488207Y-112061723D02*
X128440588Y-112156961D01*
X128440588Y-112156961D02*
X128345350Y-112252200D01*
X128345350Y-112252200D02*
X128202493Y-112299819D01*
X128202493Y-112299819D02*
X127964398Y-112299819D01*
X126698207Y-97369819D02*
X126364874Y-96893628D01*
X126126779Y-97369819D02*
X126126779Y-96369819D01*
X126126779Y-96369819D02*
X126507731Y-96369819D01*
X126507731Y-96369819D02*
X126602969Y-96417438D01*
X126602969Y-96417438D02*
X126650588Y-96465057D01*
X126650588Y-96465057D02*
X126698207Y-96560295D01*
X126698207Y-96560295D02*
X126698207Y-96703152D01*
X126698207Y-96703152D02*
X126650588Y-96798390D01*
X126650588Y-96798390D02*
X126602969Y-96846009D01*
X126602969Y-96846009D02*
X126507731Y-96893628D01*
X126507731Y-96893628D02*
X126126779Y-96893628D01*
X127079160Y-97322200D02*
X127222017Y-97369819D01*
X127222017Y-97369819D02*
X127460112Y-97369819D01*
X127460112Y-97369819D02*
X127555350Y-97322200D01*
X127555350Y-97322200D02*
X127602969Y-97274580D01*
X127602969Y-97274580D02*
X127650588Y-97179342D01*
X127650588Y-97179342D02*
X127650588Y-97084104D01*
X127650588Y-97084104D02*
X127602969Y-96988866D01*
X127602969Y-96988866D02*
X127555350Y-96941247D01*
X127555350Y-96941247D02*
X127460112Y-96893628D01*
X127460112Y-96893628D02*
X127269636Y-96846009D01*
X127269636Y-96846009D02*
X127174398Y-96798390D01*
X127174398Y-96798390D02*
X127126779Y-96750771D01*
X127126779Y-96750771D02*
X127079160Y-96655533D01*
X127079160Y-96655533D02*
X127079160Y-96560295D01*
X127079160Y-96560295D02*
X127126779Y-96465057D01*
X127126779Y-96465057D02*
X127174398Y-96417438D01*
X127174398Y-96417438D02*
X127269636Y-96369819D01*
X127269636Y-96369819D02*
X127507731Y-96369819D01*
X127507731Y-96369819D02*
X127650588Y-96417438D01*
X127936303Y-96369819D02*
X128507731Y-96369819D01*
X128222017Y-97369819D02*
X128222017Y-96369819D01*
X129555350Y-96322200D02*
X128698208Y-97607914D01*
X130412493Y-96417438D02*
X130317255Y-96369819D01*
X130317255Y-96369819D02*
X130174398Y-96369819D01*
X130174398Y-96369819D02*
X130031541Y-96417438D01*
X130031541Y-96417438D02*
X129936303Y-96512676D01*
X129936303Y-96512676D02*
X129888684Y-96607914D01*
X129888684Y-96607914D02*
X129841065Y-96798390D01*
X129841065Y-96798390D02*
X129841065Y-96941247D01*
X129841065Y-96941247D02*
X129888684Y-97131723D01*
X129888684Y-97131723D02*
X129936303Y-97226961D01*
X129936303Y-97226961D02*
X130031541Y-97322200D01*
X130031541Y-97322200D02*
X130174398Y-97369819D01*
X130174398Y-97369819D02*
X130269636Y-97369819D01*
X130269636Y-97369819D02*
X130412493Y-97322200D01*
X130412493Y-97322200D02*
X130460112Y-97274580D01*
X130460112Y-97274580D02*
X130460112Y-96941247D01*
X130460112Y-96941247D02*
X130269636Y-96941247D01*
X130888684Y-97369819D02*
X130888684Y-96369819D01*
X130888684Y-96369819D02*
X131269636Y-96369819D01*
X131269636Y-96369819D02*
X131364874Y-96417438D01*
X131364874Y-96417438D02*
X131412493Y-96465057D01*
X131412493Y-96465057D02*
X131460112Y-96560295D01*
X131460112Y-96560295D02*
X131460112Y-96703152D01*
X131460112Y-96703152D02*
X131412493Y-96798390D01*
X131412493Y-96798390D02*
X131364874Y-96846009D01*
X131364874Y-96846009D02*
X131269636Y-96893628D01*
X131269636Y-96893628D02*
X130888684Y-96893628D01*
X132317255Y-96703152D02*
X132317255Y-97369819D01*
X132079160Y-96322200D02*
X131841065Y-97036485D01*
X131841065Y-97036485D02*
X132460112Y-97036485D01*
D11*
X136107918Y-114003247D02*
X134679347Y-114003247D01*
X135393633Y-114003247D02*
X135393633Y-111503247D01*
X135393633Y-111503247D02*
X135155537Y-111860390D01*
X135155537Y-111860390D02*
X134917442Y-112098485D01*
X134917442Y-112098485D02*
X134679347Y-112217533D01*
D10*
X139570588Y-101407438D02*
X139475350Y-101359819D01*
X139475350Y-101359819D02*
X139332493Y-101359819D01*
X139332493Y-101359819D02*
X139189636Y-101407438D01*
X139189636Y-101407438D02*
X139094398Y-101502676D01*
X139094398Y-101502676D02*
X139046779Y-101597914D01*
X139046779Y-101597914D02*
X138999160Y-101788390D01*
X138999160Y-101788390D02*
X138999160Y-101931247D01*
X138999160Y-101931247D02*
X139046779Y-102121723D01*
X139046779Y-102121723D02*
X139094398Y-102216961D01*
X139094398Y-102216961D02*
X139189636Y-102312200D01*
X139189636Y-102312200D02*
X139332493Y-102359819D01*
X139332493Y-102359819D02*
X139427731Y-102359819D01*
X139427731Y-102359819D02*
X139570588Y-102312200D01*
X139570588Y-102312200D02*
X139618207Y-102264580D01*
X139618207Y-102264580D02*
X139618207Y-101931247D01*
X139618207Y-101931247D02*
X139427731Y-101931247D01*
X140046779Y-102359819D02*
X140046779Y-101359819D01*
X140046779Y-101359819D02*
X140427731Y-101359819D01*
X140427731Y-101359819D02*
X140522969Y-101407438D01*
X140522969Y-101407438D02*
X140570588Y-101455057D01*
X140570588Y-101455057D02*
X140618207Y-101550295D01*
X140618207Y-101550295D02*
X140618207Y-101693152D01*
X140618207Y-101693152D02*
X140570588Y-101788390D01*
X140570588Y-101788390D02*
X140522969Y-101836009D01*
X140522969Y-101836009D02*
X140427731Y-101883628D01*
X140427731Y-101883628D02*
X140046779Y-101883628D01*
X141570588Y-102359819D02*
X140999160Y-102359819D01*
X141284874Y-102359819D02*
X141284874Y-101359819D01*
X141284874Y-101359819D02*
X141189636Y-101502676D01*
X141189636Y-101502676D02*
X141094398Y-101597914D01*
X141094398Y-101597914D02*
X140999160Y-101645533D01*
X142427731Y-101693152D02*
X142427731Y-102359819D01*
X142189636Y-101312200D02*
X141951541Y-102026485D01*
X141951541Y-102026485D02*
X142570588Y-102026485D01*
X143665826Y-101312200D02*
X142808684Y-102597914D01*
X143856303Y-101359819D02*
X144427731Y-101359819D01*
X144142017Y-102359819D02*
X144142017Y-101359819D01*
X144665827Y-101359819D02*
X145332493Y-102359819D01*
X145332493Y-101359819D02*
X144665827Y-102359819D01*
X137780588Y-103897438D02*
X137685350Y-103849819D01*
X137685350Y-103849819D02*
X137542493Y-103849819D01*
X137542493Y-103849819D02*
X137399636Y-103897438D01*
X137399636Y-103897438D02*
X137304398Y-103992676D01*
X137304398Y-103992676D02*
X137256779Y-104087914D01*
X137256779Y-104087914D02*
X137209160Y-104278390D01*
X137209160Y-104278390D02*
X137209160Y-104421247D01*
X137209160Y-104421247D02*
X137256779Y-104611723D01*
X137256779Y-104611723D02*
X137304398Y-104706961D01*
X137304398Y-104706961D02*
X137399636Y-104802200D01*
X137399636Y-104802200D02*
X137542493Y-104849819D01*
X137542493Y-104849819D02*
X137637731Y-104849819D01*
X137637731Y-104849819D02*
X137780588Y-104802200D01*
X137780588Y-104802200D02*
X137828207Y-104754580D01*
X137828207Y-104754580D02*
X137828207Y-104421247D01*
X137828207Y-104421247D02*
X137637731Y-104421247D01*
X138256779Y-104849819D02*
X138256779Y-103849819D01*
X138256779Y-103849819D02*
X138637731Y-103849819D01*
X138637731Y-103849819D02*
X138732969Y-103897438D01*
X138732969Y-103897438D02*
X138780588Y-103945057D01*
X138780588Y-103945057D02*
X138828207Y-104040295D01*
X138828207Y-104040295D02*
X138828207Y-104183152D01*
X138828207Y-104183152D02*
X138780588Y-104278390D01*
X138780588Y-104278390D02*
X138732969Y-104326009D01*
X138732969Y-104326009D02*
X138637731Y-104373628D01*
X138637731Y-104373628D02*
X138256779Y-104373628D01*
X139161541Y-103849819D02*
X139780588Y-103849819D01*
X139780588Y-103849819D02*
X139447255Y-104230771D01*
X139447255Y-104230771D02*
X139590112Y-104230771D01*
X139590112Y-104230771D02*
X139685350Y-104278390D01*
X139685350Y-104278390D02*
X139732969Y-104326009D01*
X139732969Y-104326009D02*
X139780588Y-104421247D01*
X139780588Y-104421247D02*
X139780588Y-104659342D01*
X139780588Y-104659342D02*
X139732969Y-104754580D01*
X139732969Y-104754580D02*
X139685350Y-104802200D01*
X139685350Y-104802200D02*
X139590112Y-104849819D01*
X139590112Y-104849819D02*
X139304398Y-104849819D01*
X139304398Y-104849819D02*
X139209160Y-104802200D01*
X139209160Y-104802200D02*
X139161541Y-104754580D01*
X140494874Y-105230771D02*
X140447255Y-105183152D01*
X140447255Y-105183152D02*
X140352017Y-105040295D01*
X140352017Y-105040295D02*
X140304398Y-104945057D01*
X140304398Y-104945057D02*
X140256779Y-104802200D01*
X140256779Y-104802200D02*
X140209160Y-104564104D01*
X140209160Y-104564104D02*
X140209160Y-104373628D01*
X140209160Y-104373628D02*
X140256779Y-104135533D01*
X140256779Y-104135533D02*
X140304398Y-103992676D01*
X140304398Y-103992676D02*
X140352017Y-103897438D01*
X140352017Y-103897438D02*
X140447255Y-103754580D01*
X140447255Y-103754580D02*
X140494874Y-103706961D01*
X141399636Y-104849819D02*
X140828208Y-104849819D01*
X141113922Y-104849819D02*
X141113922Y-103849819D01*
X141113922Y-103849819D02*
X141018684Y-103992676D01*
X141018684Y-103992676D02*
X140923446Y-104087914D01*
X140923446Y-104087914D02*
X140828208Y-104135533D01*
X141732970Y-105230771D02*
X141780589Y-105183152D01*
X141780589Y-105183152D02*
X141875827Y-105040295D01*
X141875827Y-105040295D02*
X141923446Y-104945057D01*
X141923446Y-104945057D02*
X141971065Y-104802200D01*
X141971065Y-104802200D02*
X142018684Y-104564104D01*
X142018684Y-104564104D02*
X142018684Y-104373628D01*
X142018684Y-104373628D02*
X141971065Y-104135533D01*
X141971065Y-104135533D02*
X141923446Y-103992676D01*
X141923446Y-103992676D02*
X141875827Y-103897438D01*
X141875827Y-103897438D02*
X141780589Y-103754580D01*
X141780589Y-103754580D02*
X141732970Y-103706961D01*
X143209160Y-103802200D02*
X142352018Y-105087914D01*
X143494875Y-104802200D02*
X143637732Y-104849819D01*
X143637732Y-104849819D02*
X143875827Y-104849819D01*
X143875827Y-104849819D02*
X143971065Y-104802200D01*
X143971065Y-104802200D02*
X144018684Y-104754580D01*
X144018684Y-104754580D02*
X144066303Y-104659342D01*
X144066303Y-104659342D02*
X144066303Y-104564104D01*
X144066303Y-104564104D02*
X144018684Y-104468866D01*
X144018684Y-104468866D02*
X143971065Y-104421247D01*
X143971065Y-104421247D02*
X143875827Y-104373628D01*
X143875827Y-104373628D02*
X143685351Y-104326009D01*
X143685351Y-104326009D02*
X143590113Y-104278390D01*
X143590113Y-104278390D02*
X143542494Y-104230771D01*
X143542494Y-104230771D02*
X143494875Y-104135533D01*
X143494875Y-104135533D02*
X143494875Y-104040295D01*
X143494875Y-104040295D02*
X143542494Y-103945057D01*
X143542494Y-103945057D02*
X143590113Y-103897438D01*
X143590113Y-103897438D02*
X143685351Y-103849819D01*
X143685351Y-103849819D02*
X143923446Y-103849819D01*
X143923446Y-103849819D02*
X144066303Y-103897438D01*
X145066303Y-104754580D02*
X145018684Y-104802200D01*
X145018684Y-104802200D02*
X144875827Y-104849819D01*
X144875827Y-104849819D02*
X144780589Y-104849819D01*
X144780589Y-104849819D02*
X144637732Y-104802200D01*
X144637732Y-104802200D02*
X144542494Y-104706961D01*
X144542494Y-104706961D02*
X144494875Y-104611723D01*
X144494875Y-104611723D02*
X144447256Y-104421247D01*
X144447256Y-104421247D02*
X144447256Y-104278390D01*
X144447256Y-104278390D02*
X144494875Y-104087914D01*
X144494875Y-104087914D02*
X144542494Y-103992676D01*
X144542494Y-103992676D02*
X144637732Y-103897438D01*
X144637732Y-103897438D02*
X144780589Y-103849819D01*
X144780589Y-103849819D02*
X144875827Y-103849819D01*
X144875827Y-103849819D02*
X145018684Y-103897438D01*
X145018684Y-103897438D02*
X145066303Y-103945057D01*
X145971065Y-104849819D02*
X145494875Y-104849819D01*
X145494875Y-104849819D02*
X145494875Y-103849819D01*
X168140588Y-99027438D02*
X168045350Y-98979819D01*
X168045350Y-98979819D02*
X167902493Y-98979819D01*
X167902493Y-98979819D02*
X167759636Y-99027438D01*
X167759636Y-99027438D02*
X167664398Y-99122676D01*
X167664398Y-99122676D02*
X167616779Y-99217914D01*
X167616779Y-99217914D02*
X167569160Y-99408390D01*
X167569160Y-99408390D02*
X167569160Y-99551247D01*
X167569160Y-99551247D02*
X167616779Y-99741723D01*
X167616779Y-99741723D02*
X167664398Y-99836961D01*
X167664398Y-99836961D02*
X167759636Y-99932200D01*
X167759636Y-99932200D02*
X167902493Y-99979819D01*
X167902493Y-99979819D02*
X167997731Y-99979819D01*
X167997731Y-99979819D02*
X168140588Y-99932200D01*
X168140588Y-99932200D02*
X168188207Y-99884580D01*
X168188207Y-99884580D02*
X168188207Y-99551247D01*
X168188207Y-99551247D02*
X167997731Y-99551247D01*
X168616779Y-99979819D02*
X168616779Y-98979819D01*
X168616779Y-98979819D02*
X168997731Y-98979819D01*
X168997731Y-98979819D02*
X169092969Y-99027438D01*
X169092969Y-99027438D02*
X169140588Y-99075057D01*
X169140588Y-99075057D02*
X169188207Y-99170295D01*
X169188207Y-99170295D02*
X169188207Y-99313152D01*
X169188207Y-99313152D02*
X169140588Y-99408390D01*
X169140588Y-99408390D02*
X169092969Y-99456009D01*
X169092969Y-99456009D02*
X168997731Y-99503628D01*
X168997731Y-99503628D02*
X168616779Y-99503628D01*
X170140588Y-99979819D02*
X169569160Y-99979819D01*
X169854874Y-99979819D02*
X169854874Y-98979819D01*
X169854874Y-98979819D02*
X169759636Y-99122676D01*
X169759636Y-99122676D02*
X169664398Y-99217914D01*
X169664398Y-99217914D02*
X169569160Y-99265533D01*
X171045350Y-98979819D02*
X170569160Y-98979819D01*
X170569160Y-98979819D02*
X170521541Y-99456009D01*
X170521541Y-99456009D02*
X170569160Y-99408390D01*
X170569160Y-99408390D02*
X170664398Y-99360771D01*
X170664398Y-99360771D02*
X170902493Y-99360771D01*
X170902493Y-99360771D02*
X170997731Y-99408390D01*
X170997731Y-99408390D02*
X171045350Y-99456009D01*
X171045350Y-99456009D02*
X171092969Y-99551247D01*
X171092969Y-99551247D02*
X171092969Y-99789342D01*
X171092969Y-99789342D02*
X171045350Y-99884580D01*
X171045350Y-99884580D02*
X170997731Y-99932200D01*
X170997731Y-99932200D02*
X170902493Y-99979819D01*
X170902493Y-99979819D02*
X170664398Y-99979819D01*
X170664398Y-99979819D02*
X170569160Y-99932200D01*
X170569160Y-99932200D02*
X170521541Y-99884580D01*
X172235826Y-98932200D02*
X171378684Y-100217914D01*
X173140588Y-99979819D02*
X172807255Y-99503628D01*
X172569160Y-99979819D02*
X172569160Y-98979819D01*
X172569160Y-98979819D02*
X172950112Y-98979819D01*
X172950112Y-98979819D02*
X173045350Y-99027438D01*
X173045350Y-99027438D02*
X173092969Y-99075057D01*
X173092969Y-99075057D02*
X173140588Y-99170295D01*
X173140588Y-99170295D02*
X173140588Y-99313152D01*
X173140588Y-99313152D02*
X173092969Y-99408390D01*
X173092969Y-99408390D02*
X173045350Y-99456009D01*
X173045350Y-99456009D02*
X172950112Y-99503628D01*
X172950112Y-99503628D02*
X172569160Y-99503628D01*
X173473922Y-98979819D02*
X174140588Y-99979819D01*
X174140588Y-98979819D02*
X173473922Y-99979819D01*
X125996779Y-104739819D02*
X125996779Y-103739819D01*
X125996779Y-103739819D02*
X126330112Y-104454104D01*
X126330112Y-104454104D02*
X126663445Y-103739819D01*
X126663445Y-103739819D02*
X126663445Y-104739819D01*
X127139636Y-104739819D02*
X127139636Y-103739819D01*
X127568207Y-104692200D02*
X127711064Y-104739819D01*
X127711064Y-104739819D02*
X127949159Y-104739819D01*
X127949159Y-104739819D02*
X128044397Y-104692200D01*
X128044397Y-104692200D02*
X128092016Y-104644580D01*
X128092016Y-104644580D02*
X128139635Y-104549342D01*
X128139635Y-104549342D02*
X128139635Y-104454104D01*
X128139635Y-104454104D02*
X128092016Y-104358866D01*
X128092016Y-104358866D02*
X128044397Y-104311247D01*
X128044397Y-104311247D02*
X127949159Y-104263628D01*
X127949159Y-104263628D02*
X127758683Y-104216009D01*
X127758683Y-104216009D02*
X127663445Y-104168390D01*
X127663445Y-104168390D02*
X127615826Y-104120771D01*
X127615826Y-104120771D02*
X127568207Y-104025533D01*
X127568207Y-104025533D02*
X127568207Y-103930295D01*
X127568207Y-103930295D02*
X127615826Y-103835057D01*
X127615826Y-103835057D02*
X127663445Y-103787438D01*
X127663445Y-103787438D02*
X127758683Y-103739819D01*
X127758683Y-103739819D02*
X127996778Y-103739819D01*
X127996778Y-103739819D02*
X128139635Y-103787438D01*
X128758683Y-103739819D02*
X128949159Y-103739819D01*
X128949159Y-103739819D02*
X129044397Y-103787438D01*
X129044397Y-103787438D02*
X129139635Y-103882676D01*
X129139635Y-103882676D02*
X129187254Y-104073152D01*
X129187254Y-104073152D02*
X129187254Y-104406485D01*
X129187254Y-104406485D02*
X129139635Y-104596961D01*
X129139635Y-104596961D02*
X129044397Y-104692200D01*
X129044397Y-104692200D02*
X128949159Y-104739819D01*
X128949159Y-104739819D02*
X128758683Y-104739819D01*
X128758683Y-104739819D02*
X128663445Y-104692200D01*
X128663445Y-104692200D02*
X128568207Y-104596961D01*
X128568207Y-104596961D02*
X128520588Y-104406485D01*
X128520588Y-104406485D02*
X128520588Y-104073152D01*
X128520588Y-104073152D02*
X128568207Y-103882676D01*
X128568207Y-103882676D02*
X128663445Y-103787438D01*
X128663445Y-103787438D02*
X128758683Y-103739819D01*
X130330111Y-103692200D02*
X129472969Y-104977914D01*
X131187254Y-103787438D02*
X131092016Y-103739819D01*
X131092016Y-103739819D02*
X130949159Y-103739819D01*
X130949159Y-103739819D02*
X130806302Y-103787438D01*
X130806302Y-103787438D02*
X130711064Y-103882676D01*
X130711064Y-103882676D02*
X130663445Y-103977914D01*
X130663445Y-103977914D02*
X130615826Y-104168390D01*
X130615826Y-104168390D02*
X130615826Y-104311247D01*
X130615826Y-104311247D02*
X130663445Y-104501723D01*
X130663445Y-104501723D02*
X130711064Y-104596961D01*
X130711064Y-104596961D02*
X130806302Y-104692200D01*
X130806302Y-104692200D02*
X130949159Y-104739819D01*
X130949159Y-104739819D02*
X131044397Y-104739819D01*
X131044397Y-104739819D02*
X131187254Y-104692200D01*
X131187254Y-104692200D02*
X131234873Y-104644580D01*
X131234873Y-104644580D02*
X131234873Y-104311247D01*
X131234873Y-104311247D02*
X131044397Y-104311247D01*
X131663445Y-104739819D02*
X131663445Y-103739819D01*
X131663445Y-103739819D02*
X132044397Y-103739819D01*
X132044397Y-103739819D02*
X132139635Y-103787438D01*
X132139635Y-103787438D02*
X132187254Y-103835057D01*
X132187254Y-103835057D02*
X132234873Y-103930295D01*
X132234873Y-103930295D02*
X132234873Y-104073152D01*
X132234873Y-104073152D02*
X132187254Y-104168390D01*
X132187254Y-104168390D02*
X132139635Y-104216009D01*
X132139635Y-104216009D02*
X132044397Y-104263628D01*
X132044397Y-104263628D02*
X131663445Y-104263628D01*
X132711064Y-104739819D02*
X132901540Y-104739819D01*
X132901540Y-104739819D02*
X132996778Y-104692200D01*
X132996778Y-104692200D02*
X133044397Y-104644580D01*
X133044397Y-104644580D02*
X133139635Y-104501723D01*
X133139635Y-104501723D02*
X133187254Y-104311247D01*
X133187254Y-104311247D02*
X133187254Y-103930295D01*
X133187254Y-103930295D02*
X133139635Y-103835057D01*
X133139635Y-103835057D02*
X133092016Y-103787438D01*
X133092016Y-103787438D02*
X132996778Y-103739819D01*
X132996778Y-103739819D02*
X132806302Y-103739819D01*
X132806302Y-103739819D02*
X132711064Y-103787438D01*
X132711064Y-103787438D02*
X132663445Y-103835057D01*
X132663445Y-103835057D02*
X132615826Y-103930295D01*
X132615826Y-103930295D02*
X132615826Y-104168390D01*
X132615826Y-104168390D02*
X132663445Y-104263628D01*
X132663445Y-104263628D02*
X132711064Y-104311247D01*
X132711064Y-104311247D02*
X132806302Y-104358866D01*
X132806302Y-104358866D02*
X132996778Y-104358866D01*
X132996778Y-104358866D02*
X133092016Y-104311247D01*
X133092016Y-104311247D02*
X133139635Y-104263628D01*
X133139635Y-104263628D02*
X133187254Y-104168390D01*
X172006779Y-109608866D02*
X172768684Y-109608866D01*
X172387731Y-109989819D02*
X172387731Y-109227914D01*
X173721064Y-108989819D02*
X173244874Y-108989819D01*
X173244874Y-108989819D02*
X173197255Y-109466009D01*
X173197255Y-109466009D02*
X173244874Y-109418390D01*
X173244874Y-109418390D02*
X173340112Y-109370771D01*
X173340112Y-109370771D02*
X173578207Y-109370771D01*
X173578207Y-109370771D02*
X173673445Y-109418390D01*
X173673445Y-109418390D02*
X173721064Y-109466009D01*
X173721064Y-109466009D02*
X173768683Y-109561247D01*
X173768683Y-109561247D02*
X173768683Y-109799342D01*
X173768683Y-109799342D02*
X173721064Y-109894580D01*
X173721064Y-109894580D02*
X173673445Y-109942200D01*
X173673445Y-109942200D02*
X173578207Y-109989819D01*
X173578207Y-109989819D02*
X173340112Y-109989819D01*
X173340112Y-109989819D02*
X173244874Y-109942200D01*
X173244874Y-109942200D02*
X173197255Y-109894580D01*
X174054398Y-108989819D02*
X174387731Y-109989819D01*
X174387731Y-109989819D02*
X174721064Y-108989819D01*
X166520588Y-106497438D02*
X166425350Y-106449819D01*
X166425350Y-106449819D02*
X166282493Y-106449819D01*
X166282493Y-106449819D02*
X166139636Y-106497438D01*
X166139636Y-106497438D02*
X166044398Y-106592676D01*
X166044398Y-106592676D02*
X165996779Y-106687914D01*
X165996779Y-106687914D02*
X165949160Y-106878390D01*
X165949160Y-106878390D02*
X165949160Y-107021247D01*
X165949160Y-107021247D02*
X165996779Y-107211723D01*
X165996779Y-107211723D02*
X166044398Y-107306961D01*
X166044398Y-107306961D02*
X166139636Y-107402200D01*
X166139636Y-107402200D02*
X166282493Y-107449819D01*
X166282493Y-107449819D02*
X166377731Y-107449819D01*
X166377731Y-107449819D02*
X166520588Y-107402200D01*
X166520588Y-107402200D02*
X166568207Y-107354580D01*
X166568207Y-107354580D02*
X166568207Y-107021247D01*
X166568207Y-107021247D02*
X166377731Y-107021247D01*
X166996779Y-107449819D02*
X166996779Y-106449819D01*
X166996779Y-106449819D02*
X167377731Y-106449819D01*
X167377731Y-106449819D02*
X167472969Y-106497438D01*
X167472969Y-106497438D02*
X167520588Y-106545057D01*
X167520588Y-106545057D02*
X167568207Y-106640295D01*
X167568207Y-106640295D02*
X167568207Y-106783152D01*
X167568207Y-106783152D02*
X167520588Y-106878390D01*
X167520588Y-106878390D02*
X167472969Y-106926009D01*
X167472969Y-106926009D02*
X167377731Y-106973628D01*
X167377731Y-106973628D02*
X166996779Y-106973628D01*
X167949160Y-106545057D02*
X167996779Y-106497438D01*
X167996779Y-106497438D02*
X168092017Y-106449819D01*
X168092017Y-106449819D02*
X168330112Y-106449819D01*
X168330112Y-106449819D02*
X168425350Y-106497438D01*
X168425350Y-106497438D02*
X168472969Y-106545057D01*
X168472969Y-106545057D02*
X168520588Y-106640295D01*
X168520588Y-106640295D02*
X168520588Y-106735533D01*
X168520588Y-106735533D02*
X168472969Y-106878390D01*
X168472969Y-106878390D02*
X167901541Y-107449819D01*
X167901541Y-107449819D02*
X168520588Y-107449819D01*
X169234874Y-107830771D02*
X169187255Y-107783152D01*
X169187255Y-107783152D02*
X169092017Y-107640295D01*
X169092017Y-107640295D02*
X169044398Y-107545057D01*
X169044398Y-107545057D02*
X168996779Y-107402200D01*
X168996779Y-107402200D02*
X168949160Y-107164104D01*
X168949160Y-107164104D02*
X168949160Y-106973628D01*
X168949160Y-106973628D02*
X168996779Y-106735533D01*
X168996779Y-106735533D02*
X169044398Y-106592676D01*
X169044398Y-106592676D02*
X169092017Y-106497438D01*
X169092017Y-106497438D02*
X169187255Y-106354580D01*
X169187255Y-106354580D02*
X169234874Y-106306961D01*
X169806303Y-106449819D02*
X169901541Y-106449819D01*
X169901541Y-106449819D02*
X169996779Y-106497438D01*
X169996779Y-106497438D02*
X170044398Y-106545057D01*
X170044398Y-106545057D02*
X170092017Y-106640295D01*
X170092017Y-106640295D02*
X170139636Y-106830771D01*
X170139636Y-106830771D02*
X170139636Y-107068866D01*
X170139636Y-107068866D02*
X170092017Y-107259342D01*
X170092017Y-107259342D02*
X170044398Y-107354580D01*
X170044398Y-107354580D02*
X169996779Y-107402200D01*
X169996779Y-107402200D02*
X169901541Y-107449819D01*
X169901541Y-107449819D02*
X169806303Y-107449819D01*
X169806303Y-107449819D02*
X169711065Y-107402200D01*
X169711065Y-107402200D02*
X169663446Y-107354580D01*
X169663446Y-107354580D02*
X169615827Y-107259342D01*
X169615827Y-107259342D02*
X169568208Y-107068866D01*
X169568208Y-107068866D02*
X169568208Y-106830771D01*
X169568208Y-106830771D02*
X169615827Y-106640295D01*
X169615827Y-106640295D02*
X169663446Y-106545057D01*
X169663446Y-106545057D02*
X169711065Y-106497438D01*
X169711065Y-106497438D02*
X169806303Y-106449819D01*
X170472970Y-107830771D02*
X170520589Y-107783152D01*
X170520589Y-107783152D02*
X170615827Y-107640295D01*
X170615827Y-107640295D02*
X170663446Y-107545057D01*
X170663446Y-107545057D02*
X170711065Y-107402200D01*
X170711065Y-107402200D02*
X170758684Y-107164104D01*
X170758684Y-107164104D02*
X170758684Y-106973628D01*
X170758684Y-106973628D02*
X170711065Y-106735533D01*
X170711065Y-106735533D02*
X170663446Y-106592676D01*
X170663446Y-106592676D02*
X170615827Y-106497438D01*
X170615827Y-106497438D02*
X170520589Y-106354580D01*
X170520589Y-106354580D02*
X170472970Y-106306961D01*
X171949160Y-106402200D02*
X171092018Y-107687914D01*
X172234875Y-107402200D02*
X172377732Y-107449819D01*
X172377732Y-107449819D02*
X172615827Y-107449819D01*
X172615827Y-107449819D02*
X172711065Y-107402200D01*
X172711065Y-107402200D02*
X172758684Y-107354580D01*
X172758684Y-107354580D02*
X172806303Y-107259342D01*
X172806303Y-107259342D02*
X172806303Y-107164104D01*
X172806303Y-107164104D02*
X172758684Y-107068866D01*
X172758684Y-107068866D02*
X172711065Y-107021247D01*
X172711065Y-107021247D02*
X172615827Y-106973628D01*
X172615827Y-106973628D02*
X172425351Y-106926009D01*
X172425351Y-106926009D02*
X172330113Y-106878390D01*
X172330113Y-106878390D02*
X172282494Y-106830771D01*
X172282494Y-106830771D02*
X172234875Y-106735533D01*
X172234875Y-106735533D02*
X172234875Y-106640295D01*
X172234875Y-106640295D02*
X172282494Y-106545057D01*
X172282494Y-106545057D02*
X172330113Y-106497438D01*
X172330113Y-106497438D02*
X172425351Y-106449819D01*
X172425351Y-106449819D02*
X172663446Y-106449819D01*
X172663446Y-106449819D02*
X172806303Y-106497438D01*
X173234875Y-107449819D02*
X173234875Y-106449819D01*
X173234875Y-106449819D02*
X173472970Y-106449819D01*
X173472970Y-106449819D02*
X173615827Y-106497438D01*
X173615827Y-106497438D02*
X173711065Y-106592676D01*
X173711065Y-106592676D02*
X173758684Y-106687914D01*
X173758684Y-106687914D02*
X173806303Y-106878390D01*
X173806303Y-106878390D02*
X173806303Y-107021247D01*
X173806303Y-107021247D02*
X173758684Y-107211723D01*
X173758684Y-107211723D02*
X173711065Y-107306961D01*
X173711065Y-107306961D02*
X173615827Y-107402200D01*
X173615827Y-107402200D02*
X173472970Y-107449819D01*
X173472970Y-107449819D02*
X173234875Y-107449819D01*
X174187256Y-107164104D02*
X174663446Y-107164104D01*
X174092018Y-107449819D02*
X174425351Y-106449819D01*
X174425351Y-106449819D02*
X174758684Y-107449819D01*
X154799160Y-102362200D02*
X154942017Y-102409819D01*
X154942017Y-102409819D02*
X155180112Y-102409819D01*
X155180112Y-102409819D02*
X155275350Y-102362200D01*
X155275350Y-102362200D02*
X155322969Y-102314580D01*
X155322969Y-102314580D02*
X155370588Y-102219342D01*
X155370588Y-102219342D02*
X155370588Y-102124104D01*
X155370588Y-102124104D02*
X155322969Y-102028866D01*
X155322969Y-102028866D02*
X155275350Y-101981247D01*
X155275350Y-101981247D02*
X155180112Y-101933628D01*
X155180112Y-101933628D02*
X154989636Y-101886009D01*
X154989636Y-101886009D02*
X154894398Y-101838390D01*
X154894398Y-101838390D02*
X154846779Y-101790771D01*
X154846779Y-101790771D02*
X154799160Y-101695533D01*
X154799160Y-101695533D02*
X154799160Y-101600295D01*
X154799160Y-101600295D02*
X154846779Y-101505057D01*
X154846779Y-101505057D02*
X154894398Y-101457438D01*
X154894398Y-101457438D02*
X154989636Y-101409819D01*
X154989636Y-101409819D02*
X155227731Y-101409819D01*
X155227731Y-101409819D02*
X155370588Y-101457438D01*
X156370588Y-102314580D02*
X156322969Y-102362200D01*
X156322969Y-102362200D02*
X156180112Y-102409819D01*
X156180112Y-102409819D02*
X156084874Y-102409819D01*
X156084874Y-102409819D02*
X155942017Y-102362200D01*
X155942017Y-102362200D02*
X155846779Y-102266961D01*
X155846779Y-102266961D02*
X155799160Y-102171723D01*
X155799160Y-102171723D02*
X155751541Y-101981247D01*
X155751541Y-101981247D02*
X155751541Y-101838390D01*
X155751541Y-101838390D02*
X155799160Y-101647914D01*
X155799160Y-101647914D02*
X155846779Y-101552676D01*
X155846779Y-101552676D02*
X155942017Y-101457438D01*
X155942017Y-101457438D02*
X156084874Y-101409819D01*
X156084874Y-101409819D02*
X156180112Y-101409819D01*
X156180112Y-101409819D02*
X156322969Y-101457438D01*
X156322969Y-101457438D02*
X156370588Y-101505057D01*
X156799160Y-102409819D02*
X156799160Y-101409819D01*
X157370588Y-102409819D02*
X156942017Y-101838390D01*
X157370588Y-101409819D02*
X156799160Y-101981247D01*
X158513445Y-101362200D02*
X157656303Y-102647914D01*
X159370588Y-101457438D02*
X159275350Y-101409819D01*
X159275350Y-101409819D02*
X159132493Y-101409819D01*
X159132493Y-101409819D02*
X158989636Y-101457438D01*
X158989636Y-101457438D02*
X158894398Y-101552676D01*
X158894398Y-101552676D02*
X158846779Y-101647914D01*
X158846779Y-101647914D02*
X158799160Y-101838390D01*
X158799160Y-101838390D02*
X158799160Y-101981247D01*
X158799160Y-101981247D02*
X158846779Y-102171723D01*
X158846779Y-102171723D02*
X158894398Y-102266961D01*
X158894398Y-102266961D02*
X158989636Y-102362200D01*
X158989636Y-102362200D02*
X159132493Y-102409819D01*
X159132493Y-102409819D02*
X159227731Y-102409819D01*
X159227731Y-102409819D02*
X159370588Y-102362200D01*
X159370588Y-102362200D02*
X159418207Y-102314580D01*
X159418207Y-102314580D02*
X159418207Y-101981247D01*
X159418207Y-101981247D02*
X159227731Y-101981247D01*
X159846779Y-102409819D02*
X159846779Y-101409819D01*
X159846779Y-101409819D02*
X160227731Y-101409819D01*
X160227731Y-101409819D02*
X160322969Y-101457438D01*
X160322969Y-101457438D02*
X160370588Y-101505057D01*
X160370588Y-101505057D02*
X160418207Y-101600295D01*
X160418207Y-101600295D02*
X160418207Y-101743152D01*
X160418207Y-101743152D02*
X160370588Y-101838390D01*
X160370588Y-101838390D02*
X160322969Y-101886009D01*
X160322969Y-101886009D02*
X160227731Y-101933628D01*
X160227731Y-101933628D02*
X159846779Y-101933628D01*
X161370588Y-102409819D02*
X160799160Y-102409819D01*
X161084874Y-102409819D02*
X161084874Y-101409819D01*
X161084874Y-101409819D02*
X160989636Y-101552676D01*
X160989636Y-101552676D02*
X160894398Y-101647914D01*
X160894398Y-101647914D02*
X160799160Y-101695533D01*
X162322969Y-102409819D02*
X161751541Y-102409819D01*
X162037255Y-102409819D02*
X162037255Y-101409819D01*
X162037255Y-101409819D02*
X161942017Y-101552676D01*
X161942017Y-101552676D02*
X161846779Y-101647914D01*
X161846779Y-101647914D02*
X161751541Y-101695533D01*
X126610588Y-93717438D02*
X126515350Y-93669819D01*
X126515350Y-93669819D02*
X126372493Y-93669819D01*
X126372493Y-93669819D02*
X126229636Y-93717438D01*
X126229636Y-93717438D02*
X126134398Y-93812676D01*
X126134398Y-93812676D02*
X126086779Y-93907914D01*
X126086779Y-93907914D02*
X126039160Y-94098390D01*
X126039160Y-94098390D02*
X126039160Y-94241247D01*
X126039160Y-94241247D02*
X126086779Y-94431723D01*
X126086779Y-94431723D02*
X126134398Y-94526961D01*
X126134398Y-94526961D02*
X126229636Y-94622200D01*
X126229636Y-94622200D02*
X126372493Y-94669819D01*
X126372493Y-94669819D02*
X126467731Y-94669819D01*
X126467731Y-94669819D02*
X126610588Y-94622200D01*
X126610588Y-94622200D02*
X126658207Y-94574580D01*
X126658207Y-94574580D02*
X126658207Y-94241247D01*
X126658207Y-94241247D02*
X126467731Y-94241247D01*
X127086779Y-94669819D02*
X127086779Y-93669819D01*
X127086779Y-93669819D02*
X127467731Y-93669819D01*
X127467731Y-93669819D02*
X127562969Y-93717438D01*
X127562969Y-93717438D02*
X127610588Y-93765057D01*
X127610588Y-93765057D02*
X127658207Y-93860295D01*
X127658207Y-93860295D02*
X127658207Y-94003152D01*
X127658207Y-94003152D02*
X127610588Y-94098390D01*
X127610588Y-94098390D02*
X127562969Y-94146009D01*
X127562969Y-94146009D02*
X127467731Y-94193628D01*
X127467731Y-94193628D02*
X127086779Y-94193628D01*
X128039160Y-93765057D02*
X128086779Y-93717438D01*
X128086779Y-93717438D02*
X128182017Y-93669819D01*
X128182017Y-93669819D02*
X128420112Y-93669819D01*
X128420112Y-93669819D02*
X128515350Y-93717438D01*
X128515350Y-93717438D02*
X128562969Y-93765057D01*
X128562969Y-93765057D02*
X128610588Y-93860295D01*
X128610588Y-93860295D02*
X128610588Y-93955533D01*
X128610588Y-93955533D02*
X128562969Y-94098390D01*
X128562969Y-94098390D02*
X127991541Y-94669819D01*
X127991541Y-94669819D02*
X128610588Y-94669819D01*
X128991541Y-93765057D02*
X129039160Y-93717438D01*
X129039160Y-93717438D02*
X129134398Y-93669819D01*
X129134398Y-93669819D02*
X129372493Y-93669819D01*
X129372493Y-93669819D02*
X129467731Y-93717438D01*
X129467731Y-93717438D02*
X129515350Y-93765057D01*
X129515350Y-93765057D02*
X129562969Y-93860295D01*
X129562969Y-93860295D02*
X129562969Y-93955533D01*
X129562969Y-93955533D02*
X129515350Y-94098390D01*
X129515350Y-94098390D02*
X128943922Y-94669819D01*
X128943922Y-94669819D02*
X129562969Y-94669819D01*
X137620588Y-106337438D02*
X137525350Y-106289819D01*
X137525350Y-106289819D02*
X137382493Y-106289819D01*
X137382493Y-106289819D02*
X137239636Y-106337438D01*
X137239636Y-106337438D02*
X137144398Y-106432676D01*
X137144398Y-106432676D02*
X137096779Y-106527914D01*
X137096779Y-106527914D02*
X137049160Y-106718390D01*
X137049160Y-106718390D02*
X137049160Y-106861247D01*
X137049160Y-106861247D02*
X137096779Y-107051723D01*
X137096779Y-107051723D02*
X137144398Y-107146961D01*
X137144398Y-107146961D02*
X137239636Y-107242200D01*
X137239636Y-107242200D02*
X137382493Y-107289819D01*
X137382493Y-107289819D02*
X137477731Y-107289819D01*
X137477731Y-107289819D02*
X137620588Y-107242200D01*
X137620588Y-107242200D02*
X137668207Y-107194580D01*
X137668207Y-107194580D02*
X137668207Y-106861247D01*
X137668207Y-106861247D02*
X137477731Y-106861247D01*
X138096779Y-107289819D02*
X138096779Y-106289819D01*
X138096779Y-106289819D02*
X138477731Y-106289819D01*
X138477731Y-106289819D02*
X138572969Y-106337438D01*
X138572969Y-106337438D02*
X138620588Y-106385057D01*
X138620588Y-106385057D02*
X138668207Y-106480295D01*
X138668207Y-106480295D02*
X138668207Y-106623152D01*
X138668207Y-106623152D02*
X138620588Y-106718390D01*
X138620588Y-106718390D02*
X138572969Y-106766009D01*
X138572969Y-106766009D02*
X138477731Y-106813628D01*
X138477731Y-106813628D02*
X138096779Y-106813628D01*
X139049160Y-106385057D02*
X139096779Y-106337438D01*
X139096779Y-106337438D02*
X139192017Y-106289819D01*
X139192017Y-106289819D02*
X139430112Y-106289819D01*
X139430112Y-106289819D02*
X139525350Y-106337438D01*
X139525350Y-106337438D02*
X139572969Y-106385057D01*
X139572969Y-106385057D02*
X139620588Y-106480295D01*
X139620588Y-106480295D02*
X139620588Y-106575533D01*
X139620588Y-106575533D02*
X139572969Y-106718390D01*
X139572969Y-106718390D02*
X139001541Y-107289819D01*
X139001541Y-107289819D02*
X139620588Y-107289819D01*
X140334874Y-107670771D02*
X140287255Y-107623152D01*
X140287255Y-107623152D02*
X140192017Y-107480295D01*
X140192017Y-107480295D02*
X140144398Y-107385057D01*
X140144398Y-107385057D02*
X140096779Y-107242200D01*
X140096779Y-107242200D02*
X140049160Y-107004104D01*
X140049160Y-107004104D02*
X140049160Y-106813628D01*
X140049160Y-106813628D02*
X140096779Y-106575533D01*
X140096779Y-106575533D02*
X140144398Y-106432676D01*
X140144398Y-106432676D02*
X140192017Y-106337438D01*
X140192017Y-106337438D02*
X140287255Y-106194580D01*
X140287255Y-106194580D02*
X140334874Y-106146961D01*
X140906303Y-106289819D02*
X141001541Y-106289819D01*
X141001541Y-106289819D02*
X141096779Y-106337438D01*
X141096779Y-106337438D02*
X141144398Y-106385057D01*
X141144398Y-106385057D02*
X141192017Y-106480295D01*
X141192017Y-106480295D02*
X141239636Y-106670771D01*
X141239636Y-106670771D02*
X141239636Y-106908866D01*
X141239636Y-106908866D02*
X141192017Y-107099342D01*
X141192017Y-107099342D02*
X141144398Y-107194580D01*
X141144398Y-107194580D02*
X141096779Y-107242200D01*
X141096779Y-107242200D02*
X141001541Y-107289819D01*
X141001541Y-107289819D02*
X140906303Y-107289819D01*
X140906303Y-107289819D02*
X140811065Y-107242200D01*
X140811065Y-107242200D02*
X140763446Y-107194580D01*
X140763446Y-107194580D02*
X140715827Y-107099342D01*
X140715827Y-107099342D02*
X140668208Y-106908866D01*
X140668208Y-106908866D02*
X140668208Y-106670771D01*
X140668208Y-106670771D02*
X140715827Y-106480295D01*
X140715827Y-106480295D02*
X140763446Y-106385057D01*
X140763446Y-106385057D02*
X140811065Y-106337438D01*
X140811065Y-106337438D02*
X140906303Y-106289819D01*
X141572970Y-107670771D02*
X141620589Y-107623152D01*
X141620589Y-107623152D02*
X141715827Y-107480295D01*
X141715827Y-107480295D02*
X141763446Y-107385057D01*
X141763446Y-107385057D02*
X141811065Y-107242200D01*
X141811065Y-107242200D02*
X141858684Y-107004104D01*
X141858684Y-107004104D02*
X141858684Y-106813628D01*
X141858684Y-106813628D02*
X141811065Y-106575533D01*
X141811065Y-106575533D02*
X141763446Y-106432676D01*
X141763446Y-106432676D02*
X141715827Y-106337438D01*
X141715827Y-106337438D02*
X141620589Y-106194580D01*
X141620589Y-106194580D02*
X141572970Y-106146961D01*
X143049160Y-106242200D02*
X142192018Y-107527914D01*
X143334875Y-107242200D02*
X143477732Y-107289819D01*
X143477732Y-107289819D02*
X143715827Y-107289819D01*
X143715827Y-107289819D02*
X143811065Y-107242200D01*
X143811065Y-107242200D02*
X143858684Y-107194580D01*
X143858684Y-107194580D02*
X143906303Y-107099342D01*
X143906303Y-107099342D02*
X143906303Y-107004104D01*
X143906303Y-107004104D02*
X143858684Y-106908866D01*
X143858684Y-106908866D02*
X143811065Y-106861247D01*
X143811065Y-106861247D02*
X143715827Y-106813628D01*
X143715827Y-106813628D02*
X143525351Y-106766009D01*
X143525351Y-106766009D02*
X143430113Y-106718390D01*
X143430113Y-106718390D02*
X143382494Y-106670771D01*
X143382494Y-106670771D02*
X143334875Y-106575533D01*
X143334875Y-106575533D02*
X143334875Y-106480295D01*
X143334875Y-106480295D02*
X143382494Y-106385057D01*
X143382494Y-106385057D02*
X143430113Y-106337438D01*
X143430113Y-106337438D02*
X143525351Y-106289819D01*
X143525351Y-106289819D02*
X143763446Y-106289819D01*
X143763446Y-106289819D02*
X143906303Y-106337438D01*
X144334875Y-107289819D02*
X144334875Y-106289819D01*
X144334875Y-106289819D02*
X144572970Y-106289819D01*
X144572970Y-106289819D02*
X144715827Y-106337438D01*
X144715827Y-106337438D02*
X144811065Y-106432676D01*
X144811065Y-106432676D02*
X144858684Y-106527914D01*
X144858684Y-106527914D02*
X144906303Y-106718390D01*
X144906303Y-106718390D02*
X144906303Y-106861247D01*
X144906303Y-106861247D02*
X144858684Y-107051723D01*
X144858684Y-107051723D02*
X144811065Y-107146961D01*
X144811065Y-107146961D02*
X144715827Y-107242200D01*
X144715827Y-107242200D02*
X144572970Y-107289819D01*
X144572970Y-107289819D02*
X144334875Y-107289819D01*
X145287256Y-107004104D02*
X145763446Y-107004104D01*
X145192018Y-107289819D02*
X145525351Y-106289819D01*
X145525351Y-106289819D02*
X145858684Y-107289819D01*
X154516779Y-109388866D02*
X155278684Y-109388866D01*
X154897731Y-109769819D02*
X154897731Y-109007914D01*
X155659636Y-108769819D02*
X156278683Y-108769819D01*
X156278683Y-108769819D02*
X155945350Y-109150771D01*
X155945350Y-109150771D02*
X156088207Y-109150771D01*
X156088207Y-109150771D02*
X156183445Y-109198390D01*
X156183445Y-109198390D02*
X156231064Y-109246009D01*
X156231064Y-109246009D02*
X156278683Y-109341247D01*
X156278683Y-109341247D02*
X156278683Y-109579342D01*
X156278683Y-109579342D02*
X156231064Y-109674580D01*
X156231064Y-109674580D02*
X156183445Y-109722200D01*
X156183445Y-109722200D02*
X156088207Y-109769819D01*
X156088207Y-109769819D02*
X155802493Y-109769819D01*
X155802493Y-109769819D02*
X155707255Y-109722200D01*
X155707255Y-109722200D02*
X155659636Y-109674580D01*
X156707255Y-109674580D02*
X156754874Y-109722200D01*
X156754874Y-109722200D02*
X156707255Y-109769819D01*
X156707255Y-109769819D02*
X156659636Y-109722200D01*
X156659636Y-109722200D02*
X156707255Y-109674580D01*
X156707255Y-109674580D02*
X156707255Y-109769819D01*
X157088207Y-108769819D02*
X157707254Y-108769819D01*
X157707254Y-108769819D02*
X157373921Y-109150771D01*
X157373921Y-109150771D02*
X157516778Y-109150771D01*
X157516778Y-109150771D02*
X157612016Y-109198390D01*
X157612016Y-109198390D02*
X157659635Y-109246009D01*
X157659635Y-109246009D02*
X157707254Y-109341247D01*
X157707254Y-109341247D02*
X157707254Y-109579342D01*
X157707254Y-109579342D02*
X157659635Y-109674580D01*
X157659635Y-109674580D02*
X157612016Y-109722200D01*
X157612016Y-109722200D02*
X157516778Y-109769819D01*
X157516778Y-109769819D02*
X157231064Y-109769819D01*
X157231064Y-109769819D02*
X157135826Y-109722200D01*
X157135826Y-109722200D02*
X157088207Y-109674580D01*
X157992969Y-108769819D02*
X158326302Y-109769819D01*
X158326302Y-109769819D02*
X158659635Y-108769819D01*
X143106779Y-109448866D02*
X143868684Y-109448866D01*
X143487731Y-109829819D02*
X143487731Y-109067914D01*
X144821064Y-108829819D02*
X144344874Y-108829819D01*
X144344874Y-108829819D02*
X144297255Y-109306009D01*
X144297255Y-109306009D02*
X144344874Y-109258390D01*
X144344874Y-109258390D02*
X144440112Y-109210771D01*
X144440112Y-109210771D02*
X144678207Y-109210771D01*
X144678207Y-109210771D02*
X144773445Y-109258390D01*
X144773445Y-109258390D02*
X144821064Y-109306009D01*
X144821064Y-109306009D02*
X144868683Y-109401247D01*
X144868683Y-109401247D02*
X144868683Y-109639342D01*
X144868683Y-109639342D02*
X144821064Y-109734580D01*
X144821064Y-109734580D02*
X144773445Y-109782200D01*
X144773445Y-109782200D02*
X144678207Y-109829819D01*
X144678207Y-109829819D02*
X144440112Y-109829819D01*
X144440112Y-109829819D02*
X144344874Y-109782200D01*
X144344874Y-109782200D02*
X144297255Y-109734580D01*
X145154398Y-108829819D02*
X145487731Y-109829819D01*
X145487731Y-109829819D02*
X145821064Y-108829819D01*
X155598207Y-97529819D02*
X155264874Y-97053628D01*
X155026779Y-97529819D02*
X155026779Y-96529819D01*
X155026779Y-96529819D02*
X155407731Y-96529819D01*
X155407731Y-96529819D02*
X155502969Y-96577438D01*
X155502969Y-96577438D02*
X155550588Y-96625057D01*
X155550588Y-96625057D02*
X155598207Y-96720295D01*
X155598207Y-96720295D02*
X155598207Y-96863152D01*
X155598207Y-96863152D02*
X155550588Y-96958390D01*
X155550588Y-96958390D02*
X155502969Y-97006009D01*
X155502969Y-97006009D02*
X155407731Y-97053628D01*
X155407731Y-97053628D02*
X155026779Y-97053628D01*
X155979160Y-97482200D02*
X156122017Y-97529819D01*
X156122017Y-97529819D02*
X156360112Y-97529819D01*
X156360112Y-97529819D02*
X156455350Y-97482200D01*
X156455350Y-97482200D02*
X156502969Y-97434580D01*
X156502969Y-97434580D02*
X156550588Y-97339342D01*
X156550588Y-97339342D02*
X156550588Y-97244104D01*
X156550588Y-97244104D02*
X156502969Y-97148866D01*
X156502969Y-97148866D02*
X156455350Y-97101247D01*
X156455350Y-97101247D02*
X156360112Y-97053628D01*
X156360112Y-97053628D02*
X156169636Y-97006009D01*
X156169636Y-97006009D02*
X156074398Y-96958390D01*
X156074398Y-96958390D02*
X156026779Y-96910771D01*
X156026779Y-96910771D02*
X155979160Y-96815533D01*
X155979160Y-96815533D02*
X155979160Y-96720295D01*
X155979160Y-96720295D02*
X156026779Y-96625057D01*
X156026779Y-96625057D02*
X156074398Y-96577438D01*
X156074398Y-96577438D02*
X156169636Y-96529819D01*
X156169636Y-96529819D02*
X156407731Y-96529819D01*
X156407731Y-96529819D02*
X156550588Y-96577438D01*
X156836303Y-96529819D02*
X157407731Y-96529819D01*
X157122017Y-97529819D02*
X157122017Y-96529819D01*
X158455350Y-96482200D02*
X157598208Y-97767914D01*
X159312493Y-96577438D02*
X159217255Y-96529819D01*
X159217255Y-96529819D02*
X159074398Y-96529819D01*
X159074398Y-96529819D02*
X158931541Y-96577438D01*
X158931541Y-96577438D02*
X158836303Y-96672676D01*
X158836303Y-96672676D02*
X158788684Y-96767914D01*
X158788684Y-96767914D02*
X158741065Y-96958390D01*
X158741065Y-96958390D02*
X158741065Y-97101247D01*
X158741065Y-97101247D02*
X158788684Y-97291723D01*
X158788684Y-97291723D02*
X158836303Y-97386961D01*
X158836303Y-97386961D02*
X158931541Y-97482200D01*
X158931541Y-97482200D02*
X159074398Y-97529819D01*
X159074398Y-97529819D02*
X159169636Y-97529819D01*
X159169636Y-97529819D02*
X159312493Y-97482200D01*
X159312493Y-97482200D02*
X159360112Y-97434580D01*
X159360112Y-97434580D02*
X159360112Y-97101247D01*
X159360112Y-97101247D02*
X159169636Y-97101247D01*
X159788684Y-97529819D02*
X159788684Y-96529819D01*
X159788684Y-96529819D02*
X160169636Y-96529819D01*
X160169636Y-96529819D02*
X160264874Y-96577438D01*
X160264874Y-96577438D02*
X160312493Y-96625057D01*
X160312493Y-96625057D02*
X160360112Y-96720295D01*
X160360112Y-96720295D02*
X160360112Y-96863152D01*
X160360112Y-96863152D02*
X160312493Y-96958390D01*
X160312493Y-96958390D02*
X160264874Y-97006009D01*
X160264874Y-97006009D02*
X160169636Y-97053628D01*
X160169636Y-97053628D02*
X159788684Y-97053628D01*
X161217255Y-96863152D02*
X161217255Y-97529819D01*
X160979160Y-96482200D02*
X160741065Y-97196485D01*
X160741065Y-97196485D02*
X161360112Y-97196485D01*
X123124819Y-79863333D02*
X123839104Y-79863333D01*
X123839104Y-79863333D02*
X123981961Y-79910952D01*
X123981961Y-79910952D02*
X124077200Y-80006190D01*
X124077200Y-80006190D02*
X124124819Y-80149047D01*
X124124819Y-80149047D02*
X124124819Y-80244285D01*
X124124819Y-78863333D02*
X124124819Y-79434761D01*
X124124819Y-79149047D02*
X123124819Y-79149047D01*
X123124819Y-79149047D02*
X123267676Y-79244285D01*
X123267676Y-79244285D02*
X123362914Y-79339523D01*
X123362914Y-79339523D02*
X123410533Y-79434761D01*
D12*
X162908572Y-89019757D02*
X162765715Y-88948328D01*
X162765715Y-88948328D02*
X162551429Y-88948328D01*
X162551429Y-88948328D02*
X162337143Y-89019757D01*
X162337143Y-89019757D02*
X162194286Y-89162614D01*
X162194286Y-89162614D02*
X162122857Y-89305471D01*
X162122857Y-89305471D02*
X162051429Y-89591185D01*
X162051429Y-89591185D02*
X162051429Y-89805471D01*
X162051429Y-89805471D02*
X162122857Y-90091185D01*
X162122857Y-90091185D02*
X162194286Y-90234042D01*
X162194286Y-90234042D02*
X162337143Y-90376900D01*
X162337143Y-90376900D02*
X162551429Y-90448328D01*
X162551429Y-90448328D02*
X162694286Y-90448328D01*
X162694286Y-90448328D02*
X162908572Y-90376900D01*
X162908572Y-90376900D02*
X162980000Y-90305471D01*
X162980000Y-90305471D02*
X162980000Y-89805471D01*
X162980000Y-89805471D02*
X162694286Y-89805471D01*
X163837143Y-88948328D02*
X163837143Y-89305471D01*
X163480000Y-89162614D02*
X163837143Y-89305471D01*
X163837143Y-89305471D02*
X164194286Y-89162614D01*
X163622857Y-89591185D02*
X163837143Y-89305471D01*
X163837143Y-89305471D02*
X164051429Y-89591185D01*
X164980000Y-88948328D02*
X164980000Y-89305471D01*
X164622857Y-89162614D02*
X164980000Y-89305471D01*
X164980000Y-89305471D02*
X165337143Y-89162614D01*
X164765714Y-89591185D02*
X164980000Y-89305471D01*
X164980000Y-89305471D02*
X165194286Y-89591185D01*
X166122857Y-88948328D02*
X166122857Y-89305471D01*
X165765714Y-89162614D02*
X166122857Y-89305471D01*
X166122857Y-89305471D02*
X166480000Y-89162614D01*
X165908571Y-89591185D02*
X166122857Y-89305471D01*
X166122857Y-89305471D02*
X166337143Y-89591185D01*
D13*
X163360237Y-101174318D02*
X163360237Y-99904318D01*
X164690714Y-101053365D02*
X164630238Y-101113842D01*
X164630238Y-101113842D02*
X164448809Y-101174318D01*
X164448809Y-101174318D02*
X164327857Y-101174318D01*
X164327857Y-101174318D02*
X164146428Y-101113842D01*
X164146428Y-101113842D02*
X164025476Y-100992889D01*
X164025476Y-100992889D02*
X163964999Y-100871937D01*
X163964999Y-100871937D02*
X163904523Y-100630032D01*
X163904523Y-100630032D02*
X163904523Y-100448603D01*
X163904523Y-100448603D02*
X163964999Y-100206699D01*
X163964999Y-100206699D02*
X164025476Y-100085746D01*
X164025476Y-100085746D02*
X164146428Y-99964794D01*
X164146428Y-99964794D02*
X164327857Y-99904318D01*
X164327857Y-99904318D02*
X164448809Y-99904318D01*
X164448809Y-99904318D02*
X164630238Y-99964794D01*
X164630238Y-99964794D02*
X164690714Y-100025270D01*
X165174523Y-100025270D02*
X165234999Y-99964794D01*
X165234999Y-99964794D02*
X165355952Y-99904318D01*
X165355952Y-99904318D02*
X165658333Y-99904318D01*
X165658333Y-99904318D02*
X165779285Y-99964794D01*
X165779285Y-99964794D02*
X165839761Y-100025270D01*
X165839761Y-100025270D02*
X165900238Y-100146222D01*
X165900238Y-100146222D02*
X165900238Y-100267175D01*
X165900238Y-100267175D02*
X165839761Y-100448603D01*
X165839761Y-100448603D02*
X165114047Y-101174318D01*
X165114047Y-101174318D02*
X165900238Y-101174318D01*
X134770237Y-101164318D02*
X134770237Y-99894318D01*
X136100714Y-101043365D02*
X136040238Y-101103842D01*
X136040238Y-101103842D02*
X135858809Y-101164318D01*
X135858809Y-101164318D02*
X135737857Y-101164318D01*
X135737857Y-101164318D02*
X135556428Y-101103842D01*
X135556428Y-101103842D02*
X135435476Y-100982889D01*
X135435476Y-100982889D02*
X135374999Y-100861937D01*
X135374999Y-100861937D02*
X135314523Y-100620032D01*
X135314523Y-100620032D02*
X135314523Y-100438603D01*
X135314523Y-100438603D02*
X135374999Y-100196699D01*
X135374999Y-100196699D02*
X135435476Y-100075746D01*
X135435476Y-100075746D02*
X135556428Y-99954794D01*
X135556428Y-99954794D02*
X135737857Y-99894318D01*
X135737857Y-99894318D02*
X135858809Y-99894318D01*
X135858809Y-99894318D02*
X136040238Y-99954794D01*
X136040238Y-99954794D02*
X136100714Y-100015270D01*
X137310238Y-101164318D02*
X136584523Y-101164318D01*
X136947380Y-101164318D02*
X136947380Y-99894318D01*
X136947380Y-99894318D02*
X136826428Y-100075746D01*
X136826428Y-100075746D02*
X136705476Y-100196699D01*
X136705476Y-100196699D02*
X136584523Y-100257175D01*
D12*
X134043133Y-88977423D02*
X133900276Y-88905994D01*
X133900276Y-88905994D02*
X133685990Y-88905994D01*
X133685990Y-88905994D02*
X133471704Y-88977423D01*
X133471704Y-88977423D02*
X133328847Y-89120280D01*
X133328847Y-89120280D02*
X133257418Y-89263137D01*
X133257418Y-89263137D02*
X133185990Y-89548851D01*
X133185990Y-89548851D02*
X133185990Y-89763137D01*
X133185990Y-89763137D02*
X133257418Y-90048851D01*
X133257418Y-90048851D02*
X133328847Y-90191708D01*
X133328847Y-90191708D02*
X133471704Y-90334566D01*
X133471704Y-90334566D02*
X133685990Y-90405994D01*
X133685990Y-90405994D02*
X133828847Y-90405994D01*
X133828847Y-90405994D02*
X134043133Y-90334566D01*
X134043133Y-90334566D02*
X134114561Y-90263137D01*
X134114561Y-90263137D02*
X134114561Y-89763137D01*
X134114561Y-89763137D02*
X133828847Y-89763137D01*
X134971704Y-88905994D02*
X134971704Y-89263137D01*
X134614561Y-89120280D02*
X134971704Y-89263137D01*
X134971704Y-89263137D02*
X135328847Y-89120280D01*
X134757418Y-89548851D02*
X134971704Y-89263137D01*
X134971704Y-89263137D02*
X135185990Y-89548851D01*
X136114561Y-88905994D02*
X136114561Y-89263137D01*
X135757418Y-89120280D02*
X136114561Y-89263137D01*
X136114561Y-89263137D02*
X136471704Y-89120280D01*
X135900275Y-89548851D02*
X136114561Y-89263137D01*
X136114561Y-89263137D02*
X136328847Y-89548851D01*
X137257418Y-88905994D02*
X137257418Y-89263137D01*
X136900275Y-89120280D02*
X137257418Y-89263137D01*
X137257418Y-89263137D02*
X137614561Y-89120280D01*
X137043132Y-89548851D02*
X137257418Y-89263137D01*
X137257418Y-89263137D02*
X137471704Y-89548851D01*
D13*
%TO.C,J1*%
X122270000Y-71990000D02*
X173070000Y-71990000D01*
X122270000Y-77070000D02*
X122270000Y-71990000D01*
X173070000Y-71990000D02*
X173070000Y-77070000D01*
X173070000Y-77070000D02*
X122270000Y-77070000D01*
D14*
%TO.C,G\u002A\u002A\u002A*%
G36*
X166839915Y-87721106D02*
G01*
X166854667Y-87780334D01*
X166786894Y-87892582D01*
X166727667Y-87907334D01*
X166615418Y-87839561D01*
X166600667Y-87780334D01*
X166668440Y-87668085D01*
X166727667Y-87653334D01*
X166839915Y-87721106D01*
G37*
G36*
X166798903Y-88198074D02*
G01*
X166838496Y-88329356D01*
X166853737Y-88586768D01*
X166854667Y-88711667D01*
X166846188Y-89020357D01*
X166815892Y-89191928D01*
X166756490Y-89257970D01*
X166727667Y-89262000D01*
X166656431Y-89225260D01*
X166616837Y-89093978D01*
X166601597Y-88836565D01*
X166600667Y-88711667D01*
X166609145Y-88402977D01*
X166639441Y-88231405D01*
X166698844Y-88165363D01*
X166727667Y-88161334D01*
X166798903Y-88198074D01*
G37*
G36*
X168823167Y-88177632D02*
G01*
X169058086Y-88210013D01*
X169171933Y-88279971D01*
X169210055Y-88394167D01*
X169188231Y-88551151D01*
X169104222Y-88584667D01*
X168988591Y-88516472D01*
X168971334Y-88450611D01*
X168919671Y-88352600D01*
X168865500Y-88351433D01*
X168796977Y-88452836D01*
X168747660Y-88678080D01*
X168734076Y-88824155D01*
X168701251Y-89105439D01*
X168639979Y-89241130D01*
X168585909Y-89262000D01*
X168516795Y-89221471D01*
X168478331Y-89080034D01*
X168463943Y-88807912D01*
X168463334Y-88706799D01*
X168463334Y-88151597D01*
X168823167Y-88177632D01*
G37*
G36*
X170257017Y-88229044D02*
G01*
X170457025Y-88402485D01*
X170567054Y-88637118D01*
X170566805Y-88888405D01*
X170435975Y-89111808D01*
X170425167Y-89121878D01*
X170194063Y-89239502D01*
X169916505Y-89260559D01*
X169662035Y-89188767D01*
X169526468Y-89073828D01*
X169420137Y-88810185D01*
X169695932Y-88810185D01*
X169784775Y-88973548D01*
X169934290Y-89066161D01*
X170100151Y-89060614D01*
X170238033Y-88929500D01*
X170238355Y-88928900D01*
X170318255Y-88718723D01*
X170275170Y-88559449D01*
X170193120Y-88463882D01*
X170019804Y-88390328D01*
X169835548Y-88446375D01*
X169712086Y-88603481D01*
X169695932Y-88810185D01*
X169420137Y-88810185D01*
X169412259Y-88790651D01*
X169441498Y-88519196D01*
X169593426Y-88300565D01*
X169847284Y-88175859D01*
X169987334Y-88161334D01*
X170257017Y-88229044D01*
G37*
G36*
X167393059Y-87691685D02*
G01*
X167433338Y-87827775D01*
X167448890Y-88093157D01*
X167449815Y-88182500D01*
X167452297Y-88711667D01*
X167702622Y-88436500D01*
X167899985Y-88264621D01*
X168090077Y-88168731D01*
X168140082Y-88161334D01*
X168245781Y-88170249D01*
X168254250Y-88218325D01*
X168156447Y-88337556D01*
X168062321Y-88436500D01*
X167797423Y-88711667D01*
X168017583Y-88965667D01*
X168151064Y-89129526D01*
X168177306Y-89209418D01*
X168104704Y-89245083D01*
X168077785Y-89250653D01*
X167902855Y-89202905D01*
X167693025Y-89012231D01*
X167682581Y-88999851D01*
X167447334Y-88718063D01*
X167447334Y-88990032D01*
X167414436Y-89199344D01*
X167320334Y-89262000D01*
X167259794Y-89233214D01*
X167221482Y-89127930D01*
X167200916Y-88917762D01*
X167193613Y-88574323D01*
X167193334Y-88457667D01*
X167197879Y-88074248D01*
X167214502Y-87831606D01*
X167247687Y-87701353D01*
X167301914Y-87655102D01*
X167320334Y-87653334D01*
X167393059Y-87691685D01*
G37*
G36*
X165748548Y-88174114D02*
G01*
X166026827Y-88210116D01*
X166160400Y-88262933D01*
X166227848Y-88406640D01*
X166261656Y-88631532D01*
X166263226Y-88882477D01*
X166233959Y-89104340D01*
X166175259Y-89241987D01*
X166135000Y-89262000D01*
X166055135Y-89216681D01*
X166016127Y-89059773D01*
X166008000Y-88838667D01*
X166001138Y-88587423D01*
X165966115Y-88462083D01*
X165881280Y-88419344D01*
X165796334Y-88415334D01*
X165670711Y-88429059D01*
X165608042Y-88499104D01*
X165586672Y-88668773D01*
X165584667Y-88838667D01*
X165571071Y-89104885D01*
X165523999Y-89234911D01*
X165457667Y-89262000D01*
X165377801Y-89216681D01*
X165338794Y-89059773D01*
X165330667Y-88838667D01*
X165321752Y-88584750D01*
X165283910Y-88458112D01*
X165200500Y-88417145D01*
X165161334Y-88415334D01*
X165059767Y-88437622D01*
X165009111Y-88532224D01*
X164992725Y-88740750D01*
X164992000Y-88838667D01*
X164983085Y-89092584D01*
X164945244Y-89219222D01*
X164861833Y-89260189D01*
X164822667Y-89262000D01*
X164731026Y-89244848D01*
X164679935Y-89168447D01*
X164657879Y-88995380D01*
X164653334Y-88711667D01*
X164653334Y-88161334D01*
X165356067Y-88161334D01*
X165748548Y-88174114D01*
G37*
G36*
X168288036Y-89951479D02*
G01*
X168337707Y-90008857D01*
X168364961Y-90142877D01*
X168376408Y-90384951D01*
X168378667Y-90743667D01*
X168373920Y-91133176D01*
X168355186Y-91392259D01*
X168315726Y-91559668D01*
X168248800Y-91674157D01*
X168209334Y-91717334D01*
X167998570Y-91830813D01*
X167694362Y-91886018D01*
X167362968Y-91880961D01*
X167070649Y-91813653D01*
X166958172Y-91754866D01*
X166871679Y-91680806D01*
X166816610Y-91580939D01*
X166785970Y-91419075D01*
X166772766Y-91159023D01*
X166770000Y-90781199D01*
X166772349Y-90397141D01*
X166783516Y-90151663D01*
X166809684Y-90014032D01*
X166857033Y-89953516D01*
X166931745Y-89939381D01*
X166939334Y-89939334D01*
X167023426Y-89953370D01*
X167073956Y-90018102D01*
X167099339Y-90167462D01*
X167107988Y-90435382D01*
X167108667Y-90622233D01*
X167121688Y-91062577D01*
X167167464Y-91359319D01*
X167256061Y-91536666D01*
X167397548Y-91618822D01*
X167528931Y-91632667D01*
X167753013Y-91604172D01*
X167902909Y-91501877D01*
X167991772Y-91300570D01*
X168032755Y-90975036D01*
X168040000Y-90652953D01*
X168043202Y-90304786D01*
X168058066Y-90092670D01*
X168092481Y-89983361D01*
X168154333Y-89943618D01*
X168209334Y-89939334D01*
X168288036Y-89951479D01*
G37*
G36*
X170161868Y-89944716D02*
G01*
X170326279Y-89968651D01*
X170396658Y-90022819D01*
X170410667Y-90108667D01*
X170392744Y-90201797D01*
X170313611Y-90253111D01*
X170135225Y-90274876D01*
X169881500Y-90279297D01*
X169502159Y-90295976D01*
X169269001Y-90349580D01*
X169161239Y-90448831D01*
X169154304Y-90584479D01*
X169199590Y-90673926D01*
X169318296Y-90731004D01*
X169547381Y-90768190D01*
X169751251Y-90786000D01*
X170056445Y-90822694D01*
X170299953Y-90877199D01*
X170423401Y-90934018D01*
X170505491Y-91115582D01*
X170517622Y-91369383D01*
X170465707Y-91616823D01*
X170360063Y-91776184D01*
X170177585Y-91839428D01*
X169851359Y-91877073D01*
X169505485Y-91886667D01*
X169159967Y-91883244D01*
X168950363Y-91867734D01*
X168843307Y-91832274D01*
X168805433Y-91769002D01*
X168802000Y-91720895D01*
X168819098Y-91636328D01*
X168893216Y-91583741D01*
X169058594Y-91553195D01*
X169349471Y-91534749D01*
X169458167Y-91530395D01*
X169789939Y-91513730D01*
X169986762Y-91487913D01*
X170083015Y-91442775D01*
X170113077Y-91368149D01*
X170114334Y-91336334D01*
X170094232Y-91244615D01*
X170010076Y-91186091D01*
X169826093Y-91147317D01*
X169530315Y-91116880D01*
X169139007Y-91060213D01*
X168889947Y-90959114D01*
X168758149Y-90795731D01*
X168718628Y-90552214D01*
X168718630Y-90536985D01*
X168768291Y-90282301D01*
X168924513Y-90104282D01*
X169203461Y-89994504D01*
X169621304Y-89944546D01*
X169865845Y-89939334D01*
X170161868Y-89944716D01*
G37*
G36*
X165366812Y-89955547D02*
G01*
X165731514Y-89986916D01*
X166023396Y-90035303D01*
X166198120Y-90092957D01*
X166213479Y-90103531D01*
X166311813Y-90269129D01*
X166344154Y-90498668D01*
X166310419Y-90718179D01*
X166214317Y-90851653D01*
X166125587Y-90922573D01*
X166176414Y-91003143D01*
X166214317Y-91035560D01*
X166320943Y-91212811D01*
X166346323Y-91449491D01*
X166293479Y-91672121D01*
X166182900Y-91799021D01*
X166023076Y-91840577D01*
X165747680Y-91871477D01*
X165410396Y-91886163D01*
X165336233Y-91886667D01*
X164653334Y-91886667D01*
X164653334Y-91336334D01*
X165076667Y-91336334D01*
X165090703Y-91462742D01*
X165161899Y-91525308D01*
X165333892Y-91546217D01*
X165492945Y-91548000D01*
X165772636Y-91526791D01*
X165927821Y-91468161D01*
X165946139Y-91442167D01*
X165958939Y-91268501D01*
X165840139Y-91166270D01*
X165576315Y-91126109D01*
X165490942Y-91124667D01*
X165243090Y-91131884D01*
X165120699Y-91168432D01*
X165080037Y-91256653D01*
X165076667Y-91336334D01*
X164653334Y-91336334D01*
X164653334Y-90902383D01*
X164653334Y-90532000D01*
X165076667Y-90532000D01*
X165084772Y-90690050D01*
X165138883Y-90763817D01*
X165283692Y-90779692D01*
X165478834Y-90769472D01*
X165722728Y-90745012D01*
X165841375Y-90695500D01*
X165878857Y-90594905D01*
X165881000Y-90532000D01*
X165864260Y-90402560D01*
X165784652Y-90335007D01*
X165598092Y-90303308D01*
X165478834Y-90294528D01*
X165236612Y-90284291D01*
X165118626Y-90312144D01*
X165080184Y-90404476D01*
X165076667Y-90532000D01*
X164653334Y-90532000D01*
X164653334Y-89918099D01*
X165366812Y-89955547D01*
G37*
G36*
X162411185Y-87738577D02*
G01*
X162607392Y-87884813D01*
X162715664Y-88107128D01*
X162733936Y-88354091D01*
X162660143Y-88574269D01*
X162492220Y-88716232D01*
X162450981Y-88729735D01*
X162354929Y-88778908D01*
X162303832Y-88890421D01*
X162284520Y-89106694D01*
X162282667Y-89271875D01*
X162282667Y-89770000D01*
X162875334Y-89770000D01*
X163468000Y-89770000D01*
X163468000Y-90320334D01*
X163479963Y-90607916D01*
X163511652Y-90804810D01*
X163552667Y-90870667D01*
X163705405Y-90941357D01*
X163857051Y-91111199D01*
X163958880Y-91316848D01*
X163976000Y-91421000D01*
X163900560Y-91673293D01*
X163711040Y-91874575D01*
X163462643Y-91969642D01*
X163425667Y-91971334D01*
X163172868Y-91895771D01*
X162971943Y-91705468D01*
X162877071Y-91455003D01*
X162875334Y-91416957D01*
X162938158Y-91203726D01*
X163087000Y-91005082D01*
X163220898Y-90845360D01*
X163283871Y-90649046D01*
X163298667Y-90374125D01*
X163298667Y-89939334D01*
X162155667Y-89939334D01*
X161012667Y-89939334D01*
X161012667Y-90343813D01*
X161030777Y-90618023D01*
X161105983Y-90802219D01*
X161266667Y-90971173D01*
X161468722Y-91230218D01*
X161512311Y-91499176D01*
X161394994Y-91754123D01*
X161351334Y-91802000D01*
X161112139Y-91940940D01*
X160852634Y-91944324D01*
X160620066Y-91831866D01*
X160461685Y-91623283D01*
X160420000Y-91413361D01*
X160496897Y-91176750D01*
X160674000Y-90971173D01*
X160836216Y-90799992D01*
X160910444Y-90615097D01*
X160928000Y-90343813D01*
X160928000Y-89939334D01*
X159742667Y-89939334D01*
X158557334Y-89939334D01*
X158557334Y-90405000D01*
X158571252Y-90660015D01*
X158607156Y-90829157D01*
X158642000Y-90870667D01*
X158794738Y-90941357D01*
X158946385Y-91111199D01*
X159048213Y-91316848D01*
X159065334Y-91421000D01*
X158989893Y-91673293D01*
X158800373Y-91874575D01*
X158551976Y-91969642D01*
X158515000Y-91971334D01*
X158295996Y-91912447D01*
X158134000Y-91802000D01*
X157983824Y-91553717D01*
X157996780Y-91285459D01*
X158170912Y-91014923D01*
X158227058Y-90960131D01*
X158377622Y-90807123D01*
X158451392Y-90662854D01*
X158469518Y-90462365D01*
X158459891Y-90245122D01*
X158430334Y-89769769D01*
X159044167Y-89769885D01*
X159658000Y-89770000D01*
X159658000Y-89271875D01*
X159649872Y-88985484D01*
X159616707Y-88825590D01*
X159545336Y-88749772D01*
X159489686Y-88729735D01*
X159316474Y-88606399D01*
X159215574Y-88383494D01*
X159209752Y-88123374D01*
X159235244Y-88032815D01*
X159397673Y-87818763D01*
X159647736Y-87702485D01*
X159919271Y-87710899D01*
X159974800Y-87731920D01*
X160170949Y-87893793D01*
X160274112Y-88124736D01*
X160283280Y-88373938D01*
X160197443Y-88590586D01*
X160015594Y-88723869D01*
X159994627Y-88730001D01*
X159899096Y-88779380D01*
X159848283Y-88891792D01*
X159829125Y-89109551D01*
X159827334Y-89271875D01*
X159827334Y-89770000D01*
X160970334Y-89770000D01*
X162113334Y-89770000D01*
X162113334Y-89307312D01*
X162101441Y-89022813D01*
X162055609Y-88857821D01*
X161960611Y-88763549D01*
X161939947Y-88751831D01*
X161731100Y-88566245D01*
X161650688Y-88333699D01*
X161680876Y-88092546D01*
X161803827Y-87881137D01*
X162001705Y-87737824D01*
X162256672Y-87700960D01*
X162411185Y-87738577D01*
G37*
D15*
%TO.C,IC2*%
X151900000Y-86300000D02*
X151900000Y-86960000D01*
X151900000Y-86960000D02*
X151900000Y-114900000D01*
X151900000Y-114900000D02*
X174760000Y-114900000D01*
X174760000Y-114900000D02*
X177300000Y-112360000D01*
X177300000Y-86300000D02*
X151900000Y-86300000D01*
X177300000Y-112360000D02*
X177300000Y-86300000D01*
%TO.C,IC1*%
X123310000Y-86290000D02*
X123310000Y-86950000D01*
X123310000Y-86950000D02*
X123310000Y-114890000D01*
X123310000Y-114890000D02*
X146170000Y-114890000D01*
X146170000Y-114890000D02*
X148710000Y-112350000D01*
X148710000Y-86290000D02*
X123310000Y-86290000D01*
X148710000Y-112350000D02*
X148710000Y-86290000D01*
D14*
%TO.C,G\u002A\u002A\u002A*%
G36*
X137974476Y-87678772D02*
G01*
X137989228Y-87738000D01*
X137921455Y-87850248D01*
X137862228Y-87865000D01*
X137749979Y-87797227D01*
X137735228Y-87738000D01*
X137803001Y-87625751D01*
X137862228Y-87611000D01*
X137974476Y-87678772D01*
G37*
G36*
X137933464Y-88155740D02*
G01*
X137973057Y-88287022D01*
X137988298Y-88544434D01*
X137989228Y-88669333D01*
X137980749Y-88978023D01*
X137950453Y-89149594D01*
X137891051Y-89215636D01*
X137862228Y-89219666D01*
X137790992Y-89182926D01*
X137751398Y-89051644D01*
X137736158Y-88794231D01*
X137735228Y-88669333D01*
X137743706Y-88360643D01*
X137774002Y-88189071D01*
X137833405Y-88123029D01*
X137862228Y-88119000D01*
X137933464Y-88155740D01*
G37*
G36*
X139957728Y-88135298D02*
G01*
X140192647Y-88167679D01*
X140306494Y-88237637D01*
X140344616Y-88351833D01*
X140322792Y-88508817D01*
X140238783Y-88542333D01*
X140123152Y-88474138D01*
X140105895Y-88408277D01*
X140054232Y-88310266D01*
X140000061Y-88309099D01*
X139931538Y-88410502D01*
X139882221Y-88635746D01*
X139868637Y-88781821D01*
X139835812Y-89063105D01*
X139774540Y-89198796D01*
X139720470Y-89219666D01*
X139651356Y-89179137D01*
X139612892Y-89037700D01*
X139598504Y-88765578D01*
X139597895Y-88664465D01*
X139597895Y-88109263D01*
X139957728Y-88135298D01*
G37*
G36*
X141391578Y-88186710D02*
G01*
X141591586Y-88360151D01*
X141701615Y-88594784D01*
X141701366Y-88846071D01*
X141570536Y-89069474D01*
X141559728Y-89079544D01*
X141328624Y-89197168D01*
X141051066Y-89218225D01*
X140796596Y-89146433D01*
X140661029Y-89031494D01*
X140554698Y-88767851D01*
X140830493Y-88767851D01*
X140919336Y-88931214D01*
X141068851Y-89023827D01*
X141234712Y-89018280D01*
X141372594Y-88887166D01*
X141372916Y-88886566D01*
X141452816Y-88676389D01*
X141409731Y-88517115D01*
X141327681Y-88421548D01*
X141154365Y-88347994D01*
X140970109Y-88404041D01*
X140846647Y-88561147D01*
X140830493Y-88767851D01*
X140554698Y-88767851D01*
X140546820Y-88748317D01*
X140576059Y-88476862D01*
X140727987Y-88258231D01*
X140981845Y-88133525D01*
X141121895Y-88119000D01*
X141391578Y-88186710D01*
G37*
G36*
X138527620Y-87649351D02*
G01*
X138567899Y-87785441D01*
X138583451Y-88050823D01*
X138584376Y-88140166D01*
X138586858Y-88669333D01*
X138837183Y-88394166D01*
X139034546Y-88222287D01*
X139224638Y-88126397D01*
X139274643Y-88119000D01*
X139380342Y-88127915D01*
X139388811Y-88175991D01*
X139291008Y-88295222D01*
X139196882Y-88394166D01*
X138931984Y-88669333D01*
X139152144Y-88923333D01*
X139285625Y-89087192D01*
X139311867Y-89167084D01*
X139239265Y-89202749D01*
X139212346Y-89208319D01*
X139037416Y-89160571D01*
X138827586Y-88969897D01*
X138817142Y-88957517D01*
X138581895Y-88675729D01*
X138581895Y-88947698D01*
X138548997Y-89157010D01*
X138454895Y-89219666D01*
X138394355Y-89190880D01*
X138356043Y-89085596D01*
X138335477Y-88875428D01*
X138328174Y-88531989D01*
X138327895Y-88415333D01*
X138332440Y-88031914D01*
X138349063Y-87789272D01*
X138382248Y-87659019D01*
X138436475Y-87612768D01*
X138454895Y-87611000D01*
X138527620Y-87649351D01*
G37*
G36*
X136883109Y-88131780D02*
G01*
X137161388Y-88167782D01*
X137294961Y-88220599D01*
X137362409Y-88364306D01*
X137396217Y-88589198D01*
X137397787Y-88840143D01*
X137368520Y-89062006D01*
X137309820Y-89199653D01*
X137269561Y-89219666D01*
X137189696Y-89174347D01*
X137150688Y-89017439D01*
X137142561Y-88796333D01*
X137135699Y-88545089D01*
X137100676Y-88419749D01*
X137015841Y-88377010D01*
X136930895Y-88373000D01*
X136805272Y-88386725D01*
X136742603Y-88456770D01*
X136721233Y-88626439D01*
X136719228Y-88796333D01*
X136705632Y-89062551D01*
X136658560Y-89192577D01*
X136592228Y-89219666D01*
X136512362Y-89174347D01*
X136473355Y-89017439D01*
X136465228Y-88796333D01*
X136456313Y-88542416D01*
X136418471Y-88415778D01*
X136335061Y-88374811D01*
X136295895Y-88373000D01*
X136194328Y-88395288D01*
X136143672Y-88489890D01*
X136127286Y-88698416D01*
X136126561Y-88796333D01*
X136117646Y-89050250D01*
X136079805Y-89176888D01*
X135996394Y-89217855D01*
X135957228Y-89219666D01*
X135865587Y-89202514D01*
X135814496Y-89126113D01*
X135792440Y-88953046D01*
X135787895Y-88669333D01*
X135787895Y-88119000D01*
X136490628Y-88119000D01*
X136883109Y-88131780D01*
G37*
G36*
X139422597Y-89909145D02*
G01*
X139472268Y-89966523D01*
X139499522Y-90100543D01*
X139510969Y-90342617D01*
X139513228Y-90701333D01*
X139508481Y-91090842D01*
X139489747Y-91349925D01*
X139450287Y-91517334D01*
X139383361Y-91631823D01*
X139343895Y-91675000D01*
X139133131Y-91788479D01*
X138828923Y-91843684D01*
X138497529Y-91838627D01*
X138205210Y-91771319D01*
X138092733Y-91712532D01*
X138006240Y-91638472D01*
X137951171Y-91538605D01*
X137920531Y-91376741D01*
X137907327Y-91116689D01*
X137904561Y-90738865D01*
X137906910Y-90354807D01*
X137918077Y-90109329D01*
X137944245Y-89971698D01*
X137991594Y-89911182D01*
X138066306Y-89897047D01*
X138073895Y-89897000D01*
X138157987Y-89911036D01*
X138208517Y-89975768D01*
X138233900Y-90125128D01*
X138242549Y-90393048D01*
X138243228Y-90579899D01*
X138256249Y-91020243D01*
X138302025Y-91316985D01*
X138390622Y-91494332D01*
X138532109Y-91576488D01*
X138663492Y-91590333D01*
X138887574Y-91561838D01*
X139037470Y-91459543D01*
X139126333Y-91258236D01*
X139167316Y-90932702D01*
X139174561Y-90610619D01*
X139177763Y-90262452D01*
X139192627Y-90050336D01*
X139227042Y-89941027D01*
X139288894Y-89901284D01*
X139343895Y-89897000D01*
X139422597Y-89909145D01*
G37*
G36*
X141296429Y-89902382D02*
G01*
X141460840Y-89926317D01*
X141531219Y-89980485D01*
X141545228Y-90066333D01*
X141527305Y-90159463D01*
X141448172Y-90210777D01*
X141269786Y-90232542D01*
X141016061Y-90236963D01*
X140636720Y-90253642D01*
X140403562Y-90307246D01*
X140295800Y-90406497D01*
X140288865Y-90542145D01*
X140334151Y-90631592D01*
X140452857Y-90688670D01*
X140681942Y-90725856D01*
X140885812Y-90743666D01*
X141191006Y-90780360D01*
X141434514Y-90834865D01*
X141557962Y-90891684D01*
X141640052Y-91073248D01*
X141652183Y-91327049D01*
X141600268Y-91574489D01*
X141494624Y-91733850D01*
X141312146Y-91797094D01*
X140985920Y-91834739D01*
X140640046Y-91844333D01*
X140294528Y-91840910D01*
X140084924Y-91825400D01*
X139977868Y-91789940D01*
X139939994Y-91726668D01*
X139936561Y-91678561D01*
X139953659Y-91593994D01*
X140027777Y-91541407D01*
X140193155Y-91510861D01*
X140484032Y-91492415D01*
X140592728Y-91488061D01*
X140924500Y-91471396D01*
X141121323Y-91445579D01*
X141217576Y-91400441D01*
X141247638Y-91325815D01*
X141248895Y-91294000D01*
X141228793Y-91202281D01*
X141144637Y-91143757D01*
X140960654Y-91104983D01*
X140664876Y-91074546D01*
X140273568Y-91017879D01*
X140024508Y-90916780D01*
X139892710Y-90753397D01*
X139853189Y-90509880D01*
X139853191Y-90494651D01*
X139902852Y-90239967D01*
X140059074Y-90061948D01*
X140338022Y-89952170D01*
X140755865Y-89902212D01*
X141000406Y-89897000D01*
X141296429Y-89902382D01*
G37*
G36*
X136501373Y-89913213D02*
G01*
X136866075Y-89944582D01*
X137157957Y-89992969D01*
X137332681Y-90050623D01*
X137348040Y-90061197D01*
X137446374Y-90226795D01*
X137478715Y-90456334D01*
X137444980Y-90675845D01*
X137348878Y-90809319D01*
X137260148Y-90880239D01*
X137310975Y-90960809D01*
X137348878Y-90993226D01*
X137455504Y-91170477D01*
X137480884Y-91407157D01*
X137428040Y-91629787D01*
X137317461Y-91756687D01*
X137157637Y-91798243D01*
X136882241Y-91829143D01*
X136544957Y-91843829D01*
X136470794Y-91844333D01*
X135787895Y-91844333D01*
X135787895Y-91294000D01*
X136211228Y-91294000D01*
X136225264Y-91420408D01*
X136296460Y-91482974D01*
X136468453Y-91503883D01*
X136627506Y-91505666D01*
X136907197Y-91484457D01*
X137062382Y-91425827D01*
X137080700Y-91399833D01*
X137093500Y-91226167D01*
X136974700Y-91123936D01*
X136710876Y-91083775D01*
X136625503Y-91082333D01*
X136377651Y-91089550D01*
X136255260Y-91126098D01*
X136214598Y-91214319D01*
X136211228Y-91294000D01*
X135787895Y-91294000D01*
X135787895Y-90860049D01*
X135787895Y-90489666D01*
X136211228Y-90489666D01*
X136219333Y-90647716D01*
X136273444Y-90721483D01*
X136418253Y-90737358D01*
X136613395Y-90727138D01*
X136857289Y-90702678D01*
X136975936Y-90653166D01*
X137013418Y-90552571D01*
X137015561Y-90489666D01*
X136998821Y-90360226D01*
X136919213Y-90292673D01*
X136732653Y-90260974D01*
X136613395Y-90252194D01*
X136371173Y-90241957D01*
X136253187Y-90269810D01*
X136214745Y-90362142D01*
X136211228Y-90489666D01*
X135787895Y-90489666D01*
X135787895Y-89875765D01*
X136501373Y-89913213D01*
G37*
G36*
X133545746Y-87696243D02*
G01*
X133741953Y-87842479D01*
X133850225Y-88064794D01*
X133868497Y-88311757D01*
X133794704Y-88531935D01*
X133626781Y-88673898D01*
X133585542Y-88687401D01*
X133489490Y-88736574D01*
X133438393Y-88848087D01*
X133419081Y-89064360D01*
X133417228Y-89229541D01*
X133417228Y-89727666D01*
X134009895Y-89727666D01*
X134602561Y-89727666D01*
X134602561Y-90278000D01*
X134614524Y-90565582D01*
X134646213Y-90762476D01*
X134687228Y-90828333D01*
X134839966Y-90899023D01*
X134991612Y-91068865D01*
X135093441Y-91274514D01*
X135110561Y-91378666D01*
X135035121Y-91630959D01*
X134845601Y-91832241D01*
X134597204Y-91927308D01*
X134560228Y-91929000D01*
X134307429Y-91853437D01*
X134106504Y-91663134D01*
X134011632Y-91412669D01*
X134009895Y-91374623D01*
X134072719Y-91161392D01*
X134221561Y-90962748D01*
X134355459Y-90803026D01*
X134418432Y-90606712D01*
X134433228Y-90331791D01*
X134433228Y-89897000D01*
X133290228Y-89897000D01*
X132147228Y-89897000D01*
X132147228Y-90301479D01*
X132165338Y-90575689D01*
X132240544Y-90759885D01*
X132401228Y-90928839D01*
X132603283Y-91187884D01*
X132646872Y-91456842D01*
X132529555Y-91711789D01*
X132485895Y-91759666D01*
X132246700Y-91898606D01*
X131987195Y-91901990D01*
X131754627Y-91789532D01*
X131596246Y-91580949D01*
X131554561Y-91371027D01*
X131631458Y-91134416D01*
X131808561Y-90928839D01*
X131970777Y-90757658D01*
X132045005Y-90572763D01*
X132062561Y-90301479D01*
X132062561Y-89897000D01*
X130877228Y-89897000D01*
X129691895Y-89897000D01*
X129691895Y-90362666D01*
X129705813Y-90617681D01*
X129741717Y-90786823D01*
X129776561Y-90828333D01*
X129929299Y-90899023D01*
X130080946Y-91068865D01*
X130182774Y-91274514D01*
X130199895Y-91378666D01*
X130124454Y-91630959D01*
X129934934Y-91832241D01*
X129686537Y-91927308D01*
X129649561Y-91929000D01*
X129430557Y-91870113D01*
X129268561Y-91759666D01*
X129118385Y-91511383D01*
X129131341Y-91243125D01*
X129305473Y-90972589D01*
X129361619Y-90917797D01*
X129512183Y-90764789D01*
X129585953Y-90620520D01*
X129604079Y-90420031D01*
X129594452Y-90202788D01*
X129564895Y-89727435D01*
X130178728Y-89727551D01*
X130792561Y-89727666D01*
X130792561Y-89229541D01*
X130784433Y-88943150D01*
X130751268Y-88783256D01*
X130679897Y-88707438D01*
X130624247Y-88687401D01*
X130451035Y-88564065D01*
X130350135Y-88341160D01*
X130344313Y-88081040D01*
X130369805Y-87990481D01*
X130532234Y-87776429D01*
X130782297Y-87660151D01*
X131053832Y-87668565D01*
X131109361Y-87689586D01*
X131305510Y-87851459D01*
X131408673Y-88082402D01*
X131417841Y-88331604D01*
X131332004Y-88548252D01*
X131150155Y-88681535D01*
X131129188Y-88687667D01*
X131033657Y-88737046D01*
X130982844Y-88849458D01*
X130963686Y-89067217D01*
X130961895Y-89229541D01*
X130961895Y-89727666D01*
X132104895Y-89727666D01*
X133247895Y-89727666D01*
X133247895Y-89264978D01*
X133236002Y-88980479D01*
X133190170Y-88815487D01*
X133095172Y-88721215D01*
X133074508Y-88709497D01*
X132865661Y-88523911D01*
X132785249Y-88291365D01*
X132815437Y-88050212D01*
X132938388Y-87838803D01*
X133136266Y-87695490D01*
X133391233Y-87658626D01*
X133545746Y-87696243D01*
G37*
%TD*%
D16*
%TO.C,J1*%
X123540000Y-75800000D03*
X126080000Y-75800000D03*
X128620000Y-75800000D03*
X131160000Y-75800000D03*
X133700000Y-75800000D03*
X136240000Y-75800000D03*
X138780000Y-75800000D03*
X141320000Y-75800000D03*
X143860000Y-75800000D03*
X146400000Y-75800000D03*
X148940000Y-75800000D03*
X151480000Y-75800000D03*
X154020000Y-75800000D03*
X156560000Y-75800000D03*
X159100000Y-75800000D03*
X161640000Y-75800000D03*
X164180000Y-75800000D03*
X166720000Y-75800000D03*
X169260000Y-75800000D03*
X171800000Y-75800000D03*
D17*
X124810000Y-74530000D03*
X170530000Y-74530000D03*
D16*
X123540000Y-73260000D03*
X126080000Y-73260000D03*
X128620000Y-73260000D03*
X131160000Y-73260000D03*
X133700000Y-73260000D03*
X136240000Y-73260000D03*
X138780000Y-73260000D03*
X141320000Y-73260000D03*
X143860000Y-73260000D03*
X146400000Y-73260000D03*
X148940000Y-73260000D03*
X151480000Y-73260000D03*
X154020000Y-73260000D03*
X156560000Y-73260000D03*
X159100000Y-73260000D03*
X161640000Y-73260000D03*
X164180000Y-73260000D03*
X166720000Y-73260000D03*
X169260000Y-73260000D03*
X171800000Y-73260000D03*
%TD*%
M02*
