M48
; DRILL file {KiCad 8.0.2} date 2024-07-30T13:50:37+0200
; FORMAT={-:-/ absolute / inch / decimal}
; #@! TF.CreationDate,2024-07-30T13:50:37+02:00
; #@! TF.GenerationSoftware,Kicad,Pcbnew,8.0.2
; #@! TF.FileFunction,NonPlated,1,2,NPTH
FMAT,2
INCH
; #@! TA.AperFunction,NonPlated,NPTH,ComponentDrill
T1C0.0380
; #@! TA.AperFunction,NonPlated,NPTH,ComponentDrill
T2C0.0700
; #@! TA.AperFunction,NonPlated,NPTH,ComponentDrill
T3C0.1083
%
G90
G05
T1
X4.8638Y-2.8843
X4.8638Y-2.9843
X4.9638Y-2.8843
X4.9638Y-2.9843
X5.0638Y-2.8843
X5.0638Y-2.9843
X5.1638Y-2.8843
X5.1638Y-2.9843
X5.2638Y-2.8843
X5.2638Y-2.9843
X5.3638Y-2.8843
X5.3638Y-2.9843
X5.4638Y-2.8843
X5.4638Y-2.9843
X5.5638Y-2.8843
X5.5638Y-2.9843
X5.6638Y-2.8843
X5.6638Y-2.9843
X5.7638Y-2.8843
X5.7638Y-2.9843
X5.8638Y-2.8843
X5.8638Y-2.9843
X5.9638Y-2.8843
X5.9638Y-2.9843
X6.0638Y-2.8843
X6.0638Y-2.9843
X6.1638Y-2.8843
X6.1638Y-2.9843
X6.2638Y-2.8843
X6.2638Y-2.9843
X6.3638Y-2.8843
X6.3638Y-2.9843
X6.4638Y-2.8843
X6.4638Y-2.9843
X6.5638Y-2.8843
X6.5638Y-2.9843
X6.6638Y-2.8843
X6.6638Y-2.9843
X6.7638Y-2.8843
X6.7638Y-2.9843
T2
X4.9138Y-2.9343
X6.7138Y-2.9343
T3
X4.676Y-2.9354
X4.676Y-4.8646
X6.9594Y-2.9354
X6.9594Y-4.8646
M30
